<svg xmlns="http://www.w3.org/2000/svg" width="462.027" height="132.04" viewBox="0 0 462.027 132.04" style="">
  animation
  <title>gif</title>
  <g id="pointExcla">
    <path d="M450.578,105.971h.332A13.293,13.293,0,0,1,464.2,119.265h0a13.293,13.293,0,0,1-13.293,13.293h-.332a13.294,13.294,0,0,1-13.293-13.293h0A13.294,13.294,0,0,1,450.578,105.971Z" transform="translate(-9.177 -7.518)" fill="none" stroke="#008ea8" stroke-width="14" class="DNIBXBMN_0"></path>
  </g>
  <g id="traceB">
    <path d="M61.734,14.518H64.8c13.364,0,23.886,3.646,30.567,10.275a26.5,26.5,0,0,1,8.018,19.722v.332c0,13.092-7.015,20.385-15.366,25.025C101.553,75.01,109.9,82.8,109.9,98.378v.331c0,21.214-17.371,31.821-43.764,31.821H61.734" transform="translate(-9.177 -7.518)" fill="none" stroke="#008ea8" stroke-width="14" class="DNIBXBMN_1"></path>
  </g>
  <g id="b">
    <g>
      <path d="M11.177,14.518H65.1c13.275,0,23.727,3.65,30.364,10.288a26.631,26.631,0,0,1,7.965,19.744v.332c0,13.109-6.968,20.41-15.264,25.056C101.608,75.081,109.9,82.88,109.9,98.477v.332c0,21.238-17.256,31.858-43.474,31.858H11.177ZM59.628,61.475c11.282,0,18.418-3.651,18.418-12.279v-.332c0-7.632-5.974-11.946-16.759-11.946H36.066V61.475Zm6.8,46.791c11.284,0,18.087-3.982,18.087-12.61v-.332c0-7.8-5.808-12.61-18.917-12.61H36.066v25.552Z" transform="translate(-9.177 -7.518)" fill="none" stroke="#575756" stroke-width="4" class="DNIBXBMN_2"></path>
      <path d="M11.177,14.518H65.1c13.275,0,23.727,3.65,30.364,10.288a26.631,26.631,0,0,1,7.965,19.744v.332c0,13.109-6.968,20.41-15.264,25.056C101.608,75.081,109.9,82.88,109.9,98.477v.332c0,21.238-17.256,31.858-43.474,31.858H11.177ZM59.628,61.475c11.282,0,18.418-3.651,18.418-12.279v-.332c0-7.632-5.974-11.946-16.759-11.946H36.066V61.475Zm6.8,46.791c11.284,0,18.087-3.982,18.087-12.61v-.332c0-7.8-5.808-12.61-18.917-12.61H36.066v25.552Z" transform="translate(-9.177 -7.518)" fill="none" stroke="#1d1d1b" stroke-width="4" class="DNIBXBMN_3"></path>
    </g>
  </g>
  <g id="a">
    <path d="M179.868,13.551h23.56L253.207,130.53H226.493l-10.619-26.051H166.76L156.14,130.53H130.089Zm26.879,68.362-15.43-37.665L175.885,81.913Z" transform="translate(-9.177 -7.518)" fill="none" stroke="#1d1d1b" stroke-width="4" class="DNIBXBMN_4"></path>
  </g>
  <g id="excla">
    <path d="M435.955,16.731V13.407h29.578v3.324l-7.81,73.444H443.765Zm14.623,89.24h.332A13.293,13.293,0,0,1,464.2,119.265h0a13.293,13.293,0,0,1-13.293,13.293h-.332a13.294,13.294,0,0,1-13.293-13.293h0A13.294,13.294,0,0,1,450.578,105.971Z" transform="translate(-9.177 -7.518)" fill="none" stroke="#1d1d1b" stroke-width="4" class="DNIBXBMN_5"></path>
  </g>
  <g id="rondJ">
    <path fill="#f2dd44" d="M255.58,20.72A11.357,11.357 0,1,1 278.294,20.72A11.357,11.357 0,1,1 255.58,20.72" class="DNIBXBMN_6"></path>
  </g>
  <g id="rondR">
    <path fill="#d13445" d="M272.737,51.728A6.462,6.462 0,1,1 285.661,51.728A6.462,6.462 0,1,1 272.737,51.728" class="DNIBXBMN_7"></path>
  </g>
  <g id="m">
    <path d="M275.548,13.379h27.544l30.53,49.115,30.531-49.115H391.7V129.528H366.309V53.7l-32.687,49.612h-.663L300.6,54.2v75.331H275.548Z" transform="translate(-9.177 -7.518)" fill="none" stroke="#1d1d1b" stroke-width="4" class="DNIBXBMN_8"></path>
  </g>
  <g id="vagueSub">
    <path d="M247.983,93.9c-4.017,0-4.017-5.046-8.034-5.046s-4.018,5.046-8.035,5.046-4.018-5.046-8.035-5.046S219.86,93.9,215.842,93.9s-4.02-5.046-8.04-5.046-4.019,5.046-8.037,5.046-4.022-5.046-8.043-5.046S187.7,93.9,183.679,93.9" transform="translate(-9.177 -7.518)" fill="none" stroke="#d13445" stroke-width="3.553" class="DNIBXBMN_9"></path>
  </g>
  <g id="vagueMid">
    <path d="M247.983,79.522c-4.017,0-4.017-5.046-8.034-5.046s-4.018,5.046-8.035,5.046-4.018-5.046-8.035-5.046-4.019,5.046-8.037,5.046-4.02-5.046-8.04-5.046-4.019,5.046-8.037,5.046-4.022-5.046-8.043-5.046-4.021,5.046-8.043,5.046" transform="translate(-9.177 -7.518)" fill="none" stroke="#d13445" stroke-width="3.553" class="DNIBXBMN_10"></path>
  </g>
  <g id="vagueSup">
    <path d="M247.983,65.142c-4.017,0-4.017-5.045-8.034-5.045s-4.018,5.045-8.035,5.045S227.9,60.1,223.879,60.1s-4.019,5.045-8.037,5.045-4.02-5.045-8.04-5.045-4.019,5.045-8.037,5.045-4.022-5.045-8.043-5.045-4.021,5.045-8.043,5.045" transform="translate(-9.177 -7.518)" fill="none" stroke="#d13445" stroke-width="3.553" class="DNIBXBMN_11"></path>
  </g>
  <g id="fondChaussette">
    <path width="35.376" height="55.969" fill="#fff" d="M352.267 72.731 L387.643 72.731 L387.643 128.7 L352.267 128.7 Z" class="DNIBXBMN_12"></path>
  </g>
  <g id="chaussette">
    <g>
      <path fill="#d13445" d="M369.795,126.639L379.721,114.179L387.459,123.887L387.459,111.964L379.722,102.259L369.795,114.721L359.864,102.26L352.084,112.026L352.084,123.945L359.864,114.179L369.795,126.639Z" class="DNIBXBMN_13"></path>
      <path fill="#d13445" d="M354.125,128.437L365.605,128.437L359.864,121.233L354.125,128.437Z" class="DNIBXBMN_14"></path>
      <path fill="#d13445" d="M369.795,107.666L379.721,95.206L387.459,104.913L387.459,72.468L352.084,72.468L352.084,104.972L359.864,95.205L369.795,107.666Z" class="DNIBXBMN_15"></path>
      <path fill="#d13445" d="M373.983,128.437L385.466,128.437L379.722,121.232L373.983,128.437Z" class="DNIBXBMN_16"></path>
    </g>
  </g>
<style>
.DNIBXBMN_0{stroke-dasharray:85 87;stroke-dashoffset:86;animation:DNIBXBMN_draw_0 2700ms ease-in-out 0ms infinite,DNIBXBMN_fade 2700ms linear 0ms infinite;}
.DNIBXBMN_1{stroke-dasharray:195 197;stroke-dashoffset:196;animation:DNIBXBMN_draw_1 2700ms ease-in-out 0ms infinite,DNIBXBMN_fade 2700ms linear 0ms infinite;}
.DNIBXBMN_2{stroke-dasharray:670 672;stroke-dashoffset:671;animation:DNIBXBMN_draw_2 2700ms ease-in-out 0ms infinite,DNIBXBMN_fade 2700ms linear 0ms infinite;}
.DNIBXBMN_3{stroke-dasharray:670 672;stroke-dashoffset:671;animation:DNIBXBMN_draw_3 2700ms ease-in-out 0ms infinite,DNIBXBMN_fade 2700ms linear 0ms infinite;}
.DNIBXBMN_4{stroke-dasharray:549 551;stroke-dashoffset:550;animation:DNIBXBMN_draw_4 2700ms ease-in-out 0ms infinite,DNIBXBMN_fade 2700ms linear 0ms infinite;}
.DNIBXBMN_5{stroke-dasharray:283 285;stroke-dashoffset:284;animation:DNIBXBMN_draw_5 2700ms ease-in-out 0ms infinite,DNIBXBMN_fade 2700ms linear 0ms infinite;}
.DNIBXBMN_6{stroke-dasharray:72 74;stroke-dashoffset:73;animation:DNIBXBMN_draw_6 2700ms ease-in-out 0ms infinite,DNIBXBMN_fade 2700ms linear 0ms infinite;}
.DNIBXBMN_7{stroke-dasharray:41 43;stroke-dashoffset:42;animation:DNIBXBMN_draw_7 2700ms ease-in-out 0ms infinite,DNIBXBMN_fade 2700ms linear 0ms infinite;}
.DNIBXBMN_8{stroke-dasharray:724 726;stroke-dashoffset:725;animation:DNIBXBMN_draw_8 2700ms ease-in-out 0ms infinite,DNIBXBMN_fade 2700ms linear 0ms infinite;}
.DNIBXBMN_9{stroke-dasharray:80 82;stroke-dashoffset:81;animation:DNIBXBMN_draw_9 2700ms ease-in-out 0ms infinite,DNIBXBMN_fade 2700ms linear 0ms infinite;}
.DNIBXBMN_10{stroke-dasharray:80 82;stroke-dashoffset:81;animation:DNIBXBMN_draw_10 2700ms ease-in-out 0ms infinite,DNIBXBMN_fade 2700ms linear 0ms infinite;}
.DNIBXBMN_11{stroke-dasharray:80 82;stroke-dashoffset:81;animation:DNIBXBMN_draw_11 2700ms ease-in-out 0ms infinite,DNIBXBMN_fade 2700ms linear 0ms infinite;}
.DNIBXBMN_12{stroke-dasharray:183 185;stroke-dashoffset:184;animation:DNIBXBMN_draw_12 2700ms ease-in-out 0ms infinite,DNIBXBMN_fade 2700ms linear 0ms infinite;}
.DNIBXBMN_13{stroke-dasharray:138 140;stroke-dashoffset:139;animation:DNIBXBMN_draw_13 2700ms ease-in-out 0ms infinite,DNIBXBMN_fade 2700ms linear 0ms infinite;}
.DNIBXBMN_14{stroke-dasharray:30 32;stroke-dashoffset:31;animation:DNIBXBMN_draw_14 2700ms ease-in-out 0ms infinite,DNIBXBMN_fade 2700ms linear 0ms infinite;}
.DNIBXBMN_15{stroke-dasharray:158 160;stroke-dashoffset:159;animation:DNIBXBMN_draw_15 2700ms ease-in-out 0ms infinite,DNIBXBMN_fade 2700ms linear 0ms infinite;}
.DNIBXBMN_16{stroke-dasharray:30 32;stroke-dashoffset:31;animation:DNIBXBMN_draw_16 2700ms ease-in-out 0ms infinite,DNIBXBMN_fade 2700ms linear 0ms infinite;}

@keyframes DNIBXBMN_draw{100%{stroke-dashoffset:0;}}
@keyframes DNIBXBMN_fade{0%{stroke-opacity:0;fill-opacity:0;}10%{stroke-opacity:1;fill-opacity:1;}90.29629629629629%{stroke-opacity:1;fill-opacity:1;}100%{stroke-opacity:0;fill-opacity:0;}}

@keyframes DNIBXBMN_draw_0{3.7037037037037033%{stroke-dashoffset: 86}74.07407407407408%{ stroke-dashoffset: 0;}100%{ stroke-dashoffset: 0;}}
@keyframes DNIBXBMN_draw_1{3.935185185185185%{stroke-dashoffset: 196}74.30555555555556%{ stroke-dashoffset: 0;}100%{ stroke-dashoffset: 0;}}
@keyframes DNIBXBMN_draw_2{4.166666666666666%{stroke-dashoffset: 671}74.53703703703704%{ stroke-dashoffset: 0;}100%{ stroke-dashoffset: 0;}}
@keyframes DNIBXBMN_draw_3{4.398148148148148%{stroke-dashoffset: 671}74.76851851851852%{ stroke-dashoffset: 0;}100%{ stroke-dashoffset: 0;}}
@keyframes DNIBXBMN_draw_4{4.62962962962963%{stroke-dashoffset: 550}75%{ stroke-dashoffset: 0;}100%{ stroke-dashoffset: 0;}}
@keyframes DNIBXBMN_draw_5{4.861111111111112%{stroke-dashoffset: 284}75.23148148148148%{ stroke-dashoffset: 0;}100%{ stroke-dashoffset: 0;}}
@keyframes DNIBXBMN_draw_6{5.092592592592593%{stroke-dashoffset: 73}75.46296296296296%{ stroke-dashoffset: 0;}100%{ stroke-dashoffset: 0;}}
@keyframes DNIBXBMN_draw_7{5.324074074074074%{stroke-dashoffset: 42}75.69444444444444%{ stroke-dashoffset: 0;}100%{ stroke-dashoffset: 0;}}
@keyframes DNIBXBMN_draw_8{5.555555555555555%{stroke-dashoffset: 725}75.92592592592592%{ stroke-dashoffset: 0;}100%{ stroke-dashoffset: 0;}}
@keyframes DNIBXBMN_draw_9{5.787037037037037%{stroke-dashoffset: 81}76.1574074074074%{ stroke-dashoffset: 0;}100%{ stroke-dashoffset: 0;}}
@keyframes DNIBXBMN_draw_10{6.018518518518518%{stroke-dashoffset: 81}76.38888888888889%{ stroke-dashoffset: 0;}100%{ stroke-dashoffset: 0;}}
@keyframes DNIBXBMN_draw_11{6.25%{stroke-dashoffset: 81}76.62037037037037%{ stroke-dashoffset: 0;}100%{ stroke-dashoffset: 0;}}
@keyframes DNIBXBMN_draw_12{6.481481481481481%{stroke-dashoffset: 184}76.85185185185185%{ stroke-dashoffset: 0;}100%{ stroke-dashoffset: 0;}}
@keyframes DNIBXBMN_draw_13{6.712962962962964%{stroke-dashoffset: 139}77.08333333333334%{ stroke-dashoffset: 0;}100%{ stroke-dashoffset: 0;}}
@keyframes DNIBXBMN_draw_14{6.944444444444445%{stroke-dashoffset: 31}77.31481481481481%{ stroke-dashoffset: 0;}100%{ stroke-dashoffset: 0;}}
@keyframes DNIBXBMN_draw_15{7.175925925925926%{stroke-dashoffset: 159}77.54629629629629%{ stroke-dashoffset: 0;}100%{ stroke-dashoffset: 0;}}
@keyframes DNIBXBMN_draw_16{7.4074074074074066%{stroke-dashoffset: 31}77.77777777777779%{ stroke-dashoffset: 0;}100%{ stroke-dashoffset: 0;}}
</style></svg>
