<?xml version="1.0" encoding="utf-8"?>
<!-- Generator: Adobe Illustrator 18.1.1, SVG Export Plug-In . SVG Version: 6.00 Build 0)  -->
<svg version="1.1" id="Calque_1" xmlns="http://www.w3.org/2000/svg" xmlns:xlink="http://www.w3.org/1999/xlink" x="0px" y="0px"
	 viewBox="0 0 261.8 275" enable-background="new 0 0 261.8 275" xml:space="preserve">
<g>
	<g>
		<g>
			<path fill="#51508A" d="M221.4,109.6c-0.6,23.5-12.5,43.7-25.8,62.1c-5.5,8.3-11.8,16.2-17.6,24.4c-5.7,8-11.4,16.1-17.4,23.9
				c-6.3,8.8-12.6,17.5-18.9,26.3c-0.4,0.6-0.8,1.2-1.2,1.7c-1.9,2.7-5.9,2.7-7.8,0c-5-7-10-14-15-21
				c-15.1-21.2-30.6-42.2-45.4-63.6c-11-16-20.2-33.7-20.2-53.6c0-46.4,37.3-83.7,83.5-84.6c0.4,0,0.7,0,1.1,0
				c14.8-0.1,28.8,3.5,41,10C204.4,49.2,222.3,77,221.4,109.6z"/>
		</g>
	</g>
	<g>
		<path fill="#FFFFFF" stroke="#51508A" stroke-width="2" stroke-miterlimit="10" d="M97.8,109.8c0.5-0.5-2.8-14,0-23.8
			s13.3-31.6,38.3-31.6s38.8,19.7,38.8,55.1c0,0.5,5.8,5.5,2,18c-3.8,12.5-6,16.8-14.3,16.5c0,0,1.5,20-13.3,31.1h-21.8
			c0,0-10.3-7.5-17-16.5v-14.3c0,0-10,2.8-12.5-8.5C95.5,124.6,94,113.6,97.8,109.8z"/>
		<path fill="#51508A" d="M133,118.3c0,0-5.3-0.9-10-3.5c-4.7-2.6-17.1-9.3-20,3.3c0,0,1.4-2.8,4.3-4c0,0-1.4,3.1-0.9,6.9
			s2.8,9.9,8.5,9.9s18.1-8.7,18.1-13"/>
		<path fill="#51508A" d="M143.1,119c0,0,5.3-0.9,10-3.5c4.7-2.6,17.1-9.3,20,3.3c0,0-1.4-2.8-4.3-4c0,0,1.4,3.1,0.9,6.9
			c-0.5,3.9-2.8,9.9-8.5,9.9c-5.7,0-18.1-8.7-18.1-13"/>
		<path fill="#51508A" d="M138,125.5c0,0-7.3,10.2-7.3,13.9c0,3.5,4.6,5.4,7.1,2.8c2.5,2.9,7.5,0.8,7.5-2.8
			C145.3,135.7,138,125.5,138,125.5z"/>
		<path fill="#51508A" d="M109.1,144c0,0,3.2-4.2,7-1.9c3.8,2.3,3.9,5.8,3.6,14.4c0,0-2.1-14.6-8.6-10.1L109.1,144z"/>
		<path fill="#51508A" d="M165.1,143.2c0,0-3.2-4.2-7-1.9c-3.8,2.3-3.9,5.8-3.6,14.4c0,0,2.1-14.6,8.6-10.1L165.1,143.2z"/>
		<path fill="#51508A" d="M129.2,55.8c0,0,13.4,3.5,18.6,19s3.5,41.3,3.5,40.6s7.4-6.2,12.8-5.4s10.5,4.8,10.1,10.6c0,0-2-3-3.8-3.7
			c0.2,0.9,1.1,5-0.5,9c-1.9,4.7-5.1,8.1-10.5,8.1c-5.4,0-4.2,16.8-4.2,16.8l2.7-7.5l5.6,1.7l3.3-2.4c0.7-0.5,1.3-1.1,2-1.7l0,0
			c1.2-1.2,2.2-2.7,3-4.2l1.3-2.7c0.5-1.1,1-2.3,1.3-3.5l1.4-5.9c0.6-2.3,0.6-4.8,0.2-7.1v0c-0.5-2.5-1.6-4.9-3.1-7l-0.2-0.2
			l-0.2-7.3c0-0.7-0.1-1.5-0.1-2.2l-0.9-8.7c-0.3-2.7-0.9-5.4-1.9-7.9l-2.4-6.4c-1.3-3.3-3.1-6.4-5.4-9.1l-1.9-2.2
			c-1.3-1.5-2.8-3-4.4-4.2l-0.1-0.1c-3.5-2.7-7.5-4.6-11.8-5.6v0c-2.3-0.5-4.6-0.8-6.9-0.8l-8,0"/>
		<path fill="#51508A" d="M154.4,155.2c0,0-4.7,4.2-18.6,4.1c0,0,8.1,3.9,14.8,1.3c6.6-2.6-1.8,12.5-1.8,12.5s4.8-4.2,6.8-7.8
			c2-3.5,6.1-17.3,4.8-21.9c-1.3-4.5-4.6,4.2-4.6,4.2L154.4,155.2z"/>
	</g>
</g>
</svg>
