<?xml version="1.0" encoding="utf-8"?>
<!-- Generator: Adobe Illustrator 18.1.1, SVG Export Plug-In . SVG Version: 6.00 Build 0)  -->
<svg version="1.1" xmlns="http://www.w3.org/2000/svg" xmlns:xlink="http://www.w3.org/1999/xlink" x="0px" y="0px"
	 viewBox="0 0 2362 1360" enable-background="new 0 0 2362 1360" xml:space="preserve">
<g id="Calque_1">
	<polygon fill="#A9FF88" points="2235.4,697.8 2001.7,827.6 2001.7,1113.2 1848.7,1303.7 383.1,1303.7 383.1,891.1 106.1,891.1 
		106.1,469.9 596.6,469.9 639.9,426.6 1254.4,426.6 1430.4,81.5 2174.8,81.5 	"/>
</g>
<g id="Calque_2">
	<polygon fill="#85C275" points="1925.6,81.5 1925.6,426.6 1251.4,426.6 1427.4,81.5 	"/>
	<path fill="#85C275" d="M1213.8,426.6l-188.3,453.1c0,0-459-15-459,0V469.9h27.1l43.3-43.3H1213.8z"/>
	<polygon fill="#85C275" points="1998.7,912.7 1998.7,1113.2 1845.7,1303.7 1481.6,1303.7 1481.6,912.7 	"/>
</g>
</svg>
