<?xml version="1.0" encoding="utf-8"?>
<!-- Generator: Adobe Illustrator 18.1.1, SVG Export Plug-In . SVG Version: 6.00 Build 0)  -->
<svg version="1.1" id="Calque_1" xmlns="http://www.w3.org/2000/svg" xmlns:xlink="http://www.w3.org/1999/xlink" x="0px" y="0px"
	 viewBox="0 0 261.8 275" enable-background="new 0 0 261.8 275" xml:space="preserve">
<g>
	<g>
		<g>
			<g>
				<g>
					<path fill="#51508A" d="M218.9,113.8c-0.6,23.5-12.5,43.7-25.8,62.1c-5.5,8.3-11.8,16.2-17.6,24.4c-5.7,8-11.4,16.1-17.4,23.9
						c-6.3,8.8-12.6,17.5-18.9,26.3c-0.4,0.6-0.8,1.2-1.2,1.7c-1.9,2.7-5.9,2.7-7.8,0c-5-7-10-14-15-21
						c-15.1-21.2-30.6-42.2-45.4-63.6c-11-16-20.2-33.7-20.2-53.6c0-46.4,37.3-83.7,83.5-84.6c0.4,0,0.7,0,1.1,0
						c14.8-0.1,28.8,3.5,41,10C201.8,53.3,219.7,81.1,218.9,113.8z"/>
				</g>
			</g>
		</g>
	</g>
	<path fill="#FFFFFF" stroke="#51508A" stroke-width="0.8721" stroke-miterlimit="10" d="M143.1,122.9h-2.4v-59l4.4-2.8l-5.9-18h-2
		h-0.6h-2l-5.9,18l4.4,2.8v59h-2.4l-28.2,73.1c-1.3,3.5,3.1,6.2,5.6,3.5l20.9-22c4.4-4.7,11.9-4.6,16.2,0.1l20.2,21.6
		c2.5,2.7,7-0.1,5.6-3.5L143.1,122.9z"/>
	<polyline fill="none" stroke="#51508A" stroke-width="0.8721" stroke-miterlimit="10" points="133,121.9 133,158.5 140.7,158.5 
		140.7,113 	"/>
	<rect x="126.9" y="155.9" fill="#51508A" width="20.3" height="5.2"/>
	<rect x="126.9" y="151.2" fill="#51508A" width="20.3" height="2.4"/>
	<g>
		<line fill="#FFFFFF" x1="142.6" y1="127.6" x2="167.1" y2="190.9"/>
		<path fill="#51508A" d="M142.6,127.6c0,0,0.4,1,1.1,2.7c0.7,1.7,1.7,4.2,2.9,7.1c1.2,3,2.6,6.4,4,10.1c1.5,3.7,3,7.6,4.6,11.6
			c1.5,4,3,7.9,4.4,11.6c1.4,3.7,2.7,7.2,3.8,10.2c1.1,3,2,5.5,2.6,7.2c0.6,1.7,1,2.7,1,2.7s-0.4-1-1.1-2.7
			c-0.7-1.7-1.7-4.2-2.9-7.1c-1.2-3-2.6-6.4-4-10.1c-1.5-3.7-3-7.6-4.6-11.6c-1.5-4-3-7.9-4.4-11.6c-1.4-3.7-2.7-7.2-3.8-10.2
			c-1.1-3-2-5.5-2.6-7.2C143,128.6,142.6,127.6,142.6,127.6z"/>
	</g>
	<ellipse transform="matrix(0.9621 0.2727 -0.2727 0.9621 17.579 -34.3779)" fill="#FFFFFF" cx="132.5" cy="46" rx="0.7" ry="2"/>
	
		<ellipse transform="matrix(0.9621 0.2727 -0.2727 0.9621 18.8321 -33.7353)" fill="#FFFFFF" cx="130.8" cy="50.9" rx="0.7" ry="2"/>
	
		<ellipse transform="matrix(0.9621 0.2727 -0.2727 0.9621 20.2445 -33.0255)" fill="#FFFFFF" cx="128.9" cy="56.3" rx="0.7" ry="2"/>
	
		<ellipse transform="matrix(-0.9621 0.2727 -0.2727 -0.9621 289.771 51.2113)" fill="#FFFFFF" cx="141.3" cy="45.7" rx="0.7" ry="2"/>
	
		<ellipse transform="matrix(-0.9621 0.2727 -0.2727 -0.9621 294.3944 60.2268)" fill="#FFFFFF" cx="143" cy="50.6" rx="0.7" ry="2"/>
	<ellipse transform="matrix(-0.9621 0.2727 -0.2727 -0.9621 299.5013 70.389)" fill="#FFFFFF" cx="144.9" cy="56" rx="0.7" ry="2"/>
	<circle fill="#51508A" cx="157.5" cy="183.8" r="1.5"/>
	<circle fill="#51508A" cx="152.6" cy="177.8" r="1.5"/>
	<circle fill="#51508A" cx="147.6" cy="171.8" r="1.5"/>
</g>
</svg>
