<svg viewBox="0 0 1920 800" xmlns="http://www.w3.org/2000/svg" xmlns:xlink="http://www.w3.org/1999/xlink">
    <g fill="none" fill-rule="evenodd">
        <path d="M553.9 541.3s-32.7 33.1 48 33.1 489.8 4.9 629.7 4.9c139.9 0 156.4-137.1 279.9-163.4 123.5-26.3 325.1-10.7 388.1-30.1 63-19.4 85.7-72.9 55.4-72.9-30.2 0-285.2 1.2-315.4 1.2-30.5 0-49.8-29.4 19.1-29.4h310.2s37.8 197.4 31.5 202.3c-6.3 4.9-13.9 184.8-13.9 184.8l-1447.6-3.9 15-126.6z" fill="#2DDCE0" fill-rule="nonzero"/>
        <path fill="#2DDCE0" fill-rule="nonzero" d="M450.3 525.6l-94.5 116.7h189z"/>
        <path d="M439.8 538.6s-.6 4.5 4.3 5.5c4.9 1 10.7-3.9 13.6-2.9" stroke="#FFEAB6" stroke-width=".486" stroke-linecap="round"/>
        <path fill="#FFEAB6" d="M449.9 525.6l26.6 69.7 13.4-20.8z"/>
        <path d="M450.3 525.6l-8.7 10.7s1.5 4.9 7.3 4.9 11.5-2.7 11.5-2.7l-10.1-12.9z" fill="#FFEAB6" fill-rule="nonzero"/>
        <path fill="#2DDCE0" fill-rule="nonzero" d="M334.2 451.7L175.9 647.2h316.6z"/>
        <path fill="#FFEAB6" fill-rule="nonzero" d="M334.2 451.7L390 569l13.2 78.2h89.3z"/>
        <path d="M364.2 488.8s-19.3 11.6-38.8 11.6c-19.5 0-21.3-11.6-21.3-11.6l30-37.1 30.1 37.1z" fill="#FFEAB6" fill-rule="nonzero"/>
        <path d="M298.6 495.6S305 511 321.5 512c16.5 1 35-9.7 42.8-11.7" stroke="#FFEAB6" stroke-width=".972"/>
        <path fill="#2DDCE0" fill-rule="nonzero" d="M540.7 501.5l-94.5 146.8h189z"/>
        <path fill="#FFEAB6" fill-rule="nonzero" d="M540.4 500.5l44.7 88.5 4.8 58.3h45.3z"/>
        <path d="M527.7 520.8s-2.9 9.8 9.8 10.8c12.6 1 19.8-5.4 19.8-5.4l-16.9-25.7-12.7 20.3z" fill="#FFEAB6" fill-rule="nonzero"/>
        <path d="M522.7 528.5s-5.7 7 6.9 8c12.6 1 30.5-5.8 30.5-5.8" stroke="#FFEAB6" stroke-width=".486" stroke-linecap="round"/>
        <g>
            <path fill="#EF656C" fill-rule="nonzero" d="M1557.8 432.3h120.9v225.6h-120.9z"/>
            <path fill="#A5154F" fill-rule="nonzero" d="M1557.8 432.3h60.4v225.6h-60.4z"/>
            <path d="M1570.3 448.5h8.7v8.7h-8.7v-8.7zm27.4 0h8.7v8.7h-8.7v-8.7zm29.9 0h8.7v8.7h-8.7v-8.7zm27.5 0h8.7v8.7h-8.7v-8.7zm-84.8 21.2h8.7v8.7h-8.7v-8.7zm27.4 0h8.7v8.7h-8.7v-8.7zm29.9 0h8.7v8.7h-8.7v-8.7zm27.5 0h8.7v8.7h-8.7v-8.7zm-84.8 21.1h8.7v8.7h-8.7v-8.7zm27.4 0h8.7v8.7h-8.7v-8.7zm29.9 0h8.7v8.7h-8.7v-8.7zm27.5 0h8.7v8.7h-8.7v-8.7zm-84.8 21.2h8.7v8.7h-8.7V512zm27.4 0h8.7v8.7h-8.7V512zm29.9 0h8.7v8.7h-8.7V512zm27.5 0h8.7v8.7h-8.7V512zm-84.8 21.2h8.7v8.7h-8.7v-8.7zm27.4 0h8.7v8.7h-8.7v-8.7zm29.9 0h8.7v8.7h-8.7v-8.7zm27.5 0h8.7v8.7h-8.7v-8.7zm-84.8 21.2h8.7v8.7h-8.7v-8.7zm27.4 0h8.7v8.7h-8.7v-8.7zm29.9 0h8.7v8.7h-8.7v-8.7zm27.5 0h8.7v8.7h-8.7v-8.7zm-84.8 21.2h8.7v8.7h-8.7v-8.7zm27.4 0h8.7v8.7h-8.7v-8.7zm29.9 0h8.7v8.7h-8.7v-8.7zm27.5 0h8.7v8.7h-8.7v-8.7zm-84.8 21.2h8.7v8.7h-8.7v-8.7zm27.4 0h8.7v8.7h-8.7v-8.7zm29.9 0h8.7v8.7h-8.7v-8.7zm27.5 0h8.7v8.7h-8.7v-8.7zm-84.8 21.2h8.7v8.7h-8.7V618zm27.4 0h8.7v8.7h-8.7V618zm29.9 0h8.7v8.7h-8.7V618zm27.5 0h8.7v8.7h-8.7V618z" fill="#FFEAB6" fill-rule="nonzero"/>
            <path d="M1588.1 432.3v225.6m-4.7-225.6v225.6" stroke="#EF656C" stroke-width="1.246"/>
            <path d="M1672.5 432.3v225.6" stroke="#FFEAB6" stroke-width="1.246"/>
        </g>
        <g>
            <path fill="#EF656C" fill-rule="nonzero" d="M1500.5 473.1h94.3v176h-94.3z"/>
            <path fill="#A5154F" fill-rule="nonzero" d="M1500.5 473.1h47.2v176h-47.2z"/>
            <path d="M1510.2 485.7h6.8v6.8h-6.8v-6.8zm21.4 0h6.8v6.8h-6.8v-6.8zm23.3 0h6.8v6.8h-6.8v-6.8zm21.4 0h6.8v6.8h-6.8v-6.8zm-66.1 16.6h6.8v6.8h-6.8v-6.8zm21.4 0h6.8v6.8h-6.8v-6.8zm23.3 0h6.8v6.8h-6.8v-6.8zm21.4 0h6.8v6.8h-6.8v-6.8zm-66.1 16.5h6.8v6.8h-6.8v-6.8zm21.4 0h6.8v6.8h-6.8v-6.8zm23.3 0h6.8v6.8h-6.8v-6.8zm21.4 0h6.8v6.8h-6.8v-6.8zm-66.1 16.5h6.8v6.8h-6.8v-6.8zm21.4 0h6.8v6.8h-6.8v-6.8zm23.3 0h6.8v6.8h-6.8v-6.8zm21.4 0h6.8v6.8h-6.8v-6.8zm-66.1 16.6h6.8v6.8h-6.8v-6.8zm21.4 0h6.8v6.8h-6.8v-6.8zm23.3 0h6.8v6.8h-6.8v-6.8zm21.4 0h6.8v6.8h-6.8v-6.8zm-66.1 16.5h6.8v6.8h-6.8v-6.8zm21.4 0h6.8v6.8h-6.8v-6.8zm23.3 0h6.8v6.8h-6.8v-6.8zm21.4 0h6.8v6.8h-6.8v-6.8zm-66.1 16.5h6.8v6.8h-6.8v-6.8zm21.4 0h6.8v6.8h-6.8v-6.8zm23.3 0h6.8v6.8h-6.8v-6.8zm21.4 0h6.8v6.8h-6.8v-6.8zm-66.1 16.6h6.8v6.8h-6.8v-6.8zm21.4 0h6.8v6.8h-6.8v-6.8zm23.3 0h6.8v6.8h-6.8v-6.8zm21.4 0h6.8v6.8h-6.8v-6.8zm-66.1 16.5h6.8v6.8h-6.8V618zm21.4 0h6.8v6.8h-6.8V618zm23.3 0h6.8v6.8h-6.8V618zm21.4 0h6.8v6.8h-6.8V618z" fill="#FFEAB6" fill-rule="nonzero"/>
            <path d="M1524 473.1v176m-3.6-176v176" stroke="#EF656C" stroke-width=".972"/>
            <path d="M1589.9 473.1v176" stroke="#FFEAB6" stroke-width=".972"/>
        </g>
        <g>
            <path fill="#EF656C" fill-rule="nonzero" d="M1433.4 537.3h94.3v176h-94.3z"/>
            <path fill="#A5154F" fill-rule="nonzero" d="M1433.4 537.3h47.2v176h-47.2z"/>
            <path d="M1443.1 549.9h6.8v6.8h-6.8v-6.8zm21.4 0h6.8v6.8h-6.8v-6.8zm23.3 0h6.8v6.8h-6.8v-6.8zm21.4 0h6.8v6.8h-6.8v-6.8zm-66.1 16.6h6.8v6.8h-6.8v-6.8zm21.4 0h6.8v6.8h-6.8v-6.8zm23.3 0h6.8v6.8h-6.8v-6.8zm21.4 0h6.8v6.8h-6.8v-6.8zm-66.1 16.5h6.8v6.8h-6.8V583zm21.4 0h6.8v6.8h-6.8V583zm23.3 0h6.8v6.8h-6.8V583zm21.4 0h6.8v6.8h-6.8V583zm-66.1 16.5h6.8v6.8h-6.8v-6.8zm21.4 0h6.8v6.8h-6.8v-6.8zm23.3 0h6.8v6.8h-6.8v-6.8zm21.4 0h6.8v6.8h-6.8v-6.8zm-66.1 16.5h6.8v6.8h-6.8V616zm21.4 0h6.8v6.8h-6.8V616zm23.3 0h6.8v6.8h-6.8V616zm21.4 0h6.8v6.8h-6.8V616zm-66.1 16.6h6.8v6.8h-6.8v-6.8zm21.4 0h6.8v6.8h-6.8v-6.8zm23.3 0h6.8v6.8h-6.8v-6.8zm21.4 0h6.8v6.8h-6.8v-6.8zm-66.1 16.5h6.8v6.8h-6.8v-6.8zm21.4 0h6.8v6.8h-6.8v-6.8zm23.3 0h6.8v6.8h-6.8v-6.8zm21.4 0h6.8v6.8h-6.8v-6.8zm-66.1 16.5h6.8v6.8h-6.8v-6.8zm21.4 0h6.8v6.8h-6.8v-6.8zm23.3 0h6.8v6.8h-6.8v-6.8zm21.4 0h6.8v6.8h-6.8v-6.8zm-66.1 16.6h6.8v6.8h-6.8v-6.8zm21.4 0h6.8v6.8h-6.8v-6.8zm23.3 0h6.8v6.8h-6.8v-6.8zm21.4 0h6.8v6.8h-6.8v-6.8z" fill="#FFEAB6" fill-rule="nonzero"/>
            <path d="M1457 537.3v176m-3.7-176v176" stroke="#EF656C" stroke-width=".972"/>
            <path d="M1522.8 537.3v176" stroke="#FFEAB6" stroke-width=".972"/>
        </g>
        <g>
            <path fill="#EF656C" fill-rule="nonzero" d="M1647.3 523.7h94.3v176h-94.3z"/>
            <path fill="#A5154F" fill-rule="nonzero" d="M1647.3 523.7h47.2v176h-47.2z"/>
            <path d="M1657 536.3h6.8v6.8h-6.8v-6.8zm21.4 0h6.8v6.8h-6.8v-6.8zm23.4 0h6.8v6.8h-6.8v-6.8zm21.3 0h6.8v6.8h-6.8v-6.8zm-66.1 16.5h6.8v6.8h-6.8v-6.8zm21.4 0h6.8v6.8h-6.8v-6.8zm23.4 0h6.8v6.8h-6.8v-6.8zm21.3 0h6.8v6.8h-6.8v-6.8zm-66.1 16.6h6.8v6.8h-6.8v-6.8zm21.4 0h6.8v6.8h-6.8v-6.8zm23.4 0h6.8v6.8h-6.8v-6.8zm21.3 0h6.8v6.8h-6.8v-6.8zm-66.1 16.5h6.8v6.8h-6.8v-6.8zm21.4 0h6.8v6.8h-6.8v-6.8zm23.4 0h6.8v6.8h-6.8v-6.8zm21.3 0h6.8v6.8h-6.8v-6.8zm-66.1 16.5h6.8v6.8h-6.8v-6.8zm21.4 0h6.8v6.8h-6.8v-6.8zm23.4 0h6.8v6.8h-6.8v-6.8zm21.3 0h6.8v6.8h-6.8v-6.8zM1657 619h6.8v6.8h-6.8V619zm21.4 0h6.8v6.8h-6.8V619zm23.4 0h6.8v6.8h-6.8V619zm21.3 0h6.8v6.8h-6.8V619zm-66.1 16.5h6.8v6.8h-6.8v-6.8zm21.4 0h6.8v6.8h-6.8v-6.8zm23.4 0h6.8v6.8h-6.8v-6.8zm21.3 0h6.8v6.8h-6.8v-6.8zM1657 652h6.8v6.8h-6.8V652zm21.4 0h6.8v6.8h-6.8V652zm23.4 0h6.8v6.8h-6.8V652zm21.3 0h6.8v6.8h-6.8V652zm-66.1 16.6h6.8v6.8h-6.8v-6.8zm21.4 0h6.8v6.8h-6.8v-6.8zm23.4 0h6.8v6.8h-6.8v-6.8zm21.3 0h6.8v6.8h-6.8v-6.8z" fill="#FFEAB6" fill-rule="nonzero"/>
            <path d="M1670.9 523.7v176m-3.7-176v176" stroke="#EF656C" stroke-width=".972"/>
            <path d="M1736.8 523.7v176" stroke="#FFEAB6" stroke-width=".972"/>
        </g>
        <g fill-rule="nonzero">
            <path fill="#3D224C" d="M0 646.8h1920v177.9H0z"/>
            <path fill="#251330" d="M328 650.1h1278.6v29.2H328z"/>
            <path d="M445.6 673.4h25.3V829h-25.3V673.4zm182.8 0h25.3V829h-25.3V673.4zm185.7 0h25.3V829h-25.3V673.4zm184.7 0h25.3V829h-25.3V673.4zm184.8 0h25.3V829h-25.3V673.4zm184.8 0h25.3V829h-25.3V673.4zm184.7 0h25.3V829h-25.3V673.4z" fill="#251330"/>
            <path d="M469.9 828s13.6-148.8 76.8-148.8c63.2 0 82.2 148.8 82.2 148.8V679.3h-159V828zM290 828s13.6-148.8 76.8-148.8C430 679.2 449 828 449 828V679.3H290V828zm363.6 0s13.7-148.8 77.5-148.8 83 148.8 83 148.8V679.3H653.6V828zm183.8 0s13.8-148.8 78-148.8S998.8 828 998.8 828V679.3H837.4V828zm186.7 0s13.7-148.8 77-148.8 82.4 148.8 82.4 148.8V679.3H1024V828h.1zm184.8 0s13.9-148.8 78.4-148.8 83.9 148.8 83.9 148.8V679.3h-162.4V828h.1zm184.7 0s13.8-148.8 78-148.8S1555 828 1555 828V679.3h-161.4V828z" fill="#251330"/>
            <g fill="#251330">
                <path d="M1602 650.1h1292.6v29.2H1602z"/>
                <path d="M1733.6 673.4h25.3V829h-25.3V673.4zm183.8 0h25.3V829h-25.3V673.4z"/>
                <path d="M1758.9 828s13.6-148.8 76.8-148.8c63.2 0 82.2 148.8 82.2 148.8V679.3h-159V828zm-180.9 0s13.6-148.8 76.8-148.8c63.2 0 82.2 148.8 82.2 148.8V679.3h-159V828z"/>
            </g>
            <g fill="#251330">
                <path d="M-975 650.1H328v29.2H-975z"/>
                <path d="M80.4 673.4h25.3V829H80.4V673.4zm184.7 0h25.3V829h-25.3V673.4z"/>
                <path d="M-79.1 828S-65.2 679.2-.7 679.2s84 148.8 84 148.8V679.3H-79.1V828zm184.7 0s13.8-148.8 78-148.8S267.1 828 267.1 828V679.3H105.6V828z"/>
            </g>
        </g>
        <g id="train" transform="translate(0 618)">
            <path d="M105.2 31.1H29.4c-1.2 0-2.3-1-2.3-2.3V3.6c0-1.2 1-2.3 2.3-2.3h75.8c1.2 0 2.3 1 2.3 2.3v25.2c-.1 1.3-1.1 2.3-2.3 2.3z" fill="#EF656C" fill-rule="nonzero"/>
            <path fill="#A5154F" fill-rule="nonzero" d="M27.2 11.1h80.3v4.8H27.2z"/>
            <path d="M107.4 9.4H27.2" stroke="#FFEAB6" stroke-width=".803"/>
            <path d="M43.6 19.1H38c-2.4 0-4.4-2-4.4-4.4v-1.6c0-2.4 2-4.4 4.4-4.4h5.6c2.4 0 4.4 2 4.4 4.4v1.6c0 2.4-1.9 4.4-4.4 4.4z" stroke="#A5154F" stroke-width=".803" fill="#FFEAB6" fill-rule="nonzero"/>
            <path d="M44 8.6c2.2 0 4 1.8 4 4V15c0 2.2-1.8 4-4 4h-6.4c-2.2 0-4-1.8-4-4" fill="#2DDCE0" fill-rule="nonzero"/>
            <path d="M76.5 19.1H62.1c-2.4 0-4.4-2-4.4-4.4v-1.6c0-2.4 2-4.4 4.4-4.4h14.4c2.4 0 4.4 2 4.4 4.4v1.6c.1 2.4-1.9 4.4-4.4 4.4z" stroke="#A5154F" stroke-width=".803" fill="#FFEAB6" fill-rule="nonzero"/>
            <path d="M76.9 8.6c2.2 0 4 1.8 4 4V15c0 2.2-1.8 4-4 4H61.7" fill="#2DDCE0" fill-rule="nonzero"/>
            <path d="M95.1.2H39.5c-.4 0-.7.3-.7.7v.2c0 .4.3.7.7.7h55.6c.4 0 .7-.3.7-.7V.9c0-.4-.3-.7-.7-.7z" fill="#A5154F" fill-rule="nonzero"/>
            <path d="M93.6 29.5h-.9c-1.4 0-2.6-1.1-2.6-2.6v-7.2c0-1.4 1.1-2.6 2.6-2.6h.9c1.4 0 2.6 1.1 2.6 2.6v7.2c0 1.5-1.1 2.6-2.6 2.6z" stroke="#FFEAB6" stroke-width=".641"/>
            <circle fill="#FFEAB6" fill-rule="nonzero" cx="94.2" cy="22.7" r="1"/>
            <path d="M187.1 31.1h-75.8c-1.2 0-2.3-1-2.3-2.3V3.6c0-1.2 1-2.3 2.3-2.3h75.8c1.2 0 2.3 1 2.3 2.3v25.2c-.1 1.3-1.1 2.3-2.3 2.3z" fill="#EF656C" fill-rule="nonzero"/>
            <path fill="#A5154F" fill-rule="nonzero" d="M109 11.1h80.3v4.8H109z"/>
            <path d="M189.3 9.4H109" stroke="#FFEAB6" stroke-width=".803"/>
            <path d="M125.5 19.1h-5.6c-2.4 0-4.4-2-4.4-4.4v-1.6c0-2.4 2-4.4 4.4-4.4h5.6c2.4 0 4.4 2 4.4 4.4v1.6c0 2.4-2 4.4-4.4 4.4z" stroke="#A5154F" stroke-width=".803" fill="#FFEAB6" fill-rule="nonzero"/>
            <path d="M125.9 8.6c2.2 0 4 1.8 4 4V15c0 2.2-1.8 4-4 4h-6.4c-2.2 0-4-1.8-4-4" fill="#2DDCE0" fill-rule="nonzero"/>
            <path d="M158.4 19.1H144c-2.4 0-4.4-2-4.4-4.4v-1.6c0-2.4 2-4.4 4.4-4.4h14.4c2.4 0 4.4 2 4.4 4.4v1.6c0 2.4-2 4.4-4.4 4.4z" stroke="#A5154F" stroke-width=".803" fill="#FFEAB6" fill-rule="nonzero"/>
            <path d="M158.8 8.6c2.2 0 4 1.8 4 4V15c0 2.2-1.8 4-4 4h-15.2" fill="#2DDCE0" fill-rule="nonzero"/>
            <path d="M177 .2h-55.6c-.4 0-.7.3-.7.7v.2c0 .4.3.7.7.7H177c.4 0 .7-.3.7-.7V.9c0-.4-.3-.7-.7-.7z" fill="#A5154F" fill-rule="nonzero"/>
            <g transform="translate(190)">
                <path d="M78.9 31.1H3.1c-1.2 0-2.3-1-2.3-2.3V3.6c0-1.2 1-2.3 2.3-2.3h75.8c1.2 0 2.3 1 2.3 2.3v25.2c0 1.3-1 2.3-2.3 2.3z" fill="#EF656C" fill-rule="nonzero"/>
                <path fill="#A5154F" fill-rule="nonzero" d="M.9 11.1h80.3v4.8H.9z"/>
                <path d="M81.2 9.4H.9" stroke="#FFEAB6" stroke-width=".803"/>
                <path d="M17.3 19.1h-5.6c-2.4 0-4.4-2-4.4-4.4v-1.6c0-2.4 2-4.4 4.4-4.4h5.6c2.4 0 4.4 2 4.4 4.4v1.6c.1 2.4-1.9 4.4-4.4 4.4z" stroke="#A5154F" stroke-width=".803" fill="#FFEAB6" fill-rule="nonzero"/>
                <path d="M17.8 8.6c2.2 0 4 1.8 4 4V15c0 2.2-1.8 4-4 4h-6.4c-2.2 0-4-1.8-4-4" fill="#2DDCE0" fill-rule="nonzero"/>
                <path d="M50.3 19.1H35.9c-2.4 0-4.4-2-4.4-4.4v-1.6c0-2.4 2-4.4 4.4-4.4h14.4c2.4 0 4.4 2 4.4 4.4v1.6c0 2.4-2 4.4-4.4 4.4z" stroke="#A5154F" stroke-width=".803" fill="#FFEAB6" fill-rule="nonzero"/>
                <path d="M50.7 8.6c2.2 0 4 1.8 4 4V15c0 2.2-1.8 4-4 4H35.5" fill="#2DDCE0" fill-rule="nonzero"/>
                <path d="M68.8.2H13.2c-.4 0-.7.3-.7.7v.2c0 .4.3.7.7.7h55.6c.4 0 .7-.3.7-.7V.9c0-.4-.3-.7-.7-.7z" fill="#A5154F" fill-rule="nonzero"/>
                <path d="M67.4 29.5h-.9c-1.4 0-2.6-1.1-2.6-2.6v-7.2c0-1.4 1.1-2.6 2.6-2.6h.9c1.4 0 2.6 1.1 2.6 2.6v7.2c-.1 1.5-1.2 2.6-2.6 2.6z" stroke="#FFEAB6" stroke-width=".641"/>
                <circle fill="#FFEAB6" fill-rule="nonzero" cx="67.9" cy="22.7" r="1"/>
            </g>
            <g>
                <path d="M350.8 31.1H275c-1.2 0-2.3-1-2.3-2.3V3.6c0-1.2 1-2.3 2.3-2.3h75.8c1.2 0 2.3 1 2.3 2.3v25.2c-.1 1.3-1.1 2.3-2.3 2.3z" fill="#EF656C" fill-rule="nonzero"/>
                <path fill="#A5154F" fill-rule="nonzero" d="M272.8 11.1h80.3v4.8h-80.3z"/>
                <path d="M353 9.4h-80.2" stroke="#FFEAB6" stroke-width=".803"/>
                <path d="M289.2 19.1h-5.6c-2.4 0-4.4-2-4.4-4.4v-1.6c0-2.4 2-4.4 4.4-4.4h5.6c2.4 0 4.4 2 4.4 4.4v1.6c0 2.4-2 4.4-4.4 4.4z" stroke="#A5154F" stroke-width=".803" fill="#FFEAB6" fill-rule="nonzero"/>
                <path d="M289.6 8.6c2.2 0 4 1.8 4 4V15c0 2.2-1.8 4-4 4h-6.4c-2.2 0-4-1.8-4-4" fill="#2DDCE0" fill-rule="nonzero"/>
                <path d="M322.1 19.1h-14.4c-2.4 0-4.4-2-4.4-4.4v-1.6c0-2.4 2-4.4 4.4-4.4h14.4c2.4 0 4.4 2 4.4 4.4v1.6c0 2.4-1.9 4.4-4.4 4.4z" stroke="#A5154F" stroke-width=".803" fill="#FFEAB6" fill-rule="nonzero"/>
                <path d="M322.5 8.6c2.2 0 4 1.8 4 4V15c0 2.2-1.8 4-4 4h-15.2" fill="#2DDCE0" fill-rule="nonzero"/>
                <path d="M340.7.2h-55.6c-.4 0-.7.3-.7.7v.2c0 .4.3.7.7.7h55.6c.4 0 .7-.3.7-.7V.9c0-.4-.3-.7-.7-.7z" fill="#A5154F" fill-rule="nonzero"/>
            </g>
            <g>
                <path d="M432.7 31.1h-75.8c-1.2 0-2.3-1-2.3-2.3V3.6c0-1.2 1-2.3 2.3-2.3h75.8c1.2 0 2.3 1 2.3 2.3v25.2c-.1 1.3-1.1 2.3-2.3 2.3z" fill="#EF656C" fill-rule="nonzero"/>
                <path fill="#A5154F" fill-rule="nonzero" d="M354.6 11.1h80.3v4.8h-80.3z"/>
                <path d="M434.9 9.4h-80.3" stroke="#FFEAB6" stroke-width=".803"/>
                <path d="M371.1 19.1h-5.6c-2.4 0-4.4-2-4.4-4.4v-1.6c0-2.4 2-4.4 4.4-4.4h5.6c2.4 0 4.4 2 4.4 4.4v1.6c0 2.4-2 4.4-4.4 4.4z" stroke="#A5154F" stroke-width=".803" fill="#FFEAB6" fill-rule="nonzero"/>
                <path d="M371.5 8.6c2.2 0 4 1.8 4 4V15c0 2.2-1.8 4-4 4h-6.4c-2.2 0-4-1.8-4-4" fill="#2DDCE0" fill-rule="nonzero"/>
                <path d="M404 19.1h-14.4c-2.4 0-4.4-2-4.4-4.4v-1.6c0-2.4 2-4.4 4.4-4.4H404c2.4 0 4.4 2 4.4 4.4v1.6c0 2.4-2 4.4-4.4 4.4z" stroke="#A5154F" stroke-width=".803" fill="#FFEAB6" fill-rule="nonzero"/>
                <path d="M404.4 8.6c2.2 0 4 1.8 4 4V15c0 2.2-1.8 4-4 4h-15.2" fill="#2DDCE0" fill-rule="nonzero"/>
                <path d="M422.6.2H367c-.4 0-.7.3-.7.7v.2c0 .4.3.7.7.7h55.6c.4 0 .7-.3.7-.7V.9c0-.4-.3-.7-.7-.7z" fill="#A5154F" fill-rule="nonzero"/>
            </g>
            <g fill-rule="nonzero">
                <path d="M433.7 1.4c.2 0 .5.1.6.2 2.9 1.7 25.4 15.8 25.4 26.3 0 4-28.4 3.2-28.4 3.2V1.4h2.4z" fill="#EF656C"/>
                <path d="M455.7 18.9s3.3 4 3.8 6.8h-28.1v-6.8h24.3z" fill="#A5154F"/>
                <path d="M444.2 8.6h-6.7c-.3 0-.6.3-.6.6v7.5c0 .4.3.7.7.7h16.8s-3-3.2-5.4-5.3c-2.4-2-4.3-3.5-4.3-3.5h-.5z" fill="#FFEAB6"/>
                <path d="M444.6 8.6l-7.4 8.4c-.1.1-.4.1-.4-.1V9.2c0-.3.2-.6.6-.6h7.2z" fill="#2DDCE0"/>
                <path d="M456.9 20.5s1 1.4 1.6 2.8h-2.9c-.3 0-.6-.3-.6-.6V21c0-.3.2-.5.5-.5h1.4z" fill="#FFEAB6"/>
            </g>
            <g fill-rule="nonzero">
                <path d="M26.3 1.4c-.2 0-.5.1-.6.2C22.8 3.3.3 17.4.3 27.9c0 4 28.4 3.2 28.4 3.2V1.4h-2.4z" fill="#EF656C"/>
                <path d="M4.4 18.9s-3.3 4-3.8 6.8h28.1v-6.8H4.4z" fill="#A5154F"/>
                <path d="M15.8 8.6h6.7c.3 0 .6.3.6.6v7.5c0 .4-.3.7-.7.7H5.6s3-3.2 5.4-5.3c2.4-2 4.3-3.5 4.3-3.5h.5z" fill="#FFEAB6"/>
                <path d="M15.4 8.6l7.4 8.4c.1.1.4.1.4-.1V9.2c0-.3-.2-.6-.6-.6h-7.2z" fill="#2DDCE0"/>
                <path d="M3.2 20.5s-1 1.4-1.6 2.8h2.9c.3 0 .6-.3.6-.6V21c0-.3-.2-.5-.5-.5H3.2z" fill="#FFEAB6"/>
            </g>
        </g>
    </g>

        <animateTransform
             xlink:href="#train"
             attributeName="transform"
             type="translateX"
             dur="20s"
             values="-460 618 ; -460 618 ; 1920 618 ; 1920 618 ; -460 618"
             keyTimes="0;0.2;0.3;0.75;1"
             repeatCount="indefinite"
             id="train-animation"></animateTransform>
</svg>
