<?xml version="1.0" encoding="utf-8"?>
<!-- Generator: Adobe Illustrator 22.0.0, SVG Export Plug-In . SVG Version: 6.00 Build 0)  -->
<svg version="1.1" xmlns="http://www.w3.org/2000/svg" xmlns:xlink="http://www.w3.org/1999/xlink" x="0px" y="0px"
	 viewBox="0 0 1920 800" style="enable-background:new 0 0 1920 800;" xml:space="preserve">
<style type="text/css">
	.st0{display:none;}
	.st1{display:inline;fill:#241D37;}
	.st2{display:inline;}
	.st3{fill:#161323;}
	
		.st4{display:none;fill:none;stroke:#FFFFFF;stroke-width:0.4681;stroke-linecap:round;stroke-linejoin:round;stroke-miterlimit:10;}
	.st5{display:inline;fill:#FFEAB6;}
	.st6{font-family:'WorkSans-Regular';}
	.st7{font-size:10px;}
	.st8{clip-path:url(#SVGID_2_);fill:#2DDCE0;}
	.st9{display:none;clip-path:url(#SVGID_2_);fill:#2DDCE0;}
	.st10{display:none;opacity:0.36;fill:url(#SVGID_3_);}
	.st11{fill:#2DDCE0;}
	.st12{fill:none;stroke:#FFEAB6;stroke-width:0.4862;stroke-linecap:round;stroke-miterlimit:10;}
	.st13{fill:#FFEAB6;}
	.st14{fill:#EF656C;}
	.st15{fill:#A5154F;}
	.st16{fill:none;stroke:#EF656C;stroke-width:1.2464;stroke-miterlimit:10;}
	.st17{fill:none;stroke:#FFEAB6;stroke-width:1.2464;stroke-miterlimit:10;}
	.st18{fill:none;stroke:#EF656C;stroke-width:0.9724;stroke-miterlimit:10;}
	.st19{fill:none;stroke:#FFEAB6;stroke-width:0.9724;stroke-miterlimit:10;}
	.st20{fill:#3D224C;}
	.st21{fill:#251330;}
	.st22{display:inline;fill:#2DDCE0;}
	.st23{font-family:'Overpass-SemiBold';}
	.st24{font-size:87.7081px;}
	.st25{letter-spacing:28;}
	.st26{font-size:17.5416px;}
	.st27{fill:none;}
	.st28{display:none;fill:#FFEAB6;}
	.st29{fill:none;stroke:#FFEAB6;stroke-width:0.8026;stroke-miterlimit:10;}
	.st30{fill:#FFEAB6;stroke:#A5154F;stroke-width:0.8026;stroke-miterlimit:10;}
	.st31{fill:none;stroke:#FFEAB6;stroke-width:0.6408;stroke-miterlimit:10;}
</style>
<g id="Calque_1">
	<g class="st0">
		<rect x="320.5" y="0.5" class="st1" width="1280" height="787"/>
		<g class="st2">
			<path class="st3" d="M1600,1v786H321V1H1600 M1601,0H320v788h1281V0L1601,0z"/>
		</g>
	</g>
	<circle class="st4" cx="755" cy="232" r="44"/>
	<g class="st0">
		<text transform="matrix(1 0 0 1 1493.4795 59.2871)" class="st5 st6 st7">ABOUT</text>
	</g>
	<g>
		<defs>
			<rect id="SVGID_1_" x="-1" y="-89" width="1920" height="995.7"/>
		</defs>
		<clipPath id="SVGID_2_">
			<use xlink:href="#SVGID_1_"  style="overflow:visible;"/>
		</clipPath>
		<path class="st8" d="M545.9,619.3c0,0-32.7,33.1,48,33.1s489.8,4.9,629.7,4.9s156.4-137.1,279.9-163.4s325.1-10.7,388.1-30.1
			c63-19.4,85.7-72.9,55.4-72.9c-30.2,0-285.2,1.2-315.4,1.2c-30.5,0-49.8-29.4,19.1-29.4c88.2,0,310.2,0,310.2,0
			s37.8,197.4,31.5,202.3c-6.3,4.9-13.9,184.8-13.9,184.8l-1447.6-3.9L545.9,619.3z"/>
		<path class="st9" d="M55.4-69.3c0,0,567.9,0,663.2,0S850.8,4.6,635,4.6s-599,0-599,0S2.9,47.4,36,47.4s1110.5,0,1225.2,0
			s97.2,62.2-38.9,62.2s-527,0-613.6,0S473.5,209.8,985,209.8c483.3,0,292.7,228.5,37,228.5c-192.5,0-991.8,21.4-991.8,21.4
			L55.4-69.3z"/>
	</g>
	<linearGradient id="SVGID_3_" gradientUnits="userSpaceOnUse" x1="-77.9294" y1="844.8746" x2="1732.2198" y2="66.3971">
		<stop  offset="0" style="stop-color:#FFC255"/>
		<stop  offset="1" style="stop-color:#A5154F;stop-opacity:0.6"/>
	</linearGradient>
	<rect x="320" y="-3" class="st10" width="1280" height="803"/>
	<polygon class="st11" points="326.2,529.7 167.9,725.2 484.5,725.2 	"/>
	<polygon class="st11" points="442.3,603.6 347.8,720.3 536.8,720.3 	"/>
	<path class="st12" d="M431.8,616.6c0,0-0.6,4.5,4.3,5.5c4.9,1,10.7-3.9,13.6-2.9"/>
	<polygon class="st13" points="326.2,529.7 382,647 395.2,725.2 484.5,725.2 	"/>
	<polygon class="st13" points="441.9,603.6 468.5,673.3 481.9,652.5 	"/>
	<g>
		<rect x="1549.8" y="510.3" class="st14" width="120.9" height="225.6"/>
		<rect x="1549.8" y="510.3" class="st15" width="60.4" height="225.6"/>
		<rect x="1562.3" y="526.5" class="st13" width="8.7" height="8.7"/>
		<rect x="1589.7" y="526.5" class="st13" width="8.7" height="8.7"/>
		<rect x="1619.6" y="526.5" class="st13" width="8.7" height="8.7"/>
		<rect x="1647.1" y="526.5" class="st13" width="8.7" height="8.7"/>
		<rect x="1562.3" y="547.7" class="st13" width="8.7" height="8.7"/>
		<rect x="1589.7" y="547.7" class="st13" width="8.7" height="8.7"/>
		<rect x="1619.6" y="547.7" class="st13" width="8.7" height="8.7"/>
		<rect x="1647.1" y="547.7" class="st13" width="8.7" height="8.7"/>
		<rect x="1562.3" y="568.8" class="st13" width="8.7" height="8.7"/>
		<rect x="1589.7" y="568.8" class="st13" width="8.7" height="8.7"/>
		<rect x="1619.6" y="568.8" class="st13" width="8.7" height="8.7"/>
		<rect x="1647.1" y="568.8" class="st13" width="8.7" height="8.7"/>
		<rect x="1562.3" y="590" class="st13" width="8.7" height="8.7"/>
		<rect x="1589.7" y="590" class="st13" width="8.7" height="8.7"/>
		<rect x="1619.6" y="590" class="st13" width="8.7" height="8.7"/>
		<rect x="1647.1" y="590" class="st13" width="8.7" height="8.7"/>
		<rect x="1562.3" y="611.2" class="st13" width="8.7" height="8.7"/>
		<rect x="1589.7" y="611.2" class="st13" width="8.7" height="8.7"/>
		<rect x="1619.6" y="611.2" class="st13" width="8.7" height="8.7"/>
		<rect x="1647.1" y="611.2" class="st13" width="8.7" height="8.7"/>
		<rect x="1562.3" y="632.4" class="st13" width="8.7" height="8.7"/>
		<rect x="1589.7" y="632.4" class="st13" width="8.7" height="8.7"/>
		<rect x="1619.6" y="632.4" class="st13" width="8.7" height="8.7"/>
		<rect x="1647.1" y="632.4" class="st13" width="8.7" height="8.7"/>
		<rect x="1562.3" y="653.6" class="st13" width="8.7" height="8.7"/>
		<rect x="1589.7" y="653.6" class="st13" width="8.7" height="8.7"/>
		<rect x="1619.6" y="653.6" class="st13" width="8.7" height="8.7"/>
		<rect x="1647.1" y="653.6" class="st13" width="8.7" height="8.7"/>
		<rect x="1562.3" y="674.8" class="st13" width="8.7" height="8.7"/>
		<rect x="1589.7" y="674.8" class="st13" width="8.7" height="8.7"/>
		<rect x="1619.6" y="674.8" class="st13" width="8.7" height="8.7"/>
		<rect x="1647.1" y="674.8" class="st13" width="8.7" height="8.7"/>
		<rect x="1562.3" y="696" class="st13" width="8.7" height="8.7"/>
		<rect x="1589.7" y="696" class="st13" width="8.7" height="8.7"/>
		<rect x="1619.6" y="696" class="st13" width="8.7" height="8.7"/>
		<rect x="1647.1" y="696" class="st13" width="8.7" height="8.7"/>
		<line class="st16" x1="1580.1" y1="510.3" x2="1580.1" y2="735.9"/>
		<line class="st16" x1="1575.4" y1="510.3" x2="1575.4" y2="735.9"/>
		<line class="st17" x1="1664.5" y1="510.3" x2="1664.5" y2="735.9"/>
	</g>
	<g>
		<rect x="1492.5" y="551.1" class="st14" width="94.3" height="176"/>
		<rect x="1492.5" y="551.1" class="st15" width="47.2" height="176"/>
		<rect x="1502.2" y="563.7" class="st13" width="6.8" height="6.8"/>
		<rect x="1523.6" y="563.7" class="st13" width="6.8" height="6.8"/>
		<rect x="1546.9" y="563.7" class="st13" width="6.8" height="6.8"/>
		<rect x="1568.3" y="563.7" class="st13" width="6.8" height="6.8"/>
		<rect x="1502.2" y="580.3" class="st13" width="6.8" height="6.8"/>
		<rect x="1523.6" y="580.3" class="st13" width="6.8" height="6.8"/>
		<rect x="1546.9" y="580.3" class="st13" width="6.8" height="6.8"/>
		<rect x="1568.3" y="580.3" class="st13" width="6.8" height="6.8"/>
		<rect x="1502.2" y="596.8" class="st13" width="6.8" height="6.8"/>
		<rect x="1523.6" y="596.8" class="st13" width="6.8" height="6.8"/>
		<rect x="1546.9" y="596.8" class="st13" width="6.8" height="6.8"/>
		<rect x="1568.3" y="596.8" class="st13" width="6.8" height="6.8"/>
		<rect x="1502.2" y="613.3" class="st13" width="6.8" height="6.8"/>
		<rect x="1523.6" y="613.3" class="st13" width="6.8" height="6.8"/>
		<rect x="1546.9" y="613.3" class="st13" width="6.8" height="6.8"/>
		<rect x="1568.3" y="613.3" class="st13" width="6.8" height="6.8"/>
		<rect x="1502.2" y="629.9" class="st13" width="6.8" height="6.8"/>
		<rect x="1523.6" y="629.9" class="st13" width="6.8" height="6.8"/>
		<rect x="1546.9" y="629.9" class="st13" width="6.8" height="6.8"/>
		<rect x="1568.3" y="629.9" class="st13" width="6.8" height="6.8"/>
		<rect x="1502.2" y="646.4" class="st13" width="6.8" height="6.8"/>
		<rect x="1523.6" y="646.4" class="st13" width="6.8" height="6.8"/>
		<rect x="1546.9" y="646.4" class="st13" width="6.8" height="6.8"/>
		<rect x="1568.3" y="646.4" class="st13" width="6.8" height="6.8"/>
		<rect x="1502.2" y="662.9" class="st13" width="6.8" height="6.8"/>
		<rect x="1523.6" y="662.9" class="st13" width="6.8" height="6.8"/>
		<rect x="1546.9" y="662.9" class="st13" width="6.8" height="6.8"/>
		<rect x="1568.3" y="662.9" class="st13" width="6.8" height="6.8"/>
		<rect x="1502.2" y="679.5" class="st13" width="6.8" height="6.8"/>
		<rect x="1523.6" y="679.5" class="st13" width="6.8" height="6.8"/>
		<rect x="1546.9" y="679.5" class="st13" width="6.8" height="6.8"/>
		<rect x="1568.3" y="679.5" class="st13" width="6.8" height="6.8"/>
		<rect x="1502.2" y="696" class="st13" width="6.8" height="6.8"/>
		<rect x="1523.6" y="696" class="st13" width="6.8" height="6.8"/>
		<rect x="1546.9" y="696" class="st13" width="6.8" height="6.8"/>
		<rect x="1568.3" y="696" class="st13" width="6.8" height="6.8"/>
		<line class="st18" x1="1516" y1="551.1" x2="1516" y2="727.1"/>
		<line class="st18" x1="1512.4" y1="551.1" x2="1512.4" y2="727.1"/>
		<line class="st19" x1="1581.9" y1="551.1" x2="1581.9" y2="727.1"/>
	</g>
	<g>
		<rect x="1639.3" y="601.7" class="st14" width="94.3" height="176"/>
		<rect x="1639.3" y="601.7" class="st15" width="47.2" height="176"/>
		<rect x="1649" y="614.3" class="st13" width="6.8" height="6.8"/>
		<rect x="1670.4" y="614.3" class="st13" width="6.8" height="6.8"/>
		<rect x="1693.8" y="614.3" class="st13" width="6.8" height="6.8"/>
		<rect x="1715.1" y="614.3" class="st13" width="6.8" height="6.8"/>
		<rect x="1649" y="630.8" class="st13" width="6.8" height="6.8"/>
		<rect x="1670.4" y="630.8" class="st13" width="6.8" height="6.8"/>
		<rect x="1693.8" y="630.8" class="st13" width="6.8" height="6.8"/>
		<rect x="1715.1" y="630.8" class="st13" width="6.8" height="6.8"/>
		<rect x="1649" y="647.4" class="st13" width="6.8" height="6.8"/>
		<rect x="1670.4" y="647.4" class="st13" width="6.8" height="6.8"/>
		<rect x="1693.8" y="647.4" class="st13" width="6.8" height="6.8"/>
		<rect x="1715.1" y="647.4" class="st13" width="6.8" height="6.8"/>
		<rect x="1649" y="663.9" class="st13" width="6.8" height="6.8"/>
		<rect x="1670.4" y="663.9" class="st13" width="6.8" height="6.8"/>
		<rect x="1693.8" y="663.9" class="st13" width="6.8" height="6.8"/>
		<rect x="1715.1" y="663.9" class="st13" width="6.8" height="6.8"/>
		<rect x="1649" y="680.4" class="st13" width="6.8" height="6.8"/>
		<rect x="1670.4" y="680.4" class="st13" width="6.8" height="6.8"/>
		<rect x="1693.8" y="680.4" class="st13" width="6.8" height="6.8"/>
		<rect x="1715.1" y="680.4" class="st13" width="6.8" height="6.8"/>
		<rect x="1649" y="697" class="st13" width="6.8" height="6.8"/>
		<rect x="1670.4" y="697" class="st13" width="6.8" height="6.8"/>
		<rect x="1693.8" y="697" class="st13" width="6.8" height="6.8"/>
		<rect x="1715.1" y="697" class="st13" width="6.8" height="6.8"/>
		<rect x="1649" y="713.5" class="st13" width="6.8" height="6.8"/>
		<rect x="1670.4" y="713.5" class="st13" width="6.8" height="6.8"/>
		<rect x="1693.8" y="713.5" class="st13" width="6.8" height="6.8"/>
		<rect x="1715.1" y="713.5" class="st13" width="6.8" height="6.8"/>
		<rect x="1649" y="730" class="st13" width="6.8" height="6.8"/>
		<rect x="1670.4" y="730" class="st13" width="6.8" height="6.8"/>
		<rect x="1693.8" y="730" class="st13" width="6.8" height="6.8"/>
		<rect x="1715.1" y="730" class="st13" width="6.8" height="6.8"/>
		<rect x="1649" y="746.6" class="st13" width="6.8" height="6.8"/>
		<rect x="1670.4" y="746.6" class="st13" width="6.8" height="6.8"/>
		<rect x="1693.8" y="746.6" class="st13" width="6.8" height="6.8"/>
		<rect x="1715.1" y="746.6" class="st13" width="6.8" height="6.8"/>
		<line class="st18" x1="1662.9" y1="601.7" x2="1662.9" y2="777.7"/>
		<line class="st18" x1="1659.2" y1="601.7" x2="1659.2" y2="777.7"/>
		<line class="st19" x1="1728.8" y1="601.7" x2="1728.8" y2="777.7"/>
	</g>
	<g>
		<rect x="1425.4" y="615.3" class="st14" width="94.3" height="176"/>
		<rect x="1425.4" y="615.3" class="st15" width="47.2" height="176"/>
		<rect x="1435.1" y="627.9" class="st13" width="6.8" height="6.8"/>
		<rect x="1456.5" y="627.9" class="st13" width="6.8" height="6.8"/>
		<rect x="1479.8" y="627.9" class="st13" width="6.8" height="6.8"/>
		<rect x="1501.2" y="627.9" class="st13" width="6.8" height="6.8"/>
		<rect x="1435.1" y="644.5" class="st13" width="6.8" height="6.8"/>
		<rect x="1456.5" y="644.5" class="st13" width="6.8" height="6.8"/>
		<rect x="1479.8" y="644.5" class="st13" width="6.8" height="6.8"/>
		<rect x="1501.2" y="644.5" class="st13" width="6.8" height="6.8"/>
		<rect x="1435.1" y="661" class="st13" width="6.8" height="6.8"/>
		<rect x="1456.5" y="661" class="st13" width="6.8" height="6.8"/>
		<rect x="1479.8" y="661" class="st13" width="6.8" height="6.8"/>
		<rect x="1501.2" y="661" class="st13" width="6.8" height="6.8"/>
		<rect x="1435.1" y="677.5" class="st13" width="6.8" height="6.8"/>
		<rect x="1456.5" y="677.5" class="st13" width="6.8" height="6.8"/>
		<rect x="1479.8" y="677.5" class="st13" width="6.8" height="6.8"/>
		<rect x="1501.2" y="677.5" class="st13" width="6.8" height="6.8"/>
		<rect x="1435.1" y="694" class="st13" width="6.8" height="6.8"/>
		<rect x="1456.5" y="694" class="st13" width="6.8" height="6.8"/>
		<rect x="1479.8" y="694" class="st13" width="6.8" height="6.8"/>
		<rect x="1501.2" y="694" class="st13" width="6.8" height="6.8"/>
		<rect x="1435.1" y="710.6" class="st13" width="6.8" height="6.8"/>
		<rect x="1456.5" y="710.6" class="st13" width="6.8" height="6.8"/>
		<rect x="1479.8" y="710.6" class="st13" width="6.8" height="6.8"/>
		<rect x="1501.2" y="710.6" class="st13" width="6.8" height="6.8"/>
		<rect x="1435.1" y="727.1" class="st13" width="6.8" height="6.8"/>
		<rect x="1456.5" y="727.1" class="st13" width="6.8" height="6.8"/>
		<rect x="1479.8" y="727.1" class="st13" width="6.8" height="6.8"/>
		<rect x="1501.2" y="727.1" class="st13" width="6.8" height="6.8"/>
		<rect x="1435.1" y="743.6" class="st13" width="6.8" height="6.8"/>
		<rect x="1456.5" y="743.6" class="st13" width="6.8" height="6.8"/>
		<rect x="1479.8" y="743.6" class="st13" width="6.8" height="6.8"/>
		<rect x="1501.2" y="743.6" class="st13" width="6.8" height="6.8"/>
		<rect x="1435.1" y="760.2" class="st13" width="6.8" height="6.8"/>
		<rect x="1456.5" y="760.2" class="st13" width="6.8" height="6.8"/>
		<rect x="1479.8" y="760.2" class="st13" width="6.8" height="6.8"/>
		<rect x="1501.2" y="760.2" class="st13" width="6.8" height="6.8"/>
		<line class="st18" x1="1449" y1="615.3" x2="1449" y2="791.3"/>
		<line class="st18" x1="1445.3" y1="615.3" x2="1445.3" y2="791.3"/>
		<line class="st19" x1="1514.8" y1="615.3" x2="1514.8" y2="791.3"/>
	</g>
	<rect y="724.8" class="st20" width="1920" height="177.9"/>
	<path class="st13" d="M356.2,566.8c0,0-19.3,11.6-38.8,11.6s-21.3-11.6-21.3-11.6l30-37.1L356.2,566.8z"/>
	<path class="st19" d="M290.6,573.6c0,0,6.4,15.4,22.9,16.4s35-9.7,42.8-11.7"/>
	<path class="st13" d="M442.3,603.6l-8.7,10.7c0,0,1.5,4.9,7.3,4.9s11.5-2.7,11.5-2.7L442.3,603.6z"/>
	<g>
		<polygon class="st11" points="532.7,576.5 438.2,723.3 627.2,723.3 		"/>
		<polygon class="st13" points="532.4,575.5 577.1,664 581.9,722.3 627.2,722.3 		"/>
		<path class="st13" d="M519.7,595.8c0,0-2.9,9.8,9.8,10.8c12.6,1,19.8-5.4,19.8-5.4l-16.9-25.7L519.7,595.8z"/>
		<path class="st12" d="M514.7,603.5c0,0-5.7,7,6.9,8c12.6,1,30.5-5.8,30.5-5.8"/>
	</g>
	<rect x="320" y="728.1" class="st21" width="1278.6" height="29.2"/>
	<rect x="437.6" y="751.4" class="st21" width="25.3" height="155.6"/>
	<rect x="620.4" y="751.4" class="st21" width="25.3" height="155.6"/>
	<rect x="806.1" y="751.4" class="st21" width="25.3" height="155.6"/>
	<rect x="990.8" y="751.4" class="st21" width="25.3" height="155.6"/>
	<rect x="1175.6" y="751.4" class="st21" width="25.3" height="155.6"/>
	<rect x="1360.4" y="751.4" class="st21" width="25.3" height="155.6"/>
	<rect x="1545.1" y="751.4" class="st21" width="25.3" height="155.6"/>
	<path class="st21" d="M461.9,906c0,0,13.6-148.8,76.8-148.8S620.9,906,620.9,906V757.3h-159V906z"/>
	<path class="st21" d="M282,906c0,0,13.6-148.8,76.8-148.8S441,906,441,906V757.3H282V906z"/>
	<path class="st21" d="M645.6,906c0,0,13.7-148.8,77.5-148.8S806.1,906,806.1,906V757.3H645.6V906z"/>
	<path class="st21" d="M829.4,906c0,0,13.8-148.8,78-148.8S990.8,906,990.8,906V757.3H829.4V906z"/>
	<path class="st21" d="M1016.1,906c0,0,13.7-148.8,77-148.8s82.4,148.8,82.4,148.8V757.3h-159.5V906z"/>
	<path class="st21" d="M1200.9,906c0,0,13.9-148.8,78.4-148.8s83.9,148.8,83.9,148.8V757.3h-162.4V906z"/>
	<path class="st21" d="M1385.6,906c0,0,13.8-148.8,78-148.8s83.4,148.8,83.4,148.8V757.3h-161.4V906z"/>
	<g>
		<rect x="1594" y="728.1" class="st21" width="1292.6" height="29.2"/>
		<rect x="1725.6" y="751.4" class="st21" width="25.3" height="155.6"/>
		<rect x="1909.4" y="751.4" class="st21" width="25.3" height="155.6"/>
		<path class="st21" d="M1750.9,906c0,0,13.6-148.8,76.8-148.8s82.2,148.8,82.2,148.8V757.3h-159V906z"/>
		<path class="st21" d="M1570,906c0,0,13.6-148.8,76.8-148.8S1729,906,1729,906V757.3h-159V906z"/>
	</g>
	<g>
		<rect x="-983" y="728.1" class="st21" width="1303" height="29.2"/>
		<rect x="72.4" y="751.4" class="st21" width="25.3" height="155.6"/>
		<rect x="257.1" y="751.4" class="st21" width="25.3" height="155.6"/>
		<path class="st21" d="M-87.1,906c0,0,13.9-148.8,78.4-148.8S75.3,906,75.3,906V757.3H-87.1V906z"/>
		<path class="st21" d="M97.6,906c0,0,13.8-148.8,78-148.8S259.1,906,259.1,906V757.3H97.6V906z"/>
	</g>
	<text transform="matrix(1 0 0 1 767.333 304.0737)" class="st0"><tspan x="0" y="0" class="st22 st23 st24 st25">DATA.</tspan><tspan x="393.8" y="0" class="st22 st23 st26">  </tspan></text>
	<rect x="774.6" y="320.6" class="st27" width="560.4" height="82.8"/>
	<text transform="matrix(1 0 0 1 774.6426 333.4473)" class="st28 st6 st26">EXPERICENCE INEDITE</text>
	<text transform="matrix(1 0 0 1 118.6323 98.6055)" class="st6 st7"> </text>
	<circle class="st4" cx="1080" cy="308" r="44"/>
</g>
<g id="Traain" class="st0">
	<g class="st2">
		<g>
			<g>
				<path class="st14" d="M711.2,727.1h-75.8c-1.2,0-2.3-1-2.3-2.3v-25.2c0-1.2,1-2.3,2.3-2.3h75.8c1.2,0,2.3,1,2.3,2.3v25.2
					C713.4,726.1,712.4,727.1,711.2,727.1z"/>
			</g>
			<rect x="633.2" y="707.1" class="st15" width="80.3" height="4.8"/>
			<line class="st29" x1="713.4" y1="705.4" x2="633.2" y2="705.4"/>
			<path class="st30" d="M649.6,715.1H644c-2.4,0-4.4-2-4.4-4.4v-1.6c0-2.4,2-4.4,4.4-4.4h5.6c2.4,0,4.4,2,4.4,4.4v1.6
				C654,713.1,652.1,715.1,649.6,715.1z"/>
			<path class="st11" d="M650,704.6c2.2,0,4,1.8,4,4v2.4c0,2.2-1.8,4-4,4h-6.4c-2.2,0-4-1.8-4-4"/>
			<path class="st30" d="M682.5,715.1h-14.4c-2.4,0-4.4-2-4.4-4.4v-1.6c0-2.4,2-4.4,4.4-4.4h14.4c2.4,0,4.4,2,4.4,4.4v1.6
				C687,713.1,685,715.1,682.5,715.1z"/>
			<path class="st11" d="M682.9,704.6c2.2,0,4,1.8,4,4v2.4c0,2.2-1.8,4-4,4h-15.2"/>
			<path class="st15" d="M701.1,696.2h-55.6c-0.4,0-0.7,0.3-0.7,0.7v0.2c0,0.4,0.3,0.7,0.7,0.7h55.6c0.4,0,0.7-0.3,0.7-0.7v-0.2
				C701.8,696.5,701.5,696.2,701.1,696.2z"/>
			<path class="st31" d="M699.6,725.5h-0.9c-1.4,0-2.6-1.1-2.6-2.6v-7.2c0-1.4,1.1-2.6,2.6-2.6h0.9c1.4,0,2.6,1.1,2.6,2.6v7.2
				C702.2,724.4,701.1,725.5,699.6,725.5z"/>
			<circle class="st13" cx="700.2" cy="718.7" r="0.8"/>
		</g>
		<g>
			<g>
				<path class="st14" d="M793.1,727.1h-75.8c-1.2,0-2.3-1-2.3-2.3v-25.2c0-1.2,1-2.3,2.3-2.3h75.8c1.2,0,2.3,1,2.3,2.3v25.2
					C795.3,726.1,794.3,727.1,793.1,727.1z"/>
			</g>
			<rect x="715" y="707.1" class="st15" width="80.3" height="4.8"/>
			<line class="st29" x1="795.3" y1="705.4" x2="715" y2="705.4"/>
			<path class="st30" d="M731.5,715.1h-5.6c-2.4,0-4.4-2-4.4-4.4v-1.6c0-2.4,2-4.4,4.4-4.4h5.6c2.4,0,4.4,2,4.4,4.4v1.6
				C735.9,713.1,733.9,715.1,731.5,715.1z"/>
			<path class="st11" d="M731.9,704.6c2.2,0,4,1.8,4,4v2.4c0,2.2-1.8,4-4,4h-6.4c-2.2,0-4-1.8-4-4"/>
			<path class="st30" d="M764.4,715.1H750c-2.4,0-4.4-2-4.4-4.4v-1.6c0-2.4,2-4.4,4.4-4.4h14.4c2.4,0,4.4,2,4.4,4.4v1.6
				C768.8,713.1,766.8,715.1,764.4,715.1z"/>
			<path class="st11" d="M764.8,704.6c2.2,0,4,1.8,4,4v2.4c0,2.2-1.8,4-4,4h-15.2"/>
			<path class="st15" d="M783,696.2h-55.6c-0.4,0-0.7,0.3-0.7,0.7v0.2c0,0.4,0.3,0.7,0.7,0.7H783c0.4,0,0.7-0.3,0.7-0.7v-0.2
				C783.7,696.5,783.4,696.2,783,696.2z"/>
		</g>
		<g>
			<g>
				<path class="st14" d="M874.9,727.1h-75.8c-1.2,0-2.3-1-2.3-2.3v-25.2c0-1.2,1-2.3,2.3-2.3h75.8c1.2,0,2.3,1,2.3,2.3v25.2
					C877.2,726.1,876.2,727.1,874.9,727.1z"/>
			</g>
			<rect x="796.9" y="707.1" class="st15" width="80.3" height="4.8"/>
			<line class="st29" x1="877.2" y1="705.4" x2="796.9" y2="705.4"/>
			<path class="st30" d="M813.3,715.1h-5.6c-2.4,0-4.4-2-4.4-4.4v-1.6c0-2.4,2-4.4,4.4-4.4h5.6c2.4,0,4.4,2,4.4,4.4v1.6
				C817.8,713.1,815.8,715.1,813.3,715.1z"/>
			<path class="st11" d="M813.8,704.6c2.2,0,4,1.8,4,4v2.4c0,2.2-1.8,4-4,4h-6.4c-2.2,0-4-1.8-4-4"/>
			<path class="st30" d="M846.3,715.1h-14.4c-2.4,0-4.4-2-4.4-4.4v-1.6c0-2.4,2-4.4,4.4-4.4h14.4c2.4,0,4.4,2,4.4,4.4v1.6
				C850.7,713.1,848.7,715.1,846.3,715.1z"/>
			<path class="st11" d="M846.7,704.6c2.2,0,4,1.8,4,4v2.4c0,2.2-1.8,4-4,4h-15.2"/>
			<path class="st15" d="M864.8,696.2h-55.6c-0.4,0-0.7,0.3-0.7,0.7v0.2c0,0.4,0.3,0.7,0.7,0.7h55.6c0.4,0,0.7-0.3,0.7-0.7v-0.2
				C865.5,696.5,865.2,696.2,864.8,696.2z"/>
			<path class="st31" d="M863.4,725.5h-0.9c-1.4,0-2.6-1.1-2.6-2.6v-7.2c0-1.4,1.1-2.6,2.6-2.6h0.9c1.4,0,2.6,1.1,2.6,2.6v7.2
				C865.9,724.4,864.8,725.5,863.4,725.5z"/>
			<circle class="st13" cx="863.9" cy="718.7" r="0.8"/>
		</g>
		<g>
			<g>
				<path class="st14" d="M956.8,727.1H881c-1.2,0-2.3-1-2.3-2.3v-25.2c0-1.2,1-2.3,2.3-2.3h75.8c1.2,0,2.3,1,2.3,2.3v25.2
					C959,726.1,958,727.1,956.8,727.1z"/>
			</g>
			<rect x="878.8" y="707.1" class="st15" width="80.3" height="4.8"/>
			<line class="st29" x1="959" y1="705.4" x2="878.8" y2="705.4"/>
			<path class="st30" d="M895.2,715.1h-5.6c-2.4,0-4.4-2-4.4-4.4v-1.6c0-2.4,2-4.4,4.4-4.4h5.6c2.4,0,4.4,2,4.4,4.4v1.6
				C899.6,713.1,897.6,715.1,895.2,715.1z"/>
			<path class="st11" d="M895.6,704.6c2.2,0,4,1.8,4,4v2.4c0,2.2-1.8,4-4,4h-6.4c-2.2,0-4-1.8-4-4"/>
			<path class="st30" d="M928.1,715.1h-14.4c-2.4,0-4.4-2-4.4-4.4v-1.6c0-2.4,2-4.4,4.4-4.4h14.4c2.4,0,4.4,2,4.4,4.4v1.6
				C932.5,713.1,930.6,715.1,928.1,715.1z"/>
			<path class="st11" d="M928.5,704.6c2.2,0,4,1.8,4,4v2.4c0,2.2-1.8,4-4,4h-15.2"/>
			<path class="st15" d="M946.7,696.2h-55.6c-0.4,0-0.7,0.3-0.7,0.7v0.2c0,0.4,0.3,0.7,0.7,0.7h55.6c0.4,0,0.7-0.3,0.7-0.7v-0.2
				C947.4,696.5,947.1,696.2,946.7,696.2z"/>
		</g>
		<g>
			<g>
				<path class="st14" d="M1038.7,727.1h-75.8c-1.2,0-2.3-1-2.3-2.3v-25.2c0-1.2,1-2.3,2.3-2.3h75.8c1.2,0,2.3,1,2.3,2.3v25.2
					C1040.9,726.1,1039.9,727.1,1038.7,727.1z"/>
			</g>
			<rect x="960.6" y="707.1" class="st15" width="80.3" height="4.8"/>
			<line class="st29" x1="1040.9" y1="705.4" x2="960.6" y2="705.4"/>
			<path class="st30" d="M977.1,715.1h-5.6c-2.4,0-4.4-2-4.4-4.4v-1.6c0-2.4,2-4.4,4.4-4.4h5.6c2.4,0,4.4,2,4.4,4.4v1.6
				C981.5,713.1,979.5,715.1,977.1,715.1z"/>
			<path class="st11" d="M977.5,704.6c2.2,0,4,1.8,4,4v2.4c0,2.2-1.8,4-4,4h-6.4c-2.2,0-4-1.8-4-4"/>
			<path class="st30" d="M1010,715.1h-14.4c-2.4,0-4.4-2-4.4-4.4v-1.6c0-2.4,2-4.4,4.4-4.4h14.4c2.4,0,4.4,2,4.4,4.4v1.6
				C1014.4,713.1,1012.4,715.1,1010,715.1z"/>
			<path class="st11" d="M1010.4,704.6c2.2,0,4,1.8,4,4v2.4c0,2.2-1.8,4-4,4h-15.2"/>
			<path class="st15" d="M1028.6,696.2H973c-0.4,0-0.7,0.3-0.7,0.7v0.2c0,0.4,0.3,0.7,0.7,0.7h55.6c0.4,0,0.7-0.3,0.7-0.7v-0.2
				C1029.3,696.5,1029,696.2,1028.6,696.2z"/>
		</g>
		<g>
			<path class="st14" d="M1039.7,697.4c0.2,0,0.5,0.1,0.6,0.2c2.9,1.7,25.4,15.8,25.4,26.3c0,4-28.4,3.2-28.4,3.2v-29.7H1039.7z"/>
			<path class="st15" d="M1061.7,714.9c0,0,3.3,4,3.8,6.8h-28.1v-6.8H1061.7z"/>
			<path class="st13" d="M1050.2,704.6h-6.7c-0.3,0-0.6,0.3-0.6,0.6v7.5c0,0.4,0.3,0.7,0.7,0.7h16.8c0,0-3-3.2-5.4-5.3
				c-2.4-2-4.3-3.5-4.3-3.5H1050.2z"/>
			<path class="st11" d="M1050.6,704.6l-7.4,8.4c-0.1,0.1-0.4,0.1-0.4-0.1v-7.7c0-0.3,0.2-0.6,0.6-0.6H1050.6z"/>
			<path class="st13" d="M1062.9,716.5c0,0,1,1.4,1.6,2.8h-2.9c-0.3,0-0.6-0.3-0.6-0.6v-1.7c0-0.3,0.2-0.5,0.5-0.5H1062.9z"/>
		</g>
		<g>
			<path class="st14" d="M632.3,697.4c-0.2,0-0.5,0.1-0.6,0.2c-2.9,1.7-25.4,15.8-25.4,26.3c0,4,28.4,3.2,28.4,3.2v-29.7H632.3z"/>
			<path class="st15" d="M610.4,714.9c0,0-3.3,4-3.8,6.8h28.1v-6.8H610.4z"/>
			<path class="st13" d="M621.8,704.6h6.7c0.3,0,0.6,0.3,0.6,0.6v7.5c0,0.4-0.3,0.7-0.7,0.7h-16.8c0,0,3-3.2,5.4-5.3
				c2.4-2,4.3-3.5,4.3-3.5H621.8z"/>
			<path class="st11" d="M621.4,704.6l7.4,8.4c0.1,0.1,0.4,0.1,0.4-0.1v-7.7c0-0.3-0.2-0.6-0.6-0.6H621.4z"/>
			<path class="st13" d="M609.2,716.5c0,0-1,1.4-1.6,2.8h2.9c0.3,0,0.6-0.3,0.6-0.6v-1.7c0-0.3-0.2-0.5-0.5-0.5H609.2z"/>
		</g>
	</g>
</g>
</svg>
