<?xml version="1.0" encoding="utf-8"?>
<!-- Generator: Adobe Illustrator 22.0.0, SVG Export Plug-In . SVG Version: 6.00 Build 0)  -->
<svg version="1.1" id="Calque_1" xmlns="http://www.w3.org/2000/svg" xmlns:xlink="http://www.w3.org/1999/xlink" x="0px" y="0px"
	 viewBox="0 0 1280 800" style="enable-background:new 0 0 1280 800;" xml:space="preserve">
<style type="text/css">
	.st0{display:none;}
	.st1{display:inline;fill:#241D37;}
	.st2{display:inline;}
	.st3{fill:#161323;}
	
		.st4{display:none;fill:none;stroke:#FFFFFF;stroke-width:0.4681;stroke-linecap:round;stroke-linejoin:round;stroke-miterlimit:10;}
	.st5{display:inline;fill:#FFEAB6;}
	.st6{font-family:'WorkSans-Regular';}
	.st7{font-size:10px;}
	.st8{clip-path:url(#SVGID_2_);fill:#2DDCE0;}
	.st9{display:none;clip-path:url(#SVGID_2_);fill:#2DDCE0;}
	.st10{display:none;opacity:0.36;fill:url(#SVGID_3_);}
	.st11{fill:#2DDCE0;}
	.st12{fill:none;stroke:#FFEAB6;stroke-width:0.4862;stroke-linecap:round;stroke-miterlimit:10;}
	.st13{fill:#FFEAB6;}
	.st14{fill:#EF656C;}
	.st15{fill:#A5154F;}
	.st16{fill:none;stroke:#EF656C;stroke-width:1.2464;stroke-miterlimit:10;}
	.st17{fill:none;stroke:#FFEAB6;stroke-width:1.2464;stroke-miterlimit:10;}
	.st18{fill:none;stroke:#EF656C;stroke-width:0.9724;stroke-miterlimit:10;}
	.st19{fill:none;stroke:#FFEAB6;stroke-width:0.9724;stroke-miterlimit:10;}
	.st20{fill:#3D224C;}
	.st21{fill:#251330;}
	.st22{fill:none;stroke:#FFEAB6;stroke-width:0.8026;stroke-miterlimit:10;}
	.st23{fill:#FFEAB6;stroke:#A5154F;stroke-width:0.8026;stroke-miterlimit:10;}
	.st24{fill:none;stroke:#FFEAB6;stroke-width:0.6408;stroke-miterlimit:10;}
	.st25{display:inline;fill:#2DDCE0;}
	.st26{font-family:'Overpass-SemiBold';}
	.st27{font-size:87.7081px;}
	.st28{letter-spacing:28;}
	.st29{font-size:17.5416px;}
	.st30{fill:none;}
	.st31{display:none;fill:#FFEAB6;}
</style>
<g class="st0">
	<rect x="0.5" y="0.5" class="st1" width="1280" height="787"/>
	<g class="st2">
		<path class="st3" d="M1280,1v786H1V1H1280 M1281,0H0v788h1281V0L1281,0z"/>
	</g>
</g>
<circle class="st4" cx="435" cy="232" r="44"/>
<g class="st0">
	<text transform="matrix(1 0 0 1 1173.4795 59.2871)" class="st5 st6 st7">ABOUT</text>
</g>
<g>
	<g>
		<defs>
			<rect id="SVGID_1_" y="-89" width="1280" height="995.7"/>
		</defs>
		<clipPath id="SVGID_2_">
			<use xlink:href="#SVGID_1_"  style="overflow:visible;"/>
		</clipPath>
		<path class="st8" d="M223.7,619.3c0,0-25.7,33.1,37.7,33.1s385,4.9,495,4.9s123-137.1,220-163.4s255.5-10.7,305-30.1
			s67.3-72.9,43.6-72.9c-23.8,0-224.2,1.2-248,1.2c-24,0-39.1-29.4,15-29.4c69.3,0,243.9,0,243.9,0s29.7,197.4,24.8,202.3
			c-5,4.9-10.9,184.8-10.9,184.8l-1137.9-3.9L223.7,619.3z"/>
		<path class="st9" d="M-263.6-69.3c0,0,567.9,0,663.2,0S531.8,4.6,316,4.6s-599,0-599,0s-33.1,42.8,0,42.8s1110.5,0,1225.2,0
			s97.2,62.2-38.9,62.2s-527,0-613.6,0S154.5,209.8,666,209.8c483.3,0,292.7,228.5,37,228.5c-192.5,0-991.8,21.4-991.8,21.4
			L-263.6-69.3z"/>
	</g>
	<linearGradient id="SVGID_3_" gradientUnits="userSpaceOnUse" x1="-397.9294" y1="844.8746" x2="1412.2198" y2="66.3971">
		<stop  offset="0" style="stop-color:#FFC255"/>
		<stop  offset="1" style="stop-color:#A5154F;stop-opacity:0.6"/>
	</linearGradient>
	<rect y="-3" class="st10" width="1280" height="803"/>
	<polygon class="st11" points="166.2,529.7 7.9,725.2 324.5,725.2 	"/>
	<polygon class="st11" points="282.3,603.6 187.8,720.3 376.8,720.3 	"/>
	<polygon class="st11" points="372.7,573.5 278.2,720.3 467.2,720.3 	"/>
	<path class="st12" d="M271.8,616.6c0,0-0.6,4.5,4.3,5.5c4.9,1,10.7-3.9,13.6-2.9"/>
	<polygon class="st13" points="166.2,529.7 222,647 235.2,725.2 324.5,725.2 	"/>
	<polygon class="st13" points="281.9,603.6 308.5,673.3 321.9,652.5 	"/>
	<polygon class="st13" points="372.4,573.5 417.1,662 421.9,720.3 467.2,720.3 	"/>
	<g>
		<rect x="1059.8" y="510.3" class="st14" width="120.9" height="225.6"/>
		<rect x="1059.8" y="510.3" class="st15" width="60.4" height="225.6"/>
		<rect x="1072.3" y="526.5" class="st13" width="8.7" height="8.7"/>
		<rect x="1099.7" y="526.5" class="st13" width="8.7" height="8.7"/>
		<rect x="1129.6" y="526.5" class="st13" width="8.7" height="8.7"/>
		<rect x="1157.1" y="526.5" class="st13" width="8.7" height="8.7"/>
		<rect x="1072.3" y="547.7" class="st13" width="8.7" height="8.7"/>
		<rect x="1099.7" y="547.7" class="st13" width="8.7" height="8.7"/>
		<rect x="1129.6" y="547.7" class="st13" width="8.7" height="8.7"/>
		<rect x="1157.1" y="547.7" class="st13" width="8.7" height="8.7"/>
		<rect x="1072.3" y="568.8" class="st13" width="8.7" height="8.7"/>
		<rect x="1099.7" y="568.8" class="st13" width="8.7" height="8.7"/>
		<rect x="1129.6" y="568.8" class="st13" width="8.7" height="8.7"/>
		<rect x="1157.1" y="568.8" class="st13" width="8.7" height="8.7"/>
		<rect x="1072.3" y="590" class="st13" width="8.7" height="8.7"/>
		<rect x="1099.7" y="590" class="st13" width="8.7" height="8.7"/>
		<rect x="1129.6" y="590" class="st13" width="8.7" height="8.7"/>
		<rect x="1157.1" y="590" class="st13" width="8.7" height="8.7"/>
		<rect x="1072.3" y="611.2" class="st13" width="8.7" height="8.7"/>
		<rect x="1099.7" y="611.2" class="st13" width="8.7" height="8.7"/>
		<rect x="1129.6" y="611.2" class="st13" width="8.7" height="8.7"/>
		<rect x="1157.1" y="611.2" class="st13" width="8.7" height="8.7"/>
		<rect x="1072.3" y="632.4" class="st13" width="8.7" height="8.7"/>
		<rect x="1099.7" y="632.4" class="st13" width="8.7" height="8.7"/>
		<rect x="1129.6" y="632.4" class="st13" width="8.7" height="8.7"/>
		<rect x="1157.1" y="632.4" class="st13" width="8.7" height="8.7"/>
		<rect x="1072.3" y="653.6" class="st13" width="8.7" height="8.7"/>
		<rect x="1099.7" y="653.6" class="st13" width="8.7" height="8.7"/>
		<rect x="1129.6" y="653.6" class="st13" width="8.7" height="8.7"/>
		<rect x="1157.1" y="653.6" class="st13" width="8.7" height="8.7"/>
		<rect x="1072.3" y="674.8" class="st13" width="8.7" height="8.7"/>
		<rect x="1099.7" y="674.8" class="st13" width="8.7" height="8.7"/>
		<rect x="1129.6" y="674.8" class="st13" width="8.7" height="8.7"/>
		<rect x="1157.1" y="674.8" class="st13" width="8.7" height="8.7"/>
		<rect x="1072.3" y="696" class="st13" width="8.7" height="8.7"/>
		<rect x="1099.7" y="696" class="st13" width="8.7" height="8.7"/>
		<rect x="1129.6" y="696" class="st13" width="8.7" height="8.7"/>
		<rect x="1157.1" y="696" class="st13" width="8.7" height="8.7"/>
		<line class="st16" x1="1090.1" y1="510.3" x2="1090.1" y2="735.9"/>
		<line class="st16" x1="1085.4" y1="510.3" x2="1085.4" y2="735.9"/>
		<line class="st17" x1="1174.5" y1="510.3" x2="1174.5" y2="735.9"/>
	</g>
	<g>
		<rect x="1002.5" y="551.1" class="st14" width="94.3" height="176"/>
		<rect x="1002.5" y="551.1" class="st15" width="47.2" height="176"/>
		<rect x="1012.2" y="563.7" class="st13" width="6.8" height="6.8"/>
		<rect x="1033.6" y="563.7" class="st13" width="6.8" height="6.8"/>
		<rect x="1056.9" y="563.7" class="st13" width="6.8" height="6.8"/>
		<rect x="1078.3" y="563.7" class="st13" width="6.8" height="6.8"/>
		<rect x="1012.2" y="580.3" class="st13" width="6.8" height="6.8"/>
		<rect x="1033.6" y="580.3" class="st13" width="6.8" height="6.8"/>
		<rect x="1056.9" y="580.3" class="st13" width="6.8" height="6.8"/>
		<rect x="1078.3" y="580.3" class="st13" width="6.8" height="6.8"/>
		<rect x="1012.2" y="596.8" class="st13" width="6.8" height="6.8"/>
		<rect x="1033.6" y="596.8" class="st13" width="6.8" height="6.8"/>
		<rect x="1056.9" y="596.8" class="st13" width="6.8" height="6.8"/>
		<rect x="1078.3" y="596.8" class="st13" width="6.8" height="6.8"/>
		<rect x="1012.2" y="613.3" class="st13" width="6.8" height="6.8"/>
		<rect x="1033.6" y="613.3" class="st13" width="6.8" height="6.8"/>
		<rect x="1056.9" y="613.3" class="st13" width="6.8" height="6.8"/>
		<rect x="1078.3" y="613.3" class="st13" width="6.8" height="6.8"/>
		<rect x="1012.2" y="629.9" class="st13" width="6.8" height="6.8"/>
		<rect x="1033.6" y="629.9" class="st13" width="6.8" height="6.8"/>
		<rect x="1056.9" y="629.9" class="st13" width="6.8" height="6.8"/>
		<rect x="1078.3" y="629.9" class="st13" width="6.8" height="6.8"/>
		<rect x="1012.2" y="646.4" class="st13" width="6.8" height="6.8"/>
		<rect x="1033.6" y="646.4" class="st13" width="6.8" height="6.8"/>
		<rect x="1056.9" y="646.4" class="st13" width="6.8" height="6.8"/>
		<rect x="1078.3" y="646.4" class="st13" width="6.8" height="6.8"/>
		<rect x="1012.2" y="662.9" class="st13" width="6.8" height="6.8"/>
		<rect x="1033.6" y="662.9" class="st13" width="6.8" height="6.8"/>
		<rect x="1056.9" y="662.9" class="st13" width="6.8" height="6.8"/>
		<rect x="1078.3" y="662.9" class="st13" width="6.8" height="6.8"/>
		<rect x="1012.2" y="679.5" class="st13" width="6.8" height="6.8"/>
		<rect x="1033.6" y="679.5" class="st13" width="6.8" height="6.8"/>
		<rect x="1056.9" y="679.5" class="st13" width="6.8" height="6.8"/>
		<rect x="1078.3" y="679.5" class="st13" width="6.8" height="6.8"/>
		<rect x="1012.2" y="696" class="st13" width="6.8" height="6.8"/>
		<rect x="1033.6" y="696" class="st13" width="6.8" height="6.8"/>
		<rect x="1056.9" y="696" class="st13" width="6.8" height="6.8"/>
		<rect x="1078.3" y="696" class="st13" width="6.8" height="6.8"/>
		<line class="st18" x1="1026" y1="551.1" x2="1026" y2="727.1"/>
		<line class="st18" x1="1022.4" y1="551.1" x2="1022.4" y2="727.1"/>
		<line class="st19" x1="1091.9" y1="551.1" x2="1091.9" y2="727.1"/>
	</g>
	<g>
		<rect x="1149.3" y="601.7" class="st14" width="94.3" height="176"/>
		<rect x="1149.3" y="601.7" class="st15" width="47.2" height="176"/>
		<rect x="1159" y="614.3" class="st13" width="6.8" height="6.8"/>
		<rect x="1180.4" y="614.3" class="st13" width="6.8" height="6.8"/>
		<rect x="1203.8" y="614.3" class="st13" width="6.8" height="6.8"/>
		<rect x="1225.1" y="614.3" class="st13" width="6.8" height="6.8"/>
		<rect x="1159" y="630.8" class="st13" width="6.8" height="6.8"/>
		<rect x="1180.4" y="630.8" class="st13" width="6.8" height="6.8"/>
		<rect x="1203.8" y="630.8" class="st13" width="6.8" height="6.8"/>
		<rect x="1225.1" y="630.8" class="st13" width="6.8" height="6.8"/>
		<rect x="1159" y="647.4" class="st13" width="6.8" height="6.8"/>
		<rect x="1180.4" y="647.4" class="st13" width="6.8" height="6.8"/>
		<rect x="1203.8" y="647.4" class="st13" width="6.8" height="6.8"/>
		<rect x="1225.1" y="647.4" class="st13" width="6.8" height="6.8"/>
		<rect x="1159" y="663.9" class="st13" width="6.8" height="6.8"/>
		<rect x="1180.4" y="663.9" class="st13" width="6.8" height="6.8"/>
		<rect x="1203.8" y="663.9" class="st13" width="6.8" height="6.8"/>
		<rect x="1225.1" y="663.9" class="st13" width="6.8" height="6.8"/>
		<rect x="1159" y="680.4" class="st13" width="6.8" height="6.8"/>
		<rect x="1180.4" y="680.4" class="st13" width="6.8" height="6.8"/>
		<rect x="1203.8" y="680.4" class="st13" width="6.8" height="6.8"/>
		<rect x="1225.1" y="680.4" class="st13" width="6.8" height="6.8"/>
		<rect x="1159" y="697" class="st13" width="6.8" height="6.8"/>
		<rect x="1180.4" y="697" class="st13" width="6.8" height="6.8"/>
		<rect x="1203.8" y="697" class="st13" width="6.8" height="6.8"/>
		<rect x="1225.1" y="697" class="st13" width="6.8" height="6.8"/>
		<rect x="1159" y="713.5" class="st13" width="6.8" height="6.8"/>
		<rect x="1180.4" y="713.5" class="st13" width="6.8" height="6.8"/>
		<rect x="1203.8" y="713.5" class="st13" width="6.8" height="6.8"/>
		<rect x="1225.1" y="713.5" class="st13" width="6.8" height="6.8"/>
		<rect x="1159" y="730" class="st13" width="6.8" height="6.8"/>
		<rect x="1180.4" y="730" class="st13" width="6.8" height="6.8"/>
		<rect x="1203.8" y="730" class="st13" width="6.8" height="6.8"/>
		<rect x="1225.1" y="730" class="st13" width="6.8" height="6.8"/>
		<rect x="1159" y="746.6" class="st13" width="6.8" height="6.8"/>
		<rect x="1180.4" y="746.6" class="st13" width="6.8" height="6.8"/>
		<rect x="1203.8" y="746.6" class="st13" width="6.8" height="6.8"/>
		<rect x="1225.1" y="746.6" class="st13" width="6.8" height="6.8"/>
		<line class="st18" x1="1172.9" y1="601.7" x2="1172.9" y2="777.7"/>
		<line class="st18" x1="1169.2" y1="601.7" x2="1169.2" y2="777.7"/>
		<line class="st19" x1="1238.8" y1="601.7" x2="1238.8" y2="777.7"/>
	</g>
	<g>
		<rect x="935.4" y="615.3" class="st14" width="94.3" height="176"/>
		<rect x="935.4" y="615.3" class="st15" width="47.2" height="176"/>
		<rect x="945.1" y="627.9" class="st13" width="6.8" height="6.8"/>
		<rect x="966.5" y="627.9" class="st13" width="6.8" height="6.8"/>
		<rect x="989.8" y="627.9" class="st13" width="6.8" height="6.8"/>
		<rect x="1011.2" y="627.9" class="st13" width="6.8" height="6.8"/>
		<rect x="945.1" y="644.5" class="st13" width="6.8" height="6.8"/>
		<rect x="966.5" y="644.5" class="st13" width="6.8" height="6.8"/>
		<rect x="989.8" y="644.5" class="st13" width="6.8" height="6.8"/>
		<rect x="1011.2" y="644.5" class="st13" width="6.8" height="6.8"/>
		<rect x="945.1" y="661" class="st13" width="6.8" height="6.8"/>
		<rect x="966.5" y="661" class="st13" width="6.8" height="6.8"/>
		<rect x="989.8" y="661" class="st13" width="6.8" height="6.8"/>
		<rect x="1011.2" y="661" class="st13" width="6.8" height="6.8"/>
		<rect x="945.1" y="677.5" class="st13" width="6.8" height="6.8"/>
		<rect x="966.5" y="677.5" class="st13" width="6.8" height="6.8"/>
		<rect x="989.8" y="677.5" class="st13" width="6.8" height="6.8"/>
		<rect x="1011.2" y="677.5" class="st13" width="6.8" height="6.8"/>
		<rect x="945.1" y="694" class="st13" width="6.8" height="6.8"/>
		<rect x="966.5" y="694" class="st13" width="6.8" height="6.8"/>
		<rect x="989.8" y="694" class="st13" width="6.8" height="6.8"/>
		<rect x="1011.2" y="694" class="st13" width="6.8" height="6.8"/>
		<rect x="945.1" y="710.6" class="st13" width="6.8" height="6.8"/>
		<rect x="966.5" y="710.6" class="st13" width="6.8" height="6.8"/>
		<rect x="989.8" y="710.6" class="st13" width="6.8" height="6.8"/>
		<rect x="1011.2" y="710.6" class="st13" width="6.8" height="6.8"/>
		<rect x="945.1" y="727.1" class="st13" width="6.8" height="6.8"/>
		<rect x="966.5" y="727.1" class="st13" width="6.8" height="6.8"/>
		<rect x="989.8" y="727.1" class="st13" width="6.8" height="6.8"/>
		<rect x="1011.2" y="727.1" class="st13" width="6.8" height="6.8"/>
		<rect x="945.1" y="743.6" class="st13" width="6.8" height="6.8"/>
		<rect x="966.5" y="743.6" class="st13" width="6.8" height="6.8"/>
		<rect x="989.8" y="743.6" class="st13" width="6.8" height="6.8"/>
		<rect x="1011.2" y="743.6" class="st13" width="6.8" height="6.8"/>
		<rect x="945.1" y="760.2" class="st13" width="6.8" height="6.8"/>
		<rect x="966.5" y="760.2" class="st13" width="6.8" height="6.8"/>
		<rect x="989.8" y="760.2" class="st13" width="6.8" height="6.8"/>
		<rect x="1011.2" y="760.2" class="st13" width="6.8" height="6.8"/>
		<line class="st18" x1="959" y1="615.3" x2="959" y2="791.3"/>
		<line class="st18" x1="955.3" y1="615.3" x2="955.3" y2="791.3"/>
		<line class="st19" x1="1024.8" y1="615.3" x2="1024.8" y2="791.3"/>
	</g>
	<rect y="725.2" class="st20" width="1280" height="177.9"/>
	<path class="st13" d="M196.2,566.8c0,0-19.3,11.6-38.8,11.6s-21.3-11.6-21.3-11.6l30-37.1L196.2,566.8z"/>
	<path class="st19" d="M130.6,573.6c0,0,6.4,15.4,22.9,16.4s35-9.7,42.8-11.7"/>
	<path class="st13" d="M282.3,603.6l-8.7,10.7c0,0,1.5,4.9,7.3,4.9s11.5-2.7,11.5-2.7L282.3,603.6z"/>
	<path class="st13" d="M359.7,593.8c0,0-2.9,9.8,9.8,10.8c12.6,1,19.8-5.4,19.8-5.4l-16.9-25.7L359.7,593.8z"/>
	<path class="st12" d="M354.7,601.5c0,0-5.7,7,6.9,8c12.6,1,30.5-5.8,30.5-5.8"/>
	<rect y="728.1" class="st21" width="1278.6" height="29.2"/>
	<rect x="117.6" y="751.4" class="st21" width="25.3" height="155.6"/>
	<rect x="301.4" y="751.4" class="st21" width="25.3" height="155.6"/>
	<rect x="487.1" y="751.4" class="st21" width="25.3" height="155.6"/>
	<rect x="671.8" y="751.4" class="st21" width="25.3" height="155.6"/>
	<rect x="856.6" y="751.4" class="st21" width="25.3" height="155.6"/>
	<rect x="1041.4" y="751.4" class="st21" width="25.3" height="155.6"/>
	<rect x="1226.1" y="751.4" class="st21" width="25.3" height="155.6"/>
	<path class="st21" d="M142.9,906c0,0,13.6-148.8,76.8-148.8S301.9,906,301.9,906V757.3h-159V906z"/>
	<path class="st21" d="M-38,906c0,0,13.6-148.8,76.8-148.8S121,906,121,906V757.3H-38V906z"/>
	<path class="st21" d="M326.6,906c0,0,13.7-148.8,77.5-148.8S487.1,906,487.1,906V757.3H326.6V906z"/>
	<path class="st21" d="M510.4,906c0,0,13.8-148.8,78-148.8S671.8,906,671.8,906V757.3H510.4V906z"/>
	<path class="st21" d="M697.1,906c0,0,13.7-148.8,77-148.8S856.6,906,856.6,906V757.3H697.1V906z"/>
	<path class="st21" d="M881.9,906c0,0,13.9-148.8,78.4-148.8c64.5,0,83.9,148.8,83.9,148.8V757.3H881.9V906z"/>
	<path class="st21" d="M1066.6,906c0,0,13.8-148.8,78-148.8s83.4,148.8,83.4,148.8V757.3h-161.4V906z"/>
	<g>
		<g>
			<path class="st14" d="M391.2,727.1h-75.8c-1.2,0-2.3-1-2.3-2.3v-25.2c0-1.2,1-2.3,2.3-2.3h75.8c1.2,0,2.3,1,2.3,2.3v25.2
				C393.4,726.1,392.4,727.1,391.2,727.1z"/>
		</g>
		<rect x="313.2" y="707.1" class="st15" width="80.3" height="4.8"/>
		<line class="st22" x1="393.4" y1="705.4" x2="313.2" y2="705.4"/>
		<path class="st23" d="M329.6,715.1H324c-2.4,0-4.4-2-4.4-4.4v-1.6c0-2.4,2-4.4,4.4-4.4h5.6c2.4,0,4.4,2,4.4,4.4v1.6
			C334,713.1,332.1,715.1,329.6,715.1z"/>
		<path class="st11" d="M330,704.6c2.2,0,4,1.8,4,4v2.4c0,2.2-1.8,4-4,4h-6.4c-2.2,0-4-1.8-4-4"/>
		<path class="st23" d="M362.5,715.1h-14.4c-2.4,0-4.4-2-4.4-4.4v-1.6c0-2.4,2-4.4,4.4-4.4h14.4c2.4,0,4.4,2,4.4,4.4v1.6
			C367,713.1,365,715.1,362.5,715.1z"/>
		<path class="st11" d="M362.9,704.6c2.2,0,4,1.8,4,4v2.4c0,2.2-1.8,4-4,4h-15.2"/>
		<path class="st15" d="M381.1,696.2h-55.6c-0.4,0-0.7,0.3-0.7,0.7v0.2c0,0.4,0.3,0.7,0.7,0.7h55.6c0.4,0,0.7-0.3,0.7-0.7v-0.2
			C381.8,696.5,381.5,696.2,381.1,696.2z"/>
		<path class="st24" d="M379.6,725.5h-0.9c-1.4,0-2.6-1.1-2.6-2.6v-7.2c0-1.4,1.1-2.6,2.6-2.6h0.9c1.4,0,2.6,1.1,2.6,2.6v7.2
			C382.2,724.4,381.1,725.5,379.6,725.5z"/>
		<circle class="st13" cx="380.2" cy="718.7" r="0.8"/>
	</g>
	<g>
		<g>
			<path class="st14" d="M473.1,727.1h-75.8c-1.2,0-2.3-1-2.3-2.3v-25.2c0-1.2,1-2.3,2.3-2.3h75.8c1.2,0,2.3,1,2.3,2.3v25.2
				C475.3,726.1,474.3,727.1,473.1,727.1z"/>
		</g>
		<rect x="395" y="707.1" class="st15" width="80.3" height="4.8"/>
		<line class="st22" x1="475.3" y1="705.4" x2="395" y2="705.4"/>
		<path class="st23" d="M411.5,715.1h-5.6c-2.4,0-4.4-2-4.4-4.4v-1.6c0-2.4,2-4.4,4.4-4.4h5.6c2.4,0,4.4,2,4.4,4.4v1.6
			C415.9,713.1,413.9,715.1,411.5,715.1z"/>
		<path class="st11" d="M411.9,704.6c2.2,0,4,1.8,4,4v2.4c0,2.2-1.8,4-4,4h-6.4c-2.2,0-4-1.8-4-4"/>
		<path class="st23" d="M444.4,715.1H430c-2.4,0-4.4-2-4.4-4.4v-1.6c0-2.4,2-4.4,4.4-4.4h14.4c2.4,0,4.4,2,4.4,4.4v1.6
			C448.8,713.1,446.8,715.1,444.4,715.1z"/>
		<path class="st11" d="M444.8,704.6c2.2,0,4,1.8,4,4v2.4c0,2.2-1.8,4-4,4h-15.2"/>
		<path class="st15" d="M463,696.2h-55.6c-0.4,0-0.7,0.3-0.7,0.7v0.2c0,0.4,0.3,0.7,0.7,0.7H463c0.4,0,0.7-0.3,0.7-0.7v-0.2
			C463.7,696.5,463.4,696.2,463,696.2z"/>
	</g>
	<g>
		<g>
			<path class="st14" d="M554.9,727.1h-75.8c-1.2,0-2.3-1-2.3-2.3v-25.2c0-1.2,1-2.3,2.3-2.3h75.8c1.2,0,2.3,1,2.3,2.3v25.2
				C557.2,726.1,556.2,727.1,554.9,727.1z"/>
		</g>
		<rect x="476.9" y="707.1" class="st15" width="80.3" height="4.8"/>
		<line class="st22" x1="557.2" y1="705.4" x2="476.9" y2="705.4"/>
		<path class="st23" d="M493.3,715.1h-5.6c-2.4,0-4.4-2-4.4-4.4v-1.6c0-2.4,2-4.4,4.4-4.4h5.6c2.4,0,4.4,2,4.4,4.4v1.6
			C497.8,713.1,495.8,715.1,493.3,715.1z"/>
		<path class="st11" d="M493.8,704.6c2.2,0,4,1.8,4,4v2.4c0,2.2-1.8,4-4,4h-6.4c-2.2,0-4-1.8-4-4"/>
		<path class="st23" d="M526.3,715.1h-14.4c-2.4,0-4.4-2-4.4-4.4v-1.6c0-2.4,2-4.4,4.4-4.4h14.4c2.4,0,4.4,2,4.4,4.4v1.6
			C530.7,713.1,528.7,715.1,526.3,715.1z"/>
		<path class="st11" d="M526.7,704.6c2.2,0,4,1.8,4,4v2.4c0,2.2-1.8,4-4,4h-15.2"/>
		<path class="st15" d="M544.8,696.2h-55.6c-0.4,0-0.7,0.3-0.7,0.7v0.2c0,0.4,0.3,0.7,0.7,0.7h55.6c0.4,0,0.7-0.3,0.7-0.7v-0.2
			C545.5,696.5,545.2,696.2,544.8,696.2z"/>
		<path class="st24" d="M543.4,725.5h-0.9c-1.4,0-2.6-1.1-2.6-2.6v-7.2c0-1.4,1.1-2.6,2.6-2.6h0.9c1.4,0,2.6,1.1,2.6,2.6v7.2
			C545.9,724.4,544.8,725.5,543.4,725.5z"/>
		<circle class="st13" cx="543.9" cy="718.7" r="0.8"/>
	</g>
	<g>
		<g>
			<path class="st14" d="M636.8,727.1H561c-1.2,0-2.3-1-2.3-2.3v-25.2c0-1.2,1-2.3,2.3-2.3h75.8c1.2,0,2.3,1,2.3,2.3v25.2
				C639,726.1,638,727.1,636.8,727.1z"/>
		</g>
		<rect x="558.8" y="707.1" class="st15" width="80.3" height="4.8"/>
		<line class="st22" x1="639" y1="705.4" x2="558.8" y2="705.4"/>
		<path class="st23" d="M575.2,715.1h-5.6c-2.4,0-4.4-2-4.4-4.4v-1.6c0-2.4,2-4.4,4.4-4.4h5.6c2.4,0,4.4,2,4.4,4.4v1.6
			C579.6,713.1,577.6,715.1,575.2,715.1z"/>
		<path class="st11" d="M575.6,704.6c2.2,0,4,1.8,4,4v2.4c0,2.2-1.8,4-4,4h-6.4c-2.2,0-4-1.8-4-4"/>
		<path class="st23" d="M608.1,715.1h-14.4c-2.4,0-4.4-2-4.4-4.4v-1.6c0-2.4,2-4.4,4.4-4.4h14.4c2.4,0,4.4,2,4.4,4.4v1.6
			C612.5,713.1,610.6,715.1,608.1,715.1z"/>
		<path class="st11" d="M608.5,704.6c2.2,0,4,1.8,4,4v2.4c0,2.2-1.8,4-4,4h-15.2"/>
		<path class="st15" d="M626.7,696.2h-55.6c-0.4,0-0.7,0.3-0.7,0.7v0.2c0,0.4,0.3,0.7,0.7,0.7h55.6c0.4,0,0.7-0.3,0.7-0.7v-0.2
			C627.4,696.5,627.1,696.2,626.7,696.2z"/>
	</g>
	<g>
		<g>
			<path class="st14" d="M718.7,727.1h-75.8c-1.2,0-2.3-1-2.3-2.3v-25.2c0-1.2,1-2.3,2.3-2.3h75.8c1.2,0,2.3,1,2.3,2.3v25.2
				C720.9,726.1,719.9,727.1,718.7,727.1z"/>
		</g>
		<rect x="640.6" y="707.1" class="st15" width="80.3" height="4.8"/>
		<line class="st22" x1="720.9" y1="705.4" x2="640.6" y2="705.4"/>
		<path class="st23" d="M657.1,715.1h-5.6c-2.4,0-4.4-2-4.4-4.4v-1.6c0-2.4,2-4.4,4.4-4.4h5.6c2.4,0,4.4,2,4.4,4.4v1.6
			C661.5,713.1,659.5,715.1,657.1,715.1z"/>
		<path class="st11" d="M657.5,704.6c2.2,0,4,1.8,4,4v2.4c0,2.2-1.8,4-4,4h-6.4c-2.2,0-4-1.8-4-4"/>
		<path class="st23" d="M690,715.1h-14.4c-2.4,0-4.4-2-4.4-4.4v-1.6c0-2.4,2-4.4,4.4-4.4H690c2.4,0,4.4,2,4.4,4.4v1.6
			C694.4,713.1,692.4,715.1,690,715.1z"/>
		<path class="st11" d="M690.4,704.6c2.2,0,4,1.8,4,4v2.4c0,2.2-1.8,4-4,4h-15.2"/>
		<path class="st15" d="M708.6,696.2H653c-0.4,0-0.7,0.3-0.7,0.7v0.2c0,0.4,0.3,0.7,0.7,0.7h55.6c0.4,0,0.7-0.3,0.7-0.7v-0.2
			C709.3,696.5,709,696.2,708.6,696.2z"/>
	</g>
	<g>
		<path class="st14" d="M719.7,697.4c0.2,0,0.5,0.1,0.6,0.2c2.9,1.7,25.4,15.8,25.4,26.3c0,4-28.4,3.2-28.4,3.2v-29.7H719.7z"/>
		<path class="st15" d="M741.7,714.9c0,0,3.3,4,3.8,6.8h-28.1v-6.8H741.7z"/>
		<path class="st13" d="M730.2,704.6h-6.7c-0.3,0-0.6,0.3-0.6,0.6v7.5c0,0.4,0.3,0.7,0.7,0.7h16.8c0,0-3-3.2-5.4-5.3
			c-2.4-2-4.3-3.5-4.3-3.5H730.2z"/>
		<path class="st11" d="M730.6,704.6l-7.4,8.4c-0.1,0.1-0.4,0.1-0.4-0.1v-7.7c0-0.3,0.2-0.6,0.6-0.6H730.6z"/>
		<path class="st13" d="M742.9,716.5c0,0,1,1.4,1.6,2.8h-2.9c-0.3,0-0.6-0.3-0.6-0.6v-1.7c0-0.3,0.2-0.5,0.5-0.5H742.9z"/>
	</g>
	<g>
		<path class="st14" d="M312.3,697.4c-0.2,0-0.5,0.1-0.6,0.2c-2.9,1.7-25.4,15.8-25.4,26.3c0,4,28.4,3.2,28.4,3.2v-29.7H312.3z"/>
		<path class="st15" d="M290.4,714.9c0,0-3.3,4-3.8,6.8h28.1v-6.8H290.4z"/>
		<path class="st13" d="M301.8,704.6h6.7c0.3,0,0.6,0.3,0.6,0.6v7.5c0,0.4-0.3,0.7-0.7,0.7h-16.8c0,0,3-3.2,5.4-5.3
			c2.4-2,4.3-3.5,4.3-3.5H301.8z"/>
		<path class="st11" d="M301.4,704.6l7.4,8.4c0.1,0.1,0.4,0.1,0.4-0.1v-7.7c0-0.3-0.2-0.6-0.6-0.6H301.4z"/>
		<path class="st13" d="M289.2,716.5c0,0-1,1.4-1.6,2.8h2.9c0.3,0,0.6-0.3,0.6-0.6v-1.7c0-0.3-0.2-0.5-0.5-0.5H289.2z"/>
	</g>
</g>
<text transform="matrix(1 0 0 1 447.333 304.0737)" class="st0"><tspan x="0" y="0" class="st25 st26 st27 st28">DATA.</tspan><tspan x="393.8" y="0" class="st25 st26 st29">  </tspan></text>
<rect x="454.6" y="320.6" class="st30" width="560.4" height="82.8"/>
<text transform="matrix(1 0 0 1 454.6426 333.4473)" class="st31 st6 st29">EXPERICENCE INEDITE</text>
<circle class="st4" cx="760" cy="308" r="44"/>
</svg>
