<?xml version="1.0" encoding="utf-8"?>
<!-- Generator: Adobe Illustrator 22.0.0, SVG Export Plug-In . SVG Version: 6.00 Build 0)  -->
<svg version="1.1" xmlns="http://www.w3.org/2000/svg" xmlns:xlink="http://www.w3.org/1999/xlink" x="0px" y="0px"
	 viewBox="0 0 1920 1080" style="enable-background:new 0 0 1920 1080;" xml:space="preserve">
<style type="text/css">
	.st0{display:none;}
	.st1{display:inline;fill:#241D37;}
	.st2{display:inline;}
	.st3{fill:#161323;}

		.st4{display:none;fill:none;stroke:#FFFFFF;stroke-width:0.4681;stroke-linecap:round;stroke-linejoin:round;stroke-miterlimit:10;}
	.st5{display:inline;fill:#FFEAB6;}
	.st6{font-family:'WorkSans-Regular';}
	.st7{font-size:10px;}
	.st8{clip-path:url(#SVGID_2_);}
	.st9{fill:#2DDCE0;}
	.st10{display:none;clip-path:url(#SVGID_2_);fill:#2DDCE0;}
	.st11{display:none;opacity:0.36;fill:url(#SVGID_3_);}
	.st12{fill:none;stroke:#FFEAB6;stroke-width:0.4862;stroke-linecap:round;stroke-miterlimit:10;}
	.st13{fill:#FFEAB6;}
	.st14{fill:#EF656C;}
	.st15{fill:#A5154F;}
	.st16{fill:none;stroke:#EF656C;stroke-width:1.2464;stroke-miterlimit:10;}
	.st17{fill:none;stroke:#FFEAB6;stroke-width:1.2464;stroke-miterlimit:10;}
	.st18{fill:none;stroke:#EF656C;stroke-width:0.9724;stroke-miterlimit:10;}
	.st19{fill:none;stroke:#FFEAB6;stroke-width:0.9724;stroke-miterlimit:10;}
	.st20{fill:#3D224C;}
	.st21{fill:#251330;}
	.st22{display:inline;fill:#2DDCE0;}
	.st23{font-family:'Overpass-SemiBold';}
	.st24{font-size:87.7081px;}
	.st25{letter-spacing:28;}
	.st26{font-size:17.5416px;}
	.st27{fill:none;}
	.st28{display:none;fill:#FFEAB6;}
	.st29{fill:none;stroke:#A5154F;stroke-width:0.75;stroke-miterlimit:10;}
	.st30{fill:none;stroke:#A5154F;stroke-linecap:round;stroke-miterlimit:10;}
	.st31{fill:none;stroke:#A5154F;stroke-width:0.5;stroke-miterlimit:10;}
	.st32{fill:none;stroke:#EF656C;stroke-miterlimit:10;}
	.st33{fill:none;stroke:#A5154F;stroke-width:0.7121;stroke-linecap:round;stroke-miterlimit:10;}
	.st34{fill:none;stroke:#A5154F;stroke-width:0.3561;stroke-miterlimit:10;}
	.st35{fill:none;stroke:#EF656C;stroke-width:0.7121;stroke-miterlimit:10;}
	.st36{fill:none;stroke:#FFEAB6;stroke-width:0.8026;stroke-miterlimit:10;}
	.st37{fill:#FFEAB6;stroke:#A5154F;stroke-width:0.8026;stroke-miterlimit:10;}
	.st38{fill:none;stroke:#FFEAB6;stroke-width:0.6408;stroke-miterlimit:10;}
</style>
<g id="Calque_1">
	<g class="st0">
		<rect x="320.5" y="140.5" class="st1" width="1280" height="787"/>
		<g class="st2">
			<path class="st3" d="M1600,141v786H321V141H1600 M1601,140H320v788h1281V140L1601,140z"/>
		</g>
	</g>
	<circle class="st4" cx="755" cy="372" r="44"/>
	<g class="st0">
		<text transform="matrix(1 0 0 1 1493.4795 199.2871)" class="st5 st6 st7">ABOUT</text>
	</g>
	<g>
		<defs>
			<rect id="SVGID_1_" x="-1" y="91" width="1920" height="995.7"/>
		</defs>
		<clipPath id="SVGID_2_">
			<use xlink:href="#SVGID_1_"  style="overflow:visible;"/>
		</clipPath>
		<g class="st8">
			<path class="st9" d="M543.2,821.8l2.7-22.5C545.9,799.3,533.2,812.1,543.2,821.8z"/>
			<path class="st9" d="M1104,851c-1.5,0.4-3,0.9-4.5,1.3c0.9-0.1,1.9-0.2,2.8-0.3C1102.9,851.7,1103.4,851.4,1104,851z"/>
			<path class="st9" d="M1102.3,852c-0.9,0-1.9,0.1-2.8,0.3c-4.1,1.2-8,2.2-12.2,2.5c2.7,0.3,5.4,0.2,8-0.3c1.2-0.3,2.5-0.6,3.7-1
				C1100.1,853.1,1101.2,852.6,1102.3,852z"/>
			<path class="st9" d="M1095.3,854.5c1.3-0.2,2.5-0.6,3.7-1C1097.8,853.9,1096.5,854.2,1095.3,854.5z"/>
			<path class="st9" d="M1190.8,850.8c-2.6,1.7-5.3,3.3-8.8,4.2C1186.7,855.7,1189.1,853.7,1190.8,850.8z"/>
			<path class="st9" d="M1176,873c-4.9-1-8.9,0.9-13.7-0.9C1163.8,877.4,1171.5,874.8,1176,873z"/>
			<path class="st9" d="M1181.5,879.1c-6.8,2.3-13.7,4.2-21.1,5.6c1.3,0.2,2.6,0.3,3.9,0.4c4.9-1.2,9.6-2.9,14.3-4.6
				C1179.6,880,1180.6,879.6,1181.5,879.1z"/>
			<path class="st9" d="M893.7,864.9c0.3,0,0.6,0,0.9,0c0.7-0.3,1.3-0.6,2-0.9C895.6,864.3,894.6,864.6,893.7,864.9z"/>
			<path class="st9" d="M922.9,860.1c-1.9,0.9-3.9,1.8-5.9,2.7c3.4-0.7,6.7-1.6,10.1-2.8C925.6,860,924.2,860,922.9,860.1z"/>
			<path class="st9" d="M896.6,864c-0.7,0.3-1.3,0.6-2,0.9c7.6-0.1,15-0.6,22.3-2.1c2-0.9,4-1.9,5.9-2.7
				C914,860.3,905.1,861.5,896.6,864z"/>
			<path class="st9" d="M893.7,864.9c-2.6,0.9-5.2,1.9-7.7,3.1c0.7,0.2,1.4,0.4,2.1,0.5c2.1-1.4,4.3-2.6,6.5-3.6
				C894.3,864.9,894,864.9,893.7,864.9z"/>
			<path class="st9" d="M923,860c-9-0.7-18.1,0.5-26.4,4c8.6-2.5,17.4-3.7,26.3-4C922.9,860,923,860,923,860z"/>
			<path class="st9" d="M937.3,852.1C937.3,852.1,937.3,852.1,937.3,852.1C937.2,852.1,937.2,852.2,937.3,852.1
				C937.3,852.1,937.3,852.1,937.3,852.1z"/>
			<path class="st9" d="M925.6,862.9c4.9-0.9,8.7-4.9,11.1-9.2c0.2-0.5,0.4-1,0.6-1.5C933.6,855.9,929.5,859.6,925.6,862.9z"/>
			<path class="st9" d="M937.2,852.2C937.2,852.2,937.2,852.1,937.2,852.2c-4.6,4-8.5,9.2-15.2,10.8c1.2,0.1,2.4,0.1,3.6-0.1
				C929.5,859.6,933.6,855.9,937.2,852.2z"/>
			<path class="st9" d="M937.3,852.1C937.3,852.1,937.3,852.1,937.3,852.1c-0.3,0.6-0.4,1.1-0.7,1.5c0.3-0.6,0.6-1.2,0.9-1.8
				C937.5,851.9,937.4,852,937.3,852.1z"/>
			<path class="st9" d="M1960.8,542.6c0,0-222,0-310.2,0c-68.8,0-49.6,29.4-19.1,29.4c30.2,0,285.2-1.2,315.4-1.2
				c30.2,0,7.6,53.5-55.4,72.9s-264.6,3.9-388.1,30.1c-123.5,26.3-140,163.4-279.9,163.4c-25.2,0-59.1-0.2-98.3-0.4
				c-5.6,1.8-11.5,2.6-17.3,2.2c2.6-0.8,5.3-1.5,7.9-2.3c-21.6-0.1-44.6-0.3-68.5-0.5c-12.6-0.1-25.5-0.2-38.5-0.3
				c-167.1-1.4-362-3.5-415-3.5c-30.3,0-44.6-4.7-50.7-10.5l-12.4,103.9l1447.6,3.9c0,0,7.6-179.9,13.9-184.8
				C1998.6,740,1960.8,542.6,1960.8,542.6z M888.1,868.5c-0.7,0.5-1.4,0.9-2.1,1.5C886.7,869.5,887.4,869,888.1,868.5
				c-0.7-0.2-1.4-0.3-2.1-0.5c2.5-1.2,5.1-2.2,7.7-3.1c-3.2,0.1-6.4,0.1-9.7,0.1h1h-1c3.3,0,6.5,0,9.7-0.1c1-0.3,1.9-0.6,2.9-0.9
				c8.4-3.5,17.4-4.7,26.4-4c0,0-0.1,0-0.1,0.1c1.4,0,2.8-0.1,4.1-0.1c-3.4,1.2-6.7,2.1-10.1,2.8C908,866.9,898.1,870.7,888.1,868.5
				z M940,850c-0.9,0.6-1.7,1.2-2.4,1.9c-0.3,0.6-0.6,1.2-0.9,1.8c-2.5,5.9-6.5,10.7-13.6,11.4c0.8-0.7,1.7-1.4,2.6-2.1
				c-1.1,0.2-2.3,0.3-3.6,0.1c6.7-1.7,10.6-6.9,15.2-10.9c0.7-2,1.3-4.1,1.8-6.1c-0.5,2.1-1,4.2-1.8,6.1c0,0,0,0,0.1-0.1
				c0.1-0.1,0.2-0.2,0.3-0.3c0.6-1.3,1.1-2.6,1.4-3.8c-0.3,1.2-0.8,2.5-1.4,3.8c1.2-1.3,2.4-2.5,3.4-3.8c-1.1,1.3-2.2,2.5-3.4,3.8
				c0,0,0,0.1,0,0.1C938.3,851.2,939.1,850.6,940,850z M1103,852c-1.3,0.6-2.7,1-4,1.5c-1.2,0.4-2.5,0.8-3.7,1
				c-4.4,1-8.9,1.1-13.3,0.5c4.4,0.6,8.9,0.5,13.3-0.5c-2.6,0.5-5.3,0.6-8,0.3c-0.6,0.1-1.3,0.1-2,0.1c-0.4,0-0.9,0-1.3,0
				c0.5,0,0.9,0,1.3,0c0.6,0,1.2-0.1,1.8-0.2c-1.4-0.2-2.8-0.4-4.1-0.8c1.3,0.4,2.7,0.6,4.1,0.8c4.4-0.5,8.4-1.9,12.4-2.5
				c1.5-0.4,3-0.9,4.5-1.3c-0.6,0.4-1.1,0.7-1.7,1C1102.5,852,1102.8,852,1103,852z M1190.8,850.8c0.9-1.5,1.5-3.1,2.2-4.8
				C1192.3,847.7,1191.7,849.3,1190.8,850.8c0.4-0.3,0.8-0.5,1.2-0.8C1191.6,850.3,1191.2,850.5,1190.8,850.8
				c-1.7,2.9-4.1,4.9-8.8,4.2C1185.5,854.1,1188.2,852.5,1190.8,850.8z M1162,870c0,0.8,0.1,1.5,0.3,2.1c4.9,1.8,8.8-0.1,13.7,0.9
				c-4.5,1.8-12.2,4.4-13.7-0.9c-0.1,0-0.2-0.1-0.3-0.1c0.1,0,0.2,0.1,0.3,0.1C1162.1,871.5,1162,870.8,1162,870z M1123,880
				c11-5,22-11,31-19C1145,869,1134,875,1123,880c13-3,29-7,34-21C1152,873,1136,877,1123,880z M1176.4,885c-5.5,2.5-11.3,3.7-17,2
				c-0.1,0-0.3,0.1-0.4,0.1c0.1,0,0.3-0.1,0.4-0.1c-0.8-0.2-1.6-0.6-2.4-0.9c0.8,0.4,1.6,0.7,2.4,0.9c1.2-0.2,2.4-0.5,3.6-0.7
				c-0.8-0.1-1.5-0.2-2.3-0.3c-0.2,0-0.5,0.1-0.7,0.1c0.2,0,0.5-0.1,0.7-0.1c-1.2-0.2-2.5-0.5-3.7-0.9c1.2,0.4,2.5,0.6,3.7,0.9
				c1.2-0.2,2.4-0.5,3.6-0.8c-1.3-0.1-2.6-0.2-3.9-0.4c-0.5,0.1-1,0.2-1.4,0.3c0.5-0.1,1-0.2,1.4-0.3c-1.2-0.2-2.3-0.4-3.4-0.7
				c1.1,0.3,2.3,0.5,3.4,0.7c7.4-1.4,14.3-3.3,21.1-5.6c4-1.8,8.1-3.7,12.5-5.1c-1,0.7-2,1.4-3,2.1c1.3-0.4,2.7-0.8,4-1.1
				C1189.4,879.6,1183.1,883.1,1176.4,885z"/>
			<path class="st9" d="M925.6,862.9c-0.9,0.7-1.7,1.4-2.6,2.1c7.1-0.7,11.2-5.5,13.6-11.4C934.2,858,930.5,861.9,925.6,862.9z"/>
			<path class="st9" d="M937.3,852.1c0.1-0.1,0.2-0.1,0.3-0.2c0,0,0-0.1,0-0.1C937.5,851.9,937.4,852,937.3,852.1z"/>
			<path class="st9" d="M888.1,868.5c10,2.2,19.9-1.7,28.8-5.7c-7.3,1.5-14.7,2-22.3,2.1C892.4,866,890.2,867.2,888.1,868.5z"/>
			<path class="st9" d="M1191,876.1c-4.4,3.1-9.3,6.5-14.6,8.8c6.6-1.9,13-5.4,18.6-10C1193.7,875.3,1192.3,875.7,1191,876.1z"/>
			<path class="st9" d="M1164.3,885.1c-1.2,0.3-2.4,0.6-3.6,0.8c0.8,0.1,1.5,0.2,2.3,0.3c1.3-0.3,2.6-0.7,3.9-1.1
				C1166,885.1,1165.2,885.1,1164.3,885.1z"/>
			<path class="st9" d="M1166.9,885.1c4.1-1.3,7.9-2.9,11.7-4.7c-4.7,1.8-9.5,3.5-14.3,4.6C1165.2,885.1,1166,885.1,1166.9,885.1z"
				/>
			<path class="st9" d="M1163,886.2c-1.2,0.3-2.3,0.5-3.6,0.7c5.7,1.7,11.5,0.5,17-2C1172,886.2,1167.5,886.7,1163,886.2z"/>
			<path class="st9" d="M1178.6,880.5c-3.8,1.7-7.7,3.4-11.7,4.7c7.9-0.3,16-3.2,22.2-8.4C1185.6,877.9,1182.1,879.2,1178.6,880.5z"
				/>
			<path class="st9" d="M1189.1,876.7c-6.3,5.2-14.3,8.1-22.2,8.4c-1.3,0.4-2.6,0.8-3.9,1.1c4.5,0.5,9,0,13.5-1.2
				c5.2-2.3,10.2-5.7,14.6-8.8C1190.4,876.3,1189.8,876.5,1189.1,876.7z"/>
			<path class="st9" d="M1194,874c-4.3,1.4-8.4,3.3-12.5,5.1c2.8-1,5.6-2,8.5-3.1c-0.3,0.2-0.6,0.5-0.9,0.7c0.6-0.2,1.2-0.4,1.9-0.6
				C1192,875.4,1193,874.7,1194,874z"/>
			<path class="st9" d="M1181.5,879.1c-1,0.4-1.9,0.9-2.9,1.3c3.5-1.3,7-2.6,10.5-3.7c0.3-0.2,0.6-0.5,0.9-0.7
				C1187.2,877.1,1184.4,878.2,1181.5,879.1z"/>
			<path class="st9" d="M1087.1,854.8c0.1,0,0.1,0,0.2,0c4.2-0.4,8.1-1.4,12.2-2.5C1095.5,852.9,1091.5,854.3,1087.1,854.8z"/>
			<path class="st9" d="M1103,852c-0.2,0-0.5,0-0.7,0c-1.1,0.6-2.2,1-3.3,1.5C1100.3,853,1101.7,852.6,1103,852z"/>
			<path class="st9" d="M1085.3,855c-0.4,0-0.9,0-1.3,0C1084.5,855,1084.9,855,1085.3,855z"/>
			<path class="st9" d="M1085.3,855c0.7,0,1.3-0.1,2-0.1c-0.1,0-0.1,0-0.2,0C1086.5,854.9,1085.9,854.9,1085.3,855z"/>
			<path class="st9" d="M1125.3,836.8c-3.1,0-6.2,0-9.4-0.1c-2.6,0.8-5.3,1.5-7.9,2.3C1113.7,839.4,1119.6,838.6,1125.3,836.8z"/>
		</g>
		<path class="st10" d="M55.4,110.7c0,0,567.9,0,663.2,0s132.2,73.9-83.6,73.9s-599,0-599,0s-33.1,42.8,0,42.8s1110.5,0,1225.2,0
			s97.2,62.2-38.9,62.2s-527,0-613.6,0S473.5,389.8,985,389.8c483.3,0,292.7,228.5,37,228.5c-192.5,0-991.8,21.4-991.8,21.4
			L55.4,110.7z"/>
	</g>
	<linearGradient id="SVGID_3_" gradientUnits="userSpaceOnUse" x1="-77.9294" y1="984.8746" x2="1732.2198" y2="206.3971">
		<stop  offset="0" style="stop-color:#FFC255"/>
		<stop  offset="1" style="stop-color:#A5154F;stop-opacity:0.6"/>
	</linearGradient>
	<rect x="320" y="137" class="st11" width="1280" height="803"/>
	<polygon class="st9" points="326.2,709.7 167.9,905.2 484.5,905.2 	"/>
	<polygon class="st9" points="442.3,783.6 347.8,900.3 536.8,900.3 	"/>
	<path class="st12" d="M431.8,796.6c0,0-0.6,4.5,4.3,5.5c4.9,1,10.7-3.9,13.6-2.9"/>
	<polygon class="st13" points="326.2,709.7 382,827 395.2,905.2 484.5,905.2 	"/>
	<polygon class="st13" points="441.9,783.6 468.5,853.3 481.9,832.5 	"/>
	<g>
		<rect x="1549.8" y="690.3" class="st14" width="120.9" height="225.6"/>
		<rect x="1549.8" y="690.3" class="st15" width="60.4" height="225.6"/>
		<rect x="1562.3" y="706.5" class="st13" width="8.7" height="8.7"/>
		<rect x="1589.7" y="706.5" class="st13" width="8.7" height="8.7"/>
		<rect x="1619.6" y="706.5" class="st13" width="8.7" height="8.7"/>
		<rect x="1647.1" y="706.5" class="st13" width="8.7" height="8.7"/>
		<rect x="1562.3" y="727.7" class="st13" width="8.7" height="8.7"/>
		<rect x="1589.7" y="727.7" class="st13" width="8.7" height="8.7"/>
		<rect x="1619.6" y="727.7" class="st13" width="8.7" height="8.7"/>
		<rect x="1647.1" y="727.7" class="st13" width="8.7" height="8.7"/>
		<rect x="1562.3" y="748.8" class="st13" width="8.7" height="8.7"/>
		<rect x="1589.7" y="748.8" class="st13" width="8.7" height="8.7"/>
		<rect x="1619.6" y="748.8" class="st13" width="8.7" height="8.7"/>
		<rect x="1647.1" y="748.8" class="st13" width="8.7" height="8.7"/>
		<rect x="1562.3" y="770" class="st13" width="8.7" height="8.7"/>
		<rect x="1589.7" y="770" class="st13" width="8.7" height="8.7"/>
		<rect x="1619.6" y="770" class="st13" width="8.7" height="8.7"/>
		<rect x="1647.1" y="770" class="st13" width="8.7" height="8.7"/>
		<rect x="1562.3" y="791.2" class="st13" width="8.7" height="8.7"/>
		<rect x="1589.7" y="791.2" class="st13" width="8.7" height="8.7"/>
		<rect x="1619.6" y="791.2" class="st13" width="8.7" height="8.7"/>
		<rect x="1647.1" y="791.2" class="st13" width="8.7" height="8.7"/>
		<rect x="1562.3" y="812.4" class="st13" width="8.7" height="8.7"/>
		<rect x="1589.7" y="812.4" class="st13" width="8.7" height="8.7"/>
		<rect x="1619.6" y="812.4" class="st13" width="8.7" height="8.7"/>
		<rect x="1647.1" y="812.4" class="st13" width="8.7" height="8.7"/>
		<rect x="1562.3" y="833.6" class="st13" width="8.7" height="8.7"/>
		<rect x="1589.7" y="833.6" class="st13" width="8.7" height="8.7"/>
		<rect x="1619.6" y="833.6" class="st13" width="8.7" height="8.7"/>
		<rect x="1647.1" y="833.6" class="st13" width="8.7" height="8.7"/>
		<rect x="1562.3" y="854.8" class="st13" width="8.7" height="8.7"/>
		<rect x="1589.7" y="854.8" class="st13" width="8.7" height="8.7"/>
		<rect x="1619.6" y="854.8" class="st13" width="8.7" height="8.7"/>
		<rect x="1647.1" y="854.8" class="st13" width="8.7" height="8.7"/>
		<rect x="1562.3" y="876" class="st13" width="8.7" height="8.7"/>
		<rect x="1589.7" y="876" class="st13" width="8.7" height="8.7"/>
		<rect x="1619.6" y="876" class="st13" width="8.7" height="8.7"/>
		<rect x="1647.1" y="876" class="st13" width="8.7" height="8.7"/>
		<line class="st16" x1="1580.1" y1="690.3" x2="1580.1" y2="915.9"/>
		<line class="st16" x1="1575.4" y1="690.3" x2="1575.4" y2="915.9"/>
		<line class="st17" x1="1664.5" y1="690.3" x2="1664.5" y2="915.9"/>
	</g>
	<g>
		<rect x="1492.5" y="731.1" class="st14" width="94.3" height="176"/>
		<rect x="1492.5" y="731.1" class="st15" width="47.2" height="176"/>
		<rect x="1502.2" y="743.7" class="st13" width="6.8" height="6.8"/>
		<rect x="1523.6" y="743.7" class="st13" width="6.8" height="6.8"/>
		<rect x="1546.9" y="743.7" class="st13" width="6.8" height="6.8"/>
		<rect x="1568.3" y="743.7" class="st13" width="6.8" height="6.8"/>
		<rect x="1502.2" y="760.3" class="st13" width="6.8" height="6.8"/>
		<rect x="1523.6" y="760.3" class="st13" width="6.8" height="6.8"/>
		<rect x="1546.9" y="760.3" class="st13" width="6.8" height="6.8"/>
		<rect x="1568.3" y="760.3" class="st13" width="6.8" height="6.8"/>
		<rect x="1502.2" y="776.8" class="st13" width="6.8" height="6.8"/>
		<rect x="1523.6" y="776.8" class="st13" width="6.8" height="6.8"/>
		<rect x="1546.9" y="776.8" class="st13" width="6.8" height="6.8"/>
		<rect x="1568.3" y="776.8" class="st13" width="6.8" height="6.8"/>
		<rect x="1502.2" y="793.3" class="st13" width="6.8" height="6.8"/>
		<rect x="1523.6" y="793.3" class="st13" width="6.8" height="6.8"/>
		<rect x="1546.9" y="793.3" class="st13" width="6.8" height="6.8"/>
		<rect x="1568.3" y="793.3" class="st13" width="6.8" height="6.8"/>
		<rect x="1502.2" y="809.9" class="st13" width="6.8" height="6.8"/>
		<rect x="1523.6" y="809.9" class="st13" width="6.8" height="6.8"/>
		<rect x="1546.9" y="809.9" class="st13" width="6.8" height="6.8"/>
		<rect x="1568.3" y="809.9" class="st13" width="6.8" height="6.8"/>
		<rect x="1502.2" y="826.4" class="st13" width="6.8" height="6.8"/>
		<rect x="1523.6" y="826.4" class="st13" width="6.8" height="6.8"/>
		<rect x="1546.9" y="826.4" class="st13" width="6.8" height="6.8"/>
		<rect x="1568.3" y="826.4" class="st13" width="6.8" height="6.8"/>
		<rect x="1502.2" y="842.9" class="st13" width="6.8" height="6.8"/>
		<rect x="1523.6" y="842.9" class="st13" width="6.8" height="6.8"/>
		<rect x="1546.9" y="842.9" class="st13" width="6.8" height="6.8"/>
		<rect x="1568.3" y="842.9" class="st13" width="6.8" height="6.8"/>
		<rect x="1502.2" y="859.5" class="st13" width="6.8" height="6.8"/>
		<rect x="1523.6" y="859.5" class="st13" width="6.8" height="6.8"/>
		<rect x="1546.9" y="859.5" class="st13" width="6.8" height="6.8"/>
		<rect x="1568.3" y="859.5" class="st13" width="6.8" height="6.8"/>
		<rect x="1502.2" y="876" class="st13" width="6.8" height="6.8"/>
		<rect x="1523.6" y="876" class="st13" width="6.8" height="6.8"/>
		<rect x="1546.9" y="876" class="st13" width="6.8" height="6.8"/>
		<rect x="1568.3" y="876" class="st13" width="6.8" height="6.8"/>
		<line class="st18" x1="1516" y1="731.1" x2="1516" y2="907.1"/>
		<line class="st18" x1="1512.4" y1="731.1" x2="1512.4" y2="907.1"/>
		<line class="st19" x1="1581.9" y1="731.1" x2="1581.9" y2="907.1"/>
	</g>
	<g>
		<rect x="1639.3" y="781.7" class="st14" width="94.3" height="176"/>
		<rect x="1639.3" y="781.7" class="st15" width="47.2" height="176"/>
		<rect x="1649" y="794.3" class="st13" width="6.8" height="6.8"/>
		<rect x="1670.4" y="794.3" class="st13" width="6.8" height="6.8"/>
		<rect x="1693.8" y="794.3" class="st13" width="6.8" height="6.8"/>
		<rect x="1715.1" y="794.3" class="st13" width="6.8" height="6.8"/>
		<rect x="1649" y="810.8" class="st13" width="6.8" height="6.8"/>
		<rect x="1670.4" y="810.8" class="st13" width="6.8" height="6.8"/>
		<rect x="1693.8" y="810.8" class="st13" width="6.8" height="6.8"/>
		<rect x="1715.1" y="810.8" class="st13" width="6.8" height="6.8"/>
		<rect x="1649" y="827.4" class="st13" width="6.8" height="6.8"/>
		<rect x="1670.4" y="827.4" class="st13" width="6.8" height="6.8"/>
		<rect x="1693.8" y="827.4" class="st13" width="6.8" height="6.8"/>
		<rect x="1715.1" y="827.4" class="st13" width="6.8" height="6.8"/>
		<rect x="1649" y="843.9" class="st13" width="6.8" height="6.8"/>
		<rect x="1670.4" y="843.9" class="st13" width="6.8" height="6.8"/>
		<rect x="1693.8" y="843.9" class="st13" width="6.8" height="6.8"/>
		<rect x="1715.1" y="843.9" class="st13" width="6.8" height="6.8"/>
		<rect x="1649" y="860.4" class="st13" width="6.8" height="6.8"/>
		<rect x="1670.4" y="860.4" class="st13" width="6.8" height="6.8"/>
		<rect x="1693.8" y="860.4" class="st13" width="6.8" height="6.8"/>
		<rect x="1715.1" y="860.4" class="st13" width="6.8" height="6.8"/>
		<rect x="1649" y="877" class="st13" width="6.8" height="6.8"/>
		<rect x="1670.4" y="877" class="st13" width="6.8" height="6.8"/>
		<rect x="1693.8" y="877" class="st13" width="6.8" height="6.8"/>
		<rect x="1715.1" y="877" class="st13" width="6.8" height="6.8"/>
		<rect x="1649" y="893.5" class="st13" width="6.8" height="6.8"/>
		<rect x="1670.4" y="893.5" class="st13" width="6.8" height="6.8"/>
		<rect x="1693.8" y="893.5" class="st13" width="6.8" height="6.8"/>
		<rect x="1715.1" y="893.5" class="st13" width="6.8" height="6.8"/>
		<rect x="1649" y="910" class="st13" width="6.8" height="6.8"/>
		<rect x="1670.4" y="910" class="st13" width="6.8" height="6.8"/>
		<rect x="1693.8" y="910" class="st13" width="6.8" height="6.8"/>
		<rect x="1715.1" y="910" class="st13" width="6.8" height="6.8"/>
		<rect x="1649" y="926.6" class="st13" width="6.8" height="6.8"/>
		<rect x="1670.4" y="926.6" class="st13" width="6.8" height="6.8"/>
		<rect x="1693.8" y="926.6" class="st13" width="6.8" height="6.8"/>
		<rect x="1715.1" y="926.6" class="st13" width="6.8" height="6.8"/>
		<line class="st18" x1="1662.9" y1="781.7" x2="1662.9" y2="957.7"/>
		<line class="st18" x1="1659.2" y1="781.7" x2="1659.2" y2="957.7"/>
		<line class="st19" x1="1728.8" y1="781.7" x2="1728.8" y2="957.7"/>
	</g>
	<g>
		<rect x="1425.4" y="795.3" class="st14" width="94.3" height="176"/>
		<rect x="1425.4" y="795.3" class="st15" width="47.2" height="176"/>
		<rect x="1435.1" y="807.9" class="st13" width="6.8" height="6.8"/>
		<rect x="1456.5" y="807.9" class="st13" width="6.8" height="6.8"/>
		<rect x="1479.8" y="807.9" class="st13" width="6.8" height="6.8"/>
		<rect x="1501.2" y="807.9" class="st13" width="6.8" height="6.8"/>
		<rect x="1435.1" y="824.5" class="st13" width="6.8" height="6.8"/>
		<rect x="1456.5" y="824.5" class="st13" width="6.8" height="6.8"/>
		<rect x="1479.8" y="824.5" class="st13" width="6.8" height="6.8"/>
		<rect x="1501.2" y="824.5" class="st13" width="6.8" height="6.8"/>
		<rect x="1435.1" y="841" class="st13" width="6.8" height="6.8"/>
		<rect x="1456.5" y="841" class="st13" width="6.8" height="6.8"/>
		<rect x="1479.8" y="841" class="st13" width="6.8" height="6.8"/>
		<rect x="1501.2" y="841" class="st13" width="6.8" height="6.8"/>
		<rect x="1435.1" y="857.5" class="st13" width="6.8" height="6.8"/>
		<rect x="1456.5" y="857.5" class="st13" width="6.8" height="6.8"/>
		<rect x="1479.8" y="857.5" class="st13" width="6.8" height="6.8"/>
		<rect x="1501.2" y="857.5" class="st13" width="6.8" height="6.8"/>
		<rect x="1435.1" y="874" class="st13" width="6.8" height="6.8"/>
		<rect x="1456.5" y="874" class="st13" width="6.8" height="6.8"/>
		<rect x="1479.8" y="874" class="st13" width="6.8" height="6.8"/>
		<rect x="1501.2" y="874" class="st13" width="6.8" height="6.8"/>
		<rect x="1435.1" y="890.6" class="st13" width="6.8" height="6.8"/>
		<rect x="1456.5" y="890.6" class="st13" width="6.8" height="6.8"/>
		<rect x="1479.8" y="890.6" class="st13" width="6.8" height="6.8"/>
		<rect x="1501.2" y="890.6" class="st13" width="6.8" height="6.8"/>
		<rect x="1435.1" y="907.1" class="st13" width="6.8" height="6.8"/>
		<rect x="1456.5" y="907.1" class="st13" width="6.8" height="6.8"/>
		<rect x="1479.8" y="907.1" class="st13" width="6.8" height="6.8"/>
		<rect x="1501.2" y="907.1" class="st13" width="6.8" height="6.8"/>
		<rect x="1435.1" y="923.6" class="st13" width="6.8" height="6.8"/>
		<rect x="1456.5" y="923.6" class="st13" width="6.8" height="6.8"/>
		<rect x="1479.8" y="923.6" class="st13" width="6.8" height="6.8"/>
		<rect x="1501.2" y="923.6" class="st13" width="6.8" height="6.8"/>
		<rect x="1435.1" y="940.2" class="st13" width="6.8" height="6.8"/>
		<rect x="1456.5" y="940.2" class="st13" width="6.8" height="6.8"/>
		<rect x="1479.8" y="940.2" class="st13" width="6.8" height="6.8"/>
		<rect x="1501.2" y="940.2" class="st13" width="6.8" height="6.8"/>
		<line class="st18" x1="1449" y1="795.3" x2="1449" y2="971.3"/>
		<line class="st18" x1="1445.3" y1="795.3" x2="1445.3" y2="971.3"/>
		<line class="st19" x1="1514.8" y1="795.3" x2="1514.8" y2="971.3"/>
	</g>
	<rect y="904.8" class="st20" width="1920" height="177.9"/>
	<path class="st13" d="M356.2,746.8c0,0-19.3,11.6-38.8,11.6s-21.3-11.6-21.3-11.6l30-37.1L356.2,746.8z"/>
	<path class="st19" d="M290.6,753.6c0,0,6.4,15.4,22.9,16.4s35-9.7,42.8-11.7"/>
	<path class="st13" d="M442.3,783.6l-8.7,10.7c0,0,1.5,4.9,7.3,4.9s11.5-2.7,11.5-2.7L442.3,783.6z"/>
	<g>
		<polygon class="st9" points="532.7,756.5 438.2,903.3 627.2,903.3 		"/>
		<polygon class="st13" points="532.4,755.5 577.1,844 581.9,902.3 627.2,902.3 		"/>
		<path class="st13" d="M519.7,775.8c0,0-2.9,9.8,9.8,10.8c12.6,1,19.8-5.4,19.8-5.4l-16.9-25.7L519.7,775.8z"/>
		<path class="st12" d="M514.7,783.5c0,0-5.7,7,6.9,8c12.6,1,30.5-5.8,30.5-5.8"/>
	</g>
	<rect x="320" y="908.1" class="st21" width="1278.6" height="29.2"/>
	<rect x="437.6" y="931.4" class="st21" width="25.3" height="155.6"/>
	<rect x="620.4" y="931.4" class="st21" width="25.3" height="155.6"/>
	<rect x="806.1" y="931.4" class="st21" width="25.3" height="155.6"/>
	<rect x="990.8" y="931.4" class="st21" width="25.3" height="155.6"/>
	<rect x="1175.6" y="931.4" class="st21" width="25.3" height="155.6"/>
	<rect x="1360.4" y="931.4" class="st21" width="25.3" height="155.6"/>
	<rect x="1545.1" y="931.4" class="st21" width="25.3" height="155.6"/>
	<path class="st21" d="M461.9,1086c0,0,13.6-148.8,76.8-148.8s82.2,148.8,82.2,148.8V937.3h-159V1086z"/>
	<path class="st21" d="M282,1086c0,0,13.6-148.8,76.8-148.8S441,1086,441,1086V937.3H282V1086z"/>
	<path class="st21" d="M645.6,1086c0,0,13.7-148.8,77.5-148.8s82.9,148.8,82.9,148.8V937.3H645.6V1086z"/>
	<path class="st21" d="M829.4,1086c0,0,13.8-148.8,78-148.8s83.4,148.8,83.4,148.8V937.3H829.4V1086z"/>
	<path class="st21" d="M1016.1,1086c0,0,13.7-148.8,77-148.8s82.4,148.8,82.4,148.8V937.3h-159.5V1086z"/>
	<path class="st21" d="M1200.9,1086c0,0,13.9-148.8,78.4-148.8s83.9,148.8,83.9,148.8V937.3h-162.4V1086z"/>
	<path class="st21" d="M1385.6,1086c0,0,13.8-148.8,78-148.8s83.4,148.8,83.4,148.8V937.3h-161.4V1086z"/>
	<g>
		<rect x="1594" y="908.1" class="st21" width="1292.6" height="29.2"/>
		<rect x="1725.6" y="931.4" class="st21" width="25.3" height="155.6"/>
		<rect x="1909.4" y="931.4" class="st21" width="25.3" height="155.6"/>
		<path class="st21" d="M1750.9,1086c0,0,13.6-148.8,76.8-148.8s82.2,148.8,82.2,148.8V937.3h-159V1086z"/>
		<path class="st21" d="M1570,1086c0,0,13.6-148.8,76.8-148.8S1729,1086,1729,1086V937.3h-159V1086z"/>
	</g>
	<g>
		<rect x="-983" y="908.1" class="st21" width="1303" height="29.2"/>
		<rect x="72.4" y="931.4" class="st21" width="25.3" height="155.6"/>
		<rect x="257.1" y="931.4" class="st21" width="25.3" height="155.6"/>
		<path class="st21" d="M-87.1,1086c0,0,13.9-148.8,78.4-148.8S75.3,1086,75.3,1086V937.3H-87.1V1086z"/>
		<path class="st21" d="M97.6,1086c0,0,13.8-148.8,78-148.8s83.4,148.8,83.4,148.8V937.3H97.6V1086z"/>
	</g>
	<text transform="matrix(1 0 0 1 767.333 444.0737)" class="st0"><tspan x="0" y="0" class="st22 st23 st24 st25">DATA.</tspan><tspan x="393.8" y="0" class="st22 st23 st26">  </tspan></text>
	<rect x="774.6" y="460.6" class="st27" width="560.4" height="82.8"/>
	<text transform="matrix(1 0 0 1 774.6426 473.4473)" class="st28 st6 st26">EXPERICENCE INEDITE</text>
	<text transform="matrix(1 0 0 1 118.6323 238.6055)" class="st6 st7"> </text>
	<circle class="st4" cx="1080" cy="448" r="44"/>
</g>
<g id="Calque_3">
	<g>
		<path class="st14" d="M874.6,661.6L863,705.8c6.9-3,14.1-5.2,21.4-6.7L874.6,661.6z"/>
		<path class="st14" d="M861.7,710.6L849.6,757c14.2-8.2,29.4-14.1,45.3-18l-8.4-32.2C878.3,708.8,870.1,710.2,861.7,710.6z"/>
		<path class="st14" d="M892,823c-19.4,8.3-40.6,9.8-61.1,5.2l-9,34.4h105.3l-20.1-76.8c-7.8,5.4-16.6,7.7-26.1,10.1
			c8.7-4.3,16.6-9.4,25.1-14l-2.6-10.1c-11.6-2.6-23.5-2.9-35.1-4.9c-5.2,0.6-10.3,1.7-15.3,3c5-1.3,10.1-2.4,15.3-3
			c-4.1-0.7-8.3-1.7-12.3-3c4.1,1.4,8.2,2.3,12.3,3c11.7-1.4,23.6-0.8,34.7,3.3l-6.7-25.7c-15.3,6.3-30.8,12.2-47,13.4L831,828.1
			C851,824.8,871.1,819.4,892,823z M894,787v1V787z"/>
		<path class="st15" d="M879.9,821.8l-1.9-53.4c-3.2-0.4-6.5-0.8-9.7-1.4c-5.2,0.6-10.3,1.7-15.3,3c5-1.3,10.1-2.4,15.3-3
			c-4.1-0.7-8.3-1.7-12.3-3c4.1,1.4,8.2,2.3,12.3,3c3.2-0.4,6.4-0.6,9.6-0.7l-0.5-14.5c-9.2,3.1-18.5,5.5-28.1,6.1L831,828.1
			C847.1,825.5,863.3,821.4,879.9,821.8z"/>
		<path class="st15" d="M830.9,828.2l-9,34.4h59.4l-1.2-35.4C864.1,831.7,847.3,831.9,830.9,828.2z"/>
		<path class="st15" d="M874.3,662.5L863,705.8c4.2-1.8,8.4-3.3,12.7-4.6L874.3,662.5z"/>
		<path class="st15" d="M861.7,710.6L849.6,757c8.8-5.1,18.1-9.3,27.6-12.7L876,709C871.3,709.8,866.5,710.3,861.7,710.6z"/>
		<rect x="870" y="862.6" class="st15" width="11.3" height="46.1"/>
	</g>
	<g>
		<path class="st14" d="M1025.1,868.2l-15.2-58.2c-9.3,9.8-26.1,12-39.9,9c13.9-0.9,27.8-2.5,39.7-9.5l-5.3-20.1
			c-3,6.2-8.1,11.6-12.5,16.5c0.7-8.6,6.5-14.1,11.6-19.8l-3.6-13.8c-2.7,5.9-6.9,11.3-12,15.6c3.5-6.9,7.2-13.5,10.8-20.3
			l-7.3-27.7c-5.6,7.7-16.2,13.5-25.5,15c8.9-4.9,17.1-10.4,25.3-16l-12.5-47.6l-26.4,100.9c10.5-1.5,21.1-2.1,31.6-0.3
			c-9.8,2.7-21.9,6.1-32.2,2.6l-19.3,73.6H1025.1z M965.4,806.8c5-1.4,10.1-2,15.6-0.8C976,807.9,970.7,807.4,965.4,806.8
			c-3.2,0.9-6.3,2-9.4,3.2C959.1,808.8,962.2,807.7,965.4,806.8c-3.2-0.4-6.4-0.8-9.4-0.8C959,806,962.2,806.4,965.4,806.8z"/>
		<path class="st14" d="M991.5,740l-0.3-1c-8.1,5.6-16.4,11.1-25.3,16"/>
		<path class="st15" d="M982.1,791.7l-1.5-42.2c-4.6,2.7-9.8,4.7-14.6,5.5c5-2.7,9.8-5.7,14.5-8.7l-1.9-54.1l-26.2,100.1
			C962.3,790.9,972.2,790.3,982.1,791.7z"/>
		<path class="st15" d="M984.7,868.2l-1.7-47.9c-4.4,0.1-8.9-0.3-13-1.3c4.3-0.3,8.7-0.6,13-1.2l-0.9-25.3
			c-9.4,2.6-20.7,5.4-30.3,2.1l-19.3,73.6H984.7z M965.4,806.8c5-1.4,10.1-2,15.6-0.8C976,807.9,970.7,807.4,965.4,806.8
			c-3.2,0.9-6.3,2-9.4,3.2C959.1,808.8,962.2,807.7,965.4,806.8c-3.2-0.4-6.4-0.8-9.4-0.8C959,806,962.2,806.4,965.4,806.8z"/>
		<rect x="974.8" y="868.2" class="st15" width="9.9" height="40.5"/>
	</g>
	<g>
		<polygon class="st14" points="1202.8,855.5 1191.5,898.8 1214.2,898.8 		"/>
		<polygon class="st15" points="1202.8,855.6 1191.5,898.8 1204.3,898.8 		"/>
		<rect x="1201.9" y="898.8" class="st15" width="2.4" height="9.9"/>
	</g>
	<rect x="782.8" y="791.6" class="st14" width="46.6" height="114.4"/>
	<rect x="782.8" y="791.6" class="st15" width="17.2" height="114.4"/>
	<polygon class="st14" points="805.9,721.3 780,791.6 831.9,791.6 	"/>
	<polygon class="st15" points="806,721 780,791.6 815,791.6 	"/>
	<rect x="668" y="822" class="st14" width="123" height="84"/>
	<path class="st13" d="M822,813h-7v-13.5c0-1.9,1.6-3.5,3.5-3.5l0,0c1.9,0,3.5,1.6,3.5,3.5V813z"/>
	<path class="st13" d="M686,861h-7v-13.5c0-1.9,1.6-3.5,3.5-3.5l0,0c1.9,0,3.5,1.6,3.5,3.5V861z"/>
	<path class="st13" d="M703,861h-7v-13.5c0-1.9,1.6-3.5,3.5-3.5l0,0c1.9,0,3.5,1.6,3.5,3.5V861z"/>
	<path class="st13" d="M720,861h-7v-13.5c0-1.9,1.6-3.5,3.5-3.5l0,0c1.9,0,3.5,1.6,3.5,3.5V861z"/>
	<path class="st13" d="M737,861h-7v-13.5c0-1.9,1.6-3.5,3.5-3.5l0,0c1.9,0,3.5,1.6,3.5,3.5V861z"/>
	<path class="st13" d="M754,861h-7v-13.5c0-1.9,1.6-3.5,3.5-3.5l0,0c1.9,0,3.5,1.6,3.5,3.5V861z"/>
	<path class="st13" d="M771,861h-7v-13.5c0-1.9,1.6-3.5,3.5-3.5l0,0c1.9,0,3.5,1.6,3.5,3.5V861z"/>
	<path class="st13" d="M792,813h-4.8c-0.1,0-0.2-0.1-0.2-0.2v-14.4c0-1.4,1.1-2.5,2.5-2.5l0,0c1.4,0,2.5,1.1,2.5,2.5V813z"/>
	<line class="st29" x1="831" y1="818" x2="782" y2="818"/>
	<line class="st29" x1="814.5" y1="818.5" x2="814.5" y2="877.5"/>
	<rect x="805" y="798.1" class="st15" width="5" height="2.9"/>
	<rect x="824" y="824.1" class="st15" width="5" height="2.9"/>
	<rect x="778" y="865.1" class="st15" width="5" height="2.9"/>
	<rect x="753" y="868.1" class="st15" width="5" height="2.9"/>
	<rect x="708" y="852.1" class="st15" width="5" height="2.9"/>
	<rect x="686" y="867.1" class="st15" width="5" height="2.9"/>
	<rect x="775" y="855.1" class="st15" width="5" height="2.9"/>
	<rect x="798" y="830.1" class="st15" width="5" height="2.9"/>
	<rect x="820" y="785.1" class="st15" width="5" height="2.9"/>
	<rect x="796" y="781.1" class="st14" width="5" height="2.9"/>
	<polygon class="st15" points="794,838 665.9,838 660,819 794,819 	"/>
	<polygon class="st15" points="660,819 654,838 654,907.2 669.3,907.2 669.3,833 	"/>
	<rect x="742" y="830.1" class="st14" width="5" height="2.9"/>
	<rect x="745" y="827.1" class="st14" width="5" height="2.9"/>
	<rect x="683" y="831.1" class="st14" width="5" height="2.9"/>
	<rect x="829" y="844" class="st14" width="47" height="62"/>
	<rect x="829" y="844" class="st15" width="13" height="62"/>
	<polygon class="st14" points="852,825 827.8,844 876.2,844 	"/>
	<polygon class="st15" points="852,825 827.8,844 842,844 	"/>
	<polygon class="st14" points="845,834 839,838 839,823 845,823 	"/>
	<polygon class="st15" points="842,836 839,838 839,823 842,823 	"/>
	<circle class="st13" cx="856.5" cy="836.5" r="2.5"/>
	<rect x="847" y="853" class="st13" width="6.8" height="12"/>
	<rect x="831" y="853" class="st13" width="3" height="12"/>
	<line class="st30" x1="841" y1="844" x2="875" y2="844"/>
	<line class="st31" x1="850.5" y1="853" x2="850.5" y2="865"/>
	<line class="st31" x1="847" y1="857" x2="854" y2="857"/>
	<rect x="863" y="853" class="st13" width="6.8" height="12"/>
	<line class="st31" x1="866.5" y1="853" x2="866.5" y2="865"/>
	<line class="st31" x1="863" y1="857" x2="870" y2="857"/>
	<circle class="st13" cx="858.5" cy="874.5" r="4"/>
	<rect x="847" y="890" class="st15" width="23" height="16"/>
	<line class="st32" x1="858.5" y1="890.5" x2="858.5" y2="905.5"/>
	<circle class="st14" cx="868" cy="900.1" r="0.6"/>
	<circle class="st14" cx="849.2" cy="900.1" r="0.6"/>
	<g>
		<rect x="621.4" y="868" class="st14" width="38.9" height="38"/>
		<rect x="621.4" y="868" class="st15" width="10.8" height="38"/>
		<polygon class="st14" points="640.4,856.4 620.4,868 660.5,868 		"/>
		<polygon class="st15" points="640.4,856.4 620.4,868 632.2,868 		"/>
		<polygon class="st14" points="634.6,861.9 629.7,864.3 629.7,855.1 634.6,855.1 		"/>
		<polygon class="st15" points="632.2,863.1 629.7,864.3 629.7,855.1 632.2,855.1 		"/>
		<ellipse class="st13" cx="644.2" cy="863.4" rx="2.1" ry="1.5"/>
		<rect x="636.3" y="873.5" class="st13" width="5.6" height="7.4"/>
		<rect x="623.1" y="873.5" class="st13" width="2.5" height="7.4"/>
		<line class="st33" x1="631.3" y1="868" x2="659.5" y2="868"/>
		<line class="st34" x1="639.2" y1="873.5" x2="639.2" y2="880.9"/>
		<line class="st34" x1="636.3" y1="876" x2="642.1" y2="876"/>
		<rect x="649.5" y="873.5" class="st13" width="5.6" height="7.4"/>
		<line class="st34" x1="652.4" y1="873.5" x2="652.4" y2="880.9"/>
		<line class="st34" x1="649.5" y1="876" x2="655.3" y2="876"/>
		<ellipse class="st13" cx="645.8" cy="886.7" rx="3.3" ry="2.5"/>
		<rect x="636.3" y="896.2" class="st15" width="19" height="9.8"/>
		<line class="st35" x1="645.8" y1="896.5" x2="645.8" y2="905.7"/>
		<circle class="st14" cx="655.5" cy="902.4" r="0.4"/>
		<circle class="st14" cx="643.9" cy="902.4" r="0.4"/>
	</g>
	<g>
		<path class="st14" d="M937.7,768.1c-3.4,11.6-10.1,21.9-22.7,25.9c8-9.3,15-19.9,21.5-30.6l-8.8-33.5L892,866.2
			c9.6-5.2,20.3-7,31-6.2c-9.5,4.3-20.5,10.1-31.7,9l-0.8,3.1H965L937.7,768.1z M915,822c6.7-2.9,14.2-3.9,21-8.3
			c0.8-1.1,1.5-2.3,2-3.7c-0.6,1.4-1.3,2.6-2,3.7c0.3-0.2,0.7-0.5,1-0.7c-0.3,0.2-0.7,0.5-1,0.7C931.2,820.3,922.7,821.1,915,822z
			 M923,865c4.6-3.8,9.8-8.3,14.2-12.8c0.7-2,1.3-4.1,1.8-6.2c-0.5,2.1-1,4.2-1.8,6.2c1.3-1.4,2.6-2.8,3.8-4.2
			c-1.2,1.4-2.4,2.8-3.8,4.2C934.8,858.7,930.7,864.2,923,865z"/>
		<path class="st15" d="M923,865c2.9-2.4,6-5,9-7.8l-1.4-38.9c-4.6,2.5-10.3,3.1-15.6,3.7c4.9-2.1,10.3-3.2,15.6-5.5l-1.1-32.2
			c-3.6,4.3-8.3,7.7-14.4,9.6c5-5.9,9.7-12.3,14.1-18.9l-1.6-44.6L892,866.2c9.6-5.2,20.3-7,31-6.2c-9.5,4.3-20.5,10.1-31.7,9
			l-0.8,3.1h42l-0.4-11.4C929.8,863,926.8,864.6,923,865z"/>
		<rect x="924.5" y="872.2" class="st15" width="8" height="32.6"/>
	</g>
	<g>
		<path class="st14" d="M1087,824.4c-7.2,5.5-17.5,7.6-26,7.6c8.8-3.2,17.6-6.4,24.8-12.1l-1.9-7.4c-6.9,5-16.4,7-24.9,4.6
			c9,0,16.8-3.3,24.1-7.5l-10.3-39.4c-8.6,9.3-22.6,13.1-34.8,7c12.1,0.8,23.7-3.1,34.3-8.9l-2-7.6c-3,1.9-6.4,3-10.3,2.6
			c3.3-1,6.7-2.4,9.9-4l-11.2-42.6c-1.8,0.4-3.7,0.3-5.7-0.3c1.7-0.6,3.4-1,5.2-1.6l-8.4-32.1l-6,23c2,2.1,3.8,4.2,5.2,6.7
			c-2.3,0-4.5-0.4-6.6-1.2l-5.8,22.2c4.5,0.5,8.7-2,13.5-2c-2,6-6,10-11,14c-2.2,1.3-4.2,1.7-5.9,1.3l-10.6,40.6
			c13.9,10.8,33.5,13.9,50.6,12.1c-15,12-36,7-50-4c-0.9-0.9-1.5-1.9-1.9-3l-9.2,35c12.5,2.1,25.7,2.2,38,3.1c-2,10-13,17-23,15
			c-6.3-1.3-13.4-3.7-17.6-8.4l-7.8,29.7h96.4L1087,824.4z"/>
		<path class="st15" d="M1053,779.9c-5,0.4-10.1-0.4-15-2.9c5,0.3,10-0.2,14.8-1.3l-3.2-92.6l-5.8,22.1c2,2.1,3.8,4.2,5.2,6.7
			c-2.3,0-4.5-0.4-6.6-1.2l-6.1,23.1c3.5,0.3,6.9,0.1,10.7-0.9c-2.7,3.2-7.4,5-11.7,4.7l-12.9,49.2c8.8,6.9,19.9,10.6,31.2,12
			L1053,779.9z"/>
		<path class="st15" d="M1056,866.3l-2.1-60.4c-10.9,0.4-22.2-4.1-30.9-10.9c-0.9-0.9-1.5-1.9-1.9-3l-9.2,35
			c12.5,2.1,25.7,2.2,38,3.1c-2,10-13,17-23,15c-6.3-1.3-13.4-3.7-17.6-8.4l-7.8,29.7H1056z"/>
		<rect x="1045.6" y="866.3" class="st15" width="10.3" height="42.2"/>
	</g>
	<g>
		<path class="st14" d="M1125.4,781.5l-9.1-34.6l-9.2,35c3-1.6,5.6-2.9,8.8-2.9c-2.3,1.5-6.2,5.3-9.3,4.9l-1.4,5.3
			C1112.4,787.4,1119,784.7,1125.4,781.5z"/>
		<path class="st14" d="M1150.4,876.8l-1.7-6.6c-3.9,3-8.7,5-13.6,6.6H1150.4z"/>
		<path class="st14" d="M1138.3,830.6c-9,6-19.9,9.1-30.3,8.4c10.1-2.9,20.2-5.8,30-9.4l-2.1-7.9c-10.5,3.5-23.4,2.3-33.9-0.6
			c11.4,0.6,22.1-1.6,32.4-5l-8.3-31.7c-6.7,4.3-13.9,7.3-21.3,6.7l-16.7,63.7c5.3-0.8,10.1-2.7,14.9-2.7c-5,2.1-10,3.3-15,3.3
			l-5.6,21.5h47.4c6.2-3.1,12.3-6.6,17.9-10.7L1138.3,830.6z"/>
		<path class="st15" d="M1117.5,785.1l-1.3-37.6l-9,34.4c3-1.6,5.6-2.9,8.8-2.9c-2.3,1.5-6.2,5.3-9.3,4.9l-1.4,5.3
			C1109.5,788.1,1113.6,786.7,1117.5,785.1z"/>
		<path class="st15" d="M1120.7,876.8l-1.3-38.5c-3.8,0.7-7.6,1-11.4,0.7c3.8-1.1,7.5-2.2,11.3-3.3l-0.4-12
			c-5.8-0.2-11.6-1.3-16.9-2.7c5.8,0.3,11.3-0.1,16.7-1l-1.1-31.2c-4.2,1.7-8.4,2.6-12.8,2.2l-16.7,63.7c5.3-0.8,10.1-2.7,14.9-2.7
			c-5,2.1-10,3.3-15,3.3l-5.6,21.5H1120.7z"/>
		<rect x="1113.4" y="876.8" class="st15" width="7.3" height="29.8"/>
	</g>
	<g>
		<path class="st14" d="M1181.2,819.8l-2.1,8c1.5,0.6,3,1.1,4.6,1.6L1181.2,819.8z"/>
		<path class="st14" d="M1192.5,863c-4.6,5.2-12.6,8-18.5,6c7.1-0.8,13-3.5,18.1-7.5l-2.4-9.1c-1.6,2-4,3.2-7.7,2.6
			c2.9-0.7,5.3-2,7.5-3.4l-5.2-19.8c-2.1-0.1-4.1-0.5-6-1.1l-11.1,42.2c2.8,0,5.6-0.6,8.7,0.1c-2.6,1.1-6.4,2.4-9.3,2.2l-2.3,8.7
			c8.9-1.9,17.3-4.6,25.6-7.9c-7.1,6.3-16.8,9.5-25.9,9.1l-1.4,5.3h37L1192.5,863z"/>
		<path class="st15" d="M1167.3,872.9c2.8,0,5.6-0.6,8.7,0.1c-2.6,1.1-6.4,2.4-9.3,2.2l-2.3,8.7c6.5-1.4,12.7-3.2,18.7-5.3l-0.3-9.6
			c-3,0.8-6.1,0.9-8.8,0c3.1-0.3,6-1.1,8.7-2.1l-0.4-11.9c-0.1,0-0.2,0-0.3,0c0.1,0,0.2-0.1,0.3-0.1l-0.8-23.4
			c-1.1-0.2-2.2-0.5-3.2-0.8L1167.3,872.9z"/>
		<path class="st15" d="M1181.1,820.1l-2,7.7c0.8,0.3,1.5,0.6,2.3,0.8L1181.1,820.1z"/>
		<path class="st15" d="M1164.1,885.1l-1.4,5.3h20.8l-0.3-9.7C1177.3,883.9,1170.6,885.4,1164.1,885.1z"/>
		<path class="st15" d="M1182.3,854.9c-0.1,0-0.2,0.1-0.3,0.1c0.1,0,0.2,0,0.3,0L1182.3,854.9z"/>
		<rect x="1179.6" y="890.4" class="st15" width="4" height="16.2"/>
	</g>
	<line class="st14" x1="1131.7" y1="811.8" x2="1122.3" y2="820.1"/>
	<polygon class="st14" points="1058.4,736.8 1069.4,727.5 1063.9,736.8 	"/>
	<polygon class="st14" points="1113.4,774.8 1124.4,765.4 1118.9,774.8 	"/>
	<polygon class="st14" points="994.4,726.2 1008.8,725.4 998.8,729.5 	"/>
	<polygon class="st14" points="890.5,760.8 904.9,760.1 894.8,764.1 	"/>
	<polygon class="st15" points="849.3,728.5 863.7,727.8 853.7,731.9 	"/>
	<polygon class="st14" points="1088.7,789.4 1083.6,775.9 1090.6,784.2 	"/>
	<polygon class="st15" points="1160.9,845.7 1155.7,832.3 1162.7,840.6 	"/>
	<polygon class="st15" points="1148.5,791.6 1162.7,785.1 1143,798.1 	"/>
	<polygon class="st15" points="1065,865 1079.2,858.5 1059.5,871.5 	"/>
	<polygon class="st15" points="948.5,830.5 962.7,824 943,837 	"/>
</g>
<g id="train" transform="translate(0 618)">
            <path d="M105.2 31.1H29.4c-1.2 0-2.3-1-2.3-2.3V3.6c0-1.2 1-2.3 2.3-2.3h75.8c1.2 0 2.3 1 2.3 2.3v25.2c-.1 1.3-1.1 2.3-2.3 2.3z" fill="#EF656C" fill-rule="nonzero"/>
            <path fill="#A5154F" fill-rule="nonzero" d="M27.2 11.1h80.3v4.8H27.2z"/>
            <path d="M107.4 9.4H27.2" stroke="#FFEAB6" stroke-width=".803"/>
            <path d="M43.6 19.1H38c-2.4 0-4.4-2-4.4-4.4v-1.6c0-2.4 2-4.4 4.4-4.4h5.6c2.4 0 4.4 2 4.4 4.4v1.6c0 2.4-1.9 4.4-4.4 4.4z" stroke="#A5154F" stroke-width=".803" fill="#FFEAB6" fill-rule="nonzero"/>
            <path d="M44 8.6c2.2 0 4 1.8 4 4V15c0 2.2-1.8 4-4 4h-6.4c-2.2 0-4-1.8-4-4" fill="#2DDCE0" fill-rule="nonzero"/>
            <path d="M76.5 19.1H62.1c-2.4 0-4.4-2-4.4-4.4v-1.6c0-2.4 2-4.4 4.4-4.4h14.4c2.4 0 4.4 2 4.4 4.4v1.6c.1 2.4-1.9 4.4-4.4 4.4z" stroke="#A5154F" stroke-width=".803" fill="#FFEAB6" fill-rule="nonzero"/>
            <path d="M76.9 8.6c2.2 0 4 1.8 4 4V15c0 2.2-1.8 4-4 4H61.7" fill="#2DDCE0" fill-rule="nonzero"/>
            <path d="M95.1.2H39.5c-.4 0-.7.3-.7.7v.2c0 .4.3.7.7.7h55.6c.4 0 .7-.3.7-.7V.9c0-.4-.3-.7-.7-.7z" fill="#A5154F" fill-rule="nonzero"/>
            <path d="M93.6 29.5h-.9c-1.4 0-2.6-1.1-2.6-2.6v-7.2c0-1.4 1.1-2.6 2.6-2.6h.9c1.4 0 2.6 1.1 2.6 2.6v7.2c0 1.5-1.1 2.6-2.6 2.6z" stroke="#FFEAB6" stroke-width=".641"/>
            <circle fill="#FFEAB6" fill-rule="nonzero" cx="94.2" cy="22.7" r="1"/>
            <path d="M187.1 31.1h-75.8c-1.2 0-2.3-1-2.3-2.3V3.6c0-1.2 1-2.3 2.3-2.3h75.8c1.2 0 2.3 1 2.3 2.3v25.2c-.1 1.3-1.1 2.3-2.3 2.3z" fill="#EF656C" fill-rule="nonzero"/>
            <path fill="#A5154F" fill-rule="nonzero" d="M109 11.1h80.3v4.8H109z"/>
            <path d="M189.3 9.4H109" stroke="#FFEAB6" stroke-width=".803"/>
            <path d="M125.5 19.1h-5.6c-2.4 0-4.4-2-4.4-4.4v-1.6c0-2.4 2-4.4 4.4-4.4h5.6c2.4 0 4.4 2 4.4 4.4v1.6c0 2.4-2 4.4-4.4 4.4z" stroke="#A5154F" stroke-width=".803" fill="#FFEAB6" fill-rule="nonzero"/>
            <path d="M125.9 8.6c2.2 0 4 1.8 4 4V15c0 2.2-1.8 4-4 4h-6.4c-2.2 0-4-1.8-4-4" fill="#2DDCE0" fill-rule="nonzero"/>
            <path d="M158.4 19.1H144c-2.4 0-4.4-2-4.4-4.4v-1.6c0-2.4 2-4.4 4.4-4.4h14.4c2.4 0 4.4 2 4.4 4.4v1.6c0 2.4-2 4.4-4.4 4.4z" stroke="#A5154F" stroke-width=".803" fill="#FFEAB6" fill-rule="nonzero"/>
            <path d="M158.8 8.6c2.2 0 4 1.8 4 4V15c0 2.2-1.8 4-4 4h-15.2" fill="#2DDCE0" fill-rule="nonzero"/>
            <path d="M177 .2h-55.6c-.4 0-.7.3-.7.7v.2c0 .4.3.7.7.7H177c.4 0 .7-.3.7-.7V.9c0-.4-.3-.7-.7-.7z" fill="#A5154F" fill-rule="nonzero"/>
            <g transform="translate(190)">
                <path d="M78.9 31.1H3.1c-1.2 0-2.3-1-2.3-2.3V3.6c0-1.2 1-2.3 2.3-2.3h75.8c1.2 0 2.3 1 2.3 2.3v25.2c0 1.3-1 2.3-2.3 2.3z" fill="#EF656C" fill-rule="nonzero"/>
                <path fill="#A5154F" fill-rule="nonzero" d="M.9 11.1h80.3v4.8H.9z"/>
                <path d="M81.2 9.4H.9" stroke="#FFEAB6" stroke-width=".803"/>
                <path d="M17.3 19.1h-5.6c-2.4 0-4.4-2-4.4-4.4v-1.6c0-2.4 2-4.4 4.4-4.4h5.6c2.4 0 4.4 2 4.4 4.4v1.6c.1 2.4-1.9 4.4-4.4 4.4z" stroke="#A5154F" stroke-width=".803" fill="#FFEAB6" fill-rule="nonzero"/>
                <path d="M17.8 8.6c2.2 0 4 1.8 4 4V15c0 2.2-1.8 4-4 4h-6.4c-2.2 0-4-1.8-4-4" fill="#2DDCE0" fill-rule="nonzero"/>
                <path d="M50.3 19.1H35.9c-2.4 0-4.4-2-4.4-4.4v-1.6c0-2.4 2-4.4 4.4-4.4h14.4c2.4 0 4.4 2 4.4 4.4v1.6c0 2.4-2 4.4-4.4 4.4z" stroke="#A5154F" stroke-width=".803" fill="#FFEAB6" fill-rule="nonzero"/>
                <path d="M50.7 8.6c2.2 0 4 1.8 4 4V15c0 2.2-1.8 4-4 4H35.5" fill="#2DDCE0" fill-rule="nonzero"/>
                <path d="M68.8.2H13.2c-.4 0-.7.3-.7.7v.2c0 .4.3.7.7.7h55.6c.4 0 .7-.3.7-.7V.9c0-.4-.3-.7-.7-.7z" fill="#A5154F" fill-rule="nonzero"/>
                <path d="M67.4 29.5h-.9c-1.4 0-2.6-1.1-2.6-2.6v-7.2c0-1.4 1.1-2.6 2.6-2.6h.9c1.4 0 2.6 1.1 2.6 2.6v7.2c-.1 1.5-1.2 2.6-2.6 2.6z" stroke="#FFEAB6" stroke-width=".641"/>
                <circle fill="#FFEAB6" fill-rule="nonzero" cx="67.9" cy="22.7" r="1"/>
            </g>
            <g>
                <path d="M350.8 31.1H275c-1.2 0-2.3-1-2.3-2.3V3.6c0-1.2 1-2.3 2.3-2.3h75.8c1.2 0 2.3 1 2.3 2.3v25.2c-.1 1.3-1.1 2.3-2.3 2.3z" fill="#EF656C" fill-rule="nonzero"/>
                <path fill="#A5154F" fill-rule="nonzero" d="M272.8 11.1h80.3v4.8h-80.3z"/>
                <path d="M353 9.4h-80.2" stroke="#FFEAB6" stroke-width=".803"/>
                <path d="M289.2 19.1h-5.6c-2.4 0-4.4-2-4.4-4.4v-1.6c0-2.4 2-4.4 4.4-4.4h5.6c2.4 0 4.4 2 4.4 4.4v1.6c0 2.4-2 4.4-4.4 4.4z" stroke="#A5154F" stroke-width=".803" fill="#FFEAB6" fill-rule="nonzero"/>
                <path d="M289.6 8.6c2.2 0 4 1.8 4 4V15c0 2.2-1.8 4-4 4h-6.4c-2.2 0-4-1.8-4-4" fill="#2DDCE0" fill-rule="nonzero"/>
                <path d="M322.1 19.1h-14.4c-2.4 0-4.4-2-4.4-4.4v-1.6c0-2.4 2-4.4 4.4-4.4h14.4c2.4 0 4.4 2 4.4 4.4v1.6c0 2.4-1.9 4.4-4.4 4.4z" stroke="#A5154F" stroke-width=".803" fill="#FFEAB6" fill-rule="nonzero"/>
                <path d="M322.5 8.6c2.2 0 4 1.8 4 4V15c0 2.2-1.8 4-4 4h-15.2" fill="#2DDCE0" fill-rule="nonzero"/>
                <path d="M340.7.2h-55.6c-.4 0-.7.3-.7.7v.2c0 .4.3.7.7.7h55.6c.4 0 .7-.3.7-.7V.9c0-.4-.3-.7-.7-.7z" fill="#A5154F" fill-rule="nonzero"/>
            </g>
            <g>
                <path d="M432.7 31.1h-75.8c-1.2 0-2.3-1-2.3-2.3V3.6c0-1.2 1-2.3 2.3-2.3h75.8c1.2 0 2.3 1 2.3 2.3v25.2c-.1 1.3-1.1 2.3-2.3 2.3z" fill="#EF656C" fill-rule="nonzero"/>
                <path fill="#A5154F" fill-rule="nonzero" d="M354.6 11.1h80.3v4.8h-80.3z"/>
                <path d="M434.9 9.4h-80.3" stroke="#FFEAB6" stroke-width=".803"/>
                <path d="M371.1 19.1h-5.6c-2.4 0-4.4-2-4.4-4.4v-1.6c0-2.4 2-4.4 4.4-4.4h5.6c2.4 0 4.4 2 4.4 4.4v1.6c0 2.4-2 4.4-4.4 4.4z" stroke="#A5154F" stroke-width=".803" fill="#FFEAB6" fill-rule="nonzero"/>
                <path d="M371.5 8.6c2.2 0 4 1.8 4 4V15c0 2.2-1.8 4-4 4h-6.4c-2.2 0-4-1.8-4-4" fill="#2DDCE0" fill-rule="nonzero"/>
                <path d="M404 19.1h-14.4c-2.4 0-4.4-2-4.4-4.4v-1.6c0-2.4 2-4.4 4.4-4.4H404c2.4 0 4.4 2 4.4 4.4v1.6c0 2.4-2 4.4-4.4 4.4z" stroke="#A5154F" stroke-width=".803" fill="#FFEAB6" fill-rule="nonzero"/>
                <path d="M404.4 8.6c2.2 0 4 1.8 4 4V15c0 2.2-1.8 4-4 4h-15.2" fill="#2DDCE0" fill-rule="nonzero"/>
                <path d="M422.6.2H367c-.4 0-.7.3-.7.7v.2c0 .4.3.7.7.7h55.6c.4 0 .7-.3.7-.7V.9c0-.4-.3-.7-.7-.7z" fill="#A5154F" fill-rule="nonzero"/>
            </g>
            <g fill-rule="nonzero">
                <path d="M433.7 1.4c.2 0 .5.1.6.2 2.9 1.7 25.4 15.8 25.4 26.3 0 4-28.4 3.2-28.4 3.2V1.4h2.4z" fill="#EF656C"/>
                <path d="M455.7 18.9s3.3 4 3.8 6.8h-28.1v-6.8h24.3z" fill="#A5154F"/>
                <path d="M444.2 8.6h-6.7c-.3 0-.6.3-.6.6v7.5c0 .4.3.7.7.7h16.8s-3-3.2-5.4-5.3c-2.4-2-4.3-3.5-4.3-3.5h-.5z" fill="#FFEAB6"/>
                <path d="M444.6 8.6l-7.4 8.4c-.1.1-.4.1-.4-.1V9.2c0-.3.2-.6.6-.6h7.2z" fill="#2DDCE0"/>
                <path d="M456.9 20.5s1 1.4 1.6 2.8h-2.9c-.3 0-.6-.3-.6-.6V21c0-.3.2-.5.5-.5h1.4z" fill="#FFEAB6"/>
            </g>
            <g fill-rule="nonzero">
                <path d="M26.3 1.4c-.2 0-.5.1-.6.2C22.8 3.3.3 17.4.3 27.9c0 4 28.4 3.2 28.4 3.2V1.4h-2.4z" fill="#EF656C"/>
                <path d="M4.4 18.9s-3.3 4-3.8 6.8h28.1v-6.8H4.4z" fill="#A5154F"/>
                <path d="M15.8 8.6h6.7c.3 0 .6.3.6.6v7.5c0 .4-.3.7-.7.7H5.6s3-3.2 5.4-5.3c2.4-2 4.3-3.5 4.3-3.5h.5z" fill="#FFEAB6"/>
                <path d="M15.4 8.6l7.4 8.4c.1.1.4.1.4-.1V9.2c0-.3-.2-.6-.6-.6h-7.2z" fill="#2DDCE0"/>
                <path d="M3.2 20.5s-1 1.4-1.6 2.8h2.9c.3 0 .6-.3.6-.6V21c0-.3-.2-.5-.5-.5H3.2z" fill="#FFEAB6"/>
            </g>
        </g>
        <animateTransform
             xlink:href="#train"
             attributeName="transform"
             type="translate"
             dur="30"
             values="-460 875 ; -460 875 ; 230 875; 330 875 ; 420 875; 420 875 ; 510 875 ; 710 875 ;1920 875;
             1920 875; 910 875 ; 710 875 ; 620 875; 620 875; 510 875; 220 875; -460 875"
             keyTimes="0;0.05;0.15;0.2;0.3;0.35;0.4;0.45;0.55;0.65;0.75;0.80;0.85;0.90;0.95;0.98;1"
             repeatCount="indefinite"
             id="train-animation"></animateTransform>
</svg>
