<?xml version="1.0" encoding="utf-8"?>
<!-- Generator: Adobe Illustrator 22.0.0, SVG Export Plug-In . SVG Version: 6.00 Build 0)  -->
<svg version="1.1" xmlns="http://www.w3.org/2000/svg" xmlns:xlink="http://www.w3.org/1999/xlink" x="0px" y="0px"
	 viewBox="0 0 1920 800" style="enable-background:new 0 0 1920 800;" xml:space="preserve">
<style type="text/css">
	.st0{display:none;}
	.st1{display:inline;fill:#241D37;}
	.st2{display:inline;}
	.st3{fill:#161323;}

		.st4{display:none;fill:none;stroke:#FFFFFF;stroke-width:0.4681;stroke-linecap:round;stroke-linejoin:round;stroke-miterlimit:10;}
	.st5{display:inline;fill:#FFEAB6;}
	.st6{font-family:'WorkSans-Regular';}
	.st7{font-size:10px;}
	.st8{clip-path:url(#SVGID_2_);}
	.st9{fill:#2DDCE0;}
	.st10{display:none;clip-path:url(#SVGID_2_);fill:#2DDCE0;}
	.st11{display:none;opacity:0.36;fill:url(#SVGID_3_);}
	.st12{fill:none;stroke:#FFEAB6;stroke-width:0.4862;stroke-linecap:round;stroke-miterlimit:10;}
	.st13{fill:#FFEAB6;}
	.st14{fill:#EF656C;}
	.st15{fill:#A5154F;}
	.st16{fill:none;stroke:#EF656C;stroke-width:1.2464;stroke-miterlimit:10;}
	.st17{fill:none;stroke:#FFEAB6;stroke-width:1.2464;stroke-miterlimit:10;}
	.st18{fill:none;stroke:#EF656C;stroke-width:0.9724;stroke-miterlimit:10;}
	.st19{fill:none;stroke:#FFEAB6;stroke-width:0.9724;stroke-miterlimit:10;}
	.st20{fill:#3D224C;}
	.st21{fill:#251330;}
	.st22{display:inline;fill:#2DDCE0;}
	.st23{font-family:'Overpass-SemiBold';}
	.st24{font-size:87.7081px;}
	.st25{letter-spacing:28;}
	.st26{font-size:17.5416px;}
	.st27{fill:none;}
	.st28{display:none;fill:#FFEAB6;}
	.st29{fill:none;stroke:#A5154F;stroke-width:0.75;stroke-miterlimit:10;}
	.st30{fill:none;stroke:#A5154F;stroke-linecap:round;stroke-miterlimit:10;}
	.st31{fill:none;stroke:#A5154F;stroke-width:0.5;stroke-miterlimit:10;}
	.st32{fill:none;stroke:#EF656C;stroke-miterlimit:10;}
	.st33{fill:none;stroke:#A5154F;stroke-width:0.7121;stroke-linecap:round;stroke-miterlimit:10;}
	.st34{fill:none;stroke:#A5154F;stroke-width:0.3561;stroke-miterlimit:10;}
	.st35{fill:none;stroke:#EF656C;stroke-width:0.7121;stroke-miterlimit:10;}
	.st36{fill:none;stroke:#FFEAB6;stroke-width:0.8026;stroke-miterlimit:10;}
	.st37{fill:#FFEAB6;stroke:#A5154F;stroke-width:0.8026;stroke-miterlimit:10;}
	.st38{fill:none;stroke:#FFEAB6;stroke-width:0.6408;stroke-miterlimit:10;}
</style>
<g id="Calque_1">
	<g class="st0">
		<rect x="320.5" y="0.5" class="st1" width="1280" height="787"/>
		<g class="st2">
			<path class="st3" d="M1600,1v786H321V1H1600 M1601,0H320v788h1281V0L1601,0z"/>
		</g>
	</g>
	<circle class="st4" cx="755" cy="232" r="44"/>
	<g class="st0">
		<text transform="matrix(1 0 0 1 1493.4795 59.2871)" class="st5 st6 st7">ABOUT</text>
	</g>
	<g>
		<defs>
			<rect id="SVGID_1_" x="-1" y="-89" width="1920" height="995.7"/>
		</defs>
		<clipPath id="SVGID_2_">
			<use xlink:href="#SVGID_1_"  style="overflow:visible;"/>
		</clipPath>
		<g class="st8">
			<path class="st9" d="M543.2,641.8l2.7-22.5C545.9,619.3,533.2,632.1,543.2,641.8z"/>
			<path class="st9" d="M1104,671c-1.5,0.4-3,0.9-4.5,1.3c0.9-0.1,1.9-0.2,2.8-0.3C1102.9,671.7,1103.4,671.4,1104,671z"/>
			<path class="st9" d="M1102.3,672c-0.9,0-1.9,0.1-2.8,0.3c-4.1,1.2-8,2.2-12.2,2.5c2.7,0.3,5.4,0.2,8-0.3c1.2-0.3,2.5-0.6,3.7-1
				C1100.1,673.1,1101.2,672.6,1102.3,672z"/>
			<path class="st9" d="M1095.3,674.5c1.3-0.2,2.5-0.6,3.7-1C1097.8,673.9,1096.5,674.2,1095.3,674.5z"/>
			<path class="st9" d="M1190.8,670.8c-2.6,1.7-5.3,3.3-8.8,4.2C1186.7,675.7,1189.1,673.7,1190.8,670.8z"/>
			<path class="st9" d="M1176,693c-4.9-1-8.9,0.9-13.7-0.9C1163.8,697.4,1171.5,694.8,1176,693z"/>
			<path class="st9" d="M1181.5,699.1c-6.8,2.3-13.7,4.2-21.1,5.6c1.3,0.2,2.6,0.3,3.9,0.4c4.9-1.2,9.6-2.9,14.3-4.6
				C1179.6,700,1180.6,699.6,1181.5,699.1z"/>
			<path class="st9" d="M893.7,684.9c0.3,0,0.6,0,0.9,0c0.7-0.3,1.3-0.6,2-0.9C895.6,684.3,894.6,684.6,893.7,684.9z"/>
			<path class="st9" d="M922.9,680.1c-1.9,0.9-3.9,1.8-5.9,2.7c3.4-0.7,6.7-1.6,10.1-2.8C925.6,680,924.2,680,922.9,680.1z"/>
			<path class="st9" d="M896.6,684c-0.7,0.3-1.3,0.6-2,0.9c7.6-0.1,15-0.6,22.3-2.1c2-0.9,4-1.9,5.9-2.7
				C914,680.3,905.1,681.5,896.6,684z"/>
			<path class="st9" d="M893.7,684.9c-2.6,0.9-5.2,1.9-7.7,3.1c0.7,0.2,1.4,0.4,2.1,0.5c2.1-1.4,4.3-2.6,6.5-3.6
				C894.3,684.9,894,684.9,893.7,684.9z"/>
			<path class="st9" d="M923,680c-9-0.7-18.1,0.5-26.4,4c8.6-2.5,17.4-3.7,26.3-4C922.9,680,923,680,923,680z"/>
			<path class="st9" d="M937.3,672.1C937.3,672.1,937.3,672.1,937.3,672.1C937.2,672.1,937.2,672.2,937.3,672.1
				C937.3,672.1,937.3,672.1,937.3,672.1z"/>
			<path class="st9" d="M925.6,682.9c4.9-0.9,8.7-4.9,11.1-9.2c0.2-0.5,0.4-1,0.6-1.5C933.6,675.9,929.5,679.6,925.6,682.9z"/>
			<path class="st9" d="M937.2,672.2C937.2,672.2,937.2,672.1,937.2,672.2c-4.6,4-8.5,9.2-15.2,10.8c1.2,0.1,2.4,0.1,3.6-0.1
				C929.5,679.6,933.6,675.9,937.2,672.2z"/>
			<path class="st9" d="M937.3,672.1C937.3,672.1,937.3,672.1,937.3,672.1c-0.3,0.6-0.4,1.1-0.7,1.5c0.3-0.6,0.6-1.2,0.9-1.8
				C937.5,671.9,937.4,672,937.3,672.1z"/>
			<path class="st9" d="M1960.8,362.6c0,0-222,0-310.2,0c-68.8,0-49.6,29.4-19.1,29.4c30.2,0,285.2-1.2,315.4-1.2
				c30.2,0,7.6,53.5-55.4,72.9s-264.6,3.9-388.1,30.1c-123.5,26.3-140,163.4-279.9,163.4c-25.2,0-59.1-0.2-98.3-0.4
				c-5.6,1.8-11.5,2.6-17.3,2.2c2.6-0.8,5.3-1.5,7.9-2.3c-21.6-0.1-44.6-0.3-68.5-0.5c-12.6-0.1-25.5-0.2-38.5-0.3
				c-167.1-1.4-362-3.5-415-3.5c-30.3,0-44.6-4.7-50.7-10.5l-12.4,103.9l1447.6,3.9c0,0,7.6-179.9,13.9-184.8
				C1998.6,560,1960.8,362.6,1960.8,362.6z M888.1,688.5c-0.7,0.5-1.4,0.9-2.1,1.5C886.7,689.5,887.4,689,888.1,688.5
				c-0.7-0.2-1.4-0.3-2.1-0.5c2.5-1.2,5.1-2.2,7.7-3.1c-3.2,0.1-6.4,0.1-9.7,0.1h1h-1c3.3,0,6.5,0,9.7-0.1c1-0.3,1.9-0.6,2.9-0.9
				c8.4-3.5,17.4-4.7,26.4-4c0,0-0.1,0-0.1,0.1c1.4,0,2.8-0.1,4.1-0.1c-3.4,1.2-6.7,2.1-10.1,2.8C908,686.9,898.1,690.7,888.1,688.5
				z M940,670c-0.9,0.6-1.7,1.2-2.4,1.9c-0.3,0.6-0.6,1.2-0.9,1.8c-2.5,5.9-6.5,10.7-13.6,11.4c0.8-0.7,1.7-1.4,2.6-2.1
				c-1.1,0.2-2.3,0.3-3.6,0.1c6.7-1.7,10.6-6.9,15.2-10.9c0.7-2,1.3-4.1,1.8-6.1c-0.5,2.1-1,4.2-1.8,6.1c0,0,0,0,0.1-0.1
				c0.1-0.1,0.2-0.2,0.3-0.3c0.6-1.3,1.1-2.6,1.4-3.8c-0.3,1.2-0.8,2.5-1.4,3.8c1.2-1.3,2.4-2.5,3.4-3.8c-1.1,1.3-2.2,2.5-3.4,3.8
				c0,0,0,0.1,0,0.1C938.3,671.2,939.1,670.6,940,670z M1103,672c-1.3,0.6-2.7,1-4,1.5c-1.2,0.4-2.5,0.8-3.7,1
				c-4.4,1-8.9,1.1-13.3,0.5c4.4,0.6,8.9,0.5,13.3-0.5c-2.6,0.5-5.3,0.6-8,0.3c-0.6,0.1-1.3,0.1-2,0.1c-0.4,0-0.9,0-1.3,0
				c0.5,0,0.9,0,1.3,0c0.6,0,1.2-0.1,1.8-0.2c-1.4-0.2-2.8-0.4-4.1-0.8c1.3,0.4,2.7,0.6,4.1,0.8c4.4-0.5,8.4-1.9,12.4-2.5
				c1.5-0.4,3-0.9,4.5-1.3c-0.6,0.4-1.1,0.7-1.7,1C1102.5,672,1102.8,672,1103,672z M1190.8,670.8c0.9-1.5,1.5-3.1,2.2-4.8
				C1192.3,667.7,1191.7,669.3,1190.8,670.8c0.4-0.3,0.8-0.5,1.2-0.8C1191.6,670.3,1191.2,670.5,1190.8,670.8
				c-1.7,2.9-4.1,4.9-8.8,4.2C1185.5,674.1,1188.2,672.5,1190.8,670.8z M1162,690c0,0.8,0.1,1.5,0.3,2.1c4.9,1.8,8.8-0.1,13.7,0.9
				c-4.5,1.8-12.2,4.4-13.7-0.9c-0.1,0-0.2-0.1-0.3-0.1c0.1,0,0.2,0.1,0.3,0.1C1162.1,691.5,1162,690.8,1162,690z M1123,700
				c11-5,22-11,31-19C1145,689,1134,695,1123,700c13-3,29-7,34-21C1152,693,1136,697,1123,700z M1176.4,705c-5.5,2.5-11.3,3.7-17,2
				c-0.1,0-0.3,0.1-0.4,0.1c0.1,0,0.3-0.1,0.4-0.1c-0.8-0.2-1.6-0.6-2.4-0.9c0.8,0.4,1.6,0.7,2.4,0.9c1.2-0.2,2.4-0.5,3.6-0.7
				c-0.8-0.1-1.5-0.2-2.3-0.3c-0.2,0-0.5,0.1-0.7,0.1c0.2,0,0.5-0.1,0.7-0.1c-1.2-0.2-2.5-0.5-3.7-0.9c1.2,0.4,2.5,0.6,3.7,0.9
				c1.2-0.2,2.4-0.5,3.6-0.8c-1.3-0.1-2.6-0.2-3.9-0.4c-0.5,0.1-1,0.2-1.4,0.3c0.5-0.1,1-0.2,1.4-0.3c-1.2-0.2-2.3-0.4-3.4-0.7
				c1.1,0.3,2.3,0.5,3.4,0.7c7.4-1.4,14.3-3.3,21.1-5.6c4-1.8,8.1-3.7,12.5-5.1c-1,0.7-2,1.4-3,2.1c1.3-0.4,2.7-0.8,4-1.1
				C1189.4,699.6,1183.1,703.1,1176.4,705z"/>
			<path class="st9" d="M925.6,682.9c-0.9,0.7-1.7,1.4-2.6,2.1c7.1-0.7,11.2-5.5,13.6-11.4C934.2,678,930.5,681.9,925.6,682.9z"/>
			<path class="st9" d="M937.3,672.1c0.1-0.1,0.2-0.1,0.3-0.2c0,0,0-0.1,0-0.1C937.5,671.9,937.4,672,937.3,672.1z"/>
			<path class="st9" d="M888.1,688.5c10,2.2,19.9-1.7,28.8-5.7c-7.3,1.5-14.7,2-22.3,2.1C892.4,686,890.2,687.2,888.1,688.5z"/>
			<path class="st9" d="M1191,696.1c-4.4,3.1-9.3,6.5-14.6,8.8c6.6-1.9,13-5.4,18.6-10C1193.7,695.3,1192.3,695.7,1191,696.1z"/>
			<path class="st9" d="M1164.3,705.1c-1.2,0.3-2.4,0.6-3.6,0.8c0.8,0.1,1.5,0.2,2.3,0.3c1.3-0.3,2.6-0.7,3.9-1.1
				C1166,705.1,1165.2,705.1,1164.3,705.1z"/>
			<path class="st9" d="M1166.9,705.1c4.1-1.3,7.9-2.9,11.7-4.7c-4.7,1.8-9.5,3.5-14.3,4.6C1165.2,705.1,1166,705.1,1166.9,705.1z"
				/>
			<path class="st9" d="M1163,706.2c-1.2,0.3-2.3,0.5-3.6,0.7c5.7,1.7,11.5,0.5,17-2C1172,706.2,1167.5,706.7,1163,706.2z"/>
			<path class="st9" d="M1178.6,700.5c-3.8,1.7-7.7,3.4-11.7,4.7c7.9-0.3,16-3.2,22.2-8.4C1185.6,697.9,1182.1,699.2,1178.6,700.5z"
				/>
			<path class="st9" d="M1189.1,696.7c-6.3,5.2-14.3,8.1-22.2,8.4c-1.3,0.4-2.6,0.8-3.9,1.1c4.5,0.5,9,0,13.5-1.2
				c5.2-2.3,10.2-5.7,14.6-8.8C1190.4,696.3,1189.8,696.5,1189.1,696.7z"/>
			<path class="st9" d="M1194,694c-4.3,1.4-8.4,3.3-12.5,5.1c2.8-1,5.6-2,8.5-3.1c-0.3,0.2-0.6,0.5-0.9,0.7c0.6-0.2,1.2-0.4,1.9-0.6
				C1192,695.4,1193,694.7,1194,694z"/>
			<path class="st9" d="M1181.5,699.1c-1,0.4-1.9,0.9-2.9,1.3c3.5-1.3,7-2.6,10.5-3.7c0.3-0.2,0.6-0.5,0.9-0.7
				C1187.2,697.1,1184.4,698.2,1181.5,699.1z"/>
			<path class="st9" d="M1087.1,674.8c0.1,0,0.1,0,0.2,0c4.2-0.4,8.1-1.4,12.2-2.5C1095.5,672.9,1091.5,674.3,1087.1,674.8z"/>
			<path class="st9" d="M1103,672c-0.2,0-0.5,0-0.7,0c-1.1,0.6-2.2,1-3.3,1.5C1100.3,673,1101.7,672.6,1103,672z"/>
			<path class="st9" d="M1085.3,675c-0.4,0-0.9,0-1.3,0C1084.5,675,1084.9,675,1085.3,675z"/>
			<path class="st9" d="M1085.3,675c0.7,0,1.3-0.1,2-0.1c-0.1,0-0.1,0-0.2,0C1086.5,674.9,1085.9,674.9,1085.3,675z"/>
			<path class="st9" d="M1125.3,656.8c-3.1,0-6.2,0-9.4-0.1c-2.6,0.8-5.3,1.5-7.9,2.3C1113.7,659.4,1119.6,658.6,1125.3,656.8z"/>
		</g>
		<path class="st10" d="M55.4-69.3c0,0,567.9,0,663.2,0S850.8,4.6,635,4.6s-599,0-599,0S2.9,47.4,36,47.4s1110.5,0,1225.2,0
			s97.2,62.2-38.9,62.2s-527,0-613.6,0S473.5,209.8,985,209.8c483.3,0,292.7,228.5,37,228.5c-192.5,0-991.8,21.4-991.8,21.4
			L55.4-69.3z"/>
	</g>
	<linearGradient id="SVGID_3_" gradientUnits="userSpaceOnUse" x1="-77.9294" y1="844.8746" x2="1732.2198" y2="66.3971">
		<stop  offset="0" style="stop-color:#FFC255"/>
		<stop  offset="1" style="stop-color:#A5154F;stop-opacity:0.6"/>
	</linearGradient>
	<rect x="320" y="-3" class="st11" width="1280" height="803"/>
	<polygon class="st9" points="326.2,529.7 167.9,725.2 484.5,725.2 	"/>
	<polygon class="st9" points="442.3,603.6 347.8,720.3 536.8,720.3 	"/>
	<path class="st12" d="M431.8,616.6c0,0-0.6,4.5,4.3,5.5c4.9,1,10.7-3.9,13.6-2.9"/>
	<polygon class="st13" points="326.2,529.7 382,647 395.2,725.2 484.5,725.2 	"/>
	<polygon class="st13" points="441.9,603.6 468.5,673.3 481.9,652.5 	"/>
	<g>
		<rect x="1549.8" y="510.3" class="st14" width="120.9" height="225.6"/>
		<rect x="1549.8" y="510.3" class="st15" width="60.4" height="225.6"/>
		<rect x="1562.3" y="526.5" class="st13" width="8.7" height="8.7"/>
		<rect x="1589.7" y="526.5" class="st13" width="8.7" height="8.7"/>
		<rect x="1619.6" y="526.5" class="st13" width="8.7" height="8.7"/>
		<rect x="1647.1" y="526.5" class="st13" width="8.7" height="8.7"/>
		<rect x="1562.3" y="547.7" class="st13" width="8.7" height="8.7"/>
		<rect x="1589.7" y="547.7" class="st13" width="8.7" height="8.7"/>
		<rect x="1619.6" y="547.7" class="st13" width="8.7" height="8.7"/>
		<rect x="1647.1" y="547.7" class="st13" width="8.7" height="8.7"/>
		<rect x="1562.3" y="568.8" class="st13" width="8.7" height="8.7"/>
		<rect x="1589.7" y="568.8" class="st13" width="8.7" height="8.7"/>
		<rect x="1619.6" y="568.8" class="st13" width="8.7" height="8.7"/>
		<rect x="1647.1" y="568.8" class="st13" width="8.7" height="8.7"/>
		<rect x="1562.3" y="590" class="st13" width="8.7" height="8.7"/>
		<rect x="1589.7" y="590" class="st13" width="8.7" height="8.7"/>
		<rect x="1619.6" y="590" class="st13" width="8.7" height="8.7"/>
		<rect x="1647.1" y="590" class="st13" width="8.7" height="8.7"/>
		<rect x="1562.3" y="611.2" class="st13" width="8.7" height="8.7"/>
		<rect x="1589.7" y="611.2" class="st13" width="8.7" height="8.7"/>
		<rect x="1619.6" y="611.2" class="st13" width="8.7" height="8.7"/>
		<rect x="1647.1" y="611.2" class="st13" width="8.7" height="8.7"/>
		<rect x="1562.3" y="632.4" class="st13" width="8.7" height="8.7"/>
		<rect x="1589.7" y="632.4" class="st13" width="8.7" height="8.7"/>
		<rect x="1619.6" y="632.4" class="st13" width="8.7" height="8.7"/>
		<rect x="1647.1" y="632.4" class="st13" width="8.7" height="8.7"/>
		<rect x="1562.3" y="653.6" class="st13" width="8.7" height="8.7"/>
		<rect x="1589.7" y="653.6" class="st13" width="8.7" height="8.7"/>
		<rect x="1619.6" y="653.6" class="st13" width="8.7" height="8.7"/>
		<rect x="1647.1" y="653.6" class="st13" width="8.7" height="8.7"/>
		<rect x="1562.3" y="674.8" class="st13" width="8.7" height="8.7"/>
		<rect x="1589.7" y="674.8" class="st13" width="8.7" height="8.7"/>
		<rect x="1619.6" y="674.8" class="st13" width="8.7" height="8.7"/>
		<rect x="1647.1" y="674.8" class="st13" width="8.7" height="8.7"/>
		<rect x="1562.3" y="696" class="st13" width="8.7" height="8.7"/>
		<rect x="1589.7" y="696" class="st13" width="8.7" height="8.7"/>
		<rect x="1619.6" y="696" class="st13" width="8.7" height="8.7"/>
		<rect x="1647.1" y="696" class="st13" width="8.7" height="8.7"/>
		<line class="st16" x1="1580.1" y1="510.3" x2="1580.1" y2="735.9"/>
		<line class="st16" x1="1575.4" y1="510.3" x2="1575.4" y2="735.9"/>
		<line class="st17" x1="1664.5" y1="510.3" x2="1664.5" y2="735.9"/>
	</g>
	<g>
		<rect x="1492.5" y="551.1" class="st14" width="94.3" height="176"/>
		<rect x="1492.5" y="551.1" class="st15" width="47.2" height="176"/>
		<rect x="1502.2" y="563.7" class="st13" width="6.8" height="6.8"/>
		<rect x="1523.6" y="563.7" class="st13" width="6.8" height="6.8"/>
		<rect x="1546.9" y="563.7" class="st13" width="6.8" height="6.8"/>
		<rect x="1568.3" y="563.7" class="st13" width="6.8" height="6.8"/>
		<rect x="1502.2" y="580.3" class="st13" width="6.8" height="6.8"/>
		<rect x="1523.6" y="580.3" class="st13" width="6.8" height="6.8"/>
		<rect x="1546.9" y="580.3" class="st13" width="6.8" height="6.8"/>
		<rect x="1568.3" y="580.3" class="st13" width="6.8" height="6.8"/>
		<rect x="1502.2" y="596.8" class="st13" width="6.8" height="6.8"/>
		<rect x="1523.6" y="596.8" class="st13" width="6.8" height="6.8"/>
		<rect x="1546.9" y="596.8" class="st13" width="6.8" height="6.8"/>
		<rect x="1568.3" y="596.8" class="st13" width="6.8" height="6.8"/>
		<rect x="1502.2" y="613.3" class="st13" width="6.8" height="6.8"/>
		<rect x="1523.6" y="613.3" class="st13" width="6.8" height="6.8"/>
		<rect x="1546.9" y="613.3" class="st13" width="6.8" height="6.8"/>
		<rect x="1568.3" y="613.3" class="st13" width="6.8" height="6.8"/>
		<rect x="1502.2" y="629.9" class="st13" width="6.8" height="6.8"/>
		<rect x="1523.6" y="629.9" class="st13" width="6.8" height="6.8"/>
		<rect x="1546.9" y="629.9" class="st13" width="6.8" height="6.8"/>
		<rect x="1568.3" y="629.9" class="st13" width="6.8" height="6.8"/>
		<rect x="1502.2" y="646.4" class="st13" width="6.8" height="6.8"/>
		<rect x="1523.6" y="646.4" class="st13" width="6.8" height="6.8"/>
		<rect x="1546.9" y="646.4" class="st13" width="6.8" height="6.8"/>
		<rect x="1568.3" y="646.4" class="st13" width="6.8" height="6.8"/>
		<rect x="1502.2" y="662.9" class="st13" width="6.8" height="6.8"/>
		<rect x="1523.6" y="662.9" class="st13" width="6.8" height="6.8"/>
		<rect x="1546.9" y="662.9" class="st13" width="6.8" height="6.8"/>
		<rect x="1568.3" y="662.9" class="st13" width="6.8" height="6.8"/>
		<rect x="1502.2" y="679.5" class="st13" width="6.8" height="6.8"/>
		<rect x="1523.6" y="679.5" class="st13" width="6.8" height="6.8"/>
		<rect x="1546.9" y="679.5" class="st13" width="6.8" height="6.8"/>
		<rect x="1568.3" y="679.5" class="st13" width="6.8" height="6.8"/>
		<rect x="1502.2" y="696" class="st13" width="6.8" height="6.8"/>
		<rect x="1523.6" y="696" class="st13" width="6.8" height="6.8"/>
		<rect x="1546.9" y="696" class="st13" width="6.8" height="6.8"/>
		<rect x="1568.3" y="696" class="st13" width="6.8" height="6.8"/>
		<line class="st18" x1="1516" y1="551.1" x2="1516" y2="727.1"/>
		<line class="st18" x1="1512.4" y1="551.1" x2="1512.4" y2="727.1"/>
		<line class="st19" x1="1581.9" y1="551.1" x2="1581.9" y2="727.1"/>
	</g>
	<g>
		<rect x="1639.3" y="601.7" class="st14" width="94.3" height="176"/>
		<rect x="1639.3" y="601.7" class="st15" width="47.2" height="176"/>
		<rect x="1649" y="614.3" class="st13" width="6.8" height="6.8"/>
		<rect x="1670.4" y="614.3" class="st13" width="6.8" height="6.8"/>
		<rect x="1693.8" y="614.3" class="st13" width="6.8" height="6.8"/>
		<rect x="1715.1" y="614.3" class="st13" width="6.8" height="6.8"/>
		<rect x="1649" y="630.8" class="st13" width="6.8" height="6.8"/>
		<rect x="1670.4" y="630.8" class="st13" width="6.8" height="6.8"/>
		<rect x="1693.8" y="630.8" class="st13" width="6.8" height="6.8"/>
		<rect x="1715.1" y="630.8" class="st13" width="6.8" height="6.8"/>
		<rect x="1649" y="647.4" class="st13" width="6.8" height="6.8"/>
		<rect x="1670.4" y="647.4" class="st13" width="6.8" height="6.8"/>
		<rect x="1693.8" y="647.4" class="st13" width="6.8" height="6.8"/>
		<rect x="1715.1" y="647.4" class="st13" width="6.8" height="6.8"/>
		<rect x="1649" y="663.9" class="st13" width="6.8" height="6.8"/>
		<rect x="1670.4" y="663.9" class="st13" width="6.8" height="6.8"/>
		<rect x="1693.8" y="663.9" class="st13" width="6.8" height="6.8"/>
		<rect x="1715.1" y="663.9" class="st13" width="6.8" height="6.8"/>
		<rect x="1649" y="680.4" class="st13" width="6.8" height="6.8"/>
		<rect x="1670.4" y="680.4" class="st13" width="6.8" height="6.8"/>
		<rect x="1693.8" y="680.4" class="st13" width="6.8" height="6.8"/>
		<rect x="1715.1" y="680.4" class="st13" width="6.8" height="6.8"/>
		<rect x="1649" y="697" class="st13" width="6.8" height="6.8"/>
		<rect x="1670.4" y="697" class="st13" width="6.8" height="6.8"/>
		<rect x="1693.8" y="697" class="st13" width="6.8" height="6.8"/>
		<rect x="1715.1" y="697" class="st13" width="6.8" height="6.8"/>
		<rect x="1649" y="713.5" class="st13" width="6.8" height="6.8"/>
		<rect x="1670.4" y="713.5" class="st13" width="6.8" height="6.8"/>
		<rect x="1693.8" y="713.5" class="st13" width="6.8" height="6.8"/>
		<rect x="1715.1" y="713.5" class="st13" width="6.8" height="6.8"/>
		<rect x="1649" y="730" class="st13" width="6.8" height="6.8"/>
		<rect x="1670.4" y="730" class="st13" width="6.8" height="6.8"/>
		<rect x="1693.8" y="730" class="st13" width="6.8" height="6.8"/>
		<rect x="1715.1" y="730" class="st13" width="6.8" height="6.8"/>
		<rect x="1649" y="746.6" class="st13" width="6.8" height="6.8"/>
		<rect x="1670.4" y="746.6" class="st13" width="6.8" height="6.8"/>
		<rect x="1693.8" y="746.6" class="st13" width="6.8" height="6.8"/>
		<rect x="1715.1" y="746.6" class="st13" width="6.8" height="6.8"/>
		<line class="st18" x1="1662.9" y1="601.7" x2="1662.9" y2="777.7"/>
		<line class="st18" x1="1659.2" y1="601.7" x2="1659.2" y2="777.7"/>
		<line class="st19" x1="1728.8" y1="601.7" x2="1728.8" y2="777.7"/>
	</g>
	<g>
		<rect x="1425.4" y="615.3" class="st14" width="94.3" height="176"/>
		<rect x="1425.4" y="615.3" class="st15" width="47.2" height="176"/>
		<rect x="1435.1" y="627.9" class="st13" width="6.8" height="6.8"/>
		<rect x="1456.5" y="627.9" class="st13" width="6.8" height="6.8"/>
		<rect x="1479.8" y="627.9" class="st13" width="6.8" height="6.8"/>
		<rect x="1501.2" y="627.9" class="st13" width="6.8" height="6.8"/>
		<rect x="1435.1" y="644.5" class="st13" width="6.8" height="6.8"/>
		<rect x="1456.5" y="644.5" class="st13" width="6.8" height="6.8"/>
		<rect x="1479.8" y="644.5" class="st13" width="6.8" height="6.8"/>
		<rect x="1501.2" y="644.5" class="st13" width="6.8" height="6.8"/>
		<rect x="1435.1" y="661" class="st13" width="6.8" height="6.8"/>
		<rect x="1456.5" y="661" class="st13" width="6.8" height="6.8"/>
		<rect x="1479.8" y="661" class="st13" width="6.8" height="6.8"/>
		<rect x="1501.2" y="661" class="st13" width="6.8" height="6.8"/>
		<rect x="1435.1" y="677.5" class="st13" width="6.8" height="6.8"/>
		<rect x="1456.5" y="677.5" class="st13" width="6.8" height="6.8"/>
		<rect x="1479.8" y="677.5" class="st13" width="6.8" height="6.8"/>
		<rect x="1501.2" y="677.5" class="st13" width="6.8" height="6.8"/>
		<rect x="1435.1" y="694" class="st13" width="6.8" height="6.8"/>
		<rect x="1456.5" y="694" class="st13" width="6.8" height="6.8"/>
		<rect x="1479.8" y="694" class="st13" width="6.8" height="6.8"/>
		<rect x="1501.2" y="694" class="st13" width="6.8" height="6.8"/>
		<rect x="1435.1" y="710.6" class="st13" width="6.8" height="6.8"/>
		<rect x="1456.5" y="710.6" class="st13" width="6.8" height="6.8"/>
		<rect x="1479.8" y="710.6" class="st13" width="6.8" height="6.8"/>
		<rect x="1501.2" y="710.6" class="st13" width="6.8" height="6.8"/>
		<rect x="1435.1" y="727.1" class="st13" width="6.8" height="6.8"/>
		<rect x="1456.5" y="727.1" class="st13" width="6.8" height="6.8"/>
		<rect x="1479.8" y="727.1" class="st13" width="6.8" height="6.8"/>
		<rect x="1501.2" y="727.1" class="st13" width="6.8" height="6.8"/>
		<rect x="1435.1" y="743.6" class="st13" width="6.8" height="6.8"/>
		<rect x="1456.5" y="743.6" class="st13" width="6.8" height="6.8"/>
		<rect x="1479.8" y="743.6" class="st13" width="6.8" height="6.8"/>
		<rect x="1501.2" y="743.6" class="st13" width="6.8" height="6.8"/>
		<rect x="1435.1" y="760.2" class="st13" width="6.8" height="6.8"/>
		<rect x="1456.5" y="760.2" class="st13" width="6.8" height="6.8"/>
		<rect x="1479.8" y="760.2" class="st13" width="6.8" height="6.8"/>
		<rect x="1501.2" y="760.2" class="st13" width="6.8" height="6.8"/>
		<line class="st18" x1="1449" y1="615.3" x2="1449" y2="791.3"/>
		<line class="st18" x1="1445.3" y1="615.3" x2="1445.3" y2="791.3"/>
		<line class="st19" x1="1514.8" y1="615.3" x2="1514.8" y2="791.3"/>
	</g>
	<rect y="724.8" class="st20" width="1920" height="177.9"/>
	<path class="st13" d="M356.2,566.8c0,0-19.3,11.6-38.8,11.6s-21.3-11.6-21.3-11.6l30-37.1L356.2,566.8z"/>
	<path class="st19" d="M290.6,573.6c0,0,6.4,15.4,22.9,16.4s35-9.7,42.8-11.7"/>
	<path class="st13" d="M442.3,603.6l-8.7,10.7c0,0,1.5,4.9,7.3,4.9s11.5-2.7,11.5-2.7L442.3,603.6z"/>
	<g>
		<polygon class="st9" points="532.7,576.5 438.2,723.3 627.2,723.3 		"/>
		<polygon class="st13" points="532.4,575.5 577.1,664 581.9,722.3 627.2,722.3 		"/>
		<path class="st13" d="M519.7,595.8c0,0-2.9,9.8,9.8,10.8c12.6,1,19.8-5.4,19.8-5.4l-16.9-25.7L519.7,595.8z"/>
		<path class="st12" d="M514.7,603.5c0,0-5.7,7,6.9,8c12.6,1,30.5-5.8,30.5-5.8"/>
	</g>
	<path class="st21" d="M2886.6,728.1h-1288h-4.6H320H-983v29.2h-24V906c0,0,13.6-148.8,76.8-148.8c48.4,0,70.9,87.3,78.8,128.1V907
		h25.3v-1c0,0,13.6-148.8,76.8-148.8c57.2,0,78.2,122,81.7,145v4.7h25.3v-1c0,0,13.7-148.8,77.5-148.8S-481.9,906-481.9,906v1h25.3
		v-16.4c5.6-38,24.7-133.3,76-133.3c64.2,0,83.4,148.8,83.4,148.8v1h25.3v-1c0,0,13.7-148.8,77-148.8S-112.4,906-112.4,906v1h25.3
		v-1c0,0,13.9-148.8,78.4-148.8c50.7,0,73.6,91.9,81,131.3V907h25.3v-1c0,0,13.8-148.8,78-148.8c52.8,0,75.2,100.9,81.5,136.5V907
		h25.3v-4.7c2.6-23.1,19.2-145,76.4-145c48.4,0,70.9,87.3,78.8,128.1V907h25.3v-9.7c4.1-31.8,21.9-140.1,75.8-140.1
		c57.2,0,78.2,122,81.7,145v4.7h25.3v-1c0,0,13.7-148.8,77.5-148.8S806.1,906,806.1,906v1h25.3v-16.4c5.6-38,24.7-133.3,76-133.3
		c64.2,0,83.4,148.8,83.4,148.8v1h25.3v-1c0,0,13.7-148.8,77-148.8s82.4,148.8,82.4,148.8v1h25.3v-1c0,0,13.9-148.8,78.4-148.8
		c50.7,0,73.6,91.9,81,131.3V907h25.3v-1c0,0,13.8-148.8,78-148.8c52.8,0,75.2,100.9,81.5,136.5V907h25.3v-4.7
		c2.6-23.1,19.2-145,76.4-145c48.4,0,70.9,87.3,78.8,128.1V907h25.3v-1c0,0,13.6-148.8,76.8-148.8c57.2,0,78.2,122,81.7,145v4.7
		h25.3v-1c0,0,13.7-148.8,77.5-148.8s82.9,148.8,82.9,148.8v1h25.3v-16.4c5.6-38,24.7-133.3,76-133.3c64.2,0,83.4,148.8,83.4,148.8
		v1h25.3v-1c0,0,13.7-148.8,77-148.8s82.4,148.8,82.4,148.8v1h25.3v-1c0,0,13.9-148.8,78.4-148.8c50.7,0,73.6,91.9,81,131.3V907
		h25.3v-1c0,0,13.8-148.8,78-148.8c52.8,0,75.2,100.9,81.5,136.5V907h25.3V757.3h27.2V728.1z"/>
	<text transform="matrix(1 0 0 1 767.333 304.0737)" class="st0"><tspan x="0" y="0" class="st22 st23 st24 st25">DATA.</tspan><tspan x="393.8" y="0" class="st22 st23 st26">  </tspan></text>
	<rect x="774.6" y="320.6" class="st27" width="560.4" height="82.8"/>
	<text transform="matrix(1 0 0 1 774.6426 333.4473)" class="st28 st6 st26">EXPERICENCE INEDITE</text>
	<text transform="matrix(1 0 0 1 118.6323 98.6055)" class="st6 st7"> </text>
	<circle class="st4" cx="1080" cy="308" r="44"/>
</g>
<g id="Calque_3">
	<g>
		<path class="st14" d="M874.6,481.6L863,525.8c6.9-3,14.1-5.2,21.4-6.7L874.6,481.6z"/>
		<path class="st14" d="M861.7,530.6L849.6,577c14.2-8.2,29.4-14.1,45.3-18l-8.4-32.2C878.3,528.8,870.1,530.2,861.7,530.6z"/>
		<path class="st14" d="M892,643c-19.4,8.3-40.6,9.8-61.1,5.2l-9,34.4h105.3l-20.1-76.8c-7.8,5.4-16.6,7.7-26.1,10.1
			c8.7-4.3,16.6-9.4,25.1-14l-2.6-10.1c-11.6-2.6-23.5-2.9-35.1-4.9c-5.2,0.6-10.3,1.7-15.3,3c5-1.3,10.1-2.4,15.3-3
			c-4.1-0.7-8.3-1.7-12.3-3c4.1,1.4,8.2,2.3,12.3,3c11.7-1.4,23.6-0.8,34.7,3.3l-6.7-25.7c-15.3,6.3-30.8,12.2-47,13.4L831,648.1
			C851,644.8,871.1,639.4,892,643z M894,607v1V607z"/>
		<path class="st15" d="M879.9,641.8l-1.9-53.4c-3.2-0.4-6.5-0.8-9.7-1.4c-5.2,0.6-10.3,1.7-15.3,3c5-1.3,10.1-2.4,15.3-3
			c-4.1-0.7-8.3-1.7-12.3-3c4.1,1.4,8.2,2.3,12.3,3c3.2-0.4,6.4-0.6,9.6-0.7l-0.5-14.5c-9.2,3.1-18.5,5.5-28.1,6.1L831,648.1
			C847.1,645.5,863.3,641.4,879.9,641.8z"/>
		<path class="st15" d="M830.9,648.2l-9,34.4h59.4l-1.2-35.4C864.1,651.7,847.3,651.9,830.9,648.2z"/>
		<path class="st15" d="M874.3,482.5L863,525.8c4.2-1.8,8.4-3.3,12.7-4.6L874.3,482.5z"/>
		<path class="st15" d="M861.7,530.6L849.6,577c8.8-5.1,18.1-9.3,27.6-12.7L876,529C871.3,529.8,866.5,530.3,861.7,530.6z"/>
		<rect x="870" y="682.6" class="st15" width="11.3" height="46.1"/>
	</g>
	<g>
		<path class="st14" d="M1025.1,688.2l-15.2-58.2c-9.3,9.8-26.1,12-39.9,9c13.9-0.9,27.8-2.5,39.7-9.5l-5.3-20.1
			c-3,6.2-8.1,11.6-12.5,16.5c0.7-8.6,6.5-14.1,11.6-19.8l-3.6-13.8c-2.7,5.9-6.9,11.3-12,15.6c3.5-6.9,7.2-13.5,10.8-20.3
			l-7.3-27.7c-5.6,7.7-16.2,13.5-25.5,15c8.9-4.9,17.1-10.4,25.3-16l-12.5-47.6l-26.4,100.9c10.5-1.5,21.1-2.1,31.6-0.3
			c-9.8,2.7-21.9,6.1-32.2,2.6l-19.3,73.6H1025.1z M965.4,626.8c5-1.4,10.1-2,15.6-0.8C976,627.9,970.7,627.4,965.4,626.8
			c-3.2,0.9-6.3,2-9.4,3.2C959.1,628.8,962.2,627.7,965.4,626.8c-3.2-0.4-6.4-0.8-9.4-0.8C959,626,962.2,626.4,965.4,626.8z"/>
		<path class="st14" d="M991.5,560l-0.3-1c-8.1,5.6-16.4,11.1-25.3,16"/>
		<path class="st15" d="M982.1,611.7l-1.5-42.2c-4.6,2.7-9.8,4.7-14.6,5.5c5-2.7,9.8-5.7,14.5-8.7l-1.9-54.1l-26.2,100.1
			C962.3,610.9,972.2,610.3,982.1,611.7z"/>
		<path class="st15" d="M984.7,688.2l-1.7-47.9c-4.4,0.1-8.9-0.3-13-1.3c4.3-0.3,8.7-0.6,13-1.2l-0.9-25.3
			c-9.4,2.6-20.7,5.4-30.3,2.1l-19.3,73.6H984.7z M965.4,626.8c5-1.4,10.1-2,15.6-0.8C976,627.9,970.7,627.4,965.4,626.8
			c-3.2,0.9-6.3,2-9.4,3.2C959.1,628.8,962.2,627.7,965.4,626.8c-3.2-0.4-6.4-0.8-9.4-0.8C959,626,962.2,626.4,965.4,626.8z"/>
		<rect x="974.8" y="688.2" class="st15" width="9.9" height="40.5"/>
	</g>
	<g>
		<polygon class="st14" points="1202.8,675.5 1191.5,718.8 1214.2,718.8 		"/>
		<polygon class="st15" points="1202.8,675.6 1191.5,718.8 1204.3,718.8 		"/>
		<rect x="1201.9" y="718.8" class="st15" width="2.4" height="9.9"/>
	</g>
	<rect x="782.8" y="611.6" class="st14" width="46.6" height="114.4"/>
	<rect x="782.8" y="611.6" class="st15" width="17.2" height="114.4"/>
	<polygon class="st14" points="805.9,541.3 780,611.6 831.9,611.6 	"/>
	<polygon class="st15" points="806,541 780,611.6 815,611.6 	"/>
	<rect x="668" y="642" class="st14" width="123" height="84"/>
	<path class="st13" d="M822,633h-7v-13.5c0-1.9,1.6-3.5,3.5-3.5l0,0c1.9,0,3.5,1.6,3.5,3.5V633z"/>
	<path class="st13" d="M686,681h-7v-13.5c0-1.9,1.6-3.5,3.5-3.5l0,0c1.9,0,3.5,1.6,3.5,3.5V681z"/>
	<path class="st13" d="M703,681h-7v-13.5c0-1.9,1.6-3.5,3.5-3.5l0,0c1.9,0,3.5,1.6,3.5,3.5V681z"/>
	<path class="st13" d="M720,681h-7v-13.5c0-1.9,1.6-3.5,3.5-3.5l0,0c1.9,0,3.5,1.6,3.5,3.5V681z"/>
	<path class="st13" d="M737,681h-7v-13.5c0-1.9,1.6-3.5,3.5-3.5l0,0c1.9,0,3.5,1.6,3.5,3.5V681z"/>
	<path class="st13" d="M754,681h-7v-13.5c0-1.9,1.6-3.5,3.5-3.5l0,0c1.9,0,3.5,1.6,3.5,3.5V681z"/>
	<path class="st13" d="M771,681h-7v-13.5c0-1.9,1.6-3.5,3.5-3.5l0,0c1.9,0,3.5,1.6,3.5,3.5V681z"/>
	<path class="st13" d="M792,633h-4.8c-0.1,0-0.2-0.1-0.2-0.2v-14.4c0-1.4,1.1-2.5,2.5-2.5l0,0c1.4,0,2.5,1.1,2.5,2.5V633z"/>
	<line class="st29" x1="831" y1="638" x2="782" y2="638"/>
	<line class="st29" x1="814.5" y1="638.5" x2="814.5" y2="697.5"/>
	<rect x="805" y="618.1" class="st15" width="5" height="2.9"/>
	<rect x="824" y="644.1" class="st15" width="5" height="2.9"/>
	<rect x="778" y="685.1" class="st15" width="5" height="2.9"/>
	<rect x="753" y="688.1" class="st15" width="5" height="2.9"/>
	<rect x="708" y="672.1" class="st15" width="5" height="2.9"/>
	<rect x="686" y="687.1" class="st15" width="5" height="2.9"/>
	<rect x="775" y="675.1" class="st15" width="5" height="2.9"/>
	<rect x="798" y="650.1" class="st15" width="5" height="2.9"/>
	<rect x="820" y="605.1" class="st15" width="5" height="2.9"/>
	<rect x="796" y="601.1" class="st14" width="5" height="2.9"/>
	<polygon class="st15" points="794,658 665.9,658 660,639 794,639 	"/>
	<polygon class="st15" points="660,639 654,658 654,727.2 669.3,727.2 669.3,653 	"/>
	<rect x="742" y="650.1" class="st14" width="5" height="2.9"/>
	<rect x="745" y="647.1" class="st14" width="5" height="2.9"/>
	<rect x="683" y="651.1" class="st14" width="5" height="2.9"/>
	<rect x="829" y="664" class="st14" width="47" height="62"/>
	<rect x="829" y="664" class="st15" width="13" height="62"/>
	<polygon class="st14" points="852,645 827.8,664 876.2,664 	"/>
	<polygon class="st15" points="852,645 827.8,664 842,664 	"/>
	<polygon class="st14" points="845,654 839,658 839,643 845,643 	"/>
	<polygon class="st15" points="842,656 839,658 839,643 842,643 	"/>
	<circle class="st13" cx="856.5" cy="656.5" r="2.5"/>
	<rect x="847" y="673" class="st13" width="6.8" height="12"/>
	<rect x="831" y="673" class="st13" width="3" height="12"/>
	<line class="st30" x1="841" y1="664" x2="875" y2="664"/>
	<line class="st31" x1="850.5" y1="673" x2="850.5" y2="685"/>
	<line class="st31" x1="847" y1="677" x2="854" y2="677"/>
	<rect x="863" y="673" class="st13" width="6.8" height="12"/>
	<line class="st31" x1="866.5" y1="673" x2="866.5" y2="685"/>
	<line class="st31" x1="863" y1="677" x2="870" y2="677"/>
	<circle class="st13" cx="858.5" cy="694.5" r="4"/>
	<rect x="847" y="710" class="st15" width="23" height="16"/>
	<line class="st32" x1="858.5" y1="710.5" x2="858.5" y2="725.5"/>
	<circle class="st14" cx="868" cy="720.1" r="0.6"/>
	<circle class="st14" cx="849.2" cy="720.1" r="0.6"/>
	<g>
		<rect x="621.4" y="688" class="st14" width="38.9" height="38"/>
		<rect x="621.4" y="688" class="st15" width="10.8" height="38"/>
		<polygon class="st14" points="640.4,676.4 620.4,688 660.5,688 		"/>
		<polygon class="st15" points="640.4,676.4 620.4,688 632.2,688 		"/>
		<polygon class="st14" points="634.6,681.9 629.7,684.3 629.7,675.1 634.6,675.1 		"/>
		<polygon class="st15" points="632.2,683.1 629.7,684.3 629.7,675.1 632.2,675.1 		"/>
		<ellipse class="st13" cx="644.2" cy="683.4" rx="2.1" ry="1.5"/>
		<rect x="636.3" y="693.5" class="st13" width="5.6" height="7.4"/>
		<rect x="623.1" y="693.5" class="st13" width="2.5" height="7.4"/>
		<line class="st33" x1="631.3" y1="688" x2="659.5" y2="688"/>
		<line class="st34" x1="639.2" y1="693.5" x2="639.2" y2="700.9"/>
		<line class="st34" x1="636.3" y1="696" x2="642.1" y2="696"/>
		<rect x="649.5" y="693.5" class="st13" width="5.6" height="7.4"/>
		<line class="st34" x1="652.4" y1="693.5" x2="652.4" y2="700.9"/>
		<line class="st34" x1="649.5" y1="696" x2="655.3" y2="696"/>
		<ellipse class="st13" cx="645.8" cy="706.7" rx="3.3" ry="2.5"/>
		<rect x="636.3" y="716.2" class="st15" width="19" height="9.8"/>
		<line class="st35" x1="645.8" y1="716.5" x2="645.8" y2="725.7"/>
		<circle class="st14" cx="655.5" cy="722.4" r="0.4"/>
		<circle class="st14" cx="643.9" cy="722.4" r="0.4"/>
	</g>
	<g>
		<path class="st14" d="M937.7,588.1c-3.4,11.6-10.1,21.9-22.7,25.9c8-9.3,15-19.9,21.5-30.6l-8.8-33.5L892,686.2
			c9.6-5.2,20.3-7,31-6.2c-9.5,4.3-20.5,10.1-31.7,9l-0.8,3.1H965L937.7,588.1z M915,642c6.7-2.9,14.2-3.9,21-8.3
			c0.8-1.1,1.5-2.3,2-3.7c-0.6,1.4-1.3,2.6-2,3.7c0.3-0.2,0.7-0.5,1-0.7c-0.3,0.2-0.7,0.5-1,0.7C931.2,640.3,922.7,641.1,915,642z
			 M923,685c4.6-3.8,9.8-8.3,14.2-12.8c0.7-2,1.3-4.1,1.8-6.2c-0.5,2.1-1,4.2-1.8,6.2c1.3-1.4,2.6-2.8,3.8-4.2
			c-1.2,1.4-2.4,2.8-3.8,4.2C934.8,678.7,930.7,684.2,923,685z"/>
		<path class="st15" d="M923,685c2.9-2.4,6-5,9-7.8l-1.4-38.9c-4.6,2.5-10.3,3.1-15.6,3.7c4.9-2.1,10.3-3.2,15.6-5.5l-1.1-32.2
			c-3.6,4.3-8.3,7.7-14.4,9.6c5-5.9,9.7-12.3,14.1-18.9l-1.6-44.6L892,686.2c9.6-5.2,20.3-7,31-6.2c-9.5,4.3-20.5,10.1-31.7,9
			l-0.8,3.1h42l-0.4-11.4C929.8,683,926.8,684.6,923,685z"/>
		<rect x="924.5" y="692.2" class="st15" width="8" height="32.6"/>
	</g>
	<g>
		<path class="st14" d="M1087,644.4c-7.2,5.5-17.5,7.6-26,7.6c8.8-3.2,17.6-6.4,24.8-12.1l-1.9-7.4c-6.9,5-16.4,7-24.9,4.6
			c9,0,16.8-3.3,24.1-7.5l-10.3-39.4c-8.6,9.3-22.6,13.1-34.8,7c12.1,0.8,23.7-3.1,34.3-8.9l-2-7.6c-3,1.9-6.4,3-10.3,2.6
			c3.3-1,6.7-2.4,9.9-4l-11.2-42.6c-1.8,0.4-3.7,0.3-5.7-0.3c1.7-0.6,3.4-1,5.2-1.6l-8.4-32.1l-6,23c2,2.1,3.8,4.2,5.2,6.7
			c-2.3,0-4.5-0.4-6.6-1.2l-5.8,22.2c4.5,0.5,8.7-2,13.5-2c-2,6-6,10-11,14c-2.2,1.3-4.2,1.7-5.9,1.3l-10.6,40.6
			c13.9,10.8,33.5,13.9,50.6,12.1c-15,12-36,7-50-4c-0.9-0.9-1.5-1.9-1.9-3l-9.2,35c12.5,2.1,25.7,2.2,38,3.1c-2,10-13,17-23,15
			c-6.3-1.3-13.4-3.7-17.6-8.4l-7.8,29.7h96.4L1087,644.4z"/>
		<path class="st15" d="M1053,599.9c-5,0.4-10.1-0.4-15-2.9c5,0.3,10-0.2,14.8-1.3l-3.2-92.6l-5.8,22.1c2,2.1,3.8,4.2,5.2,6.7
			c-2.3,0-4.5-0.4-6.6-1.2l-6.1,23.1c3.5,0.3,6.9,0.1,10.7-0.9c-2.7,3.2-7.4,5-11.7,4.7l-12.9,49.2c8.8,6.9,19.9,10.6,31.2,12
			L1053,599.9z"/>
		<path class="st15" d="M1056,686.3l-2.1-60.4c-10.9,0.4-22.2-4.1-30.9-10.9c-0.9-0.9-1.5-1.9-1.9-3l-9.2,35
			c12.5,2.1,25.7,2.2,38,3.1c-2,10-13,17-23,15c-6.3-1.3-13.4-3.7-17.6-8.4l-7.8,29.7H1056z"/>
		<rect x="1045.6" y="686.3" class="st15" width="10.3" height="42.2"/>
	</g>
	<g>
		<path class="st14" d="M1125.4,601.5l-9.1-34.6l-9.2,35c3-1.6,5.6-2.9,8.8-2.9c-2.3,1.5-6.2,5.3-9.3,4.9l-1.4,5.3
			C1112.4,607.4,1119,604.7,1125.4,601.5z"/>
		<path class="st14" d="M1150.4,696.8l-1.7-6.6c-3.9,3-8.7,5-13.6,6.6H1150.4z"/>
		<path class="st14" d="M1138.3,650.6c-9,6-19.9,9.1-30.3,8.4c10.1-2.9,20.2-5.8,30-9.4l-2.1-7.9c-10.5,3.5-23.4,2.3-33.9-0.6
			c11.4,0.6,22.1-1.6,32.4-5l-8.3-31.7c-6.7,4.3-13.9,7.3-21.3,6.7l-16.7,63.7c5.3-0.8,10.1-2.7,14.9-2.7c-5,2.1-10,3.3-15,3.3
			l-5.6,21.5h47.4c6.2-3.1,12.3-6.6,17.9-10.7L1138.3,650.6z"/>
		<path class="st15" d="M1117.5,605.1l-1.3-37.6l-9,34.4c3-1.6,5.6-2.9,8.8-2.9c-2.3,1.5-6.2,5.3-9.3,4.9l-1.4,5.3
			C1109.5,608.1,1113.6,606.7,1117.5,605.1z"/>
		<path class="st15" d="M1120.7,696.8l-1.3-38.5c-3.8,0.7-7.6,1-11.4,0.7c3.8-1.1,7.5-2.2,11.3-3.3l-0.4-12
			c-5.8-0.2-11.6-1.3-16.9-2.7c5.8,0.3,11.3-0.1,16.7-1l-1.1-31.2c-4.2,1.7-8.4,2.6-12.8,2.2l-16.7,63.7c5.3-0.8,10.1-2.7,14.9-2.7
			c-5,2.1-10,3.3-15,3.3l-5.6,21.5H1120.7z"/>
		<rect x="1113.4" y="696.8" class="st15" width="7.3" height="29.8"/>
	</g>
	<g>
		<path class="st14" d="M1181.2,639.8l-2.1,8c1.5,0.6,3,1.1,4.6,1.6L1181.2,639.8z"/>
		<path class="st14" d="M1192.5,683c-4.6,5.2-12.6,8-18.5,6c7.1-0.8,13-3.5,18.1-7.5l-2.4-9.1c-1.6,2-4,3.2-7.7,2.6
			c2.9-0.7,5.3-2,7.5-3.4l-5.2-19.8c-2.1-0.1-4.1-0.5-6-1.1l-11.1,42.2c2.8,0,5.6-0.6,8.7,0.1c-2.6,1.1-6.4,2.4-9.3,2.2l-2.3,8.7
			c8.9-1.9,17.3-4.6,25.6-7.9c-7.1,6.3-16.8,9.5-25.9,9.1l-1.4,5.3h37L1192.5,683z"/>
		<path class="st15" d="M1167.3,692.9c2.8,0,5.6-0.6,8.7,0.1c-2.6,1.1-6.4,2.4-9.3,2.2l-2.3,8.7c6.5-1.4,12.7-3.2,18.7-5.3l-0.3-9.6
			c-3,0.8-6.1,0.9-8.8,0c3.1-0.3,6-1.1,8.7-2.1l-0.4-11.9c-0.1,0-0.2,0-0.3,0c0.1,0,0.2-0.1,0.3-0.1l-0.8-23.4
			c-1.1-0.2-2.2-0.5-3.2-0.8L1167.3,692.9z"/>
		<path class="st15" d="M1181.1,640.1l-2,7.7c0.8,0.3,1.5,0.6,2.3,0.8L1181.1,640.1z"/>
		<path class="st15" d="M1164.1,705.1l-1.4,5.3h20.8l-0.3-9.7C1177.3,703.9,1170.6,705.4,1164.1,705.1z"/>
		<path class="st15" d="M1182.3,674.9c-0.1,0-0.2,0.1-0.3,0.1c0.1,0,0.2,0,0.3,0L1182.3,674.9z"/>
		<rect x="1179.6" y="710.4" class="st15" width="4" height="16.2"/>
	</g>
	<line class="st14" x1="1131.7" y1="631.8" x2="1122.3" y2="640.1"/>
	<polygon class="st14" points="1058.4,556.8 1069.4,547.5 1063.9,556.8 	"/>
	<polygon class="st14" points="1113.4,594.8 1124.4,585.4 1118.9,594.8 	"/>
	<polygon class="st14" points="994.4,546.2 1008.8,545.4 998.8,549.5 	"/>
	<polygon class="st14" points="890.5,580.8 904.9,580.1 894.8,584.1 	"/>
	<polygon class="st15" points="849.3,548.5 863.7,547.8 853.7,551.9 	"/>
	<polygon class="st14" points="1088.7,609.4 1083.6,595.9 1090.6,604.2 	"/>
	<polygon class="st15" points="1160.9,665.7 1155.7,652.3 1162.7,660.6 	"/>
	<polygon class="st15" points="1148.5,611.6 1162.7,605.1 1143,618.1 	"/>
	<polygon class="st15" points="1065,685 1079.2,678.5 1059.5,691.5 	"/>
	<polygon class="st15" points="948.5,650.5 962.7,644 943,657 	"/>
</g>
<g id="train" transform="translate(0 618)">
            <path d="M105.2 31.1H29.4c-1.2 0-2.3-1-2.3-2.3V3.6c0-1.2 1-2.3 2.3-2.3h75.8c1.2 0 2.3 1 2.3 2.3v25.2c-.1 1.3-1.1 2.3-2.3 2.3z" fill="#EF656C" fill-rule="nonzero"/>
            <path fill="#A5154F" fill-rule="nonzero" d="M27.2 11.1h80.3v4.8H27.2z"/>
            <path d="M107.4 9.4H27.2" stroke="#FFEAB6" stroke-width=".803"/>
            <path d="M43.6 19.1H38c-2.4 0-4.4-2-4.4-4.4v-1.6c0-2.4 2-4.4 4.4-4.4h5.6c2.4 0 4.4 2 4.4 4.4v1.6c0 2.4-1.9 4.4-4.4 4.4z" stroke="#A5154F" stroke-width=".803" fill="#FFEAB6" fill-rule="nonzero"/>
            <path d="M44 8.6c2.2 0 4 1.8 4 4V15c0 2.2-1.8 4-4 4h-6.4c-2.2 0-4-1.8-4-4" fill="#2DDCE0" fill-rule="nonzero"/>
            <path d="M76.5 19.1H62.1c-2.4 0-4.4-2-4.4-4.4v-1.6c0-2.4 2-4.4 4.4-4.4h14.4c2.4 0 4.4 2 4.4 4.4v1.6c.1 2.4-1.9 4.4-4.4 4.4z" stroke="#A5154F" stroke-width=".803" fill="#FFEAB6" fill-rule="nonzero"/>
            <path d="M76.9 8.6c2.2 0 4 1.8 4 4V15c0 2.2-1.8 4-4 4H61.7" fill="#2DDCE0" fill-rule="nonzero"/>
            <path d="M95.1.2H39.5c-.4 0-.7.3-.7.7v.2c0 .4.3.7.7.7h55.6c.4 0 .7-.3.7-.7V.9c0-.4-.3-.7-.7-.7z" fill="#A5154F" fill-rule="nonzero"/>
            <path d="M93.6 29.5h-.9c-1.4 0-2.6-1.1-2.6-2.6v-7.2c0-1.4 1.1-2.6 2.6-2.6h.9c1.4 0 2.6 1.1 2.6 2.6v7.2c0 1.5-1.1 2.6-2.6 2.6z" stroke="#FFEAB6" stroke-width=".641"/>
            <circle fill="#FFEAB6" fill-rule="nonzero" cx="94.2" cy="22.7" r="1"/>
            <path d="M187.1 31.1h-75.8c-1.2 0-2.3-1-2.3-2.3V3.6c0-1.2 1-2.3 2.3-2.3h75.8c1.2 0 2.3 1 2.3 2.3v25.2c-.1 1.3-1.1 2.3-2.3 2.3z" fill="#EF656C" fill-rule="nonzero"/>
            <path fill="#A5154F" fill-rule="nonzero" d="M109 11.1h80.3v4.8H109z"/>
            <path d="M189.3 9.4H109" stroke="#FFEAB6" stroke-width=".803"/>
            <path d="M125.5 19.1h-5.6c-2.4 0-4.4-2-4.4-4.4v-1.6c0-2.4 2-4.4 4.4-4.4h5.6c2.4 0 4.4 2 4.4 4.4v1.6c0 2.4-2 4.4-4.4 4.4z" stroke="#A5154F" stroke-width=".803" fill="#FFEAB6" fill-rule="nonzero"/>
            <path d="M125.9 8.6c2.2 0 4 1.8 4 4V15c0 2.2-1.8 4-4 4h-6.4c-2.2 0-4-1.8-4-4" fill="#2DDCE0" fill-rule="nonzero"/>
            <path d="M158.4 19.1H144c-2.4 0-4.4-2-4.4-4.4v-1.6c0-2.4 2-4.4 4.4-4.4h14.4c2.4 0 4.4 2 4.4 4.4v1.6c0 2.4-2 4.4-4.4 4.4z" stroke="#A5154F" stroke-width=".803" fill="#FFEAB6" fill-rule="nonzero"/>
            <path d="M158.8 8.6c2.2 0 4 1.8 4 4V15c0 2.2-1.8 4-4 4h-15.2" fill="#2DDCE0" fill-rule="nonzero"/>
            <path d="M177 .2h-55.6c-.4 0-.7.3-.7.7v.2c0 .4.3.7.7.7H177c.4 0 .7-.3.7-.7V.9c0-.4-.3-.7-.7-.7z" fill="#A5154F" fill-rule="nonzero"/>
            <g transform="translate(190)">
                <path d="M78.9 31.1H3.1c-1.2 0-2.3-1-2.3-2.3V3.6c0-1.2 1-2.3 2.3-2.3h75.8c1.2 0 2.3 1 2.3 2.3v25.2c0 1.3-1 2.3-2.3 2.3z" fill="#EF656C" fill-rule="nonzero"/>
                <path fill="#A5154F" fill-rule="nonzero" d="M.9 11.1h80.3v4.8H.9z"/>
                <path d="M81.2 9.4H.9" stroke="#FFEAB6" stroke-width=".803"/>
                <path d="M17.3 19.1h-5.6c-2.4 0-4.4-2-4.4-4.4v-1.6c0-2.4 2-4.4 4.4-4.4h5.6c2.4 0 4.4 2 4.4 4.4v1.6c.1 2.4-1.9 4.4-4.4 4.4z" stroke="#A5154F" stroke-width=".803" fill="#FFEAB6" fill-rule="nonzero"/>
                <path d="M17.8 8.6c2.2 0 4 1.8 4 4V15c0 2.2-1.8 4-4 4h-6.4c-2.2 0-4-1.8-4-4" fill="#2DDCE0" fill-rule="nonzero"/>
                <path d="M50.3 19.1H35.9c-2.4 0-4.4-2-4.4-4.4v-1.6c0-2.4 2-4.4 4.4-4.4h14.4c2.4 0 4.4 2 4.4 4.4v1.6c0 2.4-2 4.4-4.4 4.4z" stroke="#A5154F" stroke-width=".803" fill="#FFEAB6" fill-rule="nonzero"/>
                <path d="M50.7 8.6c2.2 0 4 1.8 4 4V15c0 2.2-1.8 4-4 4H35.5" fill="#2DDCE0" fill-rule="nonzero"/>
                <path d="M68.8.2H13.2c-.4 0-.7.3-.7.7v.2c0 .4.3.7.7.7h55.6c.4 0 .7-.3.7-.7V.9c0-.4-.3-.7-.7-.7z" fill="#A5154F" fill-rule="nonzero"/>
                <path d="M67.4 29.5h-.9c-1.4 0-2.6-1.1-2.6-2.6v-7.2c0-1.4 1.1-2.6 2.6-2.6h.9c1.4 0 2.6 1.1 2.6 2.6v7.2c-.1 1.5-1.2 2.6-2.6 2.6z" stroke="#FFEAB6" stroke-width=".641"/>
                <circle fill="#FFEAB6" fill-rule="nonzero" cx="67.9" cy="22.7" r="1"/>
            </g>
            <g>
                <path d="M350.8 31.1H275c-1.2 0-2.3-1-2.3-2.3V3.6c0-1.2 1-2.3 2.3-2.3h75.8c1.2 0 2.3 1 2.3 2.3v25.2c-.1 1.3-1.1 2.3-2.3 2.3z" fill="#EF656C" fill-rule="nonzero"/>
                <path fill="#A5154F" fill-rule="nonzero" d="M272.8 11.1h80.3v4.8h-80.3z"/>
                <path d="M353 9.4h-80.2" stroke="#FFEAB6" stroke-width=".803"/>
                <path d="M289.2 19.1h-5.6c-2.4 0-4.4-2-4.4-4.4v-1.6c0-2.4 2-4.4 4.4-4.4h5.6c2.4 0 4.4 2 4.4 4.4v1.6c0 2.4-2 4.4-4.4 4.4z" stroke="#A5154F" stroke-width=".803" fill="#FFEAB6" fill-rule="nonzero"/>
                <path d="M289.6 8.6c2.2 0 4 1.8 4 4V15c0 2.2-1.8 4-4 4h-6.4c-2.2 0-4-1.8-4-4" fill="#2DDCE0" fill-rule="nonzero"/>
                <path d="M322.1 19.1h-14.4c-2.4 0-4.4-2-4.4-4.4v-1.6c0-2.4 2-4.4 4.4-4.4h14.4c2.4 0 4.4 2 4.4 4.4v1.6c0 2.4-1.9 4.4-4.4 4.4z" stroke="#A5154F" stroke-width=".803" fill="#FFEAB6" fill-rule="nonzero"/>
                <path d="M322.5 8.6c2.2 0 4 1.8 4 4V15c0 2.2-1.8 4-4 4h-15.2" fill="#2DDCE0" fill-rule="nonzero"/>
                <path d="M340.7.2h-55.6c-.4 0-.7.3-.7.7v.2c0 .4.3.7.7.7h55.6c.4 0 .7-.3.7-.7V.9c0-.4-.3-.7-.7-.7z" fill="#A5154F" fill-rule="nonzero"/>
            </g>
            <g>
                <path d="M432.7 31.1h-75.8c-1.2 0-2.3-1-2.3-2.3V3.6c0-1.2 1-2.3 2.3-2.3h75.8c1.2 0 2.3 1 2.3 2.3v25.2c-.1 1.3-1.1 2.3-2.3 2.3z" fill="#EF656C" fill-rule="nonzero"/>
                <path fill="#A5154F" fill-rule="nonzero" d="M354.6 11.1h80.3v4.8h-80.3z"/>
                <path d="M434.9 9.4h-80.3" stroke="#FFEAB6" stroke-width=".803"/>
                <path d="M371.1 19.1h-5.6c-2.4 0-4.4-2-4.4-4.4v-1.6c0-2.4 2-4.4 4.4-4.4h5.6c2.4 0 4.4 2 4.4 4.4v1.6c0 2.4-2 4.4-4.4 4.4z" stroke="#A5154F" stroke-width=".803" fill="#FFEAB6" fill-rule="nonzero"/>
                <path d="M371.5 8.6c2.2 0 4 1.8 4 4V15c0 2.2-1.8 4-4 4h-6.4c-2.2 0-4-1.8-4-4" fill="#2DDCE0" fill-rule="nonzero"/>
                <path d="M404 19.1h-14.4c-2.4 0-4.4-2-4.4-4.4v-1.6c0-2.4 2-4.4 4.4-4.4H404c2.4 0 4.4 2 4.4 4.4v1.6c0 2.4-2 4.4-4.4 4.4z" stroke="#A5154F" stroke-width=".803" fill="#FFEAB6" fill-rule="nonzero"/>
                <path d="M404.4 8.6c2.2 0 4 1.8 4 4V15c0 2.2-1.8 4-4 4h-15.2" fill="#2DDCE0" fill-rule="nonzero"/>
                <path d="M422.6.2H367c-.4 0-.7.3-.7.7v.2c0 .4.3.7.7.7h55.6c.4 0 .7-.3.7-.7V.9c0-.4-.3-.7-.7-.7z" fill="#A5154F" fill-rule="nonzero"/>
            </g>
            <g fill-rule="nonzero">
                <path d="M433.7 1.4c.2 0 .5.1.6.2 2.9 1.7 25.4 15.8 25.4 26.3 0 4-28.4 3.2-28.4 3.2V1.4h2.4z" fill="#EF656C"/>
                <path d="M455.7 18.9s3.3 4 3.8 6.8h-28.1v-6.8h24.3z" fill="#A5154F"/>
                <path d="M444.2 8.6h-6.7c-.3 0-.6.3-.6.6v7.5c0 .4.3.7.7.7h16.8s-3-3.2-5.4-5.3c-2.4-2-4.3-3.5-4.3-3.5h-.5z" fill="#FFEAB6"/>
                <path d="M444.6 8.6l-7.4 8.4c-.1.1-.4.1-.4-.1V9.2c0-.3.2-.6.6-.6h7.2z" fill="#2DDCE0"/>
                <path d="M456.9 20.5s1 1.4 1.6 2.8h-2.9c-.3 0-.6-.3-.6-.6V21c0-.3.2-.5.5-.5h1.4z" fill="#FFEAB6"/>
            </g>
            <g fill-rule="nonzero">
                <path d="M26.3 1.4c-.2 0-.5.1-.6.2C22.8 3.3.3 17.4.3 27.9c0 4 28.4 3.2 28.4 3.2V1.4h-2.4z" fill="#EF656C"/>
                <path d="M4.4 18.9s-3.3 4-3.8 6.8h28.1v-6.8H4.4z" fill="#A5154F"/>
                <path d="M15.8 8.6h6.7c.3 0 .6.3.6.6v7.5c0 .4-.3.7-.7.7H5.6s3-3.2 5.4-5.3c2.4-2 4.3-3.5 4.3-3.5h.5z" fill="#FFEAB6"/>
                <path d="M15.4 8.6l7.4 8.4c.1.1.4.1.4-.1V9.2c0-.3-.2-.6-.6-.6h-7.2z" fill="#2DDCE0"/>
                <path d="M3.2 20.5s-1 1.4-1.6 2.8h2.9c.3 0 .6-.3.6-.6V21c0-.3-.2-.5-.5-.5H3.2z" fill="#FFEAB6"/>
            </g>
        </g>
        <animateTransform
             xlink:href="#train"
             attributeName="transform"
             type="translate"
             dur="20s"
             values="-460 695 ; -460 695 ; 1920 695 ; 1920 695 ; -460 695"
             keyTimes="0;0.2;0.3;0.75;1"
             repeatCount="indefinite"
             id="train-animation"></animateTransform>
</svg>
