<?xml version="1.0" encoding="utf-8"?>
<!-- Generator: Adobe Illustrator 17.0.0, SVG Export Plug-In . SVG Version: 6.00 Build 0)  -->
<!DOCTYPE svg PUBLIC "-//W3C//DTD SVG 1.1//EN" "http://www.w3.org/Graphics/SVG/1.1/DTD/svg11.dtd">
<svg version="1.1" id="Calque_1" xmlns="http://www.w3.org/2000/svg" xmlns:xlink="http://www.w3.org/1999/xlink" x="0px" y="0px"
	 width="841.89px" height="1190.55px" viewBox="0 0 841.89 1190.55" enable-background="new 0 0 841.89 1190.55"
	 xml:space="preserve">
<g>
	<defs>
		<rect id="SVGID_1_" x="-539" y="55.55" width="1920" height="1080"/>
	</defs>
	<clipPath id="SVGID_2_">
		<use xlink:href="#SVGID_1_"  overflow="visible"/>
	</clipPath>
	<path clip-path="url(#SVGID_2_)" fill="none" stroke="#FFFFFF" stroke-width="1.73" stroke-miterlimit="10" d="M355.701,576.931
		h18.088c7.887,0,14.28,6.393,14.28,14.28v42.853c0,7.887-6.393,14.28-14.28,14.28h-18.088c-7.887,0-14.28-6.393-14.28-14.28
		v-42.853C341.421,583.324,347.814,576.931,355.701,576.931z"/>
	
		<line clip-path="url(#SVGID_2_)" fill="none" stroke="#FFFFFF" stroke-width="1.73" stroke-miterlimit="10" x1="364.729" y1="597.529" x2="364.729" y2="608.511"/>
	<g clip-path="url(#SVGID_2_)">
		<text transform="matrix(1 0 0 1 343.6758 669.55)" fill="#FFFFFF" font-family="'WorkSans-Light'" font-size="12">SC</text>
	</g>
	<g clip-path="url(#SVGID_2_)">
		<text transform="matrix(1 0 0 1 359.1318 669.55)" fill="#FFFFFF" font-family="'WorkSans-Light'" font-size="12">R</text>
	</g>
	<g clip-path="url(#SVGID_2_)">
		<text transform="matrix(1 0 0 1 366.812 669.55)" fill="#FFFFFF" font-family="'WorkSans-Light'" font-size="12">OLL</text>
	</g>
</g>
</svg>
