<svg xmlns="http://www.w3.org/2000/svg" viewBox="0 0 11.93 11.93"><defs><style>.cls-1{fill:#f53855;}</style></defs><title>Fichier 2</title><g id="Calque_2" data-name="Calque 2"><g id="Text"><path class="cls-1" d="M11.93,9.6a.93.93,0,0,1-.28.68l-1.37,1.37a1,1,0,0,1-1.37,0l-3-3-3,3a.93.93,0,0,1-.68.28.93.93,0,0,1-.68-.28L.28,10.29a1,1,0,0,1,0-1.37l3-3-3-3A.93.93,0,0,1,0,2.33a.93.93,0,0,1,.28-.68L1.65.28A.93.93,0,0,1,2.33,0,.93.93,0,0,1,3,.28l3,3,3-3a1,1,0,0,1,1.37,0l1.37,1.37a.93.93,0,0,1,.28.68.93.93,0,0,1-.28.68l-3,3,3,3A.93.93,0,0,1,11.93,9.6Z"/></g></g></svg>