<svg xmlns="http://www.w3.org/2000/svg" viewBox="0 0 57.14 85.71"><defs><style>.cls-1{fill:#fff;}</style></defs><title>Fichier 3</title><g id="Calque_2" data-name="Calque 2"><g id="Text"><path class="cls-1" d="M57.14,25A21.46,21.46,0,0,1,51.4,40q-2.51,2.73-4.16,4.86a35.64,35.64,0,0,0-3.32,5.33,15.83,15.83,0,0,0-1.9,6,5,5,0,0,1,2.62,4.58,5.08,5.08,0,0,1-1.4,3.57,5.3,5.3,0,0,1-1.12,8.09A5.28,5.28,0,0,1,42.86,75a4.76,4.76,0,0,1-1.76,4,6.74,6.74,0,0,1-4.32,1.4,9,9,0,0,1-3.35,3.91,8.85,8.85,0,0,1-9.71,0,9,9,0,0,1-3.35-3.91A6.74,6.74,0,0,1,16,79a4.76,4.76,0,0,1-1.76-4A5.27,5.27,0,0,1,15,72.38a5.3,5.3,0,0,1-1.12-8.09,5.08,5.08,0,0,1-1.4-3.57,5,5,0,0,1,2.62-4.58,15.84,15.84,0,0,0-1.9-6,35.72,35.72,0,0,0-3.32-5.33Q8.26,42.69,5.75,40A21.45,21.45,0,0,1,0,25,22,22,0,0,1,2.48,14.7,23.84,23.84,0,0,1,9,6.78a32.42,32.42,0,0,1,9.15-5A30.77,30.77,0,0,1,39,1.81a32.43,32.43,0,0,1,9.15,5,23.86,23.86,0,0,1,6.53,7.92A22,22,0,0,1,57.14,25ZM50,25a15.13,15.13,0,0,0-1.93-7.48,17,17,0,0,0-5-5.66A25.84,25.84,0,0,0,36.19,8.4,23.73,23.73,0,0,0,21,8.4a25.85,25.85,0,0,0-6.86,3.46,17,17,0,0,0-5,5.66A15.13,15.13,0,0,0,7.14,25a15,15,0,0,0,3.79,10l1.7,1.84,1.7,1.84q7.14,8.54,7.87,16.63H34.93q.72-8.09,7.87-16.63l1.7-1.84L46.21,35A15,15,0,0,0,50,25Zm-8.93,0a1.79,1.79,0,0,1-3.57,0q0-2.57-3-4a14,14,0,0,0-5.92-1.4,1.79,1.79,0,0,1,0-3.57,18,18,0,0,1,5.55.89A11.88,11.88,0,0,1,39,20,6.91,6.91,0,0,1,41.07,25Z"/></g></g></svg>