<svg xmlns="http://www.w3.org/2000/svg" viewBox="0 0 226.48 104.1"><defs><style>.cls-1{fill:#3d224c;}.cls-2{fill:#ffeab6;}.cls-3{fill:#ec666d;}.cls-4{fill:#a61350;}.cls-5{fill:#fff;}.cls-6{fill:none;}.cls-7{fill:#2ddce0;}.cls-8{fill:#fffef7;}.cls-9{fill:#48434a;}.cls-10{fill:#fefffe;}.cls-11{fill:#625964;}.cls-12{fill:#fffffd;}</style></defs><title>Camion</title><g id="Calque_2" data-name="Calque 2"><g id="Camion"><rect class="cls-1" x="3.93" y="66.38" width="219.62" height="17.82"/><rect class="cls-2" x="6.81" y="80.13" width="216.73" height="4.06"/><rect class="cls-3" x="113.74" y="71.88" width="42.46" height="16.51"/><rect class="cls-4" x="3.93" y="80.13" width="2.88" height="12.19"/><rect class="cls-2" y="78.43" width="3.93" height="9.96"/><polygon class="cls-5" points="223.55 44.02 223.55 75.28 176.11 75.28 176.11 22.57 214.88 22.57 223.55 44.02"/><path class="cls-4" d="M219.06,22.57H176.11V15h35.16C214.14,16.11,219.06,18.6,219.06,22.57Z"/><polyline class="cls-6" points="209.27 13.63 209.27 14.33 209.27 15.01"/><polygon class="cls-4" points="223.55 45.75 226.47 48.68 226.47 71.88 223.55 75.28 223.55 45.75"/><polygon class="cls-2" points="193.45 24.82 193.45 40.48 220.01 40.48 213.46 24.82 193.45 24.82"/><polygon class="cls-7" points="213.46 24.82 220.01 40.48 193.45 40.48 213.46 24.82"/><rect class="cls-7" x="8.24" width="164.98" height="66.38"/><rect class="cls-2" x="82.85" y="3.64" width="2.48" height="59.1"/><rect class="cls-2" x="77.3" y="3.64" width="2.48" height="59.1"/><rect class="cls-2" x="71.76" y="3.64" width="2.48" height="59.1"/><rect class="cls-2" x="66.21" y="3.64" width="2.48" height="59.1"/><rect class="cls-2" x="60.67" y="3.64" width="2.48" height="59.1"/><rect class="cls-2" x="55.12" y="3.64" width="2.48" height="59.1"/><rect class="cls-2" x="49.57" y="3.64" width="2.48" height="59.1"/><rect class="cls-2" x="44.03" y="3.64" width="2.48" height="59.1"/><rect class="cls-2" x="38.48" y="3.64" width="2.48" height="59.1"/><rect class="cls-2" x="32.94" y="3.64" width="2.48" height="59.1"/><rect class="cls-2" x="27.39" y="3.64" width="2.48" height="59.1"/><rect class="cls-2" x="21.84" y="3.64" width="2.48" height="59.1"/><rect class="cls-2" x="16.3" y="3.64" width="2.48" height="59.1"/><rect class="cls-2" x="10.75" y="3.64" width="2.48" height="59.1"/><rect class="cls-2" x="105.03" y="3.64" width="2.48" height="59.1"/><rect class="cls-2" x="99.49" y="3.64" width="2.48" height="59.1"/><rect class="cls-2" x="93.94" y="3.64" width="2.48" height="59.1"/><rect class="cls-2" x="88.4" y="3.64" width="2.48" height="59.1"/><rect class="cls-2" x="127.22" y="3.64" width="2.48" height="59.1"/><rect class="cls-2" x="121.67" y="3.64" width="2.48" height="59.1"/><rect class="cls-2" x="116.12" y="3.64" width="2.48" height="59.1"/><rect class="cls-2" x="110.58" y="3.64" width="2.48" height="59.1"/><rect class="cls-2" x="149.4" y="3.64" width="2.48" height="59.1"/><rect class="cls-2" x="143.85" y="3.64" width="2.48" height="59.1"/><rect class="cls-2" x="166.04" y="3.64" width="2.48" height="59.1"/><rect class="cls-2" x="160.49" y="3.64" width="2.48" height="59.1"/><rect class="cls-2" x="154.95" y="3.64" width="2.48" height="59.1"/><rect class="cls-2" x="138.31" y="3.64" width="2.48" height="59.1"/><rect class="cls-2" x="132.76" y="3.64" width="2.48" height="59.1"/><path class="cls-8" d="M204.14,49.17A1.86,1.86,0,0,1,202.28,51h-7a1.86,1.86,0,0,1-1.86-1.86h0a1.86,1.86,0,0,1,1.86-1.86h7a1.86,1.86,0,0,1,1.86,1.86Z"/><rect class="cls-2" x="113.74" y="71.88" width="42.45" height="4.73"/><rect class="cls-2" x="113.74" y="83.14" width="42.45" height="5.25"/><rect class="cls-9" x="140.79" y="71.88" width="2.04" height="16.51"/><rect class="cls-9" x="148.38" y="71.88" width="2.04" height="16.51"/><rect class="cls-4" x="179.82" y="24.82" width="8.3" height="15.66"/><circle class="cls-4" cx="30.86" cy="87.5" r="16.6"/><circle class="cls-10" cx="30.86" cy="87.5" r="10.68"/><circle class="cls-11" cx="30.86" cy="87.5" r="8.55"/><circle class="cls-12" cx="30.86" cy="87.5" r="3.62"/><path class="cls-2" d="M30.86,66.73A20.77,20.77,0,0,0,10.09,87.5h4.26a16.51,16.51,0,0,1,33,0h4.26A20.77,20.77,0,0,0,30.86,66.73Z"/><circle class="cls-4" cx="75.89" cy="87.5" r="16.6"/><circle class="cls-10" cx="75.89" cy="87.5" r="10.68"/><circle class="cls-11" cx="75.89" cy="87.5" r="8.55"/><circle class="cls-12" cx="75.89" cy="87.5" r="3.62"/><path class="cls-2" d="M75.89,66.73A20.77,20.77,0,0,0,55.12,87.5h4.26a16.51,16.51,0,0,1,33,0h4.26A20.77,20.77,0,0,0,75.89,66.73Z"/><circle class="cls-4" cx="191.28" cy="87.5" r="16.6"/><circle class="cls-10" cx="191.28" cy="87.5" r="10.68"/><circle class="cls-11" cx="191.28" cy="87.5" r="8.55"/><circle class="cls-12" cx="191.28" cy="87.5" r="3.62"/><path class="cls-2" d="M191.28,66.73A20.77,20.77,0,0,0,170.51,87.5h4.26a16.51,16.51,0,0,1,33,0H212A20.77,20.77,0,0,0,191.28,66.73Z"/></g></g></svg>