<svg xmlns="http://www.w3.org/2000/svg" viewBox="0 0 505.91 232.54"><defs><style>.cls-1{fill:#ec3c56;}.cls-2{fill:#efca4d;}.cls-3{fill:#d4b447;}.cls-4{fill:#47b19d;}.cls-5{fill:#45a18e;}.cls-6{fill:#fff;}.cls-7{fill:#ecd294;}.cls-8{fill:none;}.cls-9{fill:#ddc48a;}.cls-10{fill:#f5dc9f;}.cls-11{fill:#ffeab6;}</style></defs><title>camion_graphique</title><g id="Calque_2" data-name="Calque 2"><g id="Camion_4" data-name="Camion 4"><path class="cls-1" d="M100.73,214.55H37.14a37.09,37.09,0,0,0,63.59,0Z"/><path class="cls-1" d="M201.32,214.55H137.73a37.09,37.09,0,0,0,63.59,0Z"/><path class="cls-1" d="M459.08,214.55H395.49a37.09,37.09,0,0,0,63.59,0Z"/><path class="cls-1" d="M83.25,214.55H54.61a23.87,23.87,0,0,0,28.64,0Z"/><path class="cls-1" d="M183.84,214.55H155.2a23.87,23.87,0,0,0,28.64,0Z"/><path class="cls-1" d="M441.6,214.55H413a23.87,23.87,0,0,0,28.64,0Z"/></g><g id="Camion_3" data-name="Camion 3"><rect class="cls-2" x="8.78" y="148.27" width="490.58" height="39.8"/><rect class="cls-2" x="15.22" y="179" width="484.14" height="9.07"/><rect class="cls-2" x="254.07" y="160.56" width="94.84" height="36.88"/><rect class="cls-2" x="8.78" y="179" width="6.44" height="27.22"/><rect class="cls-2" y="175.2" width="8.78" height="22.25"/><rect class="cls-2" x="393.4" y="132.11" width="105.96" height="36.06"/><polygon class="cls-3" points="505.91 160.56 505.91 132.11 499.36 132.11 499.36 168.17 505.91 160.56"/><rect class="cls-2" x="18.4" y="132.11" width="368.54" height="16.16"/><rect class="cls-2" x="254.07" y="160.56" width="94.82" height="10.57"/><rect class="cls-2" x="254.07" y="185.71" width="94.82" height="11.73"/><rect class="cls-2" x="314.5" y="160.56" width="4.55" height="36.88"/><rect class="cls-2" x="331.46" y="160.56" width="4.55" height="36.88"/><path class="cls-2" d="M68.93,158.37a37.09,37.09,0,0,0-31.8,56.18h63.59a37.09,37.09,0,0,0-31.8-56.18Z"/><path class="cls-2" d="M92.8,195.46a23.87,23.87,0,1,0-38.19,19.09H83.25A23.83,23.83,0,0,0,92.8,195.46Z"/><circle class="cls-3" cx="68.93" cy="195.46" r="19.09"/><circle class="cls-2" cx="68.93" cy="195.46" r="8.08"/><path class="cls-3" d="M68.93,149.06a46.39,46.39,0,0,0-46.39,46.4h9.52a36.87,36.87,0,0,1,73.74,0h9.52A46.4,46.4,0,0,0,68.93,149.06Z"/><path class="cls-2" d="M169.52,158.37a37.09,37.09,0,0,0-31.8,56.18h63.59a37.09,37.09,0,0,0-31.79-56.18Z"/><path class="cls-2" d="M193.39,195.46a23.87,23.87,0,1,0-38.19,19.09h28.64A23.83,23.83,0,0,0,193.39,195.46Z"/><circle class="cls-3" cx="169.52" cy="195.46" r="19.09"/><circle class="cls-2" cx="169.52" cy="195.46" r="8.08"/><path class="cls-3" d="M169.52,149.06a46.39,46.39,0,0,0-46.39,46.4h9.52a36.87,36.87,0,0,1,73.74,0h9.52A46.4,46.4,0,0,0,169.52,149.06Z"/><path class="cls-2" d="M427.28,158.37a37.09,37.09,0,0,0-31.8,56.18h63.59a37.09,37.09,0,0,0-31.8-56.18Z"/><path class="cls-2" d="M451.15,195.46A23.87,23.87,0,1,0,413,214.55H441.6A23.83,23.83,0,0,0,451.15,195.46Z"/><circle class="cls-3" cx="427.28" cy="195.46" r="19.09"/><circle class="cls-2" cx="427.28" cy="195.46" r="8.08"/><path class="cls-3" d="M427.28,149.06a46.39,46.39,0,0,0-46.39,46.4h9.52a36.87,36.87,0,0,1,73.74,0h9.52A46.4,46.4,0,0,0,427.28,149.06Z"/><rect class="cls-2" x="185.07" y="132.11" width="5.54" height="8.04"/><rect class="cls-2" x="172.68" y="132.11" width="5.54" height="8.04"/><rect class="cls-2" x="160.29" y="132.11" width="5.54" height="8.04"/><rect class="cls-2" x="147.91" y="132.11" width="5.54" height="8.04"/><rect class="cls-2" x="135.52" y="132.11" width="5.54" height="8.04"/><rect class="cls-2" x="123.13" y="132.11" width="5.54" height="8.04"/><rect class="cls-2" x="110.74" y="132.11" width="5.54" height="8.04"/><rect class="cls-2" x="98.35" y="132.11" width="5.54" height="8.04"/><rect class="cls-2" x="85.96" y="132.11" width="5.54" height="8.04"/><rect class="cls-2" x="73.57" y="132.11" width="5.54" height="8.04"/><rect class="cls-2" x="61.19" y="132.11" width="5.54" height="8.04"/><rect class="cls-2" x="48.8" y="132.11" width="5.54" height="8.04"/><rect class="cls-2" x="36.41" y="132.11" width="5.54" height="8.04"/><rect class="cls-2" x="24.02" y="132.11" width="5.54" height="8.04"/><rect class="cls-2" x="234.63" y="132.11" width="5.54" height="8.04"/><rect class="cls-2" x="222.24" y="132.11" width="5.54" height="8.04"/><rect class="cls-2" x="209.85" y="132.11" width="5.54" height="8.04"/><rect class="cls-2" x="197.46" y="132.11" width="5.54" height="8.04"/><rect class="cls-2" x="284.18" y="132.11" width="5.54" height="8.04"/><rect class="cls-2" x="271.79" y="132.11" width="5.54" height="8.04"/><rect class="cls-2" x="259.4" y="132.11" width="5.54" height="8.04"/><rect class="cls-2" x="247.01" y="132.11" width="5.54" height="8.04"/><rect class="cls-2" x="333.73" y="132.11" width="5.54" height="8.04"/><rect class="cls-2" x="321.34" y="132.11" width="5.54" height="8.04"/><rect class="cls-2" x="370.9" y="132.11" width="5.54" height="8.04"/><rect class="cls-2" x="358.51" y="132.11" width="5.54" height="8.04"/><rect class="cls-2" x="346.12" y="132.11" width="5.54" height="8.04"/><rect class="cls-2" x="308.96" y="132.11" width="5.54" height="8.04"/><rect class="cls-2" x="296.57" y="132.11" width="5.54" height="8.04"/></g><g id="Camion_2" data-name="Camion 2"><polygon class="cls-4" points="494.43 86.11 393.4 86.11 393.4 132.11 499.36 132.11 499.36 98.33 494.43 86.11"/><polygon class="cls-5" points="499.36 102.19 499.36 132.11 505.91 132.11 505.91 108.74 499.36 102.19"/><polygon class="cls-5" points="432.14 86.11 432.14 90.42 491.45 90.42 489.65 86.11 432.14 86.11"/><polygon class="cls-5" points="437.64 86.11 432.14 90.42 491.45 90.42 489.65 86.11 437.64 86.11"/><rect class="cls-4" x="18.4" y="86.11" width="368.54" height="46"/><rect class="cls-5" x="185.07" y="86.11" width="5.54" height="46"/><rect class="cls-5" x="172.68" y="86.11" width="5.54" height="46"/><rect class="cls-5" x="160.29" y="86.11" width="5.54" height="46"/><rect class="cls-5" x="147.91" y="86.11" width="5.54" height="46"/><rect class="cls-5" x="135.52" y="86.11" width="5.54" height="46"/><rect class="cls-5" x="123.13" y="86.11" width="5.54" height="46"/><rect class="cls-5" x="110.74" y="86.11" width="5.54" height="46"/><rect class="cls-5" x="98.35" y="86.11" width="5.54" height="46"/><rect class="cls-5" x="85.96" y="86.11" width="5.54" height="46"/><rect class="cls-5" x="73.57" y="86.11" width="5.54" height="46"/><rect class="cls-5" x="61.19" y="86.11" width="5.54" height="46"/><rect class="cls-5" x="48.8" y="86.11" width="5.54" height="46"/><rect class="cls-5" x="36.41" y="86.11" width="5.54" height="46"/><rect class="cls-5" x="24.02" y="86.11" width="5.54" height="46"/><rect class="cls-5" x="234.63" y="86.11" width="5.54" height="46"/><rect class="cls-5" x="222.24" y="86.11" width="5.54" height="46"/><rect class="cls-5" x="209.85" y="86.11" width="5.54" height="46"/><rect class="cls-5" x="197.46" y="86.11" width="5.54" height="46"/><rect class="cls-5" x="284.18" y="86.11" width="5.54" height="46"/><rect class="cls-5" x="271.79" y="86.11" width="5.54" height="46"/><rect class="cls-5" x="259.4" y="86.11" width="5.54" height="46"/><rect class="cls-5" x="247.01" y="86.11" width="5.54" height="46"/><rect class="cls-5" x="333.73" y="86.11" width="5.54" height="46"/><rect class="cls-5" x="321.34" y="86.11" width="5.54" height="46"/><rect class="cls-5" x="370.9" y="86.11" width="5.54" height="46"/><rect class="cls-5" x="358.51" y="86.11" width="5.54" height="46"/><rect class="cls-5" x="346.12" y="86.11" width="5.54" height="46"/><rect class="cls-5" x="308.96" y="86.11" width="5.54" height="46"/><rect class="cls-5" x="296.57" y="86.11" width="5.54" height="46"/><path class="cls-5" d="M451.85,105.66H436.3a4.16,4.16,0,1,0,0,8.33h15.55a4.16,4.16,0,1,0,0-8.33Z"/><rect class="cls-5" x="401.68" y="86.11" width="18.55" height="4.31"/></g><g id="Camion_1" data-name="Camion 1"><polygon class="cls-6" points="393.4 50.41 393.4 86.11 494.43 86.11 480 50.41 393.4 50.41"/><path class="cls-7" d="M472,33.52H393.4V50.41h95.94C489.34,41.54,478.34,36,472,33.52Z"/><polyline class="cls-8" points="467.47 30.44 467.47 32.01 467.47 33.52"/><polygon class="cls-9" points="432.14 55.44 432.14 86.11 489.65 86.11 476.83 55.44 432.14 55.44"/><polygon class="cls-10" points="437.64 86.11 489.65 86.11 476.83 55.44 437.64 86.11"/><rect class="cls-11" x="18.4" width="368.54" height="86.11"/><rect class="cls-7" x="185.07" y="8.13" width="5.54" height="77.98"/><rect class="cls-7" x="172.68" y="8.13" width="5.54" height="77.98"/><rect class="cls-7" x="160.29" y="8.13" width="5.54" height="77.98"/><rect class="cls-7" x="147.91" y="8.13" width="5.54" height="77.98"/><rect class="cls-7" x="135.52" y="8.13" width="5.54" height="77.98"/><rect class="cls-7" x="123.13" y="8.13" width="5.54" height="77.98"/><rect class="cls-7" x="110.74" y="8.13" width="5.54" height="77.98"/><rect class="cls-7" x="98.35" y="8.13" width="5.54" height="77.98"/><rect class="cls-7" x="85.96" y="8.13" width="5.54" height="77.98"/><rect class="cls-7" x="73.57" y="8.13" width="5.54" height="77.98"/><rect class="cls-7" x="61.19" y="8.13" width="5.54" height="77.98"/><rect class="cls-7" x="48.8" y="8.13" width="5.54" height="77.98"/><rect class="cls-7" x="36.41" y="8.13" width="5.54" height="77.98"/><rect class="cls-7" x="24.02" y="8.13" width="5.54" height="77.98"/><rect class="cls-7" x="234.63" y="8.13" width="5.54" height="77.98"/><rect class="cls-7" x="222.24" y="8.13" width="5.54" height="77.98"/><rect class="cls-7" x="209.85" y="8.13" width="5.54" height="77.98"/><rect class="cls-7" x="197.46" y="8.13" width="5.54" height="77.98"/><rect class="cls-7" x="284.18" y="8.13" width="5.54" height="77.98"/><rect class="cls-7" x="271.79" y="8.13" width="5.54" height="77.98"/><rect class="cls-7" x="259.4" y="8.13" width="5.54" height="77.98"/><rect class="cls-7" x="247.01" y="8.13" width="5.54" height="77.98"/><rect class="cls-7" x="333.73" y="8.13" width="5.54" height="77.98"/><rect class="cls-7" x="321.34" y="8.13" width="5.54" height="77.98"/><rect class="cls-7" x="370.9" y="8.13" width="5.54" height="77.98"/><rect class="cls-7" x="358.51" y="8.13" width="5.54" height="77.98"/><rect class="cls-7" x="346.12" y="8.13" width="5.54" height="77.98"/><rect class="cls-7" x="308.96" y="8.13" width="5.54" height="77.98"/><rect class="cls-7" x="296.57" y="8.13" width="5.54" height="77.98"/><rect class="cls-9" x="401.68" y="55.44" width="18.55" height="30.67"/></g></g></svg>