<svg xmlns="http://www.w3.org/2000/svg" viewBox="0 0 76.94 42.46"><defs><style>.cls-1{fill:#7e7f86;}.cls-2{fill:#a61350;}.cls-3{fill:#ec666d;}.cls-4{fill:#ffeab6;}.cls-5{fill:#3d224c;}.cls-6{fill:#4e4c51;}.cls-7{fill:#504e54;}.cls-8{fill:#2ddce0;}</style></defs><title>Moto</title><g id="Calque_2" data-name="Calque 2"><g id="Moto"><polygon class="cls-1" points="53.08 4.21 48.83 6.41 51.37 10.44 56.56 7.98 53.08 4.21"/><path class="cls-2" d="M13.22,16A13.22,13.22,0,1,0,26.44,29.24,13.22,13.22,0,0,0,13.22,16Zm0,21.53a8.31,8.31,0,1,1,8.31-8.31A8.31,8.31,0,0,1,13.22,37.56Z"/><path class="cls-2" d="M63.72,16A13.22,13.22,0,1,0,76.94,29.24,13.22,13.22,0,0,0,63.72,16Zm0,21.53A8.31,8.31,0,1,1,72,29.24,8.31,8.31,0,0,1,63.72,37.56Z"/><circle class="cls-3" cx="13.22" cy="29.24" r="4.43"/><circle class="cls-3" cx="63.72" cy="29.24" r="4.43"/><rect class="cls-4" x="41.1" y="0.43" width="1.41" height="3.18"/><rect class="cls-2" x="42.51" y="1.1" width="7.99" height="1.78"/><rect class="cls-5" x="18.73" y="8.27" width="15.92" height="5.4"/><rect class="cls-5" x="6.74" y="8.27" width="10.51" height="5.4"/><rect class="cls-3" x="3.4" y="11.61" width="30.07" height="4.81"/><polygon class="cls-2" points="2.33 21.75 0 21.75 3.4 16.42 10.72 16.42 2.33 21.75"/><path class="cls-3" d="M61.05,1.77V9.61a5,5,0,0,1-3.16,1.12h-.33a5,5,0,0,1,0-10h.33A5,5,0,0,1,61.05,1.77Z"/><ellipse class="cls-2" cx="32.45" cy="18.47" rx="8.06" ry="5.33"/><path class="cls-3" d="M52.44,11.38,49.12,4.48s-10.3-.33-15.66,3.79-.52,6.57-.52,6.57l16,1.59Z"/><rect class="cls-6" x="37.89" y="14.25" width="3.61" height="2.17"/><polygon class="cls-3" points="44.93 19.84 44.93 33.23 33.24 33.23 29.51 32.52 27.59 32.16 29.51 23.43 29.51 19.84 44.93 19.84"/><polygon class="cls-7" points="33.24 33.23 29.51 33.23 29.51 32.52 33.24 33.23"/><rect class="cls-8" x="12" y="16.02" width="2.38" height="13.22"/><polygon class="cls-3" points="21.54 16.42 28.55 27.82 29.06 25.49 23.75 16.42 21.54 16.42"/><path class="cls-3" d="M70.83,16.42A15,15,0,0,0,49.74,24H61.05Z"/><path class="cls-4" d="M63.11,26.24a1.05,1.05,0,0,1-.53,1.39h0a1.05,1.05,0,0,1-1.39-.53L50,2.14A1.05,1.05,0,0,1,50.54.75h0a1.05,1.05,0,0,1,1.39.53Z"/><rect class="cls-8" x="8.07" y="32.16" width="40.16" height="3.97"/><rect class="cls-4" x="46.14" y="23.22" width="2.1" height="12.91"/><rect class="cls-4" x="57.56" width="3.49" height="11.38"/><rect class="cls-8" x="38.47" y="15.65" width="10.36" height="8.38"/><rect class="cls-4" x="39.37" y="20.43" width="5.85" height="1.01"/><rect class="cls-4" x="39.37" y="22.13" width="5.85" height="1.01"/><rect class="cls-2" x="30.94" y="24.81" width="1.51" height="6.02"/><rect class="cls-2" x="33.89" y="24.81" width="1.51" height="6.02"/><circle class="cls-2" cx="41.8" cy="29.68" r="1.85"/></g></g></svg>