<svg xmlns="http://www.w3.org/2000/svg" viewBox="0 0 381.11 210.34"><defs><style>.cls-1{fill:#ec3e56;}.cls-2{fill:#a61350;}.cls-3{fill:#efca4d;}.cls-4{fill:#ec666d;}.cls-5{fill:#d4b448;}.cls-6{fill:#504e54;}.cls-7{fill:#46a18e;}.cls-8{fill:#47b19d;}.cls-9{fill:#ecd294;}.cls-10{fill:#ffeab6;}</style></defs><title>moto_graphique</title><g id="Calque_2" data-name="Calque 2"><g id="Moto_4" data-name="Moto 4"><path class="cls-1" d="M65.48,210.34A65.41,65.41,0,0,0,121.36,179H88.51a41.15,41.15,0,0,1-46.05,0H9.61A65.4,65.4,0,0,0,65.48,210.34Z"/><path class="cls-1" d="M315.62,210.34A65.41,65.41,0,0,0,371.5,179H338.65a41.15,41.15,0,0,1-46.05,0H259.75A65.4,65.4,0,0,0,315.62,210.34Z"/></g><g id="Moto_3" data-name="Moto 3"><path class="cls-2" d="M104,159.31A41.3,41.3,0,0,1,88.51,179h32.85a65.12,65.12,0,0,0,8-19.68Z"/><path class="cls-3" d="M26.93,159.31H1.62a65.12,65.12,0,0,0,8,19.68H42.46A41.3,41.3,0,0,1,26.93,159.31Z"/><path class="cls-3" d="M354.19,159.31A41.3,41.3,0,0,1,338.65,179H371.5a65.11,65.11,0,0,0,8-19.68Z"/><path class="cls-3" d="M277.06,159.31H251.76a65.12,65.12,0,0,0,8,19.68H292.6A41.3,41.3,0,0,1,277.06,159.31Z"/><path class="cls-4" d="M65.49,166.8A21.89,21.89,0,0,0,82,159.31H49A21.89,21.89,0,0,0,65.49,166.8Z"/><path class="cls-5" d="M315.62,166.8a21.89,21.89,0,0,0,16.51-7.49h-33A21.89,21.89,0,0,0,315.62,166.8Z"/><polygon class="cls-4" points="164.63 164.58 222.57 164.58 222.57 159.31 136.67 159.31 146.18 161.1 164.63 164.58"/><polygon class="cls-6" points="146.18 164.58 164.63 164.58 146.18 161.1 146.18 164.58"/><rect class="cls-5" x="39.99" y="159.31" width="198.94" height="19.68"/><rect class="cls-5" x="228.55" y="159.31" width="10.38" height="19.68"/></g><g id="Moto_2" data-name="Moto 2"><path class="cls-7" d="M115.42,102.5H15.56a65.4,65.4,0,0,0-13.94,56.8H26.93a41.18,41.18,0,1,1,77.12,0h25.31a65.4,65.4,0,0,0-13.94-56.8Z"/><path class="cls-7" d="M365.55,102.5H265.69a65.4,65.4,0,0,0-13.94,56.8h25.31a41.18,41.18,0,1,1,77.12,0h25.31a65.4,65.4,0,0,0-13.94-56.8Z"/><path class="cls-7" d="M65.49,122.91A21.94,21.94,0,0,0,49,159.31H82a21.94,21.94,0,0,0-16.51-36.4Z"/><path class="cls-7" d="M315.62,122.91a21.94,21.94,0,0,0-16.51,36.4h33a21.94,21.94,0,0,0-16.51-36.4Z"/><path class="cls-8" d="M160.74,117.88c16.11,0,30-6.3,36.29-15.38H124.45C130.76,111.58,144.63,117.88,160.74,117.88Z"/><polygon class="cls-7" points="146.18 102.5 146.18 116.06 136.66 159.31 136.67 159.31 222.57 159.31 222.57 102.5 146.18 102.5"/><rect class="cls-8" x="59.43" y="102.5" width="11.79" height="42.35"/><polygon class="cls-8" points="143.93 126.27 130.02 102.5 119.7 102.5 141.4 137.8 143.93 126.27"/><path class="cls-8" d="M302.43,119l21.24-16.53h-68A62.2,62.2,0,0,0,246.4,119Z"/><path class="cls-8" d="M310,136.89a5.21,5.21,0,0,0,2.63-6.89l-12.32-27.5H288.88l14.23,31.76A5.21,5.21,0,0,0,310,136.89Z"/><rect class="cls-8" x="228.55" y="115.04" width="10.38" height="44.27"/><rect class="cls-8" x="190.58" y="102.5" width="51.32" height="16.53"/><rect class="cls-8" x="195" y="109.61" width="28.96" height="5.01"/><rect class="cls-7" x="153.28" y="122.91" width="7.46" height="29.81"/><rect class="cls-7" x="167.89" y="122.91" width="7.46" height="29.81"/><circle class="cls-7" cx="207.07" cy="147.01" r="9.16"/></g><g id="Moto_1" data-name="Moto 1"><polygon class="cls-9" points="241.89 31.74 254.47 51.74 280.17 39.52 262.92 20.88 241.89 31.74"/><path class="cls-9" d="M65.48,79.37A65.32,65.32,0,0,0,15.56,102.5h99.86A65.33,65.33,0,0,0,65.48,79.37Z"/><path class="cls-9" d="M315.62,79.37a65.32,65.32,0,0,0-49.93,23.14h99.86A65.33,65.33,0,0,0,315.62,79.37Z"/><rect class="cls-10" x="203.59" y="2.13" width="6.97" height="15.77"/><rect class="cls-9" x="210.56" y="5.46" width="39.58" height="8.79"/><rect class="cls-9" x="92.77" y="40.94" width="78.84" height="26.77"/><rect class="cls-9" x="33.39" y="40.94" width="52.08" height="26.77"/><rect class="cls-9" x="16.85" y="57.49" width="148.93" height="23.85"/><polygon class="cls-9" points="16.85 81.34 3.35 102.5 19.79 102.5 53.08 81.34 16.85 81.34"/><path class="cls-10" d="M285.14,3.32a24.93,24.93,0,0,0,0,49.76c.54,0,1.08.06,1.63.06a24.84,24.84,0,0,0,15.66-5.53V8.79a24.84,24.84,0,0,0-15.66-5.53C286.22,3.26,285.68,3.28,285.14,3.32Z"/><path class="cls-10" d="M160.74,65.12c-22.05,0-39.93,11.81-39.93,26.38a19.14,19.14,0,0,0,3.64,11H197a19.14,19.14,0,0,0,3.64-11C200.67,76.93,182.79,65.12,160.74,65.12Z"/><path class="cls-10" d="M165.77,40.94c-26.51,20.43-2.59,32.54-2.59,32.54l79.28,7.85,17.3-24.94L243.33,22.17S192.29,20.51,165.77,40.94Z"/><rect class="cls-9" x="187.69" y="70.6" width="17.87" height="10.74"/><rect class="cls-10" x="59.43" y="79.37" width="11.79" height="23.14"/><polygon class="cls-10" points="106.68 81.34 119.7 102.5 130.02 102.5 117.64 81.34 106.68 81.34"/><path class="cls-10" d="M288.1,77.52a78.61,78.61,0,0,0-32.43,25h68l27.19-21.17S321,63.61,288.1,77.52Z"/><path class="cls-10" d="M250.34,3.71a5.21,5.21,0,0,0-2.63,6.89l41.16,91.9h11.43L257.23,6.34A5.21,5.21,0,0,0,250.34,3.71Z"/><rect class="cls-10" x="285.14" width="17.29" height="56.39"/><rect class="cls-10" x="190.58" y="77.52" width="51.32" height="24.98"/></g></g></svg>