<svg xmlns="http://www.w3.org/2000/svg" viewBox="0 0 89.21 246.86"><defs><style>.cls-1{fill:#ec3f56;}.cls-2{fill:#46a18e;}.cls-3{fill:#49b19d;}.cls-4{fill:#ecd294;}.cls-5{fill:#ffeab6;}</style></defs><title>personnage_graphique</title><g id="Calque_2" data-name="Calque 2"><g id="Personnage_3" data-name="Personnage 3"><path class="cls-1" d="M25.74,183.18,4.89,232.75l9.23,1.41s17.24-40.71,19.45-46.52c.27-.7.54-1,.8-1.85C38.87,177.21,38,171.6,38,171.6V160.34H28l.2,10.66A35.68,35.68,0,0,1,25.74,183.18Z"/><polygon class="cls-1" points="71.06 236.37 65.5 160.34 55.71 160.34 62.04 237.57 71.06 236.37"/><path class="cls-1" d="M3.57,232.76C.85,236.09,0,241.55,0,241.55l22.37,4.61L9.49,234.24Z"/><path class="cls-1" d="M68.52,236.71l-6.48.86s-1.9,4.94-.42,9.29l23-3.83Z"/><path class="cls-1" d="M9.49,234.24,16.71,237l3-4.61S12.53,229.36,9.49,234.24Z"/><path class="cls-1" d="M14.11,234.16l-4.62.08,12.88,11.92h.7c5.83,1.22,5.14-1.57,5.14-1.57Z"/><path class="cls-1" d="M68.52,236.71l7.3.32,1-5.57C68.07,231.45,68.52,236.71,68.52,236.71Z"/><path class="cls-1" d="M72.16,235.54l-3.64,1.16L84.6,243s5.66.55,4.44-3.16Z"/></g><g id="Personnage_2" data-name="Personnage 2"><path class="cls-2" d="M4.29,103.16A4.45,4.45,0,0,0,9,98.93l0-.75H.08l0,.31A4.45,4.45,0,0,0,4.29,103.16Z"/><path class="cls-2" d="M23.26,117.14a23.41,23.41,0,0,0,4.44-.94c3.08-.94,4.71-8.46,5.52-18H16L14.1,115.27S17.09,117.8,23.26,117.14Z"/><path class="cls-2" d="M14.1,115.27l2.48-17.08H5l-.08.89C4,109.14,14.1,115.27,14.1,115.27Z"/><polygon class="cls-2" points="37.98 142.11 54.22 142.11 55.71 160.34 65.5 160.34 64.14 141.72 64.14 128.78 27.64 128.78 27.61 142.11 27.95 160.34 37.98 160.34 37.98 142.11"/><rect class="cls-2" x="23.26" y="98.19" width="43.29" height="30.6"/><path class="cls-3" d="M28.37,111.27l11.33,2.83A8.3,8.3,0,0,0,44,115.27c4.21,0,7.62-3,7.62-6.73s-3.41-6.73-7.62-6.73a8.11,8.11,0,0,0-5.53,2.09c-1.45-.17-5.2-.83-12.26-3.46a6.59,6.59,0,0,1-3-2.26H13.79C15.58,103.3,19.64,108.53,28.37,111.27Z"/><polygon class="cls-2" points="64.14 136.85 64.14 128.78 27.7 128.78 64.14 136.85"/><path class="cls-3" d="M63.19,127.07c-.46,4.19,1.9,7.88,5.29,8.26s6.5-2.71,7-6.9a8.78,8.78,0,0,0-.78-4.81,232.92,232.92,0,0,0,3.27-25.43H69.48a153.58,153.58,0,0,1-3.2,23.11A8.37,8.37,0,0,0,63.19,127.07Z"/></g><g id="Personnage_1" data-name="Personnage 1"><path class="cls-4" d="M33.83,44.73H26.28a5.56,5.56,0,0,0-5.56,5.56v4.08h2.09V50.88a4.31,4.31,0,0,1,4.32-4.31H33a4.31,4.31,0,0,1,4.32,4.31v3.48h2.09V50.29A5.56,5.56,0,0,0,33.83,44.73Z"/><path class="cls-4" d="M5.48,79.09A4.45,4.45,0,0,0,.82,83.32L.08,98.19H9l.71-14.42A4.45,4.45,0,0,0,5.48,79.09Z"/><path class="cls-4" d="M33.19,52.2H23.26l-2,.27L16,98.19H33.22C34.82,79.23,33.19,52.2,33.19,52.2Z"/><path class="cls-4" d="M7.58,64.94S5.91,87.66,5,98.19H16.58l6.68-46C8.91,53.54,7.58,64.94,7.58,64.94Z"/><path class="cls-4" d="M63.16,52.93h0c-1-.17-2.13-.33-3.46-.48-1-.11-2.06-.21-3.21-.3-3.21-.25-7-.41-11.19-.41-2.54,0-5,0-7.24.1-1.12,0-2.2.07-3.21.13-6.89.32-11.57.94-11.57,1.64V98.19H66.54V54.1C66.54,53.72,65.32,53.31,63.16,52.93Z"/><path class="cls-4" d="M25.54,54.57a5.28,5.28,0,0,0-2.28-.39c-7.67.44-10.18,19.52-10.18,19.52l7.14,2.19L23.79,77S32.8,57.39,25.54,54.57Z"/><path class="cls-4" d="M45.29,51.74c-2.54,0-5,0-7.24.1-1.12,0-2.2.07-3.21.13.13,6.21,5.64,11.21,12.43,11.21,6.61,0,12-4.75,12.42-10.74-1-.11-2.06-.21-3.21-.3C53.27,51.9,49.46,51.74,45.29,51.74Z"/><path class="cls-5" d="M38,51.84c.06,4.34,4.17,7.85,9.22,7.85s9-3.33,9.22-7.54c-3.21-.25-7-.41-11.19-.41C42.75,51.74,40.31,51.78,38,51.84Z"/><path class="cls-5" d="M23.26,76.82l-7.8-2.38L13.08,84.61a26,26,0,0,0,.71,13.58H23.2C18.41,91.84,23.26,76.82,23.26,76.82Z"/><path class="cls-4" d="M25.54,54.57a5.28,5.28,0,0,0-2.28-.39s3.72,3.91-3,21.7L23.79,77S32.8,57.39,25.54,54.57Z"/><path class="cls-4" d="M49.89,79.77a2.78,2.78,0,0,0,2.78,2.78H56.9a2.78,2.78,0,0,0,2.78-2.78V74.44H49.89Z"/><rect class="cls-4" x="49.89" y="70.65" width="9.79" height="3.79"/><path class="cls-4" d="M25.51,52.2S39.76,68.67,21.9,86.53V92.2s24.49-17,9-40Z"/><path class="cls-5" d="M77.25,75.28l-7.58-.84a194.28,194.28,0,0,1-.19,23.75h8.45C78.48,90.14,78.52,81.74,77.25,75.28Z"/><path class="cls-4" d="M71.07,54a6.42,6.42,0,0,0-2.26-.3,7.9,7.9,0,0,0-2.26.41V76.2H78L75.45,60.67C74.87,56.35,73,54.6,71.07,54Z"/><path class="cls-4" d="M68.8,53.7a7.9,7.9,0,0,0-2.26.41V76.2h4.52V54A6.42,6.42,0,0,0,68.8,53.7Z"/><polygon class="cls-4" points="63.7 57.42 63.7 94.57 69.32 94.57 69.32 57.51 69.32 53.3 63.7 53.3 63.7 57.42"/><rect class="cls-4" x="42.36" y="41.97" width="9.79" height="15.17"/><rect class="cls-4" x="38.68" y="13" width="24.25" height="23.61"/><path class="cls-4" d="M53.83,33l-2.15-.85-1.92.66L38.68,36.61l-5.23-5.23v8.87l11,8.49,7.18,1.18c7.36,0,11.3-10.12,11.3-10.12V36.61L53.83,33Z"/><path class="cls-4" d="M49.94,1.11S34.25,4.6,33.45,18.23l9-3,8.32,4.6,8.64-3.65L62.93,19V3.17L57.07,4.91V0L49.94,3Z"/><path class="cls-4" d="M51.84,34.55s5.23-.63,0-9.75C46.61,33.92,51.84,34.55,51.84,34.55Z"/><rect class="cls-4" x="40.41" y="19.77" width="6.58" height="1.83" transform="translate(-4.63 22.01) rotate(-26.9)"/><rect class="cls-4" x="57.51" y="19.01" width="1.83" height="6.25" transform="translate(11.76 63.67) rotate(-62.42)"/><polygon class="cls-4" points="33.45 31.38 38.68 36.61 38.68 16.48 33.45 18.23 33.45 31.38"/><path class="cls-4" d="M44.72,24.89a3,3,0,0,0-3,3h.61a2.37,2.37,0,1,1,4.75,0h.61A3,3,0,0,0,44.72,24.89Z"/><path class="cls-4" d="M58.33,24.89a3,3,0,0,0-3,3H56a2.37,2.37,0,1,1,4.75,0h.61A3,3,0,0,0,58.33,24.89Z"/><path class="cls-4" d="M42.36,35.35c-4.59,1.27-8.91-4-8.91-4L42.36,42S47.72,33.87,42.36,35.35Z"/><path class="cls-4" d="M45.8,40.06l-12.35.19c0,3.39,5.29,6.77,11,8.49a25.61,25.61,0,0,0,7.18,1.18c7.36,0,11.3-10.12,11.3-10.12l-6.84.11Z"/><path class="cls-4" d="M50.9,42.84A6.07,6.07,0,0,0,57,36.76H44.83A6.07,6.07,0,0,0,50.9,42.84Z"/></g></g></svg>