<svg xmlns="http://www.w3.org/2000/svg" viewBox="0 0 33.95 93.95"><defs><style>.cls-1{fill:#3d224c;}.cls-2{fill:#a5154f;}.cls-3{fill:#ec666d;}.cls-4{fill:#2ddce0;}.cls-5{fill:#ffeab6;}.cls-6{fill:#3f70b6;}.cls-7{fill:#13110c;}.cls-8{fill:#fff;}</style></defs><title>Personne</title><g id="Calque_2" data-name="Calque 2"><g id="Personnage"><path class="cls-1" d="M15,19.14v1.55h-.8V19.36a1.64,1.64,0,0,0-1.64-1.64H10.33a1.64,1.64,0,0,0-1.64,1.64v1.33h-.8V19.14A2.12,2.12,0,0,1,10,17h2.87A2.12,2.12,0,0,1,15,19.14Z"/><path class="cls-2" d="M3.41,37.65a1.69,1.69,0,0,1-1.78,1.61h0A1.69,1.69,0,0,1,0,37.48l.29-5.77A1.69,1.69,0,0,1,2.09,30.1h0A1.69,1.69,0,0,1,3.7,31.88Z"/><path class="cls-2" d="M8.85,19.87h3.78S14,43.15,10.54,44.22a8.91,8.91,0,0,1-1.69.36,4.78,4.78,0,0,1-3.49-.71L8.09,20Z"/><path class="cls-3" d="M5.36,43.87s-3.86-2.33-3.5-6.16,1-13,1-13,.51-4.34,6-4.85Z"/><path class="cls-2" d="M27,90l-3.43.46-3-36.33H14.45V65.31s.34,2.14-1.37,5.4c-.1.31-.2.44-.3.71-.84,2.21-7.4,17.7-7.4,17.7l-3.51-.54L9.8,69.71a13.58,13.58,0,0,0,.92-4.64l-.2-11V49H24.41v4.92Z"/><path class="cls-4" d="M1.36,88.58l2.25.56,4.9,4.54L0,91.93A8.17,8.17,0,0,1,1.36,88.58Z"/><path class="cls-4" d="M23.45,93.95l8.74-1.46-6.12-2.41-2.46.33A5.92,5.92,0,0,0,23.45,93.95Z"/><path class="cls-4" d="M25.33,20.59V49H8.85V20.4c0-.27,1.78-.5,4.4-.62l1.22,0c.86,0,1.79,0,2.76,0,1.59,0,3,.06,4.26.16l1.22.11c.5.06.94.12,1.31.18h0C24.86,20.29,25.33,20.45,25.33,20.59Z"/><path class="cls-4" d="M9.06,29.3l-1.36-.42L5,28s1-7.26,3.87-7.43a2,2,0,0,1,.87.15C12.48,21.84,9.06,29.3,9.06,29.3Z"/><path class="cls-3" d="M22.71,20A4.59,4.59,0,0,1,18,24a4.56,4.56,0,0,1-4.73-4.27l1.22,0c.86,0,1.79,0,2.76,0,1.59,0,3,.06,4.26.16Z"/><path class="cls-5" d="M21.49,19.85A3.33,3.33,0,0,1,18,22.72a3.3,3.3,0,0,1-3.51-3c.86,0,1.79,0,2.76,0C18.82,19.69,20.27,19.75,21.49,19.85Z"/><path class="cls-5" d="M19.65,41.31a2.75,2.75,0,0,1-2.9,2.56,3.16,3.16,0,0,1-1.64-.45L10.8,42.34C3,39.9,5,32.2,5,32.2l.91-3.87,3,.91s-2.47,7.65,1.12,9a21.4,21.4,0,0,0,4.67,1.32,3.09,3.09,0,0,1,2.1-.8A2.75,2.75,0,0,1,19.65,41.31Z"/><path class="cls-3" d="M9.06,29.3l-1.36-.42c2.57-6.77,1.16-8.26,1.16-8.26a2,2,0,0,1,.87.15C12.48,21.84,9.06,29.3,9.06,29.3Z"/><polygon class="cls-3" points="10.54 49.01 24.41 52.08 24.41 49.01 10.54 49.01"/><path class="cls-4" d="M22.71,28.33v2a1.06,1.06,0,0,1-1.06,1.06H20A1.06,1.06,0,0,1,19,30.36v-2Z"/><rect class="cls-3" x="18.99" y="26.89" width="3.73" height="1.44"/><path class="cls-5" d="M6.36,90.2l1.16-1.76s-2.75-1.16-3.91.7Z"/><path class="cls-5" d="M5.37,89.12l5.36,4s.26,1.06-2,.6H8.51l-4.9-4.54Z"/><path class="cls-5" d="M28.85,90.2l-2.78-.12s-.17-2,3.17-2Z"/><path class="cls-5" d="M26.08,90.08l6.12,2.41s2.15.21,1.69-1.2l-6.43-1.65Z"/><path class="cls-1" d="M9.71,19.87s5.42,6.27-1.37,13.06v2.16s9.32-6.46,3.41-15.22Z"/><path class="cls-5" d="M28.71,48.88a2.67,2.67,0,0,1-2.65,2.63,2.67,2.67,0,0,1-2-3.14,3.19,3.19,0,0,1,1.18-2.2,71,71,0,0,0,1.29-17.83l2.88.32c1.15,5.9-.53,16-1,18.4A3.34,3.34,0,0,1,28.71,48.88Z"/><path class="cls-4" d="M29.69,29H25.33V20.59a3,3,0,0,1,.86-.16,2.44,2.44,0,0,1,.86.11c.72.23,1.45.9,1.67,2.54Z"/><path class="cls-6" d="M27,20.55V29H25.33V20.59a3,3,0,0,1,.86-.16A2.44,2.44,0,0,1,27,20.55Z"/><polygon class="cls-1" points="26.38 20.29 26.38 21.89 26.38 21.89 26.38 35.99 24.24 35.99 24.24 21.85 24.24 21.85 24.24 20.29 26.38 20.29"/><rect class="cls-5" x="16.12" y="15.97" width="3.72" height="5.77"/><rect class="cls-5" x="14.72" y="4.95" width="9.23" height="8.99"/><path class="cls-3" d="M19.65,19c2.8,0,4.3-3.85,4.3-3.85V13.93l-3.46-1.37h0l-.82-.32-.73.25-4.21,1.44-2-2v3.38l4.19,3.23Z"/><path class="cls-3" d="M12.73,6.94l3.44-1.15,3.17,1.75,3.29-1.39,1.33,1.09v-6l-2.23.66V0L19,1.15V.42S13,1.75,12.73,6.94Z"/><path class="cls-2" d="M19.73,9.44c2,3.47,0,3.71,0,3.71S17.74,12.91,19.73,9.44Z"/><rect class="cls-3" x="15.38" y="7.52" width="2.5" height="0.7" transform="translate(-1.76 8.38) rotate(-26.9)"/><rect class="cls-3" x="21.89" y="7.23" width="0.7" height="2.38" transform="translate(4.47 24.23) rotate(-62.42)"/><polygon class="cls-3" points="12.73 6.94 12.73 11.94 14.72 13.93 14.72 6.27 12.73 6.94"/><path class="cls-7" d="M18.16,10.61h-.23a.9.9,0,1,0-1.81,0h-.23a1.14,1.14,0,0,1,2.27,0Z"/><path class="cls-7" d="M23.34,10.61H23.1a.9.9,0,1,0-1.81,0h-.23a1.14,1.14,0,1,1,2.27,0Z"/><path class="cls-3" d="M12.73,11.94s1.64,2,3.39,1.51c2-.57,0,2.52,0,2.52Z"/><path class="cls-3" d="M23.95,15.15S22.45,19,19.65,19a9.75,9.75,0,0,1-2.73-.45c-2.17-.66-4.19-1.94-4.19-3.23l4.7-.07,3.92-.06Z"/><path class="cls-8" d="M21.68,14a2.31,2.31,0,1,1-4.62,0Z"/></g></g></svg>