<svg xmlns="http://www.w3.org/2000/svg" viewBox="0 0 337.99 97.65"><defs><style>.cls-1{fill:#ef656c;}.cls-2{fill:#ec3e56;}.cls-3{fill:#efca4d;}.cls-4{fill:#d4b447;}.cls-5,.cls-6{fill:none;stroke-miterlimit:10;}.cls-5{stroke:#d4b447;}.cls-6{stroke:#ffeab6;stroke-width:2.02px;}.cls-7{fill:#47b19d;}.cls-8{fill:#ffeab6;}</style></defs><title>train_graphique</title><g id="Calque_2" data-name="Calque 2"><g id="Train_4" data-name="Train 4"><path class="cls-1" d="M84.89,95.19a2.25,2.25,0,0,0,2.25,2.25h248.6A2.25,2.25,0,0,0,338,95.19V89.37H84.89Z"/><path class="cls-1" d="M89.43,97.44V89.37H.88C10.1,99.69,89.43,97.44,89.43,97.44Z"/><rect class="cls-2" y="89.37" width="337.99" height="8.07"/></g><g id="Train_3" data-name="Train 3"><rect class="cls-3" x="84.89" y="34.17" width="253.1" height="55.2"/><rect class="cls-3" x="84.89" y="34.17" width="253.1" height="15.19"/><path class="cls-4" d="M109.56,59.48h36.7a4.44,4.44,0,0,0,4.43-4.43V34.17H105.13V55.05A4.44,4.44,0,0,0,109.56,59.48Z"/><path class="cls-4" d="M185.49,59.48H250a4.44,4.44,0,0,0,4.43-4.43V34.17h-73.4V55.05A4.44,4.44,0,0,0,185.49,59.48Z"/><path class="cls-4" d="M241.81,59.48a12.69,12.69,0,0,0,12.66-12.66V39.23a12.53,12.53,0,0,0-1.07-5.06H230.71l-37,25.31Z"/><path class="cls-5" d="M300,53.66H286.12a2.55,2.55,0,0,0-2.55,2.55V89.37h19V56.21A2.55,2.55,0,0,0,300,53.66Z"/><circle class="cls-4" cx="296.23" cy="70.87" r="2.53"/><path class="cls-3" d="M38.19,34.17C18.74,50.31,0,70.28,0,87.32a3.06,3.06,0,0,0,.88,2.05H89.43V34.17Z"/><path class="cls-3" d="M.93,80.47h88.5V59H12.93S2.49,71.73.93,80.47Z"/><path class="cls-4" d="M17,54.21H69.92A2.21,2.21,0,0,0,72.13,52V34.17H38.29l-4.18,3.45A228.79,228.79,0,0,0,17,54.21Z"/><path class="cls-4" d="M72.13,52.49V34.17H54.43L71,52.92A.65.65,0,0,0,72.13,52.49Z"/><path class="cls-4" d="M13.46,64H9.16A46.41,46.41,0,0,0,4.22,73h9.12a1.85,1.85,0,0,0,1.85-1.85V65.76A1.73,1.73,0,0,0,13.46,64Z"/><path class="cls-6" d="M283.57,89.83a2.55,2.55,0,0,0,2.55,2.55H300a2.55,2.55,0,0,0,2.55-2.55v-.46h-19Z"/></g><g id="Train_2" data-name="Train 2"><rect class="cls-7" x="84.89" y="15.54" width="253.1" height="18.63"/><path class="cls-7" d="M62.92,15.54C55.59,20.6,46.82,27,38.19,34.17H89.43V15.54Z"/><path class="cls-7" d="M150.69,31a4.44,4.44,0,0,0-4.43-4.43h-36.7A4.44,4.44,0,0,0,105.13,31v3.17h45.56Z"/><path class="cls-7" d="M254.46,31A4.44,4.44,0,0,0,250,26.58H185.49A4.44,4.44,0,0,0,181.06,31v3.17h73.4Z"/><path class="cls-7" d="M241.81,26.58l-11.1,7.59h22.68A12.69,12.69,0,0,0,241.81,26.58Z"/><path class="cls-7" d="M70.24,26.58H47.72s-3.92,3.07-9.44,7.59H72.13V28.47A1.9,1.9,0,0,0,70.24,26.58Z"/><path class="cls-7" d="M70.39,26.58H47.72l6.71,7.59h17.7V28.32A1.74,1.74,0,0,0,70.39,26.58Z"/></g><g id="Train_1" data-name="Train 1"><path class="cls-8" d="M335.74,3.8H87.14A2.25,2.25,0,0,0,84.89,6v9.49H338V6A2.25,2.25,0,0,0,335.74,3.8Z"/><rect class="cls-8" x="121.58" width="179.7" height="5.06" rx="0.68" ry="0.68"/><path class="cls-8" d="M82.09,3.8a3.89,3.89,0,0,0-2,.57C77.72,5.78,71.24,9.8,62.92,15.54H89.43V3.8Z"/></g></g></svg>