<svg xmlns="http://www.w3.org/2000/svg" viewBox="0 0 566.59 38.18"><defs><style>.cls-1{fill:#ef656c;}.cls-2{fill:#a5154f;}.cls-3,.cls-6{fill:none;stroke:#ffeab6;}.cls-3,.cls-4,.cls-6{stroke-miterlimit:10;}.cls-3,.cls-4{stroke-width:0.99px;}.cls-4,.cls-7{fill:#ffeab6;}.cls-4{stroke:#a5154f;}.cls-5{fill:#2ddce0;}.cls-6{stroke-width:0.79px;}</style></defs><title>Train</title><g id="Calque_2" data-name="Calque 2"><g id="Train"><rect class="cls-1" x="33.19" y="1.48" width="98.96" height="36.62" rx="2.25" ry="2.25"/><rect class="cls-2" x="33.19" y="13.36" width="98.96" height="5.94"/><line class="cls-3" x1="132.15" y1="11.38" x2="33.19" y2="11.38"/><rect class="cls-4" x="41.11" y="10.39" width="17.81" height="12.86" rx="4.43" ry="4.43"/><path class="cls-5" d="M54,10.39a5,5,0,0,1,4.95,4.95v3A5,5,0,0,1,54,23.26H46.05a5,5,0,0,1-4.95-4.95"/><rect class="cls-4" x="70.79" y="10.39" width="28.7" height="12.86" rx="4.43" ry="4.43"/><path class="cls-5" d="M94.55,10.39a5,5,0,0,1,4.95,4.95v3a5,5,0,0,1-4.95,4.95H75.74"/><rect class="cls-2" x="47.54" width="70.26" height="1.98" rx="0.68" ry="0.68"/><rect class="cls-6" x="110.87" y="20.98" width="7.42" height="15.14" rx="2.55" ry="2.55"/><circle class="cls-7" cx="115.82" cy="27.71" r="0.99"/><rect class="cls-1" x="134.13" y="1.48" width="98.96" height="36.62" rx="2.25" ry="2.25"/><rect class="cls-2" x="134.13" y="13.36" width="98.96" height="5.94"/><line class="cls-3" x1="233.09" y1="11.38" x2="134.13" y2="11.38"/><rect class="cls-4" x="142.05" y="10.39" width="17.81" height="12.86" rx="4.43" ry="4.43"/><path class="cls-5" d="M154.91,10.39a5,5,0,0,1,4.95,4.95v3a5,5,0,0,1-4.95,4.95H147A5,5,0,0,1,142,18.31"/><rect class="cls-4" x="171.73" y="10.39" width="28.7" height="12.86" rx="4.43" ry="4.43"/><path class="cls-5" d="M195.49,10.39a5,5,0,0,1,4.95,4.95v3a5,5,0,0,1-4.95,4.95h-18.8"/><rect class="cls-2" x="148.48" width="70.26" height="1.98" rx="0.68" ry="0.68"/><rect class="cls-1" x="235.07" y="1.48" width="98.96" height="36.62" rx="2.25" ry="2.25"/><rect class="cls-2" x="235.07" y="13.36" width="98.96" height="5.94"/><line class="cls-3" x1="334.03" y1="11.38" x2="235.07" y2="11.38"/><rect class="cls-4" x="242.99" y="10.39" width="17.81" height="12.86" rx="4.43" ry="4.43"/><path class="cls-5" d="M255.85,10.39a5,5,0,0,1,4.95,4.95v3a5,5,0,0,1-4.95,4.95h-7.92A5,5,0,0,1,243,18.31"/><rect class="cls-4" x="272.67" y="10.39" width="28.7" height="12.86" rx="4.43" ry="4.43"/><path class="cls-5" d="M296.43,10.39a5,5,0,0,1,4.95,4.95v3a5,5,0,0,1-4.95,4.95h-18.8"/><rect class="cls-2" x="249.42" width="70.26" height="1.98" rx="0.68" ry="0.68"/><rect class="cls-6" x="312.75" y="20.98" width="7.42" height="15.14" rx="2.55" ry="2.55"/><circle class="cls-7" cx="317.7" cy="27.71" r="0.99"/><rect class="cls-1" x="336.01" y="1.48" width="98.96" height="36.62" rx="2.25" ry="2.25"/><rect class="cls-2" x="336.01" y="13.36" width="98.96" height="5.94"/><line class="cls-3" x1="434.97" y1="11.38" x2="336.01" y2="11.38"/><rect class="cls-4" x="343.93" y="10.39" width="17.81" height="12.86" rx="4.43" ry="4.43"/><path class="cls-5" d="M356.79,10.39a5,5,0,0,1,4.95,4.95v3a5,5,0,0,1-4.95,4.95h-7.92a5,5,0,0,1-4.95-4.95"/><rect class="cls-4" x="373.61" y="10.39" width="28.7" height="12.86" rx="4.43" ry="4.43"/><path class="cls-5" d="M397.37,10.39a5,5,0,0,1,4.95,4.95v3a5,5,0,0,1-4.95,4.95h-18.8"/><rect class="cls-2" x="350.36" width="70.26" height="1.98" rx="0.68" ry="0.68"/><rect class="cls-1" x="436.95" y="1.48" width="98.96" height="36.62" rx="2.25" ry="2.25"/><rect class="cls-2" x="436.95" y="13.36" width="98.96" height="5.94"/><line class="cls-3" x1="535.91" y1="11.38" x2="436.95" y2="11.38"/><rect class="cls-4" x="444.87" y="10.39" width="17.81" height="12.86" rx="4.43" ry="4.43"/><path class="cls-5" d="M457.73,10.39a5,5,0,0,1,4.95,4.95v3a5,5,0,0,1-4.95,4.95h-7.92a5,5,0,0,1-4.95-4.95"/><rect class="cls-4" x="474.55" y="10.39" width="28.7" height="12.86" rx="4.43" ry="4.43"/><path class="cls-5" d="M498.31,10.39a5,5,0,0,1,4.95,4.95v3a5,5,0,0,1-4.95,4.95H479.5"/><rect class="cls-2" x="451.3" width="70.26" height="1.98" rx="0.68" ry="0.68"/><path class="cls-1" d="M534.49,1.48a1.52,1.52,0,0,1,.8.22c3.53,2.15,31.3,19.46,31.3,32.44,0,4.95-35,4-35,4V1.48Z"/><path class="cls-2" d="M561.53,23.06s4.08,5,4.69,8.4h-34.6v-8.4Z"/><path class="cls-7" d="M547.37,10.39h-8.25a.74.74,0,0,0-.74.74v9.2a.87.87,0,0,0,.87.87h20.69a89.47,89.47,0,0,0-6.69-6.49c-3-2.48-5.32-4.32-5.32-4.32Z"/><path class="cls-5" d="M547.93,10.39l-9.1,10.3a.25.25,0,0,1-.45-.17V11.07a.68.68,0,0,1,.68-.68Z"/><path class="cls-7" d="M563,25a18.14,18.14,0,0,1,1.93,3.5h-3.57a.72.72,0,0,1-.72-.72v-2.1a.68.68,0,0,1,.68-.68Z"/><path class="cls-1" d="M32.1,1.48a1.52,1.52,0,0,0-.8.22C27.77,3.85,0,21.17,0,34.14c0,4.95,35,4,35,4V1.48Z"/><path class="cls-2" d="M5.05,23.06S1,28,.36,31.47H35v-8.4Z"/><path class="cls-7" d="M19.21,10.39h8.25a.74.74,0,0,1,.74.74v9.2a.87.87,0,0,1-.87.87H6.65a89.47,89.47,0,0,1,6.69-6.49c3-2.48,5.32-4.32,5.32-4.32Z"/><path class="cls-5" d="M18.66,10.39l9.1,10.3a.25.25,0,0,0,.45-.17V11.07a.68.68,0,0,0-.68-.68Z"/><path class="cls-7" d="M3.58,25a18.14,18.14,0,0,0-1.93,3.5H5.22a.72.72,0,0,0,.72-.72v-2.1A.68.68,0,0,0,5.26,25Z"/></g></g></svg>