<svg xmlns="http://www.w3.org/2000/svg" viewBox="0 0 141.61 49.16"><defs><style>.cls-1{fill:#ffeab6;}.cls-2{fill:#3d224c;}.cls-3{fill:#a61350;}.cls-4{fill:#fefffe;}.cls-5{fill:#ec666d;}.cls-6{fill:#fffffd;}.cls-7{fill:none;stroke:#a71351;stroke-miterlimit:10;stroke-width:1.5px;}</style></defs><title>Voiture</title><g id="Calque_2" data-name="Calque 2"><g id="Voiture"><path class="cls-1" d="M141.61,35V24.7S141,18,96.49,14.28L70.65.57s-21-1.29-28.91,0S28.24,11.42,14.11,11.42H3.25V23l-1.2,1.24V35Z"/><rect class="cls-2" x="2.06" y="35.02" width="139.55" height="3.67"/><circle class="cls-3" cx="118.67" cy="37.55" r="11.61"/><circle class="cls-4" cx="118.67" cy="37.55" r="7.47"/><circle class="cls-5" cx="118.67" cy="37.55" r="5.98"/><circle class="cls-4" cx="118.67" cy="37.55" r="2.53"/><path class="cls-2" d="M104.14,37.55h3a11.54,11.54,0,0,1,23.08,0h3a14.52,14.52,0,1,0-29,0Z"/><circle class="cls-3" cx="30.14" cy="37.55" r="11.61"/><circle class="cls-4" cx="30.14" cy="37.55" r="7.47"/><circle class="cls-5" cx="30.14" cy="37.55" r="5.98"/><circle class="cls-6" cx="30.14" cy="37.55" r="2.53"/><path class="cls-2" d="M15.61,37.55h3a11.54,11.54,0,0,1,23.08,0h3a14.52,14.52,0,1,0-29,0Z"/><path class="cls-1" d="M134.06,24.91h7.54v7.31S134.06,32.3,134.06,24.91Z"/><path class="cls-5" d="M32.66,17.51H94.23L69.4,4.08H52.85s-12.1,0-20.18,5.47Z"/><polygon class="cls-3" points="73.06 6.06 94.23 17.51 32.66 17.51 73.06 6.06"/><rect class="cls-3" x="52.85" y="2.83" width="4.22" height="17.8"/><line class="cls-7" x1="54.95" y1="0.01" x2="54.95" y2="35.02"/><rect class="cls-3" x="57.06" y="19.53" width="5.44" height="1.91"/><rect class="cls-1" x="3.25" y="13.53" width="2.59" height="9.5"/><rect class="cls-3" y="27.64" width="2.06" height="7.38"/></g></g></svg>