<svg xmlns="http://www.w3.org/2000/svg" viewBox="0 0 468.26 162.55"><defs><style>.cls-1{fill:#ec3e56;}.cls-2{fill:#efca4d;}.cls-3{fill:#d4b446;}.cls-4{fill:#47b19d;}.cls-5{fill:#42a08e;}.cls-6{fill:#43a08e;}.cls-7{fill:#4cbca6;}.cls-8{fill:#ffeab6;}.cls-9{fill:#fde2a0;}.cls-10{fill:#ecd294;}</style></defs><title>voiture_graphique</title><g id="Calque_2" data-name="Calque 2"><g id="Voiture_4" data-name="Voiture 4"><path class="cls-1" d="M392.4,162.55a38.38,38.38,0,0,0,34.91-22.43H357.49A38.38,38.38,0,0,0,392.4,162.55Z"/><path class="cls-1" d="M392.4,148.87a24.64,24.64,0,0,0,18.86-8.75H373.55A24.64,24.64,0,0,0,392.4,148.87Z"/><path class="cls-1" d="M392.4,143.93A19.65,19.65,0,0,0,404,140.12H380.77A19.65,19.65,0,0,0,392.4,143.93Z"/><path class="cls-1" d="M99.65,162.55a38.38,38.38,0,0,0,34.91-22.43H64.74A38.38,38.38,0,0,0,99.65,162.55Z"/><path class="cls-1" d="M99.65,148.87c7.56,0,14.32-1.92,18.86-4.94H80.8C85.33,147,92.09,148.87,99.65,148.87Z"/><path class="cls-1" d="M99.65,143.93a19.65,19.65,0,0,0,11.63-3.81H88A19.65,19.65,0,0,0,99.65,143.93Z"/></g><g id="Voiture_3" data-name="Voiture 3"><rect class="cls-2" x="6.8" y="85.79" width="461.46" height="30.02"/><rect class="cls-3" x="6.8" y="115.81" width="461.46" height="12.12"/><path class="cls-2" d="M392.42,85.79a38.38,38.38,0,0,0-35,54.3l69.82.06a38.38,38.38,0,0,0-34.86-54.36Z"/><path class="cls-3" d="M392.4,99.47a24.7,24.7,0,0,0-18.86,40.65h37.71A24.7,24.7,0,0,0,392.4,99.47Z"/><path class="cls-2" d="M412.16,124.17a19.76,19.76,0,1,0-31.39,15.95H404A19.71,19.71,0,0,0,412.16,124.17Z"/><circle class="cls-3" cx="392.4" cy="124.17" r="8.36"/><path class="cls-3" d="M344.38,124.17h9.86a38.16,38.16,0,0,1,76.32,0h9.86a48,48,0,0,0-19.16-38.38H363.55A48,48,0,0,0,344.38,124.17Z"/><path class="cls-2" d="M99.65,85.79a38.38,38.38,0,0,0-34.91,54.33h69.82A38.38,38.38,0,0,0,99.65,85.79Z"/><path class="cls-3" d="M99.65,99.47A24.7,24.7,0,0,0,80.8,140.12h37.71A24.7,24.7,0,0,0,99.65,99.47Z"/><path class="cls-2" d="M119.41,124.17A19.76,19.76,0,1,0,88,140.12h23.26A19.71,19.71,0,0,0,119.41,124.17Z"/><circle class="cls-3" cx="99.65" cy="124.17" r="8.36"/><path class="cls-3" d="M51.63,124.17h9.86a38.16,38.16,0,0,1,76.32,0h9.86a48,48,0,0,0-19.16-38.38H70.8A48,48,0,0,0,51.63,124.17Z"/><path class="cls-3" d="M468.26,106.54V85.79H443.51C445.73,106.77,468.26,106.54,468.26,106.54Z"/><rect class="cls-2" y="91.42" width="6.8" height="24.4"/></g><g id="Voiture_2" data-name="Voiture 2"><path class="cls-4" d="M319.08,47.22l-4.68-2.48H10.76V76.15l-4,4.12v5.52H468.26v-4.1S466.4,59.49,319.08,47.22Z"/><path class="cls-5" d="M363.55,85.79h57.71a48,48,0,0,0-57.71,0Z"/><path class="cls-5" d="M70.8,85.79h57.71a48,48,0,0,0-57.71,0Z"/><path class="cls-5" d="M443.31,82.36a32.2,32.2,0,0,0,.19,3.43h24.75V82.36Z"/><polygon class="cls-6" points="311.6 57.91 287.25 44.73 108.01 44.73 108.01 57.91 311.6 57.91"/><polygon class="cls-7" points="311.6 57.91 287.25 44.73 154.46 44.73 108.01 57.91 311.6 57.91"/><rect class="cls-5" x="174.75" y="44.74" width="13.94" height="23.5"/><rect class="cls-5" x="188.69" y="64.57" width="17.98" height="6.3"/><rect class="cls-5" x="10.76" y="44.74" width="8.57" height="31.42"/></g><g id="Voiture_1" data-name="Voiture 1"><path class="cls-8" d="M138,1.89C111.8,6.14,93.39,37.77,46.64,37.77H10.76v7H314.41L233.62,1.89S164.27-2.36,138,1.89Z"/><path class="cls-9" d="M174.75,13.49s-40,0-66.74,18.07V44.74H287.25L229.49,13.49Z"/><polygon class="cls-10" points="154.46 44.73 287.25 44.73 241.58 20.03 154.46 44.73"/><rect class="cls-8" x="174.75" y="9.36" width="13.94" height="35.38"/></g></g></svg>