<svg xmlns="http://www.w3.org/2000/svg" viewBox="0 0 102.36 130"><defs><style>.cls-1{fill:#fff;}</style></defs><title>2</title><g id="Calque_2" data-name="Calque 2"><g id="section_2" data-name="section 2"><path class="cls-1" d="M102.36,106.91c-2,14.36-12.72,23.09-27.09,23.09-16.72,0-40.54-12-48.72-12-6,0-7.09,4.36-8,10.18H0v-3.45c0-9.82,4-27.64,14.18-37.28C28.55,73.64,62.73,60.91,62.73,36.91c0-12.73-8-19.46-20-19.46-4.55,0-14.55,1.28-16.55,6.55,6.37,1.27,9.64,6.18,9.64,12.36,0,9.09-6.55,15.09-15.64,15.09C8.73,51.45.91,43.27.91,31.82.91,6.18,32.18,0,51.82,0c23.63,0,49.45,8.73,49.45,36.36,0,15.82-10.72,28.55-24.54,35.09C33.45,91.82,22,99.82,22,107.27c6.36-5.63,10.91-8.54,19.27-8.54,10.55,0,21.82,1.82,32.37,3.63,6,0,10.72-1.09,11.09-7.45l.73-10.55h16.9Z"/></g></g></svg>