<svg xmlns="http://www.w3.org/2000/svg" viewBox="0 0 102.74 130"><defs><style>.cls-1{fill:#fff;}</style></defs><title>3</title><g id="Calque_2" data-name="Calque 2"><g id="Mode_Isolation" data-name="Mode Isolation"><path class="cls-1" d="M18.78,83.06c9.75,0,16.07,4.87,16.07,15,0,5.42-1.45,8.67-6.32,11.38,4,2.16,9.75,2.89,14.08,2.89,14.27,0,21.85-7.41,21.85-21.67,0-9.93-2.71-20-27.27-20H31.6V54.53H34c14.62,0,30.51-.36,30.51-19.68,0-12.46-10.83-18.24-21.13-18.24a23.81,23.81,0,0,0-13,3.61C34.85,23.11,37,26.54,37,31.78c0,9.75-7.4,15-16.43,15-11.91,0-17.87-7.22-17.87-18.41C2.71,4.33,34.12,0,52.18,0c22,0,48.93,6.5,48.93,33.58,0,18.06-14.08,26.55-30.69,28.71,19.68.72,32.32,10.29,32.32,31.06,0,29.07-30,36.65-54.17,36.65C30.69,130,0,124.58,0,100.75,0,90.28,8.67,83.06,18.78,83.06Z"/></g></g></svg>