<svg xmlns="http://www.w3.org/2000/svg" viewBox="0 0 106.91 138.4"><defs><style>.cls-1{fill:#fff;}</style></defs><title>5</title><g id="Calque_2" data-name="Calque 2"><g id="Mode_Isolation" data-name="Mode Isolation"><path class="cls-1" d="M19.44,87.86c9.14,0,17.88,6.22,17.88,16.14,0,5.24-2.33,9.33-6.41,12.63a31,31,0,0,0,13.22,2.72c16.13,0,24.68-14.77,24.68-29.35,0-14.19-8-28-23.91-28-10.1,0-13.8,3.3-18.46,11.86l-.59.38h-20c0-26.43.58-64.92.58-73.67C8,1,33.82,2.33,59.68,2.33c16.13,0,32.46-.58,42.57-2.33V.39a47.16,47.16,0,0,1-2.14,6C92.33,25.27,64.73,27.6,44.51,27.6c-7.38,0-13.8-.19-17.88-.19,0,2.14-.19,11.27-.19,26.82,9.13-9.91,18.85-11.47,32.07-11.47,28.77,0,48.4,15.94,48.4,45.1,0,34.8-26.82,50.54-59.29,50.54C28.58,138.4,0,131,0,107.3,0,96.42,7.78,87.86,19.44,87.86Z"/></g></g></svg>