<?xml version="1.0" encoding="utf-8"?>
<!-- Generator: Adobe Illustrator 20.1.0, SVG Export Plug-In . SVG Version: 6.00 Build 0)  -->
<svg version="1.1" xmlns="http://www.w3.org/2000/svg" xmlns:xlink="http://www.w3.org/1999/xlink" x="0px" y="0px"
	 viewBox="0 0 320.4 747" enable-background="new 0 0 320.4 747" xml:space="preserve">
<g id="HAIR_back">
	<linearGradient id="SVGID_1_" gradientUnits="userSpaceOnUse" x1="133.4815" y1="239.9397" x2="184.2872" y2="251.203">
		<stop  offset="0" style="stop-color:#F04D4E"/>
		<stop  offset="0.2019" style="stop-color:#E7484A"/>
		<stop  offset="0.5289" style="stop-color:#CF3C3F"/>
		<stop  offset="0.5999" style="stop-color:#C9393C"/>
		<stop  offset="1" style="stop-color:#A12529"/>
	</linearGradient>
	<path fill="url(#SVGID_1_)" d="M178.8,233.8c-0.7,27.2-13,26-0.7,74.2c0,0-1.9-3.4-3.9-8.4c0.7,7.1,1.6,12.8,2.4,16.6
		c0,0-2.1-4.5-4.6-11.9c1.6,11.9,2.3,23.8,0.2,31.2c-5.4,18.9-12.7,29.2-13.2,29.8c0.4-1,13.6-33.4,10.3-44.3
		c-3.4-11.1-14.5-23-16.9-47.8s-4.1-63.7-4.8-64.4c-0.7-0.7-33-88.1-33-88.1s0.9-0.4,2.4-0.8c0,0,0.2,0,0.4-0.1
		c2.4-0.6,6.1-1.2,10.4-0.7c1.2,0.1,3.4,0.5,6.1,1.2c14.4,3.7,45,17.1,40.3,56.6c-0.3,2.2-0.5,4.6-0.7,6.9c0,0.1,0,0.1,0,0.2
		c0,0.5-0.1,1-0.1,1.5C175.7,195.7,179.3,215,178.8,233.8z"/>
	<path fill="#F04D4E" d="M116.6,120.1c-7.6-2.5-50.7,0.1-54.1,41.1c-3.3,41.2-3.5,97.4-3.5,97.4l30.7,0c0,0-1.2-54.8-1.2-56.4
		c0-1.6,5.3-28.4,5.9-29.6s15.5-25.8,15.5-25.8L116.6,120.1z"/>
</g>
<g id="LOWER_LEG_right">
	<linearGradient id="SVGID_2_" gradientUnits="userSpaceOnUse" x1="124.6764" y1="696.0769" x2="143.3419" y2="695.4103">
		<stop  offset="0" style="stop-color:#473D7C"/>
		<stop  offset="1" style="stop-color:#51508A"/>
	</linearGradient>
	<path fill="url(#SVGID_2_)" d="M172.1,642.3l-0.1,1.2l0,0.2l-0.1,1.7l-6.7,107.5c-0.8,12.3-8.4,22.5-18.9,27.1
		c-1.1,0.5-2.3,1-3.5,1.3c-3,0.9-6.1,1.4-9.4,1.4c-0.7,0-1.3,0-2-0.1c-17.5-1.1-30.9-16.2-29.8-33.8l6.7-108.9l0-0.7v0l0.1-0.9
		c1.1-17.5,16.2-30.9,33.8-29.8c3.9,0.2,7.6,1.2,11,2.7C165,616.5,172.9,628.7,172.1,642.3z"/>
	<linearGradient id="SVGID_3_" gradientUnits="userSpaceOnUse" x1="168.7436" y1="713.3424" x2="153.228" y2="713.3424">
		<stop  offset="0" style="stop-color:#A9FF88"/>
		<stop  offset="1" style="stop-color:#A9FF88;stop-opacity:0"/>
	</linearGradient>
	<path opacity="0.46" fill="url(#SVGID_3_)" d="M171.9,645.3l-6.7,107.5c-0.8,12.3-8.4,22.5-18.9,27.1c-1.1,0.5-2.3,1-3.5,1.3
		l9.3-113.1v1.7c0,0,12.8-19,12.8-21.8C165,646.7,168.4,645.9,171.9,645.3z"/>
</g>
<g id="UPPER_LEG_right">
	<linearGradient id="SVGID_4_" gradientUnits="userSpaceOnUse" x1="120.7276" y1="585.6542" x2="139.3967" y2="584.9875">
		<stop  offset="0" style="stop-color:#473D7C"/>
		<stop  offset="1" style="stop-color:#51508A"/>
	</linearGradient>
	<path fill="url(#SVGID_4_)" d="M172.2,640.4c0,0.5,0,1,0,1.6c0,0.4,0,0.7-0.1,1.1c0,0.2,0,0.3,0,0.5l0,0.2c0,0.5-0.1,1-0.2,1.4
		c-1.7,11.2-9.3,20.6-19.6,24.8c0,0-0.1,0-0.1,0c-3.1,1.3-6.5,2-10,2.2c-15.8,0.9-29.5-9.9-32.8-24.8c-0.1-0.3-0.1-0.5-0.2-0.8
		c0,0,0-0.1,0-0.1c-0.1-0.4-0.2-0.8-0.2-1.2c-0.2-1-0.3-2.1-0.3-3.1l-0.1-1.3l0-0.7l-5.1-94l-0.8-14.6c-1-17.6,12.5-32.6,30.1-33.5
		c6.3-0.3,12.2,1.2,17.3,4c0,0,0,0,0,0c9.2,5.2,15.6,14.7,16.2,26l6,109l0.1,1.6c0,0.3,0,0.6,0,0.9v0.1
		C172.2,639.9,172.2,640.1,172.2,640.4z"/>
	<linearGradient id="SVGID_5_" gradientUnits="userSpaceOnUse" x1="168.7436" y1="585.9624" x2="153.228" y2="585.9624">
		<stop  offset="0" style="stop-color:#A9FF88"/>
		<stop  offset="1" style="stop-color:#A9FF88;stop-opacity:0"/>
	</linearGradient>
	<path opacity="0.46" fill="url(#SVGID_5_)" d="M172.2,639.5L172.2,639.5c0,0.3,0,0.6,0,0.8c0,0.4,0,0.7-0.1,1.1c0,0.2,0,0.3,0,0.5
		l0,0.2l-0.2,3.1c-1.7,11.2-9.3,20.6-19.6,24.8c0,0-0.1,0-0.1,0c0-0.6,0.1-1.1,0.1-1.7c0-0.1,0-0.1,0-0.2
		c1.3-21.4,2.2-37.1,2.2-37.1l-1.2-21.3l0-0.2l-4.4-75.8l0.2-6.2l0.8-25.4c0,0,0,0,0,0c9.2,5.2,15.6,14.7,16.2,26l6,109l0.1,1.6
		C172.1,638.9,172.1,639.2,172.2,639.5z"/>
</g>
<g id="UPPER_LEG_left">
	<path fill="#51508A" d="M86.9,500.5L86.9,500.5c-17.6,1-31,16-30.1,33.5l6,110.6c1,17.6,16,31,33.5,30.1h0c17.6-1,31-16,30.1-33.5
		l-6-110.6C119.4,513,104.4,499.5,86.9,500.5z"/>
</g>
<g id="LOWER_LEG_LEFT">
	<path fill="#51508A" d="M96.6,611.1L96.6,611.1C79.1,610,64,623.3,62.9,640.9L56,751.5c-1.1,17.6,12.2,32.7,29.8,33.8h0
		c17.6,1.1,32.7-12.2,33.8-29.8l6.9-110.6C127.5,627.3,114.2,612.2,96.6,611.1z"/>
</g>
<g id="LOWER_ARM_rigtht">
	<path fill="#404040" d="M155.9,250.9l39.8,11.6L170.9,276C165.6,267.8,160.6,259.4,155.9,250.9z"/>
	<g>
		<linearGradient id="SVGID_6_" gradientUnits="userSpaceOnUse" x1="229.7547" y1="207.4469" x2="190.0949" y2="169.9904">
			<stop  offset="0" style="stop-color:#FFD8B5"/>
			<stop  offset="1" style="stop-color:#EFB484"/>
		</linearGradient>
		<path fill="url(#SVGID_6_)" d="M284.1,172.7c-10-15.6-28.5-9.9-42.6-2.1l-64,35.1c4.7,5.8,17.8,24.8,18.2,56.8l99.6-54.7
			L284.1,172.7z"/>
		<path fill="#404040" d="M177.7,205.6l-10,5.5c-14.2,7.8-19.4,25.6-11.6,39.8l0,0c7.8,14.2,25.6,19.4,39.8,11.6l0,0
			C195.5,230.5,182.5,211.5,177.7,205.6z"/>
	</g>
</g>
<g id="UPPER_ARM_Right">
	
		<ellipse transform="matrix(0.8757 -0.4829 0.4829 0.8757 -55.2927 160.6163)" fill="#FFD8B5" cx="284.3" cy="187.7" rx="22.9" ry="22.9"/>
	<linearGradient id="SVGID_7_" gradientUnits="userSpaceOnUse" x1="253.7955" y1="141.2964" x2="213.2043" y2="148.7422">
		<stop  offset="0" style="stop-color:#FFD8B5"/>
		<stop  offset="1" style="stop-color:#EFB484"/>
	</linearGradient>
	<path fill="url(#SVGID_7_)" d="M304.8,178l-19.3,20.6c-13,7.1-29.3,2.4-36.4-10.5l-37.3-67.7c-7.2-13-2.4-29.3,10.5-36.4
		c4.1-2.3,8.5-3.3,12.9-3.3c9.4,0,18.6,5,23.5,13.9l20.7,37.6l22.7,41.2L304.8,178z"/>
	<linearGradient id="SVGID_8_" gradientUnits="userSpaceOnUse" x1="206.2435" y1="60.4494" x2="188.147" y2="35.1143">
		<stop  offset="0" style="stop-color:#FFD8B5"/>
		<stop  offset="1" style="stop-color:#EFB484"/>
	</linearGradient>
	<path fill="url(#SVGID_8_)" d="M256.9,116.3l1.2,2.1l-13.4,7.4l-1.8-3.2l-9.2,5.1l-3.1,1.7l-10.4,5.7l-48.3-87.3
		c-2-3.5-0.8-7.9,2.5-10.1c0.2-0.1,0.4-0.2,0.5-0.3c1.2-0.7,2.5-1,3.7-1c2.7,0,5.3,1.4,6.7,4l11.1,20c0.5-1.1,1.2-2.2,2.2-3
		c0.5-0.4,1-0.8,1.5-1.1c1.3-0.8,2.8-1.1,4.2-1.1c2,0,3.9,0.7,5.5,1.9c0.6-1.6,1.8-2.9,3.4-3.8c1.2-0.7,2.5-1,3.7-1
		c0.7,0,1.5,0.1,2.2,0.3l-10-18c-1.9-3.4-0.7-7.8,2.6-9.8c0.1,0,0.1-0.1,0.2-0.1c1.1-0.6,2.3-0.9,3.5-0.9c2.6,0,5.1,1.4,6.4,3.8
		l33.5,60.6l12.2,22.1L256.9,116.3z"/>
	<linearGradient id="SVGID_9_" gradientUnits="userSpaceOnUse" x1="234.9121" y1="71.893" x2="218.1955" y2="88.6096">
		<stop  offset="0" style="stop-color:#FFD8B5;stop-opacity:0"/>
		<stop  offset="1" style="stop-color:#EFB484"/>
	</linearGradient>
	<path fill="url(#SVGID_9_)" d="M212,84.3l-4.3,0c0,0,6.6-2.4,9-7.1c2-3.8,0.5-8.6-4.2-9.8c0,0,11-29,24.7-11.5
		c3.1,3.9,15.7,28.6,16.1,29.5s-22.6,14.3-22.6,14.3S222,79.6,212,84.3z"/>
	<linearGradient id="SVGID_10_" gradientUnits="userSpaceOnUse" x1="227.1684" y1="61.7027" x2="204.7634" y2="71.5253">
		<stop  offset="0" style="stop-color:#FFD8B5"/>
		<stop  offset="1" style="stop-color:#EFB484"/>
	</linearGradient>
	<path fill="url(#SVGID_10_)" d="M228.1,75.2c-0.5,0.6-1.2,1.1-1.9,1.5c-3.7,2.1-8.4,0.7-10.4-3l-5.5-10c-2-3.7-0.8-8.2,2.8-10.3
		c0,0,0.1-0.1,0.2-0.1c1.2-0.7,2.5-1,3.7-1c2.7,0,5.3,1.4,6.7,4l5.5,10C230.9,69.2,230.4,72.8,228.1,75.2z"/>
	<linearGradient id="SVGID_11_" gradientUnits="userSpaceOnUse" x1="228.2718" y1="58.7579" x2="219.8091" y2="64.8549">
		<stop  offset="0" style="stop-color:#A9FF88"/>
		<stop  offset="1" style="stop-color:#A9FF88;stop-opacity:0"/>
	</linearGradient>
	<path fill="url(#SVGID_11_)" d="M228.1,75.2c-0.8-9.3-7.4-20.3-15-21.9c1.2-0.7,2.6-1.1,3.9-1.1c2.7,0,5.3,1.4,6.7,4l5.5,10
		C230.9,69.2,230.4,72.8,228.1,75.2z"/>
	<linearGradient id="SVGID_12_" gradientUnits="userSpaceOnUse" x1="243.0676" y1="49.6778" x2="227.0607" y2="61.2099">
		<stop  offset="0" style="stop-color:#A9FF88"/>
		<stop  offset="1" style="stop-color:#A9FF88;stop-opacity:0"/>
	</linearGradient>
	<path fill="url(#SVGID_12_)" d="M255.5,88.1l-5.1,3.3c0,0-28-54.5-32.8-62c-2.2-3.3-4.2-4.4-5.8-4.6c0.1,0,0.1-0.1,0.2-0.1
		c1.1-0.6,2.3-0.9,3.5-0.9c2.6,0,5.1,1.4,6.4,3.8L255.5,88.1z"/>
	<linearGradient id="SVGID_13_" gradientUnits="userSpaceOnUse" x1="193.7279" y1="51.5659" x2="189.0932" y2="54.905">
		<stop  offset="0" style="stop-color:#A9FF88"/>
		<stop  offset="1" style="stop-color:#A9FF88;stop-opacity:0"/>
	</linearGradient>
	<path fill="url(#SVGID_13_)" d="M203.6,69.3l-4.9,6.7c0,0-12-23.3-16.3-32.5c-2.6-5.7-5.9-6.2-8-5.8c0.2-0.1,0.4-0.2,0.5-0.3
		c1.2-0.7,2.5-1,3.7-1c2.7,0,5.3,1.4,6.7,4l11.1,20c0.5-1.1,1.2-2.2,2.2-3L203.6,69.3z"/>
	<linearGradient id="SVGID_14_" gradientUnits="userSpaceOnUse" x1="213.8149" y1="66.9694" x2="193.8761" y2="75.9296">
		<stop  offset="0" style="stop-color:#FFD8B5"/>
		<stop  offset="1" style="stop-color:#EFB484"/>
	</linearGradient>
	<path fill="url(#SVGID_14_)" d="M214.8,83L214.8,83c-4.2,2.3-9.6,0.8-11.9-3.4l-6.1-11c-2.3-4.2-0.8-9.6,3.4-11.9l0,0
		c4.2-2.3,9.6-0.8,11.9,3.4l6.1,11C220.6,75.3,219,80.7,214.8,83z"/>
	<linearGradient id="SVGID_15_" gradientUnits="userSpaceOnUse" x1="215.917" y1="61.5912" x2="207.4543" y2="67.6882">
		<stop  offset="0" style="stop-color:#A9FF88"/>
		<stop  offset="1" style="stop-color:#A9FF88;stop-opacity:0"/>
	</linearGradient>
	<path fill="url(#SVGID_15_)" d="M215.8,78c-0.8-9.3-7.4-20.3-15-21.9c1.2-0.7,2.6-1.1,3.9-1.1c2.7,0,5.3,1.4,6.7,4l5.5,10
		C218.6,72.1,218,75.7,215.8,78z"/>
	<path fill="#FFD8B5" d="M216.8,82.5L214,84l-0.1,0.1c0,0-0.1,0-0.1,0.1l-4.4,2.4l-3.3,1.8l6.9,12.5l-4.8,2.7
		c-5.2,2.9-11.8,1-14.7-4.2l-1.2-2.2c-5.4-9.7-1.8-22,7.9-27.3l7.4-4.1c0,0,0,0,0,0c1.5-0.8,3-1.2,4.5-1.2c3.3,0,6.6,1.8,8.3,4.9
		C223,74.1,221.4,79.9,216.8,82.5z"/>
	<linearGradient id="SVGID_16_" gradientUnits="userSpaceOnUse" x1="221.4991" y1="67.451" x2="211.3356" y2="74.7734">
		<stop  offset="0" style="stop-color:#A9FF88"/>
		<stop  offset="1" style="stop-color:#A9FF88;stop-opacity:0"/>
	</linearGradient>
	<path fill="url(#SVGID_16_)" d="M216.8,82.5L214,84c-4.1,1.9-9.2,3.6-9.7,3.7c0.5-0.3,9.2-4.5,10.7-13.4c1.2-7.2-4.8-8.4-7.4-8.6
		c1.5-0.8,3-1.2,4.5-1.2c3.3,0,6.6,1.8,8.3,4.9C223,74.1,221.4,79.9,216.8,82.5z"/>
	<linearGradient id="SVGID_17_" gradientUnits="userSpaceOnUse" x1="296.6023" y1="144.1351" x2="280.9266" y2="159.8108">
		<stop  offset="0" style="stop-color:#A9FF88"/>
		<stop  offset="1" style="stop-color:#A9FF88;stop-opacity:0"/>
	</linearGradient>
	<path opacity="0.89" fill="url(#SVGID_17_)" d="M302.3,173.3c-18.3-23.9-33.9-35.8-33.9-35.8l6.7-3.5c0,0,2.3-1,4.4-1.9
		L302.3,173.3z"/>
	<path fill="#51508A" d="M282.3,133.4l-0.7,2.1c0,0-5.5,0.4-13,2.7c-7.3,2.2-16.6,6.3-24.8,13.7c-3.2,2.9-6.3,6.3-9,10.3l-2-0.7
		l-28.7-50.3c0,0,2.3-4.7,7.2-10.2v0c5.3-5.9,13.5-12.7,25.3-16c5-1.4,10.6-2.2,16.9-2L282.3,133.4z"/>
	<linearGradient id="SVGID_18_" gradientUnits="userSpaceOnUse" x1="274.4232" y1="102.1671" x2="247.4637" y2="117.0442">
		<stop  offset="0" style="stop-color:#A9FF88"/>
		<stop  offset="1" style="stop-color:#A9FF88;stop-opacity:0"/>
	</linearGradient>
	<path opacity="0.89" fill="url(#SVGID_18_)" d="M282.3,133.4l-0.7,2.1c0,0-12.2,0.2-31.1,11.2c-0.4-0.8,6.9-5.5,12.6-8.8
		c3.5-2,4.7-6.5,2.8-10c-9.6-17.4-22.9-38.7-27.1-43.5c5-1.4,8.5-1.6,14.8-1.4L282.3,133.4z"/>
</g>
<g id="BODY">
	<path fill="#51508A" d="M165.7,462.5v65.8l-17,1l-16.4,1c-9.8,8-19.9,13.2-29.4,16.1c-22.6,6.8-41.9,0.5-46.5-12.1
		c-14-38.5,9-66.6,9-71.8c0-4.6,0-12.7,0-12.7l60,7.2l25.4,3.5L165.7,462.5z"/>
	<linearGradient id="SVGID_19_" gradientUnits="userSpaceOnUse" x1="133.1721" y1="262.4973" x2="86.8388" y2="203.664">
		<stop  offset="0" style="stop-color:#FFD8B5"/>
		<stop  offset="1" style="stop-color:#EFAC84"/>
	</linearGradient>
	<rect x="82.4" y="200.6" fill="url(#SVGID_19_)" width="66" height="78.6"/>
	<path fill="#404040" d="M172.4,222.5l-1.4,53.8l-4.9,185.4c0,0-8.9,1.9-21,3.4c-7.8,1-17,1.8-25.8,1.8c-22.6,0-53.4-5.2-53.4-5.2
		l0-224.6l1.8-1c8.6-2.3,17.2-4.3,26-6c-1.1,7,0.4,15.4,4.8,23.3c8.2,14.8,23.2,22.1,33.6,16.4c10.4-5.7,12.2-22.4,4-37.2
		c-1.6-3-3.6-5.6-5.7-8c4.3-0.5,8.5-0.8,12.8-1.1C152.9,222.8,162.7,222.5,172.4,222.5z"/>
	
		<linearGradient id="SVGID_20_" gradientUnits="userSpaceOnUse" x1="212.5718" y1="384.8216" x2="145.846" y2="382.758" gradientTransform="matrix(0.9996 -2.759346e-02 2.759346e-02 0.9996 -10.3366 -7.2996)">
		<stop  offset="0" style="stop-color:#A9FF88"/>
		<stop  offset="1" style="stop-color:#A9FF88;stop-opacity:0"/>
	</linearGradient>
	<path fill="url(#SVGID_20_)" d="M169.7,276.4L166,462c0,0-16,2.3-37.6,4.4c-1.6-28.2,0.2-150.1,9-157.7
		c11.8-10.3,32.2-32.6,32.2-32.6L169.7,276.4z"/>
	<linearGradient id="SVGID_21_" gradientUnits="userSpaceOnUse" x1="168.7436" y1="494.6075" x2="153.228" y2="494.6075">
		<stop  offset="0" style="stop-color:#A9FF88"/>
		<stop  offset="1" style="stop-color:#A9FF88;stop-opacity:0"/>
	</linearGradient>
	<polygon opacity="0.46" fill="url(#SVGID_21_)" points="166.1,462.2 166.1,528 149,529 149.9,502 151.2,460.2 	"/>
</g>
<g id="UPPER_ARM_Left">
	<g>
		<path fill="#404040" d="M95.1,297.5v-31.1c0-16.2-13.1-29.3-29.3-29.3h0c-16.2,0-29.3,13.1-29.3,29.3v26.9
			C42.5,296.1,59.7,301.9,95.1,297.5z"/>
		<linearGradient id="SVGID_22_" gradientUnits="userSpaceOnUse" x1="68.0785" y1="340.2343" x2="-10.9104" y2="340.2343">
			<stop  offset="0" style="stop-color:#FFD8B5"/>
			<stop  offset="1" style="stop-color:#EFB484"/>
		</linearGradient>
		<path fill="url(#SVGID_22_)" d="M36.6,293.3v86.7l36.2,7.1c18.4-1.3,22.4-20.2,22.4-36.4v-53.2C59.7,301.9,42.5,296.1,36.6,293.3z
			"/>
	</g>
</g>
<g id="LOWER_ARM_left">
	<linearGradient id="SVGID_23_" gradientUnits="userSpaceOnUse" x1="61.3053" y1="436.7651" x2="18.2549" y2="436.7651">
		<stop  offset="0" style="stop-color:#FFD8B5"/>
		<stop  offset="1" style="stop-color:#EFB484"/>
	</linearGradient>
	<path fill="url(#SVGID_23_)" d="M63.4,371.3c14.8,0,26.8,12,26.8,26.8v77.3c0,14.8-12,26.8-26.8,26.8h0c-14.8,0-26.8-12-26.8-26.8
		v-95.3L63.4,371.3z"/>
	<linearGradient id="SVGID_24_" gradientUnits="userSpaceOnUse" x1="63.4604" y1="380.0629" x2="6.9988" y2="380.0629">
		<stop  offset="0" style="stop-color:#FFD8B5"/>
		<stop  offset="1" style="stop-color:#EFB484"/>
	</linearGradient>
	<circle fill="url(#SVGID_24_)" cx="59.5" cy="380.1" r="22.9"/>
	<linearGradient id="SVGID_25_" gradientUnits="userSpaceOnUse" x1="77.1562" y1="514.0285" x2="27.9667" y2="471.9339">
		<stop  offset="0" style="stop-color:#FFD8B5"/>
		<stop  offset="0.3269" style="stop-color:#FAD4B4"/>
		<stop  offset="1" style="stop-color:#EFB484"/>
	</linearGradient>
	<path fill="url(#SVGID_25_)" d="M96.3,524.5C96.3,524.5,96.3,524.5,96.3,524.5c0.9,2.4,1.6,5.6,1.6,9.8c0,12.8-14.7,13.2-18.1,13.2
		c-2,0-3.7-0.6-5-1.7c-0.6-0.5-1.5-0.8-2.3-0.6c-0.9,0.1-0.8,0.3-0.8,0.4c-1.1,2.3-3.9,3.9-7,3.9h-0.3c-4.2,0-7.6-2.9-7.6-6.4
		c0-0.4-0.3-0.6-0.7-0.6c-0.2,0-0.4,0.1-0.6,0.2c-1.7,1.8-4.7,2.5-7.8,1c-1.8-0.8-2.6-2.5-2.5-4.3c0-0.7-0.7-1.2-1.4-1.2
		c-0.2,0-0.4,0-0.6,0.1c0,0-0.1,0-0.1,0c-0.8,0.4-1.7,0.6-2.6,0.5c-2.2-0.2-3.9-1.9-3.9-3.8v-60.8c0-11.9,11.4-21.6,25.4-21.6
		c7,0,13.4,2.4,18,6.3c4.6,3.9,7.5,9.3,7.5,15.2v7.8c0,0,1.9,1.2,4.4,3.4c4.9,4.4,12.2,12.8,12.2,24.2
		C104,518.8,100.6,522.7,96.3,524.5z"/>
	<linearGradient id="SVGID_26_" gradientUnits="userSpaceOnUse" x1="64.195" y1="521.2755" x2="64.195" y2="469.899">
		<stop  offset="0" style="stop-color:#EFB484;stop-opacity:0"/>
		<stop  offset="0.9857" style="stop-color:#EFB484"/>
	</linearGradient>
	<path fill="url(#SVGID_26_)" d="M42.3,527.8c0,0-0.7,6.5,0.9,10.5c0,0-0.1,0-0.1,0c-0.8,0.4-1.7,0.6-2.6,0.5
		c-2.2-0.2-3.9-1.9-3.9-3.8v-53.9l0.6-1.1l21.2,2.4l29.1-0.6v0.2c0,0,1.9,1.2,4.4,3.4c-2.6,1.8-11.3,6.8-28,6.8
		c-20.3,0-21.5-2.7-21.5-2.7V527.8z"/>
	<path fill="#51508A" d="M36.4,424.6c0,0,27.3,13.2,53.9,0l1.4,1.6v57.9c0,0-27,18.4-56.9,0v-58L36.4,424.6z"/>
	<polygon fill="#E0E0E0" points="22.6,435.9 29.1,432.1 35.6,428.4 35.6,435.9 35.6,443.4 29.1,439.7 	"/>
	<polygon fill="#E0E0E0" points="22.6,455.4 29.1,451.6 35.6,447.9 35.6,455.4 35.6,462.9 29.1,459.2 	"/>
	<polygon fill="#E0E0E0" points="22.6,474.9 29.1,471.1 35.6,467.4 35.6,474.9 35.6,482.4 29.1,478.7 	"/>
	<polygon fill="#E0E0E0" points="103.4,435.9 96.9,432.1 90.4,428.4 90.4,435.9 90.4,443.4 96.9,439.7 	"/>
	<polygon fill="#E0E0E0" points="103.4,455.4 96.9,451.6 90.4,447.9 90.4,455.4 90.4,462.9 96.9,459.2 	"/>
	<polygon fill="#E0E0E0" points="103.4,474.9 96.9,471.1 90.4,467.4 90.4,474.9 90.4,482.4 96.9,478.7 	"/>
	<polygon fill="#E0E0E0" points="55.1,434 55.1,449 48,449 42.1,441.5 48,434 	"/>
	<polygon fill="#FFFFFF" points="42.1,441.5 55.1,449 55.1,434 	"/>
	<polygon fill="#E0E0E0" points="55.1,473.1 55.1,488.2 48,488.2 42.1,480.7 48,473.1 	"/>
	<polygon fill="#FFFFFF" points="42.1,480.7 55.1,488.2 55.1,473.1 	"/>
	<polygon fill="#E0E0E0" points="55.1,453.6 55.1,468.6 48,468.6 42.1,461.1 48,453.6 	"/>
	<polygon fill="#FFFFFF" points="42.1,461.1 55.1,468.6 55.1,453.6 	"/>
	<polygon fill="#E0E0E0" points="73.3,434 73.3,449 80.5,449 86.4,441.5 80.5,434 	"/>
	<polygon fill="#404040" points="86.4,441.5 73.3,449 73.3,434 	"/>
	<polygon fill="#E0E0E0" points="73.3,473.1 73.3,488.2 80.5,488.2 86.4,480.7 80.5,473.1 	"/>
	<polygon fill="#404040" points="86.4,480.7 73.3,488.2 73.3,473.1 	"/>
	<polygon fill="#E0E0E0" points="73.3,453.6 73.3,468.6 80.5,468.6 86.4,461.1 80.5,453.6 	"/>
	<polygon fill="#404040" points="86.4,461.1 73.3,468.6 73.3,453.6 	"/>
</g>
<g id="FACE">
	<path fill="#FFD8B5" d="M169.7,178.7c-0.1,1-0.2,1.9-0.3,2.9c-1,7.9-2.9,16.8-6.2,27.3c-0.9,2.8-1.9,5.6-2.9,8.6
		c-0.3,0.9-0.6,1.8-0.9,2.7c-7.1,20.5-10.1,32.6-10.1,32.6c-18.7-2.7-36.6-14.5-48.5-27.1c-0.2-1.5-0.4-2.9-0.6-4.3
		c-0.4,0.3-0.9,0.5-1.3,0.7c-5,1.7-11.4-3.5-14.1-11.5c-2.8-8.1-1-16.1,4-17.8c3.7-1.3,8,1.2,11.2,5.7c0.1-1.2,0.5-1.9,1.2-2.3
		c3.5-2.2,14.9,3.3,34.6-18.1c11.6-12.6,16.2-28,17.6-33.9c0.1-0.5,0.2-0.9,0.3-1.2c0.2-0.8,0.2-1.2,0.2-1.2c0-0.1-0.1-0.2-0.1-0.3
		c0.2,0.1,0.3,0.2,0.3,0.2S160,164.3,169.7,178.7z"/>
	<path fill="#F04D4E" d="M161.4,218.7c-7.1,20.5-10.8,34.6-10.8,34.6c-1.8-0.3-3.8-0.7-5.7-1.1c-8.2-1.8-16.9-4.6-20.5-7.7
		c-8.2-35.9,19.6-28.8,26.3-29.2c0.8-0.1,1.7,0,2.4,0C158.1,215.8,161.4,218.7,161.4,218.7z"/>
	<linearGradient id="SVGID_27_" gradientUnits="userSpaceOnUse" x1="135.8456" y1="194.4237" x2="150.5502" y2="170.6585">
		<stop  offset="0" style="stop-color:#FFD8B5"/>
		<stop  offset="1" style="stop-color:#EFAC84"/>
	</linearGradient>
	<path fill="url(#SVGID_27_)" d="M146.8,178.6c0.3,1.7,3.9,13.2-3.4,27.1c-1.8,3.5-5.7,6.4-10.9,6.4c-11.3,0-13.7-13.7-13.7-13.7
		L134,180l7.1-3.6c1.8,0.1,3.6,0.2,5.4,0.3C146.6,177.4,146.6,178,146.8,178.6z"/>
	<linearGradient id="SVGID_28_" gradientUnits="userSpaceOnUse" x1="160.6595" y1="191.9053" x2="171.0331" y2="175.1397">
		<stop  offset="0" style="stop-color:#FFD8B5"/>
		<stop  offset="1" style="stop-color:#EFAC84"/>
	</linearGradient>
	<path fill="url(#SVGID_28_)" d="M169.4,181.6c-1,7.9-2.9,16.8-6.2,27.3c-1.3-1.1-2.2-2.7-3.1-4.1c-7.3-11.2-2.6-28.5-2.6-28.5
		l0.1-0.5l4.4-0.3l5.8,3.6L169.4,181.6z"/>
	<ellipse fill="#51508A" cx="140.1" cy="192.1" rx="1.8" ry="4.3"/>
	<ellipse fill="#51508A" cx="162.5" cy="190.7" rx="1.5" ry="3.7"/>
	<linearGradient id="SVGID_29_" gradientUnits="userSpaceOnUse" x1="151.7536" y1="204.0573" x2="162.2993" y2="203.7363">
		<stop  offset="0" style="stop-color:#FFD8B5"/>
		<stop  offset="1" style="stop-color:#EFAC84"/>
	</linearGradient>
	<path fill="url(#SVGID_29_)" d="M151.4,190.2l-0.7,23.3c0,0.8,0.5,1.5,1.2,1.7l10.5,3c1.6,0.4,3-0.9,2.7-2.5
		c-1.4-6.2-5.2-19-12.3-26.1C152.2,189.2,151.4,189.5,151.4,190.2z"/>
	<path fill="#FFD8B5" d="M156.2,224.3c0,0-7.5,0.9-14,0.4c-1.3-0.1-1.9,1.6-0.8,2.4c2.7,1.7,6.2,3.5,9.1,3.4
		c3.5-0.2,5.1-1.5,5.1-1.5S154.5,227.4,156.2,224.3z"/>
	<g>
		<path fill="#F04D4E" d="M131.1,182.1c0,0,0.6-0.9,1.6-2.1c1-1.2,2.5-2.7,4.3-4c0.9-0.6,1.9-1.2,3-1.5c0.6-0.2,1.1-0.3,1.7-0.3
			c0.6,0,1.1,0,1.6,0.1c0.5,0.1,1,0.3,1.3,0.5c0.4,0.2,0.7,0.4,0.9,0.5c0.5,0.3,0.7,0.6,0.7,0.6c0.7,0.6,0.8,1.7,0.2,2.5
			c-0.6,0.7-1.7,0.8-2.5,0.2c-0.1,0-0.1-0.1-0.2-0.1l0-0.1c0,0-0.1-0.1-0.3-0.4c-0.1-0.1-0.2-0.2-0.4-0.3c-0.2-0.1-0.4-0.2-0.6-0.3
			c-0.2-0.1-0.5-0.2-0.8-0.2c-0.3,0-0.7,0-1.1,0c-0.8,0.1-1.7,0.4-2.5,0.8c-1.7,0.8-3.3,2-4.5,3c-1.1,1-1.8,1.7-1.8,1.7
			c-0.2,0.2-0.5,0.2-0.7,0C131,182.6,130.9,182.3,131.1,182.1z"/>
	</g>
	<g>
		<path fill="#F04D4E" d="M168.2,181.6c0,0-0.5-0.7-1.2-1.6c-0.8-0.9-1.9-2.1-3.1-3c-0.6-0.5-1.2-0.8-1.8-0.9
			c-0.3-0.1-0.5-0.1-0.7-0.1c-0.2,0-0.3,0.1-0.5,0.2c-0.1,0.1-0.2,0.2-0.3,0.3c-0.1,0.1-0.2,0.2-0.3,0.3c-0.1,0.2-0.2,0.3-0.2,0.3
			l0,0.1c-0.4,0.7-1.3,0.9-2,0.5c-0.7-0.4-0.9-1.3-0.5-2c0-0.1,0.1-0.1,0.2-0.2c0,0,0.2-0.2,0.5-0.5c0.2-0.2,0.4-0.4,0.7-0.6
			c0.3-0.2,0.7-0.4,1.1-0.6c0.4-0.1,1-0.2,1.5-0.2c0.5,0,1,0.2,1.5,0.4c0.9,0.4,1.6,1,2.2,1.7c1.2,1.3,2.2,2.7,2.8,3.8
			c0.6,1.1,1,1.8,1,1.8c0.1,0.2,0,0.5-0.2,0.6C168.6,181.8,168.4,181.8,168.2,181.6z"/>
	</g>
</g>
<g id="HAIR_front">
	<path fill="#F04D4E" d="M174.3,177c-0.3,2.2-0.5,4.6-0.7,6.9l-1.5-1.8c-0.9-1.1-1.7-2.2-2.5-3.4c-9.7-14.4-15.8-37.1-15.8-37.1
		s-0.1-0.1-0.3-0.2c0.1,0.1,0.1,0.2,0.1,0.3c0,0-0.1,0.4-0.2,1.2c-0.1,0.3-0.2,0.8-0.3,1.2c-1.4,5.9-6,21.2-17.6,33.9
		c-19.7,21.4-31,15.8-34.6,18.1c-0.8,0.5-1.2,1.5-1.2,3.2c0,0-1.7,9.8,0.9,26.4c1,6.4,2.7,13.9,5.3,22.2c9.5,29.7,6.4,44.8,6.4,44.8
		s-2-26.2-8.8-40.2c3.5,12.5,6.8,31.4,5.1,54.8c-2.8,38.9,5.4,55.8,7.2,59c-2.1-3.4-12.4-21.1-12.4-44.3c0-16.9-3.8-37.6-6.4-50.7
		c-0.6,7.5-1.3,14.7-1.5,19.1c-0.6,10.5,3.8,24.9,3.8,24.9c-10-17.3-7-30.5-9.7-56.7c-2.6-26.2-23.1-21.9-23.1-21.9
		s0.3-49.5-2.3-56.8c-2.6-7.3,2-27.2,3.2-31.6c1.2-4.4,8-14.6,25.2-22.6c10-4.6,15.5-4.9,18.3-4.3c2.4-1.1,4.3-1.3,4.3-1.3
		c0.2,0.2,1.6,0.4,3.8,0.9l0.6,0.3c0.3,0,0.6,0,0.8,0c-0.5-0.1-1-0.2-1.4-0.3L117,120c0,0,0.2,0,0.4-0.1c2.4-0.6,6.1-1.2,10.4-0.7
		c1.2,0.1,3.4,0.5,6.1,1.2C148.5,124.1,179,137.5,174.3,177z"/>
	<linearGradient id="SVGID_30_" gradientUnits="userSpaceOnUse" x1="190.733" y1="138.424" x2="151.7491" y2="155.9915">
		<stop  offset="0" style="stop-color:#A9FF88"/>
		<stop  offset="1" style="stop-color:#A9FF88;stop-opacity:0"/>
	</linearGradient>
	<path fill="url(#SVGID_30_)" d="M174.3,177c-0.3,2.3-0.5,4.7-0.8,7.1l-6.7,8.6c0.5-3.2,0.8-8.5,0.7-17.4c-0.1-3.6-0.2-7.8-0.4-12.6
		c-0.8-16.8-16.8-31.1-29.1-39.7c-1.4-1-2.7-1.9-4-2.7C148.5,124.1,179,137.5,174.3,177z"/>
	<linearGradient id="SVGID_31_" gradientUnits="userSpaceOnUse" x1="142.8137" y1="177.3984" x2="129.6377" y2="169.3485">
		<stop  offset="0" style="stop-color:#A9FF88"/>
		<stop  offset="1" style="stop-color:#A9FF88;stop-opacity:0"/>
	</linearGradient>
	<path fill="url(#SVGID_31_)" d="M153.5,143c-0.1,0.3-0.2,0.8-0.3,1.2c-1.4,5.9-6,21.2-17.6,33.9c-19.7,21.4-31,15.8-34.6,18.1
		c-5.3-0.6-1.6-3.4-1.6-3.4c30.2,3.9,48.1-57.4,48.1-57.4C151.6,137.2,153,141,153.5,143z"/>
</g>
</svg>
