<?xml version="1.0" encoding="utf-8"?>
<!-- Generator: Adobe Illustrator 20.1.0, SVG Export Plug-In . SVG Version: 6.00 Build 0)  -->
<svg version="1.1" id="Calque_18" xmlns="http://www.w3.org/2000/svg" xmlns:xlink="http://www.w3.org/1999/xlink" x="0px" y="0px"
	 viewBox="0 0 1280 800" enable-background="new 0 0 1280 800" xml:space="preserve">
<path fill="#51508A" d="M1192.1,802.5l-84,8.5c-14.1-46.8-28-115-28-115l-3.2,0.1c-4.8,39.4-4.8,115-4.8,115h-88.5
	c-0.4-36.5,4.3-108.6,8.9-161c0.4-4.1,2.7-6.7,3.1-10.5c0.8-7.2-1.3-9.7-0.9-13.5c0.5-5.4,2.7-8.3,3.2-12.7c0.3-2.7-1.1-5.4-0.8-9.6
	c0.1-0.9,0.1-1.8,0.2-2.7c0.5-5.4,1.3-9.4,1.8-11.5c0.1-0.5,0.2-0.9,0.3-1.4c3.5-17.5,0.5-35.9,0.5-35.9l146.4,2.9
	c5.7,15.9,8.1,29.3,8.2,42.3c0,2.6,0,5.3-0.2,7.9c-0.2,4.1,2.4,10.6,2.7,14.7c0.2,3.2-0.7,5.2-0.5,8.2c0.2,3.2,1.8,3.8,2.2,6.4
	c0.3,1.6-0.4,3.1-0.3,4.1c0.2,2.2,1.4,3.4,1.7,5.6C1168.9,720.1,1192.1,802.5,1192.1,802.5z"/>
<path fill="#404040" d="M1175.1,354.7c-0.1,0.4-0.1,0.9-0.2,1.3c0,0.2-0.1,0.5-0.1,0.7c-0.2,1-0.3,2-0.6,2.9
	c-0.8,3.5-1.8,6.9-3.2,9.9l-12.4,12.1l-11.9-4.2c0,0,2.4,156.6,14.4,217.6c0,0-2.3,1-6.7,2.5c-11.2,3.7-36.4,10.6-73.9,11.8
	c-20.2,0.7-38.7-0.8-53.8-2.8c0,0,0,0,0,0c-5.2-0.7-10-1.5-14.3-2.2c-6.1-1.1-11.3-2.2-15.3-3.1c-6-1.4-9.4-2.4-9.4-2.4
	c-0.1-5.5,1.8-10.9,3.4-15.8c1.4-4.1,2.6-7.8,2.4-11.2c-0.3-6.4-1.9-9-2.9-13.8c-0.6-2.8-0.4-8.4,1.2-12.6c1.5-3.9,2.3-8.5,1-13.4
	c-1-3.9-0.9-7.9-0.8-11.8c0.6-43.3-1.7-92.8-5.5-117.5c-0.4-2.3-0.7-4.4-1.1-6.3c0,0-17.4-27.7-46.6-36.8c0,0,14.7-43.5,45.6-55
	c40.7-15.2,41.8-23.9,76.5-29.9c34.7-5.9,58.2,9.3,80.2,19.7c14.6,6.9,28.3,19.7,32.8,36.7c0.4,1.6,0.8,3.3,1,5
	C1175.9,341.8,1175.9,348.3,1175.1,354.7z"/>
<linearGradient id="SVGID_1_" gradientUnits="userSpaceOnUse" x1="1122.3604" y1="483.3157" x2="1142.8245" y2="424.3451" gradientTransform="matrix(-0.3871 0.922 0.922 0.3871 1064.9723 -686.4774)">
	<stop  offset="0" style="stop-color:#373737"/>
	<stop  offset="0.8364" style="stop-color:#404040"/>
</linearGradient>
<path fill="url(#SVGID_1_)" d="M1008.6,528c0,0,58.3,14.9,113.2-10.6c0.7-0.3,0.6,0.7,0.1,1.3c-24.1,29.3-72.1,41.8-104.7,32
	L1008.6,528z"/>
<linearGradient id="SVGID_2_" gradientUnits="userSpaceOnUse" x1="1148.5083" y1="504.3353" x2="1174.9703" y2="436.1115" gradientTransform="matrix(-0.3871 0.922 0.922 0.3871 1064.9723 -686.4774)">
	<stop  offset="0" style="stop-color:#373737"/>
	<stop  offset="0.8364" style="stop-color:#404040"/>
</linearGradient>
<path fill="url(#SVGID_2_)" d="M1011.1,563.6c0,0,54.3,11.6,123.3-14.2c2.6-1,2.9,0.9,1,2.9c-40.4,40.8-99.5,35.6-126.8,31.6
	L1011.1,563.6z"/>
<linearGradient id="SVGID_3_" gradientUnits="userSpaceOnUse" x1="832.3931" y1="428.3047" x2="989.5075" y2="307.4546">
	<stop  offset="0" style="stop-color:#FFD8B5"/>
	<stop  offset="0.292" style="stop-color:#FED4B1"/>
	<stop  offset="0.5712" style="stop-color:#FACAA6"/>
	<stop  offset="0.8443" style="stop-color:#F4B993"/>
	<stop  offset="1" style="stop-color:#EFAC84"/>
</linearGradient>
<path fill="url(#SVGID_3_)" d="M1001.6,374.3c-27.3,40.4-72.2,79.4-91,95c-5.2,4.3-12.7,4.2-17.8,0c-0.9-0.7-1.7-1.4-2.6-2.2
	c-10.7-9.1-23-20.4-35.2-32.2c-2.7-2.6-5.5-5.3-8.2-8c-14-13.8-27.6-27.7-38.5-39c-0.3-0.3-0.6-0.6-0.9-0.9
	c-7.1-7.5-13-13.8-16.9-18.2c-2.6-2.9-4.2-4.8-4.8-5.7l43.3-22.8l8.7-4.6c5.2,5.4,10.7,10.8,16.3,16.2c0.3,0.3,0.7,0.6,1,0.9
	c14,13.6,28.1,26.4,37.6,34.9c3.5,3.1,6.3,5.6,8.3,7.4c2.1,1.8,3.2,2.9,3.2,2.9c14.9-13.4,53.8-60.2,53.8-60.2L1001.6,374.3z"/>
<path fill="#FFD8B5" d="M1053.1,325.2c44.3-3.8,46.7-52.6,43.5-62.6l-50.4,4.1l-30.6,18.2"/>
<linearGradient id="SVGID_4_" gradientUnits="userSpaceOnUse" x1="939.6139" y1="503.325" x2="1018.3325" y2="503.325">
	<stop  offset="0" style="stop-color:#A9FF88;stop-opacity:0.5"/>
	<stop  offset="0.9215" style="stop-color:#A9FF88;stop-opacity:0"/>
</linearGradient>
<path fill="url(#SVGID_4_)" d="M1012.6,604.2c-15.4-2.8-24.7-5.6-24.7-5.6c-0.2-10.1,6.2-19.6,5.8-27c-0.3-6.4-1.9-9-2.9-13.8
	c-0.6-2.8-0.4-8.4,1.2-12.6c1.5-3.9,2.3-8.5,1-13.4c-1-3.9-0.9-7.9-0.8-11.8c0.6-43.3-1.7-92.8-5.5-117.5l18.9,8.9
	C1005.6,411.4,1030.9,502.4,1012.6,604.2z"/>
<linearGradient id="SVGID_5_" gradientUnits="userSpaceOnUse" x1="1021.2297" y1="293.9961" x2="1103.5891" y2="293.9961">
	<stop  offset="0" style="stop-color:#FFD8B5"/>
	<stop  offset="1" style="stop-color:#EFAC84"/>
</linearGradient>
<path fill="url(#SVGID_5_)" d="M1021.6,284.8c0,0-6.8,44.1,37.5,40.3c44.3-3.8,46.7-52.6,43.5-62.6l-50.4,4.1L1021.6,284.8z"/>
<linearGradient id="SVGID_6_" gradientUnits="userSpaceOnUse" x1="999.6469" y1="320.5219" x2="1052.1166" y2="231.5151">
	<stop  offset="0" style="stop-color:#F04D4E"/>
	<stop  offset="0.2236" style="stop-color:#EC4B4C"/>
	<stop  offset="0.4517" style="stop-color:#E04546"/>
	<stop  offset="0.6812" style="stop-color:#CB3A3D"/>
	<stop  offset="0.703" style="stop-color:#C9393C"/>
	<stop  offset="0.811" style="stop-color:#C6383B"/>
	<stop  offset="0.8918" style="stop-color:#BC3336"/>
	<stop  offset="0.9635" style="stop-color:#AC2B2E"/>
	<stop  offset="1" style="stop-color:#A12529"/>
</linearGradient>
<path fill="url(#SVGID_6_)" d="M1050,281.1l-25,4.1c0,0-7.7,45-5.3,93.7c-4.7-4.5-7.6-25.5-7.6-25.5s-1.5,14.6-1.5,20.6
	c-0.1,30.4-10.7,73.8-10.7,73.8c0.1-8.7-1.9-31.5-1.9-31.5c-6.3,30.6-13.7,40.6-14.1,41.7c2.4-22.5,1-54,1-54
	c-8.1,29.9-15.2,37.9-15.2,37.9c2.5-18.4,3.8-54.7,4.6-92.8c-1.6,7.1-2.2,8.1-4.6,15c3.4-41.9,5.7-109,5.7-109s19.4-38.7,24.6-49
	c0,0,22.4-43.4,26.3-58.8c0,0,9.7,42.1,46.7,69.4L1050,281.1z"/>
<g>
	<path fill="#FFD8B5" d="M996.8,205.1c0.1,1.2,0.2,2.5,0.4,3.8c1.3,10.3,3.7,21.9,8,35.5c1.1,3.6,2.4,7.4,3.8,11.3
		c0.4,1.2,0.8,2.3,1.2,3.5c9.1,26.6,13,42.4,13,42.4c24.2-3.5,47.2-18.9,62.5-35.2c0.3-1.9,0.6-3.8,0.8-5.5c0.5,0.4,1.1,0.7,1.7,0.9
		c6.5,2.3,14.7-4.5,18.2-15c3.6-10.6,1.3-20.9-5.2-23.2c-4.7-1.6-10.4,1.5-14.4,7.4c-0.2-1.5-0.7-2.5-1.5-3
		c-4.6-2.9-2.8-10.8-28.2-38.6c-15-16.4-30.4-36-32.2-43.6c-0.1-0.6-7.1,7.3-7,7.2c-0.2,0.1-0.7,4.1-0.7,4.1
		S1005.8,183.3,996.8,205.1z"/>
	<path fill="#F04D4E" d="M1007.4,257.1c9.1,26.6,13.9,45,13.9,45c2.3-0.4,4.8-0.9,7.3-1.4c10.6-2.3,21.8-6,26.4-10
		c10.6-46.8-25.2-37.5-33.9-38c-1.1-0.1-2.1,0-3.1,0.1C1011.8,253.4,1007.4,257.1,1007.4,257.1z"/>
	
		<linearGradient id="SVGID_7_" gradientUnits="userSpaceOnUse" x1="487.1741" y1="796.6898" x2="506.2599" y2="765.8436" gradientTransform="matrix(-1 0 0 1 1527.5413 -571.0694)">
		<stop  offset="0" style="stop-color:#FFD8B5"/>
		<stop  offset="1" style="stop-color:#EFAC84"/>
	</linearGradient>
	<path fill="url(#SVGID_7_)" d="M1026.3,205c-0.4,2.2-5,17.1,4.3,35.3c2.4,4.6,7.3,8.3,14.1,8.3c14.6,0,17.7-17.8,17.7-17.8
		l-19.6-23.9l-9.2-4.7c-2.3,0.1-4.7,0.3-7,0.4C1026.5,203.4,1026.5,204.2,1026.3,205z"/>
	
		<linearGradient id="SVGID_8_" gradientUnits="userSpaceOnUse" x1="519.1125" y1="793.3975" x2="532.6144" y2="771.576" gradientTransform="matrix(-1 0 0 1 1527.5413 -571.0694)">
		<stop  offset="0" style="stop-color:#FFD8B5"/>
		<stop  offset="1" style="stop-color:#EFAC84"/>
	</linearGradient>
	<path fill="url(#SVGID_8_)" d="M997.2,208.9c1.3,10.3,3.7,21.9,8,35.5c1.6-1.5,2.8-3.5,4-5.3c9.4-14.5,3.4-37.1,3.4-37.1l-0.1-0.6
		l-5.6-0.4l-7.5,4.7L997.2,208.9z"/>
	<ellipse fill="#51508A" cx="1035" cy="222.6" rx="2.3" ry="5.6"/>
	<ellipse fill="#51508A" cx="1006" cy="220.8" rx="1.9" ry="4.9"/>
	
		<linearGradient id="SVGID_9_" gradientUnits="userSpaceOnUse" x1="507.6324" y1="809.1965" x2="521.2255" y2="808.7827" gradientTransform="matrix(-1 0 0 1 1527.5413 -571.0694)">
		<stop  offset="0" style="stop-color:#FFD8B5"/>
		<stop  offset="1" style="stop-color:#EFAC84"/>
	</linearGradient>
	<path fill="url(#SVGID_9_)" d="M1020.4,220.1l0.9,30.3c0,1-0.6,1.9-1.6,2.2l-13.6,3.9c-2,0.6-3.9-1.2-3.4-3.3
		c1.9-8,6.6-24.7,15.9-33.9C1019.3,218.8,1020.4,219.2,1020.4,220.1z"/>
	<path fill="#FFD8B5" d="M1014.2,264.4c0,0,11.5,1.6,25.8-2c1.7-0.4,3,2,1.5,3.7c-2.8,3-8.9,6.7-19.8,6.3c-4.5-0.2-6.5-1.9-6.5-1.9
		S1016.3,268.5,1014.2,264.4z"/>
	<g>
		<path fill="#F04D4E" d="M1045.6,210.4c0,0-0.2-0.2-0.6-0.6c-0.4-0.4-1-1-1.7-1.6c-1.5-1.3-3.6-2.9-5.8-3.9c-1.1-0.5-2.2-0.9-3.2-1
			c-0.5-0.1-1-0.1-1.4,0c-0.4,0-0.8,0.2-1.1,0.3c-0.3,0.1-0.6,0.3-0.8,0.4c-0.2,0.1-0.4,0.3-0.5,0.4c-0.3,0.3-0.4,0.5-0.4,0.5
			l-0.1,0.1c-0.8,0.9-2.3,1-3.2,0.2c-0.9-0.8-1-2.3-0.2-3.2c0.1-0.1,0.1-0.1,0.2-0.2c0,0,0.3-0.3,0.9-0.7c0.3-0.2,0.7-0.5,1.2-0.7
			c0.5-0.2,1.1-0.4,1.7-0.6c0.7-0.1,1.4-0.2,2.1-0.2c0.7,0,1.5,0.2,2.2,0.4c0.7,0.2,1.4,0.5,2.1,0.8c0.7,0.3,1.3,0.7,1.9,1.1
			c2.4,1.6,4.2,3.6,5.6,5.2c1.3,1.5,2.1,2.7,2.1,2.7c0.2,0.3,0.1,0.7-0.2,0.9C1046.1,210.7,1045.8,210.7,1045.6,210.4L1045.6,210.4z
			"/>
	</g>
	<g>
		<path fill="#F04D4E" d="M997.7,208.4c0,0,0.5-1,1.3-2.4c0.8-1.4,2-3.3,3.6-4.9c0.4-0.4,0.8-0.8,1.3-1.2c0.5-0.4,1-0.7,1.6-1
			c0.6-0.3,1.2-0.5,1.9-0.5c0.7-0.1,1.3,0,1.9,0.2c0.6,0.2,1.1,0.5,1.4,0.7c0.4,0.3,0.6,0.5,0.9,0.7c0.4,0.4,0.6,0.7,0.6,0.7
			c0.7,0.8,0.6,2-0.2,2.7c-0.8,0.7-2,0.6-2.7-0.2c-0.1-0.1-0.1-0.2-0.2-0.3l-0.1-0.1c0,0-0.1-0.2-0.3-0.4c-0.1-0.1-0.2-0.3-0.3-0.4
			c-0.1-0.1-0.3-0.3-0.4-0.4c-0.2-0.1-0.3-0.2-0.6-0.2c-0.2,0-0.6,0-0.9,0.1c-0.4,0.1-0.7,0.3-1.1,0.5c-0.4,0.2-0.8,0.5-1.2,0.8
			c-1.6,1.2-3,2.7-4,3.9c-1,1.2-1.6,2.1-1.6,2.1c-0.2,0.2-0.5,0.3-0.8,0.1C997.7,208.9,997.6,208.6,997.7,208.4z"/>
	</g>
</g>
<path fill="#F04D4E" d="M1127.6,287.5c-14.5,6-16.3,29.8-15.8,53.9c0.1,7.2,0.5,14.4,0.8,21.1c0.5,14.1,0.8,26.3-2,32.3
	c-8.3,18.5-21.6,102.9-21.6,102.9c-10.3-47.5-3.9-117.3-3.9-117.3c-4.9,8.3-15.2,55.3-15.2,55.3c-1.5-29.3,5.8-84.5,10.4-116.9
	c-6.1,20.3-14.2,39.4-14.6,40.3c4-19.7,6.6-55.7,7.4-77.5c1.3-34.9-0.1-64.7-0.1-64.7c-37-27.3-47-68.1-47-68.1
	c-3.9,15.3-26,57.5-26,57.5c-5.2,10.3-24.6,49-24.6,49l-0.3,1.1c-0.1,0.4-0.3,0.8-0.5,1.2c-2.1,4.4-7.2,11.6-7.6,12.1
	c0.3-0.8,6.6-18.5,7.7-62.4c0.1-4.4,0.5-8.7,1.1-12.9c5.8-38,30-66.6,45.6-66.6c10.6-12.9,54.3-11.9,77.2,5
	C1142.5,165.1,1127.6,287.5,1127.6,287.5z"/>
<path fill="#FFD8B5" d="M1172.9,363.5c-16.1,50.8-35,87.1-46.3,106.6c-5.4,9.2-17.4,12-26.3,6.1c-14.5-9.6-29.5-20.4-43.8-31.1
	c-21.2-15.9-65.2-52-68.9-55.2c-8.8-7.5-14.1-12.1-14.1-12.1l28.1-46.5c3.6,3.1,8.6,7,14.4,11.5c6.2,4.7,13.3,10,20.7,15.5h0
	c17.8,13,37.2,26.8,48.6,34.8c6.2,4.4,10,7,10,7c5.9-13.7,19.5-45.4,19.5-45.4l24.6-17.4h28.4l4,12.2
	C1170.7,353.6,1174.2,359.5,1172.9,363.5z"/>
<path fill="#404040" d="M1175.1,354.7c-0.1,0.4-0.1,0.9-0.2,1.3c0,0.2-0.1,0.5-0.1,0.7c-0.2,1-0.3,2-0.6,2.9c-0.8,4-2,7.6-3.2,9.9
	c-28-23.4-51.4-14.1-58.5-9.4c-0.3-6.8-0.5-11.4-0.7-18.6l25.8-12.1l36.4,1.6c0.4,1.6,0.8,3.3,1,5
	C1175.9,341.8,1175.9,348.3,1175.1,354.7z"/>
<path fill="#FFD8B5" d="M756.3,312.5c2.8-7.4,14.7-6.3,29.8-2.1c15.1,4.2,47.6-0.2,52.3,27.4s-50.6-5-50.6-5s-15.2-1.4-25.2-7.8
	C757,321.5,754.9,316.1,756.3,312.5z"/>
<linearGradient id="SVGID_10_" gradientUnits="userSpaceOnUse" x1="755.8572" y1="327.9723" x2="838.6349" y2="327.9723">
	<stop  offset="0" style="stop-color:#FFD8B5"/>
	<stop  offset="1" style="stop-color:#EFAC84"/>
</linearGradient>
<path fill="url(#SVGID_10_)" d="M756.3,312.5c2.8-7.4,14.7-6.3,29.8-2.1c15.1,4.2,47.6-0.2,52.3,27.4s-50.6-5-50.6-5
	s-15.2-1.4-25.2-7.8C757,321.5,754.9,316.1,756.3,312.5z"/>
<linearGradient id="SVGID_11_" gradientUnits="userSpaceOnUse" x1="732.1963" y1="327.9723" x2="814.9739" y2="327.9723">
	<stop  offset="0" style="stop-color:#A9FF88;stop-opacity:0.5"/>
	<stop  offset="1" style="stop-color:#A9FF88;stop-opacity:0.1"/>
</linearGradient>
<path fill="url(#SVGID_11_)" d="M756.3,312.5c2.8-7.4,14.7-6.3,29.8-2.1c15.1,4.2,47.6-0.2,52.3,27.4s-50.6-5-50.6-5
	s-15.2-1.4-25.2-7.8C757,321.5,754.9,316.1,756.3,312.5z"/>
<path fill="#F04D4E" d="M970.6,254.8c-0.1,0.3-0.2,0.7-0.3,1.1L970.6,254.8z"/>
<linearGradient id="SVGID_12_" gradientUnits="userSpaceOnUse" x1="1008.071" y1="370.7959" x2="958.6434" y2="358.5396">
	<stop  offset="0" style="stop-color:#FFD8B5"/>
	<stop  offset="1" style="stop-color:#EFAC84"/>
</linearGradient>
<path fill="url(#SVGID_12_)" d="M1000.8,400.8c-16.6-13.7-32.1-27.2-32.1-27.2l43.7-33.6C1027.7,369.2,1009,392.5,1000.8,400.8z"/>
<path fill="#51508A" d="M900.9,395.1c0,0-0.1,0.1-0.1,0.1c-13.5,21.1-28.8,31.5-38.6,36.4c-3,1.5-5.5,2.5-7.3,3.1
	c-0.1,0-0.2,0.1-0.3,0.1c-1.3,0.5-2.8,0.1-3.8-0.9c-14.3-14.1-32.8-32.5-44.3-44.5c-0.8-0.8-0.4-2.3,0.7-2.6c0.1,0,0.2,0,0.2-0.1
	c7.6-2.1,14.2-5.2,19.9-8.8c14.8-9.2,23.4-21.2,26.6-26.2c0-0.1,0.1-0.1,0.1-0.2c0.7-1.1,2.1-1.2,3.1-0.4
	c14.3,13.7,32.9,30.9,43.3,40.3C901.4,392.5,901.6,394,900.9,395.1z"/>
<linearGradient id="SVGID_13_" gradientUnits="userSpaceOnUse" x1="818.7381" y1="364.0594" x2="776.3214" y2="353.5415">
	<stop  offset="0" style="stop-color:#FFD8B5"/>
	<stop  offset="1" style="stop-color:#EFAC84"/>
</linearGradient>
<path fill="url(#SVGID_13_)" d="M808.3,387.8c-12.4-13-21.1-22.6-22.6-24.7l43.3-22.8C832.8,364.2,817,380.7,808.3,387.8z"/>
<linearGradient id="SVGID_14_" gradientUnits="userSpaceOnUse" x1="821.8126" y1="425.9026" x2="857.2283" y2="410.6139">
	<stop  offset="0" style="stop-color:#A9FF88;stop-opacity:0.5"/>
	<stop  offset="1" style="stop-color:#A9FF88;stop-opacity:0.1"/>
</linearGradient>
<path fill="url(#SVGID_14_)" d="M890.2,467c-10.7-9.1-23-20.4-35.2-32.2c-0.1,0-0.2,0.1-0.3,0.1c-1.3,0.5-2.8,0.1-3.8-0.9
	c-14.3-14.1-32.8-32.5-44.3-44.5c-0.8-0.8-0.4-2.3,0.7-2.6c0.1,0,0.2,0,0.2-0.1c-7.1-7.5-13-13.8-16.9-18.2l28.6-4
	c0,0,3.1,5.2,8.2,13.4c8.3,13.4,21.8,34.7,34.8,53.5C872.8,446.9,883.1,460.5,890.2,467z"/>
<path fill="#FFD8B5" d="M789.3,363.6c-23.2,2.6-41.4,1.7-68.3-15.7c-13-8.4-15.5-16.1-12.2-21.2c3.2-4.9,11.3-4.1,21,0
	c15.7,6.6,30.3,11.2,47.6,2.7c17.4-8.6,40.6-13.3,61,8.4C858.7,359.5,789.3,363.6,789.3,363.6z"/>
<linearGradient id="SVGID_15_" gradientUnits="userSpaceOnUse" x1="708.3451" y1="294.6924" x2="820.6088" y2="368.9715">
	<stop  offset="0" style="stop-color:#FFD8B5"/>
	<stop  offset="1" style="stop-color:#EFAC84"/>
</linearGradient>
<path fill="url(#SVGID_15_)" d="M789.3,363.6c-23.2,2.6-41.4,1.7-68.3-15.7c-13-8.4-15.5-16.1-12.2-21.2c3.2-4.9,11.3-4.1,21,0
	c15.7,6.6,30.3,11.2,47.6,2.7c17.4-8.6,40.6-13.3,61,8.4C858.7,359.5,789.3,363.6,789.3,363.6z"/>
<linearGradient id="SVGID_16_" gradientUnits="userSpaceOnUse" x1="657.9098" y1="343.4416" x2="792.5223" y2="343.4416">
	<stop  offset="0" style="stop-color:#A9FF88;stop-opacity:0.5"/>
	<stop  offset="1" style="stop-color:#A9FF88;stop-opacity:0.1"/>
</linearGradient>
<path fill="url(#SVGID_16_)" d="M789.3,363.6c-23.2,2.6-41.4,1.7-68.3-15.7c-13-8.4-15.5-16.1-12.2-21.2c3.2-4.9,11.3-4.1,21,0
	c15.7,6.6,30.3,11.2,47.6,2.7c17.4-8.6,40.6-13.3,61,8.4C858.7,359.5,789.3,363.6,789.3,363.6z"/>
<linearGradient id="SVGID_17_" gradientUnits="userSpaceOnUse" x1="794.192" y1="335.5717" x2="691.0169" y2="422.0322">
	<stop  offset="0" style="stop-color:#FFD8B5"/>
	<stop  offset="1" style="stop-color:#EFAC84"/>
</linearGradient>
<path fill="url(#SVGID_17_)" d="M797.1,370.9c-23.2,2.6-41.4,1.7-68.3-15.7c-13-8.4-15.5-16.1-12.2-21.2c3.2-4.9,11.3-4.1,21,0
	c15.7,6.6,30.3,11.2,47.6,2.7c17.4-8.6,40.6-13.3,61,8.4C866.5,366.7,797.1,370.9,797.1,370.9z"/>
<linearGradient id="SVGID_18_" gradientUnits="userSpaceOnUse" x1="710.8499" y1="350.7001" x2="773.6341" y2="350.7001">
	<stop  offset="0" style="stop-color:#A9FF88;stop-opacity:0.6"/>
	<stop  offset="1" style="stop-color:#A9FF88;stop-opacity:0.1"/>
</linearGradient>
<path fill="url(#SVGID_18_)" d="M797.1,370.9c-23.2,2.6-41.4,1.7-68.3-15.7c-13-8.4-15.5-16.1-12.2-21.2c3.2-4.9,11.3-4.1,21,0
	c15.7,6.6,30.3,11.2,47.6,2.7c17.4-8.6,40.6-13.3,61,8.4C866.5,366.7,797.1,370.9,797.1,370.9z"/>
<path fill="#FFD8B5" d="M802.9,372.3c-19.3,2.2-34.4,1.4-56.8-13.1c-10.8-7-12.9-13.4-10.2-17.6c2.7-4.1,9.4-3.4,17.5,0
	c13.1,5.5,25.2,9.3,39.6,2.2c14.5-7.2,33.8-11.1,50.7,7C860.6,368.8,802.9,372.3,802.9,372.3z"/>
<linearGradient id="SVGID_19_" gradientUnits="userSpaceOnUse" x1="699.3478" y1="355.4627" x2="811.308" y2="355.4627">
	<stop  offset="0" style="stop-color:#A9FF88;stop-opacity:0.5"/>
	<stop  offset="1" style="stop-color:#A9FF88;stop-opacity:0.1"/>
</linearGradient>
<path fill="url(#SVGID_19_)" d="M802.9,372.3c-19.3,2.2-34.4,1.4-56.8-13.1c-10.8-7-12.9-13.4-10.2-17.6c2.7-4.1,9.4-3.4,17.5,0
	c13.1,5.5,25.2,9.3,39.6,2.2c14.5-7.2,33.8-11.1,50.7,7C860.6,368.8,802.9,372.3,802.9,372.3z"/>
<linearGradient id="SVGID_20_" gradientUnits="userSpaceOnUse" x1="864.387" y1="295.5768" x2="983.1749" y2="374.1727" gradientTransform="matrix(0.9258 -0.1545 0.1546 0.9266 24.3513 173.1301)">
	<stop  offset="0" style="stop-color:#FFD8B5"/>
	<stop  offset="1" style="stop-color:#EFAC84"/>
</linearGradient>
<path fill="url(#SVGID_20_)" d="M960.2,369.3c-22.3,6.4-38.6,3.8-67.8-8.8c-8.4-3.6-14.8-3.1-16.7-6.9c-1.3-2.6-1.4-5.1-0.4-7.3
	c2.3-5.4,10.4-5.9,20.6-3.4c16.5,3.9,31.5,6,47.1-5.2c15.7-11.3,37.6-19.7,61.1-1.8C1027.5,353.9,960.2,369.3,960.2,369.3z"/>
<linearGradient id="SVGID_21_" gradientUnits="userSpaceOnUse" x1="864.387" y1="295.5768" x2="983.1749" y2="374.1727" gradientTransform="matrix(0.9258 -0.1545 0.1546 0.9266 24.3513 173.1301)">
	<stop  offset="0" style="stop-color:#FFD8B5"/>
	<stop  offset="1" style="stop-color:#EFAC84"/>
</linearGradient>
<path fill="url(#SVGID_21_)" d="M960.2,369.3c-22.3,6.4-38.6,3.8-67.8-8.8c-8.4-3.6-14.8-3.1-16.7-6.9c-1.3-2.6-1.4-5.1-0.4-7.3
	c2.3-5.4,10.4-5.9,20.6-3.4c16.5,3.9,31.5,6,47.1-5.2c15.7-11.3,37.6-19.7,61.1-1.8C1027.5,353.9,960.2,369.3,960.2,369.3z"/>
<linearGradient id="SVGID_22_" gradientUnits="userSpaceOnUse" x1="895.7253" y1="362.4497" x2="1034.8412" y2="331.8777" gradientTransform="matrix(0.9258 -0.1545 0.1546 0.9266 24.3513 173.1301)">
	<stop  offset="0" style="stop-color:#FFD8B5"/>
	<stop  offset="1" style="stop-color:#EFAC84"/>
</linearGradient>
<path fill="url(#SVGID_22_)" d="M969,375.1c-17.5,4.5-38.6,6.7-68-7.6c-8.6-4.2-14.5-4.3-16.5-8.1c-1.3-2.6-1.4-5.1-0.4-7.3
	c2.3-5.4,10.4-5.9,20.6-3.4c16.5,3.9,31.5,6,47.1-5.2c15.7-11.3,37.6-19.7,61.1-1.8C1036.3,359.8,969,375.1,969,375.1z"/>
<path fill="#FFD8B5" d="M974.9,375.5c-18.6,5.3-33.5,7-57.8-3.5c-11.7-5.1-14.9-11.1-12.9-15.6c2-4.5,8.6-4.9,17.1-2.9
	c13.7,3.2,26.2,5,39.1-4.3c13-9.4,31.3-16.4,50.8-1.5C1030.9,362.7,974.9,375.5,974.9,375.5z"/>
<path fill="#FFD8B5" d="M919.5,324.6c0.6-2.8,2.5-4.7,5.5-5.9c5.2-2.1,12.1-0.2,23.3-1c15.5-1.1,44-6.9,55.7,18.3
	c8.6,18.4-19.8,42.5-35,39.2c-6.2-1.4-21.3-17.8-13.3-22.9c7.8-5,10.9-7.1,9.4-10.5c-1.8-4.1-7.7-2.7-11.5-2.5
	c-6.5,0.4-15.1,1.1-25.9-3.5C921.7,333.3,918.7,328.3,919.5,324.6z"/>
<path fill="#FFD8B5" d="M1036.8,358.2l-37.3,2.3l-3.8-17.7l5.5-11.8c3.6,3.1,8.9,7.3,14.8,11.8
	C1022.2,347.5,1029.4,352.8,1036.8,358.2z"/>
<path fill="#51508A" d="M986.4,390.4c7.4,6.2,48.8,40,70.1,56.1c0.5,0.4,1.3,0.3,1.7-0.2c4.3-4.6,24.7-27.6,29.1-52.1
	c0.1-0.8-0.2-1.6-0.8-2c-16.9-11.9-48.8-34.5-70.3-50.9c-0.4-0.3-1-0.1-1.1,0.4c-5,21.9-24.4,42.8-28.6,47.1
	C985.9,389.3,986,390,986.4,390.4z"/>
<linearGradient id="SVGID_23_" gradientUnits="userSpaceOnUse" x1="1215.8607" y1="500.7657" x2="1210.8286" y2="448.8259" gradientTransform="matrix(-4.489700e-11 1 1 4.489700e-11 584.1663 -584.1663)">
	<stop  offset="0" style="stop-color:#3C3C79"/>
	<stop  offset="1" style="stop-color:#51508A"/>
</linearGradient>
<path fill="url(#SVGID_23_)" d="M1030.1,620.8c0,0,40.4,13.1,85.3,7c0.9-0.1,1.2,1.1,0.4,1.4c-13.2,5-48.4,15-88.9-1.3L1030.1,620.8
	z"/>
<linearGradient id="SVGID_24_" gradientUnits="userSpaceOnUse" x1="1233.2017" y1="506.9075" x2="1227.233" y2="445.3016" gradientTransform="matrix(-4.489700e-11 1 1 4.489700e-11 584.1663 -584.1663)">
	<stop  offset="0" style="stop-color:#3C3C79"/>
	<stop  offset="1" style="stop-color:#51508A"/>
</linearGradient>
<path fill="url(#SVGID_24_)" d="M1026.5,638.1c0,0,44.6,14.4,101,4.1c0.9-0.2,1.2,1,0.4,1.4c-14.9,6.8-60.5,23.7-106,3.4
	L1026.5,638.1z"/>
<linearGradient id="SVGID_25_" gradientUnits="userSpaceOnUse" x1="914.9283" y1="160.1284" x2="1052.9718" y2="227.3607">
	<stop  offset="0.3295" style="stop-color:#A9FF88;stop-opacity:0.5"/>
	<stop  offset="0.5984" style="stop-color:#A9FF88;stop-opacity:0.1"/>
</linearGradient>
<path fill="url(#SVGID_25_)" d="M1021.4,127.8c0,0-38.3,31.1-39.8,73.6c-1.1,28.9-3.2,43.1-7,56.2c-2.1,4.4-7.2,11.6-7.6,12.1
	c0.3-0.8,6.6-18.5,7.7-62.4c0.1-4.4,0.5-8.7,1.1-12.9C981.5,156.3,1005.8,127.8,1021.4,127.8z"/>
<linearGradient id="SVGID_26_" gradientUnits="userSpaceOnUse" x1="923.7538" y1="700.1758" x2="1028.2234" y2="709.3234">
	<stop  offset="0.279" style="stop-color:#A9FF88;stop-opacity:0.5"/>
	<stop  offset="0.8835" style="stop-color:#A9FF88;stop-opacity:0"/>
</linearGradient>
<path fill="url(#SVGID_26_)" d="M1026.9,606.4C1026.9,606.4,1026.9,606.4,1026.9,606.4c-0.1,1.4-11.3,118.1-11.3,204.6h-31.9
	c-0.4-36.5,4.3-108.6,8.9-161c0.4-4.1,2.7-6.7,3.1-10.5c0.8-7.2-1.3-9.7-0.9-13.5c0.5-5.4,2.7-8.3,3.2-12.7c0.3-2.7-1.1-5.4-0.8-9.6
	c0.1-0.9,0.1-1.8,0.2-2.7c4,0.9,9.2,2,15.3,3.1C1016.9,604.9,1021.7,605.7,1026.9,606.4z"/>
</svg>
