<?xml version="1.0" encoding="utf-8"?>
<!-- Generator: Adobe Illustrator 20.1.0, SVG Export Plug-In . SVG Version: 6.00 Build 0)  -->
<svg version="1.1" id="Calque_17" xmlns="http://www.w3.org/2000/svg" xmlns:xlink="http://www.w3.org/1999/xlink" x="0px" y="0px"
	 viewBox="0 0 1280 800" enable-background="new 0 0 1280 800" xml:space="preserve">
<linearGradient id="SVGID_1_" gradientUnits="userSpaceOnUse" x1="993.4051" y1="292.2953" x2="1067.6925" y2="227.0294">
	<stop  offset="0" style="stop-color:#F04D4E"/>
	<stop  offset="0.1586" style="stop-color:#E7484A"/>
	<stop  offset="0.4156" style="stop-color:#CF3C3F"/>
	<stop  offset="0.4713" style="stop-color:#C9393C"/>
	<stop  offset="1" style="stop-color:#A12529"/>
</linearGradient>
<path fill="url(#SVGID_1_)" d="M987.5,241.3c0,0-3.8,57.9-6.3,73l17.5,19.9c0,0,1.2,57.6-2.2,78.4c0,0,10-26.7,15.8-63.5
	c0,0-0.5,38.7-1.6,48.9c0,0,8.5-17.6,11.9-54.3c0,0,2.4,17.5,11.1,25.6c0,0-4.6-14.4-1.2-31.4c3.1-15.6,47.6-92.5,47.6-92.5
	l-13.4-73.4l-45.1-27.8l-15.6,20.8L987.5,241.3z"/>
<linearGradient id="SVGID_2_" gradientUnits="userSpaceOnUse" x1="905.5947" y1="235.6457" x2="1001.1084" y2="327.8104">
	<stop  offset="0.2062" style="stop-color:#FFD8B5"/>
	<stop  offset="0.4191" style="stop-color:#FDD1AE"/>
	<stop  offset="0.729" style="stop-color:#F6C09B"/>
	<stop  offset="1" style="stop-color:#EFAC84"/>
</linearGradient>
<path fill="url(#SVGID_2_)" d="M1023.8,336.8c-53.5,1.8-104-14.2-122.2-20.8c-4.6-1.6-7.8-5.7-8.4-10.5c-0.2-1.4-0.3-2.9-0.5-4.4
	c-1.5-15.5-1.8-34.9-1.5-53.9c0-0.4,0-0.8,0-1.1c0.3-15.8,0.9-31.3,1.6-43.8c0-0.3,0-0.6,0.1-0.9c0.5-9.2,1-16.6,1.3-21.5
	c0,0,0,0,0,0c0.3-3.8,0.4-5.9,0.4-5.9l6.7,1l36.1,5.4c0,0.3,0,0.7-0.1,1c-0.3,5.1-0.4,12.8-0.3,21.9c0,0.2,0,0.3,0,0.5
	c0.2,14.5,0.7,32.1,1.3,46.9c0,0.1,0,0.3,0,0.4c0.4,11,0.8,20.5,1.1,25.8c20.2,3.9,44.7,7.9,44.7,7.9L1023.8,336.8z"/>
<path fill="#F04D4E" d="M991,379.2c0,0,9.8-31.6,10.1-44.2s-9.1-8.5-9.1-8.5S994.1,356.6,991,379.2z"/>
<linearGradient id="SVGID_3_" gradientUnits="userSpaceOnUse" x1="1226.2936" y1="162.6216" x2="1115.4686" y2="260.4474">
	<stop  offset="0.2823" style="stop-color:#FFD8B5"/>
	<stop  offset="1" style="stop-color:#EFAC84"/>
</linearGradient>
<path fill="url(#SVGID_3_)" d="M1280,97.5v54.2c-22.3,13.6-78.4,51-135.3,113.3l-4.6-61.1C1140,203.9,1203.2,138.4,1280,97.5z"/>
<path fill="#F04D4E" d="M1091.2,180.6c3.4,13.8,22.6,63.1,22.6,63.1l-20.5,19.1L1088,195L1091.2,180.6z"/>
<path fill="#51508A" d="M1280,270.6v117c-6.5,2.8-12.9,5.1-18.2,6.4c-21.1,5-42.1-3.9-42.1-3.9s13.9-102.4,17.1-102.6
	c3.1-0.2,8.7,1.8,11.4,0.4c2.7-1.4,2.4-5.5,5.3-6.3c2.9-0.7,5.6,4.8,7.3-0.1c1.6-4.9,4.3,0.9,6.9-1.4
	C1269.8,278.2,1274.7,274.5,1280,270.6z"/>
<path fill="#404040" d="M1229.3,406.1c-86.5,5.4-144-30.3-176.1-59.7c-10.4-4.4-47,6.1-65.6,0c2.2-23.5-3.6-61.7-3.6-61.7
	c24.3-12.4,39.7-10.3,53-6.7c5.8-8.7,13.1-13,21.6-21.1c12.7-11.9,27.4-19.7,38-24.4c2.7-6.4,14.3-29.4,43.3-28.7
	c0,0,6.5,13.7,9.8,32.7c1.5,8.5,2.3,18,1.6,27.9c5.9,3.6,12.2,6.9,18.9,9.5c8.3,3.2,16.4,2.7,23.9,4.6c2.5,0.6,4.9,4,7.2,4.5
	c2.9,0.6,5.8-1.9,8.5-1.5c2.7,0.4,5.1,3.9,7.5,4.2c3,0.4,5.3-2.4,7.8-2.2c9.6,0.8,15.9,3.7,15.9,3.7
	C1252.3,337.8,1229.3,406.1,1229.3,406.1z"/>
<linearGradient id="SVGID_4_" gradientUnits="userSpaceOnUse" x1="1094.532" y1="297.8262" x2="1062.7651" y2="252.6319">
	<stop  offset="0.2062" style="stop-color:#FFD8B5"/>
	<stop  offset="0.6152" style="stop-color:#F6BF9A"/>
	<stop  offset="1" style="stop-color:#EFAC84"/>
</linearGradient>
<path fill="url(#SVGID_4_)" d="M1034.3,273.1c0,0,16.1,26.1,44.5,13.2c22.3-10.1,20.9-55.7,9.2-55.1S1034.3,273.1,1034.3,273.1z"/>
<g>
	<path fill="#FFD8B5" d="M992.5,200.6c0.1,1.1,0.2,2.1,0.3,3.2c1.1,8.8,3.2,18.7,6.8,30.4c1,3.1,2,6.3,3.2,9.6c0.4,1,0.7,2,1,3
		c7.8,22.7,11.1,36.2,11.1,36.2c20.6-3,40.3-16.1,53.4-30.1c0.3-1.6,0.5-3.2,0.6-4.7c0.5,0.3,0.9,0.6,1.5,0.7
		c5.5,1.9,12.5-3.8,15.6-12.8c3.1-9,1.1-17.9-4.5-19.8c-4-1.4-8.8,1.3-12.3,6.3c-0.1-1.3-0.6-2.1-1.3-2.6c-3.9-2.5-2.4-9.2-24.1-33
		c-12.8-14-25.9-30.8-27.5-37.3c-0.1-0.5-6.1,6.2-6,6.1c-0.2,0.1-0.6,3.5-0.6,3.5S1000.2,181.9,992.5,200.6z"/>
	<path fill="#F04D4E" d="M1001.6,245c7.8,22.7,11.9,38.5,11.9,38.5c2-0.3,4.1-0.7,6.3-1.2c9-2,18.6-5.2,22.5-8.5
		c9.1-39.9-21.6-32-29-32.5c-0.9-0.1-1.8,0-2.7,0C1005.3,241.9,1001.6,245,1001.6,245z"/>
	
		<linearGradient id="SVGID_5_" gradientUnits="userSpaceOnUse" x1="497.8139" y1="789.1715" x2="514.1169" y2="762.8228" gradientTransform="matrix(-1 0 0 1 1527.5413 -571.0694)">
		<stop  offset="0" style="stop-color:#FFD8B5"/>
		<stop  offset="1" style="stop-color:#EFAC84"/>
	</linearGradient>
	<path fill="url(#SVGID_5_)" d="M1017.8,200.5c-0.4,1.8-4.3,14.6,3.7,30.1c2,3.9,6.2,7.1,12,7.1c12.4,0,15.1-15.2,15.1-15.2
		l-16.7-20.5l-7.8-4c-2,0.1-4,0.2-6,0.4C1017.9,199.1,1017.9,199.8,1017.8,200.5z"/>
	
		<linearGradient id="SVGID_6_" gradientUnits="userSpaceOnUse" x1="525.0955" y1="786.3592" x2="536.6288" y2="767.7194" gradientTransform="matrix(-1 0 0 1 1527.5413 -571.0694)">
		<stop  offset="0" style="stop-color:#FFD8B5"/>
		<stop  offset="1" style="stop-color:#EFAC84"/>
	</linearGradient>
	<path fill="url(#SVGID_6_)" d="M992.9,203.8c1.1,8.8,3.2,18.7,6.8,30.4c1.4-1.3,2.4-2.9,3.4-4.5c8-12.4,2.9-31.7,2.9-31.7l-0.1-0.5
		l-4.8-0.4l-6.4,4L992.9,203.8z"/>
	<ellipse fill="#51508A" cx="1025.1" cy="215.5" rx="1.9" ry="4.8"/>
	<ellipse fill="#51508A" cx="1000.4" cy="214" rx="1.7" ry="4.2"/>
	
		<linearGradient id="SVGID_7_" gradientUnits="userSpaceOnUse" x1="515.2893" y1="799.8547" x2="526.9005" y2="799.5012" gradientTransform="matrix(-1 0 0 1 1527.5413 -571.0694)">
		<stop  offset="0" style="stop-color:#FFD8B5"/>
		<stop  offset="1" style="stop-color:#EFAC84"/>
	</linearGradient>
	<path fill="url(#SVGID_7_)" d="M1012.7,213.4l0.8,25.9c0,0.9-0.5,1.6-1.4,1.9l-11.6,3.4c-1.7,0.5-3.3-1-2.9-2.8
		c1.6-6.9,5.7-21.1,13.6-29C1011.8,212.3,1012.7,212.6,1012.7,213.4z"/>
	<path fill="#FFD8B5" d="M1007.4,251.3c0,0,9.8,1.3,22.1-1.7c1.4-0.4,2.6,1.7,1.3,3.2c-2.4,2.6-7.6,5.7-16.9,5.4
		c-3.9-0.1-5.6-1.6-5.6-1.6S1009.2,254.7,1007.4,251.3z"/>
	<g>
		<path fill="#F04D4E" d="M1034.2,205.1c0,0-0.8-0.8-2-1.9c-1.3-1.1-3-2.4-4.9-3.3c-0.9-0.4-1.9-0.8-2.8-0.9c-0.4-0.1-0.8-0.1-1.2,0
			c-0.3,0-0.6,0.1-0.9,0.2c-0.3,0.1-0.5,0.2-0.7,0.4c-0.2,0.1-0.3,0.3-0.5,0.4c-0.2,0.3-0.4,0.4-0.4,0.4l0,0.1
			c-0.7,0.8-2,0.9-2.8,0.1s-0.9-2-0.1-2.8c0.1-0.1,0.1-0.1,0.2-0.2c0,0,0.3-0.2,0.8-0.6c0.3-0.2,0.6-0.4,1-0.6
			c0.4-0.2,0.9-0.4,1.5-0.5c0.6-0.1,1.2-0.2,1.8-0.1c0.6,0,1.3,0.1,1.9,0.3c1.2,0.4,2.3,1,3.4,1.7c2,1.4,3.6,3.1,4.8,4.4
			c1.1,1.3,1.8,2.3,1.8,2.3c0.2,0.3,0.1,0.6-0.1,0.8C1034.7,205.4,1034.4,205.3,1034.2,205.1z"/>
	</g>
	<g>
		<path fill="#F04D4E" d="M993.3,203.4c0,0,0.4-0.8,1.1-2c0.7-1.2,1.7-2.8,3.1-4.2c0.3-0.4,0.7-0.7,1.1-1c0.4-0.3,0.8-0.6,1.3-0.8
			c0.5-0.2,1-0.4,1.6-0.4c0.6-0.1,1.1,0,1.6,0.2c0.5,0.2,0.9,0.4,1.2,0.6c0.3,0.2,0.5,0.5,0.8,0.6c0.3,0.4,0.5,0.6,0.5,0.6
			c0.6,0.7,0.5,1.7-0.1,2.3s-1.7,0.5-2.3-0.1c-0.1-0.1-0.1-0.1-0.2-0.2l-0.1-0.1c0,0-0.1-0.1-0.2-0.4c-0.1-0.1-0.2-0.2-0.3-0.3
			c-0.1-0.1-0.2-0.2-0.4-0.3c-0.1-0.1-0.3-0.2-0.5-0.2c-0.2,0-0.5,0-0.8,0.1c-0.6,0.2-1.3,0.6-2,1.1c-1.3,1-2.6,2.3-3.4,3.4
			c-0.8,1-1.3,1.8-1.3,1.8c-0.1,0.2-0.4,0.3-0.6,0.1C993.3,203.8,993.2,203.6,993.3,203.4z"/>
	</g>
</g>
<path fill="#51508A" d="M940.6,248.1c0.1,1.4-0.9,2.6-2.3,2.9c0,0-0.1,0-0.1,0c-19.8,2.9-33.9,0.4-41.9-2c-2.2-0.7-3.9-1.3-5.2-1.9
	h0c-1.5-0.6-2.4-2-2.3-3.6c0.3-14.4,0.9-28.4,1.6-40c0.1-1.1,1.2-1.8,2.2-1.4c0.1,0,0.1,0,0.2,0.1c2.6,1,5.2,1.8,7.9,2.3
	c15,3.2,30.7,0.5,36.4-0.8c0,0,0.1,0,0.1,0c1.1-0.2,2.2,0.6,2.2,1.8C939.5,218.8,940.1,234.5,940.6,248.1z"/>
<path fill="#F04D4E" d="M1097.4,284c0,0,4.8,39.6,3.7,61.7c0,0-1.8-8.9-2.6-11c-1.4-3.8-2.6-8.1-3.3-13c0,0-0.9,13.3,1.3,24.6
	c2.2,11.2,7.9,55.4,0.9,76.4c0,0-0.2-35.5-4.1-49.5c-4-14.1-12.3-39.5-14.1-58c0,0-2.1,17.6,0,30.3c0,0-8.7-10-12.4-40.3
	c-3.7-30.3-5.3-39.2-7.9-88.5c0,0-30.5-24.1-37.2-50.2c0,0,0.8,11.3,4,20.3c0,0-7-7.9-9.1-19c-9,6.3-21.1,24.7-26.9,76.2
	c-0.9,7.8-4.7,29.1-10,45.2c0,0,0-0.1,0-0.4c-0.2-5.8-2-79.3,4.3-105.5c2.9-12.3,12.5-27.7,25.5-34.5c7.5-7.9,17.1-13.3,29.6-12.5
	c32.5,2.1,51.7,29,53.8,54.6c2.2,25.5,4.6,82.3,9.7,107C1102.4,297.2,1098.5,288.1,1097.4,284z"/>
<linearGradient id="SVGID_8_" gradientUnits="userSpaceOnUse" x1="897.6993" y1="177.0279" x2="938.8202" y2="159.388">
	<stop  offset="0.1823" style="stop-color:#FFD8B5"/>
	<stop  offset="0.4418" style="stop-color:#F8C5A0"/>
	<stop  offset="0.7776" style="stop-color:#F1B38C"/>
	<stop  offset="1" style="stop-color:#EFAC84"/>
</linearGradient>
<path fill="url(#SVGID_8_)" d="M937.3,180.4c0,0.3,0,0.7-0.1,1c-1.8,20.2-22.3,11.3-34.4,4.2c-5-2.9-8.5-5.5-8.8-5.7c0,0,0,0,0,0
	c-1.8-6.9-1-14.4,1.6-21.1c3.8-9.8,11.7-17.7,21.5-19.4C937.7,135.8,939,150.5,937.3,180.4z"/>
<path fill="#FFD8B5" d="M939.6,151.8c7.5,2.3,12,10,12.6,16.7c0.9,11.1-5.1,25.8-18.4,28.6c-21.3,4.4-23.8-13.6-20-19.5
	c5.7-9,15.4-9,21.1-7.6C937.6,160.8,939.6,151.8,939.6,151.8z"/>
<linearGradient id="SVGID_9_" gradientUnits="userSpaceOnUse" x1="894.4265" y1="150.7554" x2="912.075" y2="150.7554">
	<stop  offset="0.1583" style="stop-color:#FFD8B5"/>
	<stop  offset="0.4808" style="stop-color:#FACAA5"/>
	<stop  offset="1" style="stop-color:#EFAC84"/>
</linearGradient>
<path fill="url(#SVGID_9_)" d="M897.5,160.9c-0.9-1.1-5.1-9-1.8-16.6c3.3-7.5,11.4-6.7,12.6-2c1.2,4.7,3.8,12.3,3.8,12.3
	s-2,5.3-5.9,7.3C903.8,163.1,899.5,163.4,897.5,160.9z"/>
<linearGradient id="SVGID_10_" gradientUnits="userSpaceOnUse" x1="892.6005" y1="150.7559" x2="903.8367" y2="150.7559">
	<stop  offset="0" style="stop-color:#A9FF88"/>
	<stop  offset="1" style="stop-color:#A9FF88;stop-opacity:0"/>
</linearGradient>
<path fill="url(#SVGID_10_)" d="M904.9,162.4c-2.4,0.7-5.7,0.6-7.4-1.5c-0.9-1.1-5.1-9-1.8-16.6c2.3-5.3,7-6.4,10-5.1
	c-1.8,0.8-3.6,2.4-4.8,5.1c-3.3,7.5,0.9,15.5,1.8,16.6C903.2,161.6,904,162.1,904.9,162.4z"/>
<linearGradient id="SVGID_11_" gradientUnits="userSpaceOnUse" x1="903.0361" y1="148.4951" x2="921.8651" y2="148.4951">
	<stop  offset="0.2032" style="stop-color:#FFD8B5"/>
	<stop  offset="0.5085" style="stop-color:#FACAA5"/>
	<stop  offset="1" style="stop-color:#EFAC84"/>
</linearGradient>
<path fill="url(#SVGID_11_)" d="M906.6,159.8c-1.5-1.7-5.8-10.3-2-18.9c3.8-8.6,13-7.6,14.3-2.3c1.3,5.3,3,14.5,3,14.5
	s0,5.2-3.9,7.9C914.9,163.1,909.7,163.4,906.6,159.8z"/>
<linearGradient id="SVGID_12_" gradientUnits="userSpaceOnUse" x1="900.1528" y1="148.4956" x2="912.5472" y2="148.4956">
	<stop  offset="0" style="stop-color:#A9FF88"/>
	<stop  offset="1" style="stop-color:#A9FF88;stop-opacity:0"/>
</linearGradient>
<path fill="url(#SVGID_12_)" d="M915.2,162.2c-2.9,0.8-6.3,0.3-8.6-2.4c-1.5-1.7-5.8-10.3-2-18.9c2.5-5.8,7.5-7.2,10.9-6
	c-2.3,0.8-4.6,2.7-6,6c-3.8,8.6,0.5,17.2,2,18.9C912.5,161,913.8,161.8,915.2,162.2z"/>
<linearGradient id="SVGID_13_" gradientUnits="userSpaceOnUse" x1="913.9714" y1="146.2357" x2="934.8212" y2="146.2357">
	<stop  offset="0.158" style="stop-color:#FFD8B5"/>
	<stop  offset="0.4806" style="stop-color:#FACAA5"/>
	<stop  offset="1" style="stop-color:#EFAC84"/>
</linearGradient>
<path fill="url(#SVGID_13_)" d="M917.6,159c-3-2.9-5.5-13.2-1.7-21.7c3.8-8.5,13.2-7.5,14.5-2.3s4.4,13.8,4.4,13.8
	s-3.3,8.5-6.7,10.9C924.5,162.4,920.3,161.8,917.6,159z"/>
<linearGradient id="SVGID_14_" gradientUnits="userSpaceOnUse" x1="911.2548" y1="146.2328" x2="924.5447" y2="146.2328">
	<stop  offset="0" style="stop-color:#A9FF88"/>
	<stop  offset="1" style="stop-color:#A9FF88;stop-opacity:0"/>
</linearGradient>
<path fill="url(#SVGID_14_)" d="M923.2,159c0.8,0.8,1.8,1.5,2.8,1.9c-3.1,1.2-6.2,0.3-8.5-1.9c-3-3-5.5-13.2-1.7-21.7
	c2.7-5.9,7.9-7.2,11.4-5.8c-2.2,0.8-4.3,2.7-5.7,5.8C917.7,145.8,920.2,156.1,923.2,159z"/>
<linearGradient id="SVGID_15_" gradientUnits="userSpaceOnUse" x1="928.3002" y1="135.436" x2="942.6406" y2="135.436">
	<stop  offset="0.2905" style="stop-color:#FFD8B5"/>
	<stop  offset="0.4783" style="stop-color:#FDD2AF"/>
	<stop  offset="0.7338" style="stop-color:#F7C39D"/>
	<stop  offset="1" style="stop-color:#EFAC84"/>
</linearGradient>
<path fill="url(#SVGID_15_)" d="M928.6,144.3c-0.3-1-0.4-2-0.3-3c0.6-4.7,2.1-18.3,1-26.2c-1.3-9.7,4.3-11.3,6.1-11.1
	c1.8,0.2,5.6,0.9,6.5,12.8s0.9,30.6,0,44.1s-13.7,0.1-13.7,0.1C930.7,159,930.7,151.8,928.6,144.3z"/>
<linearGradient id="SVGID_16_" gradientUnits="userSpaceOnUse" x1="924.0237" y1="135.436" x2="938.364" y2="135.436">
	<stop  offset="0" style="stop-color:#A9FF88"/>
	<stop  offset="1" style="stop-color:#A9FF88;stop-opacity:0"/>
</linearGradient>
<path fill="url(#SVGID_16_)" d="M928.6,144.3c-0.3-1-0.4-2-0.3-3c0.6-4.7,2.1-18.3,1-26.2c-1.3-9.7,4.3-11.3,6.1-11.1
	c1.8,0.2,5.6,0.9,6.5,12.8s0.9,30.6,0,44.1s-13.7,0.1-13.7,0.1C930.7,159,930.7,151.8,928.6,144.3z"/>
<linearGradient id="SVGID_17_" gradientUnits="userSpaceOnUse" x1="915.7349" y1="167.0336" x2="951.642" y2="184.5806">
	<stop  offset="0" style="stop-color:#FFD8B5"/>
	<stop  offset="0.2928" style="stop-color:#FED4B1"/>
	<stop  offset="0.5713" style="stop-color:#FACAA6"/>
	<stop  offset="0.8431" style="stop-color:#F4B993"/>
	<stop  offset="1" style="stop-color:#EFAC84"/>
</linearGradient>
<path fill="url(#SVGID_17_)" d="M933.8,197c-21.3,4.4-23.8-13.6-20-19.5c5.7-9,15.4-9,21.1-7.6c-5.2-2.5-8.7-1.3-13.3-3.6
	c-3.7-1.9-6.2-5.5-5.1-9.4c2.7-8.9,18.3-6.7,23.1-5c7.5,2.3,12,10,12.6,16.7C953.1,179.6,947.1,194.3,933.8,197z"/>
<linearGradient id="SVGID_18_" gradientUnits="userSpaceOnUse" x1="905.0884" y1="174.0024" x2="944.5414" y2="174.0024">
	<stop  offset="0" style="stop-color:#A9FF88;stop-opacity:0.7"/>
	<stop  offset="1" style="stop-color:#A9FF88;stop-opacity:0"/>
</linearGradient>
<path fill="url(#SVGID_18_)" d="M933.8,197c-21.3,4.4-23.8-13.6-20-19.5c5.7-9,15.4-9,21.1-7.6c-5.2-2.5-8.7-1.3-13.3-3.6
	c-3.7-1.9-6.2-5.5-5.1-9.4c2.7-8.9,18.3-6.7,23.1-5c7.5,2.3,12,10,12.6,16.7C953.1,179.6,947.1,194.3,933.8,197z"/>
<linearGradient id="SVGID_19_" gradientUnits="userSpaceOnUse" x1="1186.957" y1="317.7823" x2="1197.9095" y2="286.2208">
	<stop  offset="0" style="stop-color:#373737"/>
	<stop  offset="0.8364" style="stop-color:#404040"/>
</linearGradient>
<path fill="url(#SVGID_19_)" d="M1194.4,282c0,0-9,34.5-16.8,57.6c-0.2,0.5,0.6,0.9,0.9,0.4c7.3-11.6,18.3-32.4,23.4-51.9
	L1194.4,282z"/>
<linearGradient id="SVGID_20_" gradientUnits="userSpaceOnUse" x1="1198.0295" y1="339.4665" x2="1216.7236" y2="291.2697">
	<stop  offset="0" style="stop-color:#373737"/>
	<stop  offset="0.8364" style="stop-color:#404040"/>
</linearGradient>
<path fill="url(#SVGID_20_)" d="M1212.3,287.5c0,0-21.5,53.1-32.2,81.6c-0.7,1.9,1.8,3.3,3,1.7c21.4-28.6,33.8-60.2,38.9-79.8
	L1212.3,287.5z"/>
<linearGradient id="SVGID_21_" gradientUnits="userSpaceOnUse" x1="1253.8394" y1="331.4273" x2="1250.1399" y2="293.2422">
	<stop  offset="0" style="stop-color:#3C3C79"/>
	<stop  offset="1" style="stop-color:#51508A"/>
</linearGradient>
<path fill="url(#SVGID_21_)" d="M1245.8,291.1c0,0,9.6,29.7,5.1,62.7c-0.1,0.7,0.8,0.9,1.1,0.3c3.7-9.7,11.1-35.6-0.9-65.3
	L1245.8,291.1z"/>
<linearGradient id="SVGID_22_" gradientUnits="userSpaceOnUse" x1="1266.5881" y1="335.9426" x2="1262.2002" y2="290.6512">
	<stop  offset="0" style="stop-color:#3C3C79"/>
	<stop  offset="1" style="stop-color:#51508A"/>
</linearGradient>
<path fill="url(#SVGID_22_)" d="M1258.5,288.5c0,0,10.6,32.8,3,74.3c-0.1,0.6,0.8,0.9,1,0.3c5-11,17.4-44.4,2.5-77.9L1258.5,288.5z"
	/>
<linearGradient id="SVGID_23_" gradientUnits="userSpaceOnUse" x1="886.3211" y1="229.0351" x2="900.7141" y2="230.6273">
	<stop  offset="0" style="stop-color:#A9FF88;stop-opacity:0.7"/>
	<stop  offset="1" style="stop-color:#A9FF88;stop-opacity:0"/>
</linearGradient>
<path fill="url(#SVGID_23_)" d="M903.2,182.4c0,0-0.2,1.1-0.4,3.2c-0.5,3.6-1.2,10.2-2.2,19c-0.6,0-1,0.9-1.1,1.5
	c-1.2,10.9-2.8,24.1-4.2,40.2c0,0.5-0.1,1.9,1,2.7c-1.3,15.8-2.6,33.5-3.6,52c-1.5-15.5-1.8-34.9-1.5-53.9h0c-1.5-0.6-2.4-2-2.3-3.6
	c0.3-14.4,0.9-28.4,1.6-40c0.1-1.1,1.2-1.8,2.2-1.4c0.1,0,0.1,0,0.2,0.1c0-0.3,0-0.6,0.1-0.9c0.5-9.2,1-16.6,1.3-21.5c0,0,0,0,0,0
	c-1.8-6.9-1-14.4,1.6-21.1l6.9,2.1c0,0-2,7.1-1.4,14.1C901.5,177.6,902.1,180.2,903.2,182.4z"/>
<linearGradient id="SVGID_24_" gradientUnits="userSpaceOnUse" x1="974.1368" y1="212.9025" x2="1022.8923" y2="226.8832">
	<stop  offset="0" style="stop-color:#A9FF88"/>
	<stop  offset="0.1445" style="stop-color:#A9FF88;stop-opacity:0.8555"/>
	<stop  offset="1" style="stop-color:#A9FF88;stop-opacity:0"/>
</linearGradient>
<path fill="url(#SVGID_24_)" d="M979.7,288.8c-0.2-5.8-2-79.3,4.3-105.5c2.9-12.3,12.5-27.7,25.5-34.5l2.1,4
	C977.9,169.8,979.6,281.5,979.7,288.8z"/>
<linearGradient id="SVGID_25_" gradientUnits="userSpaceOnUse" x1="933.3087" y1="263.2768" x2="941.399" y2="279.709">
	<stop  offset="0" style="stop-color:#FFD8B5"/>
	<stop  offset="0.2905" style="stop-color:#FCCFAC"/>
	<stop  offset="0.7715" style="stop-color:#F4B992"/>
	<stop  offset="1" style="stop-color:#EFAC84"/>
</linearGradient>
<path fill="url(#SVGID_25_)" d="M939.4,276.9c-6.2-1.2-12-3.2-12-3.2l10.9-22.6C938.7,262.1,939.1,271.5,939.4,276.9z"/>
<linearGradient id="SVGID_26_" gradientUnits="userSpaceOnUse" x1="1150.9631" y1="262.5938" x2="1142.223" y2="244.6892">
	<stop  offset="0" style="stop-color:#373737"/>
	<stop  offset="0.776" style="stop-color:#404040"/>
</linearGradient>
<path fill="url(#SVGID_26_)" d="M1151.4,264.5c-8.9-6.1-18.6-15.4-18.6-15.4l17-12.5C1151.3,245.1,1152.1,254.7,1151.4,264.5z"/>
</svg>
