<?xml version="1.0" encoding="utf-8"?>
<!-- Generator: Adobe Illustrator 18.1.1, SVG Export Plug-In . SVG Version: 6.00 Build 0)  -->
<svg version="1.1" id="Layer_1" xmlns="http://www.w3.org/2000/svg" xmlns:xlink="http://www.w3.org/1999/xlink" x="0px" y="0px"
	 viewBox="-26 27 67 67" enable-background="new -26 27 67 67" xml:space="preserve">
<path fill="#F4F4F4" d="M24.8,75.1V63.4c0-6.3-3.3-9.2-7.8-9.2c-3.6,0-5.2,2-6.1,3.4v-2.9H4.1c0.1,1.9,0,20.4,0,20.4h6.8V63.7
	c0-0.6,0-1.2,0.2-1.7c0.5-1.2,1.6-2.5,3.5-2.5c2.5,0,3.4,1.9,3.4,4.6v10.9L24.8,75.1L24.8,75.1z M-3,51.9c2.4,0,3.8-1.6,3.8-3.5
	c0-2-1.5-3.5-3.8-3.5s-3.8,1.5-3.8,3.5C-6.8,50.4-5.4,51.9-3,51.9L-3,51.9z M8,91c-16.6,0-30-13.4-30-30c0-16.6,13.4-30,30-30
	s30,13.4,30,30C38,77.6,24.6,91,8,91z M0.4,75.1V54.7h-6.8v20.4H0.4z"/>
</svg>
