<?xml version="1.0" encoding="utf-8"?>
<!-- Generator: Adobe Illustrator 21.0.0, SVG Export Plug-In . SVG Version: 6.00 Build 0)  -->
<svg version="1.1" id="Calque_1" xmlns="http://www.w3.org/2000/svg" xmlns:xlink="http://www.w3.org/1999/xlink" x="0px" y="0px"
	 viewBox="0 0 111.9 43.4" style="enable-background:new 0 0 111.9 43.4;" xml:space="preserve">
<style type="text/css">
	.st0{fill:#FFFFFF;}
	.st1{fill:none;stroke:#FFFFFF;stroke-width:3;stroke-miterlimit:10;stroke-dasharray:8,8;}
</style>
<g id="TrWdT0.tif">
	<g>
		<path class="st0" d="M93.4,2.5c0.3,0.1,0.4,0.3,0.4,0.6c-0.2,1.1-0.3,2.1-0.5,3.2c0,0.2-0.5,0.5-0.8,0.5c-0.2,0-0.5-0.5-0.5-0.7
			c0.2-1.1,0.5-2.1,0.8-3.1C92.9,2.6,93.1,2.5,93.4,2.5L93.4,2.5z"/>
		<path class="st0" d="M86.1,21.6c0.8-4,1.6-7.6,2.4-11.3c0.4-1.9,2.1-2.9,3.9-2.5c1.6,0.4,2.5,1.9,2.2,3.5c-0.3,1.7-0.7,3.3-1.1,5
			c2.2-0.3,3.7,0.4,4.3,2.5c3.1-0.4,4.7,1,4.3,4c0.3,0.2,0.6,0.3,0.9,0.5c1.8,1.2,2.7,2.9,2.3,5.2c-0.4,2.4-1.2,4.6-2.4,6.8
			c-0.7,1.3-1.2,2.7-1.7,4.1c-0.2,0.7-0.5,1-1.3,0.8c-4.9-1-9.7-2.1-14.6-3.1c-0.7-0.1-1-0.6-0.8-1.2c0.8-2-0.1-3.5-1.3-5.2
			C81,27.6,79.5,24,78.7,20c-0.2-1,0.1-1.4,1-1.6C82.4,18,84.5,19,86.1,21.6z M86.2,35.8l13.4,2.9c0.7-1.5,1.5-2.8,2.1-4.2
			c0.8-2,1.6-4.1,2.1-6.2c0.4-1.6-0.4-2.9-2.1-3.7c-0.1,0.5-0.1,1-0.3,1.4c0,0.1-0.1,0.1-0.1,0.2c-0.4,0.5-1.2,0.3-1.2-0.4
			c0,0,0-0.1,0-0.1c0.1-1.1,0.5-2.2,0.6-3.2c0.2-1-0.4-1.9-1.3-2.1c-0.9-0.2-1.7,0.3-2,1.4c-0.2,0.6-0.2,1.3-0.5,2
			c-0.1,0.1-0.1,0.2-0.2,0.3c-0.3,0.4-1,0.3-1.2-0.2c0-0.1-0.1-0.3,0-0.4c0.1-1.2,0.5-2.4,0.7-3.6c0.2-1.3-1-2.3-2.1-1.8
			c-0.5,0.3-1,1-1.2,1.6c-0.4,1.2-0.5,2.4-0.8,3.6c0,0.1-0.1,0.2-0.2,0.2c-0.3,0.2-0.7,0.2-1-0.1c-0.1-0.1-0.2-0.2-0.2-0.4
			c-0.1-0.3,0.1-0.6,0.2-0.9c0.7-3.4,1.5-6.9,2.2-10.3c0.3-1.3-0.2-2.2-1.2-2.4c-1.1-0.2-1.7,0.3-2,1.7c-0.9,4-1.7,8-2.6,12
			c-0.1,0.3-0.1,0.7-0.2,0.9c0,0.1-0.1,0.2-0.2,0.2c-0.4,0.5-1.2,0.5-1.5-0.1c0,0,0,0,0,0c-0.3-0.6-0.5-1.3-0.8-1.9
			c-0.9-1.8-2.6-2.7-4.5-2.2c0.7,3.8,2.3,7.2,4.6,10.3C86.1,31.9,86.9,33.6,86.2,35.8z"/>
		<path class="st0" d="M87.5,3.6c0.2,0,0.3,0,0.5,0.1c0.1,0.1,0.2,0.2,0.2,0.2c0.5,0.8,1.1,1.5,1.5,2.4c0.1,0.2,0,0.4,0,0.6
			c-0.1,0.2-0.3,0.4-0.6,0.4c-0.2,0-0.5-0.1-0.6-0.2c-0.6-0.8-1.1-1.6-1.6-2.5c-0.1-0.2,0-0.6,0.1-0.8C87.2,3.7,87.3,3.6,87.5,3.6z"
			/>
		<path class="st0" d="M98.6,6.3c0,0.1,0,0.3-0.1,0.4c-0.1,0.1-0.2,0.3-0.3,0.4c-0.7,0.5-1.5,1-2.3,1.4c-0.2,0.1-0.4,0-0.6-0.1
			c-0.3-0.1-0.4-0.3-0.3-0.6c0-0.2,0.1-0.4,0.2-0.5c0.7-0.6,1.5-1.1,2.4-1.5c0.2-0.1,0.6,0,0.8,0.1C98.5,6,98.5,6.2,98.6,6.3z"/>
		<path class="st0" d="M85.9,8.6c0.4,0.1,0.9,0.1,1.3,0.3c0.2,0.1,0.3,0.3,0.4,0.5c0.2,0.2,0.1,0.5-0.1,0.7
			c-0.2,0.1-0.4,0.2-0.5,0.2c-0.9-0.1-1.9-0.3-2.8-0.6c-0.2-0.1-0.3-0.2-0.4-0.5c-0.1-0.2,0-0.5,0.2-0.7c0.2-0.1,0.3-0.2,0.5-0.2
			C85,8.3,85.4,8.5,85.9,8.6C85.9,8.6,85.9,8.6,85.9,8.6z"/>
		<path class="st0" d="M97.5,12.5c-0.5-0.1-1.1-0.2-1.6-0.4c-0.2-0.1-0.5-0.6-0.4-0.8c0-0.2,0.5-0.5,0.8-0.5c1,0.1,1.9,0.3,2.9,0.6
			c0.1,0,0.1,0.1,0.2,0.1c0.3,0.3,0.2,0.8-0.1,1.1c-0.1,0.1-0.2,0.1-0.3,0.1C98.4,12.8,97.9,12.6,97.5,12.5
			C97.5,12.5,97.5,12.5,97.5,12.5z"/>
		<path class="st0" d="M96.1,37c-0.8-0.2-1.6-0.3-2.3-0.5c-0.1,0-0.2-0.1-0.3-0.2c-0.2-0.3-0.2-0.7,0.1-1c0.2-0.1,0.3-0.2,0.5-0.2
			c1.6,0.3,3.1,0.6,4.6,1c0.1,0,0.2,0.1,0.3,0.3c0.2,0.3,0.1,0.7-0.2,0.9c-0.2,0.1-0.3,0.2-0.5,0.2C97.7,37.4,96.9,37.2,96.1,37z"/>
		<path class="st0" d="M90.8,35.8L90.8,35.8c-0.2-0.3-0.1-0.7,0.2-0.9c0.2-0.1,0.4-0.2,0.5-0.2c0.1,0,0.3,0.2,0.4,0.3
			c0.2,0.3,0.1,0.7-0.1,0.9l0,0C91.5,36.2,91,36.1,90.8,35.8z"/>
	</g>
</g>
<g>
	<path class="st1" d="M-934.1-272.5"/>
	<path class="st1" d="M-1058-303.4"/>
</g>
<path class="st0" d="M75.9,29.5c-1.6-0.2-3.2-0.4-4.7-0.8l0.4-1.7c1.5,0.3,3,0.6,4.6,0.7L75.9,29.5z M66.5,27.5
	c-1.5-0.5-3-1.1-4.5-1.7l0.7-1.6c1.4,0.6,2.9,1.2,4.3,1.6L66.5,27.5z M57.7,23.7c-1.3-0.7-2.7-1.6-4.1-2.5l1-1.5
	c1.4,0.9,2.7,1.7,4,2.4L57.7,23.7z M49.7,18.5c-1.1-0.8-2.2-1.6-3.3-2.4l-0.5-0.4l1.1-1.4l0.5,0.4c1.1,0.8,2.1,1.6,3.2,2.4
	L49.7,18.5z M42.1,12.8c-1.4-1-2.7-1.8-3.9-2.6l0.9-1.5c1.2,0.8,2.5,1.6,4,2.6L42.1,12.8z M3.4,11.2L2.6,9.6C4,8.8,5.4,8,6.8,7.4
	L7.6,9C6.2,9.6,4.8,10.4,3.4,11.2z M34.2,8.1c-0.4-0.2-0.8-0.4-1.3-0.6c-1-0.4-2-0.8-3-1.1l0.5-1.7c1.1,0.3,2.2,0.7,3.2,1.1
	c0.4,0.2,0.9,0.4,1.3,0.6L34.2,8.1z M11.8,7.2l-0.6-1.7c1.6-0.5,3.1-1,4.7-1.3L16.3,6C14.8,6.3,13.3,6.7,11.8,7.2z M25.4,5.5
	c-1-0.1-2-0.2-3-0.2c-0.5,0-1,0-1.6,0l-0.1-1.8c0.6,0,1.1-0.1,1.7,0c1.1,0,2.2,0.1,3.2,0.2L25.4,5.5z"/>
</svg>
