
<svg width="185px" height="212px" viewBox="0 0 185 212" version="1.1" xmlns="http://www.w3.org/2000/svg" xmlns:xlink="http://www.w3.org/1999/xlink">
    <!-- Generator: Sketch 48.2 (47327) - http://www.bohemiancoding.com/sketch -->
    <desc>Created with Sketch.</desc>
    <defs></defs>
    <g id="Page-1" stroke="none" stroke-width="1" fill="none" fill-rule="evenodd">
        <g id="Page-principale-site/-1" transform="translate(-1255.000000, -1407.000000)" stroke="#FFFFFF" stroke-width="2">
            <g id="Page-1" transform="translate(1257.000000, 1390.000000)">
                <polygon id="Stroke-1" points="173 186 161.795534 206 138 206 149.20617 186"></polygon>
                <polygon id="Stroke-2" points="120.793284 186 132 206 108.205011 206 97 186"></polygon>
                <polygon id="Stroke-3" points="215 162 203.792671 182 180 182 191.20392 162"></polygon>
                <polygon id="Stroke-4" points="55 158 66.2092395 138 90 138 78.7899082 158"></polygon>
                <polygon id="Stroke-5" points="138 158 149.205625 138 173 138 161.794375 158"></polygon>
                <polygon id="Stroke-6" points="120.794375 138 132 158 108.207329 158 97 138"></polygon>
                <polygon id="Stroke-7" points="134.500851 58 124 39.4978356 134.500851 21 145 39.4978356"></polygon>
                <polygon id="Stroke-8" points="132 66 120.794375 86 97 86 108.207329 66"></polygon>
                <polygon id="Stroke-9" points="173 90 161.79383 110 138 110 149.20617 90"></polygon>
                <polygon id="Stroke-10" points="149.207329 38 138 18 161.795228 18 173 38"></polygon>
                <polygon id="Stroke-11" points="108.207875 110 97 90 120.79383 90 132 110"></polygon>
                <polygon id="Stroke-12" points="124 88.5012986 134.501702 70 145 88.5012986 134.501702 107"></polygon>
                <polygon id="Stroke-13" points="97 134 108.207875 114 132 114 120.79383 134"></polygon>
                <polygon id="Stroke-14" points="176.501276 94 187 112.502164 176.501276 131 166 112.502164"></polygon>
                <polygon id="Stroke-15" points="36.793897 138 48 158 24.206103 158 13 138"></polygon>
                <polygon id="Stroke-16" points="13 134 24.2058301 114 48 114 36.7933176 134"></polygon>
                <polygon id="Stroke-17" points="134.501702 118 145 136.501731 134.501702 155 124 136.501731"></polygon>
                <polygon id="Stroke-18" points="132 162 120.794375 182 97 182 108.207329 162"></polygon>
                <polygon id="Stroke-19" points="176.501276 142 187 160.497836 176.501276 179 166 160.497836"></polygon>
                <polygon id="Stroke-20" points="191.205625 110 180 90 203.793523 90 215 110"></polygon>
                <polygon id="Stroke-21" points="191.205079 62 180 42 203.792365 42 215 62"></polygon>
                <polygon id="Stroke-22" points="51.4974467 166 62 184.500433 51.4974467 203 41 184.500433"></polygon>
                <polygon id="Stroke-23" points="93.5025533 190 104 208.501731 93.5025533 227 83 208.501731"></polygon>
                <polygon id="Stroke-25" points="134.500851 166 145 184.500433 134.500851 203 124 184.500433"></polygon>
                <polygon id="Stroke-28" points="91 186 79.7887495 206 56 206 67.204432 186"></polygon>
                <polygon id="Stroke-29" points="37.7899082 186 49 206 25.2058301 206 14 186"></polygon>
                <polygon id="Stroke-30" points="150.206477 182 139 162 162.794375 162 174 182"></polygon>
                <polygon id="Stroke-31" points="139 61 150.207022 41 174 41 162.795534 61"></polygon>
                <polygon id="Stroke-32" points="162.794103 114 174 134 150.205897 134 139 114"></polygon>
                <g id="Group-37">
                    <polygon id="Stroke-35" points="10.6899449 140.621284 21.2338435 158.909928 10.6899449 177.194293 0.132365217 158.909928"></polygon>
                </g>
                <polygon id="Stroke-38" points="52.4965951 117 63 135.499567 52.4965951 154 42 135.499567"></polygon>
                <polygon id="Stroke-39" points="93.5034049 141 104 159.502164 93.5034049 178 83 159.502164"></polygon>
                <polygon id="Stroke-40" points="191.205045 158 180 138 203.79325 138 215 158"></polygon>
                <polygon id="Stroke-41" points="180 134 191.206204 114 215 114 203.794648 134"></polygon>
                <polygon id="Stroke-42" points="180 85 191.205045 65 215 65 203.794103 85"></polygon>
                <polygon id="Stroke-43" points="14 182 25.2104648 162 49 162 37.7912396 182"></polygon>
                <polygon id="Stroke-44" points="79.7887495 162 91 182 67.204432 182 56 162"></polygon>
                <g id="Group-49" transform="translate(0.000000, 189.000000)">
                    <polygon id="Stroke-45" points="10.6833564 0.452286364 21.2207564 18.9056045 10.6833564 37.3615136 0.132283636 18.9056045"></polygon>
                    <polygon id="Stroke-47" points="177.045924 0.452286364 187.588451 18.9056045 177.045924 37.3615136 166.501687 18.9056045"></polygon>
                </g>
                <polygon id="Stroke-50" points="191.205658 206 180 186 203.792637 186 215 206"></polygon>
                <polygon id="Stroke-52" points="150.206477 182 139 162 162.794375 162 174 182"></polygon>
                <polygon id="Stroke-53" points="10.5068077 141 21 159.502164 10.5068077 178 0 159.502164"></polygon>
                <polygon id="Stroke-55" points="93.5034049 141 104 159.502164 93.5034049 178 83 159.502164"></polygon>
                <polygon id="Stroke-56" points="191.205045 158 180 138 203.79325 138 215 158"></polygon>
                <polygon id="Stroke-57" points="180 134 191.206204 114 215 114 203.794648 134"></polygon>
                <polygon id="Stroke-58" points="79.7887495 162 91 182 67.204432 182 56 162"></polygon>
                <g id="Group-63" transform="translate(0.000000, 189.000000)">
                    <polygon id="Stroke-59" points="10.6833564 0.452286364 21.2207564 18.9056045 10.6833564 37.3615136 0.132283636 18.9056045"></polygon>
                    <polygon id="Stroke-61" points="177.045924 0.452286364 187.588451 18.9056045 177.045924 37.3615136 166.501687 18.9056045"></polygon>
                </g>
            </g>
        </g>
    </g>
</svg>
