<?xml version="1.0" standalone="no"?><!-- Generator: Gravit.io --><svg xmlns="http://www.w3.org/2000/svg" xmlns:xlink="http://www.w3.org/1999/xlink" style="isolation:isolate" viewBox="0 0 113.386 395.433" width="113.386" height="395.433"><defs><clipPath id="_clipPath_uvm6pTfpW96qetHZamCeiNhzYyUTcOEm"><rect width="113.386" height="395.433"/></clipPath></defs><g clip-path="url(#_clipPath_uvm6pTfpW96qetHZamCeiNhzYyUTcOEm)"><g id="bouteille"><g id="Calque_2"><path d=" M 0 0 L 0 396 L 113 397 L 114 0 L 0 0 Z  M 109.35 207.051 L 109.35 350.795 L 108.85 360.411 L 107.151 370.528 L 102.453 379.744 L 97.955 383.751 L 80.263 389.861 L 55.075 391.764 L 30.786 389.861 L 15.193 385.153 L 8.396 380.646 L 3.498 370.729 L 1.399 360.812 L 0.5 350.895 L 0.5 207.151 L 5.198 194.43 L 0 182.91 L 0.9 95.161 L 3.498 79.535 L 9.096 67.214 L 17.092 56.396 L 39.182 30.652 L 38.982 24.742 L 35.684 22.338 L 35.983 6.812 L 37.383 3.706 L 44.679 0.902 L 53.875 0 L 65.87 1.402 L 73.466 4.708 L 74.466 20.735 L 72.866 24.041 L 70.767 25.744 L 71.267 31.153 L 97.855 62.306 L 104.652 74.326 L 108.25 87.548 L 109.45 100.27 L 109.649 183.812 L 104.952 194.63 L 109.35 207.051 Z " fill="rgb(104,141,216)"/></g><g id="Calque_1"><path d=" M 3.199 292.196 L 15.593 292.196 L 15.593 292.196 L 3.199 292.196 L 3.199 292.196 Z " fill="none"/><g id="Group"><path d=" M 100.754 381.046 C 110.449 370.829 109.55 352.097 109.55 331.262 C 109.55 300.71 109.55 207.452 109.55 207.452 L 104.752 194.63 L 109.55 183.411 C 109.55 183.411 109.55 156.065 109.55 111.088 C 109.55 66.112 98.355 64.509 71.067 30.752 L 71.067 24.341 L 39.082 24.341 L 39.082 30.752 C 11.795 64.509 0.6 66.112 0.6 111.088 C 0.6 156.065 0.6 183.411 0.6 183.411 L 5.398 194.63 L 0.6 207.452 C 0.6 207.452 0.6 300.71 0.6 331.262 C 0.6 351.696 0 370.428 9.196 380.746" fill="none" vector-effect="non-scaling-stroke" stroke-width="2.001" stroke="rgb(0,0,0)" stroke-linejoin="miter" stroke-linecap="butt" stroke-miterlimit="10"/></g><g id="Group"><line x1="36.083" y1="21.837" x2="36.083" y2="21.336" vector-effect="non-scaling-stroke" stroke-width="2.001" stroke="rgb(29,29,27)" stroke-linejoin="round" stroke-linecap="round" stroke-miterlimit="10"/><path d=" M 74.066 21.837 C 74.066 25.243 65.57 27.947 55.075 27.947 C 44.579 27.947 36.083 25.243 36.083 21.837 C 36.083 21.637 36.083 21.436 36.183 21.236 L 36.083 21.236 L 36.083 6.611 C 36.083 10.017 44.579 12.722 55.075 12.722 C 64.37 12.722 72.067 10.518 74.066 7.713 L 74.066 20.635 C 73.866 21.036 74.066 21.436 74.066 21.837 Z " fill="rgb(55,55,226)" vector-effect="non-scaling-stroke" stroke-width="2.001" stroke="rgb(29,29,27)" stroke-linejoin="round" stroke-linecap="round" stroke-miterlimit="10"/><line x1="74.066" y1="21.837" x2="74.066" y2="6.611" vector-effect="non-scaling-stroke" stroke-width="2.001" stroke="rgb(29,29,27)" stroke-linejoin="round" stroke-linecap="round" stroke-miterlimit="10"/><path d=" M 74.066 6.611 C 74.066 7.012 74.266 7.413 74.066 7.713 C 72.367 10.518 64.37 12.722 55.075 12.722 C 44.579 12.722 36.083 9.917 36.083 6.611 C 36.083 4.908 38.282 3.306 41.881 2.204 C 45.279 1.102 49.977 0.501 55.075 0.501 C 60.172 0.501 64.77 1.202 68.269 2.204 C 71.767 3.306 74.066 4.908 74.066 6.611 Z " fill="rgb(55,55,226)" vector-effect="non-scaling-stroke" stroke-width="2.001" stroke="rgb(29,29,27)" stroke-linejoin="round" stroke-linecap="round" stroke-miterlimit="10"/></g><g id="Group"><path d=" M 55.075 365.42 C 83.661 365.42 101.153 372.632 101.153 377.841 C 101.153 378.642 100.754 379.443 99.954 380.345 C 93.957 386.856 72.866 390.362 54.975 390.362 C 30.986 390.362 14.193 385.253 9.895 380.145 C 9.196 379.343 8.896 378.542 8.896 377.841 C 8.896 375.637 12.194 372.331 21.59 369.527 C 30.586 366.922 42.48 365.42 55.075 365.42 Z  M 55.075 363.416 C 28.487 363.416 6.997 369.927 6.997 377.841 C 6.997 379.043 7.497 380.245 8.496 381.447 C 13.794 387.657 32.685 392.365 55.175 392.365 C 77.364 392.365 95.956 387.858 101.553 381.747 C 102.653 380.545 103.252 379.243 103.252 377.941 C 103.252 369.927 81.662 363.416 55.075 363.416 L 55.075 363.416 Z " fill="rgb(0,0,0)"/></g></g></g></g></svg>