<?xml version="1.0" encoding="utf-8"?>
<!-- Generator: Adobe Illustrator 22.0.1, SVG Export Plug-In . SVG Version: 6.00 Build 0)  -->
<svg version="1.1" id="Calque_1" xmlns="http://www.w3.org/2000/svg" xmlns:xlink="http://www.w3.org/1999/xlink" x="0px" y="0px"
	 viewBox="0 -12 278.3 299.9" style="enable-background:new 0 0 278.3 299.9;" xml:space="preserve">
<style type="text/css">
	.st0{fill:#FFFFFF;}
	.st1{fill:none;stroke:#1D1D1B;stroke-width:2;stroke-linecap:round;stroke-linejoin:round;stroke-miterlimit:10;}
</style>
<path class="st0" d="M0.1,0.2v299h278V0.2H0.1z M234.8,239.9c0,15.1-43.3,27.4-96.5,27.4c-53.2,0-96.3-12.3-96.3-27.4V59.6
	c0-15.1,43.1-27.4,96.3-27.4c53.2,0,96.5,12.3,96.5,27.4V239.9z"/>
<path class="st1" d="M234.8,59.6c0-15.1-43.3-27.4-96.5-27.4S42,44.5,42,59.6v180.3c0,15.1,43.1,27.4,96.3,27.4s96.5-12.3,96.5-27.4
	V59.6z"/>
</svg>
