<?xml version="1.0" standalone="no"?><!-- Generator: Gravit.io --><svg xmlns="http://www.w3.org/2000/svg" xmlns:xlink="http://www.w3.org/1999/xlink" style="isolation:isolate" viewBox="0 0 193 235" width="193" height="235"><defs><clipPath id="_clipPath_L3KSCWmCkxTmCOrm9WuoNBexzDCjtHU5"><rect width="193" height="235"/></clipPath></defs><g clip-path="url(#_clipPath_L3KSCWmCkxTmCOrm9WuoNBexzDCjtHU5)"><path d=" M 0 0 L 0 234.551 L 192.221 234.573 L 192.221 0 L 0 0 Z  M 192.221 207.215 C 192.221 222.28 149.051 234.551 96.011 234.551 C 42.971 234.551 0 222.28 0 207.215 L 0 27.336 C 0 12.271 42.971 0 96.011 0 C 149.051 0 192.221 12.271 192.221 27.336 L 192.221 207.215 Z " fill="rgb(255,255,255)"/><path d=" M 192.221 27.496 C 192.221 12.441 149.051 0.178 96.011 0.178 C 42.971 0.178 0 12.441 0 27.496 L 0 207.255 C 0 222.309 42.971 234.573 96.011 234.573 C 149.051 234.573 192.221 222.309 192.221 207.255 L 192.221 27.496 Z " fill="none" vector-effect="non-scaling-stroke" stroke-width="1.994" stroke="rgb(29,29,27)" stroke-linejoin="round" stroke-linecap="round" stroke-miterlimit="10"/></g></svg>