<?xml version="1.0" encoding="utf-8"?>
<!-- Generator: Adobe Illustrator 22.0.1, SVG Export Plug-In . SVG Version: 6.00 Build 0)  -->
<svg version="1.1" id="Calque_1" xmlns="http://www.w3.org/2000/svg" xmlns:xlink="http://www.w3.org/1999/xlink" x="0px" y="0px"
	 viewBox="0 0 324.1 652.2" style="enable-background:new 0 0 324.1 652.2;" xml:space="preserve">
<style type="text/css">
	.st0{fill:#FFFFFF;}
	.st1{fill:none;stroke:#000000;stroke-width:2;stroke-linecap:round;stroke-linejoin:round;stroke-miterlimit:10;}
	.st2{fill:none;stroke:#000000;stroke-linecap:round;stroke-linejoin:round;stroke-miterlimit:10;}
</style>
<path class="st0" d="M0.4-0.2v653h324v-653H0.4z M299.3,349.3l-2.1,17.4c0,0-1.2,18-1.2,18.5c0,0.5-0.6,4.6-3.6,4.5
	c-3-0.1-4.4-14.4-4.4-14.4l-0.6-1c-9.8,1-19.9-1.7-19.9-1.7c-0.4-2.2,3-5,3-5s-0.7-1.4-0.7-2.5c0-1,3.5-2.5,3.5-2.5
	c0.3-5.1,12.3-6.4,12.3-6.4s-0.3-1.2-2.5-4.1c-2.2-2.9-7.6-2.2-11.6,0.4s-5.3,8.5-5.4,10.4c-0.1,1.8-2.9,4.7-6.5,4.3
	c-3.6-0.4-1-8.4-0.7-9.8c0.3-1.4,5.7-14.3,7.5-18.6c1.8-4.3,6.1-7.3,7.2-7.9c1.1-0.5,2.2-0.1,1.8-6.7c-0.4-6.6-12.6-25.4-16.5-32.1
	c-3.9-6.7-7.1-22.7-8.3-28.8c-1.2-6.2-0.8-21-0.8-21c-5.1-8.3-10.9-37-10.9-37s-1.9,10.1-2.9,14.3s-7.1,20.2-7.9,23.7
	c-0.8,3.5,1,11.8,2.1,13.6c1.1,1.8,3.6,8,4,15.2c0.4,7.2-0.3,10.2-0.3,10.2c4.7,3.5,8.7,17.6,9.8,27.8c1.1,10.2-1,33.9-4.3,45.6
	c-3.3,11.7-11.5,42.2-11.5,42.2l-8,23.3c0,0-0.8,11.7-2.6,16.8c-1.8,5.1-1.7,11-1.2,14.7c0.4,3.7,5.1,13.6,5.4,18.3
	c0.3,4.7-0.4,11.9-1.2,15.6c-0.8,3.7-6.5,24.9-6.5,24.9s-10.4,32.4-12.4,39.3c-2.1,6.9-4.1,7.1-5,15.7s1,13,3.6,16.6
	c2.6,3.7,9.8,5.4,13,10c3.2,4.6,0.7,7.9,0.4,9.8c-0.3,2-4.4,6.9-4.7,7.6c-0.3,0.7-4.4,2.9-7.3,2.9s-5.5-3.3-5.5-3.3
	c0.4,2.4-1.1,4.1-3.9,5.4s-8-1.6-9.8-3.4c-1.8-1.8-3.9-10.5-3.9-10.5l-1.1-5.8l-1.8-3.3c0,0-3-2-4.7-5s3.2-24.8,3.2-24.8l2.9-24.6
	c0,0-0.3-15.1-0.8-26.2c-0.6-11.1,3.3-31.1,4.3-34.7c1-3.7,4.4-10,5.1-13.1c0.7-3.1-3.3-18.1-4.4-21.8c-1.1-3.7-1.7-9.2-1.9-11.1
	c-0.3-2-1.9-22.9-2.1-24.2c-0.1-1.3-1.2-35.4-1.2-35.4l-0.1-19.3c0,0-2.6,12.7-3.3,15.7c-0.7,3-7.2,22.3-7.2,22.3
	s-14.2,28.4-15.8,32.1c-1.5,3.7-3.3,11.7-4.6,16.9s-3,12.7-4.4,17.2s-6.8,14-8.2,15.6c-1.4,1.6-3,7.2-1.8,17.3
	c1.2,10.1-3.2,21.8-4.3,25.6c-1.1,3.8-9.1,25.7-10.7,28.7c-1.5,3-5.7,17.6-5.7,22.4s-0.8,12.4,0.1,16.4c1,3.9,2.5,9.4,1.1,14.5
	c-1.4,5.1-5.4,6.2-11.5,7.9s-7.7,8.3-8.7,10.7c-1,2.5-4.4,4.5-5.3,5.4s-7.7,5.6-12.4,5.2c-4.7-0.4-3.9-4.1-3.9-4.1
	c-14.5-1.2-13.6-6.4-12.2-16c1.4-9.6,14.1-13.5,18.4-15.3c4.3-1.8,8.4-9.8,9.8-16.2c1.4-6.4,1.2-25.2,0.6-30.5
	c-0.7-5.4-0.4-30.3-0.1-33.3c0.3-3,3.6-23.7,4.6-27.6c1-3.9,9.8-27.3,11.6-32.1s2.6-15.7,2.5-17.4s-0.6-23.8-0.7-27.9
	c-0.1-4.1,0.4-22.5,0.8-26.3c0.4-3.8,3.2-19.1,4.4-24s9.5-33.7,10.7-36c1.1-2.4,3.2-9.2,3.9-10.4c0.7-1.2,2.6-13.9,2.9-16
	c0.3-2.1,1.2-17.7,1.2-20.4c0-2.8,0.4-20.7,0.4-20.7c-1.7-3-9.1-34.9-9.1-34.9s-1.8,6.2-2.4,8.9c-0.6,2.8-4.8,21-7.1,28.3
	c-2.2,7.3-9.5,23.5-9.5,23.5s-3.6,5-4.2,5.3c-0.6,0.3-14.4,16.1-16.4,18.2c-2,2.1-15.7,20.2-15.7,20.2s2.6,1.4,3,5.7
	c0.5,4.3-1.6,14.4-1.6,14.4s2.3,16.2,3.1,20.7c0.8,4.5-0.8,8.9-1.9,9.1c-1.1,0.2-2.3-1.8-3-3.1s-5-17.6-7.1-16.9
	c-2.1,0.8,1.8,17,2.5,20.6c0.6,3.6,0.5,7.5-1.4,7.7c-1.8,0.2-2.8-3.7-3.3-5.4c-0.6-1.7-2.7-16.2-3.1-18.4c-0.5-2.3-1.4-4.5-2.5-4.6
	s-1.5,2.9-1.8,4.5c-0.4,1.7,0,18.8-0.7,22.8c-0.7,4-1.8,3.7-3.1,1.4c-1.4-2.3-1-18.1-1-18.1s0.1-11.1-2-10.8
	c-2.1,0.3-2.3,14.9-2.3,17.2s-0.9,10.1-3.6,9.1c-2.7-1-2-14-1.9-16.6c0.1-2.6,2.1-23.1,2.1-23.1c-2.1-0.6-5.1,3.3-5.7,5.4
	c-0.6,2.1-4.5,10.2-5.1,11.7s-3,1.8-3.8,1.6c-0.8-0.3-1.7-2-1.3-2.6c0.4-0.6,2.5-9.3,3.5-11.7s5.2-14.6,10.1-21.8
	c5-7.2,11.4-8,11.4-8L58.5,270c0,0,10.2-23.4,12.8-28c2.5-4.6,8.4-13.8,9.5-15s2.8-2.7,2.8-2.7c-0.1-0.3-0.3-5.1-0.4-6.7
	c-0.1-1.6,1.9-20.5,1.9-20.5l2.9-21.7c0,0-0.3-14.4,2.4-23.3s8.7-14.8,14.4-19c5.8-4.2,16.2-5.9,19.7-6.4c3.5-0.5,8.3-2.5,11.5-4.6
	c3.2-2,9.9-4.7,11.8-5.5s3-2.3,4.8-5.1c1.9-2.8,2.7-15.2,2.7-18.9c0-3.6-0.8-15.2-0.8-15.2c-8.2-1.2-11.8-7.7-12.9-12
	c-1.1-4.3,3.1-5.6,3.1-5.6s-1.9-7.9,0.3-16.3c2.2-8.4,7.7-13.6,17.7-17.8c10-4.2,23.8-1.6,23.8-1.6c9.3,0.9,19.6,9.6,22,14.2
	c2.4,4.6,3.7,10.7,3.3,17.7c-0.4,6.9-3.9,21.9-5.4,26.7s-1.7,11.8-3.5,17c-1.8,5.2-6.6,4.3-6.6,4.3s0.1,4.6,1.1,9.4s7.5,6,7.5,6
	s32.4,10.2,38.3,12.4s13.7,6.4,17.6,10.4c3.9,3.9,8.4,13.8,9.8,22.7c1.4,8.9,1.2,24.1,1.1,27.3c-0.1,3.1,0.7,17.6,1.7,25
	c1,7.5,5.3,15.7,9.1,21.8c3.9,6,6.9,18.5,7.5,22.9c0.6,4.5,2.2,25.3,2.2,30.8s3.2,19.4,4.3,24.6c1.1,5.2,2.6,15.3,2.8,18.6
	C299.4,339.5,299.3,349.3,299.3,349.3z"/>
<path class="st1" d="M285.2,356.4c0,0-12.3,1.3-12.3,6.5"/>
<path class="st1" d="M270.1,367.6c0,0-4.4-7.3,16.6-5.2"/>
<path class="st1" d="M287.2,368.2c0.2,0.2-6.6,0-13.3-1c-6-1-6.6,5.2-6.6,5.2s4.4,2.2,19.9,2.1"/>
<path class="st1" d="M196.5,105.1c0,0,0,8.4,2.2,11.5c2.2,3.1,38.2,13.1,48.1,17.3c10,4.2,26,11,24.9,50.8
	c-1.1,39.8,5.5,45.1,8.9,51.4c3.3,6.3,10,10.5,11.1,49.3c0,0,1.1,17.8,4.4,30.4c3.3,12.6,3.3,22,3.3,27.3s-3.3,31.4-3.3,37.7
	c0,6.3-1.1,8.4-2.2,8.4c-1.1,0-5.5,6.3-6.6-25.2c0,0-1.1-16.8-11.1-13.6c-10,3.1-10,11.5-10,11.5s-1.1,6.3-6.6,5.2
	c-5.5-1,3.3-19.9,5.5-25.2s3.3-8.4,8.9-11.5c5.5-3.1-3.3-19.9-12.2-33.5c-8.9-13.6-13.3-37.7-12.2-54.5c0,0-7.7-17.8-11.1-38.8
	c0,0-1.1,15.7-7.7,30.4s0,24.1,0,24.1s4.4,9.4,3.3,24.1c0,0,15.5,15.7,7.7,59.8c-7.7,44-22.1,79.7-22.1,79.7s-1.1,11.5-3.3,18.9
	c-2.2,7.3,0,15.7,3.3,24.1c3.3,8.4,4.4,19.9-22.1,96.4c0,0-7.7,19.9,8.9,27.3s2.2,23.1-1.1,24.1c-3.3,1-5.5,3.1-10-3.1
	c0,0,2.2,7.3-7.7,6.3c0,0-8.9-1-10-17.8c0,0,0-3.1-5.5-8.4c-5.5-5.2,1.1-8.4,4.4-51.4c0,0-4.4-49.3,7.7-71.3c0,0,3.3-2.1-3.3-23.1
	c-4.8-15.3-5.4-66.5-5.5-83.5c0-3.3,0-5.4-0.1-5.6c-1.1-8.4-1.1-32.5-1.1-32.5"/>
<path class="st1" d="M175.1,351.1c0,0-1.9,16-9.6,37c-7.7,21-16.6,27.3-21,51.4c0,0-2.2,17.8-12.2,32.5c0,0-4.4,3.1-2.2,17.8
	s-13.3,49.3-16.6,58.7c-3.3,9.4-5.5,26.2-4.4,32.5s6.6,19.9-6.6,23.1c-13.3,3.1-8.9,10.5-14.4,14.7c-5.5,4.2-12.2,9.4-16.6,7.3
	c0,0-3.1-0.8-2.1-3.6c0,0-13.4,0.4-13.4-9s1.1-15.7,17.7-22s12.2-43,12.2-43s-5.5-43,8.9-78.6s7.7-24.1,8.9-81.8
	c0,0-1.1-21,18.8-77.6c0,0,5.5-8.4,5.5-58.7c0,0-12.2-32.5-12.2-66"/>
<path class="st1" d="M118.4,215.1c-10.6,60.8-23.7,69.2-23.7,69.2c-32.1,34.6-31,37.7-31,37.7c5.5,3.1,1.1,19.9,1.1,19.9
	c4.4,24.1,4.4,28.3,1.1,29.4c-3.3,1-6.6-21-10-19.9c-3.3,1,6.6,28.3,1.1,28.3s-4.4-28.3-8.9-28.3s0,30.4-4.4,30.4
	s-0.5-30.9-4.4-30.4c-3.9,0.5,0,26.2-5.5,26.2c-5.5,0,0-39.8,0-39.8c-6.6-1-8.9,18.9-13.3,18.9s-2.2-4.2-2.2-4.2
	c10-40.9,24.3-39.8,24.3-39.8c29.9-86,40.9-88.1,40.9-88.1c-2.2-8.4,4.4-48.2,4.4-48.2c-3.3-49.3,33.2-48.2,39.8-50.3
	c6.6-2.1,8.9-5.2,19.9-9.4c11.1-4.2,6.6-38.8,6.6-38.8"/>
<path class="st2" d="M155.6,62.1"/>
<path class="st1" d="M157.8,76.7c-8.9,4.2-15.5-8.4-15.5-8.4c-2.2-5.2,0-7.3,2.2-8.4"/>
<path class="st1" d="M163.3,90.4c1.1,9.4,18.8,12.6,18.8,12.6c26.6,5.2,18.8-2.1,24.3-19.9c1.9-6,3.1-11.6,3.9-16.3
	c0,0,1.1-5.9,1.4-10.6c0.2-2.9,0.2-4.6,0.2-4.6c-1.1-28.3-34.3-28.3-34.3-28.3S139,21.2,144.5,60l0,0c5.5-1,8.9,2.1,8.9,2.1
	 M168.8,57.9c5.5-4.2,10-6.3,24.3,0"/>
<path class="st1" d="M191,74.7c-2.2,1-3.3,3.1,4.4,4.2c7.7,1,5.5-4.2,5.5-4.2c-1.1-3.1,0-6.8-1.1-9.3c0-0.1-2.3-8.5,0-9.5
	c2.2-1,8.9-1,11.1,0"/>
<ellipse class="st2" cx="181" cy="62.6" rx="7.7" ry="2.6"/>
<path class="st2" d="M210.6,65.9c-0.9,0.2-1.9,0.3-3,0.3c-4.3,0-7.7-2.1-7.7-2.6s3.5-2.6,7.7-2.6c1.3,0,2.5,0.2,3.6,0.5"/>
<ellipse cx="181.6" cy="62.6" rx="1.9" ry="1.8"/>
<ellipse cx="208.1" cy="63.6" rx="1.3" ry="1.2"/>
</svg>
