<?xml version="1.0" encoding="utf-8"?>
<!-- Generator: Adobe Illustrator 21.0.0, SVG Export Plug-In . SVG Version: 6.00 Build 0)  -->
<!DOCTYPE svg PUBLIC "-//W3C//DTD SVG 1.1//EN" "http://www.w3.org/Graphics/SVG/1.1/DTD/svg11.dtd">
<svg version="1.1" id="Calque_1" xmlns="http://www.w3.org/2000/svg" xmlns:xlink="http://www.w3.org/1999/xlink" x="0px" y="0px"
	 viewBox="0 0 47.3 61.4" style="enable-background:new 0 0 47.3 61.4;" xml:space="preserve">
<style type="text/css">
	.st0{fill-rule:evenodd;clip-rule:evenodd;fill:#585354;}
</style>
<path class="st0" d="M24,7.4c-10,0-18,8.1-18,18.1c0,2.8,0.6,5.4,1.7,7.7C12,45.6,24,54.1,24,54.1s13.5-10.2,17.1-23
	c0.4-1.3,0.7-2.7,0.8-4.2c0-0.5,0.1-0.9,0.1-1.4C42.1,15.5,34,7.4,24,7.4z M24.1,36.7c-6.5,0-11.8-5.3-11.8-11.8S17.5,13,24.1,13
	c6.5,0,11.8,5.3,11.8,11.9S30.6,36.7,24.1,36.7z"/>
</svg>
