<svg id="Capa_1" data-name="Capa 1" xmlns="http://www.w3.org/2000/svg" width="40" height="40" viewBox="0 0 40 40">
  <title>info</title>
  <g>
    <path d="M24,3.679a20,20,0,1,0,20,20A20.023,20.023,0,0,0,24,3.679Zm0,36.364A16.364,16.364,0,1,1,40.364,23.679,16.383,16.383,0,0,1,24,40.043Z" transform="translate(-4 -3.679)"/>
    <path d="M24,12.164a2.424,2.424,0,1,0,2.424,2.425A2.427,2.427,0,0,0,24,12.164Z" transform="translate(-4 -3.679)"/>
    <path d="M24,20.649a1.818,1.818,0,0,0-1.818,1.818V33.376a1.818,1.818,0,0,0,3.636,0V22.467A1.818,1.818,0,0,0,24,20.649Z" transform="translate(-4 -3.679)"/>
  </g>
</svg>
