<?xml version="1.0" encoding="utf-8"?>
<!-- Generator: Adobe Illustrator 22.0.1, SVG Export Plug-In . SVG Version: 6.00 Build 0)  -->
<svg version="1.1"
	 id="svg3290" inkscape:export-filename="/home/rafael/workspace/logo-osi/5/png/logo396x412.png" inkscape:export-xdpi="52.737835" inkscape:export-ydpi="52.737835" inkscape:version="0.48.3.1 r9886" sodipodi:docname="OSI_logo_by_USP.svg" xmlns:cc="http://creativecommons.org/ns#" xmlns:dc="http://purl.org/dc/elements/1.1/" xmlns:inkscape="http://www.inkscape.org/namespaces/inkscape" xmlns:rdf="http://www.w3.org/1999/02/22-rdf-syntax-ns#" xmlns:sodipodi="http://sodipodi.sourceforge.net/DTD/sodipodi-0.dtd" xmlns:svg="http://www.w3.org/2000/svg"
	 xmlns="http://www.w3.org/2000/svg" xmlns:xlink="http://www.w3.org/1999/xlink" x="0px" y="0px" width="700px" height="700px"
	 viewBox="0 0 700 700" style="enable-background:new 0 0 700 700;" xml:space="preserve">
<style type="text/css">
	.st0{fill:#3FA652;stroke:#21552A;stroke-width:7.374;stroke-linejoin:round;}
</style>
<sodipodi:namedview  bordercolor="#666666" borderopacity="1.0" id="base" inkscape:current-layer="g3879" inkscape:cx="557.86446" inkscape:cy="404.85445" inkscape:document-units="px" inkscape:guide-bbox="true" inkscape:pageopacity="0.0" inkscape:pageshadow="2" inkscape:window-height="744" inkscape:window-maximized="1" inkscape:window-width="1366" inkscape:window-x="0" inkscape:window-y="24" inkscape:zoom="0.49497475" pagecolor="#ffffff" showgrid="false" showguides="true">
	<sodipodi:guide  id="guide3004" orientation="1,0" position="389.91888,215.16249"></sodipodi:guide>
</sodipodi:namedview>
<g id="layer1" inkscape:groupmode="layer" inkscape:label="Layer 1">
	
		<g id="g3879" transform="matrix(3.1607572,0,0,3.1607572,1289.8039,2829.9529)" inkscape:export-filename="/home/paulormm/usp/softwarelivre/OSI/OSI_member_card_model_final-300dpi.png" inkscape:export-xdpi="300.05554" inkscape:export-ydpi="300.05554">
		
			<path id="path3773" inkscape:connector-curvature="0" inkscape:export-filename="/home/rafael/workspace/logo-osi/3/png/logo396x412.png" inkscape:export-xdpi="48.18" inkscape:export-ydpi="48.18" class="st0" d="
			M-284-747c19.2-7.4,28.9-29.1,21.5-48.3c-7.4-19.2-29.1-28.9-48.3-21.5c-19.2,7.4-28.9,29.1-21.5,48.3
			c3.8,9.8,11.6,17.8,21.5,21.5l-25.2,65.7c-55.4-21.3-83.2-83.5-61.9-139s83.5-83.2,139-61.9c55.4,21.3,83.2,83.5,61.9,139
			c-10.9,28.5-33.4,50.9-61.9,61.9L-284-747z"/>
	</g>
</g>
</svg>
