<?xml version="1.0" encoding="utf-8"?>
<!-- Generator: Adobe Illustrator 18.1.1, SVG Export Plug-In . SVG Version: 6.00 Build 0)  -->
<svg version="1.1" id="Calque_1" xmlns="http://www.w3.org/2000/svg" xmlns:xlink="http://www.w3.org/1999/xlink" x="0px" y="0px"
	 viewBox="0 0 472.8 343.7" enable-background="new 0 0 472.8 343.7" xml:space="preserve">
<g>
	<g>
		<line fill="none" stroke="#FFFFFF" stroke-width="6.232" stroke-miterlimit="10" x1="108.8" y1="84.3" x2="108.8" y2="285.3"/>
	</g>
	<g>
		<rect x="110.9" y="85.3" fill="#6566C1" width="148.2" height="100.5"/>
		<g>
			<g>
				<polygon fill="#FFFFFF" points="176,116.9 175.5,117.6 171.3,123.8 170.7,124.7 165.6,132.2 154.4,124.7 144.1,117.6 
					110.9,95.1 110.9,85.3 129.4,85.3 171.3,113.7 				"/>
				<polygon fill="#F04D4E" points="168.8,123.1 167.8,124.7 165.5,128 160.6,124.7 150.2,117.6 110.9,90.9 110.9,85.3 113.1,85.3 
					160.7,117.6 				"/>
				<polygon fill="#FFFFFF" points="182.4,148.5 176.9,152.3 174.8,153.7 171.3,156.1 127.9,185.7 110.9,185.7 110.9,174.9 
					142,153.7 152.1,146.8 171.3,133.7 171.9,133.2 176.9,140.4 181.2,146.8 				"/>
				<polygon fill="#F04D4E" points="178.4,147.1 176.9,148.1 171.3,151.9 168.7,153.7 121.8,185.7 111.3,185.7 158.3,153.7 
					168.4,146.8 171.3,144.8 175.1,142.2 176.9,144.8 178.2,146.8 				"/>
			</g>
			<g>
				<polygon fill="#FFFFFF" points="259.1,172.6 259.1,185.7 245.4,185.7 198.3,153.7 198.2,153.6 197.3,153 198.2,151.7 
					201.5,146.8 207.7,137.7 221.1,146.8 231.2,153.7 				"/>
				<polygon fill="#F04D4E" points="259.1,176.8 259.1,183.9 214.6,153.7 204.5,146.8 207.8,141.9 215,146.8 225.1,153.7 				"/>
				<polygon fill="#FFFFFF" points="259.1,85.3 259.1,97.3 229.3,117.6 219,124.7 201.3,136.7 198.2,132.1 193.1,124.7 192.5,123.8 
					190.9,121.4 192.5,120.3 196.4,117.6 198.2,116.4 243.8,85.3 				"/>
				<polygon fill="#F04D4E" points="259.1,85.3 259.1,86.2 213,117.6 202.7,124.7 198.2,127.7 198.2,127.7 196.1,124.7 194.8,122.9 
					198.2,120.6 202.5,117.6 249.9,85.3 				"/>
			</g>
		</g>
		<g>
			<rect x="111.1" y="117.6" fill="#FFFFFF" width="147.8" height="36.1"/>
			<rect x="171.3" y="85.2" fill="#FFFFFF" width="26.8" height="100.9"/>
			<rect x="176.9" y="85.2" fill="#F04D4E" width="15.7" height="100.9"/>
			<rect x="111.1" y="124.6" fill="#F04D4E" width="147.8" height="22.2"/>
		</g>
	</g>
</g>
</svg>
