<?xml version="1.0" encoding="utf-8"?>
<!-- Generator: Adobe Illustrator 18.1.1, SVG Export Plug-In . SVG Version: 6.00 Build 0)  -->
<svg version="1.1" id="Calque_1" xmlns="http://www.w3.org/2000/svg" xmlns:xlink="http://www.w3.org/1999/xlink" x="0px" y="0px"
	 viewBox="0 0 472.8 343.7" enable-background="new 0 0 472.8 343.7" xml:space="preserve">
<g>
	<g>
		<polygon fill="#F04D4E" points="198.9,96.9 198.9,96.9 149.6,96.9 149.6,96.9 100.3,96.9 100.3,196.2 149.6,196.2 149.6,196.2 
			198.9,196.2 198.9,196.2 248.1,196.2 248.1,96.9 		"/>
		<g>
			<line fill="#FFFFFF" x1="166.4" y1="103" x2="248.3" y2="103"/>
			<rect x="166.4" y="100.9" fill="#FFFFFF" width="81.9" height="4.2"/>
		</g>
		<g>
			<line fill="#FFFFFF" x1="166.4" y1="112.9" x2="248.3" y2="112.9"/>
			<rect x="166.4" y="110.8" fill="#FFFFFF" width="81.9" height="4.2"/>
		</g>
		<g>
			<line fill="#FFFFFF" x1="166.4" y1="122.7" x2="248.3" y2="122.7"/>
			<rect x="166.4" y="120.7" fill="#FFFFFF" width="81.9" height="4.2"/>
		</g>
		<g>
			<line fill="#FFFFFF" x1="166.4" y1="132.6" x2="248.3" y2="132.6"/>
			<rect x="166.4" y="130.5" fill="#FFFFFF" width="81.9" height="4.2"/>
		</g>
		<g>
			<line fill="#FFFFFF" x1="102.1" y1="142.5" x2="248.3" y2="142.5"/>
			<rect x="102.1" y="140.4" fill="#FFFFFF" width="146.2" height="4.2"/>
		</g>
		<g>
			<line fill="#FFFFFF" x1="102.1" y1="152.3" x2="248.3" y2="152.3"/>
			<rect x="102.1" y="150.3" fill="#FFFFFF" width="146.2" height="4.2"/>
		</g>
		<g>
			<line fill="#FFFFFF" x1="102.1" y1="162.2" x2="248.3" y2="162.2"/>
			<rect x="102.1" y="160.1" fill="#FFFFFF" width="146.2" height="4.2"/>
		</g>
		<g>
			<line fill="#FFFFFF" x1="102.1" y1="172.1" x2="248.3" y2="172.1"/>
			<rect x="102.1" y="170" fill="#FFFFFF" width="146.2" height="4.2"/>
		</g>
		<g>
			<line fill="#FFFFFF" x1="102.1" y1="181.9" x2="248.3" y2="181.9"/>
			<rect x="102.1" y="179.8" fill="#FFFFFF" width="146.2" height="4.2"/>
		</g>
		<g>
			<line fill="#FFFFFF" x1="102.1" y1="191.8" x2="248.3" y2="191.8"/>
			<rect x="102.1" y="189.7" fill="#FFFFFF" width="146.2" height="4.2"/>
		</g>
		<rect x="103.4" y="96.9" fill="#6566C1" width="68.3" height="47.6"/>
	</g>
	<line fill="none" stroke="#FFFFFF" stroke-width="6.232" stroke-miterlimit="10" x1="100.3" y1="96.9" x2="100.3" y2="298"/>
</g>
</svg>
