<?xml version="1.0" encoding="utf-8"?>
<!-- Generator: Adobe Illustrator 22.0.0, SVG Export Plug-In . SVG Version: 6.00 Build 0)  -->
<svg version="1.1" xmlns="http://www.w3.org/2000/svg" xmlns:xlink="http://www.w3.org/1999/xlink" x="0px" y="0px"
	 viewBox="0 0 1920 1080" style="enable-background:new 0 0 1920 1080;" xml:space="preserve">
<style type="text/css">
	.st0{display:none;}
	.st1{display:inline;fill:#241D37;}
	.st2{display:inline;}
	.st3{fill:#161323;}

		.st4{display:none;fill:none;stroke:#FFFFFF;stroke-width:0.4681;stroke-linecap:round;stroke-linejoin:round;stroke-miterlimit:10;}
	.st5{display:inline;fill:#FFEAB6;}
	.st6{font-family:'WorkSans-Regular';}
	.st7{font-size:10px;}
	.st8{clip-path:url(#SVGID_2_);}
	.st9{fill:#2DDCE0;}
	.st10{display:none;clip-path:url(#SVGID_2_);fill:#2DDCE0;}
	.st11{display:none;opacity:0.36;fill:url(#SVGID_3_);}
	.st12{fill:none;stroke:#FFEAB6;stroke-width:0.4862;stroke-linecap:round;stroke-miterlimit:10;}
	.st13{fill:#FFEAB6;}
	.st14{fill:#EF656C;}
	.st15{fill:#A5154F;}
	.st16{fill:none;stroke:#EF656C;stroke-width:1.2464;stroke-miterlimit:10;}
	.st17{fill:none;stroke:#FFEAB6;stroke-width:1.2464;stroke-miterlimit:10;}
	.st18{fill:none;stroke:#EF656C;stroke-width:0.9724;stroke-miterlimit:10;}
	.st19{fill:none;stroke:#FFEAB6;stroke-width:0.9724;stroke-miterlimit:10;}
	.st20{fill:#3D224C;}
	.st21{fill:#251330;}
	.st22{display:inline;fill:#2DDCE0;}
	.st23{font-family:'Overpass-SemiBold';}
	.st24{font-size:87.7081px;}
	.st25{letter-spacing:28;}
	.st26{font-size:17.5416px;}
	.st27{fill:none;}
	.st28{display:none;fill:#FFEAB6;}
	.st29{fill:none;stroke:#A5154F;stroke-width:0.75;stroke-miterlimit:10;}
	.st30{fill:none;stroke:#A5154F;stroke-linecap:round;stroke-miterlimit:10;}
	.st31{fill:none;stroke:#A5154F;stroke-width:0.5;stroke-miterlimit:10;}
	.st32{fill:none;stroke:#EF656C;stroke-miterlimit:10;}
	.st33{fill:none;stroke:#A5154F;stroke-width:0.7121;stroke-linecap:round;stroke-miterlimit:10;}
	.st34{fill:none;stroke:#A5154F;stroke-width:0.3561;stroke-miterlimit:10;}
	.st35{fill:none;stroke:#EF656C;stroke-width:0.7121;stroke-miterlimit:10;}
	.st36{fill:none;stroke:#FFEAB6;stroke-width:0.8026;stroke-miterlimit:10;}
	.st37{fill:#FFEAB6;stroke:#A5154F;stroke-width:0.8026;stroke-miterlimit:10;}
	.st38{fill:none;stroke:#FFEAB6;stroke-width:0.6408;stroke-miterlimit:10;}
</style>
<g id="Calque_1">
	<rect y="904.8" class="st20" width="1920" height="177.9"/>

	<rect x="320" y="908.1" class="st21" width="1278.6" height="29.2"/>
	<rect x="437.6" y="931.4" class="st21" width="25.3" height="155.6"/>
	<rect x="620.4" y="931.4" class="st21" width="25.3" height="155.6"/>
	<rect x="806.1" y="931.4" class="st21" width="25.3" height="155.6"/>
	<rect x="990.8" y="931.4" class="st21" width="25.3" height="155.6"/>
	<rect x="1175.6" y="931.4" class="st21" width="25.3" height="155.6"/>
	<rect x="1360.4" y="931.4" class="st21" width="25.3" height="155.6"/>
	<rect x="1545.1" y="931.4" class="st21" width="25.3" height="155.6"/>
	<path class="st21" d="M461.9,1086c0,0,13.6-148.8,76.8-148.8s82.2,148.8,82.2,148.8V937.3h-159V1086z"/>
	<path class="st21" d="M282,1086c0,0,13.6-148.8,76.8-148.8S441,1086,441,1086V937.3H282V1086z"/>
	<path class="st21" d="M645.6,1086c0,0,13.7-148.8,77.5-148.8s82.9,148.8,82.9,148.8V937.3H645.6V1086z"/>
	<path class="st21" d="M829.4,1086c0,0,13.8-148.8,78-148.8s83.4,148.8,83.4,148.8V937.3H829.4V1086z"/>
	<path class="st21" d="M1016.1,1086c0,0,13.7-148.8,77-148.8s82.4,148.8,82.4,148.8V937.3h-159.5V1086z"/>
	<path class="st21" d="M1200.9,1086c0,0,13.9-148.8,78.4-148.8s83.9,148.8,83.9,148.8V937.3h-162.4V1086z"/>
	<path class="st21" d="M1385.6,1086c0,0,13.8-148.8,78-148.8s83.4,148.8,83.4,148.8V937.3h-161.4V1086z"/>
	<g>
		<rect x="1594" y="908.1" class="st21" width="1292.6" height="29.2"/>
		<rect x="1725.6" y="931.4" class="st21" width="25.3" height="155.6"/>
		<rect x="1909.4" y="931.4" class="st21" width="25.3" height="155.6"/>
		<path class="st21" d="M1750.9,1086c0,0,13.6-148.8,76.8-148.8s82.2,148.8,82.2,148.8V937.3h-159V1086z"/>
		<path class="st21" d="M1570,1086c0,0,13.6-148.8,76.8-148.8S1729,1086,1729,1086V937.3h-159V1086z"/>
	</g>
	<g>
		<rect x="-983" y="908.1" class="st21" width="1303" height="29.2"/>
		<rect x="72.4" y="931.4" class="st21" width="25.3" height="155.6"/>
		<rect x="257.1" y="931.4" class="st21" width="25.3" height="155.6"/>
		<path class="st21" d="M-87.1,1086c0,0,13.9-148.8,78.4-148.8S75.3,1086,75.3,1086V937.3H-87.1V1086z"/>
		<path class="st21" d="M97.6,1086c0,0,13.8-148.8,78-148.8s83.4,148.8,83.4,148.8V937.3H97.6V1086z"/>
	</g>
	<text transform="matrix(1 0 0 1 767.333 444.0737)" class="st0"><tspan x="0" y="0" class="st22 st23 st24 st25">DATA.</tspan><tspan x="393.8" y="0" class="st22 st23 st26">  </tspan></text>
	<rect x="774.6" y="460.6" class="st27" width="560.4" height="82.8"/>
	<text transform="matrix(1 0 0 1 774.6426 473.4473)" class="st28 st6 st26">EXPERICENCE INEDITE</text>
	<text transform="matrix(1 0 0 1 118.6323 238.6055)" class="st6 st7"> </text>
	<circle class="st4" cx="1080" cy="448" r="44"/>
</g>

<g id="svg_train" transform="scale(4,4) translate(-100 -100)">
            <path d="M105.2 31.1H29.4c-1.2 0-2.3-1-2.3-2.3V3.6c0-1.2 1-2.3 2.3-2.3h75.8c1.2 0 2.3 1 2.3 2.3v25.2c-.1 1.3-1.1 2.3-2.3 2.3z" fill="#EF656C" fill-rule="nonzero"/>
            <path fill="#A5154F" fill-rule="nonzero" d="M27.2 11.1h80.3v4.8H27.2z"/>
            <path d="M107.4 9.4H27.2" stroke="#FFEAB6" stroke-width=".803"/>
            <path d="M43.6 19.1H38c-2.4 0-4.4-2-4.4-4.4v-1.6c0-2.4 2-4.4 4.4-4.4h5.6c2.4 0 4.4 2 4.4 4.4v1.6c0 2.4-1.9 4.4-4.4 4.4z" stroke="#A5154F" stroke-width=".803" fill="#FFEAB6" fill-rule="nonzero"/>
            <path d="M44 8.6c2.2 0 4 1.8 4 4V15c0 2.2-1.8 4-4 4h-6.4c-2.2 0-4-1.8-4-4" fill="#2DDCE0" fill-rule="nonzero"/>
            <path d="M76.5 19.1H62.1c-2.4 0-4.4-2-4.4-4.4v-1.6c0-2.4 2-4.4 4.4-4.4h14.4c2.4 0 4.4 2 4.4 4.4v1.6c.1 2.4-1.9 4.4-4.4 4.4z" stroke="#A5154F" stroke-width=".803" fill="#FFEAB6" fill-rule="nonzero"/>
            <path d="M76.9 8.6c2.2 0 4 1.8 4 4V15c0 2.2-1.8 4-4 4H61.7" fill="#2DDCE0" fill-rule="nonzero"/>
            <path d="M95.1.2H39.5c-.4 0-.7.3-.7.7v.2c0 .4.3.7.7.7h55.6c.4 0 .7-.3.7-.7V.9c0-.4-.3-.7-.7-.7z" fill="#A5154F" fill-rule="nonzero"/>
            <path d="M93.6 29.5h-.9c-1.4 0-2.6-1.1-2.6-2.6v-7.2c0-1.4 1.1-2.6 2.6-2.6h.9c1.4 0 2.6 1.1 2.6 2.6v7.2c0 1.5-1.1 2.6-2.6 2.6z" stroke="#FFEAB6" stroke-width=".641"/>
            <circle fill="#FFEAB6" fill-rule="nonzero" cx="94.2" cy="22.7" r="1"/>
            <path d="M187.1 31.1h-75.8c-1.2 0-2.3-1-2.3-2.3V3.6c0-1.2 1-2.3 2.3-2.3h75.8c1.2 0 2.3 1 2.3 2.3v25.2c-.1 1.3-1.1 2.3-2.3 2.3z" fill="#EF656C" fill-rule="nonzero"/>
            <path fill="#A5154F" fill-rule="nonzero" d="M109 11.1h80.3v4.8H109z"/>
            <path d="M189.3 9.4H109" stroke="#FFEAB6" stroke-width=".803"/>
            <path d="M125.5 19.1h-5.6c-2.4 0-4.4-2-4.4-4.4v-1.6c0-2.4 2-4.4 4.4-4.4h5.6c2.4 0 4.4 2 4.4 4.4v1.6c0 2.4-2 4.4-4.4 4.4z" stroke="#A5154F" stroke-width=".803" fill="#FFEAB6" fill-rule="nonzero"/>
            <path d="M125.9 8.6c2.2 0 4 1.8 4 4V15c0 2.2-1.8 4-4 4h-6.4c-2.2 0-4-1.8-4-4" fill="#2DDCE0" fill-rule="nonzero"/>
            <path d="M158.4 19.1H144c-2.4 0-4.4-2-4.4-4.4v-1.6c0-2.4 2-4.4 4.4-4.4h14.4c2.4 0 4.4 2 4.4 4.4v1.6c0 2.4-2 4.4-4.4 4.4z" stroke="#A5154F" stroke-width=".803" fill="#FFEAB6" fill-rule="nonzero"/>
            <path d="M158.8 8.6c2.2 0 4 1.8 4 4V15c0 2.2-1.8 4-4 4h-15.2" fill="#2DDCE0" fill-rule="nonzero"/>
            <path d="M177 .2h-55.6c-.4 0-.7.3-.7.7v.2c0 .4.3.7.7.7H177c.4 0 .7-.3.7-.7V.9c0-.4-.3-.7-.7-.7z" fill="#A5154F" fill-rule="nonzero"/>
            <g transform="translate(190)">
                <path d="M78.9 31.1H3.1c-1.2 0-2.3-1-2.3-2.3V3.6c0-1.2 1-2.3 2.3-2.3h75.8c1.2 0 2.3 1 2.3 2.3v25.2c0 1.3-1 2.3-2.3 2.3z" fill="#EF656C" fill-rule="nonzero"/>
                <path fill="#A5154F" fill-rule="nonzero" d="M.9 11.1h80.3v4.8H.9z"/>
                <path d="M81.2 9.4H.9" stroke="#FFEAB6" stroke-width=".803"/>
                <path d="M17.3 19.1h-5.6c-2.4 0-4.4-2-4.4-4.4v-1.6c0-2.4 2-4.4 4.4-4.4h5.6c2.4 0 4.4 2 4.4 4.4v1.6c.1 2.4-1.9 4.4-4.4 4.4z" stroke="#A5154F" stroke-width=".803" fill="#FFEAB6" fill-rule="nonzero"/>
                <path d="M17.8 8.6c2.2 0 4 1.8 4 4V15c0 2.2-1.8 4-4 4h-6.4c-2.2 0-4-1.8-4-4" fill="#2DDCE0" fill-rule="nonzero"/>
                <path d="M50.3 19.1H35.9c-2.4 0-4.4-2-4.4-4.4v-1.6c0-2.4 2-4.4 4.4-4.4h14.4c2.4 0 4.4 2 4.4 4.4v1.6c0 2.4-2 4.4-4.4 4.4z" stroke="#A5154F" stroke-width=".803" fill="#FFEAB6" fill-rule="nonzero"/>
                <path d="M50.7 8.6c2.2 0 4 1.8 4 4V15c0 2.2-1.8 4-4 4H35.5" fill="#2DDCE0" fill-rule="nonzero"/>
                <path d="M68.8.2H13.2c-.4 0-.7.3-.7.7v.2c0 .4.3.7.7.7h55.6c.4 0 .7-.3.7-.7V.9c0-.4-.3-.7-.7-.7z" fill="#A5154F" fill-rule="nonzero"/>
                <path d="M67.4 29.5h-.9c-1.4 0-2.6-1.1-2.6-2.6v-7.2c0-1.4 1.1-2.6 2.6-2.6h.9c1.4 0 2.6 1.1 2.6 2.6v7.2c-.1 1.5-1.2 2.6-2.6 2.6z" stroke="#FFEAB6" stroke-width=".641"/>
                <circle fill="#FFEAB6" fill-rule="nonzero" cx="67.9" cy="22.7" r="1"/>
            </g>
            <g>
                <path d="M350.8 31.1H275c-1.2 0-2.3-1-2.3-2.3V3.6c0-1.2 1-2.3 2.3-2.3h75.8c1.2 0 2.3 1 2.3 2.3v25.2c-.1 1.3-1.1 2.3-2.3 2.3z" fill="#EF656C" fill-rule="nonzero"/>
                <path fill="#A5154F" fill-rule="nonzero" d="M272.8 11.1h80.3v4.8h-80.3z"/>
                <path d="M353 9.4h-80.2" stroke="#FFEAB6" stroke-width=".803"/>
                <path d="M289.2 19.1h-5.6c-2.4 0-4.4-2-4.4-4.4v-1.6c0-2.4 2-4.4 4.4-4.4h5.6c2.4 0 4.4 2 4.4 4.4v1.6c0 2.4-2 4.4-4.4 4.4z" stroke="#A5154F" stroke-width=".803" fill="#FFEAB6" fill-rule="nonzero"/>
                <path d="M289.6 8.6c2.2 0 4 1.8 4 4V15c0 2.2-1.8 4-4 4h-6.4c-2.2 0-4-1.8-4-4" fill="#2DDCE0" fill-rule="nonzero"/>
                <path d="M322.1 19.1h-14.4c-2.4 0-4.4-2-4.4-4.4v-1.6c0-2.4 2-4.4 4.4-4.4h14.4c2.4 0 4.4 2 4.4 4.4v1.6c0 2.4-1.9 4.4-4.4 4.4z" stroke="#A5154F" stroke-width=".803" fill="#FFEAB6" fill-rule="nonzero"/>
                <path d="M322.5 8.6c2.2 0 4 1.8 4 4V15c0 2.2-1.8 4-4 4h-15.2" fill="#2DDCE0" fill-rule="nonzero"/>
                <path d="M340.7.2h-55.6c-.4 0-.7.3-.7.7v.2c0 .4.3.7.7.7h55.6c.4 0 .7-.3.7-.7V.9c0-.4-.3-.7-.7-.7z" fill="#A5154F" fill-rule="nonzero"/>
            </g>
            <g>
                <path d="M432.7 31.1h-75.8c-1.2 0-2.3-1-2.3-2.3V3.6c0-1.2 1-2.3 2.3-2.3h75.8c1.2 0 2.3 1 2.3 2.3v25.2c-.1 1.3-1.1 2.3-2.3 2.3z" fill="#EF656C" fill-rule="nonzero"/>
                <path fill="#A5154F" fill-rule="nonzero" d="M354.6 11.1h80.3v4.8h-80.3z"/>
                <path d="M434.9 9.4h-80.3" stroke="#FFEAB6" stroke-width=".803"/>
                <path d="M371.1 19.1h-5.6c-2.4 0-4.4-2-4.4-4.4v-1.6c0-2.4 2-4.4 4.4-4.4h5.6c2.4 0 4.4 2 4.4 4.4v1.6c0 2.4-2 4.4-4.4 4.4z" stroke="#A5154F" stroke-width=".803" fill="#FFEAB6" fill-rule="nonzero"/>
                <path d="M371.5 8.6c2.2 0 4 1.8 4 4V15c0 2.2-1.8 4-4 4h-6.4c-2.2 0-4-1.8-4-4" fill="#2DDCE0" fill-rule="nonzero"/>
                <path d="M404 19.1h-14.4c-2.4 0-4.4-2-4.4-4.4v-1.6c0-2.4 2-4.4 4.4-4.4H404c2.4 0 4.4 2 4.4 4.4v1.6c0 2.4-2 4.4-4.4 4.4z" stroke="#A5154F" stroke-width=".803" fill="#FFEAB6" fill-rule="nonzero"/>
                <path d="M404.4 8.6c2.2 0 4 1.8 4 4V15c0 2.2-1.8 4-4 4h-15.2" fill="#2DDCE0" fill-rule="nonzero"/>
                <path d="M422.6.2H367c-.4 0-.7.3-.7.7v.2c0 .4.3.7.7.7h55.6c.4 0 .7-.3.7-.7V.9c0-.4-.3-.7-.7-.7z" fill="#A5154F" fill-rule="nonzero"/>
            </g>
            <g fill-rule="nonzero">
                <path d="M433.7 1.4c.2 0 .5.1.6.2 2.9 1.7 25.4 15.8 25.4 26.3 0 4-28.4 3.2-28.4 3.2V1.4h2.4z" fill="#EF656C"/>
                <path d="M455.7 18.9s3.3 4 3.8 6.8h-28.1v-6.8h24.3z" fill="#A5154F"/>
                <path d="M444.2 8.6h-6.7c-.3 0-.6.3-.6.6v7.5c0 .4.3.7.7.7h16.8s-3-3.2-5.4-5.3c-2.4-2-4.3-3.5-4.3-3.5h-.5z" fill="#FFEAB6"/>
                <path d="M444.6 8.6l-7.4 8.4c-.1.1-.4.1-.4-.1V9.2c0-.3.2-.6.6-.6h7.2z" fill="#2DDCE0"/>
                <path d="M456.9 20.5s1 1.4 1.6 2.8h-2.9c-.3 0-.6-.3-.6-.6V21c0-.3.2-.5.5-.5h1.4z" fill="#FFEAB6"/>
            </g>
            <g fill-rule="nonzero">
                <path d="M26.3 1.4c-.2 0-.5.1-.6.2C22.8 3.3.3 17.4.3 27.9c0 4 28.4 3.2 28.4 3.2V1.4h-2.4z" fill="#EF656C"/>
                <path d="M4.4 18.9s-3.3 4-3.8 6.8h28.1v-6.8H4.4z" fill="#A5154F"/>
                <path d="M15.8 8.6h6.7c.3 0 .6.3.6.6v7.5c0 .4-.3.7-.7.7H5.6s3-3.2 5.4-5.3c2.4-2 4.3-3.5 4.3-3.5h.5z" fill="#FFEAB6"/>
                <path d="M15.4 8.6l7.4 8.4c.1.1.4.1.4-.1V9.2c0-.3-.2-.6-.6-.6h-7.2z" fill="#2DDCE0"/>
                <path d="M3.2 20.5s-1 1.4-1.6 2.8h2.9c.3 0 .6-.3.6-.6V21c0-.3-.2-.5-.5-.5H3.2z" fill="#FFEAB6"/>
            </g>
        </g>
				<!-- <use xlink:href="#svg_train" >

					<animateTransform
							 attributeName="transform"
							 type="translate"
							 dur="30s"
							 values="-2500 1315 ; -1560 1315 ; -500 1315 ; -500 1315 ; -2500 1315"
							 keyTimes="0;0.5;0.6;0.9;1"
							 repeatCount="indefinite"
							 id="train-animation"></animateTransform>
		    </use> -->




</svg>
