<svg xmlns="http://www.w3.org/2000/svg" viewBox="0 0 2994.32 201.78">
  <defs>
    <style>
      .cls-1 {
        fill: #ef656c;
      }

      .cls-2 {
        fill: #a5154f;
      }

      .cls-3, .cls-6 {
        fill: none;
        stroke: #ffeab6;
      }

      .cls-3, .cls-4, .cls-6 {
        stroke-miterlimit: 10;
      }

      .cls-3, .cls-4 {
        stroke-width: 5.23px;
      }

      .cls-4, .cls-7 {
        fill: #ffeab6;
      }

      .cls-4 {
        stroke: #a5154f;
      }

      .cls-5 {
        fill: #2ddce0;
      }

      .cls-6 {
        stroke-width: 4.18px;
      }

      .cls-8 {
        font-size: 141.91px;
        fill: #fff;
        font-family: Montserrat-Bold, Montserrat;
        font-weight: 700;
      }
    </style>
  </defs>
  <title>Train chiffres</title>
  <g id="Calque_2" data-name="Calque 2">
    <g id="Calque_1-2" data-name="Calque 1">
      <g>
        <g>
          <rect class="cls-1" x="175.4" y="7.84" width="522.99" height="193.51" rx="2.25" ry="2.25"/>
          <rect class="cls-2" x="175.4" y="70.6" width="522.99" height="31.38"/>
          <line class="cls-3" x1="698.39" y1="60.14" x2="175.4" y2="60.14"/>
          <rect class="cls-4" x="217.24" y="54.91" width="94.14" height="67.99" rx="4.43" ry="4.43"/>
          <path class="cls-5" d="M285.23,54.91a26.23,26.23,0,0,1,26.15,26.15V96.75a26.22,26.22,0,0,1-26.15,26.15H243.39a26.22,26.22,0,0,1-26.15-26.15"/>
          <rect class="cls-4" x="374.14" y="54.91" width="151.67" height="67.99" rx="4.43" ry="4.43"/>
          <path class="cls-5" d="M499.66,54.91A26.22,26.22,0,0,1,525.8,81.06V96.75a26.22,26.22,0,0,1-26.14,26.15H400.29"/>
          <rect class="cls-2" x="251.23" width="371.32" height="10.46" rx="0.68" ry="0.68"/>
          <rect class="cls-6" x="585.95" y="110.87" width="39.22" height="80.02" rx="2.55" ry="2.55"/>
          <circle class="cls-7" cx="612.1" cy="146.44" r="5.23"/>
        </g>
        <g>
          <rect class="cls-1" x="708.85" y="7.84" width="522.99" height="193.51" rx="2.25" ry="2.25"/>
          <rect class="cls-2" x="708.85" y="70.6" width="522.99" height="31.38"/>
          <line class="cls-3" x1="1231.84" y1="60.14" x2="708.85" y2="60.14"/>
          <rect class="cls-2" x="784.69" width="371.32" height="10.46" rx="0.68" ry="0.68"/>
        </g>
        <g>
          <rect class="cls-1" x="1242.3" y="7.84" width="522.99" height="193.51" rx="2.25" ry="2.25"/>
          <rect class="cls-2" x="1242.3" y="70.6" width="522.99" height="31.38"/>
          <line class="cls-3" x1="1765.29" y1="60.14" x2="1242.3" y2="60.14"/>
          <rect class="cls-2" x="1318.14" width="371.32" height="10.46" rx="0.68" ry="0.68"/>
        </g>
        <g>
          <rect class="cls-1" x="1775.75" y="7.84" width="522.99" height="193.51" rx="2.25" ry="2.25"/>
          <rect class="cls-2" x="1775.75" y="70.6" width="522.99" height="31.38"/>
          <line class="cls-3" x1="2298.74" y1="60.14" x2="1775.75" y2="60.14"/>
          <rect class="cls-2" x="1851.59" width="371.32" height="10.46" rx="0.68" ry="0.68"/>
        </g>
        <g>
          <rect class="cls-1" x="2309.2" y="7.84" width="522.99" height="193.51" rx="2.25" ry="2.25"/>
          <rect class="cls-2" x="2309.2" y="70.6" width="522.99" height="31.38"/>
          <line class="cls-3" x1="2832.19" y1="60.14" x2="2309.2" y2="60.14"/>
          <rect class="cls-2" x="2385.04" width="371.32" height="10.46" rx="0.68" ry="0.68"/>
        </g>
        <g>
          <path class="cls-1" d="M2824.69,7.84A8.1,8.1,0,0,1,2828.9,9c18.64,11.35,165.42,102.85,165.42,171.42,0,26.15-184.79,20.92-184.79,20.92V7.84Z"/>
          <path class="cls-2" d="M2967.61,121.88s21.56,26.34,24.79,44.41H2809.53V121.88Z"/>
          <path class="cls-7" d="M2892.77,54.91h-43.58a3.92,3.92,0,0,0-3.92,3.93v48.59a4.58,4.58,0,0,0,4.57,4.58H2959.2s-19.62-21.17-35.36-34.28-28.13-22.82-28.13-22.82Z"/>
          <path class="cls-5" d="M2895.71,54.91l-48.09,54.43a1.34,1.34,0,0,1-2.35-.89V58.51a3.6,3.6,0,0,1,3.59-3.6Z"/>
          <path class="cls-7" d="M2975.4,132.31s6.72,9.33,10.2,18.49h-18.85a3.82,3.82,0,0,1-3.81-3.82V135.89a3.58,3.58,0,0,1,3.58-3.58Z"/>
        </g>
        <g>
          <path class="cls-1" d="M169.63,7.84A8.1,8.1,0,0,0,165.42,9C146.78,20.36,0,111.86,0,180.43c0,26.15,184.79,20.92,184.79,20.92V7.84Z"/>
          <path class="cls-2" d="M26.71,121.88S5.15,148.22,1.92,166.29H184.79V121.88Z"/>
          <path class="cls-7" d="M101.55,54.91h43.58a3.92,3.92,0,0,1,3.92,3.93v48.59a4.58,4.58,0,0,1-4.57,4.58H35.12S54.74,90.84,70.48,77.73,98.61,54.91,98.61,54.91Z"/>
          <path class="cls-5" d="M98.61,54.91l48.09,54.43a1.34,1.34,0,0,0,2.35-.89V58.51a3.6,3.6,0,0,0-3.59-3.6Z"/>
          <path class="cls-7" d="M18.92,132.31s-6.72,9.33-10.2,18.49H27.57A3.82,3.82,0,0,0,31.38,147V135.89a3.58,3.58,0,0,0-3.58-3.58Z"/>
        </g>
      </g>
      <text class="cls-8" transform="translate(2335.12 139.74)">15 000</text>
      <text class="cls-8" transform="translate(1937.77 139.74)">111</text>
      <text class="cls-8" transform="translate(1419.77 138.74)">31</text>
    </g>
  </g>
</svg>
