<?xml version="1.0" encoding="utf-8"?>
<!-- Generator: Adobe Illustrator 22.0.1, SVG Export Plug-In . SVG Version: 6.00 Build 0)  -->
<svg version="1.1" id="Calque_1" xmlns="http://www.w3.org/2000/svg" xmlns:xlink="http://www.w3.org/1999/xlink" x="0px" y="0px"
	 viewBox="0 0 1280 800" style="enable-background:new 0 0 1280 800;" xml:space="preserve">
<style type="text/css">
	.st0{fill:#FFFFFF;}
</style>
<g>
	<path class="st0" d="M746.8,662.3c-0.4,0-2.2-0.6-2.2-12.2c0-17.7-9.3-20.6-14.9-22.4c-1.7-0.5-3.4-1-3.5-1.7
		c-0.2-0.9,0.8-3.4,7.1-10.6c8.6-9.7,7.5-18.4,5-24c-6.5-14.5-28-23.7-40-23.7c-0.6,0-1.2,0-1.8,0.1c-0.2,0-0.3,0-0.5,0
		c-1.8,0-3.4-0.7-4.8-2.3c-10-10.5-8.1-50.5-8.1-50.9c0-0.6-0.3-1.1-0.8-1.4c-0.2-0.1-0.5-0.2-0.7-0.2c-0.3,0-0.7,0.1-0.9,0.3
		c-2.8,2.3-4.3,2.6-5,2.6c-0.4,0-0.7-0.1-1-0.5c-1.6-2-0.9-8.8,0.1-12.9c0.1-0.3,0-0.6-0.1-0.9c-6.4-14.9-7.6-26.9-3.5-35.9
		c4.1-8.8,12.1-11.3,12.1-11.4c0.7-0.2,1.2-0.9,1-1.7c-9.6-64.2-16-74.5-27.4-74.5c-1.5,0-3.1,0.2-4.7,0.4c-1.2,0.1-2.4,0.3-3.7,0.3
		c-6.2,0.4-6.8,7.7-7.4,16.3c-1.2,15.4-2.7,34.6-31.5,34.6c-1.9,0-3.9-0.1-6-0.3c-12-1-19.2-3.1-21.2-6.3c-1.4-2.2-0.3-5.1,0.8-8.1
		c1.3-3.3,2.6-6.8,0.5-9.9c-2.5-3.7-9.5-5.5-22.7-5.9c-0.7,0-1.4,0-2.1,0c-25.1,0-37.2,12.3-45.1,20.4c-3.9,4-7,7.1-10,7.1
		c-3,0-6.7-3.3-11.4-10.4c-12.9-19.3-25.8-19.9-37.2-20.4c-8.4-0.4-15.6-0.7-21.7-8.5c-7.3-9.3-5.7-11-2.9-14.2
		c2.8-3,6.6-7.2,4.5-18c-1.3-6.7-2.2-12.3-1.2-13.6c0.1-0.1,0.4-0.4,1.7-0.4c1.3,0,3.1,0.3,5.4,0.7c3.1,0.5,6.9,1.1,11.7,1.4
		c0.3,0,0.6,0,0.9,0c0,0,0,0,0,0c5.5,0,8.7-3.5,8.7-9.5c0-5.6-2.7-12.8-7-19c-4.8-6.8-10.6-10.7-15.9-10.7c-2.4,0-4.7,0.8-6.7,2.3
		c-8.3,6.2-15.9,9.8-20.9,9.8c-4.1,0-4.1-2.3-4.1-3.1c0-7.8-0.8-8.2-10.5-12.3c-2-0.9-4-1.3-6.3-1.3c-1.1,0-2.1,0.1-3,0.2
		c-0.7,0.1-1.3,0.1-1.8,0.1c-0.9,0-1.1-0.2-1.2-0.3c-0.7-0.8-0.9-3.5-0.5-8.2c0.7-9-1.3-19.5-3.1-28.9c-1.5-8-3-15.5-2.4-20.4
		c0.4-3.2,2-4.7,3.7-6.4c4.5-4.4,6.9-8.5-1.1-24.6c0-0.1-0.1-0.2-0.1-0.2c-0.3-0.4-7.4-10.4,2.8-27.1c3.5-5.7,3.1-9,2.6-12.5
		c-0.4-2.6-0.8-5.3,0.4-9.8c0.4-1.6,0.9-1.6,1.1-1.6c1.1,0,3.1,1.4,4.8,2.6c2.1,1.5,4.1,2.9,5.9,2.9c0.9,0,1.7-0.4,2.3-1
		c1.4-1.5,1.7-4.6,1-10.3c-1.1-9.5-1.3-15.4,0.9-17.9c1.1-1.2,2.9-1.8,5.8-1.8c4.4,0,11,1.4,20.2,3.6c6.8,1.6,11.7,2.4,15.2,2.4
		c6.8,0,8.8-2.8,11.1-6c1.6-2.3,3.5-4.9,7.7-7.4c2-1.2,3.8-1.7,5.6-1.7c3.4,0,6.5,2.1,10.1,4.5c4.3,2.9,9.2,6.2,15.9,6.2
		c1.6,0,3.3-0.2,5-0.6c0.9-0.2,2-0.3,3.1-0.3c12.5,0,31.6,13.9,48.4,26.1c7.3,5.3,14.1,10.3,20,13.8c9.4,5.6,10.3,9.3,11,12.6
		c1.1,4.6,2.6,8,13.8,12.2c21.5,8.1,22.4,9.1,23.7,28.8c0.4,5.3,2.4,8,6,8c0,0,0,0,0,0c2.3,0,4.8-1.1,7.5-2.3
		c2.5-1.1,5.2-2.2,7.3-2.2c1.4,0,5.2,0,5.2,12.8c0,2.2,0,4.2,0,6.1c-0.1,29.6,1.7,30.2,18.8,36.3c17.7,6.3,12.8,33.6,12.7,33.9
		c-0.1,0.5,0,0.9,0.4,1.3c0.3,0.3,0.7,0.5,1.1,0.5c0.1,0,0.1,0,0.2,0c2.2-0.2,4.5-0.4,6.6-0.4c24.6,0,39.8,14.9,49.8,24.8
		c5,4.9,8.3,8.2,11.4,8.2c3.8,0,5.2-4.6,6.1-9.2c1.6-8.4,8.8-9.7,12.9-9.7c10.6,0,24.9,8,28.2,18.6c2.4,7.8-1.7,15.6-11.9,22.4
		c-13.8,9.2-20.1,17.2-19.3,24.6c1.1,10.2,15.4,15.8,25.8,19.9c1.7,0.7,3.3,1.3,4.7,1.9c0.3,0.1,0.6,0.2,0.9,0.2c0,0,0,0,0,0
		c2.4,0,2.4-3,2.4-5.9c0-1.7,0-5.8,1-5.8c0.6,0,2.5,0.6,7.4,5.7c5.6,5.8,2.5,9.4-0.4,12.9c-1.6,1.9-3.1,3.6-2.3,5.5
		c0.8,2.1,3.9,3.1,11.9,4c18.7,2,18.8,2.2,26.1,13.4c2.5,3.9,5.9,9.1,11.1,16.1c9.2,12.3,7.2,21.5,5.5,28.8
		c-1.9,8.6-3.6,16.1,14.3,22.3l4.1,1.4c14.2,4.9,25.4,8.8,25.6,10.9c0,0.3-0.4,1.4-5.3,4.1c-15.8,8.8-19.2,22.6-21.7,32.7
		c-1.8,7.2-2.9,11-6.4,11c-0.3,0-0.7,0-1.1-0.1c-1.8-0.3-2.2-1.1-2.9-2.3c-0.9-1.6-2-3.9-6.7-3.9c-4,0-10.3,1.6-19.9,4.9
		c-17.6,6.1-21.3,19.1-24.3,29.5c-2.5,8.8-4.5,15.8-13.7,16.9c-12.4,1.5-16.2,13.4-19,22.1c-1.5,4.7-2.9,9-4.9,9
		c-0.6,0-1.7-0.4-3.6-2c-2.2-1.9-4.5-2.9-7-2.9c-4.6,0-8.9,3.4-12.3,6C750.1,660.6,747.9,662.3,746.8,662.3z"/>
	<path d="M468.9,127c3,0,5.9,2,9.2,4.2c4.5,3,9.6,6.5,16.7,6.5c1.7,0,3.5-0.2,5.3-0.6c0.8-0.2,1.8-0.3,2.7-0.3
		c12,0,31.7,14.3,47.5,25.8c7.3,5.3,14.2,10.3,20.1,13.8c8.9,5.3,9.6,8.5,10.3,11.6c1.2,5.1,2.9,8.8,14.8,13.2
		c21,7.9,21.4,8.4,22.7,27.5c0.5,7.8,4.4,9.4,7.5,9.4c2.6,0,5.3-1.2,8.1-2.4c2.4-1,4.9-2.1,6.7-2.1c0.9,0,1.5,0.2,2.2,1.4
		c0.7,1.3,1.5,4,1.5,9.9c0,2.2,0,4.2,0,6.1c-0.1,27.2-0.1,30.7,19.8,37.8c16.5,5.9,11.8,31.9,11.7,32.2c-0.2,0.9,0.1,1.9,0.7,2.6
		c0.6,0.6,1.4,1,2.2,1c0.1,0,0.2,0,0.3,0c2.2-0.2,4.4-0.3,6.5-0.3c24,0,38.9,14.6,48.7,24.3c5.3,5.2,8.8,8.6,12.5,8.6
		c5.6,0,6.9-7.3,7.5-10.4c1.3-7,7-8.4,11.5-8.4c5.1,0,11.1,1.9,16.2,5.2c5.4,3.4,9.1,7.8,10.5,12.4c2.7,9-4.6,16.2-11.3,20.7
		c-14.3,9.5-20.8,18-19.9,26c1.2,11.1,15.9,16.9,26.7,21.2c1.7,0.7,3.3,1.3,4.6,1.9c0.5,0.2,1,0.3,1.5,0.3c0.8,0,3.3-0.3,3.8-3.9
		c0.1-1,0.2-2.2,0.2-3.5c0-1.1,0-2.9,0.2-4c0.9,0.5,2.6,1.7,5.7,4.9c4.4,4.6,2.7,7.1-0.5,10.9c-1.7,2-3.7,4.3-2.6,7
		c1.1,2.8,4.4,4,13.1,4.9c9.6,1,14.1,1.6,17,3.2c2.8,1.5,4.5,4.2,8,9.6c2.5,3.9,5.9,9.2,11.2,16.2c8.8,11.8,6.9,20.2,5.3,27.6
		c-2.4,10.5-2.6,17.9,15.3,24.1l4.1,1.4c11.6,4,21.7,7.5,24.2,9.5c-0.5,0.5-1.7,1.3-4.2,2.7c-16.3,9.1-20,23.9-22.4,33.7
		c-1.7,7-2.7,9.9-4.9,9.9c-0.2,0-0.5,0-0.8-0.1c-1.1-0.2-1.2-0.4-1.8-1.5c-0.9-1.8-2.5-4.7-8-4.7c-4.1,0-10.6,1.6-20.4,5
		c-18.4,6.4-22.2,19.8-25.3,30.5c-2.8,9.8-4.6,14.9-12.4,15.9c-13.3,1.7-17.5,14.6-20.3,23.1c-0.9,2.8-2.4,7.5-3.5,8
		c0,0-0.8,0-2.6-1.7c-2.4-2.2-5.1-3.3-8-3.3c-5.2,0-9.7,3.5-13.3,6.4c-1.3,1-3.1,2.4-4,2.9c-0.4-0.8-1.1-3.4-1.1-10.5
		c0-18.8-10.4-22-16-23.8c-0.8-0.3-1.8-0.6-2.4-0.8c0.3-0.9,1.6-3.2,6.7-9c9.2-10.3,7.9-19.6,5.2-25.6c-3-6.7-9.5-13-18.3-17.8
		c-7.7-4.2-16.4-6.8-23.1-6.8c-0.6,0-1.3,0-1.9,0.1c-0.1,0-0.3,0-0.4,0c-1.4,0-2.6-0.6-3.7-1.8c-7.9-8.3-8.2-38.8-7.7-49.8
		c0.1-1.2-0.6-2.3-1.6-2.8c-0.4-0.2-0.9-0.3-1.4-0.3c-0.7,0-1.3,0.2-1.9,0.7c-2.3,1.9-3.5,2.2-3.9,2.3c-0.8-1.3-0.6-6.8,0.5-11.5
		c0.1-0.6,0.1-1.3-0.2-1.9c-6.3-14.4-7.4-26.1-3.5-34.6c3.7-8.2,10.9-10.5,11.2-10.6c1.4-0.4,2.3-1.8,2.1-3.3
		c-9.7-64.3-16-75.8-28.9-75.8c-1.6,0-3.2,0.2-4.9,0.4c-1.2,0.1-2.4,0.3-3.6,0.3c-2.5,0.1-5.7,1.4-7.3,6.6c-0.9,3-1.2,6.7-1.5,11.1
		c-0.6,7.4-1.2,15.8-5.2,22.3c-4.5,7.4-12.6,10.9-24.8,10.9c-1.9,0-3.8-0.1-5.9-0.3c-15.1-1.2-19.1-4.1-20.1-5.6
		c-0.9-1.5-0.3-3.5,1-6.7c1.3-3.4,2.9-7.5,0.4-11.2c-2.8-4.2-10-6.1-23.9-6.5c-0.7,0-1.4,0-2.1,0c-25.8,0-38.1,12.6-46.2,20.9
		c-3.7,3.7-6.6,6.7-8.9,6.7c-2.4,0-5.8-3.3-10.2-9.8c-13.3-19.9-27.2-20.5-38.4-21.1c-8.3-0.4-14.9-0.7-20.6-7.9
		c-3.2-4.1-4.9-7.1-5-8.9c0-1,0.5-1.7,2-3.3c2.8-3.1,7.1-7.7,4.9-19.3c-0.7-3.7-1.9-10.4-1.5-12.2c0.1,0,0.3,0,0.5,0
		c1.2,0,2.9,0.3,5.2,0.6c3.1,0.5,6.9,1.1,11.8,1.4c0.4,0,0.7,0,1,0c4.2,0,6.6-1.8,7.9-3.4c1.6-1.9,2.4-4.5,2.4-7.7
		c0-5.9-2.8-13.5-7.3-19.9c-5.1-7.2-11.3-11.4-17.1-11.4c-2.7,0-5.3,0.9-7.6,2.6c-7.9,5.9-15.4,9.5-20,9.5c-2.6,0-2.6-1-2.6-1.6
		c0-8.5-1.1-9.3-11.4-13.7c-2.2-0.9-4.4-1.4-6.9-1.4c-1.2,0-2.2,0.1-3.1,0.2c-0.6,0.1-1.2,0.1-1.6,0.1c-0.1,0-0.1,0-0.1,0
		c-0.2-0.6-0.4-2.3-0.1-6.9c0.8-9.2-1.3-19.8-3.1-29.3c-1.5-7.8-2.9-15.2-2.4-19.9c0.3-2.7,1.6-3.9,3.3-5.5
		c4.9-4.7,7.7-9.4-0.8-26.3c-0.1-0.2-0.2-0.3-0.3-0.4c-0.3-0.4-6.8-9.7,2.9-25.4c3.8-6.2,3.3-9.9,2.8-13.5c-0.4-2.5-0.7-5,0.3-9.3
		c0-0.1,0.1-0.2,0.1-0.3c0.9,0.4,2.4,1.5,3.4,2.2c2.3,1.7,4.5,3.2,6.8,3.2c1.3,0,2.6-0.5,3.5-1.5c1.7-1.9,2.1-5.2,1.4-11.5
		c-0.8-6.9-1.5-14.5,0.5-16.8c0.3-0.3,1.1-1.3,4.6-1.3c4.3,0,10.8,1.3,19.9,3.5c6.9,1.6,11.9,2.4,15.6,2.4c7.6,0,10-3.4,12.3-6.7
		c1.6-2.3,3.3-4.7,7.2-7C465.8,127.5,467.4,127,468.9,127C468.9,127,468.9,127,468.9,127 M389.1,161.5L389.1,161.5L389.1,161.5
		 M435.3,342.9L435.3,342.9L435.3,342.9 M798.5,413.9L798.5,413.9L798.5,413.9 M468.9,124c-1.9,0-4,0.6-6.4,2
		c-10.4,6.2-7.4,13.3-18,13.3c-3.3,0-8-0.7-14.9-2.3c-9.4-2.2-16-3.6-20.6-3.6c-9.4,0-10,5.7-8.2,21.4c0.9,7.4-0.1,9.7-1.8,9.7
		c-2.8,0-7.6-5.6-10.7-5.6c-1.1,0-2,0.7-2.5,2.7c-2.7,10.9,3,12.5-2.7,21.9c-10.9,17.8-2.7,28.7-2.7,28.7
		c12.3,24.6-1.4,19.2-2.7,30.1c-1.4,10.9,6.8,32.8,5.5,49.3c-0.7,8.7,0.5,10.1,3.2,10.1c1.3,0,2.9-0.3,4.8-0.3
		c1.7,0,3.6,0.2,5.7,1.1c9.6,4.1,9.6,4.1,9.6,10.9c0,2.9,2,4.6,5.6,4.6c4.8,0,12.4-3,21.8-10.1c1.9-1.4,3.8-2,5.8-2
		c15.1,0,31,36.3,14.2,36.3c-0.3,0-0.6,0-0.8,0c-8.5-0.6-14-2.1-17.2-2.1c-4.4,0-4.4,3-2,15.8c4.1,21.9-16.4,13.7-1.4,32.8
		c15.1,19.2,37-4.1,58.9,28.7c5.4,8.1,9.2,11.1,12.7,11.1c10.4,0,17.7-27.6,55.1-27.6c0.7,0,1.4,0,2.1,0c52,1.4-11,25.7,42.4,30.1
		c2.2,0.2,4.2,0.3,6.1,0.3c46.6,0,25.1-50.1,39-50.9c3.1-0.2,5.8-0.7,8.3-0.7c9.8,0,16.1,7.8,25.9,73.2c0,0-27.4,8.2-9.6,49.3
		c0,0-3.6,15.2,2.3,15.2c1.4,0,3.3-0.8,5.9-2.9c0,0-2.7,54.8,14.4,54.8c0.2,0,0.4,0,0.6,0c0.5,0,1.1-0.1,1.6-0.1
		c18.5,0,55.2,21.3,33.9,45.2c-21.9,24.6,10.9,2.7,10.9,35.6c0,10.4,1.4,13.7,3.7,13.7c3.9,0,10.5-9.4,17.7-9.4c2,0,4,0.7,6,2.5
		c1.9,1.7,3.4,2.4,4.6,2.4c7.7,0,5.2-28.8,24.1-31.2c21.9-2.7,6.8-35.6,38.3-46.5c10.3-3.6,16-4.8,19.4-4.8c7,0,3.8,5.3,9.3,6.2
		c0.5,0.1,0.9,0.1,1.3,0.1c11.5,0,2.7-29.4,28.8-43.9c12.3-6.8,6.8-8.2-24.6-19.2c-31.5-10.9,1.4-23.3-19.2-50.6
		s-12.3-27.4-38.3-30.1s5.2-7.9-8.2-21.9c-4.3-4.5-6.9-6.1-8.5-6.1c-4.3,0-1.2,11.7-3.4,11.7c-0.1,0-0.2,0-0.4-0.1
		c-14.7-6.3-52-16.4-10.9-43.8c30.1-20,2.2-43.7-17.1-43.7c-7.1,0-12.9,3.2-14.4,10.9c-1.1,5.7-2.5,7.9-4.6,7.9
		c-7.8,0-24.3-32.9-61.2-32.9c-2.2,0-4.5,0.1-6.8,0.4c0,0,5.5-28.7-13.7-35.6c-19.2-6.8-17.8-8.2-17.8-41.1
		c0-11.2-2.9-14.3-6.7-14.3c-4.6,0-10.7,4.5-14.8,4.5c-2.4,0-4.2-1.6-4.5-6.6c-1.4-20.5-2.7-21.9-24.6-30.1
		c-21.9-8.2-4.1-12.3-24.6-24.6c-19.3-11.6-50.7-40.1-69.1-40.1c-1.2,0-2.3,0.1-3.4,0.4c-1.6,0.4-3.2,0.5-4.6,0.5
		C483.3,134.7,477.4,124,468.9,124L468.9,124z"/>
</g>
</svg>
