<?xml version="1.0" encoding="utf-8"?>
<!-- Generator: Adobe Illustrator 18.1.1, SVG Export Plug-In . SVG Version: 6.00 Build 0)  -->
<svg version="1.1" id="Calque_1" xmlns="http://www.w3.org/2000/svg" xmlns:xlink="http://www.w3.org/1999/xlink" x="0px" y="0px"
	 viewBox="0 0 261.8 275" enable-background="new 0 0 261.8 275" xml:space="preserve">
<g>
	<g>
		<path fill="#272525" stroke="#85C275" stroke-width="2" stroke-miterlimit="10" d="M218.2,114.4c0.5,23.5-11.6,43.9-24.5,62.6
			c-5.4,8.4-11.4,16.5-17.1,24.7c-5.6,8.1-11,16.3-16.9,24.2c-6.1,8.9-12.2,17.8-18.3,26.6c-0.4,0.6-0.8,1.2-1.2,1.7
			c-1.9,2.7-5.9,2.8-7.8,0.1c-5.1-6.9-10.3-13.8-15.4-20.7c-15.5-20.9-31.5-41.5-46.7-62.7c-11.4-15.8-20.9-33.3-21.3-53.2
			c-1-46.7,36.1-85.4,82.8-86.3S217.3,67.7,218.2,114.4z"/>
	</g>
	<g>
		<g>
			<path fill="#FFFFFF" d="M90.2,137.2L89.1,84c0-1.9,0.7-3.8,2-5.2l7.1-7.4c2.8-2.9,7.4-3,10.3-0.2l0,0c1.4,1.3,3.3,2.1,5.2,2
				l17.3-0.4c5.9-0.1,11.7,1.3,16.9,4.2l6.1,3.4l0.5,22.5l8.4,3.6l1.4,6.2l5-2.2l-0.6-27.1l6.7-0.1c0,0,1.6,27.7,0.6,28.7
				c-1,1.1,2.6,5.8,2.7,11.2c0.1,5.4,5.2,12,5.2,12l0.1,4.2l13.9,8.9l-125.4,2.6L90.2,137.2z"/>
			<path fill="#272525" d="M104.8,71.1l1,47.9l5.8-11.7l-0.7-32.6C110.9,74.7,107.1,69.7,104.8,71.1z"/>
			<path fill="#272525" d="M139.1,75.1l0.4,21c0,0,6.9,0.3,8,5.6s2.2,18,2.2,18l3.7,2.2l-0.8-40.2C152.7,81.7,149.1,77.6,139.1,75.1
				z"/>
			<path fill="#272525" d="M171,84.4l0.3,13.4c0,0,2.1-0.5,2.1,1.1c0,1.6,0.2,11.3,0.2,11.3l1.8,1.7l-0.1-6.1l-0.4-21.3L171,84.4z"
				/>
			<polygon fill="#272525" points="161.3,108.1 162.8,112.2 163,124.5 157,114.9 			"/>
			<path fill="#272525" d="M138.3,101.7l3.8,3.6l0.4,18.3l-7.9,8l-0.6-30.1C133.9,101.5,138.6,101.3,138.3,101.7z"/>
		</g>
		<polygon fill="#272525" points="182.6,140.4 144.5,141.2 183.2,141.8 190.8,146.5 193.3,146.5 		"/>
		<polygon fill="#272525" points="182,143.6 107.1,145.1 139,146.3 		"/>
		<polygon fill="#272525" points="159.1,146.6 186.8,146.1 182.2,144.7 		"/>
		<path fill="#272525" d="M173.8,112.5l-2.9,6.9l0.4,19l10.7-0.2l-0.1-3.2c0,0-5-6.9-5.1-11.9C176.8,118,173.8,112.5,173.8,112.5z"
			/>
	</g>
</g>
</svg>
