<?xml version="1.0" encoding="utf-8"?>
<!-- Generator: Adobe Illustrator 18.1.1, SVG Export Plug-In . SVG Version: 6.00 Build 0)  -->
<svg version="1.1" id="Calque_1" xmlns="http://www.w3.org/2000/svg" xmlns:xlink="http://www.w3.org/1999/xlink" x="0px" y="0px"
	 viewBox="0 0 261.8 275" enable-background="new 0 0 261.8 275" xml:space="preserve">
<g>
	<path fill="#51508A" d="M217.1,109.6c0,23.5-12.5,43.7-25.8,62.1c-5.5,8.3-11.8,16.2-17.6,24.4c-5.7,8-11.4,16.1-17.4,23.9
		c-6.3,8.8-12.6,17.5-18.9,26.3c-0.4,0.6-0.8,1.1-1.2,1.7c-1.9,2.7-5.9,2.7-7.8,0c-5-7-10-14-15-21c-15.1-21.2-30.6-42.2-45.4-63.6
		c-11-16-20.2-33.7-20.2-53.6c0-46.7,37.9-84.6,84.6-84.6S217.1,62.9,217.1,109.6z"/>
	<g>
		
			<rect x="100.8" y="60.2" fill="#FFFFFF" stroke="#51508A" stroke-width="1.3092" stroke-miterlimit="10" width="65.9" height="114.2"/>
		<rect x="107.2" y="64.9" fill="#51508A" width="8.9" height="24"/>
		<rect x="121.7" y="64.9" fill="#51508A" width="8.9" height="24"/>
		<rect x="136.2" y="64.9" fill="#51508A" width="8.9" height="24"/>
		<rect x="150.7" y="64.9" fill="#51508A" width="8.9" height="24"/>
		<rect x="107.2" y="93.4" fill="#51508A" width="8.9" height="24"/>
		<rect x="121.7" y="93.4" fill="#51508A" width="8.9" height="24"/>
		<rect x="136.2" y="93.4" fill="#51508A" width="8.9" height="24"/>
		<rect x="150.7" y="93.4" fill="#51508A" width="8.9" height="24"/>
		<rect x="107.2" y="121.9" fill="#51508A" width="8.9" height="24"/>
		<rect x="121.7" y="121.9" fill="#51508A" width="8.9" height="24"/>
		<rect x="136.2" y="121.9" fill="#51508A" width="8.9" height="24"/>
		<rect x="150.7" y="121.9" fill="#51508A" width="8.9" height="24"/>
		<rect x="121.7" y="150.4" fill="#51508A" width="23" height="24"/>
		<rect x="136.2" y="150.4" fill="#51508A" width="8.9" height="24"/>
		<path fill="#FFFFFF" stroke="#51508A" stroke-width="0.8332" stroke-miterlimit="10" d="M115.8,77.5v11h-8.7
			c-0.6-0.4-1.1-0.9-1.6-1.4c-4.1-4.8-3.5-13.5-3.5-13.5c0.5,3,2.2,5.6,3.5,7.3c1,1.3,1.9,2.1,1.9,2.1s0.7-5-1.9-9.3
			c-0.1-0.2-0.2-0.3-0.3-0.5c-2.2-3.2-0.7-6.3,0.3-7.7c0.3-0.5,0.6-0.8,0.7-0.9c-2.2,5.2,3.9,7.3,9.2,12.6
			C115.5,77.2,115.7,77.4,115.8,77.5z"/>
		<path fill="#FFFFFF" stroke="#51508A" stroke-width="0.758" stroke-miterlimit="10" d="M151.3,77.5v11h7.2
			c0.5-0.4,0.9-0.9,1.3-1.4c3.4-4.8,2.9-13.5,2.9-13.5c-0.4,3-1.8,5.6-2.9,7.3c-0.9,1.3-1.6,2.1-1.6,2.1s-0.6-5,1.6-9.3
			c0.1-0.2,0.2-0.3,0.3-0.5c1.8-3.2,0.6-6.3-0.3-7.7c-0.3-0.5-0.5-0.8-0.6-0.9c1.8,5.2-3.2,7.3-7.6,12.6
			C151.5,77.2,151.4,77.4,151.3,77.5z"/>
		<path fill="#FFFFFF" stroke="#51508A" stroke-width="1.022" stroke-miterlimit="10" d="M122.5,88.8L122.5,88.8
			C122.5,88.8,122.5,88.8,122.5,88.8L122.5,88.8z"/>
		<path fill="#FFFFFF" stroke="#51508A" stroke-width="0.7247" stroke-miterlimit="10" d="M130,77.8v10.6h-7.7l-0.4-0.1
			c0,0-0.1-0.1-0.1-0.2c-0.1-0.1-0.2-0.3-0.3-0.5c-1.8-0.7-3.6-2.3-4.5-5.9c-2.1-8.2,2.3-8.8,1.9-12.4c0,0,1.9,1.4,1.2,5.5
			c-0.4,1.9,0.4,3.6,1.5,4.7c0.3-0.9,0.6-1.8,1.1-2.8c3.1-6.5,6-9.5,4.7-12.4c-0.3-0.6-0.8-1.2-1.5-1.9c0.1,0,1.7,0.6,2.8,1.9
			c1,1.2,1.7,3.1,0.7,5.8c-2.3,5.9-1,10.7-1,10.7S129.3,79.6,130,77.8z"/>
		<path fill="#FFFFFF" stroke="#51508A" stroke-width="0.7319" stroke-miterlimit="10" d="M136.7,77.8v10.6h7.8l0.4-0.1
			c0,0,0.1-0.1,0.1-0.2c0.1-0.1,0.2-0.3,0.3-0.5c1.8-0.7,3.7-2.3,4.6-5.9c2.1-8.2-2.4-8.8-2-12.4c0,0-2,1.4-1.2,5.5
			c0.4,1.9-0.4,3.6-1.5,4.7c-0.3-0.9-0.6-1.8-1.1-2.8c-3.1-6.5-6.1-9.5-4.8-12.4c0.3-0.6,0.8-1.2,1.5-1.9c-0.1,0-1.7,0.6-2.9,1.9
			c-1.1,1.2-1.8,3.1-0.7,5.8c2.3,5.9,1,10.7,1,10.7S137.4,79.6,136.7,77.8z"/>
	</g>
</g>
</svg>
