<?xml version="1.0" encoding="utf-8"?>
<!-- Generator: Adobe Illustrator 18.1.1, SVG Export Plug-In . SVG Version: 6.00 Build 0)  -->
<svg version="1.1" id="Calque_1" xmlns="http://www.w3.org/2000/svg" xmlns:xlink="http://www.w3.org/1999/xlink" x="0px" y="0px"
	 viewBox="0 0 261.8 275" enable-background="new 0 0 261.8 275" xml:space="preserve">
<g>
	<g>
		<path fill="#51508A" d="M223.5,107.3c0,23.5-12.5,43.7-25.8,62.1c-5.5,8.3-11.8,16.2-17.6,24.4c-5.7,8-11.4,16.1-17.4,23.9
			c-6.3,8.8-12.6,17.5-18.9,26.3c-0.4,0.6-0.8,1.1-1.2,1.7c-1.9,2.7-5.9,2.7-7.8,0c-5-7-10-14-15-21c-15.1-21.2-30.6-42.2-45.4-63.6
			c-11-16-20.2-33.7-20.2-53.6c0-46.7,37.9-84.6,84.6-84.6S223.5,60.5,223.5,107.3z"/>
	</g>
	<g>
		<path fill="#FFFFFF" stroke="#51508A" stroke-width="1.7748" stroke-miterlimit="10" d="M139.7,144.3l-9.6-6.4l41.1-71.2l0.6,27
			l-29.7,50C141.7,144.6,140.6,144.9,139.7,144.3z"/>
		<polygon fill="#FFFFFF" stroke="#51508A" stroke-width="1.7748" stroke-miterlimit="10" points="94.2,145.4 79.2,145.8 
			124.3,66.7 124.8,93.8 		"/>
		
			<rect x="172.4" y="63.3" transform="matrix(0.9995 -3.259568e-002 3.259568e-002 0.9995 -3.2418 5.9055)" fill="#FFFFFF" stroke="#51508A" stroke-width="1.7748" stroke-miterlimit="10" width="14.3" height="78.2"/>
		
			<rect x="124.4" y="66.5" transform="matrix(0.9995 -3.259568e-002 3.259568e-002 0.9995 -3.3715 4.3441)" fill="#FFFFFF" stroke="#51508A" stroke-width="1.7748" stroke-miterlimit="10" width="14.3" height="78.2"/>
	</g>
</g>
</svg>
