<?xml version="1.0" encoding="utf-8"?>
<!-- Generator: Adobe Illustrator 18.1.1, SVG Export Plug-In . SVG Version: 6.00 Build 0)  -->
<svg version="1.1" id="Calque_1" xmlns="http://www.w3.org/2000/svg" xmlns:xlink="http://www.w3.org/1999/xlink" x="0px" y="0px"
	 viewBox="0 0 261.8 275" enable-background="new 0 0 261.8 275" xml:space="preserve">
<g>
	<path fill="#272525" stroke="#85C275" stroke-width="2" stroke-miterlimit="10" d="M216.9,107.6c0,23.5-12.5,43.7-25.8,62.1
		c-5.5,8.3-11.8,16.2-17.6,24.4c-5.7,8-11.4,16.1-17.4,23.9c-6.3,8.8-12.6,17.5-18.9,26.3c-0.4,0.6-0.8,1.1-1.2,1.7
		c-1.9,2.7-5.9,2.7-7.8,0c-5-7-10-14-15-21c-15.1-21.2-30.6-42.2-45.4-63.6c-11-16-20.2-33.7-20.2-53.6c0-46.7,37.9-84.6,84.6-84.6
		S216.9,60.9,216.9,107.6z"/>
	<g>
		<path fill="#FFFFFF" stroke="#272525" stroke-width="2" stroke-miterlimit="10" d="M187.4,98.7c0,0,0,41.6,0,55.5
			c-9.5,6.7-24.2,10.7-39.8,12.2c-8.3,0.8-16.9,0.8-25.1,0.1c-17.3-1.5-32.8-6.2-40.7-14.1c0-16.2,0-53.6,0-53.6H187.4z"/>
		<path fill="#FFFFFF" stroke="#272525" stroke-width="2" stroke-linejoin="round" stroke-miterlimit="10" d="M81.8,98.7l52.8-22.6
			l52.8,22.6C187.4,98.7,128.5,113,81.8,98.7z"/>
		<polyline fill="#FFFFFF" stroke="#FFFFFF" stroke-width="1.694" stroke-miterlimit="10" points="134.6,75.4 134.6,59.6 
			144.4,66.5 135.2,70.9 		"/>
		<path fill="#272525" d="M147.6,155v11.4c-8.3,0.8-16.9,0.8-25.1,0.1V155c0-6.9,5.6-12.5,12.6-12.5c3.5,0,6.6,1.4,8.9,3.7
			C146.2,148.4,147.6,151.6,147.6,155z"/>
	</g>
</g>
</svg>
