<?xml version="1.0" encoding="utf-8"?>
<!-- Generator: Adobe Illustrator 18.1.1, SVG Export Plug-In . SVG Version: 6.00 Build 0)  -->
<svg version="1.1" id="Calque_1" xmlns="http://www.w3.org/2000/svg" xmlns:xlink="http://www.w3.org/1999/xlink" x="0px" y="0px"
	 viewBox="0 0 261.8 275" enable-background="new 0 0 261.8 275" xml:space="preserve">
<g>
	<path fill="#272525" stroke="#85C275" stroke-width="2" stroke-miterlimit="10" d="M225.7,103.4c0,23.5-12.5,43.7-25.8,62.1
		c-5.5,8.3-11.8,16.2-17.6,24.4c-5.7,8-11.4,16.1-17.4,23.9c-6.3,8.8-12.6,17.5-18.9,26.3c-0.4,0.6-0.8,1.1-1.2,1.7
		c-1.9,2.7-5.9,2.7-7.8,0c-5-7-10-14-15-21C107,199.4,91.5,178.5,76.7,157c-11-16-20.2-33.7-20.2-53.6c0-46.7,37.9-84.6,84.6-84.6
		S225.7,56.7,225.7,103.4z"/>
	<g>
		<path fill="#FFFFFF" stroke="#272525" stroke-width="1.4582" stroke-miterlimit="10" d="M166.2,160.5c0,2.4-11.7,4.3-26.1,4.3
			c-5.5,0-10.7-0.3-14.9-0.8c-2.3-0.3-4.3-0.6-5.9-0.9c-3.3-0.7-5.3-1.6-5.3-2.6c0-2,8-3.6,19-4.1v-37.1
			c-17.2-3.7-30.3-20.5-30.3-40.7h74.8c0,20.2-13,37.1-30.3,40.7v37.1C158.2,156.9,166.2,158.6,166.2,160.5z"/>
		<path fill="#272525" d="M138.4,116.9v42.4c0,0.7-0.5,1.2-1.1,1.4l-0.6,0.2c-4.7,1.4-8.5,2.4-11.5,3.2c-2.3-0.3-4.3-0.6-5.9-0.9
			l-0.1-0.5c1.7-0.4,6-1.5,16.3-4.5V118c-26.8-6.3-28.6-39-28.6-39.4l2-0.1l0.9,0v0c0.1,1.4,2.3,31.8,27.5,36.9
			C137.9,115.6,138.4,116.2,138.4,116.9z"/>
	</g>
</g>
</svg>
