<?xml version="1.0" encoding="utf-8"?>
<!-- Generator: Adobe Illustrator 18.1.1, SVG Export Plug-In . SVG Version: 6.00 Build 0)  -->
<svg version="1.1" xmlns="http://www.w3.org/2000/svg" xmlns:xlink="http://www.w3.org/1999/xlink" x="0px" y="0px"
	 viewBox="0 0 2362 1616" enable-background="new 0 0 2362 1616" xml:space="preserve">
<g id="Calque_2">
	<path fill="none" stroke="#A9FF88" stroke-width="2.8202" stroke-miterlimit="10" d="M562.7,1361.3c-0.8,0.2-1,0.1-0.6-0.3
		C562.3,1360.8,562.5,1360.9,562.7,1361.3z"/>
	<path fill="#A9FF88" d="M2276.8,710.5L2090.6,750l-20.7-88.4l-456.9,101.5l-43.2-195.5L1238.9,639l30.1,438.1l-208.7,18.8l7.5,82.7
		l-18.8,1.9l5.6,314l-271.8,9.6l-205.7,7.3c0,0-9.4-141.7-14.4-150.1c9-1.9,89.6-37.9,89.6-37.9l55.6-83.5l42.1-63.2l-22.6-195.5
		l-396.7,41.3l-18.8-141l-3.9-7.2L73.2,441.6l340.3-24.4l45.1-32l80.8,1.9l-5.6-114.7l162.9-7.4l2.6-0.1l2.3,64.6l3.3,91.5l3.7-0.3
		l109.1-9.1l13.1-105l0-0.3L812.1,91.9l190.6-10.2l8.4-0.5l188.2-10l7.4,202l0.1,3l22.7-2.9l225.5-29l20.7,156.1l12-1.2l0.7-0.1
		l509.6-52.6l6.1-0.6l188-28.2l56.2,261L2276.8,710.5z"/>
	<path fill="#FFFFFF" d="M562.7,1361.3c-0.8,0.2-1,0.1-0.6-0.3C562.3,1360.8,562.5,1360.9,562.7,1361.3z"/>
</g>
<g id="Calque_1">
	<polygon fill="#85C275" points="830.8,306.5 830.8,306.2 812,91.9 1002.7,81.7 1012.8,290.2 	"/>
	<polygon fill="#85C275" points="1199.3,71.2 1206.7,273.2 1028.4,293 1011.1,81.3 	"/>
	<polygon fill="#85C275" points="1487.7,399 1246.3,433.1 1229.6,273.2 1455,244.2 1475.7,400.3 	"/>
	<path fill="#85C275" d="M782.7,1504.2l-205.7,7.3c0,0-9.4-141.7-14.4-150.1c9-1.9,89.6-37.9,89.6-37.9l55.6-83.5l68.9-3.1
		L782.7,1504.2z"/>
	<polygon fill="#85C275" points="738.4,810.7 308,874.3 73.1,441.6 413.4,417.2 458.6,385.2 539.4,387.1 533.7,272.4 696.6,265 
		701.6,329.5 708.5,420.6 	"/>
	<path fill="#85C275" d="M2248.2,578.5c-48.1,9.1-204.5,38.6-204.5,40.4c0,1.7-34.6-205.5-45.8-272.5l6.1-0.6l188-28.2L2248.2,578.5
		z"/>
</g>
</svg>
