<?xml version="1.0" encoding="utf-8"?>
<!-- Generator: Adobe Illustrator 21.0.2, SVG Export Plug-In . SVG Version: 6.00 Build 0)  -->
<svg version="1.1" xmlns="http://www.w3.org/2000/svg" xmlns:xlink="http://www.w3.org/1999/xlink" x="0px" y="0px"
	 viewBox="0 0 1920 1080" style="enable-background:new 0 0 1920 1080;" xml:space="preserve">
<style type="text/css">
	.st0{fill:#FFEAB6;}
	.st1{fill:#3D224C;}
	.st2{fill:#A5154F;}
	.st3{fill:#EB656C;}
	.st4{fill:none;stroke:#EB656C;stroke-linecap:round;stroke-miterlimit:10;}
	.st5{fill:none;stroke:#EB656C;stroke-width:1.5;stroke-linecap:round;stroke-miterlimit:10;}
	.st6{fill:none;stroke:#EB656C;stroke-width:0.9191;stroke-linecap:round;stroke-miterlimit:10;}
	.st7{fill:none;stroke:#EB656C;stroke-width:1.3786;stroke-linecap:round;stroke-miterlimit:10;}
	.st8{fill:#5CC0CD;}
	.st9{fill:none;stroke:#EB656C;stroke-width:1.0175;stroke-linecap:round;stroke-miterlimit:10;}
	.st10{fill:none;stroke:#EB656C;stroke-width:1.5262;stroke-linecap:round;stroke-miterlimit:10;}
	.st11{fill:none;stroke:#EB656C;stroke-width:0.9671;stroke-linecap:round;stroke-miterlimit:10;}
	.st12{fill:none;stroke:#EB656C;stroke-width:1.4506;stroke-linecap:round;stroke-miterlimit:10;}
	.st13{fill:#EF656C;}
	.st14{fill:none;stroke:#A5154F;stroke-width:1.3784;stroke-miterlimit:10;}
	.st15{fill:none;stroke:#EB656C;stroke-width:0.814;stroke-linecap:round;stroke-miterlimit:10;}
	.st16{fill:none;stroke:#EB656C;stroke-width:1.2209;stroke-linecap:round;stroke-miterlimit:10;}
	.st17{fill:none;stroke:#EB656C;stroke-width:1.2631;stroke-linecap:round;stroke-miterlimit:10;}
	.st18{fill:none;stroke:#EB656C;stroke-width:1.8946;stroke-linecap:round;stroke-miterlimit:10;}
	.st19{fill:none;stroke:#A5154F;stroke-width:3.3342;stroke-linecap:round;stroke-miterlimit:10;}
	.st20{fill:none;stroke:#A5154F;stroke-width:1.6671;stroke-miterlimit:10;}
	.st21{fill:none;stroke:#EF656C;stroke-width:3.3342;stroke-miterlimit:10;}
	.st22{fill:none;stroke:#A5154F;stroke-width:1.9669;stroke-linecap:round;stroke-miterlimit:10;}
	.st23{fill:none;stroke:#A5154F;stroke-width:0.9834;stroke-miterlimit:10;}
	.st24{fill:none;stroke:#EF656C;stroke-width:1.9669;stroke-miterlimit:10;}
	.st25{fill:none;stroke:#CD4663;stroke-width:0.6355;stroke-miterlimit:10;}
	.st26{fill:#A5144F;}
	.st27{fill:none;stroke:#FFE9B5;stroke-width:0.8254;stroke-miterlimit:10;}
	.st28{fill:#FFE9B5;stroke:#A5144F;stroke-width:0.8254;stroke-miterlimit:10;}
	.st29{fill:none;stroke:#FFE9B5;stroke-width:0.659;stroke-miterlimit:10;}
	.st30{fill:#FFE9B5;}
	.st31{fill:#FFFFFF;}
	.st32{fill:#251330;}
	.st33{fill:none;stroke:#FFFFFF;stroke-width:0.75;stroke-miterlimit:10;}
</style>
<g id="Fond">
	<g id="Calque_2">
		<g id="Day_1_">
			<polygon id="_70.59" class="st0" points="654.3,0 654.3,1080 1920.3,1080 1920.3,0 			"/>
			<polygon class="st1" points="1920.3,1080 654.3,1080 526.3,943 1921.3,943 			"/>
		</g>
		<g id="Night_1_">
			<polygon id="_29_41_" class="st1" points="654.2,1080.3 0,1080.3 0,0.4 654.3,0.4 			"/>
			<polygon class="st2" points="654.3,1080 0.3,1080 1.3,943 654.3,943 			"/>
		</g>
	</g>
</g>
<g id="ArrèrePlan">
	<g id="Trees">
		<path class="st3" d="M853.9,782v173.4c0,3,2.4,5.4,5.4,5.4s5.4-2.4,5.4-5.4V780C861.2,780.9,857.6,781.6,853.9,782z"/>
		<path class="st3" d="M864.7,774.7c-3.6,0-7.3,0.5-10.8,1.2v6.2c3.6-0.5,7.3-1.2,10.8-2.1V774.7z"/>
		<path class="st3" d="M864.7,774.7v-57.5c0-3-2.4-5.4-5.4-5.4s-5.4,2.4-5.4,5.4v58.7C857.5,775.1,861.1,774.7,864.7,774.7z"/>
		<line class="st4" x1="860.1" y1="711.7" x2="860.1" y2="834.9"/>
		<path class="st5" d="M860.3,760.4c0.9-0.2,14.4-17.8,14.4-17.8"/>
		<line class="st5" x1="860.1" y1="788" x2="834.2" y2="762.1"/>
		<line class="st4" x1="860.1" y1="734" x2="849.2" y2="718"/>
		<path class="st5" d="M842.7,770.7c-0.6-0.6-3.2-23-3.2-23"/>
		<line class="st5" x1="860.1" y1="814" x2="881.6" y2="789.5"/>
		<line class="st5" x1="860.1" y1="825.5" x2="833.2" y2="800.7"/>
		<line class="st5" x1="873.5" y1="798.7" x2="878.1" y2="778.9"/>
		<line class="st5" x1="857.3" y1="852.5" x2="883.8" y2="823"/>
		<path class="st5" d="M859.3,875.2c-0.3-0.5-29.1-28.3-29.1-28.3"/>
		<line class="st5" x1="851.2" y1="867" x2="846.7" y2="838.1"/>
		<g>
			<path class="st3" d="M923.8,958.3h-3.3c-2.3,0-4.2-1.9-4.2-4.2V768.7c0-2.3,1.9-4.2,4.2-4.2h3.3c2.3,0,4.2,1.9,4.2,4.2V954
				C928,956.4,926.1,958.3,923.8,958.3z"/>
			<line class="st6" x1="923" y1="764.5" x2="923" y2="860.3"/>
			<path class="st7" d="M923.2,802.3c1-0.1,15.7-13.9,15.7-13.9"/>
			<line class="st7" x1="923" y1="823.9" x2="894.8" y2="803.7"/>
			<line class="st6" x1="923" y1="781.9" x2="911.2" y2="769.4"/>
			<path class="st7" d="M904.1,810.4c-0.6-0.5-3.4-17.9-3.4-17.9"/>
			<path class="st8" d="M919.2,759.2c0,0,4.2,20.6,8.4,27.4c4.2,6.8,6.6-22,6.8-21.6c0.1,0.4-15.8-5.8-15.8-5.8"/>
			<path class="st8" d="M928,759.2c0,0-11.3,23.9-17.2,30.3l-4.5-22.9L928,759.2z"/>
			<line class="st7" x1="923" y1="844.1" x2="946.3" y2="825"/>
			<line class="st7" x1="923" y1="853" x2="893.8" y2="833.7"/>
			<line class="st7" x1="937.6" y1="832.2" x2="942.5" y2="816.7"/>
			<line class="st7" x1="919.9" y1="874" x2="948.7" y2="851.1"/>
			<path class="st7" d="M922.1,891.6c-0.3-0.4-31.6-22-31.6-22"/>
			<line class="st7" x1="913.4" y1="885.3" x2="908.4" y2="862.8"/>
			<path class="st8" d="M960.6,865.3c-25.3,11.1-52.8,17.2-79.1,9.9c2.9,10.6,7.3,18.6,12.2,24.7c9.3-4.8,19.2-8.1,29.4-7.5
				c-8.1,5.6-17.3,8.8-26.7,10.8c11.3,12.2,23.7,14.8,23.7,14.8s23.4-2,35.2-32.1c-5.4,1-10.9,0.9-16.2-0.5
				c6.6-0.6,12.5-3.4,18.4-5.7C958.8,875.4,959.8,870.6,960.6,865.3z"/>
			<path class="st8" d="M957.1,804.1c-8,6-17.5,9.7-28,10.2c10.2-2.3,19.1-6.8,27.5-12.1c-1.8-6.4-4-12.1-6.4-17.1
				c-14.5,17.4-35.9,28.7-59.1,28.2c20.6-9.6,37-24.2,53-39.3c-10.3-16.2-21.1-22.6-21.1-22.6s-44.9,23.3-44.9,95.9
				c0,9.9,1.1,18.4,2.9,25.7c27.4,2,54.6-3.5,80.3-13.1c0.5-4.8,0.8-10.1,0.8-15.7C962.1,828.6,960.1,815.3,957.1,804.1z M908,829.4
				c-3-0.5-6-0.9-8.9-1.1C902,828.5,905,828.9,908,829.4c-2.9-2.9-5.6-5.9-7.9-9.1C902.4,823.5,905.1,826.6,908,829.4
				c15.2,2.7,30.2,10.1,41.1,20.9C933.3,848,918.8,840,908,829.4z M945.4,821c-1.1-0.3-2.3-0.5-3.4-0.7
				C943.2,820.5,944.3,820.8,945.4,821c-0.8-0.6-1.6-1.2-2.4-1.7C943.9,819.8,944.7,820.4,945.4,821c5.1,1.2,10.4,3.3,13.6,7.3
				C953.2,828.4,949.4,824.2,945.4,821z"/>
		</g>
		<g>
			<path class="st3" d="M1335.3,954.1c0,2.3,1.9,4.2,4.2,4.2h3.3c2.3,0,4.2-1.9,4.2-4.2v-157c-3.6,2.7-7.6,4.9-11.8,6.7v150.3
				H1335.3z"/>
			<path class="st3" d="M1335.3,799c3.7-2.3,7.7-4.4,11.8-6.4v-66.3c-3.9,1.3-7.8,2.6-11.8,4V799z"/>
			<path class="st3" d="M1342.8,720.8h-3.3c-2.3,0-4.2,1.9-4.2,4.2v0.1c2.8-1.5,5.7-2.8,8.5-4.2
				C1343.5,720.9,1343.2,720.8,1342.8,720.8z"/>
			<path class="st3" d="M1343.8,720.9c-2.9,1.3-5.7,2.7-8.5,4.2v5.2c3.9-1.3,7.9-2.6,11.8-4V725C1347,723,1345.6,721.4,1343.8,720.9
				z"/>
			<path class="st3" d="M1335.3,799v4.9c4.2-1.8,8.1-4.1,11.8-6.7v-4.5C1343,794.7,1339,796.7,1335.3,799z"/>
			<line class="st9" x1="1342" y1="720.8" x2="1342" y2="838.2"/>
			<path class="st10" d="M1342.2,767.2c1-0.2,15.7-17,15.7-17"/>
			<line class="st10" x1="1342" y1="793.5" x2="1313.8" y2="768.8"/>
			<line class="st9" x1="1342" y1="742.1" x2="1330.2" y2="726.8"/>
			<path class="st10" d="M1323.1,777c-0.6-0.6-3.4-21.9-3.4-21.9"/>
			<path class="st8" d="M1346.6,747.9c3.4,6.8,5.7-15.5,6.5-23.6c-4,1.4-8.1,2.8-12.1,4.1C1342.5,735.7,1344.5,743.8,1346.6,747.9z"
				/>
			<path class="st8" d="M1338.2,714.6c0.2,1,0.7,4.2,1.5,8.3c2.7-1.3,5.4-2.6,8.1-3.7C1344.3,717.5,1339.9,715.4,1338.2,714.6z"/>
			<path class="st8" d="M1337.6,714.3c0,0,0.2,0.1,0.7,0.3c0-0.2-0.1-0.3-0.1-0.3H1337.6z"/>
			<path class="st8" d="M1329.8,751.4c3.1-4.2,7.8-14.5,11.5-23.2c-4.8,1.6-9.6,3.2-14.4,4.8L1329.8,751.4z"/>
			<path class="st8" d="M1347,714.3l-21.7,9.1l1,6.6c5.9-3.3,11.9-6.5,18.1-9.3C1346,716.8,1347,714.3,1347,714.3z"/>
			<line class="st10" x1="1342" y1="818.3" x2="1365.3" y2="795"/>
			<line class="st10" x1="1342" y1="829.3" x2="1312.8" y2="805.6"/>
			<line class="st10" x1="1356.6" y1="803.7" x2="1361.5" y2="784.8"/>
			<line class="st10" x1="1338.9" y1="855" x2="1367.7" y2="826.9"/>
			<path class="st10" d="M1341.1,876.6c-0.3-0.5-31.6-27-31.6-27"/>
			<line class="st10" x1="1332.4" y1="868.8" x2="1327.4" y2="841.2"/>
			<path class="st8" d="M1342,704.9c0,0-13.5,8.6-25.6,30.9c11.9-7.2,24.1-13.9,37-18.9C1346.9,708.4,1342,704.9,1342,704.9z"/>
			<path class="st8" d="M1315.7,737.1c-7.9,14.8-15.1,35.5-17.6,63.3c24.6-17,49-34.9,70.8-55.1c-3.6-9.3-7.6-16.7-11.4-22.6
				C1343.7,727.7,1329.4,732.1,1315.7,737.1z"/>
			<path class="st8" d="M1312.3,886.2c12,18.9,26.8,22.7,26.8,22.7s17.5-1.9,29.9-26.3C1350.1,884.9,1331.2,886.6,1312.3,886.2z"/>
			<path class="st8" d="M1370.6,879.2c6-13.3,10.5-32.6,10.5-60.6c0-29.4-4.6-52.1-10.7-69.1c-18.6,24-44.2,43.7-72.7,55.2
				c-0.4,5.6-0.6,11.5-0.6,17.7c0,3.4,0.1,6.7,0.3,9.8c21.2-8.5,43.2-14.2,65.7-14.9c-21,5-41,14-61,21c-1.4,0.5-2.8,0.9-4.2,1.4
				c1.8,18.9,6.6,32.7,12.3,42.8C1330.3,877.9,1350.9,874.5,1370.6,879.2z M1359.1,786.4c-0.5,0.3-0.9,0.5-1.4,0.8
				c-8.2,9.9-19.7,17-32.6,20.2c8.6-9.6,21-13.7,32.6-20.2c2-2.4,3.8-5,5.4-7.8c-1.6,2.8-3.4,5.4-5.4,7.8
				C1358.1,786.9,1358.6,786.6,1359.1,786.4z"/>
		</g>
		<g>
			<path class="st3" d="M1408.5,958.3h-3.3c-2.3,0-4.2-1.9-4.2-4.2V748c0-2.3,1.9-4.2,4.2-4.2h3.3c2.3,0,4.2,1.9,4.2,4.2v206.1
				C1412.7,956.4,1410.8,958.3,1408.5,958.3z"/>
			<line class="st11" x1="1407.6" y1="743.8" x2="1407.6" y2="849.8"/>
			<path class="st12" d="M1407.9,785.6c1-0.1,15.7-15.4,15.7-15.4"/>
			<line class="st12" x1="1407.6" y1="809.5" x2="1379.5" y2="787.1"/>
			<line class="st11" x1="1407.6" y1="763" x2="1395.9" y2="749.2"/>
			<path class="st12" d="M1388.8,794.5c-0.6-0.5-3.4-19.8-3.4-19.8"/>
			<line class="st12" x1="1407.6" y1="831.8" x2="1431" y2="810.7"/>
			<line class="st12" x1="1407.6" y1="841.7" x2="1378.5" y2="820.4"/>
			<line class="st12" x1="1422.2" y1="818.7" x2="1427.2" y2="801.6"/>
			<line class="st12" x1="1404.6" y1="865" x2="1433.4" y2="839.6"/>
			<path class="st12" d="M1406.8,884.5c-0.3-0.4-31.6-24.4-31.6-24.4"/>
			<line class="st12" x1="1398" y1="877.5" x2="1393.1" y2="852.5"/>
			<path class="st8" d="M1418.1,739.1c-5.9-6.9-10.4-9.8-10.4-9.8s-10.5,6-21.3,21.3"/>
			<path class="st8" d="M1436.1,769.7c-4.4,17.9-21.2,31.8-36,41.7c13.6-14.5,23.9-30.6,33.8-46.8c-4.6-10.3-9.7-18-14.3-23.5
				c-9.4,6-20,10.4-30.6,14.4c-2,0.5-4.1,0.5-5.7-0.3c-7.4,11.7-14.6,27.9-18.2,49.6c19.3-7.4,36.6-20.1,53.9-30.3
				c-15.6,12.5-33.7,28.7-54.3,32.8c-1.3,8.6-2.1,18.1-2.1,28.4c0,25.3,5.8,42.6,13,54.3c12.4-14.6,26.8-27.7,44.3-34.5
				c-13,13.7-27.7,25.7-42.8,36.8c12.1,17.9,27.5,21.4,27.5,21.4s42-4,42-81.5C1446.7,805.5,1442.1,785.1,1436.1,769.7z"/>
		</g>
		<g>
			<path class="st8" d="M1467.1,729.4c0,0,39.1,25.3,39.1,102.7s-42,81.5-42,81.5s-42-9.8-42-78.1
				C1422.2,755.2,1467.1,729.4,1467.1,729.4z"/>
			<path class="st3" d="M1468,958.3h-3.3c-2.3,0-4.2-1.9-4.2-4.2V748c0-2.3,1.9-4.2,4.2-4.2h3.3c2.3,0,4.2,1.9,4.2,4.2v206.1
				C1472.2,956.4,1470.3,958.3,1468,958.3z"/>
			<line class="st11" x1="1467.1" y1="743.8" x2="1467.1" y2="849.8"/>
			<path class="st12" d="M1467.4,785.6c1-0.1,15.7-15.4,15.7-15.4"/>
			<line class="st12" x1="1467.1" y1="809.5" x2="1439" y2="787.1"/>
			<line class="st11" x1="1467.1" y1="763" x2="1455.4" y2="749.2"/>
			<path class="st12" d="M1448.3,794.5c-0.6-0.5-3.4-19.8-3.4-19.8"/>
			<path class="st8" d="M1463.4,737.9c0,0,4.2,22.8,8.4,30.3s6.6-24.3,6.8-23.9c0.1,0.4-15.8-6.5-15.8-6.5"/>
			<path class="st8" d="M1472.2,737.9c0,0-11.3,26.5-17.2,33.6l-4.5-25.4L1472.2,737.9z"/>
			<line class="st12" x1="1467.1" y1="831.8" x2="1490.5" y2="810.7"/>
			<line class="st12" x1="1467.1" y1="841.7" x2="1438" y2="820.4"/>
			<line class="st12" x1="1481.7" y1="818.7" x2="1486.7" y2="801.6"/>
			<line class="st12" x1="1464.1" y1="865" x2="1492.9" y2="839.6"/>
			<path class="st12" d="M1466.3,884.5c-0.3-0.4-31.6-24.4-31.6-24.4"/>
			<line class="st12" x1="1457.5" y1="877.5" x2="1452.6" y2="852.5"/>
		</g>
		<g>
			<path class="st8" d="M1512.1,704.9c0,0,39.1,28,39.1,113.7s-42,90.2-42,90.2s-42-10.8-42-86.4
				C1467.2,733.5,1512.1,704.9,1512.1,704.9z"/>
			<path class="st3" d="M1512.9,958.3h-3.3c-2.3,0-4.2-1.9-4.2-4.2V725c0-2.3,1.9-4.2,4.2-4.2h3.3c2.3,0,4.2,1.9,4.2,4.2v229
				C1517.1,956.4,1515.3,958.3,1512.9,958.3z"/>
			<line class="st9" x1="1512.1" y1="720.8" x2="1512.1" y2="838.2"/>
			<path class="st10" d="M1512.3,767.2c1-0.2,15.7-17,15.7-17"/>
			<line class="st10" x1="1512.1" y1="793.5" x2="1483.9" y2="768.8"/>
			<line class="st9" x1="1512.1" y1="742.1" x2="1500.3" y2="726.8"/>
			<path class="st10" d="M1493.2,777c-0.6-0.6-3.4-21.9-3.4-21.9"/>
			<path class="st8" d="M1508.3,714.3c0,0,4.2,25.3,8.4,33.6s6.6-26.9,6.8-26.4s-15.8-7.1-15.8-7.1"/>
			<path class="st8" d="M1517.1,714.3c0,0-11.3,29.3-17.2,37.2l-4.5-28.1L1517.1,714.3z"/>
			<line class="st10" x1="1512.1" y1="818.3" x2="1535.4" y2="795"/>
			<line class="st10" x1="1512.1" y1="829.3" x2="1482.9" y2="805.6"/>
			<line class="st10" x1="1526.7" y1="803.7" x2="1531.6" y2="784.8"/>
			<line class="st10" x1="1509" y1="855" x2="1537.8" y2="826.9"/>
			<path class="st10" d="M1511.3,876.6c-0.3-0.5-31.6-27-31.6-27"/>
			<line class="st10" x1="1502.5" y1="868.8" x2="1497.5" y2="841.2"/>
		</g>
		<g>
			<path class="st3" d="M1582.8,765.9V748c0-2.3-1.9-4.2-4.2-4.2h-3.3c-2.3,0-4.2,1.9-4.2,4.2v17.4
				C1575,765.2,1578.9,765.4,1582.8,765.9z"/>
			<path class="st3" d="M1571,766.9v187.2c0,2.3,1.9,4.2,4.2,4.2h3.3c2.3,0,4.2-1.9,4.2-4.2V766.6C1579,766.8,1575,766.9,1571,766.9
				z"/>
			<path class="st3" d="M1582.8,765.9c-3.9-0.5-7.8-0.6-11.8-0.5v1.5c4,0,7.9,0,11.8-0.3V765.9z"/>
			<line class="st11" x1="1577.7" y1="743.8" x2="1577.7" y2="849.8"/>
			<path class="st12" d="M1578,785.6c1-0.1,15.7-15.4,15.7-15.4"/>
			<line class="st12" x1="1577.7" y1="809.5" x2="1549.6" y2="787.1"/>
			<line class="st11" x1="1577.7" y1="763" x2="1566" y2="749.2"/>
			<path class="st12" d="M1558.9,794.5c-0.6-0.5-3.4-19.8-3.4-19.8"/>
			<line class="st12" x1="1577.7" y1="831.8" x2="1601.1" y2="810.7"/>
			<line class="st12" x1="1577.7" y1="841.7" x2="1548.6" y2="820.4"/>
			<line class="st12" x1="1592.3" y1="818.7" x2="1597.3" y2="801.6"/>
			<line class="st12" x1="1574.7" y1="865" x2="1603.5" y2="839.6"/>
			<path class="st12" d="M1576.9,884.5c-0.3-0.4-31.6-24.4-31.6-24.4"/>
			<line class="st12" x1="1568.1" y1="877.5" x2="1563.2" y2="852.5"/>
			<path class="st8" d="M1541,781.5c-1.8,5.2-3.3,10.9-4.6,17.1c8-6.7,16.8-12,26.3-16.2C1555.5,782.6,1548.3,782.3,1541,781.5z"/>
			<path class="st8" d="M1562.7,782.4c-9.4,4.1-18.3,9.5-26.3,16.2c-2.2,10.8-3.6,23.1-3.6,37c0,68.3,42,78.1,42,78.1s42-4,42-81.5
				c0-22.7-3.4-40.9-8.1-55.3C1593.5,779.5,1578.2,782,1562.7,782.4z"/>
			<path class="st8" d="M1595.9,749.4c-9.2,3.2-18.7,5.7-28.8,6.9c-4.3,0.6-10.6,2.4-15.2,1.3c-3.9,6.6-7.7,14.5-10.9,23.8
				c7.3,0.9,14.5,1.1,21.7,0.9c13.9-6.1,29-9.5,44.3-10.6C1603.6,762.7,1599.7,755.4,1595.9,749.4z M1558.8,767
				c-1.9,0.4-3.8,0.9-5.8,1.4C1555,767.8,1556.9,767.4,1558.8,767c-2.3,0.1-4.5,0.2-6.8,0.4C1554.3,767.2,1556.6,767.1,1558.8,767
				c9.1-1.9,18.2-2.3,27.2-0.6C1577.3,767.2,1567.9,766.7,1558.8,767z"/>
			<path class="st8" d="M1577.7,729.4c0,0-11.3,6.5-22.6,23.2c12.5-2.8,24.9-5.3,37.3-8C1584.5,733.8,1577.7,729.4,1577.7,729.4z"/>
		</g>
		<g>
			<path class="st3" d="M1638.1,958.3h-3.3c-2.3,0-4.2-1.9-4.2-4.2V748c0-2.3,1.9-4.2,4.2-4.2h3.3c2.3,0,4.2,1.9,4.2,4.2v206.1
				C1642.3,956.4,1640.4,958.3,1638.1,958.3z"/>
			<line class="st11" x1="1637.2" y1="743.8" x2="1637.2" y2="849.8"/>
			<path class="st12" d="M1637.5,785.6c1-0.1,15.7-15.4,15.7-15.4"/>
			<line class="st12" x1="1637.2" y1="809.5" x2="1609.1" y2="787.1"/>
			<line class="st11" x1="1637.2" y1="763" x2="1625.5" y2="749.2"/>
			<path class="st12" d="M1618.4,794.5c-0.6-0.5-3.4-19.8-3.4-19.8"/>
			<path class="st8" d="M1632.8,737.9c0,0,0.2,0.1,0.7,0.3c0-0.2-0.1-0.3-0.1-0.3H1632.8z"/>
			<path class="st8" d="M1633.5,738.1c0.1,0.5,0.3,1.8,0.7,3.6c1-0.7,2-1.4,3-2C1635.7,739.1,1634.3,738.5,1633.5,738.1z"/>
			<path class="st8" d="M1638.8,740.4c-1.4,0.8-2.9,1.5-4.5,2.1c1.5,7.1,4.5,20.3,7.5,25.7c4.1,7.4,6.5-23.3,6.7-23.9
				C1648.5,744.5,1643.3,742.3,1638.8,740.4z"/>
			<line class="st12" x1="1637.2" y1="831.8" x2="1660.6" y2="810.7"/>
			<line class="st12" x1="1637.2" y1="841.7" x2="1608.1" y2="820.4"/>
			<line class="st12" x1="1651.8" y1="818.7" x2="1656.8" y2="801.6"/>
			<line class="st12" x1="1634.2" y1="865" x2="1663" y2="839.6"/>
			<path class="st12" d="M1636.4,884.5c-0.3-0.4-31.6-24.4-31.6-24.4"/>
			<line class="st12" x1="1627.6" y1="877.5" x2="1622.7" y2="852.5"/>
			<path class="st8" d="M1610.1,763.4c-0.4-0.4-0.8-0.9-1.2-1.3c-9,16.6-16.6,40.4-16.6,73.5c0,68.3,42,78.1,42,78.1s42-4,42-81.5
				c0-16.3-1.7-30.2-4.5-42.2C1648.8,789.6,1626.4,782.5,1610.1,763.4z"/>
			<path class="st8" d="M1645.1,736.3c-3.9,3.1-8.3,5.5-13,7.1c4-3.3,8.4-5.3,12.4-7.7c-4.3-4.4-7.2-6.3-7.2-6.3s-9.5,5.5-19.8,19.2
				c9.6,12.7,24.1,21.8,38.6,25.8c4,1,8,3,12,4c0.3,0.1,0.5,0.1,0.8,0.2C1662,756.9,1652,743.5,1645.1,736.3z"/>
		</g>
		<g>
			<rect x="1443.4" y="742.2" class="st13" width="85.6" height="210.2"/>
			<rect x="1497.5" y="742.2" class="st2" width="31.5" height="210.2"/>
			<polygon class="st13" points="1486.6,612.9 1534.2,742.2 1438.9,742.2 			"/>
			<polygon class="st2" points="1486.4,612.4 1534.2,742.2 1469.9,742.2 			"/>
			<path class="st13" d="M1738.5,858.6V852c-9.2,1.7-18.3,4.2-27.1,7.2C1720.4,859.6,1729.4,859.3,1738.5,858.6z"/>
			<path class="st13" d="M1711.4,859.2c-5.6,1.9-11,4-16.4,6.1C1700.4,863.2,1705.8,861.1,1711.4,859.2c-3.8-0.2-7.6-0.4-11.4-0.9
				C1703.8,858.8,1707.6,859.1,1711.4,859.2c8.8-3,17.9-5.6,27.1-7.2v-54h-226.1v154.4h226.1v-93.8
				C1729.4,859.3,1720.4,859.6,1711.4,859.2z"/>
			<path class="st0" d="M1457,781.5h12.9v-27.7c0-1.9-1.6-3.5-3.5-3.5h-5.9c-1.9,0-3.5,1.6-3.5,3.5V781.5z"/>
			<path class="st0" d="M1707,859v1.8c1.5-0.5,3-1.1,4.4-1.6C1709.9,859.1,1708.5,859.1,1707,859z"/>
			<path class="st0" d="M1719.8,856.5v-14.6c0-1.9-1.6-3.5-3.5-3.5h-5.9c-1.9,0-3.5,1.6-3.5,3.5v17c1.5,0.1,3,0.2,4.4,0.3
				C1714.2,858.3,1717,857.4,1719.8,856.5z"/>
			<path class="st0" d="M1711.4,859.2c2.8,0.1,5.6,0.2,8.4,0.2v-2.9C1717,857.4,1714.2,858.3,1711.4,859.2z"/>
			<path class="st0" d="M1707,860.8v8.9h12.9v-10.3c-2.8,0-5.6-0.1-8.4-0.2C1709.9,859.7,1708.5,860.2,1707,860.8z"/>
			<path class="st0" d="M1675.7,869.7h12.9V842c0-1.9-1.6-3.5-3.5-3.5h-5.9c-1.9,0-3.5,1.6-3.5,3.5V869.7z"/>
			<path class="st0" d="M1644.5,869.7h12.9V842c0-1.9-1.6-3.5-3.5-3.5h-5.9c-1.9,0-3.5,1.6-3.5,3.5V869.7z"/>
			<path class="st0" d="M1613.2,869.7h12.9V842c0-1.9-1.6-3.5-3.5-3.5h-5.9c-1.9,0-3.5,1.6-3.5,3.5V869.7z"/>
			<path class="st0" d="M1582,869.7h12.9V842c0-1.9-1.6-3.5-3.5-3.5h-5.9c-1.9,0-3.5,1.6-3.5,3.5V869.7z"/>
			<path class="st0" d="M1550.8,869.7h12.9V842c0-1.9-1.6-3.5-3.5-3.5h-5.9c-1.9,0-3.5,1.6-3.5,3.5V869.7z"/>
			<path class="st0" d="M1512.2,781.5h9c0.1,0,0.2-0.1,0.2-0.2v-28.6c0-1.4-1.1-2.5-2.5-2.5h-4.2c-1.4,0-2.5,1.1-2.5,2.5V781.5z"/>
			<line class="st14" x1="1440.5" y1="790.7" x2="1530.5" y2="790.7"/>
			<line class="st14" x1="1470.8" y1="791.6" x2="1470.8" y2="900"/>
			<rect x="1479.1" y="754.1" class="st2" width="9.2" height="5.3"/>
			<rect x="1444.1" y="801.9" class="st2" width="9.2" height="5.3"/>
			<rect x="1528.7" y="877.2" class="st2" width="9.2" height="5.3"/>
			<rect x="1574.6" y="882.8" class="st2" width="9.2" height="5.3"/>
			<rect x="1657.3" y="853.4" class="st2" width="9.2" height="5.3"/>
			<rect x="1697.8" y="880.9" class="st2" width="9.2" height="5.3"/>
			<rect x="1534.2" y="858.9" class="st2" width="9.2" height="5.3"/>
			<rect x="1492" y="812.9" class="st2" width="9.2" height="5.3"/>
			<rect x="1451.5" y="730.2" class="st2" width="9.2" height="5.3"/>
			<rect x="1495.6" y="722.9" class="st13" width="9.2" height="5.3"/>
			<polygon class="st2" points="1508.5,792.5 1508.5,827.4 1744,827.4 1754.8,792.5 			"/>
			<path class="st2" d="M1737.6,858.6v95.9h28.2v-99.4C1756.4,856.7,1747,857.9,1737.6,858.6z"/>
			<path class="st2" d="M1750.1,824.4c4.6-0.9,9.3-1.8,13.8-2.9l-1.2-3.7C1758.6,820.1,1754.4,822.5,1750.1,824.4z"/>
			<path class="st2" d="M1762.7,817.7l-8-25.2l-17.2,25.7v33.9c9.4-1.8,18.8-2.6,28.2-2.1v-22.6l-1.9-6c-4.6,1.2-9.2,2.1-13.8,2.9
				C1754.4,822.5,1758.6,820.1,1762.7,817.7z"/>
			<path class="st2" d="M1765.8,850c-9.4-0.5-18.8,0.4-28.2,2.1v6.5c9.4-0.7,18.8-2,28.2-3.5V850z"/>
			<rect x="1594.8" y="812.9" class="st13" width="9.2" height="5.3"/>
			<rect x="1589.3" y="807.4" class="st13" width="9.2" height="5.3"/>
			<rect x="1703.3" y="814.8" class="st13" width="9.2" height="5.3"/>
		</g>
		<g>
			<path class="st2" d="M1683,958.3h-3.3c-2.3,0-4.2-1.9-4.2-4.2V725c0-2.3,1.9-4.2,4.2-4.2h3.3c2.3,0,4.2,1.9,4.2,4.2v229
				C1687.3,956.4,1685.4,958.3,1683,958.3z"/>
			<line class="st9" x1="1682.2" y1="720.8" x2="1682.2" y2="838.2"/>
			<path class="st10" d="M1682.5,767.2c1-0.2,15.7-17,15.7-17"/>
			<line class="st10" x1="1682.2" y1="793.5" x2="1654" y2="768.8"/>
			<line class="st9" x1="1682.2" y1="742.1" x2="1670.4" y2="726.8"/>
			<path class="st10" d="M1663.4,777c-0.6-0.6-3.4-21.9-3.4-21.9"/>
			<line class="st10" x1="1682.2" y1="818.3" x2="1705.5" y2="795"/>
			<line class="st10" x1="1682.2" y1="829.3" x2="1653" y2="805.6"/>
			<line class="st10" x1="1696.8" y1="803.7" x2="1701.7" y2="784.8"/>
			<line class="st10" x1="1679.1" y1="855" x2="1707.9" y2="826.9"/>
			<path class="st10" d="M1681.4,876.6c-0.3-0.5-31.6-27-31.6-27"/>
			<line class="st10" x1="1672.6" y1="868.8" x2="1667.6" y2="841.2"/>
			<path class="st8" d="M1682.2,704.9c0,0-10,6.4-20.5,22.4c10.2-3.9,19.9-8.5,29.3-13.7C1685.8,707.5,1682.2,704.9,1682.2,704.9z"
				/>
			<path class="st8" d="M1694.1,717.6c-10.7,6.7-22.4,11.7-34.8,13.4c-7.1,11.8-14.2,28.2-18.3,50.1c24.2-8.7,45.8-23.6,66.8-39.2
				C1703.3,731.4,1698.4,723.4,1694.1,717.6z"/>
			<path class="st8" d="M1679.3,908.8c0,0,17-1.8,29.4-25.3c-13.3,9.6-28.1,16.3-43.6,17.1C1672.9,907.2,1679.3,908.8,1679.3,908.8z
				"/>
			<path class="st8" d="M1695.1,865.4c5.3-2.2,10.8-4.2,16.4-6.1c-3.8-0.2-7.6-0.4-11.4-0.9c3.8,0.4,7.6,0.7,11.4,0.9
				c2.1-0.7,4.2-1.4,6.3-2.1c2.2-10.6,3.5-23.3,3.5-38.6c0-29.9-4.8-52.8-11-70c-18.6,19.2-42.2,36.8-66.1,38.5
				c18.8,6.9,38.5,10.4,58.9,11.2c-19.2,2.9-47,3.2-63.5-8.9c-1.4,9.9-2.3,20.9-2.3,33c0,18.8,2.6,33.6,6.5,45.2
				c16.5-7.2,34.4-11.9,52.3-14.3c-15.9,8.8-34.2,14.5-52,15.1c4.9,14.2,11.8,23.6,18.2,29.7c17.1-8.3,35-16,51.4-25.8
				c1.4-3.9,2.6-8.2,3.7-12.9c-2,0-3.9-0.1-5.8-0.2C1705.8,861.1,1700.4,863.2,1695.1,865.4z M1671.1,827.4
				c15.3-2.9,28.8-12.2,41.4-20.9c1.1-2.8,1.6-5.9,1.6-9.1c0,3.3-0.6,6.3-1.6,9.1c0.5-0.4,1.1-0.8,1.6-1.1c-0.5,0.4-1.1,0.8-1.6,1.1
				C1706.7,821.7,1687.1,829.9,1671.1,827.4z"/>
			<path class="st8" d="M1711.4,859.2c1.9,0.1,3.9,0.1,5.8,0.2c0.2-0.7,0.3-1.5,0.5-2.2C1715.6,857.8,1713.5,858.5,1711.4,859.2z"/>
		</g>
		<g>
			<path class="st3" d="M1752.9,850.2c-3.9,0.3-7.9,0.7-11.8,1.4v6.8c3.9-0.4,7.8-0.8,11.8-1.3V850.2z"/>
			<path class="st3" d="M1750.1,824.4c0.9-0.2,1.9-0.4,2.8-0.5V823C1752,823.5,1751,823.9,1750.1,824.4z"/>
			<path class="st3" d="M1752.9,823v-75c0-2.3-1.9-4.2-4.2-4.2h-3.3c-2.3,0-4.2,1.9-4.2,4.2v103.6c3.9-0.6,7.8-1.1,11.8-1.4v-26.4
				c-1,0.2-1.9,0.4-2.8,0.5C1751,823.9,1752,823.5,1752.9,823z"/>
			<path class="st3" d="M1741.1,858.4v95.7c0,2.3,1.9,4.2,4.2,4.2h3.3c2.3,0,4.2-1.9,4.2-4.2v-97
				C1749,857.5,1745.1,858,1741.1,858.4z"/>
			<line class="st11" x1="1747.8" y1="743.8" x2="1747.8" y2="849.8"/>
			<path class="st12" d="M1748.1,785.6c1-0.1,15.7-15.4,15.7-15.4"/>
			<line class="st12" x1="1747.8" y1="809.5" x2="1719.7" y2="787.1"/>
			<line class="st11" x1="1747.8" y1="763" x2="1736.1" y2="749.2"/>
			<path class="st12" d="M1729,794.5c-0.6-0.5-3.4-19.8-3.4-19.8"/>
			<path class="st8" d="M1752.9,737.9c0,0-11.3,26.5-17.2,33.6l-4.5-25.4L1752.9,737.9z"/>
			<line class="st12" x1="1747.8" y1="831.8" x2="1771.2" y2="810.7"/>
			<line class="st12" x1="1747.8" y1="841.7" x2="1718.7" y2="820.4"/>
			<line class="st12" x1="1762.5" y1="818.7" x2="1767.4" y2="801.6"/>
			<line class="st12" x1="1744.8" y1="865" x2="1773.6" y2="839.6"/>
			<path class="st12" d="M1747,884.5c-0.3-0.4-31.6-24.4-31.6-24.4"/>
			<line class="st12" x1="1738.2" y1="877.5" x2="1733.3" y2="852.5"/>
			<path class="st8" d="M1747.8,729.4c0,0-33.2,19.1-42.5,75.4c21.2-17.2,41.1-36,61-54.7C1757,735.3,1747.8,729.4,1747.8,729.4z"/>
			<path class="st8" d="M1785.3,805.8c-2.4-18.1-7-32.5-12.3-43.6c-4.3,4.7-8.4,9.4-12,14.2c-15.7,19.9-35.4,37.3-57.9,48.8
				c-0.2,3.3-0.3,6.8-0.3,10.4c0,8.7,0.7,16.4,1.9,23.3c2.2,0.2,4.4,0.3,6.6,0.4c22.8-7.8,47.4-12.5,70.6-6.9
				c-23.2,4.3-47.2,7.9-70.6,6.9c-2.1,0.7-4.1,1.4-6.1,2.2c8.8,45,39.7,52.2,39.7,52.2s42-4,42-81.5c0-7.2-0.3-13.8-1-20.1
				c-9.7,7.2-23.2,10-35.9,12.4C1762,819.2,1772.8,810.6,1785.3,805.8z"/>
			<path class="st8" d="M1704.8,858.8c0.1,0.9,0.3,1.7,0.5,2.6c2-0.7,4.1-1.5,6.1-2.2C1709.2,859.1,1707,859,1704.8,858.8z"/>
		</g>
		<g>
			<path class="st3" d="M1808.2,958.3h-3.3c-2.3,0-4.2-1.9-4.2-4.2V748c0-2.3,1.9-4.2,4.2-4.2h3.3c2.3,0,4.2,1.9,4.2,4.2v206.1
				C1812.4,956.4,1810.5,958.3,1808.2,958.3z"/>
			<line class="st11" x1="1807.3" y1="743.8" x2="1807.3" y2="849.8"/>
			<path class="st12" d="M1807.6,785.6c1-0.1,15.7-15.4,15.7-15.4"/>
			<line class="st12" x1="1807.3" y1="809.5" x2="1779.2" y2="787.1"/>
			<line class="st11" x1="1807.3" y1="763" x2="1795.6" y2="749.2"/>
			<path class="st12" d="M1788.5,794.5c-0.6-0.5-3.4-19.8-3.4-19.8"/>
			<line class="st12" x1="1807.3" y1="831.8" x2="1830.7" y2="810.7"/>
			<line class="st12" x1="1807.3" y1="841.7" x2="1778.2" y2="820.4"/>
			<line class="st12" x1="1822" y1="818.7" x2="1826.9" y2="801.6"/>
			<line class="st12" x1="1804.3" y1="865" x2="1833.1" y2="839.6"/>
			<path class="st12" d="M1806.5,884.5c-0.3-0.4-31.6-24.4-31.6-24.4"/>
			<line class="st12" x1="1797.7" y1="877.5" x2="1792.8" y2="852.5"/>
			<path class="st8" d="M1807.3,729.4c0,0-6.6,3.8-14.8,13c15.8,15.8,28.4,35,33.5,57c-15.2-16.1-21.6-36.9-34.2-56.2
				c-11.3,13.1-25.2,36.4-28.6,74.2c9.8-5.7,19.6-12,31.1-14.3c2.1-3.3,3.7-7.2,4.7-11.7c-0.9,4.6-2.5,8.4-4.7,11.7
				c1.5-0.3,3.1-0.6,4.7-0.7c-1.6,0.2-3.1,0.4-4.7,0.7c-6.7,10.6-18.7,15.4-31.5,18.6c-0.3,4.4-0.5,9.1-0.5,13.9
				c0,5.1,0.2,9.9,0.7,14.4c6.4,0.2,12.7,0.9,18.9,2.4c-6,1.1-12.1,2.2-18.3,3.1c2.8,19.3,9.4,32.4,16.5,41.1
				c9.9-12.9,23.3-24.5,38.8-25.3c-12.1,9.9-23.1,20.3-35.7,28.8c10.5,11,21,13.5,21,13.5s42-4,42-81.5S1807.3,729.4,1807.3,729.4z"
				/>
			<path class="st8" d="M1763.1,849.9c0.2,1.9,0.4,3.8,0.7,5.6c6.1-1,12.2-2,18.3-3.1C1775.8,850.9,1769.5,850.1,1763.1,849.9z"/>
		</g>
		<path class="st8" d="M860.1,695c0,0-17.8,12.9-30.1,48.2c16.1-7.4,30.8-17.5,44.9-28.5C867.1,700.7,860.1,695,860.1,695z"/>
		<path class="st8" d="M857.4,909c0,0,16.2-2,27.6-27.8c-18.8-6.8-39-9.1-59-11.4C837.2,903.1,857.4,909,857.4,909z"/>
		<path class="st8" d="M893.1,826.4c-2.9,2.6-5.8,5.6-8.7,8.6C887.4,832.2,890.3,829.3,893.1,826.4z"/>
		<path class="st8" d="M891.2,761.2c-5,4.1-11.7,6.2-18.1,5.1c6.8-0.6,12.4-3.9,17.6-7.7c-0.8-3.8-1.7-7.5-2.7-10.9
			c-11.7,12.2-29.3,19.2-45.9,21.6c16.8-5.4,31.4-14.8,44.9-25.3c-2-6.8-4.2-12.8-6.5-18c-15.1,10.6-33.7,17.5-51.9,21.6
			c-1.2,3.9-2.4,8.2-3.5,12.6c7.7-3.8,15.3-6.5,23-9.9c-7.1,4.7-14.8,8.2-23.1,10.4c-3.7,15.7-6.2,34.7-6.2,57.5c0,0.3,0,0.6,0,1
			c14.9-4.1,30.9-4.5,46.3-5.9c-14.8,5.6-30.6,9.3-46.3,9.9c0.3,15.4,2.1,28.2,4.9,38.6c8.3-0.8,16.8-0.9,25.2-0.3
			c12.8-7.6,24.7-16.4,35.6-26.6c2.9-3,5.7-5.9,8.7-8.6c-2.8,3-5.7,5.8-8.7,8.6c-8.6,9.1-17,19.4-26.5,27.6
			c10.8,1.5,21.3,4.4,30.9,8.8c4.3-13.6,7.3-32,7.3-57C896.1,793.5,894.1,775.9,891.2,761.2z M828.1,785.4c2.5-1.2,5.1-2.3,7.7-3.4
			c-2.2-0.4-4.5-0.9-6.7-1.6c2.2,0.7,4.4,1.2,6.7,1.6c13-5.6,27.2-9.7,41.3-5.6c-12.9,4.3-27.4,7.9-41.3,5.6
			C833.1,783,830.6,784.2,828.1,785.4z M850.1,798.9c-2.1,0.7-4.1,1.6-6.1,2.5C846,800.4,848.1,799.6,850.1,798.9
			c-3.1-0.1-6.1-0.3-9.1-0.5C844.1,798.5,847.1,798.7,850.1,798.9c13.6-4.9,29-6,42.9-2.5C879.1,799.7,864.4,799.6,850.1,798.9z"/>
		<g>
			<path class="st3" d="M1846.1,870.4c4-1.1,7.8-2.4,11.3-4.1v-2.2C1853.7,866.4,1850,868.4,1846.1,870.4z"/>
			<path class="st3" d="M1857.4,783.4v-5.3c-3.1-0.7-6.2-1.3-9.3-1.9C1850.4,779.3,1853.7,781.7,1857.4,783.4z"/>
			<path class="st3" d="M1845.6,771.8v4c0.8,0.1,1.6,0.3,2.5,0.4C1847.1,774.9,1846.2,773.4,1845.6,771.8z"/>
			<path class="st3" d="M1857.4,783.4c-3.7-1.7-6.9-4-9.3-7.2c-0.8-0.1-1.6-0.3-2.5-0.4v178.3c0,2.3,1.9,4.2,4.2,4.2h3.3
				c2.3,0,4.2-1.9,4.2-4.2v-87.8c-3.5,1.7-7.3,3-11.3,4.1c3.9-1.9,7.7-4,11.3-6.3v-80.7H1857.4z"/>
			<path class="st3" d="M1857.4,778.1v-53c0-2.3-1.9-4.2-4.2-4.2h-3.3c-2.3,0-4.2,1.9-4.2,4.2v46.8c0.6,1.6,1.5,3.1,2.5,4.4
				C1851.2,776.7,1854.3,777.3,1857.4,778.1z"/>
			<line class="st9" x1="1852.3" y1="720.8" x2="1852.3" y2="838.2"/>
			<path class="st10" d="M1852.6,767.2c1-0.2,15.7-17,15.7-17"/>
			<line class="st10" x1="1852.3" y1="793.5" x2="1824.1" y2="768.8"/>
			<line class="st9" x1="1852.3" y1="742.1" x2="1840.5" y2="726.8"/>
			<path class="st10" d="M1833.5,777c-0.6-0.6-3.4-21.9-3.4-21.9"/>
			<line class="st10" x1="1852.3" y1="818.3" x2="1875.6" y2="795"/>
			<line class="st10" x1="1852.3" y1="829.3" x2="1823.1" y2="805.6"/>
			<line class="st10" x1="1866.9" y1="803.7" x2="1871.8" y2="784.8"/>
			<line class="st10" x1="1849.3" y1="855" x2="1878" y2="826.9"/>
			<path class="st10" d="M1851.5,876.6c-0.3-0.5-31.6-27-31.6-27"/>
			<line class="st10" x1="1842.7" y1="868.8" x2="1837.7" y2="841.2"/>
			<path class="st8" d="M1877.4,741.1c-15.1,14.6-35.8,23-57.4,26.3c20.7-6.1,38.5-17.6,56-29.3c-2.6-5.7-5.3-10.6-7.9-14.7
				c-11.3,1.9-23.1,2.1-34.8,1.6c-11.1,16-23.4,42.7-25.6,84.1c21.3-5.5,43.5-7.7,65.3-7.7c-3.1,2.4-6.1,5.1-9.1,7.9
				c8.9-5.3,17.6-10.9,26.1-16.8C1887.9,770.9,1883,754,1877.4,741.1z M1848.1,776.2c-1.7-0.3-3.3-0.6-5-0.8
				C1844.7,775.6,1846.4,775.9,1848.1,776.2c-1.3-1.7-2.3-3.6-3-5.8C1845.7,772.6,1846.8,774.5,1848.1,776.2
				c10.5,1.8,21.4,4.3,30,11.2C1867.3,787.4,1854.4,784.6,1848.1,776.2z"/>
			<path class="st8" d="M1864,717.3c-6.5-8.8-11.7-12.4-11.7-12.4s-8.6,5.5-18.2,19C1843.7,719.7,1854.4,716.6,1864,717.3z"/>
			<path class="st8" d="M1846.1,870.4c12.3-3.3,23.2-9.2,27.9-20.1C1866.3,859.1,1856.6,865.1,1846.1,870.4z"/>
			<path class="st8" d="M1890.7,799.3c-16.1,13.3-34.3,24-53.6,34c-9.5,5.4-19,8.2-28.5,9.4c6.7,57.3,40.9,66.1,40.9,66.1
				s42-4.4,42-90.2C1891.4,811.8,1891.1,805.4,1890.7,799.3z M1874,850.3c-4.7,10.8-15.6,16.8-27.9,20.1L1874,850.3
				c1-2.4,1.8-5,2.1-7.9C1875.7,845.3,1875,847.9,1874,850.3c1.1-1.2,2.1-2.6,3.1-3.9C1876.1,847.7,1875,849,1874,850.3z
				 M1858.1,848.4c8.6-8.6,12.6-19.9,19.1-30.5c0-1.2,0-2.3-0.1-3.5c0.1,1.1,0.1,2.3,0.1,3.5c0.3-0.5,0.6-1,0.9-1.5
				c-0.3,0.5-0.6,1-0.9,1.5C1877,830.1,1870.8,843.8,1858.1,848.4z"/>
		</g>
		<g>
			<path class="st3" d="M1918.8,958.3h-3.3c-2.3,0-4.2-1.9-4.2-4.2V748c0-2.3,1.9-4.2,4.2-4.2h3.3c2.3,0,4.2,1.9,4.2,4.2v206.1
				C1923,956.4,1921.1,958.3,1918.8,958.3z"/>
			<line class="st11" x1="1918" y1="743.8" x2="1918" y2="849.8"/>
			<path class="st12" d="M1918.2,785.6c1-0.1,15.7-15.4,15.7-15.4"/>
			<line class="st12" x1="1918" y1="809.5" x2="1889.8" y2="787.1"/>
			<line class="st11" x1="1918" y1="763" x2="1906.2" y2="749.2"/>
			<path class="st12" d="M1899.1,794.5c-0.6-0.5-3.4-19.8-3.4-19.8"/>
			<line class="st12" x1="1918" y1="831.8" x2="1941.3" y2="810.7"/>
			<line class="st12" x1="1918" y1="841.7" x2="1888.8" y2="820.4"/>
			<line class="st12" x1="1914.9" y1="865" x2="1943.7" y2="839.6"/>
			<path class="st12" d="M1917.1,884.5c-0.3-0.4-31.6-24.4-31.6-24.4"/>
			<line class="st12" x1="1908.4" y1="877.5" x2="1903.4" y2="852.5"/>
			<path class="st8" d="M1918,729.4c0,0-3.8,2.2-9.2,7.3c6.3,0.7,12.6,1.3,19,1.6C1922.1,732,1918,729.4,1918,729.4z"/>
			<path class="st8" d="M1903.6,742c-1.2,1.3-2.4,2.8-3.7,4.4c12.3,34.1,27.6,67.7,57.1,87.2c0-0.5,0-1,0-1.5
				c0-43.2-12.1-70.1-22.9-85.5C1923,750.5,1912.2,751.3,1903.6,742z"/>
			<path class="st8" d="M1889.7,761.9c-9,16.6-16.6,40.5-16.6,73.6c0,5.3,0.3,10.3,0.7,14.9c0.1-0.1,0.1-0.1,0.2-0.2
				c1-2.4,1.8-5,2.1-7.9c-0.4,2.9-1.1,5.5-2.1,7.9c1.1-1.2,2.1-2.6,3.1-3.9c-1,1.4-2,2.7-3.1,3.9c0,0.1-0.1,0.2-0.1,0.3
				c0.8,7.8,2.2,14.7,4.1,20.7c16.6-10,31.1-22.9,42.2-39c-7.8,18.6-20.2,40.3-37.3,51.4c12.4,25.2,32.3,29.8,32.3,29.8
				s40.1-3.9,41.9-76.4C1927.5,819.1,1905.8,792.8,1889.7,761.9z"/>
			<path class="st8" d="M1873.8,850.5c0,0.1,0,0.1,0,0.2C1873.9,850.6,1873.9,850.5,1873.8,850.5
				C1873.9,850.3,1873.8,850.4,1873.8,850.5z"/>
		</g>
		<g>
			<path class="st3" d="M799.8,960.1h-0.4c-2.3,0-4.2-1.9-4.2-4.2l-0.7-194.4c0-2.3,1.9-4.2,4.2-4.2h0.4c2.3,0,4.2,1.9,4.2,4.2
				l0.7,194.4C804,958.2,802.1,960.1,799.8,960.1z"/>
			<line class="st15" x1="799.5" y1="757.3" x2="799.9" y2="857.5"/>
			<path class="st16" d="M799.8,796.9c0.7-0.1,11.7-14.6,11.7-14.6"/>
			<line class="st16" x1="799.7" y1="819.4" x2="778.6" y2="798.4"/>
			<line class="st15" x1="799.6" y1="775.4" x2="790.7" y2="762.5"/>
			<path class="st16" d="M785.6,805.3c-0.5-0.5-2.6-18.7-2.6-18.7"/>
			<line class="st16" x1="799.8" y1="840.6" x2="817.2" y2="820.6"/>
			<line class="st16" x1="799.8" y1="849.9" x2="777.9" y2="829.8"/>
			<line class="st16" x1="810.7" y1="828.1" x2="814.3" y2="811.9"/>
			<line class="st16" x1="797.6" y1="871.9" x2="819.1" y2="847.8"/>
			<path class="st16" d="M799.4,890.4c-0.2-0.4-23.8-23-23.8-23"/>
			<line class="st16" x1="792.8" y1="883.7" x2="788.9" y2="860.2"/>
			<path class="st8" d="M799.5,743.7c0,0-4.9,3.6-10.9,12.2c5.7-2.3,11.5-4.5,17.3-5.1C802.1,745.8,799.5,743.7,799.5,743.7z"/>
			<path class="st8" d="M816.6,769.9c-2.3-5.3-4.6-9.7-6.8-13.3c-7.7,2.3-16,4.1-23.4,2.5c-2.6,4.2-5.4,9.3-8,15.4
				c8.7-1.7,17.5-1.9,26.7-0.2c-9.1,3-18.6,3.9-28.2,3.8c-2.8,7.3-5.4,15.8-7.3,25.9C787.1,795.6,802.6,783.3,816.6,769.9z"/>
			<path class="st8" d="M817.3,771.7c-13,14.5-29.3,27.2-47.7,32.6c-2.1,11.4-3.5,24.6-3.4,39.9c0.2,64.6,31.7,73.7,31.7,73.7
				s31.5-3.9,31.2-77.2C829,809.3,823.5,786.9,817.3,771.7z"/>
		</g>
		<g>
			<path class="st8" d="M724.1,695.3c0,0,57.6,29.1,57.9,118.9S720.6,909,720.6,909s-61.8-11.1-62.1-90.3
				C658.1,725.5,724.1,695.3,724.1,695.3z"/>
			<path class="st3" d="M728.3,960.7h-8.9c-2.3,0-4.2-1.9-4.2-4.2l-0.8-240.3c0-2.3,1.9-4.2,4.2-4.2h8.9c2.3,0,4.2,1.9,4.2,4.2
				l0.8,240.3C732.5,958.8,730.6,960.7,728.3,960.7z"/>
			<line class="st17" x1="724.1" y1="712" x2="724.6" y2="835"/>
			<path class="st18" d="M724.7,760.6c1.5-0.2,23-17.9,23-17.9"/>
			<line class="st18" x1="724.4" y1="788.2" x2="682.9" y2="762.5"/>
			<line class="st17" x1="724.2" y1="734.3" x2="706.8" y2="718.4"/>
			<path class="st18" d="M696.6,771c-0.9-0.6-5.1-22.9-5.1-22.9"/>
			<path class="st8" d="M718.6,705.2c0,0,6.3,26.4,12.4,35.1c6.2,8.7,9.6-28.2,9.8-27.7s-23.2-7.4-23.2-7.4"/>
			<path class="st8" d="M731.6,705.1c0,0-16.5,30.8-25.2,39l-6.7-29.4L731.6,705.1z"/>
			<line class="st18" x1="724.5" y1="814.2" x2="758.8" y2="789.6"/>
			<line class="st18" x1="724.5" y1="825.6" x2="681.6" y2="801"/>
			<line class="st18" x1="745.9" y1="798.8" x2="753.1" y2="778.9"/>
			<line class="st18" x1="720.2" y1="852.6" x2="762.4" y2="823"/>
			<path class="st18" d="M723.5,875.2c-0.4-0.5-46.6-28.1-46.6-28.1"/>
			<line class="st18" x1="710.5" y1="867.1" x2="703.1" y2="838.2"/>
		</g>
		<g id="Calque_13">
			<g>
				<path class="st13" d="M644.5,912.8c9.5-0.6,19.3,0,28.5-1.4C663.4,909.4,653.7,910,644.5,912.8z"/>
				<path class="st13" d="M622,741.9V957h150.6V741.9H622z M630.1,919.4c4.6-2.8,9.5-5,14.5-6.6c-3.9,0.2-7.7,0.7-11.5,1.6
					c3.8-0.9,7.6-1.3,11.5-1.6c9.2-2.8,18.8-3.4,28.5-1.4c-9.2,1.4-19,0.8-28.5,1.4C639.5,914.3,634.7,916.5,630.1,919.4z"/>
				<path class="st2" d="M644.5,912.8c6.3-0.4,12.8-0.3,19.1-0.6v-2C657.1,910,650.7,910.9,644.5,912.8z"/>
				<path class="st2" d="M644.5,912.8c-5,1.5-9.9,3.7-14.5,6.6C634.7,916.5,639.5,914.3,644.5,912.8c-3.9,0.2-7.7,0.7-11.5,1.6
					C636.8,913.5,640.7,913.1,644.5,912.8c6.2-1.9,12.6-2.8,19.1-2.5V741.9H622V957h41.6v-44.8C657.3,912.5,650.9,912.4,644.5,912.8
					z"/>
				<polygon class="st13" points="695.7,675.9 618,741.9 773.3,741.9 				"/>
				<polygon class="st2" points="695.7,675.9 618,741.9 663.6,741.9 				"/>
				<polygon class="st13" points="673.2,707.2 654,721 654,669 673.2,669 				"/>
				<polygon class="st2" points="663.6,714.1 654,721 654,669 663.6,669 				"/>
				<ellipse class="st0" cx="710.1" cy="715.8" rx="8" ry="8.7"/>
				<rect x="679.6" y="773.1" class="st0" width="21.6" height="41.6"/>
				<rect x="628.4" y="773.1" class="st0" width="9.6" height="41.6"/>
				<line class="st19" x1="660.4" y1="741.9" x2="769.3" y2="741.9"/>
				<line class="st20" x1="690.9" y1="773.1" x2="690.9" y2="814.7"/>
				<line class="st20" x1="679.6" y1="787" x2="702.1" y2="787"/>
				<rect x="730.9" y="773.1" class="st0" width="21.6" height="41.6"/>
				<line class="st20" x1="742.1" y1="773.1" x2="742.1" y2="814.7"/>
				<line class="st20" x1="730.9" y1="787" x2="753.3" y2="787"/>
				<ellipse class="st0" cx="716.5" cy="847.7" rx="12.8" ry="13.9"/>
				<rect x="679.6" y="901.5" class="st2" width="73.7" height="55.5"/>
				<line class="st21" x1="716.5" y1="903.2" x2="716.5" y2="955.3"/>
				<ellipse class="st13" cx="753.8" cy="936.5" rx="1.4" ry="2"/>
				<ellipse class="st13" cx="709.1" cy="936.5" rx="1.4" ry="2"/>
			</g>
			<g>
				<rect x="769.6" y="827.2" class="st13" width="88.8" height="126.9"/>
				<rect x="769.6" y="827.2" class="st2" width="24.6" height="126.9"/>
				<polygon class="st13" points="813.1,788.3 767.3,827.2 858.9,827.2 				"/>
				<polygon class="st2" points="813.1,788.3 767.3,827.2 794.2,827.2 				"/>
				<polygon class="st13" points="799.9,806.7 788.5,814.9 788.5,784.2 799.9,784.2 				"/>
				<polygon class="st2" points="794.2,810.8 788.5,814.9 788.5,784.2 794.2,784.2 				"/>
				<ellipse class="st0" cx="821.6" cy="811.8" rx="4.7" ry="5.1"/>
				<rect x="803.6" y="845.6" class="st0" width="12.8" height="24.6"/>
				<rect x="773.4" y="845.6" class="st0" width="5.7" height="24.6"/>
				<line class="st22" x1="792.3" y1="827.2" x2="856.6" y2="827.2"/>
				<line class="st23" x1="810.3" y1="845.6" x2="810.3" y2="870.2"/>
				<line class="st23" x1="803.6" y1="853.8" x2="816.9" y2="853.8"/>
				<rect x="833.9" y="845.6" class="st0" width="12.8" height="24.6"/>
				<line class="st23" x1="840.5" y1="845.6" x2="840.5" y2="870.2"/>
				<line class="st23" x1="833.9" y1="853.8" x2="847.1" y2="853.8"/>
				<ellipse class="st0" cx="825.4" cy="889.6" rx="7.6" ry="8.2"/>
				<rect x="803.6" y="921.4" class="st2" width="43.5" height="32.8"/>
				<line class="st24" x1="825.4" y1="922.4" x2="825.4" y2="953.1"/>
				<ellipse class="st13" cx="847.4" cy="942" rx="0.8" ry="1.2"/>
				<ellipse class="st13" cx="821" cy="942" rx="0.8" ry="1.2"/>
			</g>
		</g>
		<path class="st3" d="M581.9,960.9L581.9,960.9c-3,0-5.4-2.4-5.4-5.4V717.2c0-3,2.4-5.4,5.4-5.4l0,0c3,0,5.4,2.4,5.4,5.4v238.3
			C587.3,958.5,584.9,960.9,581.9,960.9z"/>
		<line class="st4" x1="582.6" y1="711.7" x2="582.6" y2="834.9"/>
		<path class="st5" d="M582.9,760.4c0.9-0.2,14.4-17.8,14.4-17.8"/>
		<line class="st5" x1="582.6" y1="788" x2="556.7" y2="762.1"/>
		<line class="st4" x1="582.6" y1="734" x2="571.8" y2="718"/>
		<path class="st5" d="M565.3,770.7c-0.6-0.6-3.2-23-3.2-23"/>
		<line class="st5" x1="582.6" y1="814" x2="604.1" y2="789.5"/>
		<line class="st5" x1="582.6" y1="825.5" x2="555.8" y2="800.7"/>
		<line class="st5" x1="596.1" y1="798.7" x2="600.6" y2="778.9"/>
		<line class="st5" x1="579.9" y1="852.5" x2="606.4" y2="823"/>
		<path class="st5" d="M581.9,875.2c-0.3-0.5-29.1-28.3-29.1-28.3"/>
		<line class="st5" x1="573.8" y1="867" x2="569.2" y2="838.1"/>
		<g>
			<path class="st3" d="M650.6,912.5v-1.3c-2,0.4-4.1,0.9-6.1,1.5C646.6,912.7,648.6,912.6,650.6,912.5z"/>
			<path class="st3" d="M638.8,913.3v1.5c1.9-0.8,3.8-1.5,5.7-2.1C642.6,912.9,640.7,913.1,638.8,913.3z"/>
			<path class="st3" d="M644.5,912.8c-1.9,0.6-3.8,1.3-5.7,2.1v39.2c0,2.3,1.9,4.2,4.2,4.2h3.3c2.3,0,4.2-1.9,4.2-4.2v-41.5
				C648.6,912.6,646.6,912.7,644.5,912.8z"/>
			<path class="st3" d="M650.6,911.3V768.7c0-2.3-1.9-4.2-4.2-4.2h-3.3c-2.3,0-4.2,1.9-4.2,4.2v144.6c1.9-0.2,3.8-0.4,5.7-0.5
				C646.5,912.2,648.6,911.7,650.6,911.3z"/>
			<line class="st6" x1="645.5" y1="764.5" x2="645.5" y2="860.3"/>
			<path class="st7" d="M645.8,802.3c1-0.1,15.7-13.9,15.7-13.9"/>
			<line class="st7" x1="645.5" y1="823.9" x2="617.4" y2="803.7"/>
			<line class="st6" x1="645.5" y1="781.9" x2="633.8" y2="769.4"/>
			<path class="st7" d="M626.7,810.4c-0.6-0.5-3.4-17.9-3.4-17.9"/>
			<path class="st8" d="M641.8,759.2c0,0,4.2,20.6,8.4,27.4c4.2,6.8,6.6-22,6.8-21.6c0.1,0.4-15.8-5.8-15.8-5.8"/>
			<path class="st8" d="M650.6,759.2c0,0-11.3,23.9-17.2,30.3l-4.5-22.9L650.6,759.2z"/>
			<line class="st7" x1="645.5" y1="844.1" x2="668.9" y2="825"/>
			<line class="st7" x1="645.5" y1="853" x2="616.4" y2="833.7"/>
			<line class="st7" x1="660.1" y1="832.2" x2="665.1" y2="816.7"/>
			<line class="st7" x1="642.5" y1="874" x2="671.3" y2="851.1"/>
			<path class="st7" d="M644.7,891.6c-0.3-0.4-31.6-22-31.6-22"/>
			<line class="st7" x1="635.9" y1="885.3" x2="631" y2="862.8"/>
			<path class="st8" d="M633.4,914.3c1.1,0.6,2.2,1.1,3.2,1.6c2.6-1.2,5.2-2.2,7.9-3C640.8,913,637.1,913.5,633.4,914.3z"/>
			<path class="st8" d="M684.4,853.1c-13.4,9.2-27,18.2-40.8,26.9c-5.8,9.5-14.5,17.2-23.7,24.1c4.7,4.9,9.5,8.1,13.5,10.2
				c3.6-0.8,7.4-1.2,11.1-1.5c5.1-1.6,10.3-2.4,15.6-2.5c3.5-2.6,7.1-6.2,10.5-10.9c-7.9,1.5-15.8,2.3-23.5,1.6
				c-2.4,1-4.7,2.1-7.1,3.4c2.3-1.2,4.7-2.3,7.1-3.4c-1.7-0.1-3.4-0.3-5.1-0.6c1.7,0.3,3.4,0.5,5.1,0.6c8.7-3.7,17.7-6,27-7.1
				C679.3,884.5,683.4,871.3,684.4,853.1z"/>
			<path class="st8" d="M637,884.1c-7.4,4.6-14.9,9.1-22.6,13.4c1.3,1.8,2.7,3.5,4.1,5C624.5,896.3,631.1,890.5,637,884.1z"/>
			<path class="st8" d="M636.6,915.8c3.6,1.6,6,2.1,6,2.1s6.5-0.6,14.4-5.5c-4.2,0.1-8.3,0.1-12.5,0.4
				C641.9,913.6,639.2,914.6,636.6,915.8z"/>
			<path class="st8" d="M672.4,784.4c-14.4,10.6-30.9,18.3-48.3,22.9c13.1-12.4,28.1-22.5,44.7-29.8c-10.8-18.8-23.2-26.1-23.2-26.1
				s-44.9,23.3-44.9,95.9c0,18.2,3.7,31.9,8.8,42c17.7-26,44.8-46.2,74.7-57.4C682.8,811.9,678.1,796.3,672.4,784.4z M666.1,818.4
				c-0.8,0.2-1.5,0.3-2.3,0.5c-6.7,5.2-13,11.9-21.7,13.5c6.5-5.5,12.9-11.1,21.7-13.5c1.7-1.3,3.4-2.5,5.3-3.5
				c-1.8,1-3.6,2.2-5.3,3.5C664.5,818.7,665.3,818.5,666.1,818.4z"/>
		</g>
		<g>
			<path class="st3" d="M522.4,960.1H522c-2.3,0-4.2-1.9-4.2-4.2l-0.7-194.4c0-2.3,1.9-4.2,4.2-4.2h0.4c2.3,0,4.2,1.9,4.2,4.2
				l0.7,194.4C526.6,958.2,524.7,960.1,522.4,960.1z"/>
			<line class="st15" x1="522.1" y1="757.3" x2="522.4" y2="857.5"/>
			<path class="st16" d="M522.4,796.9c0.7-0.1,11.7-14.6,11.7-14.6"/>
			<line class="st16" x1="522.3" y1="819.4" x2="501.1" y2="798.4"/>
			<line class="st15" x1="522.1" y1="775.4" x2="513.3" y2="762.5"/>
			<path class="st16" d="M508.1,805.3c-0.5-0.5-2.6-18.7-2.6-18.7"/>
			<line class="st16" x1="522.4" y1="840.6" x2="539.8" y2="820.6"/>
			<line class="st16" x1="522.4" y1="849.9" x2="500.5" y2="829.8"/>
			<line class="st16" x1="533.3" y1="828.1" x2="536.9" y2="811.9"/>
			<line class="st16" x1="520.2" y1="871.9" x2="541.7" y2="847.8"/>
			<path class="st16" d="M521.9,890.4c-0.2-0.4-23.8-23-23.8-23"/>
			<line class="st16" x1="515.3" y1="883.7" x2="511.5" y2="860.2"/>
			<path class="st8" d="M543.1,780.5c-8.8-26.9-21.1-36.8-21.1-36.8s-16.7,12.2-26.4,46C510.6,783.5,527,780.2,543.1,780.5z"/>
			<path class="st8" d="M547,794.8c-17.3-0.3-34.7-1.6-52-2.7c-3,11.1-5.2,24.4-6,40.2c2.3-1.3,4.6-2.6,7.1-3.8
				c-2.4,1.2-4.8,2.5-7.1,3.8l0,0c1-0.3,2.1-0.6,3.1-0.9c-1,0.3-2.1,0.6-3.1,0.9c-0.2,3.8-0.3,7.8-0.2,11.9c0,0.4,0,0.8,0,1.2
				c11.4-2.2,22.9-4.1,34.3-6c-11.2,3.7-22.7,6.6-34.3,9.1c0.4,17,3.1,30,6.8,39.8c16.7-11.3,35.3-19.6,55-24.6
				c0.7-6.8,1.1-14.3,1.1-22.9C551.6,822.4,549.7,807.3,547,794.8z"/>
			<path class="st8" d="M495.8,889c3.6,9.5,8.2,16,12.4,20.4c10.1-0.4,19.9-2.5,29.7-4.9c5-7.4,9.8-18.8,12.2-36.4
				C532.3,876.2,514.7,883.7,495.8,889z"/>
			<path class="st8" d="M510.4,911.4c5.6,5.1,10.1,6.4,10.1,6.4s7.8-1,15.6-10.9C528.2,910.8,519.1,912.3,510.4,911.4z"/>
			<path class="st8" d="M519.2,751.7c0,0,3.2,21.6,6.4,28.7c3.2,7.1,4.9-23,5-22.6s-11.8-6.1-11.8-6.1"/>
			<path class="st8" d="M525.9,751.7c0,0-8.4,25.1-12.8,31.8l-3.4-24L525.9,751.7z"/>
		</g>
		<g>
			<path class="st3" d="M454.2,716.2c0-2.3-1.9-4.2-4.2-4.2h-8.9c-2.3,0-4.2,1.9-4.2,4.2l0.7,188.3c5.4-3.2,11.2-4.9,17.3-5.9
				L454.2,716.2z"/>
			<path class="st3" d="M454.8,898.7c-6.1,1-11.9,2.8-17.3,5.9v1.5c5.3-3.2,11.1-5.5,17.3-7V898.7z"/>
			<path class="st3" d="M437.5,906.1l0.2,50.5c0,2.3,1.9,4.2,4.2,4.2h8.9c2.3,0,4.2-1.9,4.2-4.2l-0.2-57.4
				C448.7,900.6,442.8,902.9,437.5,906.1z"/>
			<line class="st17" x1="446.7" y1="712" x2="447.1" y2="835"/>
			<path class="st18" d="M447.3,760.6c1.5-0.2,23-17.9,23-17.9"/>
			<line class="st18" x1="447" y1="788.2" x2="405.5" y2="762.5"/>
			<line class="st17" x1="446.8" y1="734.3" x2="429.4" y2="718.4"/>
			<path class="st18" d="M419.2,771c-0.9-0.6-5.1-22.9-5.1-22.9"/>
			<line class="st18" x1="447.1" y1="814.2" x2="481.3" y2="789.6"/>
			<line class="st18" x1="447.1" y1="825.6" x2="404.1" y2="801"/>
			<line class="st18" x1="468.5" y1="798.8" x2="475.7" y2="778.9"/>
			<line class="st18" x1="442.7" y1="852.6" x2="485" y2="823"/>
			<path class="st18" d="M446.1,875.2c-0.4-0.5-46.6-28.1-46.6-28.1"/>
			<line class="st18" x1="433.1" y1="867.1" x2="425.7" y2="838.2"/>
			<path class="st8" d="M446.6,695.3c0,0-19.5,8.9-37.2,32c18-7.3,36.1-13.7,54.6-18.9C454.3,699.2,446.6,695.3,446.6,695.3z"/>
			<path class="st8" d="M407.4,889.3c0.7,0.7,1.4,1.3,2.1,2c3-2.6,6.2-5,9.4-7.3C414.9,885.3,411.1,887.1,407.4,889.3z"/>
			<path class="st8" d="M498.4,767.3c-6.3,12-13.7,23.7-20.3,35.1c-11,19-30,27-45,41c23-28.1,42.4-57.7,61.6-87.7
				c-6-16-13.8-28.2-21.5-37.4c-22,7.7-44.6,13.6-67.6,14.5c-1.5,2.2-3,4.4-4.4,6.8c29.3,0.5,58.7,10.1,81.9,25.8c-21,2-41-2-61-9
				c-8.6-2.3-17.8-4.1-25.7-8.1c-8.9,17.9-15.4,41-15.3,70.4c0.1,35.5,12.6,57.3,26.4,70.6c3.7-2.2,7.5-3.9,11.5-5.3
				c22.6-15.8,50.7-23.7,77.3-19.6c5.1-12.7,8.4-29.1,8.4-50.1C504.5,796.2,502.2,780.7,498.4,767.3z M407.2,797.7
				c-4.3,1.8-8.3,3.7-12.1,5.6C398.9,801.5,402.9,799.5,407.2,797.7c-2.7-0.3-5.4-0.7-8.1-1.4C401.8,797,404.5,797.4,407.2,797.7
				c18.2-7.7,39.9-13.3,56.9-4.4C444.9,794.2,425.7,799.7,407.2,797.7z M492.1,831.4c-1.1,0.3-2.1,0.6-3.2,0.9
				c-9,5.2-17.3,10.9-26.8,14.1c7.2-7.2,16.9-11.2,26.8-14.1c2.3-1.3,4.7-2.7,7.2-3.9c-2.5,1.2-4.8,2.6-7.2,3.9
				C489.9,832,491,831.7,492.1,831.4z"/>
			<path class="st8" d="M418.9,883.9c-3.3,2.3-6.4,4.7-9.4,7.3c9.2,8.2,18.6,12.8,25.2,15.2c9.2-6.7,20.3-8.2,31.4-9.1
				c-10.9,0.8-21.2,4-29.9,9.6c4.3,1.5,7,2,7,2s30.3-2.4,48.3-34.6C467.3,878.6,441.1,876.1,418.9,883.9z"/>
		</g>
		<path class="st3" d="M342.9,717.2c0-3-2.4-5.4-5.4-5.4s-5.4,2.4-5.4,5.4v24.3c3.6-1.1,7.2-2,10.8-2.6V717.2z"/>
		<path class="st3" d="M342.9,741.8v-3c-3.7,0.6-7.3,1.5-10.8,2.6v0.3C335.6,742.3,339.3,742.3,342.9,741.8z"/>
		<path class="st3" d="M332,741.7v213.7c0,3,2.4,5.4,5.4,5.4s5.4-2.4,5.4-5.4V741.8C339.3,742.3,335.6,742.3,332,741.7z"/>
		<line class="st4" x1="338.2" y1="711.7" x2="338.2" y2="834.9"/>
		<path class="st5" d="M338.4,760.4c0.9-0.2,14.4-17.8,14.4-17.8"/>
		<line class="st5" x1="338.2" y1="788" x2="312.3" y2="762.1"/>
		<line class="st4" x1="338.2" y1="734" x2="327.4" y2="718"/>
		<line class="st5" x1="338.2" y1="814" x2="359.7" y2="789.5"/>
		<line class="st5" x1="338.2" y1="825.5" x2="311.4" y2="800.7"/>
		<line class="st5" x1="351.6" y1="798.7" x2="356.2" y2="778.9"/>
		<line class="st5" x1="335.4" y1="852.5" x2="361.9" y2="823"/>
		<path class="st5" d="M337.4,875.2c-0.3-0.5-29.1-28.3-29.1-28.3"/>
		<line class="st5" x1="329.4" y1="867" x2="324.8" y2="838.1"/>
		<g>
			<path class="st3" d="M402,958.3h-3.3c-2.3,0-4.2-1.9-4.2-4.2V768.7c0-2.3,1.9-4.2,4.2-4.2h3.3c2.3,0,4.2,1.9,4.2,4.2V954
				C406.2,956.4,404.3,958.3,402,958.3z"/>
			<line class="st6" x1="401.1" y1="764.5" x2="401.1" y2="860.3"/>
			<path class="st7" d="M401.4,802.3c1-0.1,15.7-13.9,15.7-13.9"/>
			<line class="st7" x1="401.1" y1="823.9" x2="372.9" y2="803.7"/>
			<line class="st6" x1="401.1" y1="781.9" x2="389.3" y2="769.4"/>
			<path class="st7" d="M382.3,810.4c-0.6-0.5-3.4-17.9-3.4-17.9"/>
			<line class="st7" x1="401.1" y1="844.1" x2="424.4" y2="825"/>
			<line class="st7" x1="401.1" y1="853" x2="371.9" y2="833.7"/>
			<line class="st7" x1="415.7" y1="832.2" x2="420.6" y2="816.7"/>
			<line class="st7" x1="398.1" y1="874" x2="426.8" y2="851.1"/>
			<path class="st7" d="M400.3,891.6c-0.3-0.4-31.6-22-31.6-22"/>
			<line class="st7" x1="391.5" y1="885.3" x2="386.5" y2="862.8"/>
			<path class="st8" d="M401.1,751.5c0,0-24.6,12.8-37.4,49c16.2-13.6,34.1-25.4,53.4-33.8C408.6,755.9,401.1,751.5,401.1,751.5z"/>
			<path class="st8" d="M417,876.9c4-4.2,7.7-8.7,11.1-13.5C424.1,867.1,420.5,871.8,417,876.9z"/>
			<path class="st8" d="M427.8,784.1c-22.1,10.1-45.2,18.6-67.6,28.2c-2.5,10.2-4,21.8-4,35.1c0,16,2.8,28.5,7,38.1
				c9.9-20,22.4-38.3,38.8-53.2c-14.1,17.9-21.6,41.3-35.7,59.5c3.3,5.8,7,10.3,10.8,13.9c14.8-7.4,28.5-16.9,39.9-28.9
				c3.5-5,7.1-9.8,11.1-13.5c-3.3,4.8-7.1,9.3-11.1,13.5c-9.5,13.6-18.4,29.5-33,34.4c7.8,5.3,14.2,6.6,14.2,6.6s42-3.6,42-73.6
				C440.2,818,434.7,798.4,427.8,784.1z M381.1,836.4c6.8-11,14.3-22.8,24.4-31.6c1.5-2.5,3-5,4.6-7.4c-1.6,2.5-3.1,5-4.6,7.4
				c1.8-1.6,3.7-3.1,5.6-4.4c-2,1.4-3.8,2.9-5.6,4.4C398.4,816.2,391.8,827.3,381.1,836.4z"/>
		</g>
		<path class="st8" d="M582.6,695c0,0-14,10.2-25.7,37.2c12.9-7,25.5-14.2,38.7-20.7C588.5,699.8,582.6,695,582.6,695z"/>
		<path class="st8" d="M556.6,887.4C567.4,905.3,580,909,580,909s26.1-3.2,35.4-54.3C596.2,866.2,576.5,877,556.6,887.4z"/>
		<path class="st8" d="M572.1,843.4c14.4-9.6,30.1-17.9,46.5-23.9c0-1.7,0-3.4,0-5.1c0-46-9.4-76.2-18.6-94.7
			c-14.4,8.7-29.8,15.5-46,19.5c-3.2,8.6-6.2,18.6-8.4,30.2c9.4-0.5,17.6-6.2,27.4-7c-8.7,3.5-18.1,6.2-27.6,8.1
			c-1.2,6.4-2.2,13.3-2.9,20.6c13-9.2,29.1-14.7,43.5-20.8c-14.4,8.8-28.2,19.5-43.9,25c-0.6,7.2-0.9,14.8-0.9,23
			c0,28.1,4.9,47.7,11.1,61.2c19.1-14.3,41.5-24.8,64.3-33.5c0.8-6.1,1.4-12.8,1.7-20.1C603,832.4,587.2,837.3,572.1,843.4z
			 M550.1,839.4c9.2-29.6,26.2-56.6,47.7-80.3c1.5-5.1,2.6-10.4,3.3-15.7c-0.7,5.4-1.9,10.6-3.3,15.7c1.8-1.9,3.5-3.9,5.3-5.7
			c-1.8,1.9-3.6,3.8-5.3,5.7C589.1,789.1,568.9,814.6,550.1,839.4z"/>
		<g>
			<path class="st3" d="M281.6,810.7l-0.2-49.2c0-2.3-1.9-4.2-4.2-4.2h-0.4c-2.3,0-4.2,1.9-4.2,4.2l0.2,49.4
				C275.7,811,278.7,810.9,281.6,810.7z"/>
			<path class="st3" d="M272.8,813.7l0.5,142.2c0,2.3,1.9,4.2,4.2,4.2h0.4c2.3,0,4.2-1.9,4.2-4.2l-0.5-143
				C278.7,813.3,275.8,813.6,272.8,813.7z"/>
			<path class="st3" d="M281.6,810.7c-2.9,0.2-5.9,0.3-8.8,0.2v2.8c3-0.2,5.9-0.4,8.8-0.9V810.7z"/>
			<line class="st15" x1="277.6" y1="757.3" x2="278" y2="857.5"/>
			<path class="st16" d="M278,796.9c0.7-0.1,11.7-14.6,11.7-14.6"/>
			<line class="st16" x1="277.9" y1="819.4" x2="256.7" y2="798.4"/>
			<line class="st15" x1="277.7" y1="775.4" x2="268.8" y2="762.5"/>
			<path class="st16" d="M263.7,805.3c-0.5-0.5-2.6-18.7-2.6-18.7"/>
			<line class="st16" x1="277.9" y1="840.6" x2="295.4" y2="820.6"/>
			<line class="st16" x1="278" y1="849.9" x2="256.1" y2="829.8"/>
			<line class="st16" x1="288.8" y1="828.1" x2="292.5" y2="811.9"/>
			<line class="st16" x1="275.8" y1="871.9" x2="297.3" y2="847.8"/>
			<path class="st16" d="M277.5,890.4c-0.2-0.4-23.8-23-23.8-23"/>
			<line class="st16" x1="270.9" y1="883.7" x2="267.1" y2="860.2"/>
			<path class="st8" d="M287.6,756.1c-8.5,13.2-21.7,23.8-36,32.2c-2.1,7-3.9,14.9-5.2,23.9c11.9-6.9,25-11.7,38.7-13.9
				c-6.8,3.6-13.1,7.8-19.7,11.8c9.9,1.8,19.8,0.1,29.7-0.8c-11.4,4.4-23.6,4.9-35.9,4.3c-4.4,2.4-8.9,4.5-13.7,6.1
				c-0.8,7.5-1.2,15.6-1.2,24.4c0.1,17.4,2.4,30.7,5.8,41c11.1-11.5,19.8-25.4,29.5-38.5c1.5-4.7,2.7-9.5,3.5-14.3
				c-0.9,4.8-2,9.6-3.5,14.3c5.1-6.8,10.4-13.4,16.5-19.3c-6.1,5.9-11.5,12.4-16.5,19.3c-5.3,16.5-14.6,31.9-28.2,42.3
				c2.8,7.4,6.2,12.9,9.5,17.1c12.2-8.5,26.1-14.5,40.5-18.7c3.5-11.1,5.9-26.1,5.8-46.6C307.1,796.1,296.1,769.8,287.6,756.1z
				 M291.1,860.4c-0.9,1.1-1.8,2.2-2.7,3.3c-3.9,9.4-10.5,17.4-18.3,23.7c4.4-8.7,11.8-16,18.3-23.7c1.1-2.7,2.1-5.5,2.7-8.3
				c-0.7,2.9-1.6,5.7-2.7,8.3C289.3,862.6,290.2,861.5,291.1,860.4z"/>
			<path class="st8" d="M265.3,910.9c5.9,5.6,10.7,7,10.7,7s11-1.4,20-17.7C286.2,904.7,275.8,908,265.3,910.9z"/>
			<path class="st8" d="M283.3,750c-3.4-4.4-5.7-6.3-5.7-6.3s-14,10.3-23.9,38C264.6,772.2,274.5,761.5,283.3,750z"/>
		</g>
		<g>
			<path class="st3" d="M206.4,960.7h-8.9c-2.3,0-4.2-1.9-4.2-4.2l-0.8-240.3c0-2.3,1.9-4.2,4.2-4.2h8.9c2.3,0,4.2,1.9,4.2,4.2
				l0.8,240.3C210.6,958.8,208.7,960.7,206.4,960.7z"/>
			<line class="st17" x1="202.3" y1="712" x2="202.7" y2="835"/>
			<path class="st18" d="M202.8,760.6c1.5-0.2,23-17.9,23-17.9"/>
			<line class="st18" x1="202.5" y1="788.2" x2="161" y2="762.5"/>
			<line class="st17" x1="202.3" y1="734.3" x2="185" y2="718.4"/>
			<path class="st18" d="M174.8,771c-0.9-0.6-5.1-22.9-5.1-22.9"/>
			<line class="st18" x1="202.6" y1="814.2" x2="236.9" y2="789.6"/>
			<line class="st18" x1="202.7" y1="825.6" x2="159.7" y2="801"/>
			<line class="st18" x1="224.1" y1="798.8" x2="231.3" y2="778.9"/>
			<line class="st18" x1="198.3" y1="852.6" x2="240.5" y2="823"/>
			<path class="st18" d="M201.6,875.2c-0.4-0.5-46.6-28.1-46.6-28.1"/>
			<line class="st18" x1="188.7" y1="867.1" x2="181.3" y2="838.2"/>
			<path class="st8" d="M202.2,695.3c0,0-21.1,9.6-39.3,34.9c16.5-10.7,34.3-18.6,52.9-25.2C207.9,698.2,202.2,695.3,202.2,695.3z"
				/>
			<path class="st8" d="M251.1,821.4c-4.1,8.9-8.2,18.3-12.5,27.7c3.1-4.5,6.3-9.1,9.5-13.7C251.1,831.4,251.1,826.4,251.1,821.4z"
				/>
			<path class="st8" d="M260.1,813.7c-2-0.1-4-0.2-6.1-0.4C256.1,813.5,258.1,813.6,260.1,813.7c-0.2-27.6-5.8-49.5-13.4-66.5
				c-15.4,32.4-46.6,59.3-78.6,70.2c29-21.9,52-49.8,75.3-77c-4.9-9.4-10.3-17.1-15.6-23.3c-22.1,10.1-45.9,17.6-67.7,28.3
				c-2.3,0.8-4.8,1.1-7.2,1.1c-9.4,18.1-16.3,41.8-16.2,72.2c0.2,59.6,35.2,80.6,52.6,87.4c19.7-15.8,34.6-35.7,49.4-57
				c4.3-9.4,8.3-18.8,12.5-27.7c0,5,0,10-3,14c-3.2,4.6-6.3,9.2-9.5,13.7c-10,21.9-21.3,43.8-38.3,59.7c9.7-1.5,60.1-13.3,59.8-94.5
				C260.2,814.1,260.1,813.9,260.1,813.7z M217.1,731.4c0,3.4-0.6,6.5-1.7,9.4c0.6-0.5,1.1-0.9,1.7-1.4c-0.6,0.5-1.1,0.9-1.7,1.4
				c-5,13.5-20.5,21.5-35.3,20.6c13.3-3.8,24.8-12.1,35.3-20.6C216.5,737.8,217.1,734.7,217.1,731.4z"/>
		</g>
		<path class="st3" d="M93,960.9L93,960.9c-3,0-5.4-2.4-5.4-5.4V717.2c0-3,2.4-5.4,5.4-5.4l0,0c3,0,5.4,2.4,5.4,5.4v238.3
			C98.4,958.5,96,960.9,93,960.9z"/>
		<line class="st4" x1="93.8" y1="711.7" x2="93.8" y2="834.9"/>
		<path class="st5" d="M94,760.4c0.9-0.2,14.4-17.8,14.4-17.8"/>
		<line class="st5" x1="93.8" y1="788" x2="67.8" y2="762.1"/>
		<line class="st4" x1="93.8" y1="734" x2="82.9" y2="718"/>
		<path class="st5" d="M76.4,770.7c-0.6-0.6-3.2-23-3.2-23"/>
		<line class="st5" x1="93.8" y1="814" x2="115.3" y2="789.5"/>
		<line class="st5" x1="93.8" y1="825.5" x2="66.9" y2="800.7"/>
		<line class="st5" x1="107.2" y1="798.7" x2="111.8" y2="778.9"/>
		<line class="st5" x1="91" y1="852.5" x2="117.5" y2="823"/>
		<path class="st5" d="M93,875.2c-0.3-0.5-29.1-28.3-29.1-28.3"/>
		<line class="st5" x1="84.9" y1="867" x2="80.3" y2="838.1"/>
		<g>
			<path class="st3" d="M157.5,958.3h-3.3c-2.3,0-4.2-1.9-4.2-4.2V768.7c0-2.3,1.9-4.2,4.2-4.2h3.3c2.3,0,4.2,1.9,4.2,4.2V954
				C161.7,956.4,159.8,958.3,157.5,958.3z"/>
			<line class="st6" x1="156.7" y1="764.5" x2="156.7" y2="860.3"/>
			<path class="st7" d="M156.9,802.3c1-0.1,15.7-13.9,15.7-13.9"/>
			<line class="st7" x1="156.7" y1="823.9" x2="128.5" y2="803.7"/>
			<line class="st6" x1="156.7" y1="781.9" x2="144.9" y2="769.4"/>
			<path class="st7" d="M137.8,810.4c-0.6-0.5-3.4-17.9-3.4-17.9"/>
			<path class="st8" d="M152.9,759.2c0,0,4.2,20.6,8.4,27.4c4.2,6.8,6.6-22,6.8-21.6c0.1,0.4-15.8-5.8-15.8-5.8"/>
			<path class="st8" d="M161.7,759.2c0,0-11.3,23.9-17.2,30.3l-4.5-22.9L161.7,759.2z"/>
			<line class="st7" x1="156.7" y1="844.1" x2="180" y2="825"/>
			<line class="st7" x1="156.7" y1="853" x2="127.5" y2="833.7"/>
			<line class="st7" x1="171.3" y1="832.2" x2="176.2" y2="816.7"/>
			<line class="st7" x1="153.6" y1="874" x2="182.4" y2="851.1"/>
			<path class="st7" d="M155.8,891.6c-0.3-0.4-31.6-22-31.6-22"/>
			<line class="st7" x1="147" y1="885.3" x2="142.1" y2="862.8"/>
			<path class="st8" d="M156.7,751.5c0,0-43.1,22.4-44.8,91.5c18.4-12.1,38.6-21.4,60.2-27.7c-18.3,14.8-38.2,29.1-60.2,37.7
				c1.1,26.5,10.4,42.4,19.9,51.9c18.7-14.8,39.6-27,61.9-35.8c1.3-7.2,2.1-15.4,2.1-24.8C195.8,774.3,156.7,751.5,156.7,751.5z"/>
			<path class="st8" d="M139.2,911c8,5.5,14.6,6.9,14.6,6.9s24.8-2.2,36.3-35C174.1,893.7,157,903.2,139.2,911z"/>
		</g>
		<g>
			<path class="st3" d="M33.5,960.1h-0.4c-2.3,0-4.2-1.9-4.2-4.2l-0.7-194.4c0-2.3,1.9-4.2,4.2-4.2h0.4c2.3,0,4.2,1.9,4.2,4.2
				l0.7,194.4C37.7,958.2,35.8,960.1,33.5,960.1z"/>
			<line class="st15" x1="33.2" y1="757.3" x2="33.5" y2="857.5"/>
			<path class="st16" d="M33.5,796.9c0.7-0.1,11.7-14.6,11.7-14.6"/>
			<line class="st16" x1="33.4" y1="819.4" x2="12.2" y2="798.4"/>
			<line class="st15" x1="33.3" y1="775.4" x2="24.4" y2="762.5"/>
			<path class="st16" d="M19.3,805.3c-0.5-0.5-2.6-18.7-2.6-18.7"/>
			<line class="st16" x1="33.5" y1="840.6" x2="50.9" y2="820.6"/>
			<line class="st16" x1="33.5" y1="849.9" x2="11.6" y2="829.8"/>
			<line class="st16" x1="44.4" y1="828.1" x2="48" y2="811.9"/>
			<line class="st16" x1="31.3" y1="871.9" x2="52.8" y2="847.8"/>
			<path class="st16" d="M33.1,890.4c-0.2-0.4-23.8-23-23.8-23"/>
			<line class="st16" x1="26.4" y1="883.7" x2="22.6" y2="860.2"/>
			<path class="st8" d="M40.5,752.1c-4.2-5.9-7.3-8.4-7.3-8.4s-6.3,4.6-13.3,15.9"/>
			<path class="st8" d="M62.7,833.1c-15.8,12.7-35.2,21.7-53.6,30.2c14.4-17.4,34-28.6,53.1-39.9c-2.4-32.8-10.8-53.6-18-65.7
				c-1.3,0.9-2.6,1.8-4.1,2.6c-7.8,4.9-15.6,10.7-24.3,6.3c-5.6,10.8-11,25.9-13.9,46.2c14.5-10.6,29.5-19.6,47.2-23.6
				C33.9,801.1,17.9,812.7,0.8,822c-0.6,6.8-1,14.1-0.9,22c0.1,37.2,10.7,56,19.6,65.3c13.2-11.1,26.3-22.5,40.2-32.7
				c2-9.6,3.2-21.5,3.1-36.1C62.8,838.1,62.7,835.6,62.7,833.1z"/>
			<path class="st8" d="M21.5,911.5c5.6,5.1,10.1,6.4,10.1,6.4s19.5-2.4,27.7-39.1C48.1,891.1,35.5,902.1,21.5,911.5z"/>
		</g>
		<path class="st5" d="M320.9,770.7c-0.6-0.6-3.2-23-3.2-23"/>
		<path class="st8" d="M128.1,782.2c-1.1-10.4-2.8-19.7-4.8-28c-11.2,6-23.3,10.5-36.2,13.2c-11,1.8-19.5-1.4-28.6-5.8
			c-3.6,15.6-6,34.3-6,56.8c0,4.5,0.1,8.7,0.4,12.8c11.5-8.6,23.7-16.4,36.3-23.8C76.8,815.1,65,823.8,53,832c1,15.5,3.5,28,6.9,38
			c22-10.1,45.2-16.2,68.1-23.5c1.2-9.3,1.9-19.9,1.9-32.1c0-9.4-0.4-18-1.1-26.1c-14.3,4.8-29.2,6.9-44.6,8.2
			C96.6,786.1,112.3,782.3,128.1,782.2z"/>
		<path class="st8" d="M61.4,874.4C72.8,903.6,91.1,909,91.1,909s28.6-3.5,36.6-61.8C105.7,856.6,83.9,866.7,61.4,874.4z"/>
		<path class="st8" d="M121.8,748.1c-3.5-12.9-7.8-23.1-11.9-30.9c-14.4,8.1-29.1,15.6-44.5,21.4c-1.6,4.3-3.2,8.9-4.6,13.9
			C81.1,757.3,102.2,754.8,121.8,748.1z"/>
		<path class="st8" d="M93.8,695c0,0-15,10.9-27,40c13.1-8.2,26.7-15.6,40.6-22.4C100,700.1,93.8,695,93.8,695z"/>
		<path class="st8" d="M321.1,852.4c12.1-2.1,21.7-10.9,27.3-21.5C339.7,839.4,331.7,848.3,321.1,852.4z"/>
		<path class="st8" d="M358.6,889.9c8.3-13.5,15.6-36.5,15.6-75.6c0-22.7-2.3-41.5-5.7-57c-0.5,0.5-1,1.1-1.5,1.6
			c-14.8,27.4-36.1,51.5-65.9,61.4c24.7-17.5,45-39.5,65.9-61.4c0.4-0.8,0.9-1.7,1.3-2.5c-3.4-15.1-7.9-27-12.4-36.1
			c-4,2.3-8.4,4.1-12.8,6c3.4-3.4,8.1-4.9,12.3-7.1c-2.1-4.2-4.2-7.8-6.2-10.8c-8.9,7.4-19.9,12.2-30.7,11.4
			c-4.1,7.4-8.3,16.7-11.9,28.1c9.4-6.6,19.6-11.6,31.5-11.6c-10,4.6-21.1,8-31.6,12.1c-5.5,17.8-9.6,40.8-9.6,69.9
			c0,39.8,9.7,62.5,19.5,75.2c14.6-10.2,30.5-18.9,47.7-22.2c-14.1,11-29.4,18.2-44.5,26.1c8.4,9.3,15.9,11.5,15.9,11.5
			s11.7-1.4,22.2-17.7c-7.4,5.2-14.5,10.5-23.7,13C342.1,899,349.4,892.1,358.6,889.9z M330.1,741.4c0.4,0.1,0.9,0.2,1.3,0.3
			c8.2-2.6,16.5-4.2,25.7-3.3c-8.6,2.9-17.1,4.8-25.7,3.3c-0.8,0.2-1.5,0.5-2.3,0.7c0.8-0.3,1.5-0.5,2.3-0.7
			C330.9,741.5,330.5,741.5,330.1,741.4z M348.3,830.9c-5.6,10.6-15.2,19.4-27.3,21.5L348.3,830.9c2.3-4.3,3.9-8.9,4.7-13.5
			C352.2,822,350.6,826.6,348.3,830.9c1.9-1.9,3.8-3.7,5.7-5.5C352.1,827.1,350.2,829,348.3,830.9z"/>
		<path class="st8" d="M368.5,757.3c-0.1-0.3-0.1-0.6-0.2-0.9c-0.4,0.8-0.9,1.7-1.3,2.5C367.5,758.4,368,757.9,368.5,757.3z"/>
		<path class="st8" d="M338.2,695c0,0-8.9,6.5-18.5,22.8c9.7-2.8,19-7.1,27.2-12.8C341.9,698,338.2,695,338.2,695z"/>
	</g>
	<g id="Rails">
		<rect y="959.5" class="st8" width="1921.3" height="3.4"/>
	</g>
	<g id="Calque_11">
		<g>
			<rect x="1430.5" y="842" class="st2" width="8.6" height="141"/>
			<rect x="1425.3" y="962.8" class="st2" width="18.9" height="21.2"/>
			<rect x="1426.4" y="957.9" class="st2" width="16.9" height="12.4"/>
			<line class="st25" x1="1434.8" y1="846.5" x2="1434.8" y2="957.9"/>
			<circle class="st0" cx="1434.8" cy="826.9" r="12.4"/>
			<rect x="1419.1" y="835.4" class="st2" width="31.4" height="7.1"/>
			<rect x="1422.5" y="831.9" class="st2" width="24.7" height="7.1"/>
		</g>
		<g>
			<rect x="743.3" y="842" class="st2" width="8.6" height="141"/>
			<rect x="738.2" y="962.8" class="st2" width="18.9" height="21.2"/>
			<rect x="739.2" y="957.9" class="st2" width="16.9" height="12.4"/>
			<line class="st25" x1="747.6" y1="846.5" x2="747.6" y2="957.9"/>
			<circle class="st0" cx="747.6" cy="826.9" r="12.4"/>
			<rect x="732" y="835.4" class="st2" width="31.4" height="7.1"/>
			<rect x="735.3" y="831.9" class="st2" width="24.7" height="7.1"/>
		</g>
	</g>
</g>
<g id="train" transform="translate(0 618)">
            <path d="M105.2 31.1H29.4c-1.2 0-2.3-1-2.3-2.3V3.6c0-1.2 1-2.3 2.3-2.3h75.8c1.2 0 2.3 1 2.3 2.3v25.2c-.1 1.3-1.1 2.3-2.3 2.3z" fill="#EF656C" fill-rule="nonzero"/>
            <path fill="#A5154F" fill-rule="nonzero" d="M27.2 11.1h80.3v4.8H27.2z"/>
            <path d="M107.4 9.4H27.2" stroke="#FFEAB6" stroke-width=".803"/>
            <path d="M43.6 19.1H38c-2.4 0-4.4-2-4.4-4.4v-1.6c0-2.4 2-4.4 4.4-4.4h5.6c2.4 0 4.4 2 4.4 4.4v1.6c0 2.4-1.9 4.4-4.4 4.4z" stroke="#A5154F" stroke-width=".803" fill="#FFEAB6" fill-rule="nonzero"/>
            <path d="M44 8.6c2.2 0 4 1.8 4 4V15c0 2.2-1.8 4-4 4h-6.4c-2.2 0-4-1.8-4-4" fill="#2DDCE0" fill-rule="nonzero"/>
            <path d="M76.5 19.1H62.1c-2.4 0-4.4-2-4.4-4.4v-1.6c0-2.4 2-4.4 4.4-4.4h14.4c2.4 0 4.4 2 4.4 4.4v1.6c.1 2.4-1.9 4.4-4.4 4.4z" stroke="#A5154F" stroke-width=".803" fill="#FFEAB6" fill-rule="nonzero"/>
            <path d="M76.9 8.6c2.2 0 4 1.8 4 4V15c0 2.2-1.8 4-4 4H61.7" fill="#2DDCE0" fill-rule="nonzero"/>
            <path d="M95.1.2H39.5c-.4 0-.7.3-.7.7v.2c0 .4.3.7.7.7h55.6c.4 0 .7-.3.7-.7V.9c0-.4-.3-.7-.7-.7z" fill="#A5154F" fill-rule="nonzero"/>
            <path d="M93.6 29.5h-.9c-1.4 0-2.6-1.1-2.6-2.6v-7.2c0-1.4 1.1-2.6 2.6-2.6h.9c1.4 0 2.6 1.1 2.6 2.6v7.2c0 1.5-1.1 2.6-2.6 2.6z" stroke="#FFEAB6" stroke-width=".641"/>
            <circle fill="#FFEAB6" fill-rule="nonzero" cx="94.2" cy="22.7" r="1"/>
            <path d="M187.1 31.1h-75.8c-1.2 0-2.3-1-2.3-2.3V3.6c0-1.2 1-2.3 2.3-2.3h75.8c1.2 0 2.3 1 2.3 2.3v25.2c-.1 1.3-1.1 2.3-2.3 2.3z" fill="#EF656C" fill-rule="nonzero"/>
            <path fill="#A5154F" fill-rule="nonzero" d="M109 11.1h80.3v4.8H109z"/>
            <path d="M189.3 9.4H109" stroke="#FFEAB6" stroke-width=".803"/>
            <path d="M125.5 19.1h-5.6c-2.4 0-4.4-2-4.4-4.4v-1.6c0-2.4 2-4.4 4.4-4.4h5.6c2.4 0 4.4 2 4.4 4.4v1.6c0 2.4-2 4.4-4.4 4.4z" stroke="#A5154F" stroke-width=".803" fill="#FFEAB6" fill-rule="nonzero"/>
            <path d="M125.9 8.6c2.2 0 4 1.8 4 4V15c0 2.2-1.8 4-4 4h-6.4c-2.2 0-4-1.8-4-4" fill="#2DDCE0" fill-rule="nonzero"/>
            <path d="M158.4 19.1H144c-2.4 0-4.4-2-4.4-4.4v-1.6c0-2.4 2-4.4 4.4-4.4h14.4c2.4 0 4.4 2 4.4 4.4v1.6c0 2.4-2 4.4-4.4 4.4z" stroke="#A5154F" stroke-width=".803" fill="#FFEAB6" fill-rule="nonzero"/>
            <path d="M158.8 8.6c2.2 0 4 1.8 4 4V15c0 2.2-1.8 4-4 4h-15.2" fill="#2DDCE0" fill-rule="nonzero"/>
            <path d="M177 .2h-55.6c-.4 0-.7.3-.7.7v.2c0 .4.3.7.7.7H177c.4 0 .7-.3.7-.7V.9c0-.4-.3-.7-.7-.7z" fill="#A5154F" fill-rule="nonzero"/>
            <g transform="translate(190)">
                <path d="M78.9 31.1H3.1c-1.2 0-2.3-1-2.3-2.3V3.6c0-1.2 1-2.3 2.3-2.3h75.8c1.2 0 2.3 1 2.3 2.3v25.2c0 1.3-1 2.3-2.3 2.3z" fill="#EF656C" fill-rule="nonzero"/>
                <path fill="#A5154F" fill-rule="nonzero" d="M.9 11.1h80.3v4.8H.9z"/>
                <path d="M81.2 9.4H.9" stroke="#FFEAB6" stroke-width=".803"/>
                <path d="M17.3 19.1h-5.6c-2.4 0-4.4-2-4.4-4.4v-1.6c0-2.4 2-4.4 4.4-4.4h5.6c2.4 0 4.4 2 4.4 4.4v1.6c.1 2.4-1.9 4.4-4.4 4.4z" stroke="#A5154F" stroke-width=".803" fill="#FFEAB6" fill-rule="nonzero"/>
                <path d="M17.8 8.6c2.2 0 4 1.8 4 4V15c0 2.2-1.8 4-4 4h-6.4c-2.2 0-4-1.8-4-4" fill="#2DDCE0" fill-rule="nonzero"/>
                <path d="M50.3 19.1H35.9c-2.4 0-4.4-2-4.4-4.4v-1.6c0-2.4 2-4.4 4.4-4.4h14.4c2.4 0 4.4 2 4.4 4.4v1.6c0 2.4-2 4.4-4.4 4.4z" stroke="#A5154F" stroke-width=".803" fill="#FFEAB6" fill-rule="nonzero"/>
                <path d="M50.7 8.6c2.2 0 4 1.8 4 4V15c0 2.2-1.8 4-4 4H35.5" fill="#2DDCE0" fill-rule="nonzero"/>
                <path d="M68.8.2H13.2c-.4 0-.7.3-.7.7v.2c0 .4.3.7.7.7h55.6c.4 0 .7-.3.7-.7V.9c0-.4-.3-.7-.7-.7z" fill="#A5154F" fill-rule="nonzero"/>
                <path d="M67.4 29.5h-.9c-1.4 0-2.6-1.1-2.6-2.6v-7.2c0-1.4 1.1-2.6 2.6-2.6h.9c1.4 0 2.6 1.1 2.6 2.6v7.2c-.1 1.5-1.2 2.6-2.6 2.6z" stroke="#FFEAB6" stroke-width=".641"/>
                <circle fill="#FFEAB6" fill-rule="nonzero" cx="67.9" cy="22.7" r="1"/>
            </g>
            <g>
                <path d="M350.8 31.1H275c-1.2 0-2.3-1-2.3-2.3V3.6c0-1.2 1-2.3 2.3-2.3h75.8c1.2 0 2.3 1 2.3 2.3v25.2c-.1 1.3-1.1 2.3-2.3 2.3z" fill="#EF656C" fill-rule="nonzero"/>
                <path fill="#A5154F" fill-rule="nonzero" d="M272.8 11.1h80.3v4.8h-80.3z"/>
                <path d="M353 9.4h-80.2" stroke="#FFEAB6" stroke-width=".803"/>
                <path d="M289.2 19.1h-5.6c-2.4 0-4.4-2-4.4-4.4v-1.6c0-2.4 2-4.4 4.4-4.4h5.6c2.4 0 4.4 2 4.4 4.4v1.6c0 2.4-2 4.4-4.4 4.4z" stroke="#A5154F" stroke-width=".803" fill="#FFEAB6" fill-rule="nonzero"/>
                <path d="M289.6 8.6c2.2 0 4 1.8 4 4V15c0 2.2-1.8 4-4 4h-6.4c-2.2 0-4-1.8-4-4" fill="#2DDCE0" fill-rule="nonzero"/>
                <path d="M322.1 19.1h-14.4c-2.4 0-4.4-2-4.4-4.4v-1.6c0-2.4 2-4.4 4.4-4.4h14.4c2.4 0 4.4 2 4.4 4.4v1.6c0 2.4-1.9 4.4-4.4 4.4z" stroke="#A5154F" stroke-width=".803" fill="#FFEAB6" fill-rule="nonzero"/>
                <path d="M322.5 8.6c2.2 0 4 1.8 4 4V15c0 2.2-1.8 4-4 4h-15.2" fill="#2DDCE0" fill-rule="nonzero"/>
                <path d="M340.7.2h-55.6c-.4 0-.7.3-.7.7v.2c0 .4.3.7.7.7h55.6c.4 0 .7-.3.7-.7V.9c0-.4-.3-.7-.7-.7z" fill="#A5154F" fill-rule="nonzero"/>
            </g>
            <g>
                <path d="M432.7 31.1h-75.8c-1.2 0-2.3-1-2.3-2.3V3.6c0-1.2 1-2.3 2.3-2.3h75.8c1.2 0 2.3 1 2.3 2.3v25.2c-.1 1.3-1.1 2.3-2.3 2.3z" fill="#EF656C" fill-rule="nonzero"/>
                <path fill="#A5154F" fill-rule="nonzero" d="M354.6 11.1h80.3v4.8h-80.3z"/>
                <path d="M434.9 9.4h-80.3" stroke="#FFEAB6" stroke-width=".803"/>
                <path d="M371.1 19.1h-5.6c-2.4 0-4.4-2-4.4-4.4v-1.6c0-2.4 2-4.4 4.4-4.4h5.6c2.4 0 4.4 2 4.4 4.4v1.6c0 2.4-2 4.4-4.4 4.4z" stroke="#A5154F" stroke-width=".803" fill="#FFEAB6" fill-rule="nonzero"/>
                <path d="M371.5 8.6c2.2 0 4 1.8 4 4V15c0 2.2-1.8 4-4 4h-6.4c-2.2 0-4-1.8-4-4" fill="#2DDCE0" fill-rule="nonzero"/>
                <path d="M404 19.1h-14.4c-2.4 0-4.4-2-4.4-4.4v-1.6c0-2.4 2-4.4 4.4-4.4H404c2.4 0 4.4 2 4.4 4.4v1.6c0 2.4-2 4.4-4.4 4.4z" stroke="#A5154F" stroke-width=".803" fill="#FFEAB6" fill-rule="nonzero"/>
                <path d="M404.4 8.6c2.2 0 4 1.8 4 4V15c0 2.2-1.8 4-4 4h-15.2" fill="#2DDCE0" fill-rule="nonzero"/>
                <path d="M422.6.2H367c-.4 0-.7.3-.7.7v.2c0 .4.3.7.7.7h55.6c.4 0 .7-.3.7-.7V.9c0-.4-.3-.7-.7-.7z" fill="#A5154F" fill-rule="nonzero"/>
            </g>
            <g fill-rule="nonzero">
                <path d="M433.7 1.4c.2 0 .5.1.6.2 2.9 1.7 25.4 15.8 25.4 26.3 0 4-28.4 3.2-28.4 3.2V1.4h2.4z" fill="#EF656C"/>
                <path d="M455.7 18.9s3.3 4 3.8 6.8h-28.1v-6.8h24.3z" fill="#A5154F"/>
                <path d="M444.2 8.6h-6.7c-.3 0-.6.3-.6.6v7.5c0 .4.3.7.7.7h16.8s-3-3.2-5.4-5.3c-2.4-2-4.3-3.5-4.3-3.5h-.5z" fill="#FFEAB6"/>
                <path d="M444.6 8.6l-7.4 8.4c-.1.1-.4.1-.4-.1V9.2c0-.3.2-.6.6-.6h7.2z" fill="#2DDCE0"/>
                <path d="M456.9 20.5s1 1.4 1.6 2.8h-2.9c-.3 0-.6-.3-.6-.6V21c0-.3.2-.5.5-.5h1.4z" fill="#FFEAB6"/>
            </g>
            <g fill-rule="nonzero">
                <path d="M26.3 1.4c-.2 0-.5.1-.6.2C22.8 3.3.3 17.4.3 27.9c0 4 28.4 3.2 28.4 3.2V1.4h-2.4z" fill="#EF656C"/>
                <path d="M4.4 18.9s-3.3 4-3.8 6.8h28.1v-6.8H4.4z" fill="#A5154F"/>
                <path d="M15.8 8.6h6.7c.3 0 .6.3.6.6v7.5c0 .4-.3.7-.7.7H5.6s3-3.2 5.4-5.3c2.4-2 4.3-3.5 4.3-3.5h.5z" fill="#FFEAB6"/>
                <path d="M15.4 8.6l7.4 8.4c.1.1.4.1.4-.1V9.2c0-.3-.2-.6-.6-.6h-7.2z" fill="#2DDCE0"/>
                <path d="M3.2 20.5s-1 1.4-1.6 2.8h2.9c.3 0 .6-.3.6-.6V21c0-.3-.2-.5-.5-.5H3.2z" fill="#FFEAB6"/>
            </g>
        </g>
<g id="Barriere_1_">
	<rect x="1122.3" y="941.3" class="st31" width="96.3" height="2.5"/>
	<rect x="1211.7" y="941.3" class="st2" width="6.9" height="2.5"/>
	<rect x="1197.9" y="941.3" class="st2" width="6.9" height="2.5"/>
	<rect x="1184.2" y="941.3" class="st2" width="6.9" height="2.5"/>
	<rect x="1170.4" y="941.3" class="st2" width="6.9" height="2.5"/>
	<rect x="1156.7" y="941.3" class="st2" width="6.9" height="2.5"/>
	<rect x="1142.9" y="941.3" class="st2" width="6.9" height="2.5"/>
	<rect x="1129.2" y="941.3" class="st2" width="6.9" height="2.5"/>
	<rect x="1218.6" y="940.7" class="st2" width="14.4" height="3.8"/>
</g>
<g id="Barrière_x5F_Support">
	<g id="Calque_15">
		<g>
			<path class="st2" d="M1233.6,962.4h-5.9c-0.9,0-1.6-0.7-1.6-1.6v-20.9c0-0.9,0.7-1.6,1.6-1.6h2.2c3,0,5.3,2.4,5.3,5.3v17.2
				C1235.2,961.7,1234.5,962.4,1233.6,962.4z"/>
			<g>
				<rect x="1249.8" y="914.9" class="st2" width="2.9" height="45.3"/>

					<ellipse transform="matrix(0.7071 -0.7071 0.7071 0.7071 -290.8222 1156.9667)" class="st0" cx="1251.2" cy="929.5" rx="4.3" ry="4.3"/>

					<ellipse transform="matrix(0.7071 -0.7071 0.7071 0.7071 -278.0943 1151.6947)" class="st32" cx="1251.2" cy="911.5" rx="8.2" ry="8.2"/>
				<circle class="st33" cx="1251.2" cy="911.5" r="6.8"/>
				<circle class="st2" cx="1251.2" cy="911.5" r="2.5"/>
				<path class="st1" d="M1248.6,911.5c0.4-1.1,1.5-1.9,2.7-1.8c1.2,0,2.2,0.8,2.6,1.8c0.2-1-0.2-2-1-2.5s-1.8-0.6-2.6-0.3
					C1249.1,909.2,1248.4,910.3,1248.6,911.5z"/>
				<path class="st1" d="M1249,912.6c0.4,0.9,1.3,1.4,2.2,1.4c0.9,0,1.8-0.5,2.2-1.3c-0.3,1-1.2,1.7-2.2,1.7
					C1250.2,914.3,1249.3,913.6,1249,912.6z"/>
				<circle class="st32" cx="1251.2" cy="929.5" r="1.4"/>
				<circle class="st0" cx="1251.2" cy="929.5" r="0.6"/>
			</g>
		</g>
	</g>
	<g id="Barriere">
		<g>
			<path class="st26" d="M1025.8,944.5H663.2c-0.9,0-1.6-0.7-1.6-1.6l0,0c0-0.9,0.7-1.6,1.6-1.6h362.6c0.9,0,1.6,0.7,1.6,1.6l0,0
				C1027.4,943.8,1026.7,944.5,1025.8,944.5z"/>
			<path class="st26" d="M1022.4,965.4L1022.4,965.4c-0.9,0-1.7-0.8-1.7-1.7v-19.1c0-0.9,0.8-1.7,1.7-1.7l0,0c0.9,0,1.7,0.8,1.7,1.7
				v19.1C1024.1,964.6,1023.3,965.4,1022.4,965.4z"/>
			<path class="st26" d="M987.9,965.4L987.9,965.4c-0.9,0-1.7-0.8-1.7-1.7v-19.1c0-0.9,0.8-1.7,1.7-1.7l0,0c0.9,0,1.7,0.8,1.7,1.7
				v19.1C989.6,964.6,988.8,965.4,987.9,965.4z"/>
			<path class="st26" d="M953.4,965.4L953.4,965.4c-0.9,0-1.7-0.8-1.7-1.7v-19.1c0-0.9,0.8-1.7,1.7-1.7l0,0c0.9,0,1.7,0.8,1.7,1.7
				v19.1C955.1,964.6,954.3,965.4,953.4,965.4z"/>
			<path class="st26" d="M918.9,965.4L918.9,965.4c-0.9,0-1.7-0.8-1.7-1.7v-19.1c0-0.9,0.8-1.7,1.7-1.7l0,0c0.9,0,1.7,0.8,1.7,1.7
				v19.1C920.6,964.6,919.8,965.4,918.9,965.4z"/>
			<path class="st26" d="M884.4,965.4L884.4,965.4c-0.9,0-1.7-0.8-1.7-1.7v-19.1c0-0.9,0.8-1.7,1.7-1.7l0,0c0.9,0,1.7,0.8,1.7,1.7
				v19.1C886.1,964.6,885.3,965.4,884.4,965.4z"/>
			<path class="st26" d="M849.9,965.4L849.9,965.4c-0.9,0-1.7-0.8-1.7-1.7v-19.1c0-0.9,0.8-1.7,1.7-1.7l0,0c0.9,0,1.7,0.8,1.7,1.7
				v19.1C851.6,964.6,850.8,965.4,849.9,965.4z"/>
			<path class="st26" d="M815.4,965.4L815.4,965.4c-0.9,0-1.7-0.8-1.7-1.7v-19.1c0-0.9,0.8-1.7,1.7-1.7l0,0c0.9,0,1.7,0.8,1.7,1.7
				v19.1C817.1,964.6,816.3,965.4,815.4,965.4z"/>
			<path class="st26" d="M780.9,965.4L780.9,965.4c-0.9,0-1.7-0.8-1.7-1.7v-19.1c0-0.9,0.8-1.7,1.7-1.7l0,0c0.9,0,1.7,0.8,1.7,1.7
				v19.1C782.6,964.6,781.8,965.4,780.9,965.4z"/>
			<path class="st26" d="M746.4,965.4L746.4,965.4c-0.9,0-1.7-0.8-1.7-1.7v-19.1c0-0.9,0.8-1.7,1.7-1.7l0,0c0.9,0,1.7,0.8,1.7,1.7
				v19.1C748.1,964.6,747.3,965.4,746.4,965.4z"/>
			<path class="st26" d="M711.9,965.4L711.9,965.4c-0.9,0-1.7-0.8-1.7-1.7v-19.1c0-0.9,0.8-1.7,1.7-1.7l0,0c0.9,0,1.7,0.8,1.7,1.7
				v19.1C713.6,964.6,712.8,965.4,711.9,965.4z"/>
			<path class="st26" d="M677.4,965.4L677.4,965.4c-0.9,0-1.7-0.8-1.7-1.7v-19.1c0-0.9,0.8-1.7,1.7-1.7l0,0c0.9,0,1.7,0.8,1.7,1.7
				v19.1C679.1,964.6,678.3,965.4,677.4,965.4z"/>
		</g>
		<g>
			<path class="st26" d="M661.8,944.5H299.2c-0.9,0-1.6-0.7-1.6-1.6l0,0c0-0.9,0.7-1.6,1.6-1.6h362.6c0.9,0,1.6,0.7,1.6,1.6l0,0
				C663.5,943.8,662.7,944.5,661.8,944.5z"/>
			<path class="st26" d="M658.5,965.4L658.5,965.4c-0.9,0-1.7-0.8-1.7-1.7v-19.1c0-0.9,0.8-1.7,1.7-1.7l0,0c0.9,0,1.7,0.8,1.7,1.7
				v19.1C660.1,964.6,659.4,965.4,658.5,965.4z"/>
			<path class="st26" d="M624,965.4L624,965.4c-0.9,0-1.7-0.8-1.7-1.7v-19.1c0-0.9,0.8-1.7,1.7-1.7l0,0c0.9,0,1.7,0.8,1.7,1.7v19.1
				C625.6,964.6,624.9,965.4,624,965.4z"/>
			<path class="st26" d="M589.5,965.4L589.5,965.4c-0.9,0-1.7-0.8-1.7-1.7v-19.1c0-0.9,0.8-1.7,1.7-1.7l0,0c0.9,0,1.7,0.8,1.7,1.7
				v19.1C591.1,964.6,590.4,965.4,589.5,965.4z"/>
			<path class="st26" d="M555,965.4L555,965.4c-0.9,0-1.7-0.8-1.7-1.7v-19.1c0-0.9,0.8-1.7,1.7-1.7l0,0c0.9,0,1.7,0.8,1.7,1.7v19.1
				C556.6,964.6,555.9,965.4,555,965.4z"/>
			<path class="st26" d="M520.5,965.4L520.5,965.4c-0.9,0-1.7-0.8-1.7-1.7v-19.1c0-0.9,0.8-1.7,1.7-1.7l0,0c0.9,0,1.7,0.8,1.7,1.7
				v19.1C522.1,964.6,521.4,965.4,520.5,965.4z"/>
			<path class="st26" d="M486,965.4L486,965.4c-0.9,0-1.7-0.8-1.7-1.7v-19.1c0-0.9,0.8-1.7,1.7-1.7l0,0c0.9,0,1.7,0.8,1.7,1.7v19.1
				C487.6,964.6,486.9,965.4,486,965.4z"/>
			<path class="st26" d="M451.5,965.4L451.5,965.4c-0.9,0-1.7-0.8-1.7-1.7v-19.1c0-0.9,0.8-1.7,1.7-1.7l0,0c0.9,0,1.7,0.8,1.7,1.7
				v19.1C453.1,964.6,452.4,965.4,451.5,965.4z"/>
			<path class="st26" d="M417,965.4L417,965.4c-0.9,0-1.7-0.8-1.7-1.7v-19.1c0-0.9,0.8-1.7,1.7-1.7l0,0c0.9,0,1.7,0.8,1.7,1.7v19.1
				C418.6,964.6,417.9,965.4,417,965.4z"/>
			<path class="st26" d="M382.5,965.4L382.5,965.4c-0.9,0-1.7-0.8-1.7-1.7v-19.1c0-0.9,0.8-1.7,1.7-1.7l0,0c0.9,0,1.7,0.8,1.7,1.7
				v19.1C384.1,964.6,383.4,965.4,382.5,965.4z"/>
			<path class="st26" d="M348,965.4L348,965.4c-0.9,0-1.7-0.8-1.7-1.7v-19.1c0-0.9,0.8-1.7,1.7-1.7l0,0c0.9,0,1.7,0.8,1.7,1.7v19.1
				C349.6,964.6,348.9,965.4,348,965.4z"/>
			<path class="st26" d="M313.5,965.4L313.5,965.4c-0.9,0-1.7-0.8-1.7-1.7v-19.1c0-0.9,0.8-1.7,1.7-1.7l0,0c0.9,0,1.7,0.8,1.7,1.7
				v19.1C315.1,964.6,314.4,965.4,313.5,965.4z"/>
		</g>
		<g>
			<path class="st26" d="M297.9,944.5H-64.7c-0.9,0-1.6-0.7-1.6-1.6l0,0c0-0.9,0.7-1.6,1.6-1.6h362.6c0.9,0,1.6,0.7,1.6,1.6l0,0
				C299.5,943.8,298.8,944.5,297.9,944.5z"/>
			<path class="st26" d="M294.5,965.4L294.5,965.4c-0.9,0-1.7-0.8-1.7-1.7v-19.1c0-0.9,0.8-1.7,1.7-1.7l0,0c0.9,0,1.7,0.8,1.7,1.7
				v19.1C296.2,964.6,295.4,965.4,294.5,965.4z"/>
			<path class="st26" d="M260,965.4L260,965.4c-0.9,0-1.7-0.8-1.7-1.7v-19.1c0-0.9,0.8-1.7,1.7-1.7l0,0c0.9,0,1.7,0.8,1.7,1.7v19.1
				C261.7,964.6,260.9,965.4,260,965.4z"/>
			<path class="st26" d="M225.5,965.4L225.5,965.4c-0.9,0-1.7-0.8-1.7-1.7v-19.1c0-0.9,0.8-1.7,1.7-1.7l0,0c0.9,0,1.7,0.8,1.7,1.7
				v19.1C227.2,964.6,226.4,965.4,225.5,965.4z"/>
			<path class="st26" d="M191,965.4L191,965.4c-0.9,0-1.7-0.8-1.7-1.7v-19.1c0-0.9,0.8-1.7,1.7-1.7l0,0c0.9,0,1.7,0.8,1.7,1.7v19.1
				C192.7,964.6,191.9,965.4,191,965.4z"/>
			<path class="st26" d="M156.5,965.4L156.5,965.4c-0.9,0-1.7-0.8-1.7-1.7v-19.1c0-0.9,0.8-1.7,1.7-1.7l0,0c0.9,0,1.7,0.8,1.7,1.7
				v19.1C158.2,964.6,157.4,965.4,156.5,965.4z"/>
			<path class="st26" d="M122,965.4L122,965.4c-0.9,0-1.7-0.8-1.7-1.7v-19.1c0-0.9,0.8-1.7,1.7-1.7l0,0c0.9,0,1.7,0.8,1.7,1.7v19.1
				C123.7,964.6,122.9,965.4,122,965.4z"/>
			<path class="st26" d="M87.5,965.4L87.5,965.4c-0.9,0-1.7-0.8-1.7-1.7v-19.1c0-0.9,0.8-1.7,1.7-1.7l0,0c0.9,0,1.7,0.8,1.7,1.7
				v19.1C89.2,964.6,88.4,965.4,87.5,965.4z"/>
			<path class="st26" d="M53,965.4L53,965.4c-0.9,0-1.7-0.8-1.7-1.7v-19.1c0-0.9,0.8-1.7,1.7-1.7l0,0c0.9,0,1.7,0.8,1.7,1.7v19.1
				C54.7,964.6,53.9,965.4,53,965.4z"/>
			<path class="st26" d="M18.5,965.4L18.5,965.4c-0.9,0-1.7-0.8-1.7-1.7v-19.1c0-0.9,0.8-1.7,1.7-1.7l0,0c0.9,0,1.7,0.8,1.7,1.7
				v19.1C20.2,964.6,19.4,965.4,18.5,965.4z"/>
		</g>
		<g>
			<path class="st26" d="M1616.8,944.5h-362.6c-0.9,0-1.6-0.7-1.6-1.6l0,0c0-0.9,0.7-1.6,1.6-1.6h362.6c0.9,0,1.6,0.7,1.6,1.6l0,0
				C1618.4,943.8,1617.7,944.5,1616.8,944.5z"/>
			<path class="st26" d="M1613.4,965.4L1613.4,965.4c-0.9,0-1.7-0.8-1.7-1.7v-19.1c0-0.9,0.8-1.7,1.7-1.7l0,0c0.9,0,1.7,0.8,1.7,1.7
				v19.1C1615.1,964.6,1614.3,965.4,1613.4,965.4z"/>
			<path class="st26" d="M1578.9,965.4L1578.9,965.4c-0.9,0-1.7-0.8-1.7-1.7v-19.1c0-0.9,0.8-1.7,1.7-1.7l0,0c0.9,0,1.7,0.8,1.7,1.7
				v19.1C1580.6,964.6,1579.8,965.4,1578.9,965.4z"/>
			<path class="st26" d="M1544.4,965.4L1544.4,965.4c-0.9,0-1.7-0.8-1.7-1.7v-19.1c0-0.9,0.8-1.7,1.7-1.7l0,0c0.9,0,1.7,0.8,1.7,1.7
				v19.1C1546.1,964.6,1545.3,965.4,1544.4,965.4z"/>
			<path class="st26" d="M1509.9,965.4L1509.9,965.4c-0.9,0-1.7-0.8-1.7-1.7v-19.1c0-0.9,0.8-1.7,1.7-1.7l0,0c0.9,0,1.7,0.8,1.7,1.7
				v19.1C1511.6,964.6,1510.8,965.4,1509.9,965.4z"/>
			<path class="st26" d="M1475.4,965.4L1475.4,965.4c-0.9,0-1.7-0.8-1.7-1.7v-19.1c0-0.9,0.8-1.7,1.7-1.7l0,0c0.9,0,1.7,0.8,1.7,1.7
				v19.1C1477.1,964.6,1476.3,965.4,1475.4,965.4z"/>
			<path class="st26" d="M1440.9,965.4L1440.9,965.4c-0.9,0-1.7-0.8-1.7-1.7v-19.1c0-0.9,0.8-1.7,1.7-1.7l0,0c0.9,0,1.7,0.8,1.7,1.7
				v19.1C1442.6,964.6,1441.8,965.4,1440.9,965.4z"/>
			<path class="st26" d="M1406.4,965.4L1406.4,965.4c-0.9,0-1.7-0.8-1.7-1.7v-19.1c0-0.9,0.8-1.7,1.7-1.7l0,0c0.9,0,1.7,0.8,1.7,1.7
				v19.1C1408.1,964.6,1407.3,965.4,1406.4,965.4z"/>
			<path class="st26" d="M1371.9,965.4L1371.9,965.4c-0.9,0-1.7-0.8-1.7-1.7v-19.1c0-0.9,0.8-1.7,1.7-1.7l0,0c0.9,0,1.7,0.8,1.7,1.7
				v19.1C1373.6,964.6,1372.8,965.4,1371.9,965.4z"/>
			<path class="st26" d="M1337.4,965.4L1337.4,965.4c-0.9,0-1.7-0.8-1.7-1.7v-19.1c0-0.9,0.8-1.7,1.7-1.7l0,0c0.9,0,1.7,0.8,1.7,1.7
				v19.1C1339.1,964.6,1338.3,965.4,1337.4,965.4z"/>
			<path class="st26" d="M1302.9,965.4L1302.9,965.4c-0.9,0-1.7-0.8-1.7-1.7v-19.1c0-0.9,0.8-1.7,1.7-1.7l0,0c0.9,0,1.7,0.8,1.7,1.7
				v19.1C1304.6,964.6,1303.8,965.4,1302.9,965.4z"/>
			<path class="st26" d="M1268.4,965.4L1268.4,965.4c-0.9,0-1.7-0.8-1.7-1.7v-19.1c0-0.9,0.8-1.7,1.7-1.7l0,0c0.9,0,1.7,0.8,1.7,1.7
				v19.1C1270.1,964.6,1269.3,965.4,1268.4,965.4z"/>
		</g>
		<g>
			<path class="st26" d="M1982.6,944.5H1620c-0.9,0-1.6-0.7-1.6-1.6l0,0c0-0.9,0.7-1.6,1.6-1.6h362.6c0.9,0,1.6,0.7,1.6,1.6l0,0
				C1984.2,943.8,1983.5,944.5,1982.6,944.5z"/>
			<path class="st26" d="M1910.2,965.4L1910.2,965.4c-0.9,0-1.7-0.8-1.7-1.7v-19.1c0-0.9,0.8-1.7,1.7-1.7l0,0c0.9,0,1.7,0.8,1.7,1.7
				v19.1C1911.9,964.6,1911.2,965.4,1910.2,965.4z"/>
			<path class="st26" d="M1875.7,965.4L1875.7,965.4c-0.9,0-1.7-0.8-1.7-1.7v-19.1c0-0.9,0.8-1.7,1.7-1.7l0,0c0.9,0,1.7,0.8,1.7,1.7
				v19.1C1877.4,964.6,1876.7,965.4,1875.7,965.4z"/>
			<path class="st26" d="M1841.2,965.4L1841.2,965.4c-0.9,0-1.7-0.8-1.7-1.7v-19.1c0-0.9,0.8-1.7,1.7-1.7l0,0c0.9,0,1.7,0.8,1.7,1.7
				v19.1C1842.9,964.6,1842.2,965.4,1841.2,965.4z"/>
			<path class="st26" d="M1806.7,965.4L1806.7,965.4c-0.9,0-1.7-0.8-1.7-1.7v-19.1c0-0.9,0.8-1.7,1.7-1.7l0,0c0.9,0,1.7,0.8,1.7,1.7
				v19.1C1808.4,964.6,1807.7,965.4,1806.7,965.4z"/>
			<path class="st26" d="M1772.2,965.4L1772.2,965.4c-0.9,0-1.7-0.8-1.7-1.7v-19.1c0-0.9,0.8-1.7,1.7-1.7l0,0c0.9,0,1.7,0.8,1.7,1.7
				v19.1C1773.9,964.6,1773.2,965.4,1772.2,965.4z"/>
			<path class="st26" d="M1737.7,965.4L1737.7,965.4c-0.9,0-1.7-0.8-1.7-1.7v-19.1c0-0.9,0.8-1.7,1.7-1.7l0,0c0.9,0,1.7,0.8,1.7,1.7
				v19.1C1739.4,964.6,1738.7,965.4,1737.7,965.4z"/>
			<path class="st26" d="M1703.2,965.4L1703.2,965.4c-0.9,0-1.7-0.8-1.7-1.7v-19.1c0-0.9,0.8-1.7,1.7-1.7l0,0c0.9,0,1.7,0.8,1.7,1.7
				v19.1C1704.9,964.6,1704.2,965.4,1703.2,965.4z"/>
			<path class="st26" d="M1668.7,965.4L1668.7,965.4c-0.9,0-1.7-0.8-1.7-1.7v-19.1c0-0.9,0.8-1.7,1.7-1.7l0,0c0.9,0,1.7,0.8,1.7,1.7
				v19.1C1670.4,964.6,1669.7,965.4,1668.7,965.4z"/>
			<path class="st26" d="M1634.2,965.4L1634.2,965.4c-0.9,0-1.7-0.8-1.7-1.7v-19.1c0-0.9,0.8-1.7,1.7-1.7l0,0c0.9,0,1.7,0.8,1.7,1.7
				v19.1C1635.9,964.6,1635.2,965.4,1634.2,965.4z"/>
		</g>
	</g>
</g>
<animateTransform
             xlink:href="#train"
             attributeName="transform"
             type="translate"
             dur="20s"
             values="-460 925 ; -460 925 ; 1920 925 ; 1920 925 ; -460 925"
             keyTimes="0;0.2;0.3;0.75;1"
             repeatCount="indefinite"
             id="train-animation"></animateTransform>
</svg>
