<?xml version="1.0" encoding="utf-8"?>
<!-- Generator: Adobe Illustrator 22.0.1, SVG Export Plug-In . SVG Version: 6.00 Build 0)  -->
<svg version="1.1" id="Calque_1" xmlns="http://www.w3.org/2000/svg" xmlns:xlink="http://www.w3.org/1999/xlink" x="0px" y="0px"
	 viewBox="0 0 57.7 50.3" style="enable-background:new 0 0 57.7 50.3;" xml:space="preserve">
<style type="text/css">
	.st0{fill:#020202;}
</style>
<path class="st0" d="M55,28.7v-0.6c0-3.2-2.1-6-5.1-6.9L47.2,6H48c0.6,0,1-0.4,1-1c0-2.8-2.2-5-5-5H27c-2.8,0-5,2.2-5,5
	c0,0.6,0.4,1,1,1h0.8l-2.6,14H17V8c0-0.6-0.4-1-1-1s-1,0.4-1,1v12H6.1c-1.4,0-2.7,0.6-3.7,1.6S1,24,1.1,25.4l0.8,9.5
	C0.7,36.5,0,38.4,0,40.5C0,45.7,4.3,50,9.5,50s9.5-4.3,9.5-9.5c0-0.5-0.1-1-0.1-1.5h13.3c1,6.2,6.3,11,12.8,11c7.2,0,13-5.8,13-13
	C58,33.8,56.9,31,55,28.7z M27,2h17c1.3,0,2.4,0.8,2.8,2H24.2C24.6,2.8,25.7,2,27,2z M3.9,23c0.3-0.3,0.7-0.6,1.1-0.8v9.9
	c-0.5,0.2-0.9,0.5-1.3,0.8l-0.6-7.7C3,24.4,3.3,23.6,3.9,23z M9.5,48C5.4,48,2,44.6,2,40.5S5.4,33,9.5,33s7.5,3.4,7.5,7.5
	S13.6,48,9.5,48z M18.3,37c-1.4-3.5-4.8-6-8.8-6c-0.9,0-1.7,0.1-2.5,0.3V22h15c0.5,0,0.9-0.3,1-0.8L25.8,6h19.3L48,22.2
	c0.1,0.4,0.4,0.7,0.8,0.8c1.9,0.4,3.4,1.8,4,3.6C50.6,25,47.9,24,45,24c-7.2,0-13,5.8-13,13H18.3z M45,48c-6.1,0-11-4.9-11-11
	s4.9-11,11-11s11,4.9,11,11S51.1,48,45,48z M45,30c-3.9,0-7,3.1-7,7s3.1,7,7,7s7-3.1,7-7S48.9,30,45,30z M45,42c-2.8,0-5-2.2-5-5
	s2.2-5,5-5c2.8,0,5,2.2,5,5C50,39.8,47.8,42,45,42z M9.5,36C7,36,5,38,5,40.5C5,43,7,45,9.5,45s4.5-2,4.5-4.5S12,36,9.5,36z M9.5,43
	C8.1,43,7,41.9,7,40.5S8.1,38,9.5,38s2.5,1.1,2.5,2.5S10.9,43,9.5,43z M45.8,21.7c0.2-0.2,0.3-0.5,0.2-0.8l-2-13
	C43.9,7.4,43.5,7,43,7H28c-0.5,0-0.9,0.4-1,0.8l-2,13c0,0.3,0,0.6,0.2,0.8c0.2,0.2,0.5,0.3,0.8,0.3h19C45.3,22,45.6,21.9,45.8,21.7z
	 M27.2,20l1.7-11h13.3l1.7,11H27.2z M5,18c0-0.6,0.4-1,1-1h4c0.6,0,1,0.4,1,1s-0.4,1-1,1H6C5.4,19,5,18.6,5,18z"/>
</svg>
