<?xml version="1.0" encoding="utf-8"?>
<!-- Generator: Adobe Illustrator 22.0.1, SVG Export Plug-In . SVG Version: 6.00 Build 0)  -->
<svg version="1.1" id="Calque_1" xmlns="http://www.w3.org/2000/svg" xmlns:xlink="http://www.w3.org/1999/xlink" x="0px" y="0px"
	 viewBox="0 0 34.7 39.1" style="enable-background:new 0 0 34.7 39.1;" xml:space="preserve">
<path d="M33.7,27c0.3,0,0.5-0.1,0.7-0.3c0.4-0.4,0.4-1,0-1.4l-3.1-3.1c-0.4-0.4-1-0.4-1.4,0l-3.1,3.1c-0.4,0.4-0.4,1,0,1.4
	s1,0.4,1.4,0l1.4-1.4c-0.8,5.7-5.5,10.2-11.3,10.7V13H23c0.6,0,1-0.4,1-1s-0.4-1-1-1h-4.6V8.3c1.8-0.5,3.2-2.1,3.2-4.1
	c0-2.3-1.9-4.2-4.2-4.2s-4.2,1.9-4.2,4.2c0,2,1.4,3.6,3.2,4.1V11h-4.6c-0.6,0-1,0.4-1,1s0.4,1,1,1h4.6v23c-5.8-0.5-10.5-5-11.3-10.7
	l1.4,1.4C6.6,26.9,6.9,27,7.1,27s0.5-0.1,0.7-0.3c0.4-0.4,0.4-1,0-1.4l-3.1-3.1c-0.4-0.4-1-0.4-1.4,0l-3.1,3.1c-0.4,0.4-0.4,1,0,1.4
	s1,0.4,1.4,0L3,25.4c0.9,7.1,6.9,12.7,14.3,12.7s13.5-5.6,14.3-12.7l1.3,1.3C33.2,26.9,33.5,27,33.7,27z M15.1,4.2
	c0-1.2,1-2.2,2.2-2.2s2.2,1,2.2,2.2s-1,2.2-2.2,2.2S15.1,5.4,15.1,4.2z"/>
</svg>
