<?xml version="1.0" encoding="utf-8"?>
<!-- Generator: Adobe Illustrator 22.0.1, SVG Export Plug-In . SVG Version: 6.00 Build 0)  -->
<svg version="1.1" id="Calque_1" xmlns="http://www.w3.org/2000/svg" xmlns:xlink="http://www.w3.org/1999/xlink" x="0px" y="0px"
	 viewBox="0 0 23 24.2" style="enable-background:new 0 0 23 24.2;" xml:space="preserve">
<path d="M20,20h-0.6L13.5,0.4C13.4,0.1,13.2,0,13,0h-3C9.8,0,9.6,0.1,9.5,0.4L3.6,20H3c-1.5,0-2.5,2.3-2.5,3.5C0.5,23.8,0.7,24,1,24
	h21c0.3,0,0.5-0.2,0.5-0.5C22.5,22.3,21.5,20,20,20z M10.4,1h2.3l1.2,4H9.2L10.4,1z M8,9C8,9,8,9,8,9l7,0c0,0,0,0,0,0l1.2,4H6.8L8,9
	z M5.6,17h11.9l0.9,3H4.7L5.6,17z M1.6,23c0.2-0.9,0.8-2,1.4-2h17c0.6,0,1.3,1.1,1.4,2H1.6z"/>
</svg>
