<?xml version="1.0" encoding="utf-8"?>
<!-- Generator: Adobe Illustrator 22.0.1, SVG Export Plug-In . SVG Version: 6.00 Build 0)  -->
<svg version="1.1" id="Calque_1" xmlns="http://www.w3.org/2000/svg" xmlns:xlink="http://www.w3.org/1999/xlink" x="0px" y="0px"
	 viewBox="0 0 79.3 67.2" style="enable-background:new 0 0 79.3 67.2;" xml:space="preserve">
<g>
	<path d="M79,20C79,20,79,19.9,79,20c0-0.2,0-0.2,0-0.3l0,0v-0.1c0-0.1,0-0.1,0-0.2c0-0.1,0-0.1,0-0.2v-0.1c0-0.1-0.1-0.1-0.1-0.2
		c0,0,0,0,0-0.1s-0.1-0.1-0.1-0.2c0,0,0,0,0-0.1c-0.2,0.1-0.3,0-0.4,0l0,0c-0.2-0.2-0.5-0.3-0.9-0.3h-8l-3-4.3l3-4.3h7.2l0,0
		c0.5,0,1-0.3,1.3-0.7c0.3-0.4,0.3-1,0.1-1.5C75.6,2.6,70.5-0.4,65-0.3c-7.3,0.2-13.3,6.1-13.7,13.5v0.2c-0.2,4.5-1.9,8.7-5,11.7
		l-3.1,3.1l-3-2.2L26.8,12.7l0.2-0.2l1.7-1.7c2.6-2.6,4-2.6,7.2-2.6c0.7,0,1.4,0,2.2,0c1.1,0,2.1-0.8,2.4-1.8L41,4.8
		c0.2-0.7,0.1-1.4-0.2-2s-0.9-1.1-1.6-1.2C33.5,0,27.4,0.7,22.1,3.4l-3.3,0.2l-1.2,1c-0.6-0.4-1.4-0.4-1.9,0.1L12.4,8
		c-0.5,0.5-0.6,1.3-0.1,1.9l-3.5,3.5c-0.5,0.5-0.7,1.1-0.7,1.7c0,0.4,0.1,0.9,0.4,1.2l-1,1c-1.6-1.4-4-1.5-5.6-0.2
		C1,17.9,0.4,19,0.3,20.2c-0.1,1.2,0.4,2.4,1.2,3.2l5.8,5.8c0.8,0.8,1.9,1.3,3,1.3c0.1,0,0.1,0,0.2,0c1.2-0.1,2.3-0.6,3.1-1.6
		c1.3-1.6,1.2-4-0.2-5.6l1-1c0.4,0.2,0.8,0.3,1.2,0.3c0.7,0,1.3-0.3,1.8-0.7l2.4-2.4l13.3,13.3l0.7,1.5c0.3,0.7,0.6,1.4,1,2.1
		l-18,18c-2.8,2.8-2.8,7.3,0,10.1c1.4,1.4,3.2,2.1,5,2.1s3.6-0.7,5-2.1L43,48.3c0.8,0.8,1.6,1.6,2.4,2.4l0.2,0.1
		c5.7,3.9,10.6,8.7,14.6,14.3c0.8,1.2,2.2,1.9,3.7,2.1c0.1,0,0.3,0,0.4,0c1.4,0,2.8-0.6,3.8-1.6l7.2-7.2l-2.2-2.7
		c-5.7-6.8-11.9-13-18.6-18.8l0.5-0.5c2.6-2.6,6.1-4,9.8-4l0,0l0,0c0.4,0,0.8-0.2,1.1-0.4c0.3-0.3,0.4-0.7,0.4-1.1v-2.3
		c5.5-0.1,10.4-3.4,12.7-8.4l0,0L79,20C79,20.1,79,20.1,79,20z M15.6,19.6c-0.4-0.2-0.8-0.3-1.2-0.4c-0.7,0-1.3,0.2-1.7,0.7L11,21.6
		c-0.5,0.5-0.7,1.1-0.7,1.7c0,0.6,0.3,1.3,0.7,1.7l0.2,0.2c0.5,0.5,0.6,1.3,0.2,1.8c-0.2,0.3-0.6,0.5-0.9,0.5c-0.4,0-0.7-0.1-1-0.4
		l-6-5.6c-0.3-0.3-0.4-0.6-0.4-1s0.2-0.7,0.5-0.9l0,0c0.2-0.2,0.5-0.3,0.8-0.3c0.4,0,0.7,0.1,1,0.4l0.2,0.2c0.9,0.9,2.5,0.9,3.4,0
		l1.7-1.7c0.5-0.5,0.7-1.1,0.7-1.8c0-0.4-0.1-0.9-0.3-1.2L20,6.3l2.8-0.1L23.1,6c4.5-2.4,9.8-3.1,14.7-1.8l-0.3,0.9
		c-0.7,0-1.3,0-1.8,0c-3.5,0-5.8,0-9.2,3.5l-1.9,1.9l0,0l-6.8,6.8L15.6,19.6z M24.7,14.8l12.4,12.4l-2.5,2.5l-0.2,0.2L22,17.5
		L24.7,14.8z M24.8,62.5c-0.8,0.8-1.8,1.2-2.9,1.2c-1.1,0-2.1-0.4-2.9-1.2c-0.8-0.8-1.2-1.8-1.2-2.9s0.4-2.1,1.2-2.9l17.3-17.3
		c1.4,2.4,3,4.7,4.8,6.8L24.8,62.5z M70.7,57.8l0.5,0.6L66,63.6c-0.5,0.5-1.2,0.7-1.8,0.7c-0.6,0-1.1-0.3-1.5-0.8
		c-2.9-4-6.2-7.7-10-10.9l2.5-0.7c0.8-0.2,1.2-1.1,1-1.9s-1.1-1.2-1.9-1l-4.4,1.3c-0.8-0.6-1.6-1.2-2.5-1.8
		c-0.2-0.2-0.4-0.4-0.5-0.5l3.4-1c0.8-0.2,1.2-1.1,1-1.9c-0.2-0.8-1.1-1.2-1.9-1l-4.9,1.5c-0.8-0.8-1.5-1.7-2.2-2.6l3.1-0.9
		c0.8-0.2,1.2-1.1,1-1.9c-0.2-0.8-1.1-1.2-1.9-1l-4.1,1.2c-1.5-2.2-2.8-4.6-3.9-7.2l-0.4-0.9l1.6-1.6l1.6-1.6l2.5,1.8
		C52.6,38.7,62.3,47.7,70.7,57.8z M63.2,29.6c-3.9,0.4-7.6,2.1-10.4,4.9l-0.7,0.7c-2.1-1.8-4.3-3.5-6.5-5.1l2.8-2.8
		c3.6-3.6,5.6-8.4,5.8-13.7v-0.1c0.3-5.8,5-10.4,10.8-10.6c3.4-0.1,6.6,1.4,8.8,3.9h-5.1l0,0c-0.5,0-1,0.2-1.2,0.6l-4,5.8
		c-0.1,0.1-0.2,0.3-0.2,0.4l0,0c0,0.1-0.1,0.3-0.1,0.4l0,0L63.2,29.6L63.2,29.6z M66.2,25.7v-7l1.7,2.5h7
		C72.9,23.9,69.7,25.6,66.2,25.7z"/>
	<path d="M60.2,17h-3.3c-0.6,0-1.1,0.5-1.1,1.1v7.7c0,0.6,0.5,1.1,1.1,1.1h3.3c0.6,0,1.1-0.5,1.1-1.1v-7.7
		C61.3,17.5,60.8,17,60.2,17z M58,21.7l1.1-0.6v0.7L58,22.3V21.7z M59.1,20.2L58,20.8v-0.7l1.1-0.6V20.2z M58,23.1l1.1-0.6v0.7
		L58,23.8V23.1z M58.1,19.2L58,19.3v-0.1H58.1z M58,24.7v-0.1l1.1-0.6v0.7H58z"/>
	<path d="M32.7,47c-0.6-0.6-1.5-0.6-2.1,0l-2.7,2.7c-0.6,0.6-0.6,1.5,0,2.1c0.3,0.3,0.7,0.4,1.1,0.4s0.8-0.1,1.1-0.4l2.7-2.7
		C33.2,48.6,33.2,47.6,32.7,47z"/>
	<circle cx="22.3" cy="59.1" r="2.5"/>
</g>
</svg>
