<?xml version="1.0" encoding="utf-8"?>
<!-- Generator: Adobe Illustrator 22.0.1, SVG Export Plug-In . SVG Version: 6.00 Build 0)  -->
<svg version="1.1" id="Calque_1" xmlns="http://www.w3.org/2000/svg" xmlns:xlink="http://www.w3.org/1999/xlink" x="0px" y="0px"
	 viewBox="0 0 61.2 61" style="enable-background:new 0 0 61.2 61;" xml:space="preserve">
<g>
	<path d="M53.9-0.1h-46c-4.1,0-7.5,3.4-7.5,7.5v46c0,4.1,3.4,7.5,7.5,7.5h46c4.1,0,7.5-3.4,7.5-7.5v-46C61.4,3.2,58-0.1,53.9-0.1z
		 M7.9,2.9h46c2.5,0,4.5,2,4.5,4.5v46c0,2.5-2,4.5-4.5,4.5h-46c-2.5,0-4.5-2-4.5-4.5v-46C3.4,4.9,5.4,2.9,7.9,2.9z"/>
	<path d="M9.4,12.9L9.4,12.9c2.2,0,4-1.8,4-4s-1.8-4-4-4s-4,1.8-4,4C5.4,11.1,7.2,12.9,9.4,12.9z M9.4,7.9c0.6,0,1,0.4,1,1
		s-0.4,1-1,1s-1-0.4-1-1C8.4,8.3,8.8,7.9,9.4,7.9z"/>
	<path d="M52.4,12.9L52.4,12.9c2.2,0,4-1.8,4-4s-1.8-4-4-4s-4,1.8-4,4C48.4,11.1,50.2,12.9,52.4,12.9z M52.4,9.9c-0.6,0-1-0.4-1-1
		c0-0.6,0.4-1,1-1c0.6,0,1,0.4,1,1S52.9,9.9,52.4,9.9z"/>
	<path d="M9.4,47.9L9.4,47.9c-2.2,0-4,1.8-4,4s1.8,4,4,4s4-1.8,4-4C13.4,49.7,11.6,47.9,9.4,47.9z M9.4,52.9c-0.6,0-1-0.4-1-1
		c0-0.6,0.4-1,1-1s1,0.4,1,1C10.4,52.4,9.9,52.9,9.4,52.9z"/>
	<path d="M52.4,47.9L52.4,47.9c-2.2,0-4,1.8-4,4s1.8,4,4,4s4-1.8,4-4C56.4,49.7,54.6,47.9,52.4,47.9z M52.4,50.9c0.6,0,1,0.4,1,1
		c0,0.6-0.4,1-1,1c-0.6,0-1-0.4-1-1C51.4,51.3,51.8,50.9,52.4,50.9z"/>
	<path d="M4.5,23.9c0.2,0.6,0.8,0.9,1.4,0.9c0,0,0,0,0,0c0.4,0,0.8-0.2,1.1-0.4l18-18c0.6-0.6,0.6-1.5,0-2.1c-0.6-0.6-1.5-0.6-2.1,0
		l-18,18C4.4,22.7,4.2,23.4,4.5,23.9z"/>
	<path d="M4.5,30.9c0.2,0.6,0.8,0.9,1.4,0.9c0,0,0,0,0,0c0.4,0,0.8-0.2,1.1-0.4l25-25c0.6-0.6,0.6-1.5,0-2.1c-0.6-0.6-1.5-0.6-2.1,0
		l-25,25C4.4,29.7,4.2,30.4,4.5,30.9z"/>
	<path d="M54.8,36.3l-18,18c-0.4,0.4-0.5,0.9-0.4,1.5c0.1,0.5,0.5,0.9,1.1,1.1c0.1,0,0.3,0,0.4,0c0.4,0,0.8-0.2,1.1-0.4l18-18
		c0.6-0.6,0.6-1.5,0-2.1C56.3,35.7,55.4,35.7,54.8,36.3z"/>
	<path d="M54.8,29.3l-25,25c-0.4,0.4-0.5,0.9-0.4,1.5c0.1,0.5,0.5,0.9,1.1,1.1c0.1,0,0.3,0,0.4,0c0.4,0,0.8-0.2,1.1-0.4l25-25
		c0.6-0.6,0.6-1.5,0-2.1C56.3,28.7,55.4,28.7,54.8,29.3z"/>
</g>
</svg>
