<?xml version="1.0" encoding="utf-8"?>
<!-- Generator: Adobe Illustrator 22.0.1, SVG Export Plug-In . SVG Version: 6.00 Build 0)  -->
<svg version="1.1" id="Calque_1" xmlns="http://www.w3.org/2000/svg" xmlns:xlink="http://www.w3.org/1999/xlink" x="0px" y="0px"
	 viewBox="0 0 97.9 97.9" style="enable-background:new 0 0 97.9 97.9;" xml:space="preserve">
<g>
	<path d="M39.2,34.3l-2.8,1.2c-2.2,0.9-3.5,3.4-2.9,5.7c0,0,0.4,1.8,1.3,3.8c0.8,2,1.8,3.6,1.8,3.6c0.9,1.4,2.5,2.4,4.3,2.4
		c0.6,0,1.3-0.1,1.8-0.4l2.8-1.2c0.2-0.1,0.6,0.1,0.8,0.2l1.8,1.8l0.1,0.1c0.1,0.1,0.2,0.6,0.2,0.7l-1.2,2.9c-0.9,2.3,0,4.9,2.3,6.1
		l6.9,2.9l0.2,0.1c0.4,0.1,0.9,0.2,1.4,0.2c1.9,0,3.7-1.2,4.5-2.9l1.2-2.9c0.1-0.1,0.4-0.4,0.6-0.4l0.1,0l2.6,0l0.1,0
		c0.2,0,0.6,0.2,0.6,0.4l1.2,2.8c0.9,2.2,3.4,3.5,5.8,2.9c0.4-0.1,2-0.5,3.8-1.3c2-0.8,3.6-1.8,3.6-1.8c2.1-1.2,2.9-3.9,2-6.1
		l-1.2-2.8c-0.1-0.2,0-0.6,0.2-0.8l1.8-1.8l0.1-0.1c0.1-0.1,0.6-0.2,0.7-0.2l2.9,1.2c0.6,0.2,1.2,0.4,1.8,0.4c1.8,0,3.5-1,4.3-2.6
		l2.9-6.9l0.1-0.2c0.7-2.3-0.5-4.9-2.7-5.8l-2.9-1.2c-0.2-0.1-0.4-0.5-0.4-0.6l0-0.1l0-2.5l0-0.1c0-0.2,0.2-0.6,0.4-0.6l2.8-1.2
		c2.2-0.9,3.5-3.4,2.9-5.7c0,0-0.5-1.8-1.3-3.8c-0.8-2-1.8-3.6-1.8-3.6c-0.9-1.4-2.5-2.4-4.3-2.4c-0.6,0-1.2,0.1-1.8,0.4l-2.8,1.2
		c-0.2,0-0.6-0.1-0.8-0.2L83,13.1L82.9,13c-0.1-0.1-0.2-0.6-0.2-0.7l1.2-2.9c0.9-2.3,0-4.9-2.3-6.1l-6.9-2.9l-0.2-0.1
		c-0.4-0.1-0.9-0.2-1.4-0.2c-1.9,0-3.7,1.2-4.5,2.9L67.6,6c-0.1,0.1-0.4,0.4-0.6,0.4l-0.1,0l-2.6,0l-0.1,0c-0.2,0-0.6-0.2-0.6-0.4
		l-1.2-2.8c-0.7-1.8-2.6-3-4.6-3c-0.4,0-0.8,0-1.2,0.1c-0.3,0.1-1.9,0.5-3.8,1.3c-2,0.8-3.6,1.8-3.6,1.8c-2.1,1.2-2.9,3.9-2,6.1
		l1.2,2.8c0.1,0.2,0,0.6-0.2,0.8l-1.8,1.8L46.2,15c-0.1,0.1-0.6,0.2-0.7,0.2L42.7,14c-0.6-0.2-1.2-0.4-1.8-0.4c-1.8,0-3.5,1-4.3,2.6
		l-2.9,6.9l-0.1,0.2c-0.7,2.3,0.5,4.9,2.7,5.8l2.9,1.2c0.2,0.1,0.4,0.5,0.4,0.6l0,0.1l0,2.6l0,0.1C39.6,33.9,39.4,34.3,39.2,34.3z
		 M44.4,33.5l0-2.3c0.1-2.2-1.3-4.5-3.3-5.3l-2.8-1.2l2.6-6.3l2.8,1.2c0.6,0.3,1.3,0.4,2,0.4c1.6,0,3.1-0.7,4.1-1.7l1.6-1.6
		c1.7-1.5,2.3-4.1,1.4-6.1l-1.2-2.8c0,0,0-0.2,0-0.2c0.1-0.1,1.4-0.8,3-1.5c1.6-0.7,3.1-1.1,3.1-1.1c0,0,0,0,0,0
		c0.1,0,0.2,0.1,0.2,0.1l1.2,2.8c0.8,1.9,2.9,3.3,5.1,3.3c0.1,0,0.2,0,0.2,0l2.3,0c2.2,0.1,4.5-1.3,5.3-3.3L73.2,5l6.3,2.6l-1.2,2.8
		c-0.9,2.1-0.3,4.6,1.4,6.1l1.6,1.6c1.4,1.6,4.1,2.2,6.1,1.4l2.8-1.2c0.1,0,0.2,0,0.2,0c0.1,0.1,0.8,1.4,1.5,3
		c0.7,1.6,1.1,3.1,1.1,3.1c0,0,0,0.1-0.1,0.2L90,25.9c-2.1,0.9-3.5,3.1-3.3,5.3l0,2.3c-0.1,2.2,1.3,4.5,3.3,5.3l2.8,1.2l-2.6,6.3
		l-2.8-1.2c-2-0.8-4.7-0.2-6.1,1.4l-1.6,1.6c-1.7,1.5-2.3,4.1-1.4,6.1l1.2,2.8c0,0,0,0.2-0.1,0.2c-0.2,0.1-1.5,0.8-3,1.5
		c-1.5,0.6-2.9,1-3.1,1.1c-0.1,0-0.2-0.1-0.2-0.1L72,56.8c-0.9-2.1-3.1-3.5-5.3-3.3l-2.3,0c-2.2-0.1-4.5,1.3-5.3,3.3l-1.2,2.8
		L51.6,57l1.2-2.8c0.9-2.1,0.3-4.6-1.4-6.1l-1.6-1.6c-1.4-1.6-4.1-2.2-6.1-1.4l-2.8,1.2c0,0-0.2,0-0.2-0.1c-0.2-0.3-0.9-1.5-1.5-3
		c-0.7-1.6-1.1-3.1-1.1-3.1c0,0,0-0.1,0.1-0.2l2.8-1.2C43.1,37.9,44.5,35.7,44.4,33.5z"/>
	<path d="M65.6,45.6c1.8,0,3.5-0.3,5.1-1c3.3-1.4,5.8-3.9,7.2-7.2s1.4-6.9,0-10.2c-2.1-5-6.9-8.2-12.3-8.2h0c-1.7,0-3.5,0.3-5.1,1
		c-6.8,2.8-10,10.6-7.2,17.4C55.3,42.4,60.1,45.6,65.6,45.6z M57.7,29.1c0.9-2.1,2.5-3.7,4.6-4.6c1-0.4,2.1-0.7,3.3-0.7
		c3.5,0,6.6,2.1,7.9,5.3c1.8,4.3-0.3,9.3-4.6,11.1c-1,0.4-2.1,0.7-3.3,0.7c-3.5,0-6.6-2.1-7.9-5.3C56.8,33.5,56.8,31.2,57.7,29.1z"
		/>
	<path d="M0.2,77.4c0.3,2,2.1,3.5,4.1,3.5h1.8l0.6,1.4l-1.3,1.3C3.9,85,3.8,87.4,5.1,89l3.6,3.6l0.1,0.1c1.5,1.3,4,1.1,5.4-0.3
		l1.3-1.3l1.4,0.6v1.8c0,2,1.5,3.8,3.5,4c0,0,1.3,0.2,2.8,0.2c1.4,0,2.6-0.2,2.8-0.2c2-0.3,3.5-2.1,3.5-4.1v-1.8l1.4-0.6l1.3,1.3
		c1.4,1.4,3.9,1.5,5.5,0.2l3.6-3.6l0.1-0.1c1.3-1.6,1.2-3.9-0.3-5.4l-1.3-1.3l0.6-1.4h1.8c2,0,3.8-1.5,4.1-3.5
		c0-0.3,0.2-1.5,0.2-2.8c0-1.4-0.2-2.6-0.2-2.8c-0.3-2-2.1-3.5-4.1-3.5h-1.8l-0.6-1.4l1.3-1.3c1.5-1.4,1.6-3.8,0.2-5.5l-3.6-3.6
		l-0.1-0.1c-1.5-1.3-4-1.1-5.4,0.3L30.9,58l-1.4-0.6v-1.8c0-2-1.5-3.8-3.5-4c0,0-1.3-0.2-2.8-0.2c-1.3,0-2.5,0.1-2.8,0.2
		c-2,0.3-3.5,2.1-3.5,4.1v1.8L15.6,58l-1.3-1.3c-1.4-1.4-3.9-1.5-5.5-0.2l-3.6,3.6l-0.1,0.1c-1.3,1.6-1.2,3.9,0.3,5.4l1.3,1.3
		l-0.6,1.4H4.2c-2,0-3.8,1.5-4.1,3.5c0,0-0.2,1.3-0.2,2.8C0,76.2,0.2,77.4,0.2,77.4z M10.5,70.2l0.6-1.4c0.8-1.6,0.4-3.8-0.9-5
		l-0.9-0.9l2.2-2.2l0.9,0.9c0.8,0.8,2,1.3,3.2,1.3c0.7,0,1.3-0.1,1.8-0.4l1.4-0.6c1.7-0.6,3-2.4,3-4.2l0-1.5c0.8-0.1,2.3-0.1,3.1,0
		v1.5c0,1.8,1.2,3.6,2.9,4.2l1.4,0.6c0.6,0.3,1.2,0.4,1.9,0.4c1.2,0,2.4-0.5,3.2-1.3l0.9-0.9l2.2,2.2l-0.9,0.9
		c-1.3,1.3-1.6,3.4-0.9,5l0.6,1.4c0.6,1.7,2.4,3,4.2,3l1.5,0c0,0.4,0.1,0.9,0.1,1.5c0,0.6,0,1.1-0.1,1.5h-1.5
		c-1.8,0-3.6,1.2-4.2,2.9l-0.6,1.4c-0.8,1.6-0.4,3.8,0.9,5l0.9,0.9l-2.2,2.2l-0.9-0.9c-0.8-0.8-2-1.3-3.2-1.3
		c-0.7,0-1.3,0.1-1.8,0.4l-1.4,0.6c-1.7,0.6-3,2.4-3,4.2V93c-0.8,0.1-2.3,0.1-3.1,0v-1.5c0-1.8-1.2-3.6-2.9-4.2l-1.4-0.6
		c-0.6-0.3-1.2-0.4-1.9-0.4c-1.2,0-2.4,0.5-3.2,1.3l-0.9,0.9l-2.2-2.2l0.9-0.9c1.3-1.3,1.6-3.4,0.9-5l-0.6-1.4c-0.6-1.7-2.4-3-4.2-3
		l-1.5,0c0-0.4-0.1-0.9-0.1-1.5c0-0.6,0-1.2,0.1-1.5h1.5C8.1,73.1,9.9,71.8,10.5,70.2z"/>
	<path d="M23.3,84.4c5.4,0,9.8-4.4,9.8-9.8c0-5.4-4.4-9.8-9.8-9.8c-5.4,0-9.8,4.4-9.8,9.8C13.5,80,17.9,84.4,23.3,84.4z M18.3,74.6
		c0-2.7,2.2-5,5-5c2.7,0,5,2.2,5,5c0,2.7-2.2,5-5,5C20.5,79.6,18.3,77.4,18.3,74.6z"/>
</g>
</svg>
