<?xml version="1.0" encoding="utf-8"?>
<!-- Generator: Adobe Illustrator 22.0.1, SVG Export Plug-In . SVG Version: 6.00 Build 0)  -->
<svg version="1.1" id="Calque_1" xmlns="http://www.w3.org/2000/svg" xmlns:xlink="http://www.w3.org/1999/xlink" x="0px" y="0px"
	 viewBox="0 0 41.9 83" style="enable-background:new 0 0 41.9 83;" xml:space="preserve">
<g>
	<path d="M39.9,28.4H28.1l7.6-25.9c0.1-0.6,0-1.2-0.3-1.7c-0.4-0.5-1-0.8-1.6-0.8H5.9C4.8,0,4,0.8,3.9,1.8L0,43.5
		c0,0.3,0.1,1,0.5,1.5c0.4,0.4,1,0.7,1.5,0.7h10.5L6.9,80.9c-0.1,0.9,0.4,1.9,1.3,2.2c0.3,0.1,0.5,0.1,0.6,0.1c0.8,0,1.3-0.3,1.8-1
		l31.2-50.7c0.4-0.6,0.4-1.4,0.1-2C41.5,29,40.7,28.6,39.9,28.4z M12.5,71.8l4.4-27.6c0.1-0.6-0.1-1.2-0.5-1.6
		c-0.4-0.5-1-0.8-1.5-0.8H4.2L7.8,4.2H31l-7.6,25.9c-0.1,0.6,0,1.2,0.3,1.7c0.4,0.5,1,0.8,1.6,0.8h11.1L12.5,71.8z"/>
</g>
</svg>
