<?xml version="1.0" encoding="utf-8"?>
<!-- Generator: Adobe Illustrator 22.0.1, SVG Export Plug-In . SVG Version: 6.00 Build 0)  -->
<svg version="1.1" id="Calque_1" xmlns="http://www.w3.org/2000/svg" xmlns:xlink="http://www.w3.org/1999/xlink" x="0px" y="0px"
	 viewBox="0 0 74 90.3" style="enable-background:new 0 0 74 90.3;" xml:space="preserve">
<g>
	<g transform="translate(0,-952.36218)">
		<path d="M22,952.4c-2.7,0-5,2.3-5,5v6c0,2.7,2.3,5,5,5v14.3l-19.6,42.2l-0.1,0.2c-1.3,2.3-2.3,4.7-2.3,7.3c0,2.7,0.9,5.4,2.9,7.3
			c2,1.9,4.8,2.7,8.1,2.7h52c3.2,0,6-0.9,8.1-2.7c2-1.9,2.9-4.5,2.9-7.3c0-2.6-1-4.9-2.3-7.3l-0.1-0.2L52,982.7v-14.3
			c2.7,0,5-2.3,5-5v-6c0-2.7-2.3-5-5-5H22z M23,958.4h28v4h-2h-3v3c0,6.2,0,12.5,0,18.7c3.8,8.2,7.6,16.4,11.4,24.6
			c-4.2,3.9-6.3,4.8-10.4,4.8c-2.9,0-6-2-9.7-4.5c-3.6-2.5-7.9-5.5-13.3-5.5c-1.8,0-3.6,0.3-5.4,0.8c3.1-6.7,6.2-13.4,9.4-20.2
			c0-6.2,0-12.5,0-18.7v-3h-3h-2V958.4z M24,1009.4c3.1,0,6.3,2,9.9,4.5c3.6,2.5,7.7,5.5,13.1,5.5c4.8,0,8.7-1.6,13-5.2l6.3,13.4
			l0.1,0.1l0,0.1c1.1,2,1.6,3.6,1.6,4.5c0,1.5-0.4,2.3-1,2.9s-1.8,1.1-4,1.1H11c-2.2,0-3.4-0.6-4-1.1s-1-1.3-1-2.9
			c0-1,0.5-2.6,1.6-4.5l0-0.1l0.1-0.1l5.9-12.7C17.1,1010.7,20,1009.4,24,1009.4z"/>
	</g>
	<circle cx="31.8" cy="43.2" r="1.8"/>
	<circle cx="41.9" cy="37.4" r="3.9"/>
	<circle cx="39.5" cy="47.5" r="2.5"/>
</g>
</svg>
