<?xml version="1.0" encoding="utf-8"?>
<!-- Generator: Adobe Illustrator 22.0.1, SVG Export Plug-In . SVG Version: 6.00 Build 0)  -->
<svg version="1.1" id="Calque_1" xmlns="http://www.w3.org/2000/svg" xmlns:xlink="http://www.w3.org/1999/xlink" x="0px" y="0px"
	 viewBox="0 0 89.8 94.9" style="enable-background:new 0 0 89.8 94.9;" xml:space="preserve">
<g>
	<path d="M25.3,33.1c0.5,0.7,1.2,1.1,2,1.1c0,0,0,0,0,0c1.4,0,2.5-1.1,2.5-2.5c0-0.5-0.2-1-0.5-1.4L13.1,6.9c-0.4-0.5-1-0.9-1.6-1
		c-0.7-0.1-1.3,0-1.9,0.4c-0.5,0.4-0.9,1-1,1.6C8.4,8.6,8.6,9.3,9,9.8L25.3,33.1z"/>
	<path d="M41.4,71.2c-1.1-0.8-2.7-0.5-3.5,0.7L27.3,88.1c-0.6,0.9-1.5,1.5-2.6,1.7c-0.9,0.2-1.9,0-2.6-0.5c-0.1,0-0.1-0.1-0.2-0.1
		c-1.6-1.2-1.9-3.5-0.7-5.1l14.6-19c0.8-1.1,0.6-2.7-0.5-3.5c-0.5-0.4-1.2-0.6-1.8-0.5c-0.7,0.1-1.3,0.4-1.7,1l-14.7,19
		c-1.4,1.9-2,4.3-1.7,6.6c0.4,2.3,1.7,4.4,3.7,5.8c1.4,0.9,3,1.4,4.7,1.4c0.6,0,1.2-0.1,1.7-0.2c2.4-0.5,4.4-1.9,5.8-3.9l10.6-16.2
		l0.5-0.8h-0.2C42.6,72.9,42.2,71.8,41.4,71.2z"/>
	<path d="M84,2.3L84,2.3c-3.9-2.8-9.1-3-14.8-0.6c-5.7,2.6-10.6,6.7-14.1,11.9c-5.1,7.2-7.5,15.5-6.4,22.1c0.2,1.4,0.1,2.9-0.4,4.3
		c-0.2,0.6-0.2,1.3,0.1,1.9s0.8,1,1.4,1.3c1.3,0.4,2.7-0.3,3.2-1.6c0.7-2.1,0.9-4.5,0.6-6.7c-0.9-5.3,1.2-12.3,5.6-18.4
		c3-4.4,7.2-8,12-10.2c4-1.7,7.5-1.6,9.9,0.1c2.4,1.7,3.6,5,3.3,9.3c-0.5,5.3-2.5,10.4-5.7,14.7c-4.3,6.1-10.2,10.4-15.6,11.3
		c-2.2,0.4-4.3,1.3-6,2.6c-0.5,0.4-0.9,0.8-1.4,1.2c-0.9,1-0.9,2.6,0.1,3.5c0.5,0.4,1.1,0.7,1.7,0.7c0.6,0,1.2-0.2,1.7-0.6
		c0.3-0.3,0.6-0.5,1-0.8c1.1-0.9,2.4-1.4,3.8-1.7c6.6-1.1,13.7-6.1,18.8-13.3c3.7-5,6-11,6.6-17.3C89.8,9.9,87.9,5,84,2.3z"/>
	<path d="M40.5,38.8L40.5,38.8c1.9-4.2,1.4-9.1-1.2-12.7L21.4,1.1c-0.4-0.6-0.9-0.9-1.6-1c-0.7-0.1-1.3,0-1.9,0.4
		c-0.6,0.4-0.9,0.9-1,1.6c-0.1,0.7,0,1.3,0.4,1.9l17.9,25c1.6,2.3,1.9,5.2,0.8,7.8c-0.8,1.7-0.5,3.6,0.6,5.1l33,42.7
		c1.2,1.4,0.9,3.6-0.5,4.7c-0.7,0.6-1.6,0.8-2.5,0.7c-0.9-0.1-1.7-0.5-2.2-1.2c-0.1-0.1-0.1-0.2-0.2-0.3L34.1,43.5
		c-1-1.5-2.8-2.4-4.7-2.2c-2.8,0.3-5.5-1-7.1-3.2L4.6,13.2c-0.4-0.6-0.9-0.9-1.6-1c-0.7-0.1-1.3,0-1.9,0.4C0,13.3-0.3,14.9,0.4,16
		l17.9,25c2.7,3.7,7.1,5.7,11.7,5.3l29.9,44.9c1.2,1.9,3.2,3.2,5.4,3.6c0.5,0.1,1,0.1,1.5,0.1c4.6,0,8.3-3.8,8.3-8.4
		c0-1.8-0.6-3.6-1.7-5.1L40.5,38.8z"/>
</g>
</svg>
