<?xml version="1.0" encoding="utf-8"?>
<!-- Generator: Adobe Illustrator 22.0.1, SVG Export Plug-In . SVG Version: 6.00 Build 0)  -->
<svg version="1.1" id="Calque_1" xmlns="http://www.w3.org/2000/svg" xmlns:xlink="http://www.w3.org/1999/xlink" x="0px" y="0px"
	 viewBox="0 0 80.8 94.6" style="enable-background:new 0 0 80.8 94.6;" xml:space="preserve">
<g>
	<path d="M80.5,74.4c-0.1-0.5-0.4-0.9-0.8-1.2c-0.2-0.1-14.4-9.8-14.1-24.4c0.3-16.7,12.7-19,13.2-19.1c0.5-0.1,0.9-0.4,1.2-0.8
		c0.3-0.4,0.3-0.9,0.2-1.4l-3.6-12.6c-0.2-0.7-0.9-1.3-1.7-1.3c-19.1,0-22.1-11.9-22.2-12.4c-0.2-0.8-0.9-1.4-1.7-1.4H29.6
		c-0.8,0-1.5,0.6-1.7,1.4c-0.1,0.5-3.2,12.4-22.2,12.4c-0.8,0-1.5,0.5-1.7,1.3L0.4,27.5c-0.1,0.5-0.1,1,0.2,1.4
		c0.3,0.4,0.7,0.7,1.2,0.8c0.5,0.1,12.9,2.6,13.2,19.1C15.3,63.5,1,73.2,0.9,73.3c-0.4,0.3-0.7,0.7-0.8,1.2c-0.1,0.5,0.1,1,0.4,1.4
		l9.2,11.7c0.6,0.7,1.7,0.9,2.4,0.3c0,0,4.7-3.4,12.3-3.4c1,0,2.1,0.1,3.1,0.2c6.3,0.7,11.2,9.1,11.2,9.2c0.3,0.5,0.9,0.9,1.5,0.9
		c0.6,0,1.2-0.3,1.5-0.9c0-0.1,4.9-8.4,11.2-9.2c1-0.1,2.1-0.2,3.1-0.2c7.6,0,12.3,3.4,12.3,3.4c0.8,0.6,1.8,0.4,2.4-0.3l9.2-11.7
		C80.4,75.4,80.6,74.9,80.5,74.4z M18.5,48.8c-0.3-15.4-9.9-20.5-14.2-22L7,17.1C24.1,16.6,29.5,6.8,30.9,3.4h18.9
		c1.4,3.4,6.8,13.2,23.8,13.7l2.8,9.7c-4.3,1.5-13.9,6.5-14.2,22C61.9,62.4,72.5,72.1,76.3,75l-7.1,9c-2.2-1.2-6.7-3.2-13-3.2
		c-1.2,0-2.3,0.1-3.5,0.2c-5.7,0.7-10.1,5.5-12.3,8.6c-2.2-3.1-6.6-7.9-12.3-8.6c-1.2-0.1-2.4-0.2-3.5-0.2c-6.3,0-10.8,2-13,3.2
		l-7.1-9C8.1,72.1,18.8,62.4,18.5,48.8z"/>
	<path d="M12.1,77c-0.1,0.1-0.1,0.2-0.2,0.4c0,0.2,0,0.4,0.2,0.6l0.9,1.2c0.2,0.2,0.4,0.3,0.7,0.3c0.1,0,0.2,0,0.3-0.1
		c0.4-0.2,0.8-0.3,1.3-0.5l0.4-0.2c0.2-0.2,0.2-0.4,0.2-0.6c0-0.1,0-0.2-0.1-0.3c-0.1-0.2-0.2-0.3-0.4-0.4c-0.2-0.1-0.4-0.1-0.6,0
		l-0.1,0c-0.3,0.1-0.6,0.2-0.8,0.3L13.4,77c-0.2-0.2-0.4-0.3-0.7-0.3c-0.1,0-0.3,0-0.5,0.2L12.1,77L12.1,77z"/>
	<path d="M20.6,75.9l0.1,0.5L20.6,75.9c-1,0.1-2,0.3-2.9,0.6c-0.4,0.1-0.6,0.4-0.6,0.9l0,0.1c0.1,0.4,0.4,0.6,0.8,0.6l0.2,0
		c0.9-0.2,1.9-0.4,2.7-0.5c0.4-0.1,0.7-0.4,0.7-0.8l0-0.1C21.4,76.1,21,75.8,20.6,75.9z"/>
	<path d="M26.5,75.5c-1,0-2,0-3,0c-0.4,0-0.8,0.4-0.8,0.9c0,0.5,0.4,0.8,0.8,0.8l0.2,0l0,0c0.9,0,1.8,0,2.6,0c0.4,0,0.8-0.4,0.8-0.8
		C27.3,75.9,26.9,75.5,26.5,75.5z"/>
	<path d="M32.4,76.5L32.4,76.5c-1-0.3-2-0.6-3-0.7c-0.4,0-0.9,0.3-0.9,0.7l0,0.1c0,0.4,0.3,0.8,0.7,0.8c0.9,0.1,1.7,0.3,2.6,0.7
		c0.1,0,0.2,0,0.3,0c0.4,0,0.7-0.2,0.8-0.5c0.1-0.1,0.1-0.3,0.1-0.3C33,77,32.8,76.7,32.4,76.5z"/>
	<path d="M35.4,77.7H35c-0.4-0.1-0.8,0.1-1,0.5c0,0.1-0.1,0.2-0.1,0.3c0,0.3,0.2,0.6,0.4,0.7c0.8,0.4,1.6,1,2.3,1.5
		c0.1,0.1,0.3,0.2,0.5,0.2c0.3,0,0.5-0.1,0.7-0.3c0.3-0.4,0.2-0.9-0.2-1.2c-0.8-0.6-1.5-1.1-2.3-1.5L35.4,77.7z"/>
	<path d="M9.6,74.8l0.9,1.2c0.2,0.2,0.4,0.3,0.7,0.3c0.2,0,0.4-0.1,0.5-0.2c0.4-0.3,0.4-0.8,0.1-1.2l-0.4-0.6
		c0.2-0.2,0.4-0.3,0.5-0.5c0.2-0.2,0.3-0.4,0.3-0.6c0-0.2-0.1-0.4-0.2-0.6l0,0c-0.1-0.1-0.2-0.2-0.3-0.2v-0.7l-0.9,0.9
		c-0.3,0.3-0.7,0.6-1,0.9C9.4,74,9.3,74.5,9.6,74.8z"/>
	<path d="M22.3,51.7L22.3,51.7l0.3,0.1c0.4,0,0.8-0.3,0.8-0.8c0-0.6,0.1-1.2,0.1-1.8l0-0.7c0-0.2,0-0.3,0-0.5c0-0.4-0.4-0.8-0.9-0.8
		c0,0,0,0,0,0c-0.4,0-0.8,0.4-0.8,0.9c0,0.2,0,0.3,0,0.5l0,0.1c0,0.1,0,0.3,0,0.4c0,0.6,0,1.2,0,1.7C21.7,51.3,21.9,51.6,22.3,51.7z
		"/>
	<path d="M19.6,34.1c-0.5-0.9-1.1-1.7-1.7-2.4c-0.1-0.2-0.3-0.3-0.6-0.3c-0.2,0-0.4,0-0.6,0.2c-0.2,0.2-0.3,0.4-0.3,0.7
		c0,0.2,0.1,0.4,0.2,0.5c0.5,0.7,1,1.4,1.4,2.1l0,0.1l0.2,0.2c0.2,0.2,0.4,0.4,0.7,0.4c0.2,0,0.3,0,0.4-0.1c0.2-0.1,0.4-0.4,0.4-0.7
		C19.8,34.4,19.7,34.3,19.6,34.1z"/>
	<path d="M14.2,27.8l-0.4-0.3c-0.4-0.3-0.9-0.2-1.2,0.1c-0.1,0.1-0.2,0.3-0.2,0.5c0,0.3,0.1,0.6,0.3,0.7l0.4,0.3
		c0.5,0.4,1.1,0.9,1.7,1.5c0.2,0.2,0.4,0.2,0.6,0.2c0.1,0,0.4,0,0.6-0.2c0.2-0.1,0.2-0.4,0.2-0.6c0-0.2-0.1-0.4-0.2-0.6
		C15.5,28.9,14.8,28.3,14.2,27.8z"/>
	<path d="M21.7,41.7c-0.4,0.1-0.7,0.5-0.6,0.9l0,0.1c0.2,0.9,0.3,1.8,0.4,2.7c0,0.4,0.4,0.8,0.8,0.8l0.1,0c0.4-0.1,0.8-0.4,0.7-0.9
		c-0.1-1-0.3-2-0.5-2.9C22.6,41.8,22.2,41.6,21.7,41.7z"/>
	<path d="M21.2,40.6c0.1,0,0.2,0,0.2,0c0.4-0.1,0.6-0.4,0.6-0.8c0-0.1,0-0.1,0-0.2c-0.3-0.9-0.6-1.9-1-2.8c-0.2-0.4-0.7-0.6-1.1-0.4
		c-0.3,0.1-0.5,0.4-0.5,0.8c0,0.1,0,0.2,0.1,0.3c0.4,0.8,0.7,1.7,1,2.6C20.5,40.3,20.9,40.6,21.2,40.6z M21.6,39.7L21.6,39.7
		L21.6,39.7L21.6,39.7z"/>
	<path d="M16.4,67.5c0.1,0,0.2,0.1,0.4,0.1c0.3,0,0.5-0.1,0.7-0.4c0.6-0.8,1.1-1.7,1.6-2.5c0.1-0.1,0.1-0.3,0.1-0.4l0,0
		c0-0.3-0.2-0.6-0.4-0.7c-0.4-0.2-0.9-0.1-1.1,0.3c-0.5,0.8-1,1.6-1.5,2.4c-0.1,0.1-0.1,0.3-0.1,0.5C16,67.1,16.1,67.3,16.4,67.5
		L16.4,67.5z"/>
	<path d="M19.3,62.6c0.1,0.1,0.2,0.1,0.4,0.1c0.3,0,0.6-0.2,0.7-0.4l0.1-0.1v0c0.4-0.8,0.7-1.7,1.1-2.6c0-0.1,0-0.1,0-0.2
		c0-0.4-0.2-0.7-0.6-0.8c-0.4-0.1-0.9,0-1,0.4L20,59v0.1c-0.3,0.8-0.7,1.7-1,2.4c-0.1,0.1-0.1,0.2-0.1,0.4
		C18.9,62.2,19,62.5,19.3,62.6z"/>
	<path d="M13.3,72.1c0.2,0,0.4-0.1,0.6-0.3l0.1-0.2v0c0.6-0.7,1.2-1.4,1.7-2.1c0.1-0.2,0.2-0.3,0.2-0.5c0-0.3-0.1-0.5-0.3-0.7
		c-0.4-0.3-0.9-0.2-1.2,0.1l0,0c-0.5,0.7-1.1,1.4-1.8,2.1c-0.1,0.2-0.2,0.4-0.2,0.6c0,0.2,0.1,0.4,0.3,0.6
		C12.9,72,13.1,72.1,13.3,72.1z"/>
	<path d="M23.1,53.8c0-0.4-0.3-0.8-0.7-0.8l0,0c-0.4-0.1-0.9,0.2-1,0.7c-0.1,0.9-0.3,1.8-0.6,2.7l0,0l0,0.2c0,0.4,0.3,0.8,0.6,0.8
		l0.2,0.1h0.1c0.4,0,0.7-0.3,0.8-0.6c0.2-0.9,0.4-1.9,0.6-2.9L23.1,53.8z"/>
	<path d="M11.4,25.8l-0.1,0c-0.2-0.1-0.4-0.3-0.7-0.4l0.2-0.8c0.1-0.4-0.1-0.9-0.6-1l-0.1,0l0,0c-0.1,0-0.3,0-0.5,0.1
		c-0.1,0.1-0.2,0.2-0.3,0.3l-0.1,0.3l0,0l-0.4,1.3c-0.1,0.4,0.1,0.8,0.4,1c0.4,0.2,0.8,0.4,1.3,0.7l0,0c0.1,0.1,0.3,0.1,0.4,0.1
		c0.3,0,0.6-0.2,0.7-0.4c0.1-0.1,0.1-0.3,0.1-0.4c0-0.2-0.1-0.5-0.3-0.6L11.4,25.8z"/>
	<path d="M10.3,23.6l0.2,0c0.4,0,0.7-0.3,0.8-0.6l0.3-0.9c0.3,0,0.6-0.1,0.9-0.1c0.2,0,0.4-0.1,0.6-0.3c0.1-0.2,0.2-0.4,0.2-0.6
		c0-0.2-0.1-0.4-0.3-0.6c0,0,0,0-0.1,0v-0.2l-0.7,0.1c-0.4,0-0.9,0.1-1.4,0.1c-0.3,0-0.6,0.3-0.7,0.6l-0.4,1.4
		c-0.1,0.2,0,0.4,0.1,0.6S10.1,23.5,10.3,23.6z"/>
	<path d="M29.3,14.7c0.2,0,0.4-0.1,0.6-0.2l0.2-0.2v0c0.6-0.6,1.2-1.2,1.7-1.9c0.1-0.1,0.2-0.3,0.2-0.5c0-0.2-0.1-0.5-0.3-0.6
		c-0.3-0.3-0.9-0.3-1.2,0.1c-0.5,0.6-1.1,1.3-1.7,1.9c-0.2,0.1-0.3,0.4-0.3,0.6c0,0.2,0.1,0.4,0.2,0.6
		C28.9,14.6,29.1,14.7,29.3,14.7z"/>
	<path d="M25.1,17.9c0.1,0,0.3,0,0.4-0.1c0.8-0.5,1.5-1,2.3-1.6c0.2-0.2,0.3-0.4,0.3-0.6c0-0.2-0.1-0.4-0.2-0.5
		c-0.3-0.4-0.8-0.4-1.2-0.1c-0.7,0.5-1.4,1-2.1,1.5c-0.2,0.1-0.4,0.4-0.4,0.7c0,0.1,0,0.3,0.1,0.4C24.5,17.8,24.8,17.9,25.1,17.9z"
		/>
	<path d="M20.2,20.3c0.1,0,0.2,0,0.3-0.1c0.9-0.4,1.8-0.7,2.5-1.1c0.3-0.1,0.5-0.4,0.5-0.8c0-0.1,0-0.3-0.1-0.4
		c-0.1-0.2-0.3-0.3-0.4-0.4c-0.2-0.1-0.5-0.1-0.7,0c-0.8,0.4-1.6,0.7-2.4,1c-0.3,0.1-0.5,0.4-0.5,0.8c0,0.1,0,0.2,0,0.3
		C19.6,20,19.9,20.3,20.2,20.3z"/>
	<path d="M15.1,21.6h0.1l0,0c0.9-0.2,1.9-0.4,2.7-0.6c0.4-0.1,0.7-0.4,0.6-0.8l0-0.2c0-0.2-0.2-0.4-0.4-0.5
		c-0.2-0.1-0.4-0.1-0.5-0.1h-0.2l-0.1,0.1c-0.7,0.2-1.6,0.4-2.4,0.5c-0.2,0-0.4,0.2-0.6,0.3c-0.1,0.2-0.2,0.4-0.1,0.6
		C14.3,21.3,14.7,21.6,15.1,21.6z"/>
	<path d="M32.2,10.4c0.1,0.1,0.3,0.1,0.4,0.1c0.2,0,0.4-0.1,0.5-0.2h0.3V9.9c0.2-0.3,0.3-0.5,0.5-0.8l1,0c0.3,0,0.6-0.2,0.7-0.5
		l0.1-0.2V8.3c0-0.2-0.1-0.3-0.1-0.4c-0.1-0.3-0.4-0.5-0.7-0.5h-1.5c-0.3,0-0.6,0.2-0.7,0.4c-0.2,0.4-0.4,0.8-0.7,1.2l0,0
		c0,0,0,0,0,0.1l0,0.1c0,0.1-0.1,0.2-0.1,0.3C31.8,9.9,31.9,10.2,32.2,10.4z"/>
	<path d="M38.6,9.2h3.7c0.5,0,0.8-0.4,0.8-0.8c0-0.5-0.4-0.8-0.8-0.8h-3.7c-0.5,0-0.8,0.4-0.8,0.8C37.7,8.8,38.1,9.2,38.6,9.2z"/>
	<path d="M46,9.2h1c0.2,0.3,0.3,0.6,0.5,0.9c0.1,0.1,0.2,0.2,0.4,0.3c0.1,0.1,0.2,0.1,0.4,0.1c0.1,0,0.3,0,0.3-0.1l0.1,0
		c0.1-0.1,0.2-0.2,0.3-0.3L49,10l0-0.1c0.1-0.2,0-0.4-0.1-0.6c-0.3-0.4-0.5-0.9-0.7-1.3c-0.1-0.3-0.4-0.4-0.7-0.4H46
		c-0.5,0-0.8,0.4-0.8,0.8S45.5,9.2,46,9.2z M48.5,9.8L48.5,9.8L48.5,9.8L48.5,9.8z"/>
	<path d="M55.4,17.8c0.1,0.1,0.3,0.1,0.4,0.1c0.3,0,0.6-0.2,0.7-0.3c0.1-0.1,0.2-0.3,0.2-0.5c0-0.3-0.2-0.6-0.4-0.7
		c-0.7-0.4-1.3-0.9-1.9-1.3l0-0.3h-0.4c-0.3-0.1-0.7,0-0.9,0.2c-0.1,0.1-0.2,0.3-0.2,0.6c0,0.2,0.1,0.5,0.3,0.7
		C53.7,16.8,54.5,17.3,55.4,17.8z"/>
	<path d="M57.5,19l0.3,0.1c0,0,0,0,0.1,0l0,0c0.8,0.4,1.6,0.7,2.5,1c0.1,0,0.2,0,0.3,0c0.4,0,0.7-0.2,0.8-0.5
		c0.1-0.1,0.1-0.3,0.1-0.3c0-0.3-0.2-0.7-0.5-0.8c-0.9-0.3-1.7-0.7-2.4-1c-0.2-0.1-0.4-0.1-0.6,0c-0.2,0.1-0.4,0.2-0.5,0.4
		c-0.1,0.1-0.1,0.2-0.1,0.4C57.3,18.6,57.4,18.8,57.5,19L57.5,19z"/>
	<path d="M49.1,12.3c0.6,0.7,1.2,1.4,1.9,2.1c0.2,0.1,0.4,0.2,0.6,0.2c0.2,0,0.4-0.1,0.6-0.2c0.2-0.1,0.2-0.4,0.2-0.6
		c0-0.2-0.1-0.5-0.2-0.6c-0.6-0.6-1.2-1.3-1.7-1.9c-0.1-0.2-0.3-0.3-0.6-0.3c-0.2,0-0.4,0-0.6,0.2c-0.2,0.1-0.3,0.3-0.3,0.6
		C48.9,11.9,49,12.1,49.1,12.3z"/>
	<path d="M62.9,21c0.8,0.2,1.6,0.4,2.6,0.6l0.2,0c0.4,0,0.7-0.3,0.8-0.7l0-0.1l0-0.1c0-0.4-0.3-0.7-0.7-0.8
		c-0.8-0.1-1.7-0.3-2.6-0.6c-0.4-0.1-0.9,0.2-1,0.6l0,0l0,0.2C62.3,20.6,62.6,20.9,62.9,21z"/>
	<path d="M67.7,21.6c0,0,0.1,0.1,0.1,0.2c0.1,0.1,0.2,0.1,0.3,0.2l0.1,0.1h0.1c0.3,0,0.6,0.1,0.9,0.1l0.3,0.9
		c0.1,0.2,0.2,0.3,0.2,0.3c0.1,0.1,0.2,0.2,0.4,0.2l0.2,0c0,0,0.1,0,0.1,0l0.3-0.1l0,0c0.3-0.2,0.5-0.6,0.4-1l-0.4-1.4
		c-0.1-0.3-0.4-0.6-0.7-0.6c-0.5,0-0.9-0.1-1.3-0.1l-0.2,0c-0.2,0-0.4,0-0.6,0.2c-0.2,0.1-0.3,0.3-0.3,0.6l0,0.2L67.7,21.6z"/>
	<path d="M70.6,23.6c-0.2,0.1-0.4,0.2-0.5,0.4C70,24.2,70,24.4,70,24.6l0.2,0.8c-0.2,0.1-0.4,0.2-0.7,0.4l-0.1,0
		c-0.4,0.2-0.5,0.7-0.3,1.1l0,0.1c0.2,0.2,0.4,0.3,0.7,0.3l0.2,0c0.1,0,0.2,0,0.3-0.1c0.4-0.3,0.9-0.5,1.3-0.7
		c0.4-0.2,0.5-0.6,0.4-1l-0.4-1.4c-0.1-0.2-0.2-0.4-0.4-0.5C71,23.6,70.8,23.6,70.6,23.6z"/>
	<path d="M60.4,58.5c-0.2-0.1-0.5-0.1-0.6,0c-0.3,0.1-0.6,0.4-0.6,0.8c0,0.1,0,0.2,0,0.3c0.3,1,0.7,1.9,1.1,2.7
		c0.1,0.3,0.4,0.5,0.8,0.5c0.1,0,0.3,0,0.4-0.1c0.3-0.1,0.5-0.4,0.5-0.8c0-0.1,0-0.3-0.1-0.4c-0.4-0.9-0.8-1.7-1.1-2.6
		C60.8,58.7,60.6,58.6,60.4,58.5z"/>
	<path d="M61,36.3c-0.2-0.1-0.4-0.1-0.7,0c-0.2,0.1-0.4,0.2-0.5,0.4c-0.4,0.9-0.7,1.8-1,2.8c0,0.1,0,0.2,0,0.2
		c0,0.4,0.2,0.7,0.6,0.8l0.2,0c0.4,0,0.7-0.2,0.8-0.6c0.3-0.9,0.6-1.8,1-2.5c0.1-0.1,0.1-0.2,0.1-0.4C61.5,36.7,61.3,36.4,61,36.3z"
		/>
	<path d="M65.1,69.8L65.1,69.8c0.7,0.8,1.2,1.4,1.8,2c0.2,0.2,0.4,0.2,0.6,0.2c0.2,0,0.4-0.1,0.6-0.2c0.2-0.2,0.3-0.4,0.3-0.6
		c0-0.2-0.1-0.4-0.2-0.6c-0.6-0.7-1.2-1.4-1.8-2.1c-0.1-0.2-0.3-0.3-0.6-0.3c-0.2,0-0.4,0-0.6,0.2c-0.2,0.2-0.3,0.4-0.3,0.7
		c0,0.1,0,0.2,0.1,0.4L65.1,69.8z"/>
	<path d="M59.3,57.4l0.1,0c0.4-0.1,0.6-0.5,0.6-0.8l0-0.2c-0.2-0.9-0.4-1.8-0.6-2.7v0c-0.1-0.5-0.5-0.8-1-0.7
		c-0.4,0.1-0.7,0.4-0.7,0.8l0,0.2l0,0c0.1,0.9,0.3,1.9,0.6,2.8C58.5,57.1,58.8,57.4,59.3,57.4C59.3,57.4,59.3,57.4,59.3,57.4z"/>
	<path d="M61.7,64.8c0.5,0.8,1,1.6,1.6,2.5c0.2,0.2,0.4,0.3,0.7,0.3c0.2,0,0.3,0,0.5-0.1c0.2-0.2,0.4-0.4,0.4-0.7
		c0-0.1,0-0.3-0.1-0.5c-0.5-0.7-1-1.5-1.5-2.3c-0.1-0.2-0.3-0.3-0.5-0.4c-0.2-0.1-0.4,0-0.6,0.1c-0.3,0.2-0.4,0.4-0.4,0.7
		C61.6,64.5,61.7,64.6,61.7,64.8z"/>
	<path d="M64.6,30c0,0.2,0.1,0.4,0.2,0.6c0.2,0.2,0.4,0.2,0.6,0.2c0.2,0,0.4-0.1,0.6-0.2c0.6-0.6,1.1-1.1,1.7-1.5
		c0.1-0.1,0.2-0.2,0.3-0.2l0.1-0.1c0.4-0.3,0.4-0.8,0.1-1.2c-0.1-0.2-0.3-0.3-0.6-0.3c-0.1,0-0.3,0-0.4,0.1L67,27.6
		c-0.1,0.1-0.2,0.2-0.3,0.3c-0.6,0.5-1.2,1-1.8,1.6C64.7,29.6,64.6,29.8,64.6,30z"/>
	<path d="M57.4,48.6c0,0.2,0,0.4,0,0.6c0,0.6,0,1.2,0.1,1.8c0,0.4,0.4,0.8,0.9,0.8c0,0,0,0,0,0v0c0.4,0,0.8-0.4,0.8-0.9
		c0-0.6,0-1.1,0-1.7c0-0.2,0-0.3,0-0.6l0-0.6c0-0.4-0.3-0.8-0.8-0.8c-0.5,0-0.8,0.3-0.8,0.8L57.4,48.6z"/>
	<path d="M63.1,31.5L63.1,31.5l-0.2,0.2c-0.6,0.8-1.1,1.6-1.7,2.4c-0.1,0.1-0.1,0.3-0.1,0.4c0,0.3,0.2,0.6,0.4,0.7
		c0.1,0.1,0.3,0.1,0.4,0.1c0.3,0,0.6-0.2,0.7-0.4c0.5-0.8,1-1.5,1.5-2.2c0.1-0.1,0.2-0.3,0.2-0.5c0-0.3-0.1-0.5-0.3-0.7
		C63.8,31.3,63.4,31.3,63.1,31.5z"/>
	<path d="M58.5,46.1c0.4,0,0.8-0.3,0.8-0.7c0.1-1,0.3-1.9,0.4-2.7l0-0.2c0-0.4-0.3-0.7-0.7-0.8c-0.2,0-0.5,0-0.7,0.1
		c-0.2,0.1-0.3,0.3-0.3,0.5l0,0c-0.2,1-0.4,1.9-0.5,2.9C57.6,45.7,58,46,58.5,46.1z"/>
	<path d="M69,74L69,74c0.2,0.1,0.3,0.3,0.4,0.4L69,75c-0.3,0.3-0.2,0.9,0.1,1.2l0.1,0.1l0,0c0.1,0,0.2,0.1,0.3,0.1
		c0.3,0,0.5-0.1,0.7-0.3l0.9-1.2c0.3-0.3,0.2-0.8-0.1-1.1c-0.3-0.3-0.7-0.6-1-1L70,72.5h-0.1c-0.3-0.2-0.7-0.1-1,0.2
		c-0.2,0.2-0.2,0.4-0.2,0.6c0,0.1,0.1,0.3,0.1,0.4L69,74z"/>
	<path d="M67.5,77l-0.5,0.7c-0.3-0.1-0.5-0.2-0.8-0.3l-0.3-0.1l0,0c-0.1,0-0.3,0-0.4,0.1l-0.1,0.1c-0.1,0.1-0.2,0.1-0.2,0.2l-0.1,0
		L65,78l0,0c0,0.1,0,0.3,0.1,0.4c0.1,0.2,0.3,0.4,0.5,0.4c0.5,0.2,0.9,0.4,1.3,0.5c0.1,0,0.2,0.1,0.3,0.1c0.3,0,0.5-0.1,0.7-0.3
		l0.9-1.2c0.3-0.4,0.2-0.9-0.1-1.2c-0.2-0.1-0.4-0.2-0.6-0.2C67.8,76.7,67.6,76.8,67.5,77z"/>
	<path d="M52,75.9c-0.2-0.1-0.4-0.2-0.6-0.1c-1,0.1-2,0.4-2.9,0.7c-0.3,0.1-0.6,0.4-0.6,0.8c0,0.1,0,0.2,0,0.3
		c0.1,0.3,0.4,0.6,0.8,0.6c0.1,0,0.2,0,0.3,0c0.8-0.3,1.7-0.5,2.7-0.6c0.4-0.1,0.7-0.4,0.7-0.8l0-0.1C52.3,76.3,52.2,76.1,52,75.9z"
		/>
	<path d="M43,79.6c-0.1,0.1-0.1,0.3-0.1,0.4c0,0.2,0.1,0.3,0.2,0.5c0.2,0.2,0.4,0.3,0.6,0.3c0.2,0,0.4-0.1,0.5-0.2
		c0.7-0.5,1.5-1,2.2-1.5l0.1,0l0.1-0.1c0.2-0.2,0.3-0.4,0.3-0.7c0-0.2,0-0.3-0.1-0.4c-0.1-0.2-0.3-0.3-0.5-0.4
		c-0.2-0.1-0.4,0-0.6,0.1c-0.8,0.4-1.5,0.9-2.4,1.5l-0.3,0V79.6z"/>
	<path d="M57.4,75.6L57.4,75.6c-0.9-0.1-2-0.1-2.9,0l-0.3,0l0,0.1c-0.3,0.1-0.5,0.4-0.5,0.8c0,0.5,0.4,0.8,0.9,0.8c0,0,0,0,0,0
		c0.9,0,1.9,0,2.9,0c0.4,0,0.8-0.3,0.8-0.8C58.1,76,57.8,75.6,57.4,75.6z"/>
	<path d="M41.1,81.2l-0.3,0.3v0c-0.1,0.1-0.2,0.2-0.3,0.3c-0.1-0.1-0.2-0.2-0.3-0.3l-0.2-0.2c-0.2-0.2-0.5-0.3-0.8-0.2
		c0,0-0.1,0-0.2,0.1l-0.1,0.1c0,0,0,0,0,0l-0.1,0.1v0c-0.2,0.3-0.1,0.7,0.2,1l0.1,0.1l0,0c0.3,0.3,0.6,0.6,0.9,0.9
		c0.2,0.2,0.4,0.3,0.6,0.3c0.2,0,0.5-0.1,0.6-0.3c0.3-0.3,0.6-0.6,0.9-1l0.1-0.1c0.2-0.2,0.2-0.4,0.2-0.6c0-0.2-0.1-0.4-0.2-0.6
		C41.8,81.1,41.4,81.1,41.1,81.2z"/>
	<path d="M63.4,76.5l-0.2-0.1c-0.9-0.2-1.9-0.4-2.9-0.6c-0.5-0.1-0.9,0.2-1,0.7l0,0.1c0,0.3,0.2,0.6,0.5,0.8l0.1,0.1h0.2
		c0.9,0.1,1.8,0.3,2.7,0.5l0.3,0c0.4,0,0.7-0.3,0.8-0.6c0-0.2,0-0.4-0.1-0.6C63.7,76.7,63.5,76.6,63.4,76.5z"/>
</g>
</svg>
