<?xml version="1.0" encoding="utf-8"?>
<!-- Generator: Adobe Illustrator 22.0.1, SVG Export Plug-In . SVG Version: 6.00 Build 0)  -->
<svg version="1.1" id="Calque_1" xmlns="http://www.w3.org/2000/svg" xmlns:xlink="http://www.w3.org/1999/xlink" x="0px" y="0px"
	 viewBox="0 0 82.5 73.4" style="enable-background:new 0 0 82.5 73.4;" xml:space="preserve">
<style type="text/css">
	.st0{fill:#FFFFFF;}
</style>
<g>
	<path d="M80.6,50l-64-49.7c-0.6-0.4-1.5-0.4-2,0.3l-3.2,4h0L-0.1,19.5c-0.2,0.3-0.4,0.7-0.3,1.1c0.1,0.4,0.3,0.7,0.6,1l64.1,50.1
		c0.3,0.2,0.6,0.3,0.9,0.3c0.1,0,0.1,0,0.2,0c0.4,0,0.7-0.3,1-0.5l3.3-4.5l0,0c0,0,0,0,0,0l11.3-14.9C81.4,51.3,81.3,50.4,80.6,50z
		 M72.2,58.9l0-0.3h0c-0.1,0-2.4-0.6-4.7-4.5c-1.5-2.6-4.6-5.8-7-8c-1.2-1.1-2.4-2.2-3.5-3.1c-1.7-1.4-2-1.6-2.5-1.6
		c-0.1,0-7.7-0.7-10.7-4.1c-3.3-3.7-9.4-9.7-9.5-9.8c-0.5-0.6-1.4-0.6-2,0c-0.5,0.5-0.5,1.4,0,2c0,0.1,6.1,6,9.3,9.7
		c3.4,3.7,10.6,4.7,12.4,4.9c1.5,1.1,8.8,7.5,11.1,11.4c2,3.4,4.1,4.8,5.4,5.4l-1.9,2.6c-0.3-0.5-0.7-1.1-1.2-1.7
		c-1.2-1.5-2.4-3.1-2.4-3.1c-0.5-0.6-1.4-0.8-2-0.3c-0.6,0.5-0.7,1.4-0.2,2c1.6,2,3.4,4.3,4.1,5.4l-2,2.6L3,20.1L7,15
		c1.8,1.1,5.2,2.9,7.9,2.8c3.3-0.1,7.6,1.4,8.4,3.3c1.2,2.9,2.8,6.1,2.8,6.2c0.2,0.5,0.8,0.8,1.2,0.8c0.2,0,0.4,0,0.6-0.1
		c0.7-0.4,1-1.2,0.6-1.9c0,0-1.6-3.2-2.7-6c-0.7-1.7-2.4-3.1-4.9-4c-1.9-0.7-4.2-1.1-6.2-1.1c-1.8,0-4.4-1.2-6.1-2.2l4-5.1
		c1.8,1.9,5.3,5.2,8.4,6c3.4,0.9,7.8,5.2,9,7.1c1.5,2.6,11.2,8.5,13.4,9.6c2,0.9,8.2,5.6,10.4,7.4c0.3,0.2,0.6,0.3,0.9,0.3
		c0.4,0,0.9-0.2,1.1-0.6c0.5-0.6,0.4-1.5-0.2-2c-0.8-0.7-8.3-6.5-10.9-7.7c-1.1-0.5-3.9-2.1-6.8-4.1c-3.5-2.4-5.2-3.8-5.5-4.4
		c-1.4-2.3-6.3-7.2-10.6-8.4c-2.5-0.7-5.7-3.7-7.4-5.5l1.5-2l61.8,47.9L72.2,58.9z"/>
	<path d="M59.3,43c0.6,0.4,3.7,3.2,6.5,5.6c0.3,0.3,0.6,0.4,1,0.4c0.4,0,0.8-0.2,1.1-0.5c0.5-0.6,0.5-1.5-0.1-2
		c-6.4-5.8-7-6-7.2-6.1c-0.7-0.3-1.6,0.1-1.8,0.8C58.3,41.9,58.6,42.7,59.3,43z"/>
	<path d="M16.9,22.9c-0.3-0.7-1.2-1-1.9-0.7c-0.7,0.3-1.1,1.2-0.7,1.9c0.3,0.7,2,4.2,4.1,5.1c2,0.9,11.3,6.2,13.4,8.9
		c0.7,0.9,2.8,3.4,5.3,5.9c2.7,2.6,5,4.3,6.9,5c4.1,1.6,13.2,6.6,14.1,7.6c0.3,0.3,0.7,0.5,1.1,0.5c0.3,0,0.7-0.1,1-0.4
		c0.6-0.5,0.6-1.4,0.1-2c-1.5-1.7-11.4-6.9-15.2-8.4c-1.6-0.6-5.8-3.5-11-10c-2.6-3.3-12.9-9-14.5-9.7
		C18.8,26.2,17.5,24.2,16.9,22.9z"/>
</g>
<g id="XMLID_1_">
	<g>
		<path d="M82,18.2c1.2,1.2,1.2,3,0,4.2l-7,7c-2.9,2.9-7.1,3.8-10.7,2.7l-0.5,3.7c-0.1,0.9-0.9,1.5-1.8,1.4l-3.7-0.5l-0.5,3.7
			c-0.1,0.9-0.9,1.5-1.8,1.4l-3.7-0.5l-0.5,3.7c-0.1,0.9-0.9,1.5-1.8,1.4l-3.7-0.5l-0.5,3.7c-0.1,0.9-0.9,1.5-1.8,1.4l-3.7-0.5
			l-0.5,3.7c-0.1,0.9-0.9,1.5-1.8,1.4l-3.7-0.5l-0.6,3.8c-0.1,0.9-0.9,1.5-1.8,1.4L28,59.6l-0.5,3.7c-0.1,0.9-0.9,1.5-1.8,1.4
			l-3.7-0.5l-0.5,3.7c-0.1,0.9-1,1.5-1.8,1.4l-3.7-0.5l-0.5,3.7c-0.1,0.5-0.4,1-0.9,1.2c-0.5,0.2-1.1,0.2-1.5-0.1l-7.4-4.4
			c-0.4-0.3-0.7-0.7-0.8-1.2L4,61.6c-0.1-0.5,0.1-1,0.5-1.3L62.2,2.6c1.9-1.9,5.1-1.9,7.1,0c1.5,1.5,1.9,3.9,0.9,5.7l6.5,6.5
			c0.9-0.2,2,0.1,2.7,0.8L82,18.2z M72.7,27.1l6.8-6.8l-2.2-2.2c-0.6,0.5-1.5,0.4-2.1-0.2l-7.1-7.1L65.9,13l7.1,7.1
			c0.6,0.6,0.6,1.7,0,2.3l-2.5,2.5c-1.7,1.7-4.5,1.7-6.2,0L58,18.6c-0.6-0.6-0.6-1.7,0-2.3L67,7.4c0.7-0.7,0.7-1.8,0-2.5
			s-1.8-0.7-2.5,0L45.8,23.6c1.9,1,4.4,0.7,6-1l1.8-1.8c0.6-0.6,1.7-0.6,2.3,0l6.3,6.3C65.1,30,69.8,30,72.7,27.1z M68.3,22.6
			l1.4-1.3l-6-6l-2.2,2.2l5.2,5.1C67.1,23,67.8,23,68.3,22.6z M60.8,33.7l0.4-2.9l-6.6-6.6L54,24.9c-2.9,2.9-7.4,3.2-10.6,1L7.3,62
			l0.5,4.7l4.6,2.7l0.4-2.9c0.1-0.9,1-1.5,1.8-1.4l3.7,0.5l0.5-3.7c0.1-0.9,0.9-1.5,1.8-1.4l3.7,0.5l0.5-3.7c0.1-0.9,1-1.5,1.8-1.4
			l3.7,0.5c0,0,0.5-4,0.7-4.4c0.3-0.6,1-0.9,1.6-0.8l3.7,0.5l0.5-3.7c0.1-0.9,0.9-1.5,1.8-1.4l3.7,0.5l0.5-3.7
			c0.1-0.9,0.9-1.5,1.8-1.4l3.7,0.5l0.5-3.7c0.1-0.9,0.9-1.5,1.8-1.4l3.7,0.5l0.5-3.7c0.1-0.9,0.9-1.5,1.8-1.4L60.8,33.7z"/>
		<path class="st0" d="M61.2,30.8l-0.4,2.9l-3.7-0.5c-0.9-0.1-1.7,0.5-1.8,1.4l-0.5,3.7l-3.7-0.5c-0.9-0.1-1.7,0.5-1.8,1.4l-0.5,3.7
			L45,42.3c-0.9-0.1-1.7,0.5-1.8,1.4l-0.5,3.7l-3.7-0.5c-0.9-0.1-1.7,0.5-1.8,1.4L36.6,52l-3.7-0.5c-0.6-0.1-1.3,0.2-1.6,0.8
			c-0.2,0.3-0.7,4.4-0.7,4.4l-3.7-0.5C26,56,25.2,56.6,25,57.5l-0.5,3.7l-3.7-0.5c-0.9-0.1-1.7,0.5-1.8,1.4l-0.5,3.7l-3.7-0.5
			c-0.9-0.1-1.7,0.5-1.8,1.4l-0.4,2.9l-4.6-2.7L7.3,62l36.1-36.1c3.3,2.2,7.7,1.9,10.6-1l0.7-0.7L61.2,30.8z"/>
	</g>
	<g>
	</g>
</g>
</svg>
