<?xml version="1.0" encoding="utf-8"?>
<!-- Generator: Adobe Illustrator 22.0.1, SVG Export Plug-In . SVG Version: 6.00 Build 0)  -->
<svg version="1.1" id="Calque_1" xmlns="http://www.w3.org/2000/svg" xmlns:xlink="http://www.w3.org/1999/xlink" x="0px" y="0px"
	 viewBox="0 0 91 92.3" style="enable-background:new 0 0 91 92.3;" xml:space="preserve">
<g>
	<path d="M85.8,56.5c1.7-1.4,2.9-3.2,3.6-5.3c0.9-2.8,0.6-5.7-0.8-8.3l-6.8-12.9c-2.3-4.4-7.4-6.7-12.2-5.5
		c1.6-4.8-0.2-10.1-4.6-12.8L52.7,4.2c-5.1-3.1-11.8-1.5-14.9,3.6l-1.6,2.7C35.9,4.6,31.2,0,25.3,0H10.7C4.7,0-0.1,4.8-0.1,10.8
		v69.5c0,6,4.9,10.9,10.9,10.9h69.5c6,0,10.9-4.9,10.9-10.9V65.8C91.1,62,89.1,58.4,85.8,56.5z M36.2,70.9V58.2l5.7,3.5L36.2,70.9z
		 M50.2,8.2l12.4,7.6c2.9,1.8,3.8,5.6,2,8.5l-7.9,12.8l-15.1-9.2c-0.5-0.3-1.2-0.4-1.8-0.3c-0.6,0.1-1.1,0.5-1.5,1.1
		c-0.7,1.1-0.3,2.6,0.8,3.2l15.1,9.2L44.3,57.7l-6.4-3.9c-0.4-0.2-0.8-0.3-1.2-0.3c-0.2,0-0.4,0-0.5,0.1V19.4l5.6-9.2
		C43.6,7.3,47.4,6.4,50.2,8.2z M62.9,72.7c-1.3,0-2.3,1.1-2.3,2.3v11.5H34.2c0.7-1.1,1.3-2.3,1.6-3.5l44.4-23.4h0
		c3.4,0,6.2,2.8,6.2,6.2l0,14.6c0,3.4-2.8,6.2-6.2,6.2h-15V75C65.2,73.7,64.2,72.7,62.9,72.7z M84.9,49.8c-0.5,1.6-1.6,2.9-3,3.6
		l-13.1,6.9l-6.3-12.1c-0.6-1.1-2-1.6-3.2-1c-1.1,0.6-1.6,2-1,3.2l6.3,12.1L38.3,76.4l27.4-44.8l3.7-1.9c3-1.6,6.7-0.4,8.3,2.6
		l6.8,12.9C85.3,46.6,85.4,48.3,84.9,49.8z M11.4,52.3c0,1.3,1.1,2.4,2.4,2.4h17.7v25.7c0,3.4-2.8,6.2-6.2,6.2H11l-0.3,0
		c-3.4,0-6.2-2.8-6.2-6.2V10.8c0-3.4,2.8-6.2,6.2-6.2h14.6c3.4,0,6.2,2.8,6.2,6.2v15H13.7c-1.3,0-2.4,1.1-2.4,2.4s1.1,2.4,2.4,2.4
		h17.7V50H13.7C12.4,50,11.4,51,11.4,52.3z"/>
	<path d="M17.8,79.3c2.4,0,4.3-1.9,4.3-4.3c0-2.4-1.9-4.3-4.3-4.3c-2.4,0-4.3,1.9-4.3,4.3C13.5,77.4,15.5,79.3,17.8,79.3z"/>
</g>
</svg>
