<?xml version="1.0" encoding="utf-8"?>
<!-- Generator: Adobe Illustrator 22.0.1, SVG Export Plug-In . SVG Version: 6.00 Build 0)  -->
<svg version="1.1" id="Calque_1" xmlns="http://www.w3.org/2000/svg" xmlns:xlink="http://www.w3.org/1999/xlink" x="0px" y="0px"
	 viewBox="0 0 48 39.4" style="enable-background:new 0 0 48 39.4;" xml:space="preserve">
<g>
	<path d="M46.8-0.3H19.2c-0.7,0-1.2,0.5-1.2,1.2v7.9H5c-0.6,0-1,0.3-1.1,0.7l-3.7,8.6C0,18.3,0,18.5,0,18.6V31
		c0,0.7,0.5,1.2,1.2,1.2h1.9c0,3.9,3.2,7,7.1,7s7-3.1,7.1-7h13.3c0,3.9,3.2,7,7.1,7s7-3.1,7.1-7h2c0.7,0,1.2-0.5,1.2-1.2V0.9
		C48,0.2,47.5-0.3,46.8-0.3z M37.7,27.7c2.5,0,4.6,2.1,4.6,4.6c0,2.5-2.1,4.6-4.6,4.6c-2.5,0-4.6-2.1-4.6-4.6
		C33.1,29.8,35.1,27.7,37.7,27.7z M45.5,23.1v6.6h-1.2c-1-2.8-3.7-4.7-6.7-4.7c-2.9,0-5.6,1.9-6.7,4.7H20.5v-6.6H45.5z M45.5,2.2
		v18.5h-25V2.2H45.5z M10.2,27.7c2.5,0,4.6,2.1,4.6,4.6c0,2.5-2.1,4.6-4.6,4.6s-4.6-2.1-4.6-4.6C5.6,29.8,7.7,27.7,10.2,27.7z
		 M18,11.3v18.5h-1.1c-1.1-2.8-3.8-4.7-6.7-4.7S4.6,27,3.5,29.8H2.5V18.9l3.3-7.6H18z"/>
	<path d="M5.3,20.4h9.9c0.7,0,1.2-0.5,1.2-1.2l0-5.1c0.1-0.3,0-0.6-0.2-0.9c-0.2-0.3-0.6-0.4-0.9-0.4H7.6c-0.6,0-1,0.3-1.1,0.7
		l-2.3,5.2C4,19,4,19.5,4.3,19.8C4.6,20.2,4.9,20.4,5.3,20.4z M7.3,17.9l1.2-2.7h5.6v2.7H7.3z"/>
</g>
</svg>
