<?xml version="1.0" encoding="utf-8"?>
<!-- Generator: Adobe Illustrator 22.0.1, SVG Export Plug-In . SVG Version: 6.00 Build 0)  -->
<svg version="1.1" id="Calque_1" xmlns="http://www.w3.org/2000/svg" xmlns:xlink="http://www.w3.org/1999/xlink" x="0px" y="0px"
	 viewBox="0 0 48 45.4" style="enable-background:new 0 0 48 45.4;" xml:space="preserve">
<g>
	<path d="M48,29.1C48,29.1,48,29.1,48,29.1l0-26.9C48,1.6,47.4,1,46.8,1H32.8c-0.7,0-1.2,0.6-1.2,1.2v3.7L20.2,0.1
		c-0.6-0.3-1.4-0.1-1.7,0.5L6.8,23.6c0,0,0,0,0,0.1l-6.9,13.6c-0.2,0.3-0.2,0.6-0.1,0.9c0.1,0.3,0.3,0.6,0.6,0.7l12.2,6.2
		c0.2,0.1,0.4,0.1,0.6,0.1c0.1,0,0.3,0,0.4-0.1c0.3-0.1,0.6-0.3,0.7-0.6l17.3-33.9v18.4c0,0,0,0,0,0c0,0,0,0,0,0V44
		c0,0.7,0.6,1.2,1.2,1.2h13.9c0.7,0,1.2-0.6,1.2-1.2L48,29.1C48,29.1,48,29.1,48,29.1z M34.1,30.3h11.4v12.4H34.1V30.3z M45.5,27.9
		H34.1V3.5h11.4V27.9z M8.5,25.8l10,5l-5.9,11.5l-10-5.1L8.5,25.8z M9.6,23.6L20.2,2.9l10,5.1L19.7,28.6L9.6,23.6z"/>
	<path d="M42.8,32.8h-6c-0.7,0-1.2,0.6-1.2,1.2v6c0,0.7,0.6,1.2,1.2,1.2h6c0.7,0,1.2-0.6,1.2-1.2v-6C44,33.4,43.5,32.8,42.8,32.8z
		 M41.5,35.3v3.5H38v-3.5H41.5z"/>
	<path d="M36.8,7.5h5.9c0,0,0,0,0,0c0.3,0,0.6-0.1,0.9-0.4C43.9,6.9,44,6.6,44,6.2c0-0.3-0.1-0.6-0.3-0.9C43.4,5.1,43.1,5,42.8,5
		h-5.9c-0.3,0-0.6,0.1-0.9,0.4c-0.2,0.2-0.4,0.5-0.4,0.9c0,0.3,0.1,0.6,0.4,0.9C36.1,7.3,36.5,7.5,36.8,7.5z"/>
	<path d="M36.8,11.4h5.9c0,0,0,0,0,0c0.3,0,0.6-0.1,0.9-0.4c0.2-0.2,0.4-0.5,0.4-0.9c0-0.3-0.1-0.6-0.3-0.9C43.4,9.1,43.1,9,42.8,9
		h-5.9c-0.3,0-0.6,0.1-0.9,0.4c-0.2,0.2-0.4,0.5-0.4,0.9c0,0.3,0.1,0.6,0.4,0.9C36.1,11.3,36.5,11.4,36.8,11.4z"/>
	<path d="M14.5,32.7L9.2,30c-0.2-0.1-0.4-0.1-0.6-0.1c-0.5,0-0.9,0.3-1.1,0.7l-2.7,5.3c-0.3,0.6-0.1,1.4,0.5,1.7l5.3,2.7
		c0.2,0.1,0.4,0.1,0.6,0.1c0.1,0,0.3,0,0.4-0.1c0.3-0.1,0.6-0.3,0.7-0.6l2.7-5.3C15.3,33.7,15.1,33,14.5,32.7z M12.3,34.3l-1.6,3.1
		l-3.1-1.6l1.6-3.1L12.3,34.3z"/>
	<path d="M28.1,8.8c-0.1-0.3-0.3-0.6-0.6-0.7l-6-3C21.3,5,21.1,5,20.9,5h0c-0.3,0-0.6,0.1-0.9,0.4c-0.2,0.2-0.4,0.6-0.3,0.9
		c0,0.5,0.3,0.9,0.7,1.1l5.9,3c0.2,0.1,0.4,0.1,0.6,0.1c0.4,0,0.9-0.2,1.1-0.7C28.1,9.5,28.2,9.2,28.1,8.8z"/>
	<path d="M25.5,12.1l-6-3C19.3,9,19.1,9,18.9,9h0c-0.7,0-1.2,0.6-1.2,1.3c0,0.5,0.3,0.9,0.7,1.1l5.9,3c0.2,0.1,0.4,0.1,0.6,0.1
		c0.4,0,0.9-0.2,1.1-0.7C26.3,13.2,26.1,12.4,25.5,12.1z"/>
	<path d="M23.5,16.1l-6-3c-0.2-0.1-0.4-0.1-0.6-0.1c-0.3,0-0.6,0.1-0.9,0.4c-0.2,0.2-0.4,0.6-0.3,0.9c0,0.5,0.3,0.9,0.7,1.1l5.9,3
		c0.2,0.1,0.4,0.1,0.6,0.1c0.1,0,0.2,0,0.4-0.1c0.3-0.1,0.6-0.3,0.7-0.6C24.3,17.1,24.1,16.4,23.5,16.1z"/>
	<path d="M36.8,15.4h5.9c0,0,0,0,0,0c0.3,0,0.6-0.1,0.9-0.4c0.2-0.2,0.4-0.5,0.4-0.9c0-0.3-0.1-0.6-0.3-0.9
		c-0.2-0.2-0.5-0.4-0.9-0.4h-5.9c0,0,0,0,0,0c-0.7,0-1.2,0.5-1.2,1.2c0,0.3,0.1,0.6,0.4,0.9S36.5,15.4,36.8,15.4z"/>
</g>
</svg>
