<?xml version="1.0" encoding="utf-8"?>
<!-- Generator: Adobe Illustrator 22.0.1, SVG Export Plug-In . SVG Version: 6.00 Build 0)  -->
<svg version="1.1" id="Mode_Isolation" xmlns="http://www.w3.org/2000/svg" xmlns:xlink="http://www.w3.org/1999/xlink" x="0px"
	 y="0px" viewBox="0 0 46.6 39.7" style="enable-background:new 0 0 46.6 39.7;" xml:space="preserve">
<path d="M46.8,14.3V7.9c0-0.5-0.1-0.9-0.4-1.3L42.7,1c-0.4-0.6-1.1-1-1.9-1H6C5.3,0,4.5,0.4,4.1,1L0.4,6.7C0.1,7.1,0,7.5,0,7.9v6.4
	c0,2.8,1.7,5.3,4.2,6.4v16H2.5c-0.8,0-1.5,0.7-1.5,1.5s0.7,1.5,1.5,1.5h41.8c0.8,0,1.5-0.7,1.5-1.5s-0.7-1.5-1.5-1.5h-1.7v-16
	C45.2,19.6,46.8,17.1,46.8,14.3z M27.4,27.1v9.7h-8v-9.7H27.4z M4.2,6.4L6.4,3h33.3c0.4,0,0.8,0.2,1.1,0.6l1.9,2.8L4.2,6.4z
	 M16.4,24.1v12.7H7.2V21.3c2.1-0.1,4-1,5.3-2.7c1.3,1.7,3.3,2.7,5.5,2.7c2.2,0,4.2-1,5.5-2.7c1.3,1.7,3.3,2.7,5.5,2.7
	c2.2,0,4.2-1,5.5-2.7c1.3,1.6,3.2,2.6,5.3,2.7l0,15.4h-9.2V24.1H16.4z M32.9,13.8v0.5c0,2.2-1.8,4-4,4c-2.2,0-4-1.8-4-4v-0.5h-3v0.5
	c0,2.2-1.8,4-4,4s-4-1.8-4-4v-0.5h-3v0.5c0,2.2-1.8,4-4,4s-4-1.8-4-4V9.4h40.8l0,4.9c0,2.2-1.8,4-4,4c-2.2,0-4-1.8-4-4v-0.5H32.9z"
	/>
</svg>
