<?xml version="1.0" encoding="utf-8"?>
<!-- Generator: Adobe Illustrator 22.0.1, SVG Export Plug-In . SVG Version: 6.00 Build 0)  -->
<svg version="1.1" id="Calque_1" xmlns="http://www.w3.org/2000/svg" xmlns:xlink="http://www.w3.org/1999/xlink" x="0px" y="0px"
	 viewBox="0 0 92.7 88.1" style="enable-background:new 0 0 92.7 88.1;" xml:space="preserve">
<path d="M91.3,33.1c-0.4-1.1-1.5-2.9-5.1-3.2L60,28.4L50.4,3.9C49,0.5,46.9,0,45.8,0c-1.1,0-3.3,0.5-4.6,3.9l-9.6,24.4L5.3,29.9
	c-3.7,0.2-4.8,2.1-5.2,3.2c-0.4,1.1-0.5,3.3,2.3,5.6l20.3,16.7l-6.6,25.4c-0.7,2.7,0,4.2,0.6,5.1c1.5,1.9,4.1,2,6.8,0.3l22.1-14.1
	l22.1,14.1c1.3,0.8,2.5,1.2,3.6,1.2c1.3,0,2.4-0.5,3.2-1.5c0.7-0.9,1.3-2.5,0.6-5.1l-6.6-25.4L89,38.7
	C91.8,36.4,91.7,34.2,91.3,33.1z M28,56.5c0.5-1.8-0.2-3.9-1.6-5.1L6.6,35.2l25.5-1.5c1.8-0.1,3.6-1.4,4.3-3.1l9.3-23.8l9.3,23.8
	c0.7,1.7,2.5,3,4.3,3.1l25.5,1.5L65.2,51.4c-1.4,1.2-2.1,3.3-1.6,5.1l6.4,24.7L48.4,67.4c-1.5-1-3.8-1-5.3,0L21.6,81.2L28,56.5z"/>
</svg>
