<?xml version="1.0" encoding="utf-8"?>
<!-- Generator: Adobe Illustrator 22.0.1, SVG Export Plug-In . SVG Version: 6.00 Build 0)  -->
<svg version="1.1" id="Calque_1" xmlns="http://www.w3.org/2000/svg" xmlns:xlink="http://www.w3.org/1999/xlink" x="0px" y="0px"
	 viewBox="0 0 92.5 98.2" style="enable-background:new 0 0 92.5 98.2;" xml:space="preserve">
<g>
	<path d="M48.8,88.6c-2.4,1.2-4.9,2.3-7.6,3.3C5,78.8,5.6,49.1,6.1,25.2c0-1.1,0-2.1,0-3.2c0-0.6,0-1.1,0-1.7
		c14.2-0.5,25.3-4.7,34.9-13.2c9.6,8.5,20.8,12.7,34.9,13.2c0,1.2,0,2.5,0.1,3.8l0,1c0.1,5.5,0.2,12.9-0.2,19.5l0,0.5l6,0l0-0.5
		c0.5-6.9,0.4-13.7,0.3-19.7l0-0.6c0-2.5-0.1-4.8-0.1-7c0-1.7-1.3-3-3-3c-14.9,0-26.3-4.3-35.8-13.5c-1.2-1.1-3-1.1-4.2,0
		c-9.5,9.2-20.9,13.5-35.8,13.5c-1.7,0-3,1.3-3,3c0,2.5,0,5-0.1,7.6c-0.5,24.7-1.2,58.6,40,72.8c0.3,0.1,0.7,0.2,1,0.2
		s0.7-0.1,1-0.2c3.3-1.1,6.4-2.4,9.3-3.9l0.4-0.2l-2.6-5.4L48.8,88.6z"/>
	<path d="M90.2,61.3c-5.1-0.9-10.8-6.7-11.7-12c-0.2-1-1-1.6-1.9-1.6h-0.3c-0.9,0-1.7,0.7-1.9,1.6c-0.9,5.3-6.6,11.1-11.7,12
		c-0.9,0.2-1.5,0.9-1.5,1.9v0.3c0,0.9,0.6,1.7,1.5,1.9h0c5.1,0.9,10.8,6.7,11.7,12c0.2,1,1,1.6,1.9,1.6h0.3c0.9,0,1.7-0.7,1.9-1.6
		c0.9-5.3,6.6-11.1,11.7-12c0.9-0.2,1.5-0.9,1.5-1.9v-0.3C91.8,62.2,91.1,61.4,90.2,61.3z M84.9,63.4c-3.4,1.9-6.5,5.1-8.3,8.5
		c-1.8-3.4-4.9-6.5-8.3-8.5c3.4-2,6.5-5.2,8.3-8.5C78.4,58.2,81.4,61.4,84.9,63.4z"/>
	<path d="M69.7,80.2c-3.6-0.6-7.6-4.7-8.2-8.5c-0.1-0.8-0.9-1.5-1.7-1.5h-0.2c-0.8,0-1.5,0.6-1.7,1.5c-0.6,3.7-4.6,7.8-8.2,8.5
		c-0.8,0.1-1.4,0.8-1.4,1.7v0.2c0,0.8,0.6,1.5,1.4,1.7c3.6,0.6,7.6,4.7,8.2,8.5c0.1,0.8,0.9,1.5,1.7,1.5h0.2c0.8,0,1.5-0.6,1.7-1.5
		c0.6-3.7,4.6-7.8,8.2-8.5c0.8-0.1,1.4-0.8,1.4-1.7v-0.2C71.1,81,70.6,80.3,69.7,80.2z M65.2,82c-2.2,1.3-4.1,3.3-5.4,5.6
		c-1.3-2.2-3.3-4.2-5.4-5.6c2.2-1.4,4.1-3.4,5.4-5.6C61,78.6,63,80.6,65.2,82z"/>
	<path d="M49.8,33c-0.2-0.9-0.9-1.6-1.9-1.6h-0.3c-0.9,0-1.7,0.7-1.9,1.6c-1.1,6.6-8.2,13.8-14.5,14.9c-0.9,0.1-1.5,0.9-1.5,1.9v0.4
		c0,0.9,0.6,1.7,1.5,1.9c6.3,1.1,13.4,8.3,14.5,14.9c0.2,0.9,0.9,1.6,1.9,1.6h0.3c0.9,0,1.7-0.7,1.9-1.6c1.1-6.6,8.2-13.8,14.5-14.9
		c0.9-0.1,1.5-0.9,1.5-1.9v-0.4c0-0.9-0.6-1.7-1.5-1.9C57.9,46.8,50.9,39.6,49.8,33z M58.7,50l-0.2,0.1C54,52.4,50,56.5,47.8,61.1
		l-0.1,0.2l-0.1-0.2c-2.2-4.4-6.2-8.5-10.6-10.9L36.7,50l0.2-0.1c4.4-2.5,8.4-6.6,10.6-10.9l0.1-0.2l0.1,0.2
		c2.2,4.4,6.2,8.5,10.6,10.9L58.7,50z"/>
</g>
</svg>
