<?xml version="1.0" encoding="utf-8"?>
<!-- Generator: Adobe Illustrator 22.0.1, SVG Export Plug-In . SVG Version: 6.00 Build 0)  -->
<svg version="1.1" id="Calque_1" xmlns="http://www.w3.org/2000/svg" xmlns:xlink="http://www.w3.org/1999/xlink" x="0px" y="0px"
	 viewBox="0 0 290 260.5" style="enable-background:new 0 0 290 260.5;" xml:space="preserve">
<g>
	<path d="M69.2,44.5c1.7,1.7,3.6,2.4,5.5,2.4c2.1,0,4.2-0.9,5.6-2.4c1.4-1.4,2.3-3.3,2.4-5.2c0.1-1.5-0.3-3.8-2.4-5.9l-31-31
		c-2.2-2.2-4.4-2.5-5.9-2.4c-1.9,0.1-3.8,1-5.2,2.4c-2.8,2.8-3.7,7.5,0,11.1L69.2,44.5z"/>
	<path d="M49.9,159c-2.5-1.4-5.4-1.3-8.1,0.4l-36,20.5c-2.6,1.2-4.1,3.3-4.3,5.9c-0.3,2.9,1.3,6,3.9,7.7c1.4,1,3,1.4,4.6,1.4
		c1.4,0,2.8-0.3,4.2-1l35.4-21.2c2.6-1.2,4.2-3.5,4.3-6.1C54.1,163.5,52.5,160.5,49.9,159z"/>
	<path d="M282.5,121c-65.4-12.1-107.2-40.3-149-100.3c-1.8-2.9-5.1-4.4-8.5-3.7c-3.2,0.6-5.6,3-6.2,6.2L69.8,207
		c-1.3,3.5-1.1,6.2,0.5,7.9c2.5,2.8,7.6,2.1,11.4,1l0.2-0.1c2.9-1.2,5.9-2.6,9-4c17.2-7.7,38.5-17.2,73.4-20.7L151.8,238
		c-0.6,1.8-0.4,3.9,0.6,5.8c1.1,2.1,3.1,3.6,5.4,4.1l45,12c0.8,0.2,1.6,0.3,2.4,0.3c4,0,7.5-2.5,8.4-6.4l15.6-59.6
		c3.6,1,7.6,2.3,11.4,3.5c10.9,3.6,21.2,7,26.6,4.2c1.7-0.9,2.8-2.2,3.3-4.1l18-67.1C289.8,125.4,287.8,122.3,282.5,121z
		 M213.4,191.6l-14.2,51l-29.1-8.2l11.4-44.6C190,189,202.4,189.1,213.4,191.6z M243.4,128.5l-13.3,49.2
		c-33.6-6.5-63.9-5.7-97.8,2.7l27.7-103C185,101.8,213.1,119,243.4,128.5z M146.6,63.8L114,185.3c-8.7,2.7-16.7,6.1-24.5,9.5
		l40.4-151.2L146.6,63.8z M270.4,135.6l-13.2,49.9l-11.2-4l13.3-48.3L270.4,135.6z"/>
	<path d="M50.6,94L10.7,83c-2.6-1-5.2-0.6-7.2,1.1c-2.3,1.9-3.3,5.1-2.7,8.2c0.6,3.1,2.8,5.5,6,6.5l40,10c0.9,0.3,1.9,0.5,2.8,0.5
		c1.7,0,3.3-0.6,4.6-1.8c2.2-2,3.2-5.3,2.4-8.2C55.9,96.7,53.7,94.7,50.6,94z"/>
</g>
</svg>
