<?xml version="1.0" encoding="utf-8"?>
<!-- Generator: Adobe Illustrator 22.0.1, SVG Export Plug-In . SVG Version: 6.00 Build 0)  -->
<svg version="1.1" id="Capa_1" xmlns="http://www.w3.org/2000/svg" xmlns:xlink="http://www.w3.org/1999/xlink" x="0px" y="0px"
	 viewBox="0 0 29.6 25.4" style="enable-background:new 0 0 29.6 25.4;" xml:space="preserve">
<g>
	<g>
		<g>
			<path d="M20,18.9c-0.4,0-0.8,0-1.3-0.1c-0.3-0.1-0.7-0.2-1.1-0.3c-0.2-0.1-0.4-0.3-0.4-0.5c0-0.2,0-0.5-0.1-0.8l-0.4-2.9
				c0-0.2,0-0.3,0.2-0.5c0.1-0.1,0.3-0.2,0.5-0.1l4.4,0.8c-0.2-1-1-1.9-2.1-2c-0.8-0.1-1.6,0.1-2.3,0.7c-0.1,0.1-0.4,0.2-0.5,0.1
				c-0.2-0.1-0.3-0.2-0.3-0.4l-0.6-4.5c0-0.2,0.1-0.4,0.2-0.5c0.2-0.1,0.4-0.1,0.5-0.1C17,7.9,17.3,8,17.7,7.9
				c0.7,0,1.1-0.3,1.1-0.4c0-0.1-0.4-0.4-1.1-0.3c-0.4,0-0.7,0.1-0.9,0.3c-0.1,0.1-0.3,0.1-0.5,0.1c-0.2,0-0.3-0.2-0.3-0.3
				c-0.1-0.4-0.4-0.7-0.7-0.9C14.8,6,14.4,5.9,13.9,6c-0.2,0-0.3,0-0.5-0.1c-0.1-0.1-0.2-0.3-0.2-0.4l0.4-4.5c0-0.3,0.2-0.5,0.4-0.7
				C14.3,0,14.6,0,14.8,0c0.1,0,0.2,0.1,0.2,0.1c0.8,0.6,3.2,1.6,6.5,2.1c3.4,0.6,5.9,0.5,6.9,0.2c0.1,0,0.1,0,0.2,0
				c0.3,0.1,0.6,0.2,0.7,0.5c0,0,0,0,0,0c0.2,0.2,0.2,0.5,0.1,0.8l-2.6,9.9C26,16.8,23.2,18.9,20,18.9z M18.3,17.6
				c0.2,0.1,0.4,0.1,0.6,0.1c3.1,0.5,6.1-1.4,7-4.4l2.6-9.8c-1.5,0.4-4.1,0.3-7.1-0.2c-2.9-0.5-5.5-1.3-6.7-2.2l-0.3,3.8
				c0.5,0,1,0.2,1.4,0.5c0.3,0.2,0.6,0.5,0.8,0.9c0.3-0.1,0.6-0.2,1-0.2c1.3,0,2.2,0.5,2.2,1.4c0,0.3-0.1,0.6-0.3,0.8
				c-0.4,0.4-1,0.7-1.8,0.7c-0.2,0-0.3,0-0.5,0l0.4,2.9c0.7-0.4,1.6-0.5,2.4-0.4c1.8,0.3,3.1,1.9,3,3.7c0,0.2-0.1,0.3-0.2,0.4
				c-0.1,0.1-0.3,0.2-0.5,0.1L18,14.9l0.3,2.2C18.3,17.3,18.3,17.4,18.3,17.6z M24.1,10.2c-0.4,0-0.8-0.1-1.1-0.2
				c-1.1-0.5-1.8-1.4-1.5-2.1c0.3-0.8,1.4-1,2.5-0.5c0.5,0.2,0.9,0.5,1.2,0.8c0.3,0.4,0.4,0.9,0.3,1.3l0,0c-0.1,0.3-0.3,0.5-0.6,0.6
				C24.7,10.1,24.4,10.2,24.1,10.2z M22.9,8.1c-0.2,0-0.4,0.1-0.4,0.1c0,0.1,0.2,0.5,0.9,0.8C24,9.2,24.5,9.1,24.5,9
				c0-0.1-0.2-0.5-0.9-0.8C23.4,8.1,23.1,8.1,22.9,8.1z M24.5,9L24.5,9L24.5,9L24.5,9L24.5,9z"/>
			<path d="M9.5,25.1c-3,0-5.7-1.9-6.7-4.8L0,11c-0.1-0.3-0.1-0.6,0.1-0.9c0.2-0.3,0.4-0.5,0.7-0.5c0.1,0,0.2,0,0.3,0
				c0.2,0.1,0.7,0.2,1.5,0.2c1.3,0,3.1-0.2,4.9-0.6c3.1-0.7,5.3-1.6,6.1-2.3c0.1-0.1,0.2-0.1,0.3-0.1c0.1,0,0.2,0,0.3,0
				c0.2,0,0.4,0.1,0.6,0.2c0.2,0.2,0.4,0.4,0.5,0.7c0,0,0,0,0,0l1.3,9.6c0.4,3.6-1.9,6.9-5.5,7.7C10.5,25.1,10,25.1,9.5,25.1z
				 M1.3,11l2.8,9c0.8,2.4,3,4,5.5,4c0.4,0,0.8,0,1.2-0.1c2.9-0.6,4.8-3.3,4.5-6.3L14,8.2c-1.2,0.8-3.5,1.7-6.2,2.2
				C5.2,11,2.7,11.2,1.3,11z M9.6,22.2c-1.4,0-2.7-0.8-3.3-2.1c-0.1-0.2-0.1-0.5,0-0.7C6.4,19.2,6.6,19,6.9,19l5.4-1.2
				c0.2-0.1,0.5,0,0.7,0.2c0.2,0.1,0.3,0.4,0.3,0.6c0,1.7-1.2,3.2-2.8,3.6l0,0C10.1,22.2,9.9,22.2,9.6,22.2z M7.8,20.1
				c0.5,0.7,1.5,1,2.4,0.8c0.9-0.2,1.6-0.9,1.8-1.8L7.8,20.1z M6,16.8c-1.2,0-2.1-0.6-2.2-1.5v0c0-0.8,0.9-1.5,2.2-1.5
				c0.7,0,1.4,0.2,1.8,0.6C8,14.7,8.2,15,8.2,15.3c0,0.5-0.3,0.9-0.8,1.2C7,16.7,6.5,16.8,6,16.8C6,16.8,6,16.8,6,16.8z M5.1,15.3
				c0.1,0.1,0.4,0.2,0.9,0.2c0,0,0,0,0,0c0.5,0,0.9-0.2,0.9-0.3c0,0-0.4-0.2-0.9-0.2c0,0,0,0,0,0C5.5,15.1,5.2,15.3,5.1,15.3z
				 M11,15.8c-0.6,0-1.2-0.3-1.4-0.7c-0.1-0.3-0.1-0.6,0-0.9c0.2-0.5,0.7-1,1.4-1.3c1.1-0.5,2.2-0.3,2.6,0.5c0.1,0.3,0.1,0.6,0,0.9
				c-0.2,0.5-0.7,1-1.4,1.3c0,0,0,0,0,0C11.8,15.7,11.3,15.8,11,15.8z M12.4,13.7c0,0-0.4,0-0.9,0.2c-0.5,0.2-0.7,0.5-0.7,0.6
				c0,0,0.4,0,0.9-0.2C12.2,14.1,12.4,13.8,12.4,13.7z"/>
		</g>
	</g>
</g>
</svg>
