<?xml version="1.0" encoding="utf-8"?>
<!-- Generator: Adobe Illustrator 22.0.1, SVG Export Plug-In . SVG Version: 6.00 Build 0)  -->
<svg version="1.1" id="Calque_1" xmlns="http://www.w3.org/2000/svg" xmlns:xlink="http://www.w3.org/1999/xlink" x="0px" y="0px"
	 viewBox="0 0 1280 858.2" style="enable-background:new 0 0 1280 858.2;" xml:space="preserve">
<style type="text/css">
	.st0{fill:#C3DB61;}
	.st1{fill:#87D0E2;}
	.st2{fill:#27AACB;}
	.st3{fill:#009BC2;}
	.st4{fill:#ABCC21;}
	.st5{fill:#FFFFFF;}
	.st6{fill:#7B2F87;}
	.st7{clip-path:url(#SVGID_2_);}
	.st8{fill:#463C50;}
	.st9{fill:#2D2D46;}
	.st10{fill:none;}
	.st11{fill:#4B2D32;}
	.st12{fill:#F06335;}
	.st13{fill:#ECA680;}
	.st14{fill:#DF7F58;}
	.st15{fill:#BE4834;}
	.st16{fill:#2AC994;}
	.st17{fill:#2AB794;}
	.st18{fill:#78373C;}
	.st19{fill:#2D281E;}
	.st20{fill:#C62424;}
	.st21{fill:#660808;}
	.st22{clip-path:url(#SVGID_4_);}
	.st23{fill:#4B3223;}
	.st24{fill:#047D99;}
</style>
<title>maquette portrait v2</title>
<path class="st0" d="M1210.3,723.8c-51.9,73.6-147.8,119.8-209.6,122c-53.8,1.9-139.2,2.8-233-86.3S593.5,687.6,488.8,773
	c-72.8,59.4-154.7,80-197.9,87H1280V633C1258.7,653,1246,673.3,1210.3,723.8z"/>
<path class="st1" d="M722.3,169.3c-61.9,95.3-15.4,147.4,43.5,194.4s40.7,152.4,38.8,193.7s-7.7,174,130.4,201.4
	s192.5-64.8,259.3-164.5c29.1-43.5,60.1-66.4,85.8-78.4V0H756c0.2,9.1,2,18.2,5.4,26.7C771.3,52.6,784.2,74,722.3,169.3z"/>
<path class="st2" d="M781,207.8c-12,18.5-16.1,31-17.4,38.2s-0.3,11.7,0.9,14.9c5.7,15.7,27,34.1,44.9,48.4
	c80.3,64,70.8,179.2,66.3,234.6c-0.6,6.9-1,12.8-1.2,17c-0.8,16.1-2.3,49.7,8.3,78.2c7.2,19.2,21.1,42.4,65.8,51.3
	c10.9,2.3,22.1,3.5,33.2,3.6c27.8,0,49.1-8.7,71.5-29.1c25.3-23,49-58.7,74.1-96.3c2.9-4.3,5.7-8.6,8.6-12.9
	c43.2-64.6,92.2-95.3,131.3-109.8c4.2-1.1,8.4-1.9,12.7-2.5V0H826.9c0.2,11.8,3.2,19.1,3.2,19.1C850.7,72,847.2,106,781,207.8z"/>
<path class="st3" d="M909.4,50.3c3.1,54.3-16,109.7-60.5,181.1c-4.7,7.6-3,17.5,4,23.1l0.2,0.1c109.4,87.3,97.5,232.9,92.5,295
	c-0.5,5.7-0.8,11.6-1.1,14.6c-7.4,80.5,49.3,61.8,61.8,49c17.9-18.4,40.3-49.4,63-83.4c2.9-4.3,5.8-8.7,8.7-13
	c31.2-46.7,77.3-119.7,202.1-145.3V0H915.8C906.5,28.4,909.4,50.3,909.4,50.3z"/>
<path class="st4" d="M1112.2,47.7h112.1c6.2,0,11.3,5,11.3,11.3v68.8c0,6.2-5,11.3-11.3,11.3h-112.1c-6.2,0-11.3-5-11.3-11.3V58.9
	C1100.9,52.7,1106,47.7,1112.2,47.7z"/>
<path class="st4" d="M769.7,97.8h112.1c6.2,0,11.3,5,11.3,11.3v68.8c0,6.2-5,11.3-11.3,11.3H769.7c-6.2,0-11.3-5-11.3-11.3v-68.8
	C758.5,102.9,763.5,97.8,769.7,97.8z"/>
<path class="st4" d="M1196.2,206.1l-4-0.6c9.3-58.8-13.2-71.5-13.5-71.7l1.9-3.5C1181.7,130.9,1206,144.6,1196.2,206.1z"/>
<path class="st4" d="M949.1,164.7c-22.2-24.4-68.8-10-69.3-9.8l-1.2-3.8c2-0.6,49.5-15.3,73.4,11L949.1,164.7z"/>
<polygon class="st5" points="1199.5,304.1 1159.8,370.4 1007.5,353.8 1006.9,353.7 927.4,416.8 929.3,419.1 1007.8,356.9 
	1160.4,373.5 1161.3,373.6 1201.6,306.4 1280,268.8 1280,265.5 1199.9,303.9 "/>
<circle class="st6" cx="1007.4" cy="355.3" r="4.8"/>
<circle class="st6" cx="1160.4" cy="371.6" r="4.8"/>
<circle class="st6" cx="1201.2" cy="305.2" r="4.8"/>
<circle class="st6" cx="973.8" cy="308.6" r="4.2"/>
<path class="st5" d="M979.9,302.1l0.4-1.6c0.2-1,1-1.8,1.9-2.1l1.2-0.4c3.5-1.2,6.1-4,7.1-7.6c0-0.2,0.1-0.3,0.1-0.5
	c1.2-5.6-2-11.2-7.5-13l-0.7-0.2c-6-1.6-12.1,2-13.7,8l0,0c-0.2,0.7,0.2,1.4,0.9,1.6l4.4,1.1c0.7,0.2,1.4-0.2,1.6-0.9l0,0
	c0.5-2.1,2.7-3.4,4.9-2.9c2.1,0.5,3.4,2.6,2.9,4.8v0.2c-0.3,1.2-1.3,2.2-2.5,2.6L976,293c-1.7,0.6-3.1,2-3.5,3.8l-0.8,3.2
	c-0.2,0.7,0.2,1.3,0.9,1.5l5.8,1.5C979,303.2,979.7,302.8,979.9,302.1C979.9,302.2,979.9,302.1,979.9,302.1z"/>
<path class="st5" d="M999.7,278.3c-0.7,0-1.3-0.6-1.3-1.4c0-0.5,0.3-0.9,0.7-1.1c1-0.6,2-1,3.1-1.3c1.7-0.4,3.2-1.3,4.5-2.6
	c1.6-1.6,3.5-2.8,5.7-3.3c0.9-0.2,1.7-0.5,2.4-1c0.7-0.3,1.5,0,1.8,0.6c0.3,0.6,0.1,1.3-0.5,1.7c-1,0.6-2,1-3.1,1.3
	c-1.7,0.4-3.2,1.3-4.5,2.6c-1.6,1.6-3.5,2.7-5.7,3.3c-0.8,0.2-1.7,0.5-2.4,1C1000.2,278.2,1000,278.3,999.7,278.3z"/>
<path class="st5" d="M943.6,311c-0.7,0-1.3-0.6-1.3-1.4c0-0.5,0.3-0.9,0.7-1.1c1-0.6,2-1,3.1-1.3c1.7-0.4,3.2-1.3,4.5-2.6
	c1.6-1.6,3.5-2.8,5.7-3.3c0.9-0.2,1.7-0.5,2.4-1c0.7-0.3,1.5,0,1.8,0.6c0.3,0.6,0.1,1.3-0.5,1.7c-1,0.6-2,1-3.1,1.3
	c-1.7,0.4-3.2,1.3-4.5,2.6c-1.6,1.6-3.5,2.7-5.7,3.3c-0.8,0.2-1.7,0.5-2.4,1C944.1,310.9,943.9,311,943.6,311z"/>
<path class="st5" d="M1000.2,326.9c-0.5,0-0.9-0.3-1.2-0.7c-0.6-1-1-2-1.3-3.1c-0.4-1.7-1.3-3.2-2.6-4.5c-1.6-1.6-2.7-3.5-3.3-5.7
	c-0.2-0.8-0.5-1.7-1-2.4c-0.4-0.7-0.1-1.5,0.6-1.8c0.6-0.3,1.4-0.1,1.8,0.5c0.6,1,1,2,1.3,3.1c0.4,1.7,1.3,3.2,2.6,4.5
	c1.6,1.6,2.8,3.5,3.3,5.7c0.2,0.9,0.5,1.7,1,2.4c0.4,0.7,0.1,1.5-0.5,1.8C1000.7,326.9,1000.5,326.9,1000.2,326.9L1000.2,326.9z"/>
<path class="st5" d="M967.6,270.9c-0.5,0-0.9-0.3-1.2-0.7c-0.6-1-1-2-1.3-3.1c-0.4-1.7-1.3-3.2-2.6-4.5c-1.6-1.6-2.7-3.5-3.3-5.7
	c-0.2-0.8-0.5-1.7-1-2.4c-0.4-0.7-0.1-1.5,0.6-1.8c0.6-0.3,1.4-0.1,1.8,0.5c0.6,1,1,2,1.3,3.1c0.4,1.7,1.3,3.2,2.6,4.5
	c1.6,1.6,2.8,3.5,3.3,5.7c0.2,0.9,0.5,1.7,1,2.4c0.4,0.7,0.1,1.5-0.5,1.8C968,270.8,967.8,270.8,967.6,270.9L967.6,270.9z"/>
<path class="st5" d="M1004.4,298.1h-0.2l-8.6-2.3c-0.4-0.1-0.6-0.5-0.5-0.8s0.5-0.6,0.8-0.5l0,0l8.6,2.3c0.4,0.1,0.6,0.5,0.5,0.8
	C1005,298,1004.7,298.2,1004.4,298.1L1004.4,298.1z"/>
<path class="st5" d="M969.9,325.7h-0.2c-0.4-0.1-0.6-0.5-0.5-0.8c0,0,0,0,0,0l2-7.5c0.1-0.4,0.5-0.6,0.8-0.5
	c0.4,0.1,0.6,0.5,0.5,0.8l0,0l-2,7.5C970.4,325.5,970.2,325.7,969.9,325.7z"/>
<path class="st5" d="M960.4,286.5h-0.2l-8.6-2.3c-0.4-0.1-0.6-0.5-0.5-0.8s0.5-0.6,0.8-0.5l0,0l8.6,2.3c0.4,0.1,0.6,0.5,0.5,0.8
	C961,286.4,960.7,286.6,960.4,286.5L960.4,286.5z"/>
<path class="st5" d="M984.2,270.3h-0.1c-0.4-0.1-0.6-0.4-0.5-0.8c0,0,0,0,0,0l1.8-8.8c0.1-0.4,0.4-0.6,0.8-0.5
	c0.4,0.1,0.6,0.4,0.5,0.8l-1.8,8.8C984.8,270.1,984.5,270.3,984.2,270.3z"/>
<path class="st6" d="M1081.1,244l0.8,0.2c2.8,0.6,4.6,3.3,4,6.1l-0.2,0.8c-0.6,2.8-3.3,4.6-6.1,4l-0.8-0.2c-2.8-0.6-4.6-3.3-4-6.1
	l0.2-0.8C1075.6,245.2,1078.3,243.4,1081.1,244z"/>
<path class="st5" d="M1088,240.6l0.4-2.1c0.3-1.3,1.2-2.4,2.4-2.9l1.5-0.6c4.5-1.8,7.8-5.7,8.8-10.4c0-0.2,0.1-0.4,0.1-0.7
	c1.2-7.4-3.3-14.6-10.6-16.6l-0.9-0.2c-7.9-1.7-15.8,3.4-17.4,11.4c0,0,0,0,0,0l0,0c-0.2,0.9,0.4,1.8,1.3,2l5.9,1.2
	c0.9,0.2,1.8-0.4,2-1.3l0,0c0.7-2.8,3.5-4.6,6.3-3.9c2.7,0.6,4.4,3.2,4,5.9c0,0.1,0,0.2,0,0.2c-0.4,1.6-1.5,3-3.1,3.6l-6.5,2.6
	c-2.2,0.9-3.9,2.9-4.4,5.3l-0.9,4.2c-0.2,0.9,0.4,1.7,1.3,1.9l7.8,1.6C1086.9,242,1087.8,241.4,1088,240.6z"/>
<path class="st5" d="M1112.4,207.5c-0.6,0-1.1-0.5-1.1-1.1c0-0.4,0.2-0.7,0.5-0.9c1.1-0.7,2.3-1.4,3.6-1.9c2.3-1,4.3-2.3,6.2-4
	c2-1.8,4.3-3.3,6.8-4.4c1.1-0.5,2.2-1.1,3.3-1.7c0.5-0.3,1.2-0.2,1.5,0.3c0.3,0.5,0.2,1.2-0.3,1.5l0,0c-1.1,0.8-2.3,1.4-3.6,1.9
	c-2.3,1-4.3,2.3-6.2,4c-2,1.8-4.3,3.3-6.8,4.4c-1.1,0.5-2.2,1.1-3.3,1.7C1112.8,207.5,1112.6,207.5,1112.4,207.5z"/>
<path class="st5" d="M1040.9,254c-0.6,0-1.1-0.5-1.1-1.1c0-0.4,0.2-0.7,0.5-0.9c1.1-0.7,2.3-1.4,3.6-1.9c2.3-1,4.3-2.3,6.2-4
	c2-1.8,4.3-3.3,6.8-4.4c1.1-0.5,2.2-1.1,3.3-1.7c0.5-0.3,1.2-0.2,1.5,0.3c0.3,0.5,0.2,1.2-0.3,1.5l0,0c-1.1,0.8-2.3,1.4-3.6,1.9
	c-2.3,1-4.3,2.3-6.2,4c-2,1.8-4.3,3.3-6.8,4.4c-1.1,0.5-2.2,1.1-3.3,1.7C1041.4,253.9,1041.2,254,1040.9,254z"/>
<path class="st5" d="M1116.4,271.1c-0.4,0-0.7-0.2-0.9-0.5c-0.8-1.1-1.4-2.3-1.9-3.6c-1-2.3-2.3-4.4-4-6.2c-1.8-2-3.3-4.3-4.4-6.8
	c-0.5-1.1-1.1-2.2-1.7-3.3c-0.3-0.5-0.2-1.2,0.3-1.5c0.5-0.3,1.2-0.2,1.5,0.3c0.8,1.1,1.4,2.3,1.9,3.6c1,2.3,2.3,4.3,4,6.2
	c1.8,2,3.3,4.3,4.4,6.8c0.5,1.1,1.1,2.2,1.7,3.3c0.3,0.5,0.2,1.2-0.3,1.5C1116.8,271,1116.6,271.1,1116.4,271.1L1116.4,271.1z"/>
<path class="st5" d="M1069.8,199.6c-0.4,0-0.7-0.2-0.9-0.5c-0.8-1.1-1.4-2.3-1.9-3.6c-1-2.3-2.3-4.3-4-6.2c-1.8-2-3.3-4.3-4.4-6.8
	c-0.5-1.1-1.1-2.2-1.7-3.3c-0.3-0.5-0.2-1.2,0.3-1.5c0.5-0.3,1.2-0.2,1.5,0.3c0.8,1.1,1.4,2.3,1.9,3.6c1,2.3,2.3,4.3,4,6.2
	c1.8,2,3.3,4.3,4.4,6.8c0.5,1.1,1.1,2.2,1.7,3.3c0.3,0.5,0.2,1.2-0.3,1.5C1070.2,199.6,1070,199.6,1069.8,199.6L1069.8,199.6z"/>
<path class="st5" d="M1119.8,233.5h-0.1l-11.5-2.5c-0.3-0.1-0.5-0.3-0.4-0.6c0,0,0,0,0,0c0.1-0.3,0.3-0.5,0.6-0.4l11.5,2.4
	c0.3,0.1,0.5,0.3,0.4,0.6C1120.3,233.3,1120.1,233.4,1119.8,233.5L1119.8,233.5z"/>
<path class="st5" d="M1076.3,271.8h-0.1c-0.3-0.1-0.5-0.3-0.4-0.6c0,0,0,0,0,0l2.1-10c0.1-0.3,0.3-0.5,0.6-0.4
	c0.3,0.1,0.5,0.3,0.4,0.6c0,0,0,0,0,0l-2.1,10C1076.8,271.6,1076.6,271.8,1076.3,271.8z"/>
<path class="st5" d="M1061.3,221.1h-0.1l-11.5-2.4c-0.3-0.1-0.5-0.3-0.4-0.6c0,0,0,0,0,0c0.1-0.3,0.3-0.5,0.6-0.4l11.5,2.4
	c0.3,0.1,0.5,0.3,0.4,0.6C1061.8,220.9,1061.5,221.1,1061.3,221.1L1061.3,221.1z"/>
<path class="st5" d="M1091.5,198.2L1091.5,198.2c-0.4,0-0.6-0.3-0.5-0.6c0,0,0,0,0,0l1.8-11.6c0-0.3,0.3-0.5,0.6-0.5
	c0.3,0,0.5,0.3,0.5,0.6l-1.8,11.6C1092,198,1091.8,198.2,1091.5,198.2z"/>
<path class="st5" d="M997,90.2l-0.7-2.9c-0.4-1.8,0.1-3.6,1.3-4.9l1.5-1.7c4.5-4.8,6.3-11.5,4.8-17.9c-0.1-0.3-0.1-0.6-0.2-0.9
	c-2.8-9.9-12.5-16-22.6-14.3c-0.4,0.1-0.8,0.2-1.2,0.3c-10.8,2.5-17.4,13.3-14.9,24c0,0,0,0,0,0l0,0c0.3,1.3,1.6,2,2.8,1.7l7.9-1.9
	c1.3-0.3,2.1-1.5,1.8-2.8l0,0c-1-3.8,1.3-7.7,5.1-8.7s7.7,1.3,8.7,5.1l0,0c0,0.1,0,0.2,0.1,0.3c0.5,2.2-0.2,4.6-1.7,6.2l-6.5,7
	c-2.2,2.4-3.1,5.8-2.4,9l1.3,5.7c0.3,1.2,1.5,1.9,2.7,1.6l10.5-2.5C996.5,92.6,997.3,91.4,997,90.2C997,90.2,997,90.2,997,90.2z"/>
<circle class="st6" cx="992.8" cy="105.6" r="7.6"/>
<path class="st5" d="M1007.5,35.2c-0.6,0-1.1-0.5-1.1-1.1c0-0.2,0.1-0.4,0.2-0.6c0.9-1.5,2-3,3.1-4.4c1.1-1.3,2.1-2.7,3-4.2
	c0.9-1.4,1.7-3,2.4-4.5c0.7-1.6,1.6-3.2,2.6-4.7c0.9-1.5,2-3,3.1-4.4c1.1-1.3,2.1-2.7,3-4.2c0.3-0.5,1-0.6,1.5-0.3
	c0.5,0.3,0.6,1,0.3,1.5c-0.9,1.5-2,3-3.1,4.4c-1.1,1.3-2.1,2.7-3,4.2c-0.9,1.4-1.7,3-2.4,4.5c-0.7,1.6-1.6,3.2-2.6,4.7
	c-0.9,1.5-2,3-3.1,4.4c-1.1,1.3-2.1,2.7-3,4.2C1008.2,35,1007.8,35.2,1007.5,35.2z"/>
<path class="st5" d="M946.3,133.6c-0.6,0-1.1-0.5-1.1-1.1c0-0.2,0.1-0.4,0.2-0.6c0.9-1.5,2-3,3.1-4.4c2.1-2.7,4-5.6,5.4-8.7
	c1.5-3.3,3.4-6.3,5.7-9.1c1.1-1.3,2.1-2.7,3-4.2c0.3-0.5,1-0.7,1.5-0.3c0.5,0.3,0.7,1,0.3,1.5c0,0,0,0,0,0c-0.9,1.5-2,3-3.1,4.4
	c-2.1,2.7-4,5.6-5.4,8.7c-1.5,3.3-3.4,6.3-5.7,9.1c-1.1,1.3-2.1,2.7-3,4.2C947.1,133.4,946.7,133.6,946.3,133.6z"/>
<path class="st5" d="M1048.9,111c-0.2,0-0.4-0.1-0.6-0.2c-1.5-0.9-3-2-4.4-3.1c-2.7-2.1-5.6-4-8.7-5.4c-3.3-1.5-6.3-3.4-9.1-5.7
	c-1.3-1.1-2.7-2.1-4.2-3c-0.5-0.3-0.6-1-0.3-1.5c0.3-0.5,1-0.6,1.5-0.3l0,0c1.5,0.9,3,2,4.4,3.1c2.7,2.1,5.6,4,8.7,5.4
	c3.3,1.5,6.3,3.4,9.1,5.7c1.3,1.1,2.7,2.1,4.2,3c0.5,0.3,0.7,0.9,0.5,1.4C1049.7,110.8,1049.3,111.1,1048.9,111L1048.9,111z"/>
<path class="st5" d="M950.4,49.8c-0.2,0-0.4-0.1-0.6-0.2c-1.5-0.9-3-2-4.4-3.1c-2.7-2.1-5.6-4-8.7-5.4c-1.6-0.7-3.2-1.6-4.7-2.6
	c-1.5-0.9-3-2-4.4-3.1c-1.3-1.1-2.7-2.1-4.2-3c-0.5-0.3-0.7-1-0.3-1.5c0.3-0.5,1-0.7,1.5-0.3c0,0,0,0,0,0c1.5,0.9,3,2,4.4,3.2
	c1.3,1.1,2.7,2.1,4.2,3c1.4,0.9,3,1.7,4.5,2.4c3.3,1.5,6.3,3.4,9.1,5.7c1.3,1.1,2.7,2.1,4.2,3c0.5,0.3,0.7,0.9,0.5,1.4
	c-0.2,0.4-0.6,0.6-1,0.6L950.4,49.8z"/>
<path class="st5" d="M1016.2,66.6c-0.3-0.1-0.5-0.3-0.4-0.6c0-0.2,0.1-0.3,0.3-0.4l15.5-3.6c0.3,0,0.5,0.2,0.5,0.5
	c0,0.2-0.1,0.4-0.3,0.5l-15.5,3.6H1016.2z"/>
<path class="st5" d="M1000.2,135.2c-0.2,0-0.5-0.2-0.5-0.4l-3.2-13.6c-0.1-0.3,0-0.6,0.2-0.7c0.3-0.1,0.6,0,0.7,0.2
	c0,0.1,0.1,0.2,0.1,0.2l3.2,13.6C1000.8,134.9,1000.6,135.1,1000.2,135.2C1000.3,135.2,1000.3,135.2,1000.2,135.2L1000.2,135.2z"/>
<path class="st5" d="M937.1,85.1c-0.3-0.1-0.5-0.3-0.4-0.6c0-0.2,0.1-0.3,0.3-0.4l15.5-3.6c0.3-0.1,0.6,0.1,0.6,0.4c0,0,0,0,0,0
	c0.1,0.3-0.1,0.6-0.4,0.6c0,0,0,0,0,0l-15.5,3.6L937.1,85.1z"/>
<path class="st5" d="M976.6,35.9c-0.2,0-0.4-0.2-0.5-0.4l-4.5-15.3c0-0.3,0.2-0.6,0.5-0.6c0.2,0,0.4,0.1,0.5,0.3l4.5,15.3
	c0.1,0.3-0.1,0.6-0.4,0.7c0,0,0,0,0,0L976.6,35.9z"/>
<path class="st5" d="M1191.6,95.9c-1.6,0-2.8,1.3-2.8,2.8c0,1.6,1.3,2.8,2.8,2.8c1.6,0,2.8-1.3,2.8-2.8c0,0,0,0,0,0
	C1194.4,97.2,1193.1,95.9,1191.6,95.9z M1191.6,100.3c-0.9,0-1.6-0.7-1.6-1.6s0.7-1.6,1.6-1.6s1.6,0.7,1.6,1.6
	C1193.2,99.6,1192.5,100.3,1191.6,100.3L1191.6,100.3z"/>
<path class="st5" d="M1210.3,95.9c-1.6,0-2.8,1.3-2.8,2.8c0,1.6,1.3,2.8,2.8,2.8c1.6,0,2.8-1.3,2.8-2.8c0,0,0,0,0,0
	C1213.2,97.2,1211.9,95.9,1210.3,95.9z M1210.3,100.3c-0.9,0-1.6-0.7-1.6-1.6s0.7-1.6,1.6-1.6s1.6,0.7,1.6,1.6
	C1212,99.6,1211.3,100.3,1210.3,100.3C1210.4,100.4,1210.4,100.4,1210.3,100.3z"/>
<path class="st5" d="M1184.8,96.2h-1.8l1,1.4h1c-0.1-0.3-0.2-0.7-0.2-1L1184.8,96.2z"/>
<path class="st5" d="M1216.6,91.3h-5.4c0,0-4-6.1-5.5-6.1h-14.3c-1.1,0-2.1,0.4-4.6,6.2l0,0c-0.9,0.3-1.5,1.1-1.5,2.1v3.1
	c0,1.2,1,2.2,2.2,2.2l0,0h0.8c-0.1-1.8,1.3-3.4,3.1-3.5s3.4,1.3,3.5,3.1c0,0.1,0,0.2,0,0.4h12.1c0.1-1.8,1.7-3.2,3.5-3.1
	c1.7,0.1,3,1.4,3.1,3.1h2.9c1.2,0,2.2-1,2.2-2.2c0,0,0,0,0,0v-3.1C1218.8,92.3,1217.8,91.3,1216.6,91.3z M1199.2,85.9h5.3
	c1,0,4.8,5.3,4.8,5.3h-10.1V85.9z M1192.1,85.9h6.1v5.4h-10C1190.1,86.2,1191.1,85.9,1192.1,85.9L1192.1,85.9z"/>
<path class="st5" d="M776.5,115.9v-10.6h3c0.5,0,1.1,0.1,1.6,0.2c0.4,0.1,0.8,0.3,1.1,0.5c0.3,0.2,0.5,0.5,0.7,0.8
	c0.1,0.4,0.2,0.7,0.2,1.1c0,0.3-0.1,0.6-0.2,0.8c-0.1,0.3-0.2,0.5-0.4,0.7c-0.2,0.2-0.4,0.4-0.7,0.6c-0.3,0.2-0.6,0.3-0.9,0.4
	c0.7,0.1,1.4,0.4,1.9,0.8c0.5,0.4,0.7,1.1,0.7,1.7c0,0.4-0.1,0.8-0.2,1.2c-0.2,0.4-0.4,0.7-0.7,0.9c-0.3,0.3-0.7,0.5-1.1,0.6
	c-0.5,0.1-1,0.2-1.5,0.2L776.5,115.9z M777.2,110.3h2.3c0.4,0,0.9-0.1,1.3-0.2c0.3-0.1,0.6-0.3,0.9-0.5c0.2-0.2,0.4-0.4,0.5-0.7
	c0.1-0.3,0.2-0.5,0.2-0.8c0-0.6-0.2-1.2-0.7-1.6c-0.6-0.4-1.4-0.6-2.1-0.6h-2.3V110.3z M777.2,110.8v4.5h2.7
	c0.8,0.1,1.5-0.2,2.1-0.6c0.5-0.4,0.7-1.1,0.7-1.7c0-0.3-0.1-0.6-0.2-0.9c-0.1-0.3-0.3-0.5-0.5-0.7c-0.3-0.2-0.6-0.3-0.9-0.4
	c-0.4-0.1-0.8-0.2-1.2-0.2L777.2,110.8z"/>
<path class="st5" d="M794.1,115.9h-0.6c-0.1,0-0.1,0-0.2-0.1c0,0-0.1-0.1-0.1-0.2l-1.3-3.1h-5.2l-1.3,3.1c0,0.1-0.1,0.1-0.1,0.1
	c-0.1,0-0.1,0.1-0.2,0.1h-0.6l4.4-10.6h0.8L794.1,115.9z M787,112.1h4.8l-2.2-5.4c0-0.1-0.1-0.2-0.1-0.3l-0.1-0.3l-0.1,0.3l-0.1,0.3
	L787,112.1z"/>
<path class="st5" d="M803.2,114.2c0,0,0.1,0,0.1,0.1l0.3,0.3c-0.2,0.2-0.5,0.4-0.7,0.6c-0.3,0.2-0.5,0.4-0.8,0.5
	c-0.3,0.1-0.7,0.2-1,0.3c-0.4,0.1-0.8,0.1-1.2,0.1c-0.7,0-1.4-0.1-2-0.4c-0.6-0.2-1.1-0.6-1.6-1.1c-0.4-0.5-0.8-1.1-1-1.7
	c-0.3-0.7-0.4-1.5-0.4-2.2c0-0.8,0.1-1.5,0.4-2.2c0.2-0.6,0.6-1.2,1.1-1.7c0.5-0.5,1-0.9,1.6-1.1c0.7-0.3,1.4-0.4,2.1-0.4
	c0.4,0,0.7,0,1.1,0.1c0.3,0.1,0.6,0.1,0.9,0.3c0.3,0.1,0.5,0.2,0.8,0.4c0.3,0.2,0.5,0.3,0.7,0.6l-0.2,0.3c0,0.1-0.1,0.1-0.2,0.1
	c-0.1,0-0.1,0-0.2-0.1l-0.3-0.2l-0.4-0.3c-0.2-0.1-0.4-0.2-0.5-0.3c-0.2-0.1-0.5-0.2-0.7-0.2c-0.3-0.1-0.6-0.1-0.9-0.1
	c-0.6,0-1.2,0.1-1.8,0.3c-0.5,0.2-1,0.6-1.4,1c-0.4,0.4-0.7,0.9-0.9,1.5c-0.2,0.6-0.3,1.3-0.3,2c0,0.7,0.1,1.4,0.3,2
	c0.2,0.6,0.5,1.1,0.9,1.5c0.4,0.4,0.8,0.7,1.3,0.9c0.5,0.2,1.1,0.3,1.7,0.3c0.3,0,0.7,0,1-0.1c0.3,0,0.6-0.1,0.8-0.2
	c0.2-0.1,0.5-0.2,0.7-0.4c0.2-0.2,0.4-0.3,0.6-0.5h0.1L803.2,114.2z"/>
<path class="st5" d="M812.5,107.1v3.1h2.9v1.4h-2.9v3.1H811v-3.1h-2.9v-1.4h2.9v-3.1H812.5z"/>
<path class="st5" d="M823.5,105.9c0,0.2-0.1,0.5-0.3,0.7c-0.2,0.2-0.5,0.3-0.8,0.3h-3L819,109c0.4-0.1,0.9-0.1,1.3-0.2
	c0.5,0,1,0.1,1.5,0.3c0.4,0.2,0.8,0.4,1.1,0.7c0.3,0.3,0.5,0.7,0.7,1.1c0.2,0.4,0.2,0.9,0.2,1.3c0,0.5-0.1,1.1-0.3,1.6
	c-0.2,0.5-0.5,0.9-0.8,1.2c-0.4,0.3-0.8,0.6-1.3,0.8c-0.5,0.2-1.1,0.3-1.6,0.3c-0.3,0-0.7,0-1-0.1c-0.3-0.1-0.6-0.2-0.9-0.3
	c-0.3-0.1-0.5-0.2-0.7-0.4c-0.2-0.1-0.4-0.3-0.6-0.5l0.6-0.8c0.1-0.2,0.3-0.3,0.5-0.3c0.1,0,0.3,0,0.4,0.1l0.5,0.3
	c0.2,0.1,0.4,0.2,0.6,0.3c0.3,0.1,0.5,0.1,0.8,0.1c0.3,0,0.6-0.1,0.9-0.2c0.2-0.1,0.5-0.3,0.7-0.5c0.2-0.2,0.3-0.4,0.4-0.7
	c0.1-0.3,0.1-0.6,0.1-0.9c0-0.5-0.2-1-0.5-1.4c-0.4-0.4-1-0.5-1.5-0.5c-0.5,0-1.1,0.1-1.6,0.3l-1.2-0.3l0.9-5.3h5.4L823.5,105.9z"/>
<path class="st5" d="M774.7,168.2v-10.6h3c0.5,0,1.1,0.1,1.6,0.2c0.4,0.1,0.8,0.3,1.1,0.5c0.3,0.2,0.5,0.5,0.7,0.9
	c0.1,0.4,0.2,0.7,0.2,1.1c0,0.3-0.1,0.6-0.2,0.8c-0.1,0.3-0.2,0.5-0.4,0.7c-0.2,0.2-0.4,0.4-0.7,0.6c-0.3,0.2-0.6,0.3-0.9,0.4
	c0.7,0.1,1.4,0.4,1.9,0.8c0.5,0.4,0.7,1.1,0.7,1.7c0,0.4-0.1,0.8-0.2,1.2c-0.2,0.4-0.4,0.7-0.7,0.9c-0.3,0.3-0.7,0.5-1.1,0.6
	c-0.5,0.1-1,0.2-1.5,0.2L774.7,168.2z M775.5,162.5h2.3c0.4,0,0.9-0.1,1.3-0.2c0.3-0.1,0.6-0.3,0.9-0.5c0.2-0.2,0.4-0.4,0.5-0.7
	c0.1-0.3,0.2-0.5,0.2-0.8c0-0.6-0.2-1.2-0.7-1.6c-0.6-0.4-1.4-0.6-2.1-0.6h-2.3V162.5z M775.5,163.1v4.5h2.7
	c0.8,0.1,1.5-0.2,2.1-0.6c0.5-0.4,0.7-1.1,0.7-1.7c0-0.3-0.1-0.6-0.2-0.9c-0.1-0.3-0.3-0.5-0.5-0.7c-0.3-0.2-0.6-0.3-0.9-0.4
	c-0.4-0.1-0.8-0.2-1.2-0.1L775.5,163.1z"/>
<path class="st5" d="M792.3,168.2h-0.6c-0.1,0-0.1,0-0.2-0.1c0,0-0.1-0.1-0.1-0.1l-1.3-3.1H785l-1.3,3.1c0,0.1-0.1,0.1-0.1,0.1
	c-0.1,0-0.1,0.1-0.2,0.1h-0.6l4.3-10.6h0.8L792.3,168.2z M785.2,164.3h4.8l-2.2-5.3c0-0.1-0.1-0.2-0.1-0.3l-0.1-0.3l-0.1,0.3
	l-0.1,0.3L785.2,164.3z"/>
<path class="st5" d="M801.5,166.4c0,0,0.1,0,0.1,0.1l0.3,0.3c-0.2,0.2-0.5,0.4-0.7,0.6c-0.3,0.2-0.5,0.4-0.8,0.5
	c-0.3,0.1-0.7,0.2-1,0.3c-0.4,0.1-0.8,0.1-1.2,0.1c-0.7,0-1.4-0.1-2-0.4c-0.6-0.2-1.1-0.6-1.6-1.1c-0.4-0.5-0.8-1.1-1-1.7
	c-0.3-0.7-0.4-1.5-0.4-2.2c0-0.8,0.1-1.5,0.4-2.2c0.2-0.6,0.6-1.2,1.1-1.7c0.5-0.5,1-0.9,1.6-1.1c0.7-0.3,1.4-0.4,2.1-0.4
	c0.4,0,0.7,0,1.1,0.1c0.3,0.1,0.6,0.1,0.9,0.3c0.3,0.1,0.5,0.2,0.8,0.4c0.3,0.2,0.5,0.3,0.7,0.6l-0.2,0.3c0,0.1-0.1,0.1-0.2,0.1
	c-0.1,0-0.1,0-0.2-0.1l-0.3-0.2l-0.4-0.3c-0.2-0.1-0.4-0.2-0.5-0.3c-0.2-0.1-0.5-0.2-0.7-0.2c-0.3-0.1-0.6-0.1-0.9-0.1
	c-0.6,0-1.2,0.1-1.8,0.3c-0.5,0.2-1,0.6-1.4,1c-0.4,0.4-0.7,0.9-0.9,1.5c-0.2,0.6-0.3,1.3-0.3,2c0,0.7,0.1,1.4,0.3,2
	c0.2,0.6,0.5,1.1,0.9,1.5c0.4,0.4,0.8,0.7,1.3,0.9c0.5,0.2,1.1,0.3,1.7,0.3c0.3,0,0.7,0,1-0.1c0.3,0,0.6-0.1,0.8-0.2
	c0.2-0.1,0.5-0.2,0.7-0.4c0.2-0.2,0.4-0.3,0.6-0.5h0.1L801.5,166.4z"/>
<path class="st5" d="M810.7,159.4v3.1h2.9v1.4h-2.9v3.1h-1.5v-3.1h-2.9v-1.4h2.9v-3.1H810.7z"/>
<path class="st5" d="M818.9,157.2c0.5,0,0.9,0.1,1.4,0.2c0.4,0.1,0.8,0.4,1.1,0.6c0.3,0.3,0.5,0.6,0.7,1c0.2,0.4,0.3,0.8,0.3,1.3
	c0,0.4-0.1,0.8-0.2,1.1c-0.1,0.4-0.3,0.7-0.5,1c-0.2,0.3-0.4,0.6-0.7,0.9l-0.8,0.9l-2.5,2.5c0.2-0.1,0.5-0.1,0.7-0.2
	c0.2,0,0.4-0.1,0.7-0.1h2.8c0.2,0,0.3,0.1,0.5,0.2c0.1,0.1,0.2,0.3,0.2,0.4v1.1H815v-0.6c0-0.1,0-0.3,0.1-0.4
	c0.1-0.1,0.1-0.3,0.3-0.4l3.3-3.3c0.3-0.3,0.5-0.5,0.7-0.8c0.2-0.2,0.4-0.5,0.5-0.8c0.1-0.2,0.3-0.5,0.3-0.8
	c0.1-0.3,0.1-0.5,0.1-0.8c0-0.2,0-0.5-0.1-0.7c-0.1-0.2-0.2-0.4-0.3-0.5c-0.1-0.1-0.3-0.2-0.5-0.3c-0.2-0.1-0.4-0.1-0.7-0.1
	c-0.4,0-0.8,0.1-1.1,0.3c-0.3,0.2-0.5,0.5-0.6,0.9c0,0.2-0.1,0.3-0.3,0.4c-0.1,0.1-0.3,0.1-0.4,0.1h-0.3l-1-0.2
	c0.1-0.5,0.2-0.9,0.4-1.4c0.2-0.4,0.5-0.7,0.8-1c0.3-0.3,0.7-0.5,1.1-0.6C817.9,157.3,818.4,157.2,818.9,157.2z"/>
<path class="st5" d="M776.5,139.7v-10.6h3c0.5,0,1.1,0.1,1.6,0.2c0.4,0.1,0.8,0.3,1.1,0.5c0.3,0.2,0.5,0.5,0.7,0.9
	c0.1,0.4,0.2,0.7,0.2,1.1c0,0.3-0.1,0.6-0.2,0.8c-0.1,0.3-0.2,0.5-0.4,0.7c-0.2,0.2-0.4,0.4-0.7,0.6c-0.3,0.2-0.6,0.3-0.9,0.4
	c0.7,0.1,1.4,0.4,1.9,0.8c0.5,0.4,0.7,1.1,0.7,1.7c0,0.4-0.1,0.8-0.2,1.2c-0.2,0.4-0.4,0.7-0.7,0.9c-0.3,0.3-0.7,0.5-1.1,0.6
	c-0.5,0.1-1,0.2-1.5,0.2L776.5,139.7z M777.2,134.1h2.3c0.4,0,0.9-0.1,1.3-0.2c0.3-0.1,0.6-0.3,0.9-0.5c0.2-0.2,0.4-0.4,0.5-0.7
	c0.1-0.3,0.2-0.5,0.2-0.8c0-0.6-0.2-1.2-0.7-1.6c-0.6-0.4-1.4-0.6-2.1-0.6h-2.3V134.1z M777.2,134.6v4.5h2.7
	c0.8,0.1,1.5-0.2,2.1-0.6c0.5-0.4,0.7-1.1,0.7-1.7c0-0.3-0.1-0.6-0.2-0.9c-0.1-0.3-0.3-0.5-0.5-0.7c-0.3-0.2-0.6-0.3-0.9-0.4
	c-0.4-0.1-0.8-0.2-1.2-0.1L777.2,134.6z"/>
<path class="st5" d="M794.1,139.7h-0.6c-0.1,0-0.1,0-0.2-0.1c0,0-0.1-0.1-0.1-0.1l-1.3-3.1h-5.2l-1.2,3.1c0,0.1-0.1,0.1-0.1,0.1
	c-0.1,0-0.1,0.1-0.2,0.1h-0.6l4.4-10.6h0.8L794.1,139.7z M787,135.8h4.8l-2.2-5.4c0-0.1-0.1-0.2-0.1-0.3s-0.1-0.2-0.1-0.3l-0.1,0.3
	l-0.1,0.3L787,135.8z"/>
<path class="st5" d="M803.2,137.9c0,0,0.1,0,0.1,0.1l0.3,0.3c-0.2,0.2-0.5,0.4-0.7,0.6c-0.3,0.2-0.6,0.4-0.8,0.5
	c-0.3,0.1-0.7,0.2-1,0.3c-0.4,0.1-0.8,0.1-1.2,0.1c-0.7,0-1.4-0.1-2-0.4c-0.6-0.2-1.1-0.6-1.6-1.1c-0.4-0.5-0.8-1.1-1-1.7
	c-0.3-0.7-0.4-1.5-0.4-2.2c0-0.8,0.1-1.5,0.4-2.2c0.2-0.6,0.6-1.2,1.1-1.7c0.5-0.5,1-0.9,1.6-1.1c0.7-0.3,1.4-0.4,2.1-0.4
	c0.4,0,0.7,0,1.1,0.1c0.3,0.1,0.6,0.1,0.9,0.3c0.3,0.1,0.5,0.2,0.8,0.4c0.3,0.2,0.5,0.3,0.7,0.6l-0.2,0.3c0,0.1-0.1,0.1-0.2,0.1
	c-0.1,0-0.1,0-0.2-0.1l-0.3-0.2l-0.4-0.3c-0.2-0.1-0.4-0.2-0.5-0.3c-0.2-0.1-0.5-0.2-0.7-0.2c-0.3-0.1-0.6-0.1-0.9-0.1
	c-0.6,0-1.2,0.1-1.8,0.3c-0.5,0.2-1,0.6-1.4,1c-0.4,0.4-0.7,0.9-0.9,1.5c-0.2,0.6-0.3,1.3-0.3,2c0,0.7,0.1,1.4,0.3,2
	c0.2,0.6,0.5,1.1,0.9,1.5c0.4,0.4,0.8,0.7,1.3,0.9c0.5,0.2,1.1,0.3,1.7,0.3c0.3,0,0.7,0,1-0.1c0.3,0,0.6-0.1,0.8-0.2
	c0.2-0.1,0.5-0.2,0.7-0.4c0.2-0.2,0.4-0.3,0.6-0.5h0.1L803.2,137.9z"/>
<path class="st5" d="M812.5,130.9v3.1h2.9v1.4h-2.9v3.1H811v-3.1h-2.9V134h2.9v-3.1H812.5z"/>
<path class="st5" d="M820.8,128.7c0.5,0,0.9,0.1,1.3,0.2c0.4,0.1,0.7,0.3,1,0.6c0.3,0.2,0.5,0.5,0.7,0.9c0.2,0.3,0.2,0.7,0.2,1.1
	c0,0.3,0,0.6-0.1,0.9c-0.1,0.2-0.2,0.5-0.3,0.7c-0.1,0.2-0.3,0.4-0.5,0.5c-0.2,0.1-0.5,0.3-0.7,0.3c0.6,0.2,1.1,0.5,1.5,0.9
	c0.3,0.5,0.5,1,0.5,1.6c0,0.5-0.1,1-0.3,1.4c-0.2,0.4-0.5,0.7-0.8,1c-0.3,0.3-0.7,0.5-1.2,0.6c-0.5,0.1-0.9,0.2-1.4,0.2
	c-0.5,0-1-0.1-1.4-0.2c-0.4-0.1-0.7-0.3-1.1-0.6c-0.3-0.3-0.6-0.6-0.8-0.9c-0.2-0.4-0.4-0.8-0.5-1.2l0.8-0.3
	c0.1-0.1,0.3-0.1,0.4-0.1c0.1,0,0.2,0,0.3,0.1c0.1,0.1,0.2,0.1,0.2,0.2c0.1,0.2,0.2,0.4,0.3,0.5c0.1,0.2,0.2,0.3,0.4,0.4
	c0.2,0.1,0.3,0.2,0.5,0.3c0.2,0.1,0.5,0.1,0.7,0.1c0.3,0,0.6,0,0.8-0.1c0.2-0.1,0.4-0.2,0.6-0.4c0.2-0.2,0.3-0.3,0.3-0.6
	c0.1-0.2,0.1-0.4,0.1-0.6c0-0.2,0-0.5-0.1-0.7c-0.1-0.2-0.2-0.4-0.3-0.5c-0.2-0.2-0.5-0.3-0.8-0.4c-0.4-0.1-0.9-0.1-1.3-0.1v-1.3
	c0.4,0,0.8,0,1.1-0.1c0.3-0.1,0.5-0.2,0.7-0.3c0.2-0.1,0.3-0.3,0.4-0.5c0.1-0.2,0.1-0.4,0.1-0.7c0-0.4-0.1-0.9-0.4-1.2
	c-0.3-0.3-0.7-0.4-1.2-0.4c-0.4,0-0.8,0.1-1.1,0.4c-0.3,0.2-0.5,0.5-0.6,0.9c0,0.2-0.1,0.3-0.3,0.4c-0.1,0.1-0.3,0.1-0.4,0.1H818
	l-1-0.2c0.1-0.5,0.2-0.9,0.4-1.4c0.2-0.4,0.5-0.7,0.8-1c0.3-0.3,0.7-0.5,1.1-0.6C819.8,128.8,820.3,128.7,820.8,128.7z"/>
<path class="st5" d="M1200.9,121.2c-15.4,0-27.8-12.5-27.8-27.8s12.5-27.8,27.8-27.8v3c-13.7,0-24.8,11.1-24.8,24.8
	s11.1,24.8,24.8,24.8c13.7,0,24.8-11.1,24.8-24.8c0,0,0,0,0,0h3C1228.7,108.7,1216.2,121.2,1200.9,121.2z"/>
<path class="st5" d="M871.5,176.8h-96.7c-0.8,0-1.5-0.7-1.5-1.5s0.7-1.5,1.5-1.5h96.7c0.8,0,1.5,0.7,1.5,1.5
	S872.4,176.8,871.5,176.8L871.5,176.8z"/>
<circle class="st5" cx="796.9" cy="175.3" r="4.7"/>
<path class="st5" d="M871.5,149.5h-96.7c-0.8,0-1.5-0.7-1.5-1.5s0.7-1.5,1.5-1.5h96.7c0.8,0,1.5,0.7,1.5,1.5
	S872.4,149.5,871.5,149.5L871.5,149.5z"/>
<circle class="st5" cx="817.1" cy="148" r="4.7"/>
<path class="st5" d="M871.5,123.2h-96.7c-0.8,0-1.5-0.7-1.5-1.5s0.7-1.5,1.5-1.5h96.7c0.8,0,1.5,0.7,1.5,1.5
	S872.4,123.2,871.5,123.2L871.5,123.2z"/>
<circle class="st5" cx="850.9" cy="121.7" r="4.7"/>
<path class="st5" d="M1112.3,174.2c-11-6.8-21.5-13.3-35-17.6c-38.6-12.4-76.6-12.3-109.9,0.5c-39.2,15-70.3,46.4-92.4,93.3
	c-24.2,51.2-59.1,75.4-84.1,86.8c-13.5,6.2-27.9,10.2-42.6,12l3.1,2.7c14-2,27.7-6,40.6-11.9c25.5-11.5,61-36.2,85.7-88.3
	c40.1-84.9,114.4-119.4,198.7-92.2c13.2,4.3,23.5,10.6,34.3,17.3c16.7,10.3,35.5,22,69,28.1c26.6,4.9,59.7,5.7,100.3,2.6v-3
	C1174.6,212.7,1141.8,192.4,1112.3,174.2z"/>
<circle class="st4" cx="785" cy="340.8" r="14.5"/>
<circle class="st4" cx="954.9" cy="163.4" r="14.5"/>
<circle class="st4" cx="1194.2" cy="205.8" r="14.5"/>
<path class="st3" d="M488.8,843.5c-7.2,5.9-14.5,11.4-21.9,16.5h336.6c-12.5-9.3-24.4-19.3-35.7-30.1
	C673.9,740.7,593.5,758.1,488.8,843.5z"/>
<path class="st3" d="M1210.3,794.3c-17.9,25.4-41.1,47.5-66.2,65.7H1280V703.5C1258.7,723.5,1239.9,752.3,1210.3,794.3z"/>
<path class="st4" d="M233.4,860C118.8,843.9,78,774.4,0,736.5V860H233.4z"/>
<g>
	<defs>
		<path id="SVGID_1_" d="M722.3,169.3c-61.9,95.3-15.4,147.4,43.5,194.4s40.7,152.4,38.8,193.7s-7.7,174,130.4,201.4
			s192.5-64.8,259.3-164.5c29.1-43.5,60.1-66.4,85.8-78.4V0H756c0.2,9.1,2,18.2,5.4,26.7C771.3,52.6,784.2,74,722.3,169.3z"/>
	</defs>
	<clipPath id="SVGID_2_">
		<use xlink:href="#SVGID_1_"  style="overflow:visible;"/>
	</clipPath>
	<g class="st7">
		<path class="st8" d="M1162.7,617c0,0,8.2,39.2,5.3,114.6c-0.5,13.5-4.8,52.7-5.3,72c0,0-21.3,19.8-52.2,16c0,0-3.9-43-14-86.1
			s-14.7-78.8-4.7-110.3L1162.7,617z"/>
		<path class="st9" d="M1124.1,1062.4c-23.7,10.6-27.8-22.8-19-83.3s17.9-92.4,22.3-116.5s11.9-34.6,1.8-84.1
			c-8.7-42.8-42.6-117.5-37.4-155.2c-10,31.4-5.5,67.2,4.7,110.3s14,86.1,14,86.1s3.9,20.8-8.7,59c-15.6,47.2-19.3,121.9-7.7,190.5
			c0,0,4.8,7.3,29.5,0C1123.5,1069.1,1123.7,1066.7,1124.1,1062.4"/>
		<path class="st8" d="M1023,804.2c0,0-2.9-75,0-109.8s4.3-60.9,13.5-77.4l87.5,7.3c0,0,0,66.2-27,138.7
			c-7.3,21.8-18.4,37.2-23.2,56.6L1023,804.2z"/>
		<path class="st8" d="M1023,804.2c0,0-2.9-75,0-109.8s4.3-60.9,13.5-77.4l87.5,7.3c0,0,0,66.2-27,138.7
			c-7.3,21.8-18.4,37.2-23.2,56.6L1023,804.2z"/>
		<path class="st10" d="M1110.7,723.2c0,0,8.9-49.9,7.2-79.2l13.4-1.9c0,0,1.1,15.2-3.5,41.8c-0.2,1.3-0.9,2.5-1.9,3.3l-11.1,9.3"/>
		<path class="st9" d="M1117.9,682.6c2-5.8,3.5-11.9,4.2-18c1.1-9.7,3.2-15.9,7.9-17.5s24.2-6.4,33.6-16.1l-18.7,5l-30.9,7.6
			l0.2,14.4L1117.9,682.6z"/>
		<path class="st9" d="M1047.5,670.2c0,0,1.3-24.2,12.9-22.1s21.2,3.6,31.4,3.9c15.1,0.5,25.2,10.2,22.9,41.1l6.1-19.6l-1.1-33.3
			l-68.5-4.2l-5.4,14.4L1047.5,670.2z"/>
		<path class="st11" d="M1030.8,631.7c0,0,32.5,16,92.4,12.7c19-1.6,34.4-8.9,41.6-14.1c0,0-1.1-8-1.6-10.6l-56.8,7.5l-67.7-5.3
			h-4.6C1034.1,621.8,1031.6,628.4,1030.8,631.7z"/>
		<path class="st12" d="M1107.8,648.6c-1.6,0-2.9-1.3-2.9-2.9c0-0.1,0-0.1,0-0.2l0.6-9.4h1.4c0.2,0,15.8-0.1,25.5-2.5l2-0.5
			l-0.5,10.6c-0.1,1.4-1.2,2.6-2.7,2.8l-23.1,2L1107.8,648.6z M1108.3,639.1l-0.4,6.5l22.9-2l0.3-6.6
			C1122.8,638.7,1112.1,639,1108.3,639.1z"/>
		<path class="st10" d="M1060.2,630.3c-1.9,5-2.7,10.4-2.4,15.8"/>
		<path class="st9" d="M1016.8,1064.9c-1.5,6.4-2.6,11.3-3.2,13.8c0,0-20.8,8.7-33.4-7.3c0,0,3.4-108.8,8.7-134.4s13-51.5,20.9-67.8
			c11.9-24.3,11-55.5,11-55.5s-2.9-75,0-109.8s4.3-60.9,13.5-77.4l51,4.3c0,0-34.2,4.7-37.5,34.1s-7.3,84.8-5.6,109.3
			s-1.7,52.8-8.4,79.6s-25.8,72.5-30.5,135.1C995.4,1093.9,1016.8,1064.9,1016.8,1064.9z"/>
		<path class="st13" d="M1237.7,406.3c-1.5-1-2.6,0.3-4.3,2.4s-6.4,7.7-9.6,10.4c-2.6,2.2-0.7-3.1-0.7-3.2
			c1.6-2.8,7.3-12.1,9.1-16.1c1.9-4.2,1.9-7.3,1.1-9.6s-2.3-1.7-3-0.3s-4.4,8.9-4.9,9.9s-6.2,10.3-7.1,12s-0.8,1.5-1.8,1.2
			c-0.5-0.1-0.9-0.5-0.9-1.1c0.1-1.1,0.3-2.2,0.6-3.3c1-4.2,2.5-11.1,2.9-13.8s1.4-3.7,2-9.4s-2.3-5.9-3.5-5.4
			c-2.5,1-3.7,9.2-4.7,12.7s-2.8,11-3.3,12.7s-0.8,5.9-3,6c-1.1,0.1-2.1-0.7-2.2-1.8c0-0.1,0-0.1,0-0.2c0.1-2.8,0.5-6.3,0.5-8.6
			c0.1-3.3,0.7-15.8,0.5-18.5s-3.7-2.6-4.4,0.4s-3.1,19.8-3.3,23s-1.2,5.1-1.6,7.9s-3.5,6.5-3.5,6.5l-2.5,19.1
			c2.6,6.8,15.4,8.4,15.4,8.4s5,0.2,8.5-2.8c5.1-4.3,5.4-5,7.2-10.2s5.2-8.6,7.5-11.8s7.2-10,8.2-11.9c0.7-1.2,1-1.9,1-1.9
			S1238.8,407,1237.7,406.3z M1204.4,409.6c0,0.3,0,0.5,0,0.8C1204.4,410.1,1204.4,409.9,1204.4,409.6L1204.4,409.6z"/>
		<path class="st14" d="M1198,422.5c-1.4-1.6-2.6-3.3-3.4-5.3c-0.6,1-1.3,1.9-2,2.8l-0.3,1.9l2.6,5.7l4.9,5.3
			C1202.2,427.8,1201.3,426.2,1198,422.5z"/>
		<path class="st13" d="M1186.3,404.9c-0.6,0.2-1,0.9-0.8,1.5c0,0,0,0.1,0,0.1c0.9,2.1,1.3,4.5,1.2,6.8c-0.5,3.6-2,8.3-1.3,10.7
			s5.6,7.6,4.7,15.1c0,0,4.9,2.5,8.2-2.9s2.3-10,0.2-11.6c-2.7-2.4-4.6-5.6-5.5-9.1c-0.8-3.8-0.6-6.2-2.8-8.3
			C1188.5,405.5,1187.7,404.5,1186.3,404.9z"/>
		<path class="st13" d="M1015.5,499.5l9.1,17.7l16.1-6.8c0,0,8.3-36.9,8.1-37.7s-22.3-27.5-22.3-27.5l-13,26.7L1015.5,499.5z"/>
		<path class="st13" d="M1148.1,535.5c1-12.2,5.1-23.8,11.9-34c11.2-16.5,26.2-44.7,30.1-65.4l18.4,1.8l4.1,7.9
			c-6.9,15.2-12.9,30.8-17.9,46.8c-7.3,23.6-3.3,49.3-29.4,76.4c-2.5,2.6-5.9,4.3-9.5,4.8l-7.7,1.1
			C1148.1,574.9,1148.1,543.5,1148.1,535.5z"/>
		<path class="st10" d="M1151.3,627.2c1.3,4.2,1.8,8.7,1.4,13.1"/>
		<path class="st10" d="M1151.3,627.2c1.3,4.2,1.8,8.7,1.4,13.1"/>
		<path class="st15" d="M1114.8,295.9c-0.1,4.4,1.5,8.6,4.5,11.7c5,5.2,14,10.3,9.8,31c-3.7,18.4,0.8,23.9,6.9,33.5
			s11.8,22.3,4.5,35.8c-11.9,22,10.4,22-1.2,56l-39.4-34.1l-37.2-36.8l-3.1-36.9l8.1-35.8l34-21.1L1114.8,295.9z"/>
		<path class="st13" d="M1148.8,494.9L1160,530l3.6,39.7c-7.1,4.1-15.8,4.1-22.8,0l-22.6-72.7l9.1-22.6L1148.8,494.9z"/>
		<path class="st13" d="M1111.7,418.8c0,0,16.7,8,21.8,16.7s9.4,54.8,9.4,54.8l-25.2-29.7L1111.7,418.8z"/>
		<path class="st16" d="M1011,435.7c0.8-1.6,2.3-2.9,4-3.5c4.6-1.4,37.6-13.8,45.5-24.9c0.3-0.5,0.8-0.8,1.4-0.8l33.6-0.8
			c0.7,0,1.3,0.4,1.6,1c1.1,2.4,5,8.4,15.9,12.6c0.9,0.3,1.7,1,2.3,1.8c4,5.9,21.3,31.2,27.7,39.9c7.3,9.8,8.1,15.5,7.7,20.5
			c-0.7,7.3-2,14.4-4,21.4c-2.3,7.9-3.2,12.7-2.6,17.7s5.8,38,8.5,47.4s12.5,33.7,15.2,50.9c0.1,0.5,0,1-0.3,1.3
			c-2.2,2.8-12.6,14-43.7,17.9c-34.7,4.4-75.9-5.1-93-13c-0.8-0.4-1.2-1.3-0.9-2.1c2.3-7.2,12.6-39.3,13.1-56.3
			c0.6-19.2-7.6-31.8-13.9-40.1c-1.9-2.6-3.8-5.2-5.4-7.9c-0.8-1.3-0.4-3,0.9-3.8c3.8-2.4,10.8-8.5,12.5-22
			c2.3-18.7-8.5-40.9-10.7-47C1023,436.1,1014.5,428.1,1011,435.7z"/>
		<path class="st17" d="M1026.5,445.9c-3.5-9.8-12-17.8-15.6-10.3c0.8-1.6,2.3-2.9,4-3.5c4.7-1.4,39.2-14.3,46-25.7l35.7-0.8
			c0,0,1.7,5.8,10.3,10.8c0,0,16.1,14.2,3,32.3c-11.9,16.4-63.4,9.1-63.4,9.1L1026.5,445.9z"/>
		<path class="st17" d="M1168,619.6c0,0-3,4.9-12.7,9.8c-6.8,3.4-16.8,6.9-31.5,8.8c-35.6,4.5-78.3-5.6-94.4-13.7
			c0,0,13-38.5,13.6-57.7s-7.6-31.8-13.9-40.1c-2.3-3-4.4-6.2-6.4-9.4c-0.3-0.5-0.2-1.1,0.3-1.4c0,0,0.1,0,0.1-0.1
			c3-1.5,12-7.3,13.9-22.8c2.3-18.7-8.5-40.9-10.7-47c-3.5-9.8-12-17.8-15.6-10.3c0.8-1.6,2.3-2.9,4-3.5c4.7-1.4,39.2-14.3,46-25.7
			c0,0-7.8,17.1-19.5,25.3s8.3,15.3,17.5,48.3s-16,36.2-5.7,63s10.3,45.9,10.3,58.9C1063.6,622.2,1101.8,646,1168,619.6z"/>
		<path class="st13" d="M1099.3,409.4c16.2,18,13,29.5,7,35.7c-4.2,4-9.8,6.2-15.5,5.9c-28.5-0.3-41.5-34-41.9-35
			c0,0,8.1-4.8,11.5-9.2c2.8-6.8,4.7-13.9,5.7-21.1c1.4-11.5-3.2-22.3-3.2-22.3l20,3.5l20.3,22c-5.6-0.9-5.8,4.6-5.8,4.6
			s-0.3,4.9-0.4,8.4c-0.2,2.4,0.5,4.8,1.9,6.8C1099,409,1099.2,409.2,1099.3,409.4z"/>
		<path class="st14" d="M1062.9,363.4l20,3.5l20.3,22c-5.6-0.9-5.8,4.6-5.8,4.6S1078.9,386.5,1062.9,363.4z"/>
		<path class="st13" d="M1059.3,364.8c-2.2-3.6-4.9-6.9-8-9.7c-4.6-3.8-10-12.5-9.8-24.1s5.4-31.5,28.9-36.5s35.3,4.5,40.6,10.6
			c3.6,4.5,6.7,9.4,9,14.7c0.7,1.7,1.1,3.5,1,5.4c-0.1,3.7-0.2,10.7,0.8,14.3c1.8,5.7,2.5,11.7,1.9,17.6c-0.6,7.7-3.9,17.3-5.1,22.6
			s-4.6,10-9.9,10.5s-26.4-3.6-39.2-12.4c-0.6-0.4-1.1-1.1-1.4-1.8c-0.6-1.7-1.7-5.1-2.6-8.4C1064.5,363,1059.3,364.8,1059.3,364.8z
			"/>
		<path class="st13" d="M1124,350.5"/>
		<path class="st14" d="M1109.2,355.9c2.7,0.4,5.4,0.3,8.1-0.4c0.4-0.1,0.7-0.6,0.7-1l-0.2-3.6c0-0.4-0.4-0.5-0.6-0.3
			c-2.5,1.9-5.2,3.5-8,4.9C1109,355.6,1109,355.7,1109.2,355.9C1109.1,355.8,1109.1,355.9,1109.2,355.9z"/>
		<path class="st10" d="M1110.3,330.5c0,0-1,7.1-0.6,8s2.5,4.7,3.7,6.9c1.2,1.9,2.6,3.6,4.1,5.2"/>
		<line class="st10" x1="999.3" y1="627.2" x2="1024" y2="443.9"/>
		<polygon class="st11" points="997.9,618.5 1016.5,480.2 1021.7,490 1004.3,618.5 		"/>
		<path class="st11" d="M1022.4,616.9H985l28.4,30.7l25.3,21l7.4-15.9l0.2,0.3l0.2-0.1L1025.9,753l34.7-5c2.3-0.3,4.1-2.1,4.5-4.3
			l17.6-90.9c0.4-2.2-0.6-4.5-2.6-5.6l-54.7-29.5C1024.5,617.2,1023.5,616.9,1022.4,616.9z"/>
		<path class="st18" d="M968.8,710.5c4.2,7.8,19.7,25.1,55.2,42.1c2.5,1.2,5.5,0.1,6.7-2.4c0.2-0.4,0.3-0.8,0.4-1.2l15.8-93.5
			c0.5-2.7-0.8-5.4-3.2-6.7l-55.9-31.1c-2.4-1.3-5.5-0.4-6.8,2c-0.3,0.5-0.4,1-0.5,1.6l-13.1,80.8
			C966.9,704.8,967.4,707.8,968.8,710.5z"/>
		<path class="st11" d="M990.8,680.8c-4.5,14.7-7.3,30-8.4,45.3l3.5,3c0,0,2.5-26.6,9.2-45.9L990.8,680.8z"/>
		<path class="st12" d="M995.8,684.4c-0.5,0-0.9-0.1-1.3-0.4l-4.2-2.4c-1-0.6-1.6-1.8-1.3-3l1.7-6.4l1.9,0.5l-1.7,6.4
			c-0.1,0.3,0.1,0.6,0.3,0.8l4.2,2.4c0.3,0.2,0.8,0.1,1-0.3c0,0,0-0.1,0-0.1l1.8-5.4l1.9,0.7l-1.8,5.4
			C998,683.7,997,684.4,995.8,684.4L995.8,684.4z"/>
		<path class="st11" d="M1046.6,652.1c-5.6,9.8-11.4,19.4-17.1,29.1l-2.3,4l-1.2,2c-0.3,0.5-0.7,1-1.2,1.4c-1,0.7-2.3,0.7-3.4,0.1
			l-4-2.3l-15.9-9.2l-15.8-9.3l-4-2.3c-0.6-0.3-1.1-0.7-1.6-1.2c-0.4-0.5-0.6-1-0.7-1.6c0-0.3,0-0.6,0-0.9l0.1-1.1l0.3-2.3l0.6-4.6
			c1.6-12.2,3.1-24.3,5-36.4l-2-0.2c-0.9,0.4-1.7,1-2.2,1.8c-0.8,11.6-1.8,23.1-3,34.6l-0.5,4.6l-0.2,2.3l-0.1,1.2
			c0,0.5,0,0.9,0.1,1.4c0.2,0.9,0.6,1.8,1.2,2.5c0.6,0.6,1.3,1.2,2.1,1.6l3.9,2.4l15.8,9.4l15.7,9.5l4,2.4c1.9,1.1,4.2,1,6.1-0.1
			c0.5-0.3,0.9-0.6,1.2-1c0.3-0.4,0.6-0.8,0.9-1.2l1.2-2l2.4-3.9l14.2-23.2l0.7-4.2C1047,654.3,1046.9,653.2,1046.6,652.1z"/>
		<path class="st18" d="M1049.7,679l23.3-1.7c0,0-2.2,21.9-4.3,30.8s-3.5,9.7-3.5,9.7l-22.5,2.3L1049.7,679z"/>
		<path class="st11" d="M1054,691.6c-0.2,2.7-0.5,5.4-0.9,8.1s-0.9,5.4-1.6,8c-0.7,2.7-1.6,5.3-2.8,7.8c-0.6,1.3-1.4,2.5-2.3,3.6
			c-1,1.2-2.3,2.1-3.7,2.6c-0.5,0.2-1.1-0.1-1.3-0.7c-0.2-0.5,0.1-1.1,0.7-1.3l0,0c1.1-0.4,2.1-1,2.9-1.9c0.9-1,1.6-2,2.2-3.2
			c1.2-2.4,2.2-4.8,2.9-7.4c0.8-2.6,1.4-5.2,1.9-7.8s0.9-5.3,1.2-8l0,0c0-0.3,0.3-0.5,0.5-0.4C1053.8,691.1,1054,691.3,1054,691.6
			L1054,691.6L1054,691.6z"/>
		<polygon class="st18" points="1068.2,687.6 1073.9,687.6 1073.1,677.7 1066.7,684.3 		"/>
		<polyline class="st10" points="1061.5,688.5 1061.5,690.9 1065.7,690.6 1065.7,688.2 		"/>
		<path class="st11" d="M1050.3,678.4c0.7,0.7,1.2,1.6,1.7,2.4c0.5,0.8,0.8,1.7,1.1,2.7c0.3,0.9,0.5,1.8,0.6,2.8
			c0.1,0.9,0.2,1.9,0.1,2.8l0,0l-0.5-0.5l20.5-1.6l-0.5,0.5l-0.8-10.3c0-0.3,0.2-0.5,0.5-0.5c0.3,0,0.5,0.2,0.5,0.5l0.8,10.3
			c0,0.3-0.2,0.5-0.5,0.5c0,0,0,0,0,0l0,0l-20.5,1.6c-0.3,0-0.5-0.2-0.5-0.5c0,0,0,0,0,0l0,0l0,0c0-0.9-0.1-1.8-0.3-2.7
			c-0.2-0.9-0.4-1.7-0.7-2.5c-0.3-0.8-0.7-1.6-1.2-2.4c-0.4-0.7-1-1.4-1.6-2l0,0c-0.3-0.3-0.3-0.8,0-1.1S1050,678.2,1050.3,678.4
			L1050.3,678.4z"/>
		<path class="st14" d="M1081.5,572.5c-0.3,1.2-0.8,1.3-2,2.3c-2.2,1.8-18,5.5-18,5.5c0.1-0.3,1.2-5.5,3.9-7.3s6.9-0.8,10.6-1.1
			c1.6-0.2,3.3-0.4,4.2-0.5C1080.2,571.4,1081.8,571.3,1081.5,572.5z"/>
		<path class="st18" d="M1066,681.2l-4.9-0.9c5.2-31.1,7.7-62.6,7.7-94.1c-0.2-47.1-7.2-111.6-40-151.3l3.9-3.2
			c33.7,40.9,41,106.6,41.1,154.6C1073.8,618.1,1071.2,649.8,1066,681.2z"/>
		<path class="st14" d="M1011.7,491.4l12,24.2c0,0-5.2-6.5,4.5-40.4c0.8-3.2,1.2-6.6,1.2-9.9l-9.1,6.3L1011.7,491.4z"/>
		<path class="st12" d="M1001.6,444.3c0,0-2.7-16.3-0.8-23.6c1.7-6.2,4.2-8.7,8.2-9.9s8.4-2.1,10.3-8.7c1.5-5.4-3.8-10.5-5.7-16
			c-2.1-5.8-0.9-15.5,5.8-20.8c9.2-7.2,13-5.8,13.4-17.6c0.5-12.7-0.4-30.2,8.5-42.3c9.3-12.7,17.5-17,23.9-18.4
			c10.1-2,20.5-2,30.6-0.1c11.8,2.1,19.3,2.4,20.1,9.8s-4.5,13.7-14.8,19.5s-17,13.3-18.4,24.4s6.3,9.4,5.1,32.4
			s-15.6,22.4-12.4,47.1s23.3,47.1-4.1,66.9c-27.2,19.6-40.5-16.9-41.6-29.1c-0.9-10.4-6.9-23.7-16.2-24.5
			C1013.5,433.3,1005.8,437.4,1001.6,444.3z"/>
		<path class="st15" d="M1095.9,286.9c-10.1-1.9-20.5-1.9-30.6,0.1c-6.4,1.3-14.6,5.7-23.9,18.4c-8.9,12.1-8,29.6-8.5,42.3
			c-0.4,11.8-4.2,10.4-13.4,17.6c-6.7,5.2-7.9,15-5.8,20.8c1.9,5.4,7.2,10.5,5.7,16c-1.8,6.6-6.3,7.5-10.3,8.7s-6.5,3.7-8.2,9.9
			c-2,7.3,0.8,23.6,0.8,23.6c4.2-6.9,11.9-11.1,11.9-11.1c9.3,0.9,15.3,14.1,16.2,24.5c1,12.2,14.4,48.7,41.6,29.1
			c0,0-27.3,1.8-29.8-25s-11.4-32.1-15.9-36.1s-4.1-6.6-0.4-10.4c4.5-4.3,7.3-10.1,7.8-16.4c0.4-7-8.4-18,1-27s10.1-18.8,9.8-33
			s1.1-33.4,15.3-42.9S1095.9,286.9,1095.9,286.9z"/>
		<path class="st13" d="M1013.8,432.1c-3.8,0.9-15.6,10-24.4,36.3c-10.3,30.8-33.5,60.4-41.3,77.9s-13.9,25-13.9,25
			s40.9-10.2,49.9-23.5c12-17.8,25.1-41.1,31.3-48.2s13.9-24.7,14.2-39.2C1030,446.9,1024.4,429.6,1013.8,432.1z"/>
		<path class="st13" d="M1095.7,573.3c-0.6-1.4-1.9-2.2-3.4-2l-25.1,2.9c-2.1,0.2-3.9,1.7-4.7,3.7l-3.6,9.4
			c-0.6,1.6-2.4,2.4-4.1,1.8c0,0,0,0,0,0c-10.9-4.3-34.9-14.1-47.2-20.8c-20.9-11.4-21.3-27.3-53.5-33.1l-19.7,36.1l119.5,38.8
			c2.4,0.8,4.8,1,7.3,0.7l15.7-1.9c1.7-0.2,3.4-0.3,5.2-0.4c3.7-0.2,4.7-1.4,5.3-3.7l5.6-22c0.1-0.6-0.2-1.2-0.8-1.3
			c-0.2,0-0.4,0-0.6,0l-8.7,2.5l11.5-6.5C1095.7,576.5,1096.3,574.8,1095.7,573.3z"/>
		<path class="st14" d="M1116.1,348.9c0.3,0.2,0.5,0.3,0.7,0.5c0.6,0.4,0.9,1,0.9,1.7l-2.6,0.8c0,0,1.3-0.6,1.5-1.5
			C1116.6,350,1116.4,349.4,1116.1,348.9z"/>
		<path class="st19" d="M1093.2,339.3c0.3-0.6,0.7-1.1,1.2-1.5c0.5-0.4,1.2-0.7,1.8-0.8c0.7-0.1,1.4,0.1,2,0.5
			c0.3,0.2,0.5,0.4,0.8,0.6c0.2,0.2,0.4,0.5,0.6,0.8c0.1,0.1,0.1,0.3,0,0.4s-0.3,0.1-0.4,0l0,0c-0.4-0.4-0.9-0.7-1.4-1
			c-0.5-0.2-1-0.3-1.5-0.3c-0.5,0.1-1,0.3-1.4,0.6c-0.5,0.3-0.9,0.7-1.3,1.1l0,0c-0.1,0.1-0.3,0.1-0.4,0
			C1093.2,339.5,1093.2,339.3,1093.2,339.3L1093.2,339.3z"/>
		<path class="st19" d="M1113.6,339.2c0.2-0.5,0.4-1,0.7-1.4c0.3-0.5,0.8-0.9,1.3-1.1c0.3-0.1,0.7-0.1,1,0.1
			c0.3,0.1,0.5,0.3,0.7,0.5c0.2,0.2,0.3,0.4,0.5,0.7l0.3,0.7c0,0.2,0,0.3-0.2,0.4c-0.1,0-0.2,0-0.3-0.1l0,0
			c-0.3-0.4-0.5-0.8-0.9-1.1c-0.2-0.3-0.6-0.4-0.9-0.4c-0.4,0.2-0.7,0.4-0.9,0.8c-0.3,0.4-0.5,0.8-0.8,1.2l0,0
			c-0.1,0.1-0.2,0.2-0.4,0.2C1113.7,339.5,1113.6,339.3,1113.6,339.2L1113.6,339.2z"/>
		<path class="st20" d="M1099.2,367.3c0,0,1.6,1.2,8,1.4c6,0.2,8.8-0.7,10-1.3c0.4-0.2,0.8-0.4,1.1-0.7c0.2-0.2,0.2-0.6,0-0.8
			c-0.2-0.3,0.9-0.3,0.9-0.3l-3-0.5l-4.7,0.2l-4.1,1.4C1107.4,366.6,1102.5,368.7,1099.2,367.3z"/>
		<path class="st21" d="M1116.8,362.7c0.3,1.2,1.3,2.2,2.5,2.6c0,0-1.9,0.2-3,0.2s-1.1,0.4-1.6,0.4s-1.7-0.2-2.9-0.1
			c-1.7,0.2-3.4,0.5-5,1.1c-1.2,0.5-5.6,1.8-8.3,0c2,0.9,4.3,1,6.4,0.3c2.6-1.1,4.9-2.5,7-4.4c0.1-0.1,0.4-0.1,0.5,0l1.7,1.4
			c0.2,0.2,0.6,0.2,0.9,0c0,0,0,0,0-0.1c0.3-0.3,1.4-1.6,1.6-1.7S1116.8,362.7,1116.8,362.7z"/>
		<path class="st21" d="M1119.4,365.5l-2.7,0.3c-0.4,0-0.8,0.1-1.2,0.3c-0.2,0.1-0.5,0.2-0.7,0.3c-0.2,0-0.5,0-0.7,0
			c-0.9-0.1-1.7-0.1-2.6,0c-0.9,0.1-1.7,0.3-2.6,0.4c-0.9,0.2-1.7,0.4-2.5,0.7c-0.9,0.3-1.7,0.5-2.6,0.6c-1.8,0.3-3.7,0-5.3-0.9
			c-0.1-0.1-0.1-0.2-0.1-0.3c0.1-0.1,0.2-0.1,0.3-0.1l0,0c1.5,0.8,3.3,1,4.9,0.7c0.9-0.1,1.7-0.3,2.5-0.6c0.4-0.1,0.8-0.3,1.3-0.5
			s0.9-0.3,1.3-0.4c0.9-0.2,1.8-0.4,2.7-0.5c0.9-0.1,1.8-0.1,2.7,0.1c0.2,0,0.4,0.1,0.6,0.1c0.2,0,0.4-0.1,0.5-0.2
			c0.4-0.2,0.9-0.3,1.4-0.3c0.9,0,1.8,0,2.7,0l0,0C1119.4,365.3,1119.4,365.4,1119.4,365.5C1119.4,365.5,1119.4,365.5,1119.4,365.5
			L1119.4,365.5z"/>
		<path class="st21" d="M1099.3,365.9c-0.3,0.3-0.4,0.7-0.5,1.1c0,0.4,0.1,0.9,0.3,1.2c0,0.1,0,0.2-0.1,0.2c-0.1,0-0.1,0-0.2,0l0,0
			c-0.2-0.2-0.3-0.4-0.4-0.7c-0.1-0.2-0.1-0.5-0.1-0.8c0-0.5,0.3-1.1,0.7-1.4l0,0c0.1-0.1,0.2,0,0.3,0.1
			C1099.4,365.8,1099.4,365.9,1099.3,365.9L1099.3,365.9z"/>
		<path class="st9" d="M1099,367.2"/>
		<path class="st14" d="M1154.3,512c0,0-4.9,9.6-6.4,24.3c0,0-0.8-18.9,4.5-30.3L1154.3,512z"/>
		<path class="st14" d="M984.3,547.5c0.1-0.2,1.9-3.1,1.9-3.1c-6.5-7.4-28-8.5-28-8.5c13.7,2,25.5,12.4,25.5,12.4L984.3,547.5z"/>
		<path class="st12" d="M1110.8,326.4c0.2-1.1,0.7-2.1,1.2-3c0.6-1,1.4-1.8,2.4-2.4c1-0.6,2.2-0.8,3.3-0.5c1.1,0.3,2,1.1,2.4,2.2
			c0,0.1,0,0.2-0.1,0.3c-0.1,0-0.2,0-0.3-0.1l0,0l0,0c-0.4-0.8-1.3-1.4-2.2-1.5c-0.9-0.1-1.7,0.2-2.4,0.8c-0.7,0.6-1.3,1.2-1.7,2
			c-0.5,0.8-1,1.7-1.6,2.4l-0.1,0.1c-0.2,0.2-0.5,0.2-0.7,0.1C1110.9,326.8,1110.8,326.6,1110.8,326.4L1110.8,326.4z"/>
		<path class="st12" d="M1101.6,328c-1.3-0.9-2.5-1.8-3.8-2.6c-1.2-0.9-2.4-1.7-3.8-2.4c-1.4-0.6-2.9-0.8-4.4-0.8
			c-1.5,0-3.1,0.3-4.5,0.9l0,0c-0.1,0-0.2,0-0.3-0.2c0-0.1,0-0.2,0.1-0.2c1.5-0.7,3-1.2,4.7-1.4c1.6-0.2,3.3-0.1,4.9,0.4
			c1.7,0.3,3.2,1,4.6,2c1.3,1,2.4,2.4,3,4c0.1,0.2,0,0.3-0.2,0.4C1101.8,328.1,1101.7,328.1,1101.6,328L1101.6,328z"/>
	</g>
</g>
<path class="st5" d="M1112.9,85.1v4.3h-0.8V78.8h2.7c1-0.1,2,0.2,2.8,0.8c0.7,0.6,1,1.4,0.9,2.3c0,0.4-0.1,0.9-0.3,1.3
	c-0.2,0.4-0.4,0.7-0.8,1c-0.3,0.3-0.8,0.5-1.2,0.7c-0.5,0.2-1,0.2-1.6,0.2L1112.9,85.1z M1112.9,84.5h2c0.4,0,0.9-0.1,1.3-0.2
	c0.3-0.1,0.7-0.3,0.9-0.5c0.3-0.2,0.5-0.5,0.6-0.8c0.1-0.3,0.2-0.7,0.2-1c0-0.7-0.2-1.4-0.8-1.9c-0.6-0.5-1.4-0.7-2.3-0.7h-2
	L1112.9,84.5z"/>
<path class="st5" d="M1127.9,89.4h-0.6c-0.1,0-0.1,0-0.2-0.1c0,0-0.1-0.1-0.1-0.2l-1.3-3.1h-5.2l-1.3,3.1c0,0.1-0.1,0.1-0.1,0.1
	c-0.1,0-0.1,0.1-0.2,0.1h-0.6l4.3-10.6h0.8L1127.9,89.4z M1120.8,85.5h4.8l-2.2-5.4c0-0.1-0.1-0.2-0.1-0.3l-0.1-0.3l-0.1,0.3
	l-0.1,0.3L1120.8,85.5z"/>
<path class="st5" d="M1134.7,80.1c0,0.1-0.1,0.1-0.2,0.1c-0.1,0-0.2-0.1-0.3-0.1c-0.1-0.1-0.3-0.2-0.4-0.3c-0.2-0.1-0.4-0.2-0.7-0.3
	c-0.7-0.2-1.3-0.2-2,0c-0.3,0.1-0.5,0.3-0.7,0.4c-0.2,0.2-0.3,0.4-0.4,0.7c-0.1,0.3-0.2,0.5-0.2,0.8c0,0.3,0.1,0.6,0.2,0.9
	c0.2,0.2,0.4,0.4,0.6,0.6c0.3,0.2,0.6,0.3,0.8,0.4l1,0.3c0.3,0.1,0.7,0.2,1,0.4c0.3,0.1,0.6,0.3,0.8,0.5c0.2,0.2,0.5,0.5,0.6,0.7
	c0.2,0.3,0.2,0.7,0.2,1.1c0,0.4-0.1,0.9-0.2,1.3c-0.1,0.4-0.4,0.7-0.7,1c-0.3,0.3-0.7,0.5-1.1,0.7c-0.5,0.2-0.9,0.3-1.4,0.3
	c-0.6,0-1.2-0.1-1.8-0.4c-0.5-0.2-1-0.6-1.3-1l0.2-0.3c0-0.1,0.1-0.1,0.2-0.1c0.1,0,0.1,0,0.2,0.1l0.3,0.2l0.4,0.3
	c0.2,0.1,0.3,0.2,0.5,0.3c0.5,0.2,1,0.3,1.5,0.3c0.4,0,0.8-0.1,1.1-0.2c0.3-0.1,0.6-0.3,0.8-0.5c0.2-0.2,0.4-0.5,0.5-0.8
	c0.1-0.3,0.2-0.7,0.2-1c0-0.3-0.1-0.6-0.2-0.9c-0.2-0.2-0.4-0.5-0.6-0.6c-0.3-0.2-0.6-0.3-0.8-0.4l-1-0.3c-0.3-0.1-0.7-0.2-1-0.3
	c-0.3-0.1-0.6-0.3-0.8-0.5c-0.3-0.2-0.5-0.5-0.6-0.8c-0.2-0.4-0.2-0.7-0.2-1.1c0-0.3,0.1-0.7,0.2-1c0.1-0.3,0.3-0.6,0.6-0.9
	c0.3-0.3,0.6-0.5,1-0.6c0.4-0.2,0.9-0.2,1.3-0.2c0.5,0,1,0.1,1.5,0.3c0.5,0.2,0.9,0.5,1.2,0.8L1134.7,80.1z"/>
<path class="st5" d="M1142.6,80.1c0,0.1-0.1,0.1-0.2,0.1c-0.1,0-0.2-0.1-0.3-0.1c-0.1-0.1-0.3-0.2-0.4-0.3c-0.2-0.1-0.4-0.2-0.7-0.3
	c-0.7-0.2-1.3-0.2-2,0c-0.3,0.1-0.5,0.3-0.7,0.4c-0.2,0.2-0.3,0.4-0.4,0.7c-0.1,0.3-0.2,0.5-0.2,0.8c0,0.3,0.1,0.6,0.2,0.9
	c0.2,0.2,0.4,0.4,0.6,0.6c0.3,0.2,0.6,0.3,0.8,0.4l1,0.3c0.3,0.1,0.7,0.2,1,0.4c0.3,0.1,0.6,0.3,0.8,0.5c0.2,0.2,0.5,0.5,0.6,0.7
	c0.2,0.3,0.2,0.7,0.2,1.1c0,0.4-0.1,0.9-0.2,1.3c-0.1,0.4-0.4,0.7-0.7,1c-0.3,0.3-0.7,0.5-1.1,0.7c-0.5,0.2-0.9,0.3-1.4,0.3
	c-0.6,0-1.2-0.1-1.8-0.4c-0.5-0.2-1-0.6-1.3-1l0.2-0.3c0-0.1,0.1-0.1,0.2-0.1c0.1,0,0.1,0,0.2,0.1l0.3,0.2l0.4,0.3
	c0.2,0.1,0.3,0.2,0.5,0.3c0.5,0.2,1,0.3,1.5,0.3c0.4,0,0.8-0.1,1.1-0.2c0.3-0.1,0.6-0.3,0.8-0.5c0.2-0.2,0.4-0.5,0.5-0.8
	c0.1-0.3,0.2-0.7,0.2-1c0-0.3-0.1-0.6-0.2-0.9c-0.2-0.2-0.4-0.5-0.6-0.6c-0.3-0.2-0.6-0.3-0.8-0.4l-1-0.3c-0.3-0.1-0.7-0.2-1-0.3
	c-0.3-0.1-0.6-0.3-0.8-0.5c-0.3-0.2-0.5-0.5-0.6-0.8c-0.2-0.4-0.2-0.7-0.2-1.1c0-0.3,0.1-0.7,0.2-1c0.1-0.3,0.3-0.6,0.6-0.9
	c0.3-0.3,0.6-0.5,1-0.6c0.4-0.2,0.9-0.2,1.3-0.2c0.5,0,1,0.1,1.5,0.3c0.5,0.2,0.9,0.5,1.2,0.8L1142.6,80.1z"/>
<path class="st5" d="M1113.8,103.8v3.7h-2.5V96.5h3.8c0.7,0,1.4,0.1,2,0.3c0.5,0.2,1,0.4,1.4,0.8c0.3,0.3,0.6,0.7,0.8,1.1
	c0.2,0.4,0.3,0.9,0.3,1.4c0,0.5-0.1,1-0.3,1.5c-0.2,0.4-0.4,0.8-0.8,1.2c-0.4,0.3-0.9,0.6-1.4,0.8c-0.6,0.2-1.3,0.3-2,0.3
	L1113.8,103.8z M1113.8,101.8h1.3c0.9,0.1,1.7-0.4,1.9-1.3c0-0.2,0-0.3,0-0.5c0-0.2,0-0.5-0.1-0.7c-0.1-0.2-0.2-0.4-0.3-0.5
	c-0.2-0.2-0.4-0.3-0.6-0.3c-0.3-0.1-0.5-0.1-0.8-0.1h-1.3L1113.8,101.8z"/>
<path class="st5" d="M1127.8,96.5v2h-4.5v2.5h3.4v1.9h-3.4v2.6h4.5v2h-7v-11H1127.8z"/>
<path class="st5" d="M1131.8,103.4v4h-2.5V96.5h3.6c0.7,0,1.3,0.1,2,0.2c0.5,0.1,1,0.4,1.4,0.7c0.3,0.3,0.6,0.6,0.8,1
	c0.3,0.7,0.3,1.5,0.1,2.3c-0.1,0.3-0.2,0.6-0.4,0.9c-0.2,0.3-0.4,0.5-0.7,0.7c-0.3,0.2-0.6,0.4-0.9,0.5c0.2,0.1,0.3,0.2,0.5,0.3
	c0.2,0.1,0.3,0.3,0.4,0.5l2.3,3.8h-2.3c-0.4,0-0.7-0.2-0.9-0.5l-1.8-3.2c-0.1-0.1-0.2-0.2-0.3-0.3c-0.1-0.1-0.3-0.1-0.4-0.1
	L1131.8,103.4z M1131.8,101.6h1c0.3,0,0.6,0,0.9-0.1c0.2-0.1,0.4-0.2,0.6-0.4c0.2-0.2,0.3-0.3,0.3-0.5c0.1-0.2,0.1-0.4,0.1-0.7
	c0-0.4-0.2-0.8-0.5-1.1c-0.4-0.3-0.9-0.5-1.4-0.4h-1L1131.8,101.6z"/>
<path class="st5" d="M1145.1,103c0.1,0.2,0.2,0.4,0.3,0.6c0.1-0.2,0.2-0.4,0.3-0.6c0.1-0.2,0.2-0.4,0.3-0.6l2.8-5.5
	c0-0.1,0.1-0.2,0.2-0.2c0.1-0.1,0.1-0.1,0.2-0.1c0.1,0,0.1,0,0.2,0h2.2v10.9h-2.2v-6.3c0-0.3,0-0.6,0-1l-2.9,5.6
	c-0.1,0.2-0.2,0.3-0.4,0.4c-0.2,0.1-0.3,0.1-0.5,0.1h-0.3c-0.2,0-0.4,0-0.5-0.1c-0.2-0.1-0.3-0.2-0.4-0.4l-2.9-5.6
	c0,0.2,0,0.3,0,0.5s0,0.3,0,0.5v6.3h-2.2V96.5h2.2c0.1,0,0.1,0,0.2,0c0.1,0,0.1,0.1,0.2,0.1c0.1,0.1,0.1,0.1,0.2,0.2l2.8,5.6
	C1144.9,102.6,1145,102.8,1145.1,103z"/>
<path class="st5" d="M1156.1,107.4h-2.6V96.5h2.6V107.4z"/>
<path class="st5" d="M1164.2,98.7c-0.1,0.1-0.1,0.2-0.2,0.3c-0.1,0.1-0.2,0.1-0.3,0.1c-0.1,0-0.3,0-0.4-0.1l-0.4-0.2
	c-0.2-0.1-0.4-0.2-0.6-0.2c-0.2-0.1-0.5-0.1-0.7-0.1c-0.4,0-0.8,0.1-1.1,0.3c-0.2,0.2-0.4,0.5-0.3,0.8c0,0.2,0.1,0.4,0.2,0.6
	c0.2,0.2,0.3,0.3,0.6,0.4c0.3,0.1,0.5,0.2,0.8,0.3l0.9,0.3c0.3,0.1,0.6,0.2,0.9,0.4c0.3,0.1,0.6,0.3,0.8,0.6
	c0.2,0.2,0.4,0.5,0.6,0.8c0.1,0.4,0.2,0.8,0.2,1.2c0,0.5-0.1,1-0.3,1.4c-0.2,0.4-0.4,0.8-0.8,1.2c-0.4,0.3-0.8,0.6-1.2,0.8
	c-0.5,0.2-1.1,0.3-1.7,0.3c-0.3,0-0.7,0-1-0.1c-0.3-0.1-0.7-0.2-1-0.3c-0.3-0.1-0.6-0.3-0.9-0.4c-0.3-0.2-0.5-0.4-0.8-0.6l0.8-1.2
	c0.1-0.1,0.1-0.2,0.2-0.2c0.1-0.1,0.2-0.1,0.3-0.1c0.2,0,0.3,0.1,0.4,0.1l0.5,0.3c0.2,0.1,0.4,0.2,0.7,0.3c0.3,0.1,0.6,0.1,0.9,0.1
	c0.4,0,0.8-0.1,1.1-0.3c0.3-0.3,0.4-0.6,0.4-1c0-0.2-0.1-0.4-0.2-0.6c-0.2-0.2-0.3-0.3-0.6-0.4c-0.3-0.1-0.5-0.2-0.8-0.3l-0.9-0.3
	c-0.3-0.1-0.6-0.2-0.9-0.4c-0.3-0.1-0.6-0.3-0.8-0.6c-0.2-0.3-0.4-0.5-0.6-0.9c-0.2-0.4-0.2-0.9-0.2-1.3c0-0.4,0.1-0.8,0.3-1.2
	c0.2-0.4,0.4-0.7,0.7-1c0.3-0.3,0.7-0.6,1.2-0.7c0.5-0.2,1.1-0.3,1.6-0.3c0.3,0,0.7,0,1,0.1c0.3,0,0.6,0.1,0.9,0.2
	c0.3,0.1,0.5,0.2,0.8,0.4c0.2,0.1,0.5,0.3,0.7,0.5L1164.2,98.7z"/>
<g>
	<defs>
		<path id="SVGID_3_" d="M721.4,168.8c-61.9,95.3-95.3,306-46.2,363.1c72.2,84,130.4-16.4,128.5,25S796,731,934.1,758.4
			s192.5-64.8,259.3-164.5c29.1-43.5,60.1-66.4,85.8-78.4V-0.5h-524c0.2,9.1,2,18.2,5.4,26.7C770.4,52.1,783.3,73.6,721.4,168.8z"/>
	</defs>
	<clipPath id="SVGID_4_">
		<use xlink:href="#SVGID_3_"  style="overflow:visible;"/>
	</clipPath>
	<g class="st22">
		<polygon class="st8" points="819.2,631.3 819.2,667.7 827.4,741.5 900.2,762.7 904.4,706.5 892.7,648.3 872.4,618.7 		"/>
		<path class="st9" d="M849,632.5c10,1.5,11.2,20.2,11.1,28.2c-0.2,31.1,12.6,20.3,15.2,38.2c2.7,18.1,1.4,57,1.4,57l23.6,6.9
			l4.2-56.3l-11.8-58.1l-20.3-29.6l-53.2,12.6c0,0-0.4,0.8,0,8.2C819.2,639.5,835.5,630.4,849,632.5z"/>
		<path class="st8" d="M956.1,636.3c0,0,1.3,20.4,1.6,41.3s3.7,70.9,6.3,84.5l2.6,13.6l-75.5-19.3l-7.3-51.3c0,0-1.1-13.3-11.3-19.9
			s-8.3-20.7-8.6-21.4s0-41.8,0-41.8l82.2,5L956.1,636.3z"/>
		<path class="st9" d="M863.8,643.2c0,0-1.3-12.8,9.8-12.7c10.7,0.1,61.3,1.6,83,14.6l-1.7-14.6l-87.9-13l-12.4,4.4l4.3,9.3
			L863.8,643.2z"/>
		<path class="st12" d="M907.9,361.3l47.4,8.4c5.8,1,10.8,4.4,14,9.3l7.7,11.9l-52.8,14.7l-69.5-8.4l32.7-26.3L907.9,361.3z"/>
		<path class="st15" d="M907.9,361.3l-20.5,9.7l-32.7,26.2l69.5,8.4l52.8-14.7l-0.9-1.4c0,0-9.3-4.4-16.6-8.5
			c-10.4-5.8-15.2-7.4-22.8-9C914.5,367.5,907.9,361.3,907.9,361.3z"/>
		<path class="st11" d="M817.6,618.1v12.3c0,0.8,0.6,1.5,1.5,1.5c0.1,0,0.3,0,0.4-0.1c11.1-3.2,69.2-17.8,136.2,5.8
			c0.8,0.3,1.6-0.1,1.9-0.9c0.1-0.2,0.1-0.3,0.1-0.5v-16.4c0-0.7-0.5-1.3-1.1-1.5L861,592.7c-0.4-0.1-0.8,0-1.1,0.2l-41.5,24
			C817.9,617.1,817.6,617.6,817.6,618.1z"/>
		<path class="st11" d="M926.6,372.2c0,0,5,0.5,6.3,1.4l-1.6,2l-4.7-1.2L926.6,372.2z"/>
		<path class="st13" d="M921.8,317.3c0,0-5.3,18.4-4.4,33.5s5.8,21.5,15,23.7c0,0-16.3,32-53.8,28.9c-13.5-1.1-12.2-11.1-8.2-24.1
			c0,0,10-2.4,4.4-26.7L921.8,317.3z"/>
		<path class="st14" d="M845.7,358.5c0.2-0.1,8.5-9.1,10.8-11.7c0.4-0.4,0.9-0.7,1.5-0.9l9.9-2.6c0.8-0.2,1.6,0.2,1.8,1c0,0,0,0,0,0
			c0.2,0.8-0.2,2-2.4,3.4l-9.7,7.2L845.7,358.5z"/>
		<path class="st14" d="M918.7,331.4c-6.8,12.2-17.2,22.1-29.8,28.2c-8.2,3.9-13-1-13-1c-0.3-1.8-0.7-3.8-1.2-6l47.1-35.3
			C920.5,321.9,919.5,326.6,918.7,331.4z"/>
		<path class="st18" d="M959.7,622.8l2-2.9c2.5-3.7,3.8-8.1,3.8-12.6c-2.2-153.7,23.5-202,28.3-209.7c0.5-0.8,0.5-1.8,0-2.6
			c-2.1-3.4-6.3-4-16.4-5.6c-9.9-1.7-38.3-13.1-45.4-16c-0.9-0.4-2,0.1-2.3,1c-9.5,21.6-30.4,29.7-51.3,28.3
			c-13.6-0.9-11.7-11.3-8.5-18.7c0.6-1.6-0.2-3.3-1.8-3.9c-0.7-0.3-1.4-0.3-2.1,0c-11.1,4.5-25,8.2-34.6,10.4
			c-6.8,1.6-12.1,7.1-13.5,14c-14,69.6-12.5,165.4-11.6,196.3c0.2,6.4,2.7,12.6,7.1,17.3l3.1,3.4c0.7,0.7,1.7,1,2.7,0.7
			c9.7-3.2,64.3-19.3,134.5,2.7C956,625.5,958.4,624.7,959.7,622.8z"/>
		<path class="st13" d="M856.5,275c-1.4,5.4-2.1,10.9-2.1,16.5c0.1,8.1,1.8,16,1.5,21.5c-0.5,7,0.7,14,3.5,20.4
			c3.5,8.4,6.7,11.1,12.4,17c3.8,3.9,6.1,6.3,14.6,4.7s22.7-14.1,26.4-17.6s8.4-8.5,7.8-19.1l0.9-30l-3.1-28.2l-12.4-8.4L868,261
			L856.5,275z"/>
		<path class="st13" d="M852.4,296c-0.3,3.5-0.3,7,0,10.5c0.5,4.3,1.6,6.3,4.5,7.8l2.3-7.8L856,296H852.4z"/>
		<path class="st23" d="M855.8,309.7c-1.1-5-2.6-9.9-4.5-14.7c-2.8-7-6.3-17.4-6.3-23s2.2-8.9,5.4-10.6s4.2-6.9,6.2-11.2
			s4.1-7.7,8.5-10s8.3-3.3,11.9-1.8s4.1,3.6,7.8,1.1s7.2-3.7,11.4-3.4s6.8,1.8,8.9,5.5s5.2,6,12.6,7.6c5.9,1.2,10.9-0.5,12.4,4.8
			c1.5,5.3-0.4,8.3,2,8.4c4.4,0.1,6.3,2.6,3.4,14s-4.1,13.5-4.5,18.4l-11,16.2c-0.2,0.3-0.6,0.4-0.9,0.2c-0.1-0.1-0.2-0.2-0.3-0.4
			c-0.4-1.9-0.6-3.8-0.4-5.8c0.2-5.9-0.1-11.2-2.1-13.2c-2.2-1.9-3.3-4.8-3-7.7c0.4-3.3,1.8-8.8-0.2-13.6c-0.8-1.8-1.3-3.1-1.8-4
			c-0.5-0.9-1.6-1.3-2.5-0.8c-0.1,0.1-0.3,0.1-0.4,0.2c-2.5,2-7.4,5.6-12.2,6.5c-6.8,1.3-13.7-0.6-18.6-1.5
			c-4.4-0.7-13.4-0.6-19.3,2.9c-1.3,0.8-2.2,2.2-2.4,3.7c-0.4,2.2-0.9,5.7-1.2,8.4c-0.5,3.7-0.4,7.5,0.2,11.2
			C855.5,301.4,855.8,305.5,855.8,309.7z"/>
		<path class="st19" d="M932.4,288.4c-0.6,2-1,4.2-1.2,6.3L920.1,311c-0.2,0.3-0.6,0.4-0.9,0.2c-0.1-0.1-0.2-0.2-0.3-0.4
			c-0.4-1.9-0.6-3.8-0.4-5.8c0.2-5.9-0.1-11.2-2.1-13.2c-2.2-1.9-3.3-4.8-3-7.7c0,0,0.9,4.4,5.2,5.2c4.8,1,3.7,6.2,4.3,7.8
			s1.1,2,3.8-1.7S932.4,288.4,932.4,288.4z"/>
		<circle class="st13" cx="920.3" cy="315.8" r="4.4"/>
		<path class="st13" d="M919,311.6c0,0,1.1-0.5,2.1-3.8s2.2-7,4.3-9.4s3-3.5,3.7-4.3c0.5-0.8,1.4-1.1,2.3-1c1,0.1,2.6,0.3,3.2,1.1
			s1.2,2.6,1.1,6.2s0.2,7.4-0.2,9.3c-0.3,1.4-1.2,4.3-4.5,8.3c-1.9,2.4-3.3,5-4.5,5.3s-3,0.2-3.7-0.5s-1.4-2.7-3.4-2.7L919,311.6z"
			/>
		<path class="st14" d="M873.5,313.5c0.5,0.5,1.1,0.8,1.8,0.9c2.1,0.2,4.3,0.1,6.3-0.3c1.5-0.4,1.9-0.9,2.1-0.6s0,3.7-3.9,4.4
			c-3.7,0.7-5.3-0.9-5.7-1.2c-0.9-0.8-1.2-2.1-0.8-3.3C873.3,313.4,873.3,313.3,873.5,313.5z"/>
		<path class="st14" d="M875.3,337.6c1.7-0.5,3.4-0.6,5.1-0.2c0.5,0.1,0.9,0.6,0.8,1.2c0,0.1-0.1,0.2-0.1,0.3
			c-0.3,0.5-0.7,1-1.2,1.4c-1.2,1.1-3,1-4.2-0.1c-0.4-0.4-0.7-0.8-0.9-1.3c-0.2-0.4-0.1-0.9,0.4-1.2
			C875.2,337.7,875.3,337.7,875.3,337.6z"/>
		<path class="st19" d="M864.5,295.4c0.2-0.5,0.7-0.9,1.2-1.1c1-0.4,0.8,0.5,0.7,0.9s-0.3,1.3,0.8,1.5s1.1,0.5,1.1,1s-0.9,1.4-2.4,1
			C864.7,298.2,864,296.7,864.5,295.4C864.5,295.4,864.5,295.4,864.5,295.4z"/>
		<path class="st19" d="M894,294.3c-1.2,0.5-1.8,1.9-1.4,3.1c0.1,1.1,1,1.9,2.1,1.9c0.4,0,0.8-0.2,1.1-0.4c0.5-0.4,0.8-1.7-0.6-1.8
			s-1-1.5-0.7-1.9S895,293.9,894,294.3z"/>
		<ellipse transform="matrix(0.5 -0.866 0.866 0.5 243.3828 929.1869)" class="st19" cx="926.4" cy="253.8" rx="1.6" ry="2.6"/>
		<ellipse transform="matrix(0.2624 -0.965 0.965 0.2624 430.121 1042.8579)" class="st19" cx="897.2" cy="240.1" rx="2.2" ry="4"/>
		
			<ellipse transform="matrix(0.8153 -0.579 0.579 0.8153 18.8151 590.2969)" class="st19" cx="934.8" cy="265.7" rx="1.2" ry="1.9"/>
		<path class="st19" d="M896.3,272.5c-6.8,1.3-13.7-0.6-18.6-1.5c-4.4-0.7-13.4-0.6-19.3,2.9c-1.3,0.8-2.2,2.2-2.4,3.7
			c-0.4,2.2-0.7,5.6-0.9,8.2c-0.4,4.3-0.8,6.4,0,11.3c0.5,4.1,0.8,8.3,0.8,12.5c-1.1-5-2.6-9.9-4.5-14.7c-2.8-7-6.3-17.4-6.3-23
			s2.2-8.9,5.4-10.6s4.2-6.9,6.2-11.2s4.1-7.7,8.5-10s8.3-3.1,11.9-1.8c3.2,1.2,3.9,3.5,7.4,1.4c0.5-0.3,1-0.7,1.8-1.2
			c-1.1,2.6-3.7,4.3-6.5,4.1c-5.2-0.1-8.8-2.8-14.9,4.7s-7,14-4,16.4s8,0.7,16.1,3.2S888.8,272.1,896.3,272.5z"/>
		<path class="st14" d="M870.3,287.4c2.7,1.3,4.4,4.1,4.3,7.1c0.1,3.6-0.4,7.2-1.5,10.6c0,0,0.8-6.8,0.2-11.2
			C872.8,291.5,871.8,289.3,870.3,287.4z"/>
		<path class="st14" d="M887,292.4c0,0-3.4,1.2-2.1,7.5C884.9,299.8,885.9,294.3,887,292.4z"/>
		<path class="st14" d="M923.1,315.7c0.8-1,1.6-2.1,2.1-3.2c0.3-0.6,0.5-1.2,0.6-1.8c0.1-0.6-0.1-1.2-0.4-1.7
			c-0.2-0.3-0.4-0.5-0.6-0.8c-0.2-0.3-0.3-0.6-0.4-0.9c-0.2-0.7-0.1-1.4,0.1-2c0.5-1.2,1.1-2.4,1.8-3.5c0.7-1.1,1.5-2.2,2.5-3.1
			c0.5-0.5,1-0.9,1.5-1.3c0.3-0.2,0.6-0.4,1-0.3c0.4,0.1,0.7,0.3,0.9,0.7c0.7,1.1,1.1,2.4,1.2,3.8c0.1,1.3,0.1,2.6,0,4
			c0,0.1-0.1,0.2-0.2,0.2s-0.2-0.1-0.2-0.2l0,0c0.1-1.3,0-2.6-0.2-3.8c-0.1-1.2-0.6-2.4-1.2-3.4l-0.1-0.2l-0.1-0.1
			c-0.1,0-0.1-0.1-0.2-0.1c-0.1,0-0.1,0-0.2,0c-0.1,0-0.2,0.1-0.3,0.2c-0.5,0.4-1,0.8-1.4,1.2c-0.9,0.9-1.7,1.9-2.3,2.9
			c-0.7,1.1-1.3,2.2-1.8,3.3c-0.2,0.5-0.2,1.1-0.1,1.6c0.1,0.3,0.2,0.5,0.3,0.7c0.1,0.2,0.4,0.5,0.5,0.8c0.2,0.3,0.4,0.6,0.5,1
			c0.1,0.4,0.1,0.8,0,1.1c-0.2,0.7-0.4,1.3-0.7,1.9c-0.6,1.2-1.4,2.2-2.4,3.2c-0.1,0.1-0.2,0-0.2,0
			C923.1,315.8,923.1,315.7,923.1,315.7L923.1,315.7z"/>
		<path class="st14" d="M928,300.4c0.4,0.5,0.8,1.1,1,1.7c0.2,0.6,0.4,1.2,0.5,1.8c0.1,0.6,0.1,1.3,0.1,1.9c0,0.6,0,1.3-0.1,1.9
			c0,0.1-0.1,0.2-0.2,0.2c-0.1,0-0.2-0.1-0.2-0.2l0,0c0-0.6,0-1.2,0-1.8c0-0.6-0.1-1.2-0.2-1.8c-0.1-0.6-0.3-1.2-0.5-1.7
			c-0.2-0.5-0.5-1-0.9-1.4l0,0c-0.1-0.1-0.2-0.3-0.1-0.5C927.6,300.3,927.8,300.3,928,300.4C928,300.4,928,300.4,928,300.4
			L928,300.4z"/>
		<path class="st18" d="M766.6,490.1c0,0,8.8-16.7,13.8-28.3s12.7-33.8,28.9-50l2.6,31l-24,45.4L766.6,490.1z"/>
		<path class="st11" d="M784.4,461.7l-23.8,37.9c-2.4,3.8-3.2,8.5-2.1,12.9l4,15.6c1.6,5.8,6,10.4,11.7,12.3
			c5,1.8,10.3,2.9,15.6,3.1c1.1,0,2.2-0.3,3.2-0.8l11.6-6.1c1.8-1,3.4-2.3,4.8-3.9l14-17.1c1.7-2.1,2.7-4.8,2.7-7.5v-27L784.4,461.7
			z"/>
		<path class="st11" d="M994.6,396.4c0,0,10.4,34.2,19.8,51.2c9.6,17.4,18.1,35.3,25.7,53.7c7,17.1,17.8,26,25.3,47.9
			c5.2,15,5.1,26.9,4.6,32.9c-0.2,2.6-1.6,4.9-3.7,6.5l-11.4,8.4c-1.8,1.3-4,1.7-6.1,1.2l-30.6-7.3c-3.5-0.8-6.3-3.4-7.4-6.8
			c-2.3-6.9-6.3-18.5-9.1-22.9l11.8-21.3l-47.2-56.8C966.2,482.9,952.2,421.1,994.6,396.4z"/>
		<path class="st13" d="M778.8,534.2c0,0,5.5,8.8,15,1.2s25.2-37.5,31.6-51.1s6.7-43.5,10.2-55.4s12.4-28.5,12.4-28.5
			s8.3-16.9-5.2-21.6s-22.3,18.4-30.4,29s-28.8,42.8-35.7,79.5S775.9,528.8,778.8,534.2z"/>
		<path class="st13" d="M782.1,539.7"/>
		<path class="st13" d="M954.3,500.5c0,0,15.2,11.3,31.2,36.5c16,25.2,16.5,33.3,42.7,45.3c8.4,3,20.6,4.8,27.7,6.1
			c2.9,0.5,5.9-0.6,7.8-2.9l0.4-0.5c1.5-1.9,2.1-4.4,1.6-6.8c-2.5-11.6-7-22.6-13.2-32.6c-11.5-18.1-31.1-20.8-50.2-39.6
			s-29.6-29.6-29.6-29.6s-13.2-8.1-22.5,6.6C943,494.2,954.3,500.5,954.3,500.5z"/>
		<path class="st14" d="M867.7,346.2c0,0,16.4-4.2,19.7-5.1s5.1-0.6,5.9,1.7c1,2.7,0.1,4.3-4.6,6c-4.5,1.5-14.5,4.1-14.5,4.1
			L867.7,346.2z"/>
		<path class="st13" d="M848.4,399.2c3.3-6.4,6.8-6,13.8-10.9c4.7-3.3,8.8-6.6,8.8-6.6c3.2-10.1-3.4-18.3-6.2-25.4l0,0l25.1-7.9
			c2-0.5,3.4-2.3,3.3-4.3l0,0c0-1.9-1.3-3.5-3.6-2.9l-32.7,8.7c-0.8,0.2-1.6,0.5-2.2,1L839.3,363c-1.9,1.3-3.4,3.1-4.3,5.2
			c0,0-6,13.9-10.1,20.1"/>
		<path class="st14" d="M940.5,454.7l5.4-0.3c2.1-0.1,4,0.9,5.1,2.7c0.5,0.9,1.1,1.8,1.7,2.6c1.9,2.6,7.3,6.9,9,8.3l-8,1.1
			l-13.7-5.6L940.5,454.7z"/>
		<path class="st12" d="M936.9,374.9c-4.6,7.6-18.8,36.8-10.2,91.6l8,8.8l12.7-11.9c0,0-6.8-42.4,7.9-81.4c0.3-0.8-0.1-1.6-0.8-1.9
			c-0.1,0-0.1,0-0.2-0.1l-7.1-1.9c-0.6-0.2-1.2-0.4-1.8-0.7l-5.6-3.2C938.8,373.6,937.5,373.9,936.9,374.9z"/>
		<path class="st24" d="M929.5,374.6"/>
		<path class="st13" d="M870.4,382c0,0,5-5.2,4.1-9.7s-2.2-4.3-2.6-7.3s0.1-3.8-1.4-5.2s-2.5-3-2.4-4.3s-1.2-0.9-1.2-0.9h-7.2
			l-1.7,8l6,9.7L870.4,382z"/>
		<path class="st14" d="M858,360.5c0,0,1.1-3.4,5.1-2.3C863.1,358.3,859.4,358.5,858,360.5z"/>
		<path class="st14" d="M856.6,355.6c0,0,1.1-3.4,5.1-2.3C861.7,353.4,858,353.6,856.6,355.6z"/>
		<path class="st14" d="M859.7,365.9c0,0,1.1-3.4,5.1-2.3C864.8,363.6,861.2,363.9,859.7,365.9z"/>
		<path class="st14" d="M862.8,372.4c0.6-1.6,2.5-2.5,4.1-1.9c0,0,0,0,0.1,0C866.9,370.5,863.9,370.7,862.8,372.4z"/>
		<path class="st15" d="M938.7,492c0,0,11.3,36.2,27.3,55l0.5-11c0,0-17.8-30.2-21.6-46.7L938.7,492z"/>
		<path class="st14" d="M963.2,508c8.4,8.9,15.9,18.6,22.4,29c16,25.2,16.5,33.3,42.7,45.3c8.4,3,20.6,4.8,27.7,6.1
			c2.9,0.5,5.9-0.6,7.8-2.9l0.4-0.5c1.5-1.9,2.1-4.4,1.6-6.8c0,0-4.3,9.2-14.1,6.1c-10.8-3.4-29.7-6.2-48.3-29.2
			C985.7,533.6,966.9,510.6,963.2,508z"/>
		<path class="st13" d="M923.8,498.6c-0.8,1.2-0.8,2.8,0.2,4l1,1.3c1.1,1.4,3,1.8,4.7,1.1c3.8-1.8,10.5-5,14.3-6.6
			c5.6-2.4,10.4,2.2,10.4,2.2l18.9-23.7c-4.6-4.6-17.4-12.8-22.5-16.7c-2.8-2.1-9.5-1.8-11.3-1.8c-0.4,0-0.9,0-1.3,0
			c-3.6,0.3-7.2,0.7-10.8,1.4c-2.4,0.6-10.1,3.4-13.3,4.6c-0.9,0.3-1.5,1.1-1.6,2.1l-0.3,2.8c-0.2,1.4,0.8,2.6,2.1,2.8l3.2,0.5
			c0.7,0.1,1.2,0.8,1.1,1.5c-0.1,0.4-0.3,0.7-0.6,0.9l-4.3,2.8c-1,0.7-1.5,2-1.1,3.1l2,6.1c0.3,0.9,1,1.5,1.9,1.8l2.2,0.5
			c0,0,1.3,0.2,0.7,0.4l-0.8,0.3c-0.9,0.3-1.4,1.3-1.1,2.3c0,0,0,0.1,0,0.1l2,4.9c0.4,1,1.4,1.5,2.4,1.4l1.7-0.3c0,0,0.6-0.2,0.6,0
			C923.9,498.3,923.8,498.5,923.8,498.6z"/>
		<path class="st23" d="M886.9,287c0.6-1.2,1.5-2.3,2.6-3.1c1.1-0.9,2.5-1.5,3.9-1.7c1.5-0.2,2.9,0,4.3,0.7c0.6,0.3,1.2,0.7,1.7,1.1
			c0.5,0.4,0.9,0.9,1.4,1.4c0.3,0.3,0.2,0.8-0.1,1.1c-0.3,0.2-0.6,0.2-0.9,0.1c-0.5-0.3-0.9-0.7-1.3-1c-0.5-0.3-1-0.5-1.5-0.7
			c-1-0.4-2.1-0.5-3.1-0.3c-1.1,0.2-2,0.7-2.9,1.4c-0.9,0.7-1.6,1.5-2.3,2.4c-0.3,0.5-1,0.6-1.5,0.3c-0.4-0.3-0.6-0.9-0.3-1.4
			L886.9,287z"/>
		<path class="st23" d="M858.4,282.9c0.6-1,1.4-1.9,2.5-2.5c1.1-0.7,2.5-1,3.8-0.7c1.3,0.3,2.4,1,3.3,1.9c0.4,0.5,0.7,0.9,1,1.4
			c0.3,0.5,0.5,1,0.7,1.5v0.1c0.2,0.4,0,0.9-0.3,1.1c-0.4,0.2-0.9,0-1-0.3l-0.8-1.3c-0.3-0.4-0.6-0.8-1-1.1
			c-0.7-0.7-1.5-1.1-2.4-1.4c-0.9-0.2-1.8,0-2.6,0.4c-0.8,0.4-1.5,1.1-2.1,1.8c-0.3,0.3-0.7,0.4-1,0.1c-0.3-0.2-0.4-0.6-0.2-0.9
			L858.4,282.9z"/>
		<path class="st19" d="M864.6,329.5c2.6-0.9,5.3-1.6,8-2c1.4-0.2,2.7-0.3,4.1-0.4c1.4,0,2.8,0.1,4.1,0.2c2.7,0.3,5.4,0.8,8.1,1
			c1.3,0.1,2.7,0.1,4-0.1c1.3-0.2,2.5-0.7,3.5-1.6l0,0c0.1-0.1,0.3-0.1,0.4,0.1c0.1,0.1,0.1,0.3,0,0.4c-1.1,1-2.4,1.6-3.8,1.9
			c-1.4,0.2-2.8,0.3-4.2,0.2c-2.8-0.1-5.4-0.6-8.1-0.9c-2.7-0.3-5.4-0.2-8.1,0.1c-2.7,0.4-5.3,0.9-7.9,1.7h-0.1
			c-0.1,0-0.3-0.1-0.3-0.2C864.5,329.7,864.6,329.7,864.6,329.5L864.6,329.5z"/>
		<path class="st19" d="M894.8,324.6c0.6,0.1,1.3,0.3,1.8,0.7c0.5,0.4,0.9,1,1.2,1.6c0.2,0.6,0.3,1.3,0.2,1.9c0,0.3-0.1,0.6-0.2,0.9
			l-0.3,0.9c-0.1,0.1-0.2,0.2-0.4,0.1c-0.1,0-0.1-0.1-0.1-0.3l0,0l0.2-0.8c0-0.3,0.1-0.6,0.1-0.8c0-0.5,0-1.1-0.2-1.6
			c-0.2-0.5-0.5-0.9-0.9-1.3c-0.4-0.4-0.9-0.6-1.4-0.7c-0.1,0-0.2-0.2-0.2-0.3C894.6,324.7,894.7,324.6,894.8,324.6L894.8,324.6z"/>
	</g>
</g>
<path class="st14" d="M861.4,354c0,0,6.1,0.9,7.5,2.3c0.2-1.3-0.7-2.5-1.9-2.7c0,0-0.1,0-0.1,0c-2.5-0.6-3.3,0.6-6,0L861.4,354z"/>
</svg>
