<svg id="Calque_1" data-name="Calque 1" xmlns="http://www.w3.org/2000/svg" xmlns:xlink="http://www.w3.org/1999/xlink" viewBox="0 0 1280 1081.17"><defs><style>.cls-1{fill:none;}.cls-2{fill:#c3db61;}.cls-3{fill:#87d0e2;}.cls-4{fill:#27aacb;}.cls-5{fill:#009bc2;}.cls-6{fill:#abcc21;}.cls-7{fill:#fff;}.cls-8{fill:#7b2f87;}.cls-9{clip-path:url(#clip-path);}.cls-10{fill:#463c50;}.cls-11{fill:#2d2d46;}.cls-12{fill:#4b2d32;}.cls-13{fill:#f06335;}.cls-14{fill:#eca680;}.cls-15{fill:#df7f58;}.cls-16{fill:#be4834;}.cls-17{fill:#2ac994;}.cls-18{fill:#2ab794;}.cls-19{fill:#78373c;}.cls-20{fill:#2d281e;}.cls-21{fill:#c62424;}.cls-22{fill:#660808;}.cls-23{clip-path:url(#clip-path-2);}.cls-24{fill:#4b3223;}.cls-25{fill:#047d99;}</style><clipPath id="clip-path" transform="translate(0 0)"><path class="cls-1" d="M722.28,169.31c-61.89,95.26-15.44,147.41,43.47,194.4s40.73,152.37,38.82,193.69-7.73,174,130.39,201.42S1127.5,694,1194.25,594.33c29.14-43.53,60.1-66.44,85.75-78.44V0H756a78,78,0,0,0,5.37,26.66C771.27,52.6,784.17,74,722.28,169.31Z"/></clipPath><clipPath id="clip-path-2" transform="translate(0 0)"><path class="cls-1" d="M721.39,168.83c-61.89,95.26-95.3,306-46.19,363.13,72.18,84,130.39-16.36,128.48,25s-7.73,174,130.39,201.42,192.54-64.77,259.29-164.49c29.14-43.53,60.1-66.44,85.75-78.44V-.48h-524a78,78,0,0,0,5.37,26.66C770.38,52.12,783.28,73.57,721.39,168.83Z"/></clipPath></defs><title>maquette portrait v2</title><path class="cls-2" d="M1210.34,723.81c-51.92,73.57-147.79,119.77-209.61,121.95-53.79,1.9-139.18,2.82-233-86.35S593.55,687.58,488.8,773c-72.83,59.37-154.71,80-197.86,87H1280V633C1258.67,653.05,1246,673.32,1210.34,723.81Z" transform="translate(0 0)"/><path class="cls-3" d="M722.28,169.31c-61.89,95.26-15.44,147.41,43.47,194.4s40.73,152.37,38.82,193.69-7.73,174,130.39,201.42S1127.5,694,1194.25,594.33c29.14-43.53,60.1-66.44,85.75-78.44V0H756a78,78,0,0,0,5.37,26.66C771.27,52.6,784.17,74,722.28,169.31Z" transform="translate(0 0)"/><path class="cls-4" d="M781,207.8c-12,18.52-16.11,31-17.41,38.23s-.28,11.67.91,14.94c5.71,15.66,27,34.07,44.93,48.37,80.26,64,70.85,179.23,66.34,234.6-.56,6.87-1,12.81-1.24,17-.75,16.13-2.3,49.69,8.35,78.23,7.17,19.23,21.12,42.43,65.76,51.3a172,172,0,0,0,33.21,3.56c27.75,0,49.14-8.7,71.53-29.08,25.3-23,49-58.65,74.13-96.34q4.28-6.42,8.61-12.9c43.23-64.58,92.15-95.31,131.28-109.81a126.4,126.4,0,0,1,12.65-2.52V0H826.88c.2,11.8,3.17,19.07,3.17,19.07C850.65,72,847.15,106,781,207.8Z" transform="translate(0 0)"/><path class="cls-5" d="M909.39,50.3c3.13,54.26-16,109.69-60.46,181.1a17.66,17.66,0,0,0,4,23.11l.15.12c109.4,87.28,97.52,232.85,92.45,295-.46,5.69-.81,11.59-1.08,14.58-7.37,80.52,49.3,61.85,61.78,49,17.87-18.37,40.35-49.38,63-83.4q4.32-6.49,8.7-13c31.24-46.67,77.3-119.72,202.09-145.27V0H915.84C906.48,28.39,909.39,50.3,909.39,50.3Z" transform="translate(0 0)"/><rect class="cls-6" x="1100.93" y="47.69" width="134.59" height="91.33" rx="11.25" ry="11.25"/><rect class="cls-6" x="758.48" y="97.82" width="134.59" height="91.33" rx="11.25" ry="11.25"/><path class="cls-6" d="M1196.19,206.11l-4-.63c9.34-58.75-13.24-71.53-13.47-71.65l1.88-3.53C1181.7,130.86,1206,144.58,1196.19,206.11Z" transform="translate(0 0)"/><path class="cls-6" d="M949.07,164.71c-22.19-24.35-68.78-10-69.25-9.84l-1.21-3.81c2-.64,49.49-15.28,73.42,11Z" transform="translate(0 0)"/><polygon class="cls-7" points="1199.5 304.13 1159.76 370.37 1007.52 353.8 1006.91 353.73 927.43 416.79 929.3 419.14 1007.81 356.85 1160.39 373.46 1161.35 373.56 1201.61 306.44 1280 268.84 1280 265.51 1199.9 303.93 1199.5 304.13"/><circle class="cls-8" cx="1007.36" cy="355.29" r="4.75" transform="translate(-55.83 458.43) rotate(-24.97)"/><circle class="cls-8" cx="1160.39" cy="371.67" r="4.75" transform="translate(-48.44 524.56) rotate(-24.97)"/><circle class="cls-8" cx="1201.25" cy="305.28" r="4.75" transform="translate(-16.6 535.6) rotate(-24.97)"/><circle class="cls-8" cx="973.83" cy="308.64" r="4.22"/><path class="cls-7" d="M979.93,302.1l.42-1.6a3,3,0,0,1,1.94-2.11l1.2-.42a11.07,11.07,0,0,0,7.08-7.57c0-.16.08-.33.12-.51a11.22,11.22,0,0,0-7.45-13l-.66-.19a11.2,11.2,0,0,0-13.67,8h0a1.32,1.32,0,0,0,.94,1.6l4.42,1.15a1.32,1.32,0,0,0,1.6-.94h0a4,4,0,0,1,7.78,1.86l0,.18a3.89,3.89,0,0,1-2.5,2.63L976,293a5.53,5.53,0,0,0-3.53,3.83l-.83,3.17a1.24,1.24,0,0,0,.89,1.51l5.85,1.52A1.24,1.24,0,0,0,979.93,302.1Z" transform="translate(0 0)"/><path class="cls-7" d="M999.72,278.27a1.35,1.35,0,0,1-.68-2.51,10.79,10.79,0,0,1,3.07-1.26,9.54,9.54,0,0,0,4.45-2.6,12.25,12.25,0,0,1,5.69-3.32,8.22,8.22,0,0,0,2.41-1,1.35,1.35,0,0,1,1.35,2.33,10.85,10.85,0,0,1-3.07,1.27,9.56,9.56,0,0,0-4.46,2.6,12.19,12.19,0,0,1-5.69,3.31,8.16,8.16,0,0,0-2.4,1A1.35,1.35,0,0,1,999.72,278.27Z" transform="translate(0 0)"/><path class="cls-7" d="M943.64,311a1.35,1.35,0,0,1-.68-2.51,10.81,10.81,0,0,1,3.07-1.26,9.53,9.53,0,0,0,4.45-2.6,12.2,12.2,0,0,1,5.69-3.32,8.24,8.24,0,0,0,2.41-1,1.35,1.35,0,0,1,1.35,2.33,10.83,10.83,0,0,1-3.07,1.27,9.55,9.55,0,0,0-4.46,2.6,12.18,12.18,0,0,1-5.69,3.31,8.17,8.17,0,0,0-2.4,1A1.35,1.35,0,0,1,943.64,311Z" transform="translate(0 0)"/><path class="cls-7" d="M1000.24,326.94a1.34,1.34,0,0,1-1.16-.67,10.83,10.83,0,0,1-1.27-3.07,9.55,9.55,0,0,0-2.6-4.46,12.18,12.18,0,0,1-3.31-5.68,8.15,8.15,0,0,0-1-2.4,1.35,1.35,0,0,1,2.33-1.36,10.78,10.78,0,0,1,1.27,3.07,9.51,9.51,0,0,0,2.59,4.45,12.22,12.22,0,0,1,3.32,5.69,8.24,8.24,0,0,0,1,2.41,1.35,1.35,0,0,1-1.16,2Z" transform="translate(0 0)"/><path class="cls-7" d="M967.56,270.87a1.34,1.34,0,0,1-1.16-.67,10.85,10.85,0,0,1-1.27-3.07,9.55,9.55,0,0,0-2.6-4.46,12.2,12.2,0,0,1-3.31-5.69,8.15,8.15,0,0,0-1-2.4,1.35,1.35,0,0,1,2.33-1.36,10.79,10.79,0,0,1,1.26,3.07,9.54,9.54,0,0,0,2.6,4.45,12.23,12.23,0,0,1,3.32,5.69,8.22,8.22,0,0,0,1,2.41,1.35,1.35,0,0,1-1.16,2Z" transform="translate(0 0)"/><path class="cls-7" d="M1004.4,298.15l-.17,0-8.63-2.27a.67.67,0,1,1,.34-1.3l8.63,2.27a.67.67,0,0,1-.17,1.32Z" transform="translate(0 0)"/><path class="cls-7" d="M969.87,325.66l-.17,0a.67.67,0,0,1-.48-.82l2-7.55a.67.67,0,0,1,1.3.34l-2,7.55A.67.67,0,0,1,969.87,325.66Z" transform="translate(0 0)"/><path class="cls-7" d="M960.38,286.55l-.17,0-8.63-2.28a.67.67,0,1,1,.34-1.3l8.63,2.28a.67.67,0,0,1-.17,1.32Z" transform="translate(0 0)"/><path class="cls-7" d="M984.23,270.28h-.14a.67.67,0,0,1-.52-.8l1.8-8.75a.67.67,0,0,1,1.32.27l-1.8,8.75A.67.67,0,0,1,984.23,270.28Z" transform="translate(0 0)"/><rect class="cls-8" x="1074.79" y="243.96" width="11.19" height="11.19" rx="5.18" ry="5.18" transform="translate(73.87 -215.67) rotate(11.8)"/><path class="cls-7" d="M1088,240.58l.44-2.13a4,4,0,0,1,2.41-2.89l1.54-.63a14.54,14.54,0,0,0,8.8-10.38c0-.22.09-.44.13-.68a14.74,14.74,0,0,0-10.6-16.61l-.88-.21a14.71,14.71,0,0,0-17.43,11.39h0a1.73,1.73,0,0,0,1.34,2l5.87,1.23a1.73,1.73,0,0,0,2-1.34h0a5.26,5.26,0,0,1,10.33,1.94q0,.12,0,.24a5.11,5.11,0,0,1-3.11,3.61l-6.54,2.65a7.26,7.26,0,0,0-4.38,5.25l-.88,4.22a1.63,1.63,0,0,0,1.26,1.93l7.77,1.62A1.63,1.63,0,0,0,1088,240.58Z" transform="translate(0 0)"/><path class="cls-7" d="M1112.43,207.53a1.08,1.08,0,0,1-.59-2,20.93,20.93,0,0,1,3.56-1.91,21.93,21.93,0,0,0,6.16-4,24.16,24.16,0,0,1,6.77-4.4,18.84,18.84,0,0,0,3.25-1.74,1.08,1.08,0,0,1,1.18,1.81,20.84,20.84,0,0,1-3.57,1.92,22,22,0,0,0-6.16,4,24.2,24.2,0,0,1-6.76,4.4,18.91,18.91,0,0,0-3.25,1.74A1.07,1.07,0,0,1,1112.43,207.53Z" transform="translate(0 0)"/><path class="cls-7" d="M1040.95,254a1.08,1.08,0,0,1-.59-2,20.93,20.93,0,0,1,3.56-1.91,22,22,0,0,0,6.16-4,24.19,24.19,0,0,1,6.76-4.4,18.84,18.84,0,0,0,3.25-1.74,1.08,1.08,0,0,1,1.18,1.81,21,21,0,0,1-3.57,1.91,22,22,0,0,0-6.16,4,24.16,24.16,0,0,1-6.76,4.4,18.91,18.91,0,0,0-3.25,1.74A1.07,1.07,0,0,1,1040.95,254Z" transform="translate(0 0)"/><path class="cls-7" d="M1116.37,271.08a1.08,1.08,0,0,1-.91-.49,21,21,0,0,1-1.91-3.57,22,22,0,0,0-4-6.17,24.17,24.17,0,0,1-4.4-6.76,18.85,18.85,0,0,0-1.74-3.25,1.08,1.08,0,1,1,1.81-1.18,20.87,20.87,0,0,1,1.91,3.56,22,22,0,0,0,4,6.16,24.18,24.18,0,0,1,4.4,6.77,18.84,18.84,0,0,0,1.74,3.25,1.08,1.08,0,0,1-.91,1.67Z" transform="translate(0 0)"/><path class="cls-7" d="M1069.83,199.6a1.08,1.08,0,0,1-.91-.49,21,21,0,0,1-1.91-3.57,22,22,0,0,0-4-6.16,24.15,24.15,0,0,1-4.4-6.76,18.87,18.87,0,0,0-1.74-3.25,1.08,1.08,0,0,1,1.81-1.18,20.93,20.93,0,0,1,1.91,3.57,22,22,0,0,0,4,6.16,24.19,24.19,0,0,1,4.4,6.77,18.84,18.84,0,0,0,1.74,3.25,1.08,1.08,0,0,1-.91,1.67Z" transform="translate(0 0)"/><path class="cls-7" d="M1119.85,233.49h-.11L1108.26,231a.54.54,0,0,1-.42-.64.55.55,0,0,1,.64-.42l11.47,2.43a.54.54,0,0,1-.11,1.07Z" transform="translate(0 0)"/><path class="cls-7" d="M1076.31,271.8h-.11a.54.54,0,0,1-.42-.64l2.13-10a.55.55,0,0,1,.64-.42.54.54,0,0,1,.42.64l-2.13,10A.54.54,0,0,1,1076.31,271.8Z" transform="translate(0 0)"/><path class="cls-7" d="M1061.28,221.09h-.11l-11.47-2.43a.54.54,0,0,1-.42-.64.55.55,0,0,1,.64-.42l11.47,2.43a.54.54,0,0,1-.11,1.07Z" transform="translate(0 0)"/><path class="cls-7" d="M1091.53,198.21h-.08a.54.54,0,0,1-.45-.62l1.8-11.59a.54.54,0,1,1,1.07.16l-1.8,11.59A.54.54,0,0,1,1091.53,198.21Z" transform="translate(0 0)"/><path class="cls-7" d="M997,90.18l-.68-2.87a5.43,5.43,0,0,1,1.3-4.94l1.54-1.66A19.76,19.76,0,0,0,1004,62.85c-.07-.29-.14-.59-.23-.91a20,20,0,0,0-22.63-14.32q-.61.1-1.21.25A20,20,0,0,0,965,71.93h0a2.35,2.35,0,0,0,2.83,1.74l7.93-1.88A2.35,2.35,0,0,0,977.54,69h0a7.14,7.14,0,0,1,13.83-3.57q0,.16.08.33A7,7,0,0,1,989.71,72l-6.52,7a9.87,9.87,0,0,0-2.36,9l1.35,5.7a2.21,2.21,0,0,0,2.66,1.64l10.5-2.49A2.21,2.21,0,0,0,997,90.18Z" transform="translate(0 0)"/><circle class="cls-8" cx="992.81" cy="105.6" r="7.61"/><path class="cls-7" d="M1007.48,35.21a1.06,1.06,0,0,1-.9-1.62,38.42,38.42,0,0,1,3.11-4.38,36,36,0,0,0,3-4.18,36.17,36.17,0,0,0,2.43-4.51,38.37,38.37,0,0,1,2.56-4.73,38.46,38.46,0,0,1,3.11-4.39,36.15,36.15,0,0,0,3-4.18,1.06,1.06,0,1,1,1.8,1.12,38.22,38.22,0,0,1-3.11,4.39,36.16,36.16,0,0,0-3,4.18,36.17,36.17,0,0,0-2.43,4.51,38.37,38.37,0,0,1-2.56,4.73,38.43,38.43,0,0,1-3.11,4.38,36,36,0,0,0-3,4.18A1.06,1.06,0,0,1,1007.48,35.21Z" transform="translate(0 0)"/><path class="cls-7" d="M946.35,133.63a1.06,1.06,0,0,1-.9-1.62,38.21,38.21,0,0,1,3.11-4.39,42.18,42.18,0,0,0,5.39-8.68,44.48,44.48,0,0,1,5.66-9.12,36.15,36.15,0,0,0,3-4.18,1.06,1.06,0,1,1,1.8,1.12,38.22,38.22,0,0,1-3.11,4.39,42.28,42.28,0,0,0-5.39,8.69,44.37,44.37,0,0,1-5.66,9.11,36,36,0,0,0-3,4.18A1.06,1.06,0,0,1,946.35,133.63Z" transform="translate(0 0)"/><path class="cls-7" d="M1048.86,111a1.06,1.06,0,0,1-.56-.16,38.22,38.22,0,0,1-4.39-3.11,42.28,42.28,0,0,0-8.69-5.39,44.4,44.4,0,0,1-9.12-5.66,36.08,36.08,0,0,0-4.17-3,1.06,1.06,0,1,1,1.12-1.8,38.26,38.26,0,0,1,4.38,3.11,42.22,42.22,0,0,0,8.68,5.39,44.48,44.48,0,0,1,9.12,5.66,36.15,36.15,0,0,0,4.18,3,1.06,1.06,0,0,1-.56,2Z" transform="translate(0 0)"/><path class="cls-7" d="M950.44,49.85a1.06,1.06,0,0,1-.56-.16,38.22,38.22,0,0,1-4.39-3.11,42.31,42.31,0,0,0-8.68-5.39,38.44,38.44,0,0,1-4.73-2.56,38.16,38.16,0,0,1-4.38-3.11,36.16,36.16,0,0,0-4.18-3,1.06,1.06,0,1,1,1.12-1.8A38.21,38.21,0,0,1,929,33.88a36.12,36.12,0,0,0,4.17,3,36,36,0,0,0,4.51,2.43,44.48,44.48,0,0,1,9.12,5.66,36.15,36.15,0,0,0,4.18,3,1.06,1.06,0,0,1-.56,2Z" transform="translate(0 0)"/><path class="cls-7" d="M1016.19,66.6a.53.53,0,0,1-.12-1l15.52-3.63a.53.53,0,0,1,.24,1l-15.52,3.63Z" transform="translate(0 0)"/><path class="cls-7" d="M1000.23,135.22a.53.53,0,0,1-.52-.41l-3.17-13.58a.53.53,0,1,1,1-.24l3.17,13.58a.53.53,0,0,1-.4.64Z" transform="translate(0 0)"/><path class="cls-7" d="M937.06,85.09a.53.53,0,0,1-.12-1l15.52-3.63a.53.53,0,0,1,.64.4.53.53,0,0,1-.4.64l-15.52,3.63Z" transform="translate(0 0)"/><path class="cls-7" d="M976.6,35.87a.53.53,0,0,1-.51-.38l-4.48-15.3a.53.53,0,0,1,1-.3l4.48,15.3a.53.53,0,0,1-.36.66Z" transform="translate(0 0)"/><path class="cls-7" d="M1191.55,95.88a2.84,2.84,0,1,0,2.84,2.84A2.84,2.84,0,0,0,1191.55,95.88Zm0,4.47a1.64,1.64,0,1,1,1.64-1.64A1.64,1.64,0,0,1,1191.55,100.35Z" transform="translate(0 0)"/><path class="cls-7" d="M1210.35,95.88a2.84,2.84,0,1,0,2.84,2.84A2.84,2.84,0,0,0,1210.35,95.88Zm0,4.47a1.64,1.64,0,1,1,1.64-1.64A1.63,1.63,0,0,1,1210.35,100.35Z" transform="translate(0 0)"/><path class="cls-7" d="M1184.77,96.21H1183l1,1.37h1a2.65,2.65,0,0,1-.21-1Z" transform="translate(0 0)"/><path class="cls-7" d="M1216.61,91.27h-5.39s-4-6.11-5.51-6.11h-14.34c-1.1,0-2.07.39-4.61,6.22h0a2.18,2.18,0,0,0-1.51,2.07v3.09a2.18,2.18,0,0,0,2.18,2.18h.79a3.33,3.33,0,1,1,6.65,0H1207a3.33,3.33,0,0,1,6.65,0h2.94a2.18,2.18,0,0,0,2.18-2.18V93.45A2.18,2.18,0,0,0,1216.61,91.27Zm-17.43-5.39h5.33c1,0,4.77,5.34,4.77,5.34l-10.1,0Zm-7.12,0h6.12v5.38h-10C1190.12,86.23,1191.08,85.89,1192.06,85.89Z" transform="translate(0 0)"/><path class="cls-7" d="M776.46,115.94V105.33h3.05a6.05,6.05,0,0,1,1.57.18,3,3,0,0,1,1.1.53,2.16,2.16,0,0,1,.65.85A2.89,2.89,0,0,1,783,108a2.28,2.28,0,0,1-.15.81,2.44,2.44,0,0,1-.42.72,2.7,2.7,0,0,1-.68.57,3.26,3.26,0,0,1-.92.37,3.46,3.46,0,0,1,1.93.83,2.25,2.25,0,0,1,.67,1.7,3,3,0,0,1-.24,1.21,2.45,2.45,0,0,1-.7.92,3.17,3.17,0,0,1-1.12.57,5.29,5.29,0,0,1-1.51.2Zm.76-5.65h2.3a3.72,3.72,0,0,0,1.26-.19,2.49,2.49,0,0,0,.86-.5,1.93,1.93,0,0,0,.49-.7,2.13,2.13,0,0,0,.16-.8,2,2,0,0,0-.68-1.62,3.3,3.3,0,0,0-2.1-.55h-2.29Zm0,.56v4.47h2.66a3.2,3.2,0,0,0,2.11-.6,2.1,2.1,0,0,0,.71-1.7,2.07,2.07,0,0,0-.19-.9,1.89,1.89,0,0,0-.55-.68,2.56,2.56,0,0,0-.89-.43,4.32,4.32,0,0,0-1.19-.15Z" transform="translate(0 0)"/><path class="cls-7" d="M794.06,115.94h-.59a.26.26,0,0,1-.17-.06.38.38,0,0,1-.11-.15l-1.25-3.08h-5.21l-1.25,3.08a.32.32,0,0,1-.1.14.28.28,0,0,1-.18.06h-.58L789,105.33h.76Zm-7.1-3.86h4.75l-2.17-5.36c0-.08-.07-.18-.11-.29l-.1-.34-.11.34-.1.3Z" transform="translate(0 0)"/><path class="cls-7" d="M803.23,114.16a.17.17,0,0,1,.13.05l.3.32a5,5,0,0,1-.72.63,4.48,4.48,0,0,1-.85.48,5.1,5.1,0,0,1-1,.31,6.29,6.29,0,0,1-1.21.11,5.16,5.16,0,0,1-2-.39,4.48,4.48,0,0,1-1.58-1.09,5,5,0,0,1-1-1.71,6.46,6.46,0,0,1-.37-2.23,6.18,6.18,0,0,1,.38-2.21,5,5,0,0,1,1.07-1.71A4.75,4.75,0,0,1,798,105.6a5.49,5.49,0,0,1,2.11-.39,6,6,0,0,1,1.06.09,4.86,4.86,0,0,1,.9.25,4.21,4.21,0,0,1,.78.4,6,6,0,0,1,.72.55l-.23.34a.21.21,0,0,1-.19.09.32.32,0,0,1-.17-.08l-.27-.2-.39-.25a3.25,3.25,0,0,0-.54-.25,4.72,4.72,0,0,0-.73-.2,5.1,5.1,0,0,0-.94-.08,4.62,4.62,0,0,0-1.78.33,4,4,0,0,0-1.39,1,4.35,4.35,0,0,0-.91,1.5,5.65,5.65,0,0,0-.33,2,5.85,5.85,0,0,0,.32,2,4.34,4.34,0,0,0,.89,1.5,3.88,3.88,0,0,0,1.35.94,4.3,4.3,0,0,0,1.68.33,6.19,6.19,0,0,0,1-.08,4,4,0,0,0,.82-.22,3.76,3.76,0,0,0,.7-.37,5.24,5.24,0,0,0,.64-.51l.07,0Z" transform="translate(0 0)"/><path class="cls-7" d="M812.48,107.14v3.08h2.92v1.37h-2.92v3.09H811v-3.09h-2.9v-1.37H811v-3.08Z" transform="translate(0 0)"/><path class="cls-7" d="M823.51,105.88a.86.86,0,0,1-.25.65,1.16,1.16,0,0,1-.84.25h-3L819,109a6.79,6.79,0,0,1,1.34-.15,4.09,4.09,0,0,1,1.5.25,3.1,3.1,0,0,1,1.09.71,3,3,0,0,1,.67,1.05,3.69,3.69,0,0,1,.23,1.3,4,4,0,0,1-.3,1.58,3.57,3.57,0,0,1-.84,1.22,3.8,3.8,0,0,1-1.28.78,4.55,4.55,0,0,1-1.61.28,4.3,4.3,0,0,1-1-.11,4.7,4.7,0,0,1-.86-.28,4.77,4.77,0,0,1-.74-.4,4.67,4.67,0,0,1-.61-.48l.57-.79a.56.56,0,0,1,.48-.25.71.71,0,0,1,.38.12l.45.26a3.83,3.83,0,0,0,.59.26,2.46,2.46,0,0,0,.82.12,2.28,2.28,0,0,0,.9-.17,1.74,1.74,0,0,0,.65-.46,2,2,0,0,0,.39-.71,2.91,2.91,0,0,0,.13-.89,1.84,1.84,0,0,0-.51-1.38,2.09,2.09,0,0,0-1.51-.5,4.66,4.66,0,0,0-1.58.29l-1.16-.33.9-5.26h5.36Z" transform="translate(0 0)"/><path class="cls-7" d="M774.72,168.19V157.58h3.05a6.05,6.05,0,0,1,1.57.18,3,3,0,0,1,1.1.53,2.17,2.17,0,0,1,.65.85,2.89,2.89,0,0,1,.21,1.14,2.28,2.28,0,0,1-.15.81,2.44,2.44,0,0,1-.42.72,2.67,2.67,0,0,1-.68.57,3.27,3.27,0,0,1-.92.37,3.45,3.45,0,0,1,1.93.83,2.24,2.24,0,0,1,.68,1.7,3,3,0,0,1-.24,1.21,2.46,2.46,0,0,1-.7.92,3.17,3.17,0,0,1-1.12.57,5.31,5.31,0,0,1-1.52.2Zm.76-5.65h2.3a3.72,3.72,0,0,0,1.26-.19,2.49,2.49,0,0,0,.86-.5,1.93,1.93,0,0,0,.49-.7,2.15,2.15,0,0,0,.16-.8,2,2,0,0,0-.68-1.62,3.3,3.3,0,0,0-2.1-.55h-2.29Zm0,.56v4.47h2.66a3.2,3.2,0,0,0,2.11-.6,2.1,2.1,0,0,0,.71-1.7,2.06,2.06,0,0,0-.19-.9,1.88,1.88,0,0,0-.55-.68,2.56,2.56,0,0,0-.88-.43,4.32,4.32,0,0,0-1.19-.15Z" transform="translate(0 0)"/><path class="cls-7" d="M792.32,168.19h-.59a.26.26,0,0,1-.17-.06.38.38,0,0,1-.11-.15l-1.25-3.08H785L783.74,168a.33.33,0,0,1-.1.14.28.28,0,0,1-.18.06h-.58l4.34-10.61H788Zm-7.1-3.86H790L787.81,159c0-.08-.07-.18-.11-.29l-.11-.34-.11.34-.1.3Z" transform="translate(0 0)"/><path class="cls-7" d="M801.49,166.41a.17.17,0,0,1,.13.05l.3.32a5,5,0,0,1-.72.63,4.46,4.46,0,0,1-.85.48,5.07,5.07,0,0,1-1,.31,6.29,6.29,0,0,1-1.21.11,5.15,5.15,0,0,1-2-.39,4.47,4.47,0,0,1-1.58-1.09,5,5,0,0,1-1-1.71,6.49,6.49,0,0,1-.37-2.23,6.18,6.18,0,0,1,.38-2.21,5,5,0,0,1,1.06-1.71,4.75,4.75,0,0,1,1.64-1.11,5.49,5.49,0,0,1,2.11-.39,6,6,0,0,1,1.06.09,4.86,4.86,0,0,1,.9.25,4.25,4.25,0,0,1,.79.4,6,6,0,0,1,.72.55l-.23.34a.21.21,0,0,1-.19.09.32.32,0,0,1-.17-.08l-.27-.2-.39-.25a3.29,3.29,0,0,0-.54-.25,4.7,4.7,0,0,0-.73-.2,5.1,5.1,0,0,0-.94-.08,4.62,4.62,0,0,0-1.78.33,3.94,3.94,0,0,0-1.39,1,4.35,4.35,0,0,0-.91,1.5,5.68,5.68,0,0,0-.33,2,5.85,5.85,0,0,0,.32,2,4.35,4.35,0,0,0,.89,1.5,3.9,3.9,0,0,0,1.35.94,4.3,4.3,0,0,0,1.69.33,6.19,6.19,0,0,0,1-.08,4,4,0,0,0,.82-.22,3.76,3.76,0,0,0,.7-.37,5.24,5.24,0,0,0,.64-.51l.07,0Z" transform="translate(0 0)"/><path class="cls-7" d="M810.73,159.39v3.08h2.92v1.37h-2.92v3.09h-1.5v-3.09h-2.9v-1.37h2.9v-3.08Z" transform="translate(0 0)"/><path class="cls-7" d="M818.86,157.23a4.08,4.08,0,0,1,1.37.22,3.08,3.08,0,0,1,1.06.63,2.82,2.82,0,0,1,.69,1,3.13,3.13,0,0,1,.25,1.27,3.39,3.39,0,0,1-.18,1.11,4.6,4.6,0,0,1-.47,1,6.62,6.62,0,0,1-.69.9l-.83.88-2.45,2.5a6.26,6.26,0,0,1,.71-.16,4.16,4.16,0,0,1,.66-.06h2.78a.66.66,0,0,1,.48.17.59.59,0,0,1,.18.45v1.11H815v-.62a1.07,1.07,0,0,1,.08-.39,1.09,1.09,0,0,1,.25-.37l3.29-3.3q.41-.42.74-.8a5.38,5.38,0,0,0,.55-.76,3.46,3.46,0,0,0,.34-.76,2.79,2.79,0,0,0,.12-.81,1.94,1.94,0,0,0-.11-.69,1.38,1.38,0,0,0-.32-.5,1.36,1.36,0,0,0-.5-.3,2,2,0,0,0-.65-.1,1.72,1.72,0,0,0-1.1.34,1.76,1.76,0,0,0-.61.91.76.76,0,0,1-.25.41.69.69,0,0,1-.42.12l-.25,0-1-.17a4,4,0,0,1,.44-1.37,3.28,3.28,0,0,1,.8-1,3.34,3.34,0,0,1,1.11-.59A4.43,4.43,0,0,1,818.86,157.23Z" transform="translate(0 0)"/><path class="cls-7" d="M776.46,139.7V129.09h3.05a6.06,6.06,0,0,1,1.57.18,3,3,0,0,1,1.1.53,2.15,2.15,0,0,1,.65.85,2.89,2.89,0,0,1,.21,1.14,2.28,2.28,0,0,1-.15.81,2.44,2.44,0,0,1-.42.72,2.72,2.72,0,0,1-.68.57,3.26,3.26,0,0,1-.92.37,3.46,3.46,0,0,1,1.93.83,2.25,2.25,0,0,1,.67,1.7,3,3,0,0,1-.24,1.21,2.44,2.44,0,0,1-.7.92,3.17,3.17,0,0,1-1.12.57,5.28,5.28,0,0,1-1.51.2Zm.77-5.65h2.3a3.72,3.72,0,0,0,1.26-.19,2.49,2.49,0,0,0,.86-.5,1.93,1.93,0,0,0,.49-.7,2.12,2.12,0,0,0,.16-.8,2,2,0,0,0-.68-1.62,3.29,3.29,0,0,0-2.1-.55h-2.29Zm0,.56v4.47h2.66a3.2,3.2,0,0,0,2.12-.6,2.11,2.11,0,0,0,.71-1.7,2.08,2.08,0,0,0-.19-.9,1.9,1.9,0,0,0-.55-.68,2.56,2.56,0,0,0-.89-.43,4.31,4.31,0,0,0-1.19-.15Z" transform="translate(0 0)"/><path class="cls-7" d="M794.06,139.7h-.59a.26.26,0,0,1-.17-.06.38.38,0,0,1-.11-.15l-1.25-3.08h-5.21l-1.24,3.08a.32.32,0,0,1-.11.14.28.28,0,0,1-.18.06h-.59L789,129.09h.76Zm-7.1-3.86h4.76l-2.17-5.36c0-.08-.07-.18-.11-.29s-.07-.22-.1-.34l-.11.34-.11.3Z" transform="translate(0 0)"/><path class="cls-7" d="M803.23,137.91a.17.17,0,0,1,.13.05l.3.32a5,5,0,0,1-.72.63,4.51,4.51,0,0,1-.85.48,5.13,5.13,0,0,1-1,.31,6.29,6.29,0,0,1-1.21.11,5.16,5.16,0,0,1-2-.39,4.48,4.48,0,0,1-1.57-1.09,5,5,0,0,1-1-1.71,6.44,6.44,0,0,1-.37-2.23,6.18,6.18,0,0,1,.38-2.21,5,5,0,0,1,1.07-1.71,4.74,4.74,0,0,1,1.64-1.11,5.48,5.48,0,0,1,2.11-.39,6,6,0,0,1,1.06.09,4.86,4.86,0,0,1,.9.25,4.17,4.17,0,0,1,.78.4,6,6,0,0,1,.72.55l-.23.34a.21.21,0,0,1-.19.09.32.32,0,0,1-.17-.08l-.27-.2-.39-.25a3.21,3.21,0,0,0-.54-.25,4.73,4.73,0,0,0-.73-.2,5.1,5.1,0,0,0-.94-.08,4.63,4.63,0,0,0-1.78.33,4,4,0,0,0-1.39,1,4.35,4.35,0,0,0-.91,1.5,5.63,5.63,0,0,0-.33,2,5.85,5.85,0,0,0,.32,2,4.32,4.32,0,0,0,.89,1.5,3.86,3.86,0,0,0,1.35.94,4.29,4.29,0,0,0,1.68.33,6.18,6.18,0,0,0,1-.08,4,4,0,0,0,.82-.22,3.76,3.76,0,0,0,.7-.37,5.23,5.23,0,0,0,.64-.51l.07,0Z" transform="translate(0 0)"/><path class="cls-7" d="M812.48,130.9V134h2.92v1.37h-2.92v3.09H811v-3.09h-2.9V134H811V130.9Z" transform="translate(0 0)"/><path class="cls-7" d="M820.78,128.73a4,4,0,0,1,1.35.21,3.1,3.1,0,0,1,1,.59,2.59,2.59,0,0,1,.66.89,2.66,2.66,0,0,1,.23,1.1,3.21,3.21,0,0,1-.12.91,2.11,2.11,0,0,1-.34.69,2,2,0,0,1-.54.5,3.29,3.29,0,0,1-.72.34,2.84,2.84,0,0,1,1.46.94,2.54,2.54,0,0,1,.48,1.58,3.27,3.27,0,0,1-.3,1.43,3.1,3.1,0,0,1-.81,1,3.53,3.53,0,0,1-1.18.64,4.56,4.56,0,0,1-1.42.22,4.84,4.84,0,0,1-1.43-.19,3.1,3.1,0,0,1-1.06-.55,3.32,3.32,0,0,1-.77-.9,6,6,0,0,1-.54-1.23l.82-.34a1.07,1.07,0,0,1,.43-.09.73.73,0,0,1,.35.08.56.56,0,0,1,.24.24c.09.17.19.35.3.52a2.07,2.07,0,0,0,.39.45,1.86,1.86,0,0,0,.53.32,1.93,1.93,0,0,0,.72.12,2,2,0,0,0,.82-.15,1.79,1.79,0,0,0,.59-.4,1.61,1.61,0,0,0,.35-.55,1.69,1.69,0,0,0,.12-.61,2.85,2.85,0,0,0-.08-.71,1.06,1.06,0,0,0-.35-.54,1.88,1.88,0,0,0-.75-.35,5.44,5.44,0,0,0-1.32-.13v-1.33a4.49,4.49,0,0,0,1.13-.12,1.91,1.91,0,0,0,.72-.33,1.14,1.14,0,0,0,.37-.51,2,2,0,0,0,.11-.66,1.53,1.53,0,0,0-.42-1.17,1.62,1.62,0,0,0-1.15-.39,1.7,1.7,0,0,0-1.1.35,1.83,1.83,0,0,0-.61.9.82.82,0,0,1-.25.41.66.66,0,0,1-.41.12l-.25,0-1-.17a4,4,0,0,1,.43-1.37,3.29,3.29,0,0,1,.81-1,3.37,3.37,0,0,1,1.11-.59A4.46,4.46,0,0,1,820.78,128.73Z" transform="translate(0 0)"/><path class="cls-7" d="M1200.88,121.19a27.83,27.83,0,0,1,0-55.67v3a24.83,24.83,0,1,0,24.83,24.83h3A27.86,27.86,0,0,1,1200.88,121.19Z" transform="translate(0 0)"/><path class="cls-7" d="M871.55,176.8H774.89a1.5,1.5,0,0,1,0-3h96.67a1.5,1.5,0,0,1,0,3Z" transform="translate(0 0)"/><circle class="cls-7" cx="796.93" cy="175.3" r="4.67"/><path class="cls-7" d="M871.55,149.47H774.89a1.5,1.5,0,0,1,0-3h96.67a1.5,1.5,0,0,1,0,3Z" transform="translate(0 0)"/><circle class="cls-7" cx="817.1" cy="147.97" r="4.67"/><path class="cls-7" d="M871.55,123.17H774.89a1.5,1.5,0,0,1,0-3h96.67a1.5,1.5,0,0,1,0,3Z" transform="translate(0 0)"/><circle class="cls-7" cx="850.93" cy="121.67" r="4.67"/><path class="cls-7" d="M1112.28,174.18c-11-6.83-21.47-13.28-35-17.64-38.58-12.43-76.59-12.25-109.92.53-39.18,15-70.28,46.4-92.44,93.26-24.2,51.18-59.07,75.45-84.06,86.8a143.14,143.14,0,0,1-42.58,12l3.09,2.68a146.86,146.86,0,0,0,40.59-11.93c25.5-11.55,61.05-36.24,85.68-88.31,40.14-84.9,114.43-119.37,198.73-92.21,13.19,4.25,23.47,10.61,34.35,17.34,16.65,10.3,35.53,22,69,28.1,26.57,4.86,59.66,5.72,100.26,2.56v-3C1174.63,212.74,1141.76,192.41,1112.28,174.18Z" transform="translate(0 0)"/><circle class="cls-6" cx="784.98" cy="340.79" r="14.5"/><circle class="cls-6" cx="954.89" cy="163.37" r="14.5"/><circle class="cls-6" cx="1194.22" cy="205.8" r="14.5"/><path class="cls-5" d="M488.8,843.46Q478,852.3,466.9,860H803.45a378.46,378.46,0,0,1-35.7-30.09C673.94,740.73,593.55,758.08,488.8,843.46Z" transform="translate(0 0)"/><path class="cls-5" d="M1210.34,794.31c-17.91,25.38-41.05,47.51-66.22,65.69H1280V703.5C1258.67,723.55,1239.95,752.35,1210.34,794.31Z" transform="translate(0 0)"/><path class="cls-6" d="M233.43,860C118.8,843.89,78,774.39,0,736.53V860Z" transform="translate(0 0)"/><g class="cls-9"><path class="cls-10" d="M1162.72,617s8.22,39.17,5.32,114.6c-.48,13.54-4.84,52.71-5.32,72.05,0,0-21.28,19.83-52.22,16,0,0-3.87-43-14-86.07s-14.67-78.82-4.67-110.25Z" transform="translate(0 0)"/><path class="cls-11" d="M1124.14,1062.45c-23.69,10.57-27.77-22.8-19-83.25s17.94-92.36,22.3-116.54,11.89-34.57,1.77-84.14c-8.74-42.82-42.57-117.51-37.4-155.22-10,31.43-5.48,67.22,4.67,110.25s14,86.07,14,86.07,3.92,20.81-8.7,59c-15.59,47.15-19.34,121.86-7.74,190.52,0,0,4.84,7.25,29.5,0,0,0,.2-2.43.59-6.7" transform="translate(0 0)"/><path class="cls-10" d="M1023,804.15s-2.9-75,0-109.77,4.35-60.93,13.54-77.37l87.49,7.29s0,66.21-27,138.74c-7.25,21.76-18.38,37.23-23.21,56.58Z" transform="translate(0 0)"/><path class="cls-10" d="M1023,804.15s-2.9-75,0-109.77,4.35-60.93,13.54-77.37l87.49,7.29s0,66.21-27,138.74c-7.25,21.76-18.38,37.23-23.21,56.58Z" transform="translate(0 0)"/><path class="cls-1" d="M1110.74,723.16s8.95-49.89,7.17-79.22l13.38-1.87s1.07,15.2-3.51,41.83a5.61,5.61,0,0,1-1.92,3.33l-11.12,9.31" transform="translate(0 0)"/><path class="cls-11" d="M1117.94,682.61a86.25,86.25,0,0,0,4.21-18c1.11-9.69,3.17-15.87,7.92-17.45s24.16-6.38,33.63-16.11l-18.74,5-30.9,7.58.16,14.42Z" transform="translate(0 0)"/><path class="cls-11" d="M1047.46,670.19s1.28-24.21,12.9-22.13,21.2,3.63,31.44,3.93c15.06.45,25.15,10.24,22.89,41.1l6.09-19.58-1.05-33.29-68.52-4.16-5.4,14.36Z" transform="translate(0 0)"/><path class="cls-12" d="M1030.77,631.69s32.49,15.95,92.45,12.72c19-1.61,34.43-8.94,41.55-14.14,0,0-1.08-8-1.57-10.63l-56.83,7.52-67.69-5.32-4.55,0S1031.62,628.37,1030.77,631.69Z" transform="translate(0 0)"/><path class="cls-13" d="M1107.78,648.56a2.91,2.91,0,0,1-2.9-3.08l.58-9.37h1.4c.16,0,15.75-.11,25.54-2.49l2-.47-.53,10.64a2.92,2.92,0,0,1-2.65,2.75l-23.14,2Zm.5-9.48-.4,6.47,22.95-2,.33-6.58C1122.84,638.65,1112.1,639,1108.28,639.08Z" transform="translate(0 0)"/><path class="cls-1" d="M1060.2,630.27a37.61,37.61,0,0,0-2.42,15.75" transform="translate(0 0)"/><path class="cls-11" d="M1016.78,1064.95c-1.5,6.45-2.61,11.26-3.2,13.85,0,0-20.79,8.7-33.37-7.25,0,0,3.38-108.8,8.7-134.43s13-51.53,20.9-67.76c11.86-24.34,11-55.55,11-55.55s-2.9-75,0-109.77,4.35-60.93,13.54-77.37l51,4.25s-34.21,4.68-37.5,34.07-7.31,84.84-5.62,109.34-1.69,52.8-8.39,79.59S1008,926.46,1003.31,989C995.41,1093.93,1016.78,1064.95,1016.78,1064.95Z" transform="translate(0 0)"/><path class="cls-14" d="M1237.74,406.3c-1.49-1-2.56.3-4.29,2.38s-6.44,7.71-9.61,10.35c-2.6,2.16-.71-3.13-.7-3.18,1.55-2.78,7.29-12.13,9.13-16.12,1.94-4.18,1.94-7.3,1.11-9.65s-2.28-1.66-3-.28-4.36,8.92-4.91,9.93-6.16,10.27-7.05,12-.76,1.51-1.8,1.24a1.14,1.14,0,0,1-.92-1.08,19.41,19.41,0,0,1,.57-3.28c1-4.22,2.49-11.13,2.9-13.76s1.38-3.67,2-9.41-2.31-5.89-3.53-5.39c-2.46,1-3.73,9.2-4.7,12.66s-2.77,11-3.25,12.66-.83,5.88-3,6a2,2,0,0,1-2.18-2c.07-2.76.47-6.28.52-8.56.07-3.34.69-15.82.48-18.45s-3.73-2.56-4.43.35-3.11,19.78-3.32,23-1.18,5.12-1.59,7.88-3.53,6.55-3.53,6.55l-2.52,19.11c2.59,6.78,15.43,8.44,15.43,8.44s5,.22,8.53-2.77c5.12-4.29,5.36-5,7.21-10.17s5.17-8.58,7.52-11.76,7.23-10,8.23-11.9c.66-1.24,1-1.94,1-1.94S1238.78,407,1237.74,406.3Zm-33.31,3.3a6.7,6.7,0,0,0,0,.78C1204.43,410.13,1204.43,409.87,1204.44,409.6Z" transform="translate(0 0)"/><path class="cls-15" d="M1198,422.5a19.16,19.16,0,0,1-3.45-5.26,27.59,27.59,0,0,1-2,2.83l-.25,1.89,2.55,5.73,4.93,5.34C1202.2,427.8,1201.26,426.19,1198,422.5Z" transform="translate(0 0)"/><path class="cls-14" d="M1186.29,404.91a1.22,1.22,0,0,0-.74,1.64,14,14,0,0,1,1.17,6.77c-.53,3.58-2,8.29-1.31,10.7s5.58,7.58,4.66,15.1c0,0,4.88,2.49,8.23-2.94s2.25-10,.21-11.57a17.39,17.39,0,0,1-5.47-9.12c-.83-3.81-.63-6.2-2.78-8.32C1188.54,405.45,1187.74,404.46,1186.29,404.91Z" transform="translate(0 0)"/><path class="cls-14" d="M1015.55,499.53l9.1,17.71,16.12-6.77s8.31-36.91,8.1-37.72-22.34-27.47-22.34-27.47l-13,26.66Z" transform="translate(0 0)"/><path class="cls-14" d="M1148.14,535.53a72.47,72.47,0,0,1,11.88-34c11.17-16.51,26.15-44.74,30.13-65.42l18.36,1.84,4.14,7.85a406.18,406.18,0,0,0-17.93,46.79c-7.25,23.59-3.27,49.29-29.42,76.35a16.51,16.51,0,0,1-9.5,4.8l-7.67,1.12S1148.1,543.51,1148.14,535.53Z" transform="translate(0 0)"/><path class="cls-1" d="M1151.35,627.17a34.08,34.08,0,0,1,1.45,13.06" transform="translate(0 0)"/><path class="cls-1" d="M1151.35,627.17a34.08,34.08,0,0,1,1.45,13.06" transform="translate(0 0)"/><path class="cls-16" d="M1114.75,295.88a16.51,16.51,0,0,0,4.51,11.73c5,5.16,14,10.33,9.83,30.95-3.7,18.44.81,23.86,6.93,33.53s11.8,22.27,4.51,35.78c-11.86,22,10.36,22-1.19,56l-39.43-34.06L1062.68,393l-3.06-36.91,8.06-35.78,34-21.12Z" transform="translate(0 0)"/><path class="cls-14" d="M1148.75,494.85,1160,530l3.57,39.69a22.93,22.93,0,0,1-22.82,0l-22.58-72.73,9.13-22.58Z" transform="translate(0 0)"/><path class="cls-14" d="M1111.73,418.8s16.66,8,21.82,16.72,9.37,54.83,9.37,54.83l-25.16-29.68Z" transform="translate(0 0)"/><path class="cls-17" d="M1011,435.68a7,7,0,0,1,4.05-3.46c4.59-1.41,37.65-13.75,45.49-24.94a1.77,1.77,0,0,1,1.4-.78l33.63-.77a1.75,1.75,0,0,1,1.61,1c1.14,2.39,5,8.39,15.93,12.62a4.78,4.78,0,0,1,2.25,1.75c4,5.88,21.3,31.21,27.69,39.87,7.25,9.83,8.06,15.47,7.74,20.47a115,115,0,0,1-4,21.44c-2.26,7.9-3.22,12.73-2.58,17.73s5.8,38,8.54,47.39,12.46,33.66,15.2,50.87a1.71,1.71,0,0,1-.34,1.33c-2.15,2.77-12.61,14-43.72,17.91-34.65,4.39-75.93-5.1-93-13a1.72,1.72,0,0,1-.9-2.11c2.35-7.16,12.57-39.29,13.14-56.26.64-19.18-7.58-31.75-13.86-40.14-1.93-2.58-3.76-5.23-5.43-7.91a2.76,2.76,0,0,1,.92-3.79c3.8-2.36,10.85-8.49,12.48-22,2.26-18.7-8.48-40.87-10.69-47C1023,436.14,1014.49,428.1,1011,435.68Z" transform="translate(0 0)"/><path class="cls-18" d="M1026.53,445.93c-3.55-9.79-12-17.83-15.56-10.25a7,7,0,0,1,4.05-3.46c4.7-1.44,39.16-14.32,46-25.69l35.73-.82s1.66,5.75,10.31,10.79c0,0,16.06,14.22,3,32.25-11.9,16.44-63.4,9.1-63.4,9.1Z" transform="translate(0 0)"/><path class="cls-18" d="M1168,619.59s-3,4.86-12.66,9.78c-6.78,3.44-16.85,6.9-31.5,8.76-35.62,4.51-78.26-5.64-94.38-13.7,0,0,13-38.52,13.62-57.71s-7.58-31.75-13.86-40.14a110.58,110.58,0,0,1-6.36-9.44,1,1,0,0,1,.42-1.45c3-1.53,12-7.32,13.92-22.8,2.26-18.7-8.48-40.87-10.69-47-3.55-9.79-12-17.83-15.56-10.25a7,7,0,0,1,4.05-3.46c4.7-1.44,39.16-14.32,46-25.69,0,0-7.77,17.15-19.52,25.33s8.33,15.28,17.47,48.32-16,36.15-5.69,63S1063.6,589,1063.6,602C1063.58,622.17,1101.85,646,1168,619.59Z" transform="translate(0 0)"/><path class="cls-14" d="M1099.33,409.43c16.19,18,13,29.52,7,35.71a21.2,21.2,0,0,1-15.53,5.94c-28.48-.29-41.52-34-41.93-35,0,0,8.09-4.8,11.46-9.23a85.36,85.36,0,0,0,5.71-21.15c1.45-11.48-3.18-22.27-3.18-22.27l20,3.53,20.27,22c-5.59-.9-5.76,4.59-5.76,4.59s-.25,4.87-.44,8.39a10.61,10.61,0,0,0,1.91,6.84C1099,409,1099.16,409.24,1099.33,409.43Z" transform="translate(0 0)"/><path class="cls-15" d="M1062.87,363.44l20,3.53,20.27,22c-5.59-.9-5.76,4.59-5.76,4.59S1078.87,386.48,1062.87,363.44Z" transform="translate(0 0)"/><path class="cls-14" d="M1059.32,364.76a41.94,41.94,0,0,0-8-9.71c-4.59-3.81-10-12.51-9.79-24.12s5.44-31.55,28.89-36.51,35.3,4.47,40.62,10.64a64.57,64.57,0,0,1,9,14.68,12.19,12.19,0,0,1,1,5.39c-.13,3.7-.2,10.72.83,14.27a44.73,44.73,0,0,1,1.93,17.65c-.6,7.74-3.87,17.33-5.08,22.65s-4.59,10-9.91,10.48-26.38-3.65-39.17-12.37a3.59,3.59,0,0,1-1.37-1.81c-.59-1.72-1.73-5.13-2.59-8.38C1064.51,363,1059.32,364.76,1059.32,364.76Z" transform="translate(0 0)"/><path class="cls-14" d="M1124,350.47" transform="translate(0 0)"/><path class="cls-15" d="M1109.16,355.87a20,20,0,0,0,8.09-.38,1,1,0,0,0,.68-1l-.22-3.58c0-.37-.38-.48-.58-.33a48,48,0,0,1-8,4.91A.22.22,0,0,0,1109.16,355.87Z" transform="translate(0 0)"/><path class="cls-1" d="M1110.35,330.5s-1,7.07-.55,8,2.46,4.71,3.65,6.89a31.88,31.88,0,0,0,4.12,5.18" transform="translate(0 0)"/><line class="cls-1" x1="999.3" y1="627.17" x2="1024" y2="443.9"/><polygon class="cls-12" points="997.89 618.47 1016.51 480.17 1021.68 489.98 1004.3 618.47 997.89 618.47"/><path class="cls-12" d="M1022.44,616.91H985l28.38,30.65,25.31,21.05,7.45-15.93.18.35.21-.1L1025.93,753l34.65-5a5.44,5.44,0,0,0,4.52-4.35l17.56-90.92a5.21,5.21,0,0,0-2.64-5.57l-54.66-29.52A6.14,6.14,0,0,0,1022.44,616.91Z" transform="translate(0 0)"/><path class="cls-19" d="M968.8,710.46c4.21,7.78,19.65,25.13,55.19,42.07a5,5,0,0,0,7.05-3.64l15.82-93.52a6.44,6.44,0,0,0-3.22-6.7l-55.94-31.14a5,5,0,0,0-7.32,3.55l-13.06,80.8A13.5,13.5,0,0,0,968.8,710.46Z" transform="translate(0 0)"/><path class="cls-12" d="M990.76,680.75a203.71,203.71,0,0,0-8.4,45.33l3.48,3s2.52-26.56,9.15-45.86Z" transform="translate(0 0)"/><path class="cls-13" d="M995.84,684.42a2.69,2.69,0,0,1-1.34-.36l-4.23-2.44a2.71,2.71,0,0,1-1.26-3l1.66-6.44,1.94.5-1.66,6.44a.7.7,0,0,0,.33.78l4.23,2.44a.7.7,0,0,0,1-.38l1.85-5.38,1.89.65-1.85,5.38a2.7,2.7,0,0,1-2.55,1.82Z" transform="translate(0 0)"/><path class="cls-12" d="M1046.57,652.14c-5.6,9.76-11.37,19.42-17.09,29.11l-2.34,4-1.17,2a3.54,3.54,0,0,1-1.2,1.36,3.3,3.3,0,0,1-3.39.13l-4-2.28-15.93-9.17-15.83-9.35-4-2.34a5.31,5.31,0,0,1-1.59-1.16,3.22,3.22,0,0,1-.74-1.6,3.27,3.27,0,0,1,0-.88l.14-1.12.3-2.28.6-4.56c1.63-12.15,3.12-24.31,5-36.43l-2-.22a4.94,4.94,0,0,0-2.21,1.78c-.8,11.56-1.78,23.11-3,34.62l-.47,4.57-.23,2.29-.12,1.16a5.24,5.24,0,0,0,.07,1.4,5.55,5.55,0,0,0,1.19,2.52,7.22,7.22,0,0,0,2.08,1.58l3.94,2.36,15.78,9.43,15.71,9.54,4,2.4a5.93,5.93,0,0,0,6.1-.12,6.07,6.07,0,0,0,1.24-1,7.72,7.72,0,0,0,.87-1.2l1.2-2,2.41-3.92,14.24-23.18.71-4.19A6.41,6.41,0,0,0,1046.57,652.14Z" transform="translate(0 0)"/><path class="cls-19" d="M1049.74,679l23.33-1.69s-2.2,21.92-4.27,30.79-3.46,9.73-3.46,9.73l-22.49,2.28Z" transform="translate(0 0)"/><path class="cls-12" d="M1054,691.62c-.2,2.73-.52,5.43-.94,8.13s-.94,5.38-1.63,8a41.1,41.1,0,0,1-2.79,7.81,17.31,17.31,0,0,1-2.34,3.59,8.38,8.38,0,0,1-3.73,2.6,1,1,0,1,1-.6-1.91h0a6.48,6.48,0,0,0,2.9-1.93,15.54,15.54,0,0,0,2.19-3.15,39.55,39.55,0,0,0,2.91-7.4c.76-2.57,1.36-5.2,1.86-7.85s.9-5.33,1.19-8h0a.47.47,0,0,1,.94.08Z" transform="translate(0 0)"/><polygon class="cls-19" points="1068.16 687.6 1073.88 687.6 1073.07 677.68 1066.73 684.27 1068.16 687.6"/><polyline class="cls-1" points="1061.47 688.55 1061.47 690.92 1065.7 690.62 1065.7 688.23"/><path class="cls-12" d="M1050.3,678.43a12.17,12.17,0,0,1,1.7,2.43,15.09,15.09,0,0,1,1.14,2.65,15.55,15.55,0,0,1,.63,2.8,17.6,17.6,0,0,1,.14,2.85h0l-.54-.5,20.47-1.56-.46.54-.81-10.28a.5.5,0,0,1,1-.08l.81,10.28a.5.5,0,0,1-.46.54h0l-20.47,1.56a.5.5,0,0,1-.54-.46v0h0a16.51,16.51,0,0,0-.28-2.65,14.32,14.32,0,0,0-.72-2.55,13.72,13.72,0,0,0-1.17-2.36,10.9,10.9,0,0,0-1.56-2l0,0a.8.8,0,0,1,1.12-1.15Z" transform="translate(0 0)"/><path class="cls-15" d="M1081.51,572.53c-.27,1.19-.79,1.29-2,2.28-2.18,1.77-18,5.5-18,5.5.13-.33,1.24-5.5,3.9-7.27s6.88-.75,10.6-1.13c1.57-.16,3.35-.4,4.18-.48C1080.17,571.44,1081.79,571.29,1081.51,572.53Z" transform="translate(0 0)"/><path class="cls-19" d="M1066,681.21l-4.92-.92a569.12,569.12,0,0,0,7.69-94.11c-.15-47.12-7.21-111.62-40-151.33l3.86-3.18c33.72,40.87,41,106.62,41.11,154.59A574.48,574.48,0,0,1,1066,681.21Z" transform="translate(0 0)"/><path class="cls-15" d="M1011.65,491.37l12,24.15s-5.23-6.51,4.51-40.4a38,38,0,0,0,1.21-9.94l-9.1,6.3Z" transform="translate(0 0)"/><path class="cls-13" d="M1001.61,444.32s-2.73-16.3-.77-23.63c1.67-6.23,4.23-8.7,8.22-9.91s8.43-2.09,10.28-8.7c1.51-5.42-3.76-10.54-5.68-16-2.06-5.8-.89-15.55,5.8-20.79,9.24-7.24,13-5.81,13.42-17.65.47-12.71-.4-30.22,8.46-42.31,9.31-12.69,17.53-17,23.94-18.38a80.09,80.09,0,0,1,30.59-.12c11.85,2.06,19.34,2.42,20.07,9.79s-4.47,13.66-14.75,19.46-17,13.32-18.44,24.44,6.35,9.41,5.14,32.38-15.59,22.36-12.45,47.15,23.28,47.13-4.12,66.85c-27.19,19.58-40.54-16.92-41.57-29.13-.88-10.41-6.93-23.68-16.22-24.54C1013.53,433.26,1005.84,437.43,1001.61,444.32Z" transform="translate(0 0)"/><path class="cls-16" d="M1095.87,286.86a80.09,80.09,0,0,0-30.59.12c-6.41,1.33-14.63,5.68-23.94,18.38-8.87,12.09-8,29.61-8.46,42.31-.44,11.84-4.18,10.41-13.42,17.65-6.69,5.24-7.86,15-5.8,20.79,1.92,5.42,7.2,10.53,5.68,16-1.84,6.61-6.29,7.5-10.28,8.7s-6.55,3.68-8.22,9.91c-2,7.34.77,23.63.77,23.63,4.23-6.89,11.92-11.06,11.92-11.06,9.29.86,15.34,14.13,16.22,24.54,1,12.21,14.38,48.72,41.57,29.13,0,0-27.26,1.84-29.76-25s-11.37-32.12-15.87-36.12-4.12-6.62-.37-10.37a25.38,25.38,0,0,0,7.75-16.37c.38-7-8.37-18,1-27s10.13-18.75,9.75-33,1.13-33.37,15.25-42.87S1095.87,286.86,1095.87,286.86Z" transform="translate(0 0)"/><path class="cls-14" d="M1013.84,432.08c-3.83.89-15.59,10-24.4,36.32-10.32,30.79-33.53,60.45-41.26,77.85s-13.87,25-13.87,25,40.89-10.16,49.9-23.53c12-17.75,25.06-41.06,31.35-48.17s13.86-24.68,14.18-39.19C1030,446.87,1024.37,429.63,1013.84,432.08Z" transform="translate(0 0)"/><path class="cls-14" d="M1095.69,573.29a3.24,3.24,0,0,0-3.4-2l-25.14,2.93a5.77,5.77,0,0,0-4.71,3.65l-3.63,9.39a3.14,3.14,0,0,1-4.1,1.79c-10.89-4.34-34.89-14.13-47.15-20.83-20.94-11.44-21.28-27.27-53.52-33.06L934.3,571.23,1053.79,610a17,17,0,0,0,7.3.7l15.72-1.92c1.72-.21,3.44-.3,5.17-.39,3.72-.2,4.67-1.42,5.26-3.73l5.58-22a1.08,1.08,0,0,0-1.34-1.31l-8.74,2.46,11.52-6.47A3.24,3.24,0,0,0,1095.69,573.29Z" transform="translate(0 0)"/><path class="cls-15" d="M1116.1,348.91a5.62,5.62,0,0,1,.73.53,2.14,2.14,0,0,1,.88,1.72l-2.63.84s1.31-.65,1.48-1.45A2.69,2.69,0,0,0,1116.1,348.91Z" transform="translate(0 0)"/><path class="cls-20" d="M1093.18,339.26a4.89,4.89,0,0,1,1.22-1.5,3.74,3.74,0,0,1,1.85-.84,3,3,0,0,1,2,.47,4.93,4.93,0,0,1,.78.62q.32.37.6.75a.26.26,0,0,1-.38.36l0,0a6.72,6.72,0,0,0-1.38-1,2.37,2.37,0,0,0-1.48-.27,3.23,3.23,0,0,0-1.45.59,7.74,7.74,0,0,0-1.28,1.11v0a.27.27,0,0,1-.43-.31Z" transform="translate(0 0)"/><path class="cls-20" d="M1113.64,339.17a5.66,5.66,0,0,1,.67-1.44,2.59,2.59,0,0,1,1.33-1.13,1.46,1.46,0,0,1,1,.07,2.24,2.24,0,0,1,.74.54,6.83,6.83,0,0,1,.47.68l.33.72a.29.29,0,0,1-.49.28l0,0a7.81,7.81,0,0,0-.86-1.1,1,1,0,0,0-.93-.35,2,2,0,0,0-.93.77,8.7,8.7,0,0,0-.76,1.2v0a.29.29,0,0,1-.54-.23Z" transform="translate(0 0)"/><path class="cls-21" d="M1099.18,367.26s1.6,1.19,8,1.37c6,.17,8.75-.66,10-1.32a3.33,3.33,0,0,0,1.08-.71.65.65,0,0,0,0-.79c-.17-.25.94-.31.94-.31l-3-.5-4.71.21-4.13,1.42S1102.54,368.66,1099.18,367.26Z" transform="translate(0 0)"/><path class="cls-22" d="M1116.84,362.72a3.83,3.83,0,0,0,2.5,2.64s-1.88.19-3,.24-1.08.4-1.62.43-1.69-.21-2.9-.11a24.87,24.87,0,0,0-5,1.06c-1.24.48-5.6,1.79-8.3,0a8.75,8.75,0,0,0,6.39.28,24.8,24.8,0,0,0,7-4.39.38.38,0,0,1,.5,0l1.68,1.37a.63.63,0,0,0,.94-.06c.35-.33,1.37-1.65,1.61-1.66S1116.84,362.72,1116.84,362.72Z" transform="translate(0 0)"/><path class="cls-22" d="M1119.36,365.5l-2.65.3a3.17,3.17,0,0,0-1.19.26,1.79,1.79,0,0,1-.72.27,4.64,4.64,0,0,1-.71,0,10.29,10.29,0,0,0-2.58,0c-.86.11-1.73.26-2.59.44a17.2,17.2,0,0,0-2.52.74,15.37,15.37,0,0,1-2.63.58,7.73,7.73,0,0,1-5.29-.9.23.23,0,0,1,.25-.39h0a7.43,7.43,0,0,0,4.95.68,14.7,14.7,0,0,0,2.51-.6c.39-.13.81-.32,1.26-.45s.87-.25,1.31-.35c.88-.2,1.75-.37,2.65-.5a8.6,8.6,0,0,1,2.73.14,4.32,4.32,0,0,0,.61.06,1.12,1.12,0,0,0,.5-.22,2.71,2.71,0,0,1,1.42-.31,25.67,25.67,0,0,1,2.65,0h0a.15.15,0,0,1,0,.29Z" transform="translate(0 0)"/><path class="cls-22" d="M1099.31,365.89a1.77,1.77,0,0,0-.46,1.14,2.53,2.53,0,0,0,.34,1.24.18.18,0,0,1-.29.2l0,0a1.89,1.89,0,0,1-.37-.66,2.16,2.16,0,0,1-.14-.77,1.91,1.91,0,0,1,.68-1.4h0a.19.19,0,0,1,.25.28Z" transform="translate(0 0)"/><path class="cls-11" d="M1099,367.19" transform="translate(0 0)"/><path class="cls-15" d="M1154.25,512s-4.88,9.56-6.38,24.31c0,0-.83-18.94,4.46-30.28Z" transform="translate(0 0)"/><path class="cls-15" d="M984.35,547.49c.14-.21,1.93-3.06,1.93-3.06-6.53-7.37-28-8.49-28-8.49,13.67,2,25.49,12.42,25.49,12.42Z" transform="translate(0 0)"/><path class="cls-13" d="M1110.85,326.42a9.77,9.77,0,0,1,1.23-3,6.82,6.82,0,0,1,2.36-2.38,4.64,4.64,0,0,1,3.35-.51,3.33,3.33,0,0,1,2.38,2.24.2.2,0,0,1-.37.16h0a2.84,2.84,0,0,0-2.19-1.47,3.5,3.5,0,0,0-2.43.79,7.36,7.36,0,0,0-1.73,2,20.76,20.76,0,0,1-1.63,2.43l-.1.12a.49.49,0,0,1-.86-.41Z" transform="translate(0 0)"/><path class="cls-13" d="M1101.63,328c-1.33-.88-2.54-1.79-3.77-2.62a23.06,23.06,0,0,0-3.77-2.38,11.5,11.5,0,0,0-4.42-.81,12,12,0,0,0-4.5.89h0a.23.23,0,0,1-.19-.41,14,14,0,0,1,4.65-1.37,13,13,0,0,1,4.92.37,11.76,11.76,0,0,1,4.58,2,9.27,9.27,0,0,1,3,4,.32.32,0,0,1-.47.38Z" transform="translate(0 0)"/></g><path class="cls-7" d="M1112.89,85.13V89.4h-.77V78.79h2.74a4.21,4.21,0,0,1,2.82.82,2.91,2.91,0,0,1,.95,2.33,3.15,3.15,0,0,1-.26,1.28,2.87,2.87,0,0,1-.75,1,3.49,3.49,0,0,1-1.19.66,4.88,4.88,0,0,1-1.58.24Zm0-.61h2a3.79,3.79,0,0,0,1.26-.2,2.76,2.76,0,0,0,.94-.54,2.34,2.34,0,0,0,.59-.81,2.51,2.51,0,0,0,.21-1,2.37,2.37,0,0,0-.75-1.88,3.32,3.32,0,0,0-2.25-.66h-2Z" transform="translate(0 0)"/><path class="cls-7" d="M1127.9,89.4h-.59a.26.26,0,0,1-.17-.06.38.38,0,0,1-.11-.15l-1.25-3.08h-5.21l-1.25,3.08a.32.32,0,0,1-.1.14.28.28,0,0,1-.18.06h-.58l4.34-10.61h.76Zm-7.1-3.86h4.75l-2.17-5.36c0-.08-.07-.18-.11-.29l-.1-.34-.11.34-.1.3Z" transform="translate(0 0)"/><path class="cls-7" d="M1134.72,80.08a.21.21,0,0,1-.2.13.43.43,0,0,1-.25-.14,3.48,3.48,0,0,0-.42-.31,3.3,3.3,0,0,0-.66-.31,3.31,3.31,0,0,0-2,0,2.13,2.13,0,0,0-.74.45,1.91,1.91,0,0,0-.45.66,2.06,2.06,0,0,0-.15.79,1.61,1.61,0,0,0,.23.89,2.07,2.07,0,0,0,.61.6,3.89,3.89,0,0,0,.85.42l1,.33q.5.17,1,.36a3.56,3.56,0,0,1,.85.5,2.3,2.3,0,0,1,.6.74,2.34,2.34,0,0,1,.23,1.09,3.44,3.44,0,0,1-.23,1.26,2.94,2.94,0,0,1-.66,1,3.13,3.13,0,0,1-1.07.69,3.88,3.88,0,0,1-1.44.25,4.07,4.07,0,0,1-1.81-.37,4.26,4.26,0,0,1-1.33-1l.21-.33a.26.26,0,0,1,.21-.11.3.3,0,0,1,.17.09l.26.22.36.29a2.91,2.91,0,0,0,.49.28,3.33,3.33,0,0,0,1.46.31,3.1,3.1,0,0,0,1.13-.19,2.44,2.44,0,0,0,.84-.52,2.2,2.2,0,0,0,.52-.78,2.61,2.61,0,0,0,.18-1,1.7,1.7,0,0,0-.23-.93,2,2,0,0,0-.6-.61,3.88,3.88,0,0,0-.85-.41l-1-.32q-.5-.16-1-.35a3.35,3.35,0,0,1-.85-.5,2.28,2.28,0,0,1-.6-.76,2.5,2.5,0,0,1-.23-1.14,2.68,2.68,0,0,1,.2-1,2.55,2.55,0,0,1,.59-.87,2.92,2.92,0,0,1,1-.61,3.52,3.52,0,0,1,1.31-.23,4,4,0,0,1,1.48.26,3.56,3.56,0,0,1,1.2.8Z" transform="translate(0 0)"/><path class="cls-7" d="M1142.56,80.08a.21.21,0,0,1-.2.13.43.43,0,0,1-.25-.14,3.48,3.48,0,0,0-.42-.31,3.3,3.3,0,0,0-.66-.31,3.31,3.31,0,0,0-2,0,2.13,2.13,0,0,0-.74.45,1.91,1.91,0,0,0-.45.66,2.06,2.06,0,0,0-.15.79,1.61,1.61,0,0,0,.23.89,2.07,2.07,0,0,0,.61.6,3.89,3.89,0,0,0,.85.42l1,.33q.5.17,1,.36a3.56,3.56,0,0,1,.85.5,2.3,2.3,0,0,1,.6.74,2.34,2.34,0,0,1,.23,1.09,3.44,3.44,0,0,1-.23,1.26,2.94,2.94,0,0,1-.66,1,3.13,3.13,0,0,1-1.07.69,3.88,3.88,0,0,1-1.44.25,4.07,4.07,0,0,1-1.81-.37,4.26,4.26,0,0,1-1.33-1l.21-.33a.26.26,0,0,1,.21-.11.3.3,0,0,1,.17.09l.26.22.36.29a2.91,2.91,0,0,0,.49.28,3.33,3.33,0,0,0,1.46.31,3.1,3.1,0,0,0,1.13-.19,2.44,2.44,0,0,0,.84-.52,2.2,2.2,0,0,0,.52-.78,2.61,2.61,0,0,0,.18-1,1.7,1.7,0,0,0-.23-.93,2,2,0,0,0-.6-.61,3.88,3.88,0,0,0-.85-.41l-1-.32q-.5-.16-1-.35a3.35,3.35,0,0,1-.85-.5,2.28,2.28,0,0,1-.6-.76,2.5,2.5,0,0,1-.23-1.14,2.68,2.68,0,0,1,.2-1,2.55,2.55,0,0,1,.59-.87,2.92,2.92,0,0,1,1-.61,3.52,3.52,0,0,1,1.31-.23,4,4,0,0,1,1.48.26,3.56,3.56,0,0,1,1.2.8Z" transform="translate(0 0)"/><path class="cls-7" d="M1113.75,103.75v3.65h-2.53V96.47h3.85a6.34,6.34,0,0,1,2,.27,3.82,3.82,0,0,1,1.37.75,2.94,2.94,0,0,1,.79,1.13,3.85,3.85,0,0,1,.26,1.41,4.15,4.15,0,0,1-.26,1.5,3,3,0,0,1-.8,1.17,3.78,3.78,0,0,1-1.37.76,6.29,6.29,0,0,1-2,.27Zm0-1.91h1.32a1.61,1.61,0,0,0,1.86-1.79,2,2,0,0,0-.11-.68,1.39,1.39,0,0,0-.34-.53,1.53,1.53,0,0,0-.58-.34,2.55,2.55,0,0,0-.83-.12h-1.32Z" transform="translate(0 0)"/><path class="cls-7" d="M1127.82,96.47v2h-4.48V101h3.43v1.88h-3.43v2.6h4.48v2h-7V96.47Z" transform="translate(0 0)"/><path class="cls-7" d="M1131.8,103.36v4h-2.53V96.47h3.55a7.31,7.31,0,0,1,2,.24,3.78,3.78,0,0,1,1.36.68,2.58,2.58,0,0,1,.77,1,3.6,3.6,0,0,1,.1,2.29,3,3,0,0,1-.42.87,3.28,3.28,0,0,1-.69.72,3.65,3.65,0,0,1-.94.52,2.39,2.39,0,0,1,.48.32,1.86,1.86,0,0,1,.39.46l2.33,3.8h-2.29a1,1,0,0,1-.92-.48l-1.81-3.17a.76.76,0,0,0-.28-.3.94.94,0,0,0-.45-.09Zm0-1.75h1a2.62,2.62,0,0,0,.88-.13,1.59,1.59,0,0,0,.6-.36,1.37,1.37,0,0,0,.34-.54,2.07,2.07,0,0,0,.11-.67,1.41,1.41,0,0,0-.47-1.12,2.18,2.18,0,0,0-1.45-.41h-1Z" transform="translate(0 0)"/><path class="cls-7" d="M1145.12,103c.09.21.18.42.27.63q.13-.33.27-.64t.29-.6l2.8-5.53a.92.92,0,0,1,.15-.22.51.51,0,0,1,.18-.12.62.62,0,0,1,.22,0h2.22V107.4h-2.23v-6.29q0-.46,0-1l-2.9,5.62a1,1,0,0,1-.36.4,1,1,0,0,1-.52.13h-.34a1,1,0,0,1-.52-.13,1,1,0,0,1-.36-.4l-2.91-5.62c0,.17,0,.35,0,.52s0,.33,0,.48v6.29h-2.23V96.48h2.22a.62.62,0,0,1,.22,0,.51.51,0,0,1,.18.12.89.89,0,0,1,.15.22l2.81,5.55C1144.93,102.6,1145,102.79,1145.12,103Z" transform="translate(0 0)"/><path class="cls-7" d="M1156.1,107.4h-2.55V96.47h2.55Z" transform="translate(0 0)"/><path class="cls-7" d="M1164.21,98.69a1,1,0,0,1-.24.27.53.53,0,0,1-.32.09.78.78,0,0,1-.37-.11l-.45-.24a3.71,3.71,0,0,0-.57-.24,2.27,2.27,0,0,0-.74-.11,1.58,1.58,0,0,0-1.06.3,1,1,0,0,0-.35.82.76.76,0,0,0,.21.55,1.82,1.82,0,0,0,.55.38,6,6,0,0,0,.78.29l.9.29a7.82,7.82,0,0,1,.9.38,3,3,0,0,1,.78.55,2.59,2.59,0,0,1,.55.82,2.91,2.91,0,0,1,.21,1.17,3.8,3.8,0,0,1-.26,1.42,3.32,3.32,0,0,1-.76,1.15,3.53,3.53,0,0,1-1.23.77,4.61,4.61,0,0,1-1.66.28,5.3,5.3,0,0,1-1-.11,6,6,0,0,1-1-.3,5.91,5.91,0,0,1-.93-.45,3.9,3.9,0,0,1-.76-.58l.75-1.18a.61.61,0,0,1,.23-.22.66.66,0,0,1,.32-.08.85.85,0,0,1,.45.14l.52.31a4.17,4.17,0,0,0,.66.32,2.49,2.49,0,0,0,.88.14,1.69,1.69,0,0,0,1.07-.3,1.16,1.16,0,0,0,.38-1,.91.91,0,0,0-.21-.62,1.62,1.62,0,0,0-.55-.4,5.14,5.14,0,0,0-.78-.28l-.89-.27a6.43,6.43,0,0,1-.89-.36,2.82,2.82,0,0,1-.78-.56,2.62,2.62,0,0,1-.55-.87,3.44,3.44,0,0,1-.21-1.29,3,3,0,0,1,.25-1.2,3.11,3.11,0,0,1,.73-1,3.59,3.59,0,0,1,1.18-.73,4.34,4.34,0,0,1,1.6-.27,6,6,0,0,1,1,.08,5.16,5.16,0,0,1,.9.23,4.94,4.94,0,0,1,.8.37,3.65,3.65,0,0,1,.66.48Z" transform="translate(0 0)"/><g class="cls-23"><polygon class="cls-10" points="819.17 631.27 819.17 667.65 827.41 741.5 900.24 762.73 904.42 706.45 892.69 648.3 872.41 618.71 819.17 631.27"/><path class="cls-11" d="M849,632.49c10,1.53,11.15,20.2,11.09,28.19-.24,31.14,12.6,20.31,15.21,38.15,2.65,18.11,1.37,57,1.37,57l23.61,6.88,4.18-56.28L892.69,648.3l-20.28-29.6-53.24,12.56s-.4.77,0,8.22C819.17,639.48,835.49,630.44,849,632.49Z" transform="translate(0 0)"/><path class="cls-10" d="M956.08,636.31s1.27,20.41,1.58,41.25,3.74,70.91,6.31,84.54l2.57,13.63-75.46-19.33-7.34-51.25s-1.1-13.25-11.32-19.94-8.32-20.71-8.56-21.43,0-41.83,0-41.83l82.24,5Z" transform="translate(0 0)"/><path class="cls-11" d="M863.76,643.21s-1.33-12.83,9.84-12.7c10.7.13,61.33,1.59,83,14.57l-1.67-14.58-87.94-13-12.36,4.41,4.28,9.33Z" transform="translate(0 0)"/><path class="cls-13" d="M907.9,361.33l47.42,8.35a21.06,21.06,0,0,1,14,9.31l7.71,11.94-52.79,14.73-69.55-8.38L887.41,371Z" transform="translate(0 0)"/><path class="cls-16" d="M907.9,361.33,887.41,371l-32.68,26.24,69.55,8.38,52.79-14.73-.87-1.35s-9.26-4.35-16.59-8.45c-10.42-5.83-15.24-7.43-22.75-9C914.53,367.46,907.9,361.33,907.9,361.33Z" transform="translate(0 0)"/><path class="cls-12" d="M817.58,618.12v12.34a1.49,1.49,0,0,0,1.91,1.45c11.1-3.21,69.18-17.83,136.17,5.77a1.5,1.5,0,0,0,2-1.4V619.86a1.5,1.5,0,0,0-1.11-1.45L861,592.71a1.5,1.5,0,0,0-1.14.15l-41.49,24A1.5,1.5,0,0,0,817.58,618.12Z" transform="translate(0 0)"/><path class="cls-12" d="M926.64,372.21s5,.46,6.33,1.44l-1.61,2-4.72-1.19Z" transform="translate(0 0)"/><path class="cls-14" d="M921.79,317.32s-5.34,18.39-4.38,33.49,5.85,21.53,15,23.7c0,0-16.31,32-53.78,28.87-13.49-1.15-12.24-11.13-8.24-24.14,0,0,10-2.41,4.38-26.66Z" transform="translate(0 0)"/><path class="cls-15" d="M845.7,358.54c.19-.13,8.49-9.15,10.82-11.69A3,3,0,0,1,858,346l9.88-2.61a1.46,1.46,0,0,1,1.82,1c.18.8-.19,2-2.39,3.39l-9.68,7.18Z" transform="translate(0 0)"/><path class="cls-15" d="M918.71,331.39a67.55,67.55,0,0,1-29.81,28.16c-8.19,3.9-13-1-13-1-.27-1.84-.65-3.84-1.15-6l47.06-35.26A133.81,133.81,0,0,0,918.71,331.39Z" transform="translate(0 0)"/><path class="cls-19" d="M959.68,622.77l2-2.94a21.84,21.84,0,0,0,3.79-12.58c-2.15-153.72,23.49-202,28.33-209.72a2.5,2.5,0,0,0,0-2.65c-2.14-3.4-6.28-4-16.37-5.65-9.94-1.66-38.29-13.06-45.42-16a1.81,1.81,0,0,0-2.33,1c-9.49,21.58-30.41,29.73-51.28,28.34-13.6-.91-11.7-11.28-8.5-18.71a3,3,0,0,0-3.85-3.87c-11.06,4.5-25,8.18-34.56,10.42a18,18,0,0,0-13.47,14c-14,69.64-12.52,165.44-11.6,196.32A26.72,26.72,0,0,0,813.5,618l3.09,3.36a2.56,2.56,0,0,0,2.7.71c9.74-3.24,64.33-19.27,134.51,2.68A5.21,5.21,0,0,0,959.68,622.77Z" transform="translate(0 0)"/><path class="cls-14" d="M856.5,275a68.8,68.8,0,0,0-2.14,16.46c.12,8.11,1.77,16,1.51,21.51a44.29,44.29,0,0,0,3.48,20.38c3.49,8.43,6.72,11.1,12.41,17,3.79,3.92,6.14,6.26,14.58,4.7S909,341,912.72,337.49s8.4-8.55,7.76-19.15l.92-30-3.13-28.19-12.41-8.43L868,261Z" transform="translate(0 0)"/><path class="cls-14" d="M852.42,295.95a69.82,69.82,0,0,0,0,10.54c.48,4.28,1.57,6.33,4.46,7.77l2.29-7.77L856,295.95Z" transform="translate(0 0)"/><path class="cls-24" d="M855.79,309.73a109.36,109.36,0,0,0-4.46-14.7c-2.77-7-6.26-17.35-6.26-23s2.17-8.91,5.36-10.6,4.16-6.87,6.2-11.2,4.1-7.71,8.55-10,8.31-3.25,11.93-1.81,4.1,3.61,7.83,1.08,7.23-3.73,11.44-3.37,6.75,1.81,8.91,5.54,5.17,6,12.61,7.55c5.94,1.2,10.92-.48,12.37,4.82s-.41,8.31,2,8.35c4.43.08,6.28,2.65,3.42,14s-4.14,13.49-4.54,18.39L920.1,311a.67.67,0,0,1-1.2-.17,18.63,18.63,0,0,1-.42-5.77c.24-5.86-.08-11.16-2.09-13.17a8.9,8.9,0,0,1-3-7.71c.4-3.29,1.77-8.75-.24-13.57-.75-1.8-1.35-3.1-1.81-4a1.87,1.87,0,0,0-2.87-.6c-2.51,2-7.4,5.58-12.18,6.48-6.83,1.28-13.65-.64-18.63-1.45-4.43-.72-13.39-.61-19.33,2.94a5.28,5.28,0,0,0-2.41,3.72c-.36,2.24-.9,5.71-1.15,8.36a35.07,35.07,0,0,0,.24,11.16A94.76,94.76,0,0,1,855.79,309.73Z" transform="translate(0 0)"/><path class="cls-20" d="M932.37,288.42a30.87,30.87,0,0,0-1.21,6.28L920.1,311a.67.67,0,0,1-1.2-.17,18.63,18.63,0,0,1-.42-5.77c.24-5.86-.08-11.16-2.09-13.17a8.9,8.9,0,0,1-3-7.71s.89,4.35,5.17,5.19c4.84,1,3.67,6.18,4.28,7.82s1.14,2,3.85-1.74S932.37,288.42,932.37,288.42Z" transform="translate(0 0)"/><circle class="cls-14" cx="920.29" cy="315.78" r="4.38"/><path class="cls-14" d="M919,311.59s1.14-.5,2.11-3.83,2.21-7,4.26-9.36,3-3.53,3.69-4.34a2.32,2.32,0,0,1,2.29-1c1,.12,2.61.32,3.17,1.12s1.16,2.65,1.12,6.18.21,7.44-.16,9.28c-.28,1.39-1.22,4.31-4.46,8.31-1.9,2.35-3.25,5-4.46,5.34s-3.05.2-3.73-.52-1.42-2.66-3.42-2.74Z" transform="translate(0 0)"/><path class="cls-15" d="M873.47,313.46a3.48,3.48,0,0,0,1.79.94,20.87,20.87,0,0,0,6.35-.29c1.55-.43,1.86-.86,2.07-.6s0,3.66-3.9,4.43c-3.73.74-5.31-.85-5.67-1.24a2.93,2.93,0,0,1-.81-3.25S873.32,313.32,873.47,313.46Z" transform="translate(0 0)"/><path class="cls-15" d="M875.31,337.64a10.27,10.27,0,0,1,5.09-.21,1,1,0,0,1,.67,1.47,6,6,0,0,1-1.2,1.42,3,3,0,0,1-4.15-.15,5.43,5.43,0,0,1-.89-1.31A.86.86,0,0,1,875.31,337.64Z" transform="translate(0 0)"/><path class="cls-20" d="M864.55,295.39a1.92,1.92,0,0,1,1.23-1.08c1-.38.78.55.71.89s-.27,1.32.75,1.52,1.08.46,1.07,1-.87,1.43-2.36.95A2.51,2.51,0,0,1,864.55,295.39Z" transform="translate(0 0)"/><path class="cls-20" d="M894,294.28a2.53,2.53,0,0,0-1.36,3.08,2,2,0,0,0,3.22,1.45c.49-.43.85-1.69-.64-1.81s-1.05-1.46-.71-1.85S895,293.88,894,294.28Z" transform="translate(0 0)"/><ellipse class="cls-20" cx="926.39" cy="253.81" rx="1.63" ry="2.61" transform="translate(243.39 929.19) rotate(-60)"/><ellipse class="cls-20" cx="897.15" cy="240.07" rx="2.18" ry="3.97" transform="translate(430.15 1042.83) rotate(-74.79)"/><ellipse class="cls-20" cx="934.77" cy="265.6" rx="1.15" ry="1.85" transform="translate(18.86 590.33) rotate(-35.38)"/><path class="cls-20" d="M896.31,272.46c-6.83,1.28-13.65-.64-18.63-1.45-4.43-.72-13.39-.61-19.33,2.94a5.28,5.28,0,0,0-2.41,3.72c-.36,2.24-.65,5.56-.9,8.21-.4,4.26-.81,6.42,0,11.31a94.76,94.76,0,0,1,.76,12.49,109.36,109.36,0,0,0-4.46-14.7c-2.77-7-6.26-17.35-6.26-23s2.17-8.91,5.36-10.6,4.16-6.87,6.2-11.2,4.1-7.71,8.55-10,8.27-3.15,11.93-1.81c3.24,1.19,3.93,3.49,7.36,1.39.5-.31,1-.68,1.8-1.16a6.56,6.56,0,0,1-6.55,4.1c-5.18-.06-8.85-2.83-14.94,4.7s-7,14-4,16.44,8,.66,16.08,3.19S888.82,272.09,896.31,272.46Z" transform="translate(0 0)"/><path class="cls-15" d="M870.27,287.43a7.64,7.64,0,0,1,4.26,7.15A30.54,30.54,0,0,1,873,305.17s.83-6.82.18-11.22A12.88,12.88,0,0,0,870.27,287.43Z" transform="translate(0 0)"/><path class="cls-15" d="M887,292.39s-3.37,1.19-2.1,7.45C884.88,299.83,885.88,294.32,887,292.39Z" transform="translate(0 0)"/><path class="cls-15" d="M923.1,315.68a14.55,14.55,0,0,0,2.12-3.22,7.47,7.47,0,0,0,.63-1.8,2.21,2.21,0,0,0-.44-1.73c-.18-.26-.4-.49-.59-.78a3.24,3.24,0,0,1-.42-.94,3.43,3.43,0,0,1,.09-2,31.57,31.57,0,0,1,1.82-3.5,15.51,15.51,0,0,1,2.47-3.08,14.19,14.19,0,0,1,1.52-1.27,1.24,1.24,0,0,1,1-.3,1.31,1.31,0,0,1,.87.66,8.53,8.53,0,0,1,1.24,3.77,18,18,0,0,1,0,3.95.19.19,0,0,1-.39,0h0a17.45,17.45,0,0,0-.17-3.84,7.87,7.87,0,0,0-1.23-3.44l-.13-.17-.08-.08a.48.48,0,0,0-.2-.08.44.44,0,0,0-.21,0,.84.84,0,0,0-.26.16,13.44,13.44,0,0,0-1.43,1.21,15.38,15.38,0,0,0-2.33,2.94,32,32,0,0,0-1.79,3.34,2.72,2.72,0,0,0-.09,1.6,2.85,2.85,0,0,0,.31.74c.12.21.36.49.55.79a3.34,3.34,0,0,1,.47,1,2.83,2.83,0,0,1,0,1.15,7.55,7.55,0,0,1-.74,1.93,14.91,14.91,0,0,1-2.37,3.2.15.15,0,0,1-.22-.2Z" transform="translate(0 0)"/><path class="cls-15" d="M928,300.43a5.18,5.18,0,0,1,1,1.7,9.25,9.25,0,0,1,.45,1.84,13.75,13.75,0,0,1,.14,1.88c0,.63,0,1.25-.09,1.87a.18.18,0,0,1-.36,0h0c0-.61,0-1.22,0-1.83a13.27,13.27,0,0,0-.21-1.81,8.71,8.71,0,0,0-.49-1.72,4.7,4.7,0,0,0-.87-1.43l0,0a.33.33,0,1,1,.46-.46Z" transform="translate(0 0)"/><path class="cls-19" d="M766.59,490.08s8.84-16.7,13.83-28.34,12.71-33.84,28.93-50L812,442.72l-24,45.4Z" transform="translate(0 0)"/><path class="cls-12" d="M784.43,461.74l-23.85,37.88a16.41,16.41,0,0,0-2.06,12.89l4,15.59a17.89,17.89,0,0,0,11.7,12.28,52.62,52.62,0,0,0,15.58,3.12,6.73,6.73,0,0,0,3.23-.81l11.59-6.09a15.32,15.32,0,0,0,4.75-3.86l14-17.1a11.86,11.86,0,0,0,2.71-7.51v-27Z" transform="translate(0 0)"/><path class="cls-12" d="M994.58,396.37s10.4,34.19,19.81,51.18a526.22,526.22,0,0,1,25.67,53.72c7,17.11,17.75,26,25.35,47.85,5.22,15,5.14,26.9,4.58,32.87a9.06,9.06,0,0,1-3.68,6.46l-11.45,8.4a7.4,7.4,0,0,1-6.1,1.23l-30.61-7.35a10.32,10.32,0,0,1-7.41-6.83c-2.27-6.93-6.28-18.5-9.09-22.93l11.78-21.28L966.2,482.89S952.15,421.09,994.58,396.37Z" transform="translate(0 0)"/><path class="cls-14" d="M778.76,534.23s5.47,8.79,15,1.19,25.2-37.55,31.61-51.1,6.66-43.5,10.22-55.38,12.36-28.52,12.36-28.52,8.32-16.88-5.23-21.63-22.33,18.44-30.42,29-28.76,42.75-35.65,79.49S775.91,528.77,778.76,534.23Z" transform="translate(0 0)"/><path class="cls-14" d="M782.09,539.7" transform="translate(0 0)"/><path class="cls-14" d="M954.3,500.52s15.19,11.31,31.21,36.51,16.51,33.28,42.7,45.27c8.37,3,20.57,4.75,27.67,6.06a8.12,8.12,0,0,0,7.81-2.92l.38-.47a8.1,8.1,0,0,0,1.61-6.75,102.74,102.74,0,0,0-13.24-32.61c-11.5-18.11-31.08-20.8-50.17-39.65s-29.61-29.61-29.61-29.61-13.22-8.13-22.52,6.61C943,494.2,954.3,500.52,954.3,500.52Z" transform="translate(0 0)"/><path class="cls-15" d="M867.72,346.23s16.43-4.23,19.68-5.1,5.08-.58,5.94,1.69c1,2.68.08,4.33-4.62,6-4.45,1.54-14.48,4.15-14.48,4.15Z" transform="translate(0 0)"/><path class="cls-14" d="M848.37,399.21c3.29-6.41,6.79-6,13.79-10.91,4.7-3.27,8.75-6.62,8.75-6.62,3.21-10.13-3.38-18.32-6.19-25.37h0l25.06-7.94a4.31,4.31,0,0,0,3.33-4.29h0c0-1.88-1.35-3.49-3.56-2.92l-32.66,8.69a5.89,5.89,0,0,0-2.22.95L839.26,363a12.54,12.54,0,0,0-4.31,5.24s-6,13.85-10.14,20.13" transform="translate(0 0)"/><path class="cls-15" d="M940.53,454.71l5.4-.31a5.48,5.48,0,0,1,5.06,2.73,30.58,30.58,0,0,0,1.71,2.64c1.87,2.56,7.34,6.91,9,8.25l-8,1.06L940,463.51Z" transform="translate(0 0)"/><path class="cls-13" d="M936.86,374.93c-4.57,7.57-18.81,36.84-10.22,91.56l8,8.79,12.7-11.88S940.57,421,955.26,382a1.46,1.46,0,0,0-1-1.94l-7.14-1.94a7.48,7.48,0,0,1-1.75-.72l-5.57-3.18A2.18,2.18,0,0,0,936.86,374.93Z" transform="translate(0 0)"/><path class="cls-25" d="M929.45,374.62" transform="translate(0 0)"/><path class="cls-14" d="M870.4,382s5-5.24,4.06-9.7-2.23-4.33-2.62-7.34.13-3.8-1.44-5.24-2.51-3-2.36-4.33-1.23-.91-1.23-.91h-7.16l-1.7,8,6,9.7Z" transform="translate(0 0)"/><path class="cls-15" d="M857.95,360.53s1.13-3.37,5.13-2.25C863.07,358.28,859.39,358.53,857.95,360.53Z" transform="translate(0 0)"/><path class="cls-15" d="M856.57,355.63s1.13-3.37,5.13-2.25C861.7,353.38,858,353.63,856.57,355.63Z" transform="translate(0 0)"/><path class="cls-15" d="M859.71,365.85s1.13-3.37,5.13-2.25C864.83,363.6,861.15,363.85,859.71,365.85Z" transform="translate(0 0)"/><path class="cls-15" d="M862.75,372.35a3.19,3.19,0,0,1,4.18-1.83S863.92,370.72,862.75,372.35Z" transform="translate(0 0)"/><path class="cls-16" d="M938.65,492S950,528.21,966,547l.49-11s-17.82-30.23-21.57-46.73Z" transform="translate(0 0)"/><path class="cls-15" d="M963.15,508a182.78,182.78,0,0,1,22.36,29c16,25.2,16.51,33.28,42.7,45.27,8.37,3,20.57,4.75,27.67,6.06a8.12,8.12,0,0,0,7.81-2.92l.38-.47a8.1,8.1,0,0,0,1.61-6.75s-4.33,9.15-14.14,6.09c-10.77-3.36-29.67-6.17-48.33-29.17C985.7,533.57,966.94,510.59,963.15,508Z" transform="translate(0 0)"/><path class="cls-14" d="M923.75,498.63a3.39,3.39,0,0,0,.16,4l1,1.26a3.83,3.83,0,0,0,4.65,1.06c3.75-1.8,10.46-5,14.33-6.62,5.58-2.36,10.39,2.16,10.39,2.16l18.86-23.66c-4.59-4.64-17.42-12.84-22.55-16.69-2.85-2.14-9.54-1.75-11.27-1.83a10,10,0,0,0-1.29,0,103.19,103.19,0,0,0-10.78,1.35c-2.43.59-10.1,3.4-13.34,4.6a2.54,2.54,0,0,0-1.64,2.1l-.31,2.79a2.55,2.55,0,0,0,2.14,2.8l3.18.5a1.29,1.29,0,0,1,.5,2.35l-4.33,2.82a2.74,2.74,0,0,0-1.11,3.15l2,6.12a2.63,2.63,0,0,0,1.93,1.75l2.2.49s1.32.2.65.43l-.82.28a1.78,1.78,0,0,0-1.06,2.36l2,4.9a2.24,2.24,0,0,0,2.41,1.35l1.73-.27s.62-.17.57,0A1.76,1.76,0,0,1,923.75,498.63Z" transform="translate(0 0)"/><path class="cls-24" d="M886.88,287a9.94,9.94,0,0,1,2.62-3.13,8.21,8.21,0,0,1,3.9-1.71,6.92,6.92,0,0,1,4.26.67,8.65,8.65,0,0,1,1.73,1.11,16.92,16.92,0,0,1,1.37,1.41.77.77,0,0,1-1,1.14c-.46-.33-.89-.71-1.35-1a7.91,7.91,0,0,0-1.47-.73,5.25,5.25,0,0,0-3.1-.28,7.07,7.07,0,0,0-2.88,1.37,10.8,10.8,0,0,0-2.26,2.37,1.08,1.08,0,0,1-1.85-1.1Z" transform="translate(0 0)"/><path class="cls-24" d="M858.38,282.89a6.94,6.94,0,0,1,2.48-2.53,5.28,5.28,0,0,1,3.84-.7,6.58,6.58,0,0,1,3.3,1.9c.38.46.72.93,1,1.41a14.71,14.71,0,0,1,.72,1.53l0,.12a.78.78,0,0,1-1.39.71l-.8-1.25c-.31-.38-.63-.75-1-1.1a5.26,5.26,0,0,0-2.38-1.39,3.87,3.87,0,0,0-2.61.42,6.47,6.47,0,0,0-2.11,1.8.74.74,0,0,1-1.23-.81Z" transform="translate(0 0)"/><path class="cls-20" d="M864.62,329.54a38.81,38.81,0,0,1,8-2,30.25,30.25,0,0,1,4.13-.35,39.66,39.66,0,0,1,4.13.23c2.74.28,5.41.8,8.1,1a17.37,17.37,0,0,0,4-.14,6.81,6.81,0,0,0,3.49-1.6h0a.31.31,0,0,1,.42.45,7.47,7.47,0,0,1-3.78,1.85,16.81,16.81,0,0,1-4.15.21c-2.75-.15-5.44-.64-8.13-.89a36.47,36.47,0,0,0-8.07.08,51.88,51.88,0,0,0-7.89,1.68l-.06,0a.25.25,0,0,1-.16-.46Z" transform="translate(0 0)"/><path class="cls-20" d="M894.81,324.65a3.6,3.6,0,0,1,1.78.7,3.44,3.44,0,0,1,1.16,1.58,4.93,4.93,0,0,1,.2,1.9,8,8,0,0,1-.15.92l-.3.87a.26.26,0,0,1-.49-.14h0l.2-.83c0-.28.08-.56.1-.84a4.27,4.27,0,0,0-.23-1.62,3.36,3.36,0,0,0-.93-1.29,3.65,3.65,0,0,0-1.44-.74.26.26,0,0,1,.09-.51Z" transform="translate(0 0)"/></g><path class="cls-15" d="M861.4,354s6.08.93,7.53,2.33a2.36,2.36,0,0,0-2.05-2.73c-2.5-.62-3.35.56-6,0Z" transform="translate(0 0)"/></svg>