<svg id="Calque_1" data-name="Calque 1" xmlns="http://www.w3.org/2000/svg" xmlns:xlink="http://www.w3.org/1999/xlink" viewBox="0 0 1444.15 1170.88"><defs><style>.cls-1{fill:none;}.cls-2{fill:#009bc2;}.cls-3{clip-path:url(#clip-path);}.cls-4{fill:#87d0e2;}.cls-5{fill:#27aacb;}.cls-6{fill:#c3db61;}.cls-7{fill:#abcc21;}.cls-8{fill:#fff;}.cls-9{fill:#7b2f87;}.cls-10{clip-path:url(#clip-path-2);}.cls-11{fill:#463c50;}.cls-12{fill:#2d2d46;}.cls-13{fill:#4b2d32;}.cls-14{fill:#f06335;}.cls-15{fill:#eca680;}.cls-16{fill:#df7f58;}.cls-17{fill:#be4834;}.cls-18{fill:#2ac994;}.cls-19{fill:#2ab794;}.cls-20{fill:#78373c;}.cls-21{fill:#2d281e;}.cls-22{fill:#c62424;}.cls-23{fill:#660808;}.cls-24{clip-path:url(#clip-path-4);}.cls-25{fill:#4b3223;}.cls-26{fill:#047d99;}</style><clipPath id="clip-path" transform="translate(101.6 89.7)"><rect class="cls-1" width="1280" height="860"/></clipPath><clipPath id="clip-path-2" transform="translate(101.6 89.7)"><path class="cls-1" d="M823-89.7h514.36V503.45S1261,495,1194.25,594.69,1073.09,786.62,935,759.18,802.66,599.08,804.57,557.76s20.09-146.7-38.82-193.69-105.36-99.14-43.47-194.4S771.27,53,761.39,27,747.16-43.81,823-89.7Z"/></clipPath><clipPath id="clip-path-4" transform="translate(101.6 89.7)"><path class="cls-1" d="M823-89.7h514.36V503.45S1261,495,1194.25,594.69,1073.09,786.62,935,759.18,802.66,599.08,804.57,557.76,646,654.09,765.75,364.07c28.76-69.66-105.36-99.14-43.47-194.4S771.27,53,761.39,27,747.16-43.81,823-89.7Z"/></clipPath></defs><title>image home</title><path class="cls-2" d="M200.57-2236.77" transform="translate(101.6 89.7)"/><g class="cls-3"><path class="cls-4" d="M823-89.7h514.36V503.45S1261,495,1194.25,594.69,1073.09,786.62,935,759.18,802.66,599.08,804.57,557.76s20.09-146.7-38.82-193.69-105.36-99.14-43.47-194.4S771.27,53,761.39,27,747.16-43.81,823-89.7Z" transform="translate(101.6 89.7)"/><path class="cls-5" d="M830.05,19.07C850.65,72,847.15,106,781,207.8c-12,18.52-16.11,31-17.41,38.23s-.28,11.67.91,14.94c5.71,15.66,27,34.07,44.93,48.37,80.26,64,70.85,179.23,66.33,234.6-.56,6.87-1,12.81-1.24,17-.75,16.13-2.3,49.69,8.35,78.23,7.17,19.23,21.12,42.43,65.76,51.3a172,172,0,0,0,33.21,3.56c27.75,0,49.14-8.7,71.53-29.08,25.3-23,49-58.65,74.13-96.34q4.28-6.42,8.61-12.9c43.23-64.58,92.15-95.31,131.28-109.81,0,0,27.33-7.54,70-4.66v-531h-454C807.32-36.43,830.05,19.07,830.05,19.07Z" transform="translate(101.6 89.7)"/><path class="cls-6" d="M260.55,863.58S384.05,858.35,488.8,773s185.14-102.73,278.95-13.56,179.19,88.25,233,86.35c61.82-2.18,157.7-48.37,209.61-121.95,53.13-75.31,71.21-108.23,132.21-124.23v301Z" transform="translate(101.6 89.7)"/><path class="cls-2" d="M1337.35,363.79V-89.7H996.85c-99.19,51.86-87.46,140-87.46,140,3.13,54.26-16,109.69-60.46,181.1a17.66,17.66,0,0,0,4,23.11l.15.12c109.4,87.28,97.52,232.85,92.45,295-.46,5.69-.81,11.59-1.08,14.58-7.37,80.52,49.3,61.85,61.78,49,17.87-18.37,40.35-49.38,63-83.4q4.32-6.49,8.7-13C1113.53,463.6,1168.41,376.07,1337.35,363.79Z" transform="translate(101.6 89.7)"/><rect class="cls-7" x="1202.52" y="137.4" width="134.59" height="91.33" rx="11.25" ry="11.25"/><rect class="cls-7" x="860.08" y="187.52" width="134.59" height="91.33" rx="11.25" ry="11.25"/><path class="cls-7" d="M271.33,863.19C80.46,857.05,70.48,719-101.6,712l24,151.2Z" transform="translate(101.6 89.7)"/><path class="cls-7" d="M1196.19,206.11l-4-.63c9.34-58.75-13.24-71.53-13.47-71.65l1.88-3.53C1181.7,130.86,1206,144.58,1196.19,206.11Z" transform="translate(101.6 89.7)"/><path class="cls-7" d="M949.07,164.71c-22.19-24.35-68.78-10-69.25-9.84l-1.21-3.81c2-.64,49.49-15.28,73.42,11Z" transform="translate(101.6 89.7)"/><polygon class="cls-8" points="1030.89 508.85 1029.03 506.5 1108.5 443.44 1109.12 443.5 1261.36 460.08 1301.1 393.83 1301.5 393.63 1404.5 344.23 1405.8 346.93 1303.2 396.14 1262.94 463.26 1261.99 463.16 1109.4 446.55 1030.89 508.85"/><circle class="cls-9" cx="1007.36" cy="355.29" r="4.75" transform="translate(45.77 548.13) rotate(-24.97)"/><circle class="cls-9" cx="1160.39" cy="371.67" r="4.75" transform="translate(53.16 614.26) rotate(-24.97)"/><circle class="cls-9" cx="1201.25" cy="305.28" r="4.75" transform="translate(85 625.31) rotate(-24.97)"/><g class="cls-10"><path class="cls-11" d="M1162.72,617s8.22,39.17,5.32,114.6c-.48,13.54-4.84,52.71-5.32,72.05,0,0-21.28,19.83-52.22,16,0,0-3.87-43-14-86.07s-14.67-78.82-4.67-110.25Z" transform="translate(101.6 89.7)"/><path class="cls-12" d="M1124.14,1062.45c-23.69,10.57-27.77-22.8-19-83.25s17.94-92.36,22.3-116.54,11.89-34.57,1.77-84.14c-8.74-42.82-42.57-117.51-37.4-155.22-10,31.43-5.48,67.22,4.67,110.25s14,86.07,14,86.07,3.92,20.81-8.7,59c-15.59,47.15-19.34,121.86-7.74,190.52,0,0,4.84,7.25,29.5,0,0,0,.2-2.43.59-6.7" transform="translate(101.6 89.7)"/><path class="cls-11" d="M1023,804.15s-2.9-75,0-109.77,4.35-60.93,13.54-77.37l87.49,7.29s0,66.21-27,138.74c-7.25,21.76-18.38,37.23-23.21,56.58Z" transform="translate(101.6 89.7)"/><path class="cls-11" d="M1023,804.15s-2.9-75,0-109.77,4.35-60.93,13.54-77.37l87.49,7.29s0,66.21-27,138.74c-7.25,21.76-18.38,37.23-23.21,56.58Z" transform="translate(101.6 89.7)"/><path class="cls-1" d="M1110.74,723.16s8.95-49.89,7.17-79.22l13.38-1.87s1.07,15.2-3.51,41.83a5.61,5.61,0,0,1-1.92,3.33l-11.12,9.31" transform="translate(101.6 89.7)"/><path class="cls-12" d="M1117.94,682.61a86.25,86.25,0,0,0,4.21-18c1.11-9.69,3.17-15.87,7.92-17.45s24.16-6.38,33.63-16.11l-18.74,5-30.9,7.58.16,14.42Z" transform="translate(101.6 89.7)"/><path class="cls-12" d="M1047.46,670.19s1.28-24.21,12.9-22.13,21.2,3.63,31.44,3.93c15.06.45,25.15,10.24,22.89,41.1l6.09-19.58-1.05-33.29-68.52-4.16-5.4,14.36Z" transform="translate(101.6 89.7)"/><path class="cls-13" d="M1030.77,631.69s32.49,15.95,92.45,12.72c19-1.61,34.43-8.94,41.55-14.14,0,0-1.08-8-1.57-10.63l-56.83,7.52-67.69-5.32-4.55,0S1031.62,628.37,1030.77,631.69Z" transform="translate(101.6 89.7)"/><path class="cls-14" d="M1107.78,648.56a2.91,2.91,0,0,1-2.9-3.08l.58-9.37h1.4c.16,0,15.75-.11,25.54-2.49l2-.47-.53,10.64a2.92,2.92,0,0,1-2.65,2.75l-23.14,2Zm.5-9.48-.4,6.47,22.95-2,.33-6.58C1122.84,638.65,1112.1,639,1108.28,639.08Z" transform="translate(101.6 89.7)"/><path class="cls-1" d="M1060.2,630.27a37.61,37.61,0,0,0-2.42,15.75" transform="translate(101.6 89.7)"/><path class="cls-12" d="M1016.78,1064.95c-1.5,6.45-2.61,11.26-3.2,13.85,0,0-20.79,8.7-33.37-7.25,0,0,3.38-108.8,8.7-134.43s13-51.53,20.9-67.76c11.86-24.34,11-55.55,11-55.55s-2.9-75,0-109.77,4.35-60.93,13.54-77.37l51,4.25s-34.21,4.68-37.5,34.07-7.31,84.84-5.62,109.34-1.69,52.8-8.39,79.59S1008,926.46,1003.31,989C995.41,1093.93,1016.78,1064.95,1016.78,1064.95Z" transform="translate(101.6 89.7)"/><path class="cls-15" d="M1237.74,406.3c-1.49-1-2.56.3-4.29,2.38s-6.44,7.71-9.61,10.35c-2.6,2.16-.71-3.13-.7-3.18,1.55-2.78,7.29-12.13,9.13-16.12,1.94-4.18,1.94-7.3,1.11-9.65s-2.28-1.66-3-.28-4.36,8.92-4.91,9.93-6.16,10.27-7.05,12-.76,1.51-1.8,1.24a1.14,1.14,0,0,1-.92-1.08,19.41,19.41,0,0,1,.57-3.28c1-4.22,2.49-11.13,2.9-13.76s1.38-3.67,2-9.41-2.31-5.89-3.53-5.39c-2.46,1-3.73,9.2-4.7,12.66s-2.77,11-3.25,12.66-.83,5.88-3,6a2,2,0,0,1-2.18-2c.07-2.76.47-6.28.52-8.56.07-3.34.69-15.82.48-18.45s-3.73-2.56-4.43.35-3.11,19.78-3.32,23-1.18,5.12-1.59,7.88-3.53,6.55-3.53,6.55l-2.52,19.11c2.59,6.78,15.43,8.44,15.43,8.44s5,.22,8.53-2.77c5.12-4.29,5.36-5,7.21-10.17s5.17-8.58,7.52-11.76,7.23-10,8.23-11.9c.66-1.24,1-1.94,1-1.94S1238.78,407,1237.74,406.3Zm-33.31,3.3a6.7,6.7,0,0,0,0,.78C1204.43,410.13,1204.43,409.87,1204.44,409.6Z" transform="translate(101.6 89.7)"/><path class="cls-16" d="M1198,422.5a19.16,19.16,0,0,1-3.45-5.26,27.59,27.59,0,0,1-2,2.83l-.25,1.89,2.55,5.73,4.93,5.34C1202.2,427.8,1201.26,426.19,1198,422.5Z" transform="translate(101.6 89.7)"/><path class="cls-15" d="M1186.29,404.91a1.22,1.22,0,0,0-.74,1.64,14,14,0,0,1,1.17,6.77c-.53,3.58-2,8.29-1.31,10.7s5.58,7.58,4.66,15.1c0,0,4.88,2.49,8.23-2.94s2.25-10,.21-11.57a17.39,17.39,0,0,1-5.47-9.12c-.83-3.81-.63-6.2-2.78-8.32C1188.54,405.45,1187.74,404.46,1186.29,404.91Z" transform="translate(101.6 89.7)"/><path class="cls-15" d="M1015.55,499.53l9.1,17.71,16.12-6.77s8.31-36.91,8.1-37.72-22.34-27.47-22.34-27.47l-13,26.66Z" transform="translate(101.6 89.7)"/><path class="cls-15" d="M1148.14,535.53a72.47,72.47,0,0,1,11.88-34c11.17-16.51,26.15-44.74,30.13-65.42l18.36,1.84,4.14,7.85a406.18,406.18,0,0,0-17.93,46.79c-7.25,23.59-3.27,49.29-29.42,76.35a16.51,16.51,0,0,1-9.5,4.8l-7.67,1.12S1148.1,543.51,1148.14,535.53Z" transform="translate(101.6 89.7)"/><path class="cls-1" d="M1151.35,627.17a34.08,34.08,0,0,1,1.45,13.06" transform="translate(101.6 89.7)"/><path class="cls-1" d="M1151.35,627.17a34.08,34.08,0,0,1,1.45,13.06" transform="translate(101.6 89.7)"/><path class="cls-17" d="M1114.75,295.88a16.51,16.51,0,0,0,4.51,11.73c5,5.16,14,10.33,9.83,30.95-3.7,18.44.81,23.86,6.93,33.53s11.8,22.27,4.51,35.78c-11.86,22,10.36,22-1.19,56l-39.43-34.06L1062.68,393l-3.06-36.91,8.06-35.78,34-21.12Z" transform="translate(101.6 89.7)"/><path class="cls-15" d="M1148.75,494.85,1160,530l3.57,39.69a22.93,22.93,0,0,1-22.82,0l-22.58-72.73,9.13-22.58Z" transform="translate(101.6 89.7)"/><path class="cls-15" d="M1111.73,418.8s16.66,8,21.82,16.72,9.37,54.83,9.37,54.83l-25.16-29.68Z" transform="translate(101.6 89.7)"/><path class="cls-18" d="M1011,435.68a7,7,0,0,1,4.05-3.46c4.59-1.41,37.65-13.75,45.49-24.94a1.77,1.77,0,0,1,1.4-.78l33.63-.77a1.75,1.75,0,0,1,1.61,1c1.14,2.39,5,8.39,15.93,12.62a4.78,4.78,0,0,1,2.25,1.75c4,5.88,21.3,31.21,27.69,39.87,7.25,9.83,8.06,15.47,7.74,20.47a115,115,0,0,1-4,21.44c-2.26,7.9-3.22,12.73-2.58,17.73s5.8,38,8.54,47.39,12.46,33.66,15.2,50.87a1.71,1.71,0,0,1-.34,1.33c-2.15,2.77-12.61,14-43.72,17.91-34.65,4.39-75.93-5.1-93-13a1.72,1.72,0,0,1-.9-2.11c2.35-7.16,12.57-39.29,13.14-56.26.64-19.18-7.58-31.75-13.86-40.14-1.93-2.58-3.76-5.23-5.43-7.91a2.76,2.76,0,0,1,.92-3.79c3.8-2.36,10.85-8.49,12.48-22,2.26-18.7-8.48-40.87-10.69-47C1023,436.14,1014.49,428.1,1011,435.68Z" transform="translate(101.6 89.7)"/><path class="cls-19" d="M1026.53,445.93c-3.55-9.79-12-17.83-15.56-10.25a7,7,0,0,1,4.05-3.46c4.7-1.44,39.16-14.32,46-25.69l35.73-.82s1.66,5.75,10.31,10.79c0,0,16.06,14.22,3,32.25-11.9,16.44-63.4,9.1-63.4,9.1Z" transform="translate(101.6 89.7)"/><path class="cls-19" d="M1168,619.59s-3,4.86-12.66,9.78c-6.78,3.44-16.85,6.9-31.5,8.76-35.62,4.51-78.26-5.64-94.38-13.7,0,0,13-38.52,13.62-57.71s-7.58-31.75-13.86-40.14a110.58,110.58,0,0,1-6.36-9.44,1,1,0,0,1,.42-1.45c3-1.53,12-7.32,13.92-22.8,2.26-18.7-8.48-40.87-10.69-47-3.55-9.79-12-17.83-15.56-10.25a7,7,0,0,1,4.05-3.46c4.7-1.44,39.16-14.32,46-25.69,0,0-7.77,17.15-19.52,25.33s8.33,15.28,17.47,48.32-16,36.15-5.69,63S1063.6,589,1063.6,602C1063.58,622.17,1101.85,646,1168,619.59Z" transform="translate(101.6 89.7)"/><path class="cls-15" d="M1099.33,409.43c16.19,18,13,29.52,7,35.71a21.2,21.2,0,0,1-15.53,5.94c-28.48-.29-41.52-34-41.93-35,0,0,8.09-4.8,11.46-9.23a85.36,85.36,0,0,0,5.71-21.15c1.45-11.48-3.18-22.27-3.18-22.27l20,3.53,20.27,22c-5.59-.9-5.76,4.59-5.76,4.59s-.25,4.87-.44,8.39a10.61,10.61,0,0,0,1.91,6.84C1099,409,1099.16,409.24,1099.33,409.43Z" transform="translate(101.6 89.7)"/><path class="cls-16" d="M1062.87,363.44l20,3.53,20.27,22c-5.59-.9-5.76,4.59-5.76,4.59S1078.87,386.48,1062.87,363.44Z" transform="translate(101.6 89.7)"/><path class="cls-15" d="M1059.32,364.76a41.94,41.94,0,0,0-8-9.71c-4.59-3.81-10-12.51-9.79-24.12s5.44-31.55,28.89-36.51,35.3,4.47,40.62,10.64a64.57,64.57,0,0,1,9,14.68,12.19,12.19,0,0,1,1,5.39c-.13,3.7-.2,10.72.83,14.27a44.73,44.73,0,0,1,1.93,17.65c-.6,7.74-3.87,17.33-5.08,22.65s-4.59,10-9.91,10.48-26.38-3.65-39.17-12.37a3.59,3.59,0,0,1-1.37-1.81c-.59-1.72-1.73-5.13-2.59-8.38C1064.51,363,1059.32,364.76,1059.32,364.76Z" transform="translate(101.6 89.7)"/><path class="cls-15" d="M1124,350.47" transform="translate(101.6 89.7)"/><path class="cls-16" d="M1109.16,355.87a20,20,0,0,0,8.09-.38,1,1,0,0,0,.68-1l-.22-3.58c0-.37-.38-.48-.58-.33a48,48,0,0,1-8,4.91A.22.22,0,0,0,1109.16,355.87Z" transform="translate(101.6 89.7)"/><path class="cls-1" d="M1110.35,330.5s-1,7.07-.55,8,2.46,4.71,3.65,6.89a31.88,31.88,0,0,0,4.12,5.18" transform="translate(101.6 89.7)"/><line class="cls-1" x1="1100.89" y1="716.87" x2="1125.6" y2="533.6"/><polygon class="cls-13" points="1099.49 708.17 1118.11 569.87 1123.28 579.69 1105.9 708.17 1099.49 708.17"/><path class="cls-13" d="M1022.44,616.91H985l28.38,30.65,25.31,21.05,7.45-15.93.18.35.21-.1L1025.93,753l34.65-5a5.44,5.44,0,0,0,4.52-4.35l17.56-90.92a5.21,5.21,0,0,0-2.64-5.57l-54.66-29.52A6.14,6.14,0,0,0,1022.44,616.91Z" transform="translate(101.6 89.7)"/><path class="cls-20" d="M968.8,710.46c4.21,7.78,19.65,25.13,55.19,42.07a5,5,0,0,0,7.05-3.64l15.82-93.52a6.44,6.44,0,0,0-3.22-6.7l-55.94-31.14a5,5,0,0,0-7.32,3.55l-13.06,80.8A13.5,13.5,0,0,0,968.8,710.46Z" transform="translate(101.6 89.7)"/><path class="cls-13" d="M990.76,680.75a203.71,203.71,0,0,0-8.4,45.33l3.48,3s2.52-26.56,9.15-45.86Z" transform="translate(101.6 89.7)"/><path class="cls-14" d="M995.84,684.42a2.69,2.69,0,0,1-1.34-.36l-4.23-2.44a2.71,2.71,0,0,1-1.26-3l1.66-6.44,1.94.5-1.66,6.44a.7.7,0,0,0,.33.78l4.23,2.44a.7.7,0,0,0,1-.38l1.85-5.38,1.89.65-1.85,5.38a2.7,2.7,0,0,1-2.55,1.82Z" transform="translate(101.6 89.7)"/><path class="cls-13" d="M1046.57,652.14c-5.6,9.76-11.37,19.42-17.09,29.11l-2.34,4-1.17,2a3.54,3.54,0,0,1-1.2,1.36,3.3,3.3,0,0,1-3.39.13l-4-2.28-15.93-9.17-15.83-9.35-4-2.34a5.31,5.31,0,0,1-1.59-1.16,3.22,3.22,0,0,1-.74-1.6,3.27,3.27,0,0,1,0-.88l.14-1.12.3-2.28.6-4.56c1.63-12.15,3.12-24.31,5-36.43l-2-.22a4.94,4.94,0,0,0-2.21,1.78c-.8,11.56-1.78,23.11-3,34.62l-.47,4.57-.23,2.29-.12,1.16a5.24,5.24,0,0,0,.07,1.4,5.55,5.55,0,0,0,1.19,2.52,7.22,7.22,0,0,0,2.08,1.58l3.94,2.36,15.78,9.43,15.71,9.54,4,2.4a5.93,5.93,0,0,0,6.1-.12,6.07,6.07,0,0,0,1.24-1,7.72,7.72,0,0,0,.87-1.2l1.2-2,2.41-3.92,14.24-23.18.71-4.19A6.41,6.41,0,0,0,1046.57,652.14Z" transform="translate(101.6 89.7)"/><path class="cls-20" d="M1049.74,679l23.33-1.69s-2.2,21.92-4.27,30.79-3.46,9.73-3.46,9.73l-22.49,2.28Z" transform="translate(101.6 89.7)"/><path class="cls-13" d="M1054,691.62c-.2,2.73-.52,5.43-.94,8.13s-.94,5.38-1.63,8a41.1,41.1,0,0,1-2.79,7.81,17.31,17.31,0,0,1-2.34,3.59,8.38,8.38,0,0,1-3.73,2.6,1,1,0,1,1-.6-1.91h0a6.48,6.48,0,0,0,2.9-1.93,15.54,15.54,0,0,0,2.19-3.15,39.55,39.55,0,0,0,2.91-7.4c.76-2.57,1.36-5.2,1.86-7.85s.9-5.33,1.19-8h0a.47.47,0,0,1,.94.08Z" transform="translate(101.6 89.7)"/><polygon class="cls-20" points="1169.76 777.3 1175.48 777.3 1174.67 767.38 1168.32 773.97 1169.76 777.3"/><polyline class="cls-1" points="1163.06 778.25 1163.06 780.62 1167.3 780.32 1167.3 777.93"/><path class="cls-13" d="M1050.3,678.43a12.17,12.17,0,0,1,1.7,2.43,15.09,15.09,0,0,1,1.14,2.65,15.55,15.55,0,0,1,.63,2.8,17.6,17.6,0,0,1,.14,2.85h0l-.54-.5,20.47-1.56-.46.54-.81-10.28a.5.5,0,0,1,1-.08l.81,10.28a.5.5,0,0,1-.46.54h0l-20.47,1.56a.5.5,0,0,1-.54-.46v0h0a16.51,16.51,0,0,0-.28-2.65,14.32,14.32,0,0,0-.72-2.55,13.72,13.72,0,0,0-1.17-2.36,10.9,10.9,0,0,0-1.56-2l0,0a.8.8,0,0,1,1.12-1.15Z" transform="translate(101.6 89.7)"/><path class="cls-16" d="M1081.51,572.53c-.27,1.19-.79,1.29-2,2.28-2.18,1.77-18,5.5-18,5.5.13-.33,1.24-5.5,3.9-7.27s6.88-.75,10.6-1.13c1.57-.16,3.35-.4,4.18-.48C1080.17,571.44,1081.79,571.29,1081.51,572.53Z" transform="translate(101.6 89.7)"/><path class="cls-20" d="M1066,681.21l-4.92-.92a569.12,569.12,0,0,0,7.69-94.11c-.15-47.12-7.21-111.62-40-151.33l3.86-3.18c33.72,40.87,41,106.62,41.11,154.59A574.48,574.48,0,0,1,1066,681.21Z" transform="translate(101.6 89.7)"/><path class="cls-16" d="M1011.65,491.37l12,24.15s-5.23-6.51,4.51-40.4a38,38,0,0,0,1.21-9.94l-9.1,6.3Z" transform="translate(101.6 89.7)"/><path class="cls-14" d="M1001.61,444.32s-2.73-16.3-.77-23.63c1.67-6.23,4.23-8.7,8.22-9.91s8.43-2.09,10.28-8.7c1.51-5.42-3.76-10.54-5.68-16-2.06-5.8-.89-15.55,5.8-20.79,9.24-7.24,13-5.81,13.42-17.65.47-12.71-.4-30.22,8.46-42.31,9.31-12.69,17.53-17,23.94-18.38a80.09,80.09,0,0,1,30.59-.12c11.85,2.06,19.34,2.42,20.07,9.79s-4.47,13.66-14.75,19.46-17,13.32-18.44,24.44,6.35,9.41,5.14,32.38-15.59,22.36-12.45,47.15,23.28,47.13-4.12,66.85c-27.19,19.58-40.54-16.92-41.57-29.13-.88-10.41-6.93-23.68-16.22-24.54C1013.53,433.26,1005.84,437.43,1001.61,444.32Z" transform="translate(101.6 89.7)"/><path class="cls-17" d="M1095.87,286.86a80.09,80.09,0,0,0-30.59.12c-6.41,1.33-14.63,5.68-23.94,18.38-8.87,12.09-8,29.61-8.46,42.31-.44,11.84-4.18,10.41-13.42,17.65-6.69,5.24-7.86,15-5.8,20.79,1.92,5.42,7.2,10.53,5.68,16-1.84,6.61-6.29,7.5-10.28,8.7s-6.55,3.68-8.22,9.91c-2,7.34.77,23.63.77,23.63,4.23-6.89,11.92-11.06,11.92-11.06,9.29.86,15.34,14.13,16.22,24.54,1,12.21,14.38,48.72,41.57,29.13,0,0-27.26,1.84-29.76-25s-11.37-32.12-15.87-36.12-4.12-6.62-.37-10.37a25.38,25.38,0,0,0,7.75-16.37c.38-7-8.37-18,1-27s10.13-18.75,9.75-33,1.13-33.37,15.25-42.87S1095.87,286.86,1095.87,286.86Z" transform="translate(101.6 89.7)"/><path class="cls-15" d="M1013.84,432.08c-3.83.89-15.59,10-24.4,36.32-10.32,30.79-33.53,60.45-41.26,77.85s-13.87,25-13.87,25,40.89-10.16,49.9-23.53c12-17.75,25.06-41.06,31.35-48.17s13.86-24.68,14.18-39.19C1030,446.87,1024.37,429.63,1013.84,432.08Z" transform="translate(101.6 89.7)"/><path class="cls-15" d="M1095.69,573.29a3.24,3.24,0,0,0-3.4-2l-25.14,2.93a5.77,5.77,0,0,0-4.71,3.65l-3.63,9.39a3.14,3.14,0,0,1-4.1,1.79c-10.89-4.34-34.89-14.13-47.15-20.83-20.94-11.44-21.28-27.27-53.52-33.06L934.3,571.23,1053.79,610a17,17,0,0,0,7.3.7l15.72-1.92c1.72-.21,3.44-.3,5.17-.39,3.72-.2,4.67-1.42,5.26-3.73l5.58-22a1.08,1.08,0,0,0-1.34-1.31l-8.74,2.46,11.52-6.47A3.24,3.24,0,0,0,1095.69,573.29Z" transform="translate(101.6 89.7)"/><path class="cls-16" d="M1116.1,348.91a5.62,5.62,0,0,1,.73.53,2.14,2.14,0,0,1,.88,1.72l-2.63.84s1.31-.65,1.48-1.45A2.69,2.69,0,0,0,1116.1,348.91Z" transform="translate(101.6 89.7)"/><path class="cls-21" d="M1093.18,339.26a4.89,4.89,0,0,1,1.22-1.5,3.74,3.74,0,0,1,1.85-.84,3,3,0,0,1,2,.47,4.93,4.93,0,0,1,.78.62q.32.37.6.75a.26.26,0,0,1-.38.36l0,0a6.72,6.72,0,0,0-1.38-1,2.37,2.37,0,0,0-1.48-.27,3.23,3.23,0,0,0-1.45.59,7.74,7.74,0,0,0-1.28,1.11v0a.27.27,0,0,1-.43-.31Z" transform="translate(101.6 89.7)"/><path class="cls-21" d="M1113.64,339.17a5.66,5.66,0,0,1,.67-1.44,2.59,2.59,0,0,1,1.33-1.13,1.46,1.46,0,0,1,1,.07,2.24,2.24,0,0,1,.74.54,6.83,6.83,0,0,1,.47.68l.33.72a.29.29,0,0,1-.49.28l0,0a7.81,7.81,0,0,0-.86-1.1,1,1,0,0,0-.93-.35,2,2,0,0,0-.93.77,8.7,8.7,0,0,0-.76,1.2v0a.29.29,0,0,1-.54-.23Z" transform="translate(101.6 89.7)"/><path class="cls-22" d="M1099.18,367.26s1.6,1.19,8,1.37c6,.17,8.75-.66,10-1.32a3.33,3.33,0,0,0,1.08-.71.65.65,0,0,0,0-.79c-.17-.25.94-.31.94-.31l-3-.5-4.71.21-4.13,1.42S1102.54,368.66,1099.18,367.26Z" transform="translate(101.6 89.7)"/><path class="cls-23" d="M1116.84,362.72a3.83,3.83,0,0,0,2.5,2.64s-1.88.19-3,.24-1.08.4-1.62.43-1.69-.21-2.9-.11a24.87,24.87,0,0,0-5,1.06c-1.24.48-5.6,1.79-8.3,0a8.75,8.75,0,0,0,6.39.28,24.8,24.8,0,0,0,7-4.39.38.38,0,0,1,.5,0l1.68,1.37a.63.63,0,0,0,.94-.06c.35-.33,1.37-1.65,1.61-1.66S1116.84,362.72,1116.84,362.72Z" transform="translate(101.6 89.7)"/><path class="cls-23" d="M1119.36,365.5l-2.65.3a3.17,3.17,0,0,0-1.19.26,1.79,1.79,0,0,1-.72.27,4.64,4.64,0,0,1-.71,0,10.29,10.29,0,0,0-2.58,0c-.86.11-1.73.26-2.59.44a17.2,17.2,0,0,0-2.52.74,15.37,15.37,0,0,1-2.63.58,7.73,7.73,0,0,1-5.29-.9.23.23,0,0,1,.25-.39h0a7.43,7.43,0,0,0,4.95.68,14.7,14.7,0,0,0,2.51-.6c.39-.13.81-.32,1.26-.45s.87-.25,1.31-.35c.88-.2,1.75-.37,2.65-.5a8.6,8.6,0,0,1,2.73.14,4.32,4.32,0,0,0,.61.06,1.12,1.12,0,0,0,.5-.22,2.71,2.71,0,0,1,1.42-.31,25.67,25.67,0,0,1,2.65,0h0a.15.15,0,0,1,0,.29Z" transform="translate(101.6 89.7)"/><path class="cls-23" d="M1099.31,365.89a1.77,1.77,0,0,0-.46,1.14,2.53,2.53,0,0,0,.34,1.24.18.18,0,0,1-.29.2l0,0a1.89,1.89,0,0,1-.37-.66,2.16,2.16,0,0,1-.14-.77,1.91,1.91,0,0,1,.68-1.4h0a.19.19,0,0,1,.25.28Z" transform="translate(101.6 89.7)"/><path class="cls-12" d="M1099,367.19" transform="translate(101.6 89.7)"/><path class="cls-16" d="M1154.25,512s-4.88,9.56-6.38,24.31c0,0-.83-18.94,4.46-30.28Z" transform="translate(101.6 89.7)"/><path class="cls-16" d="M984.35,547.49c.14-.21,1.93-3.06,1.93-3.06-6.53-7.37-28-8.49-28-8.49,13.67,2,25.49,12.42,25.49,12.42Z" transform="translate(101.6 89.7)"/><path class="cls-14" d="M1110.85,326.42a9.77,9.77,0,0,1,1.23-3,6.82,6.82,0,0,1,2.36-2.38,4.64,4.64,0,0,1,3.35-.51,3.33,3.33,0,0,1,2.38,2.24.2.2,0,0,1-.37.16h0a2.84,2.84,0,0,0-2.19-1.47,3.5,3.5,0,0,0-2.43.79,7.36,7.36,0,0,0-1.73,2,20.76,20.76,0,0,1-1.63,2.43l-.1.12a.49.49,0,0,1-.86-.41Z" transform="translate(101.6 89.7)"/><path class="cls-14" d="M1101.63,328c-1.33-.88-2.54-1.79-3.77-2.62a23.06,23.06,0,0,0-3.77-2.38,11.5,11.5,0,0,0-4.42-.81,12,12,0,0,0-4.5.89h0a.23.23,0,0,1-.19-.41,14,14,0,0,1,4.65-1.37,13,13,0,0,1,4.92.37,11.76,11.76,0,0,1,4.58,2,9.27,9.27,0,0,1,3,4,.32.32,0,0,1-.47.38Z" transform="translate(101.6 89.7)"/></g><path class="cls-2" d="M260.55,934.08s123.5-5.23,228.25-90.61,185.14-102.73,278.95-13.56,179.19,88.25,233,86.35c61.82-2.18,157.7-48.37,209.61-121.95,53.13-75.31,71.21-108.23,132.21-124.23v301Z" transform="translate(101.6 89.7)"/><path class="cls-8" d="M977.27,311.36l.31-1.19a2.26,2.26,0,0,1,1.44-1.57l.89-.31a8.23,8.23,0,0,0,5.26-5.62c0-.12.06-.25.09-.38a8.34,8.34,0,0,0-5.53-9.68l-.49-.14a8.32,8.32,0,0,0-10.16,6h0a1,1,0,0,0,.7,1.19l3.28.86a1,1,0,0,0,1.19-.7h0a3,3,0,0,1,5.78,1.38l0,.14a2.89,2.89,0,0,1-1.86,2l-3.77,1.32a4.11,4.11,0,0,0-2.62,2.84l-.61,2.36a.92.92,0,0,0,.66,1.12l4.35,1.13A.92.92,0,0,0,977.27,311.36Z" transform="translate(101.6 89.7)"/><circle class="cls-9" cx="1074.33" cy="405.93" r="3.14"/><path class="cls-8" d="M992,293.66a1,1,0,0,1-.5-1.86,8,8,0,0,1,2.28-.94,7.09,7.09,0,0,0,3.31-1.93,9.1,9.1,0,0,1,4.23-2.46,6.11,6.11,0,0,0,1.79-.74,1,1,0,1,1,1,1.73,8.06,8.06,0,0,1-2.28.94,7.1,7.1,0,0,0-3.31,1.93,9.06,9.06,0,0,1-4.23,2.46,6.07,6.07,0,0,0-1.78.74A1,1,0,0,1,992,293.66Z" transform="translate(101.6 89.7)"/><path class="cls-8" d="M950.3,317.95a1,1,0,0,1-.5-1.86,8,8,0,0,1,2.28-.94,7.08,7.08,0,0,0,3.31-1.93,9.07,9.07,0,0,1,4.23-2.46,6.12,6.12,0,0,0,1.79-.74,1,1,0,0,1,1,1.73,8,8,0,0,1-2.28.94,7.1,7.1,0,0,0-3.31,1.93,9,9,0,0,1-4.23,2.46,6.07,6.07,0,0,0-1.79.74A1,1,0,0,1,950.3,317.95Z" transform="translate(101.6 89.7)"/><path class="cls-8" d="M992.36,329.83a1,1,0,0,1-.87-.5,8,8,0,0,1-.94-2.28,7.1,7.1,0,0,0-1.93-3.31,9.05,9.05,0,0,1-2.46-4.22,6.05,6.05,0,0,0-.74-1.79,1,1,0,1,1,1.73-1,8,8,0,0,1,.94,2.28,7.07,7.07,0,0,0,1.93,3.31,9.08,9.08,0,0,1,2.46,4.23,6.12,6.12,0,0,0,.74,1.79,1,1,0,0,1-.86,1.5Z" transform="translate(101.6 89.7)"/><path class="cls-8" d="M968.08,288.16a1,1,0,0,1-.87-.5,8.06,8.06,0,0,1-.94-2.28,7.1,7.1,0,0,0-1.93-3.31,9.07,9.07,0,0,1-2.46-4.23,6.06,6.06,0,0,0-.74-1.79,1,1,0,0,1,1.73-1,8,8,0,0,1,.94,2.28,7.09,7.09,0,0,0,1.93,3.31,9.09,9.09,0,0,1,2.46,4.23,6.11,6.11,0,0,0,.74,1.79,1,1,0,0,1-.86,1.5Z" transform="translate(101.6 89.7)"/><path class="cls-8" d="M995.45,308.43l-.13,0-6.42-1.69a.5.5,0,1,1,.25-1l6.42,1.69a.5.5,0,0,1-.13,1Z" transform="translate(101.6 89.7)"/><path class="cls-8" d="M969.79,328.88l-.13,0a.5.5,0,0,1-.36-.61l1.48-5.61a.5.5,0,1,1,1,.25l-1.48,5.61A.5.5,0,0,1,969.79,328.88Z" transform="translate(101.6 89.7)"/><path class="cls-8" d="M962.74,299.81l-.13,0-6.42-1.69a.5.5,0,0,1,.26-1l6.42,1.69a.5.5,0,0,1-.13,1Z" transform="translate(101.6 89.7)"/><path class="cls-8" d="M980.46,287.72h-.1a.5.5,0,0,1-.39-.59l1.33-6.5a.5.5,0,1,1,1,.2l-1.33,6.5A.5.5,0,0,1,980.46,287.72Z" transform="translate(101.6 89.7)"/><rect class="cls-9" x="1063.57" y="237.86" width="10.36" height="10.36" rx="5.18" ry="5.18" transform="translate(173.89 -123.73) rotate(11.8)"/><path class="cls-8" d="M1075.78,234.74l.41-2a3.7,3.7,0,0,1,2.23-2.67l1.43-.58a13.46,13.46,0,0,0,8.15-9.61c0-.2.08-.41.12-.63a13.64,13.64,0,0,0-9.82-15.38l-.82-.2a13.62,13.62,0,0,0-16.13,10.54h0a1.6,1.6,0,0,0,1.24,1.89l5.44,1.14a1.6,1.6,0,0,0,1.89-1.24h0a4.87,4.87,0,0,1,9.56,1.79l0,.23a4.73,4.73,0,0,1-2.88,3.35l-6.06,2.45a6.72,6.72,0,0,0-4.06,4.86l-.82,3.91a1.51,1.51,0,0,0,1.17,1.78l7.19,1.5A1.51,1.51,0,0,0,1075.78,234.74Z" transform="translate(101.6 89.7)"/><path class="cls-8" d="M1098.42,204.14a1,1,0,0,1-.55-1.84,19.38,19.38,0,0,1,3.3-1.77,20.3,20.3,0,0,0,5.7-3.71,22.36,22.36,0,0,1,6.26-4.07,17.44,17.44,0,0,0,3-1.62,1,1,0,1,1,1.09,1.68,19.29,19.29,0,0,1-3.3,1.77,20.36,20.36,0,0,0-5.71,3.71,22.41,22.41,0,0,1-6.26,4.07,17.5,17.5,0,0,0-3,1.61A1,1,0,0,1,1098.42,204.14Z" transform="translate(101.6 89.7)"/><path class="cls-8" d="M1032.25,247.17a1,1,0,0,1-.55-1.84,19.38,19.38,0,0,1,3.3-1.77,20.34,20.34,0,0,0,5.71-3.71,22.4,22.4,0,0,1,6.26-4.07,17.44,17.44,0,0,0,3-1.62,1,1,0,0,1,1.09,1.68,19.48,19.48,0,0,1-3.3,1.77,20.38,20.38,0,0,0-5.71,3.71,22.37,22.37,0,0,1-6.26,4.07,17.5,17.5,0,0,0-3,1.61A1,1,0,0,1,1032.25,247.17Z" transform="translate(101.6 89.7)"/><path class="cls-8" d="M1102.07,263a1,1,0,0,1-.84-.46,19.45,19.45,0,0,1-1.77-3.3,20.34,20.34,0,0,0-3.71-5.71,22.38,22.38,0,0,1-4.07-6.26,17.45,17.45,0,0,0-1.61-3,1,1,0,0,1,1.68-1.09,19.32,19.32,0,0,1,1.77,3.3,20.35,20.35,0,0,0,3.71,5.71,22.38,22.38,0,0,1,4.07,6.26,17.44,17.44,0,0,0,1.62,3,1,1,0,0,1-.84,1.54Z" transform="translate(101.6 89.7)"/><path class="cls-8" d="M1059,196.8a1,1,0,0,1-.84-.46,19.48,19.48,0,0,1-1.77-3.3,20.36,20.36,0,0,0-3.71-5.71,22.36,22.36,0,0,1-4.07-6.26,17.47,17.47,0,0,0-1.61-3,1,1,0,0,1,1.68-1.09,19.38,19.38,0,0,1,1.77,3.3,20.38,20.38,0,0,0,3.71,5.71,22.4,22.4,0,0,1,4.07,6.26,17.44,17.44,0,0,0,1.62,3,1,1,0,0,1-.84,1.54Z" transform="translate(101.6 89.7)"/><path class="cls-8" d="M1105.29,228.17h-.1l-10.62-2.25a.5.5,0,0,1-.39-.59.51.51,0,0,1,.59-.39l10.62,2.25a.5.5,0,0,1-.1,1Z" transform="translate(101.6 89.7)"/><path class="cls-8" d="M1065,263.64h-.1a.5.5,0,0,1-.39-.59l2-9.29a.51.51,0,0,1,.59-.39.5.5,0,0,1,.39.59l-2,9.29A.5.5,0,0,1,1065,263.64Z" transform="translate(101.6 89.7)"/><path class="cls-8" d="M1051.07,216.69h-.1l-10.62-2.25a.5.5,0,0,1-.39-.59.51.51,0,0,1,.59-.39l10.62,2.25a.5.5,0,0,1-.1,1Z" transform="translate(101.6 89.7)"/><path class="cls-8" d="M1079.07,195.52H1079a.5.5,0,0,1-.42-.57l1.66-10.73a.5.5,0,1,1,1,.15l-1.66,10.73A.5.5,0,0,1,1079.07,195.52Z" transform="translate(101.6 89.7)"/><path class="cls-8" d="M999.57,92.39l-.64-2.71a5.12,5.12,0,0,1,1.23-4.66l1.45-1.56a18.63,18.63,0,0,0,4.56-16.83c-.06-.28-.13-.56-.22-.86a18.89,18.89,0,0,0-21.34-13.5q-.57.1-1.14.23a18.85,18.85,0,0,0-14,22.69h0a2.21,2.21,0,0,0,2.67,1.64l7.48-1.77a2.21,2.21,0,0,0,1.64-2.67h0a6.74,6.74,0,0,1,13-3.37q0,.15.08.31a6.55,6.55,0,0,1-1.64,5.89l-6.15,6.63a9.31,9.31,0,0,0-2.23,8.47l1.27,5.37a2.08,2.08,0,0,0,2.51,1.55L998,94.9A2.08,2.08,0,0,0,999.57,92.39Z" transform="translate(101.6 89.7)"/><circle class="cls-9" cx="1097.23" cy="196.64" r="7.17"/><path class="cls-8" d="M1009.47,40.55a1,1,0,0,1-.85-1.53,36.24,36.24,0,0,1,2.93-4.13,34,34,0,0,0,2.79-3.94,34.11,34.11,0,0,0,2.29-4.25,36.18,36.18,0,0,1,2.41-4.46A36.27,36.27,0,0,1,1022,18.1a34.1,34.1,0,0,0,2.79-3.94,1,1,0,0,1,1.7,1.05,36,36,0,0,1-2.93,4.14,34.11,34.11,0,0,0-2.79,3.94,34.11,34.11,0,0,0-2.29,4.25A36.18,36.18,0,0,1,1016,32a36.24,36.24,0,0,1-2.93,4.13,34,34,0,0,0-2.79,3.94A1,1,0,0,1,1009.47,40.55Z" transform="translate(101.6 89.7)"/><path class="cls-8" d="M951.82,133.37a1,1,0,0,1-.85-1.53,36,36,0,0,1,2.93-4.14,39.78,39.78,0,0,0,5.08-8.19,41.95,41.95,0,0,1,5.34-8.6,34.1,34.1,0,0,0,2.79-3.94,1,1,0,0,1,1.7,1.05,36,36,0,0,1-2.93,4.14,39.87,39.87,0,0,0-5.09,8.19,41.84,41.84,0,0,1-5.34,8.59,34,34,0,0,0-2.79,3.94A1,1,0,0,1,951.82,133.37Z" transform="translate(101.6 89.7)"/><path class="cls-8" d="M1048.5,112a1,1,0,0,1-.53-.15,36,36,0,0,1-4.14-2.93,39.87,39.87,0,0,0-8.19-5.09,41.88,41.88,0,0,1-8.6-5.34,34,34,0,0,0-3.94-2.79,1,1,0,0,1,1.05-1.7,36.08,36.08,0,0,1,4.13,2.93,39.81,39.81,0,0,0,8.19,5.08,41.95,41.95,0,0,1,8.6,5.34,34.1,34.1,0,0,0,3.94,2.79,1,1,0,0,1-.53,1.85Z" transform="translate(101.6 89.7)"/><path class="cls-8" d="M955.68,54.36a1,1,0,0,1-.53-.15A36,36,0,0,1,951,51.28a39.9,39.9,0,0,0-8.19-5.09,36.25,36.25,0,0,1-4.46-2.41,36,36,0,0,1-4.13-2.93,34.11,34.11,0,0,0-3.94-2.79,1,1,0,0,1,1.05-1.7,36,36,0,0,1,4.14,2.93,34.06,34.06,0,0,0,3.94,2.79,34,34,0,0,0,4.25,2.29,41.95,41.95,0,0,1,8.6,5.34,34.1,34.1,0,0,0,3.94,2.79,1,1,0,0,1-.53,1.85Z" transform="translate(101.6 89.7)"/><path class="cls-8" d="M1017.68,70.15a.5.5,0,0,1-.11-1l14.63-3.42a.5.5,0,0,1,.23,1l-14.63,3.42Z" transform="translate(101.6 89.7)"/><path class="cls-8" d="M1002.64,134.87a.5.5,0,0,1-.49-.39l-3-12.81a.5.5,0,0,1,1-.23l3,12.81a.5.5,0,0,1-.37.6Z" transform="translate(101.6 89.7)"/><path class="cls-8" d="M943.05,87.59a.5.5,0,0,1-.11-1l14.63-3.42a.5.5,0,0,1,.6.37.5.5,0,0,1-.37.6l-14.63,3.42Z" transform="translate(101.6 89.7)"/><path class="cls-8" d="M980.35,41.18a.5.5,0,0,1-.48-.36l-4.22-14.43a.5.5,0,0,1,1-.28l4.22,14.43a.5.5,0,0,1-.34.62Z" transform="translate(101.6 89.7)"/><path class="cls-8" d="M1187.55,95.88a2.84,2.84,0,1,0,2.84,2.84A2.84,2.84,0,0,0,1187.55,95.88Zm0,4.47a1.64,1.64,0,1,1,1.64-1.64A1.64,1.64,0,0,1,1187.55,100.35Z" transform="translate(101.6 89.7)"/><path class="cls-8" d="M1206.35,95.88a2.84,2.84,0,1,0,2.84,2.84A2.84,2.84,0,0,0,1206.35,95.88Zm0,4.47a1.64,1.64,0,1,1,1.64-1.64A1.63,1.63,0,0,1,1206.35,100.35Z" transform="translate(101.6 89.7)"/><path class="cls-8" d="M1180.77,96.21H1179l1,1.37h1a2.65,2.65,0,0,1-.21-1Z" transform="translate(101.6 89.7)"/><path class="cls-8" d="M1212.61,91.27h-5.39s-4-6.11-5.51-6.11h-14.34c-1.1,0-2.07.39-4.61,6.22h0a2.18,2.18,0,0,0-1.51,2.07v3.09a2.18,2.18,0,0,0,2.18,2.18h.79a3.33,3.33,0,1,1,6.65,0H1203a3.33,3.33,0,0,1,6.65,0h2.94a2.18,2.18,0,0,0,2.18-2.18V93.45A2.18,2.18,0,0,0,1212.61,91.27Zm-17.43-5.39h5.33c1,0,4.77,5.34,4.77,5.34l-10.1,0Zm-7.12,0h6.12v5.38h-10C1186.12,86.23,1187.08,85.89,1188.06,85.89Z" transform="translate(101.6 89.7)"/><path class="cls-8" d="M1113.21,85.22V89.5h-.77V78.89h2.74a4.21,4.21,0,0,1,2.82.82,2.91,2.91,0,0,1,.95,2.33,3.15,3.15,0,0,1-.26,1.28,2.87,2.87,0,0,1-.75,1,3.49,3.49,0,0,1-1.19.66,4.88,4.88,0,0,1-1.58.24Zm0-.61h2a3.79,3.79,0,0,0,1.26-.2,2.76,2.76,0,0,0,.94-.54,2.34,2.34,0,0,0,.59-.81,2.51,2.51,0,0,0,.21-1,2.37,2.37,0,0,0-.75-1.88,3.32,3.32,0,0,0-2.25-.66h-2Z" transform="translate(101.6 89.7)"/><path class="cls-8" d="M1128.23,89.5h-.59a.26.26,0,0,1-.17-.06.38.38,0,0,1-.11-.15l-1.25-3.08h-5.21l-1.25,3.08a.32.32,0,0,1-.1.14.28.28,0,0,1-.18.06h-.58l4.34-10.61h.76Zm-7.1-3.86h4.75l-2.17-5.36c0-.08-.07-.18-.11-.29l-.1-.34-.11.34-.1.3Z" transform="translate(101.6 89.7)"/><path class="cls-8" d="M1135,80.18a.21.21,0,0,1-.2.13.43.43,0,0,1-.25-.14,3.48,3.48,0,0,0-.42-.31,3.3,3.3,0,0,0-.66-.31,3.31,3.31,0,0,0-2,0,2.13,2.13,0,0,0-.74.45,1.91,1.91,0,0,0-.45.66,2.06,2.06,0,0,0-.15.79,1.61,1.61,0,0,0,.23.89,2.07,2.07,0,0,0,.61.6,3.89,3.89,0,0,0,.85.42l1,.33q.5.17,1,.36a3.56,3.56,0,0,1,.85.5,2.3,2.3,0,0,1,.6.74,2.34,2.34,0,0,1,.23,1.09,3.44,3.44,0,0,1-.23,1.26,2.94,2.94,0,0,1-.66,1,3.13,3.13,0,0,1-1.07.69,3.88,3.88,0,0,1-1.44.25,4.07,4.07,0,0,1-1.81-.37,4.26,4.26,0,0,1-1.33-1l.21-.33a.26.26,0,0,1,.21-.11.3.3,0,0,1,.17.09l.26.22.36.29a2.91,2.91,0,0,0,.49.28,3.33,3.33,0,0,0,1.46.31,3.1,3.1,0,0,0,1.13-.19,2.44,2.44,0,0,0,.84-.52,2.2,2.2,0,0,0,.52-.78,2.61,2.61,0,0,0,.18-1,1.7,1.7,0,0,0-.23-.93,2,2,0,0,0-.6-.61,3.88,3.88,0,0,0-.85-.41l-1-.32q-.5-.16-1-.35a3.35,3.35,0,0,1-.85-.5,2.28,2.28,0,0,1-.6-.76,2.5,2.5,0,0,1-.23-1.14,2.68,2.68,0,0,1,.2-1,2.55,2.55,0,0,1,.59-.87,2.92,2.92,0,0,1,1-.61,3.52,3.52,0,0,1,1.31-.23A4,4,0,0,1,1134,79a3.56,3.56,0,0,1,1.2.8Z" transform="translate(101.6 89.7)"/><path class="cls-8" d="M1142.88,80.18a.21.21,0,0,1-.2.13.43.43,0,0,1-.25-.14,3.48,3.48,0,0,0-.42-.31,3.3,3.3,0,0,0-.66-.31,3.31,3.31,0,0,0-2,0,2.13,2.13,0,0,0-.74.45,1.91,1.91,0,0,0-.45.66,2.06,2.06,0,0,0-.15.79,1.61,1.61,0,0,0,.23.89,2.07,2.07,0,0,0,.61.6,3.89,3.89,0,0,0,.85.42l1,.33q.5.17,1,.36a3.56,3.56,0,0,1,.85.5,2.3,2.3,0,0,1,.6.74,2.34,2.34,0,0,1,.23,1.09,3.44,3.44,0,0,1-.23,1.26,2.94,2.94,0,0,1-.66,1,3.13,3.13,0,0,1-1.07.69,3.88,3.88,0,0,1-1.44.25,4.07,4.07,0,0,1-1.81-.37,4.26,4.26,0,0,1-1.33-1l.21-.33a.26.26,0,0,1,.21-.11.3.3,0,0,1,.17.09l.26.22.36.29a2.91,2.91,0,0,0,.49.28A3.33,3.33,0,0,0,1140,89a3.1,3.1,0,0,0,1.13-.19,2.44,2.44,0,0,0,.84-.52,2.2,2.2,0,0,0,.52-.78,2.61,2.61,0,0,0,.18-1,1.7,1.7,0,0,0-.23-.93,2,2,0,0,0-.6-.61,3.88,3.88,0,0,0-.85-.41l-1-.32q-.5-.16-1-.35a3.35,3.35,0,0,1-.85-.5,2.28,2.28,0,0,1-.6-.76,2.5,2.5,0,0,1-.23-1.14,2.68,2.68,0,0,1,.2-1,2.55,2.55,0,0,1,.59-.87,2.92,2.92,0,0,1,1-.61,3.52,3.52,0,0,1,1.31-.23,4,4,0,0,1,1.48.26,3.56,3.56,0,0,1,1.2.8Z" transform="translate(101.6 89.7)"/><path class="cls-8" d="M1114.08,103.85v3.65h-2.53V96.57h3.85a6.34,6.34,0,0,1,2,.27,3.82,3.82,0,0,1,1.37.75,2.94,2.94,0,0,1,.79,1.13,3.85,3.85,0,0,1,.26,1.41,4.15,4.15,0,0,1-.26,1.5,3,3,0,0,1-.8,1.17,3.78,3.78,0,0,1-1.37.76,6.29,6.29,0,0,1-2,.27Zm0-1.91h1.32a1.61,1.61,0,0,0,1.86-1.79,2,2,0,0,0-.11-.68,1.39,1.39,0,0,0-.34-.53,1.53,1.53,0,0,0-.58-.34,2.55,2.55,0,0,0-.83-.12h-1.32Z" transform="translate(101.6 89.7)"/><path class="cls-8" d="M1128.15,96.57v2h-4.48v2.55h3.43v1.88h-3.43v2.6h4.48v2h-7V96.57Z" transform="translate(101.6 89.7)"/><path class="cls-8" d="M1132.13,103.46v4h-2.53V96.57h3.55a7.31,7.31,0,0,1,2,.24,3.78,3.78,0,0,1,1.36.68,2.58,2.58,0,0,1,.77,1,3.6,3.6,0,0,1,.1,2.29,3,3,0,0,1-.42.87,3.28,3.28,0,0,1-.69.72,3.65,3.65,0,0,1-.94.52,2.39,2.39,0,0,1,.48.32,1.86,1.86,0,0,1,.39.46l2.33,3.8h-2.29a1,1,0,0,1-.92-.48l-1.81-3.17a.76.76,0,0,0-.28-.3.94.94,0,0,0-.45-.09Zm0-1.75h1a2.62,2.62,0,0,0,.88-.13,1.59,1.59,0,0,0,.6-.36,1.37,1.37,0,0,0,.34-.54,2.07,2.07,0,0,0,.11-.67,1.41,1.41,0,0,0-.47-1.12,2.18,2.18,0,0,0-1.45-.41h-1Z" transform="translate(101.6 89.7)"/><path class="cls-8" d="M1145.44,103.1c.09.21.18.42.27.63q.13-.33.27-.64t.29-.6l2.8-5.53a.92.92,0,0,1,.15-.22.51.51,0,0,1,.18-.12.62.62,0,0,1,.22,0h2.22V107.5h-2.23v-6.29q0-.46,0-1l-2.9,5.62a1,1,0,0,1-.36.4,1,1,0,0,1-.52.13h-.34a1,1,0,0,1-.52-.13,1,1,0,0,1-.36-.4l-2.91-5.62c0,.17,0,.35,0,.52s0,.33,0,.48v6.29h-2.23V96.58h2.22a.62.62,0,0,1,.22,0,.51.51,0,0,1,.18.12.89.89,0,0,1,.15.22l2.81,5.55C1145.25,102.69,1145.35,102.89,1145.44,103.1Z" transform="translate(101.6 89.7)"/><path class="cls-8" d="M1156.42,107.5h-2.55V96.57h2.55Z" transform="translate(101.6 89.7)"/><path class="cls-8" d="M776.46,115.94V105.33h3.05a6.05,6.05,0,0,1,1.57.18,3,3,0,0,1,1.1.53,2.16,2.16,0,0,1,.65.85A2.89,2.89,0,0,1,783,108a2.28,2.28,0,0,1-.15.81,2.44,2.44,0,0,1-.42.72,2.7,2.7,0,0,1-.68.57,3.26,3.26,0,0,1-.92.37,3.46,3.46,0,0,1,1.93.83,2.25,2.25,0,0,1,.67,1.7,3,3,0,0,1-.24,1.21,2.45,2.45,0,0,1-.7.92,3.17,3.17,0,0,1-1.12.57,5.29,5.29,0,0,1-1.51.2Zm.76-5.65h2.3a3.72,3.72,0,0,0,1.26-.19,2.49,2.49,0,0,0,.86-.5,1.93,1.93,0,0,0,.49-.7,2.13,2.13,0,0,0,.16-.8,2,2,0,0,0-.68-1.62,3.3,3.3,0,0,0-2.1-.55h-2.29Zm0,.56v4.47h2.66a3.2,3.2,0,0,0,2.11-.6,2.1,2.1,0,0,0,.71-1.7,2.07,2.07,0,0,0-.19-.9,1.89,1.89,0,0,0-.55-.68,2.56,2.56,0,0,0-.89-.43,4.32,4.32,0,0,0-1.19-.15Z" transform="translate(101.6 89.7)"/><path class="cls-8" d="M794.06,115.94h-.59a.26.26,0,0,1-.17-.06.38.38,0,0,1-.11-.15l-1.25-3.08h-5.21l-1.25,3.08a.32.32,0,0,1-.1.14.28.28,0,0,1-.18.06h-.58L789,105.33h.76Zm-7.1-3.86h4.75l-2.17-5.36c0-.08-.07-.18-.11-.29l-.1-.34-.11.34-.1.3Z" transform="translate(101.6 89.7)"/><path class="cls-8" d="M803.23,114.16a.17.17,0,0,1,.13.05l.3.32a5,5,0,0,1-.72.63,4.48,4.48,0,0,1-.85.48,5.1,5.1,0,0,1-1,.31,6.29,6.29,0,0,1-1.21.11,5.16,5.16,0,0,1-2-.39,4.48,4.48,0,0,1-1.58-1.09,5,5,0,0,1-1-1.71,6.46,6.46,0,0,1-.37-2.23,6.18,6.18,0,0,1,.38-2.21,5,5,0,0,1,1.07-1.71A4.75,4.75,0,0,1,798,105.6a5.49,5.49,0,0,1,2.11-.39,6,6,0,0,1,1.06.09,4.86,4.86,0,0,1,.9.25,4.21,4.21,0,0,1,.78.4,6,6,0,0,1,.72.55l-.23.34a.21.21,0,0,1-.19.09.32.32,0,0,1-.17-.08l-.27-.2-.39-.25a3.25,3.25,0,0,0-.54-.25,4.72,4.72,0,0,0-.73-.2,5.1,5.1,0,0,0-.94-.08,4.62,4.62,0,0,0-1.78.33,4,4,0,0,0-1.39,1,4.35,4.35,0,0,0-.91,1.5,5.65,5.65,0,0,0-.33,2,5.85,5.85,0,0,0,.32,2,4.34,4.34,0,0,0,.89,1.5,3.88,3.88,0,0,0,1.35.94,4.3,4.3,0,0,0,1.68.33,6.19,6.19,0,0,0,1-.08,4,4,0,0,0,.82-.22,3.76,3.76,0,0,0,.7-.37,5.24,5.24,0,0,0,.64-.51l.07,0Z" transform="translate(101.6 89.7)"/><path class="cls-8" d="M812.48,107.14v3.08h2.92v1.37h-2.92v3.09H811v-3.09h-2.9v-1.37H811v-3.08Z" transform="translate(101.6 89.7)"/><path class="cls-8" d="M823.51,105.88a.86.86,0,0,1-.25.65,1.16,1.16,0,0,1-.84.25h-3L819,109a6.79,6.79,0,0,1,1.34-.15,4.09,4.09,0,0,1,1.5.25,3.1,3.1,0,0,1,1.09.71,3,3,0,0,1,.67,1.05,3.69,3.69,0,0,1,.23,1.3,4,4,0,0,1-.3,1.58,3.57,3.57,0,0,1-.84,1.22,3.8,3.8,0,0,1-1.28.78,4.55,4.55,0,0,1-1.61.28,4.3,4.3,0,0,1-1-.11,4.7,4.7,0,0,1-.86-.28,4.77,4.77,0,0,1-.74-.4,4.67,4.67,0,0,1-.61-.48l.57-.79a.56.56,0,0,1,.48-.25.71.71,0,0,1,.38.12l.45.26a3.83,3.83,0,0,0,.59.26,2.46,2.46,0,0,0,.82.12,2.28,2.28,0,0,0,.9-.17,1.74,1.74,0,0,0,.65-.46,2,2,0,0,0,.39-.71,2.91,2.91,0,0,0,.13-.89,1.84,1.84,0,0,0-.51-1.38,2.09,2.09,0,0,0-1.51-.5,4.66,4.66,0,0,0-1.58.29l-1.16-.33.9-5.26h5.36Z" transform="translate(101.6 89.7)"/><path class="cls-8" d="M774.72,168.19V157.58h3.05a6.05,6.05,0,0,1,1.57.18,3,3,0,0,1,1.1.53,2.17,2.17,0,0,1,.65.85,2.89,2.89,0,0,1,.21,1.14,2.28,2.28,0,0,1-.15.81,2.44,2.44,0,0,1-.42.72,2.67,2.67,0,0,1-.68.57,3.27,3.27,0,0,1-.92.37,3.45,3.45,0,0,1,1.93.83,2.24,2.24,0,0,1,.68,1.7,3,3,0,0,1-.24,1.21,2.46,2.46,0,0,1-.7.92,3.17,3.17,0,0,1-1.12.57,5.31,5.31,0,0,1-1.52.2Zm.76-5.65h2.3a3.72,3.72,0,0,0,1.26-.19,2.49,2.49,0,0,0,.86-.5,1.93,1.93,0,0,0,.49-.7,2.15,2.15,0,0,0,.16-.8,2,2,0,0,0-.68-1.62,3.3,3.3,0,0,0-2.1-.55h-2.29Zm0,.56v4.47h2.66a3.2,3.2,0,0,0,2.11-.6,2.1,2.1,0,0,0,.71-1.7,2.06,2.06,0,0,0-.19-.9,1.88,1.88,0,0,0-.55-.68,2.56,2.56,0,0,0-.88-.43,4.32,4.32,0,0,0-1.19-.15Z" transform="translate(101.6 89.7)"/><path class="cls-8" d="M792.32,168.19h-.59a.26.26,0,0,1-.17-.06.38.38,0,0,1-.11-.15l-1.25-3.08H785L783.74,168a.33.33,0,0,1-.1.14.28.28,0,0,1-.18.06h-.58l4.34-10.61H788Zm-7.1-3.86H790L787.81,159c0-.08-.07-.18-.11-.29l-.11-.34-.11.34-.1.3Z" transform="translate(101.6 89.7)"/><path class="cls-8" d="M801.49,166.41a.17.17,0,0,1,.13.05l.3.32a5,5,0,0,1-.72.63,4.46,4.46,0,0,1-.85.48,5.07,5.07,0,0,1-1,.31,6.29,6.29,0,0,1-1.21.11,5.15,5.15,0,0,1-2-.39,4.47,4.47,0,0,1-1.58-1.09,5,5,0,0,1-1-1.71,6.49,6.49,0,0,1-.37-2.23,6.18,6.18,0,0,1,.38-2.21,5,5,0,0,1,1.06-1.71,4.75,4.75,0,0,1,1.64-1.11,5.49,5.49,0,0,1,2.11-.39,6,6,0,0,1,1.06.09,4.86,4.86,0,0,1,.9.25,4.25,4.25,0,0,1,.79.4,6,6,0,0,1,.72.55l-.23.34a.21.21,0,0,1-.19.09.32.32,0,0,1-.17-.08l-.27-.2-.39-.25a3.29,3.29,0,0,0-.54-.25,4.7,4.7,0,0,0-.73-.2,5.1,5.1,0,0,0-.94-.08,4.62,4.62,0,0,0-1.78.33,3.94,3.94,0,0,0-1.39,1,4.35,4.35,0,0,0-.91,1.5,5.68,5.68,0,0,0-.33,2,5.85,5.85,0,0,0,.32,2,4.35,4.35,0,0,0,.89,1.5,3.9,3.9,0,0,0,1.35.94,4.3,4.3,0,0,0,1.69.33,6.19,6.19,0,0,0,1-.08,4,4,0,0,0,.82-.22,3.76,3.76,0,0,0,.7-.37,5.24,5.24,0,0,0,.64-.51l.07,0Z" transform="translate(101.6 89.7)"/><path class="cls-8" d="M810.73,159.39v3.08h2.92v1.37h-2.92v3.09h-1.5v-3.09h-2.9v-1.37h2.9v-3.08Z" transform="translate(101.6 89.7)"/><path class="cls-8" d="M818.86,157.23a4.08,4.08,0,0,1,1.37.22,3.08,3.08,0,0,1,1.06.63,2.82,2.82,0,0,1,.69,1,3.13,3.13,0,0,1,.25,1.27,3.39,3.39,0,0,1-.18,1.11,4.6,4.6,0,0,1-.47,1,6.62,6.62,0,0,1-.69.9l-.83.88-2.45,2.5a6.26,6.26,0,0,1,.71-.16,4.16,4.16,0,0,1,.66-.06h2.78a.66.66,0,0,1,.48.17.59.59,0,0,1,.18.45v1.11H815v-.62a1.07,1.07,0,0,1,.08-.39,1.09,1.09,0,0,1,.25-.37l3.29-3.3q.41-.42.74-.8a5.38,5.38,0,0,0,.55-.76,3.46,3.46,0,0,0,.34-.76,2.79,2.79,0,0,0,.12-.81,1.94,1.94,0,0,0-.11-.69,1.38,1.38,0,0,0-.32-.5,1.36,1.36,0,0,0-.5-.3,2,2,0,0,0-.65-.1,1.72,1.72,0,0,0-1.1.34,1.76,1.76,0,0,0-.61.91.76.76,0,0,1-.25.41.69.69,0,0,1-.42.12l-.25,0-1-.17a4,4,0,0,1,.44-1.37,3.28,3.28,0,0,1,.8-1,3.34,3.34,0,0,1,1.11-.59A4.43,4.43,0,0,1,818.86,157.23Z" transform="translate(101.6 89.7)"/><path class="cls-8" d="M776.46,139.7V129.09h3.05a6.06,6.06,0,0,1,1.57.18,3,3,0,0,1,1.1.53,2.15,2.15,0,0,1,.65.85,2.89,2.89,0,0,1,.21,1.14,2.28,2.28,0,0,1-.15.81,2.44,2.44,0,0,1-.42.72,2.72,2.72,0,0,1-.68.57,3.26,3.26,0,0,1-.92.37,3.46,3.46,0,0,1,1.93.83,2.25,2.25,0,0,1,.67,1.7,3,3,0,0,1-.24,1.21,2.44,2.44,0,0,1-.7.92,3.17,3.17,0,0,1-1.12.57,5.28,5.28,0,0,1-1.51.2Zm.77-5.65h2.3a3.72,3.72,0,0,0,1.26-.19,2.49,2.49,0,0,0,.86-.5,1.93,1.93,0,0,0,.49-.7,2.12,2.12,0,0,0,.16-.8,2,2,0,0,0-.68-1.62,3.29,3.29,0,0,0-2.1-.55h-2.29Zm0,.56v4.47h2.66a3.2,3.2,0,0,0,2.12-.6,2.11,2.11,0,0,0,.71-1.7,2.08,2.08,0,0,0-.19-.9,1.9,1.9,0,0,0-.55-.68,2.56,2.56,0,0,0-.89-.43,4.31,4.31,0,0,0-1.19-.15Z" transform="translate(101.6 89.7)"/><path class="cls-8" d="M794.06,139.7h-.59a.26.26,0,0,1-.17-.06.38.38,0,0,1-.11-.15l-1.25-3.08h-5.21l-1.24,3.08a.32.32,0,0,1-.11.14.28.28,0,0,1-.18.06h-.59L789,129.09h.76Zm-7.1-3.86h4.76l-2.17-5.36c0-.08-.07-.18-.11-.29s-.07-.22-.1-.34l-.11.34-.11.3Z" transform="translate(101.6 89.7)"/><path class="cls-8" d="M803.23,137.91a.17.17,0,0,1,.13.05l.3.32a5,5,0,0,1-.72.63,4.51,4.51,0,0,1-.85.48,5.13,5.13,0,0,1-1,.31,6.29,6.29,0,0,1-1.21.11,5.16,5.16,0,0,1-2-.39,4.48,4.48,0,0,1-1.57-1.09,5,5,0,0,1-1-1.71,6.44,6.44,0,0,1-.37-2.23,6.18,6.18,0,0,1,.38-2.21,5,5,0,0,1,1.07-1.71,4.74,4.74,0,0,1,1.64-1.11,5.48,5.48,0,0,1,2.11-.39,6,6,0,0,1,1.06.09,4.86,4.86,0,0,1,.9.25,4.17,4.17,0,0,1,.78.4,6,6,0,0,1,.72.55l-.23.34a.21.21,0,0,1-.19.09.32.32,0,0,1-.17-.08l-.27-.2-.39-.25a3.21,3.21,0,0,0-.54-.25,4.73,4.73,0,0,0-.73-.2,5.1,5.1,0,0,0-.94-.08,4.63,4.63,0,0,0-1.78.33,4,4,0,0,0-1.39,1,4.35,4.35,0,0,0-.91,1.5,5.63,5.63,0,0,0-.33,2,5.85,5.85,0,0,0,.32,2,4.32,4.32,0,0,0,.89,1.5,3.86,3.86,0,0,0,1.35.94,4.29,4.29,0,0,0,1.68.33,6.18,6.18,0,0,0,1-.08,4,4,0,0,0,.82-.22,3.76,3.76,0,0,0,.7-.37,5.23,5.23,0,0,0,.64-.51l.07,0Z" transform="translate(101.6 89.7)"/><path class="cls-8" d="M812.48,130.9V134h2.92v1.37h-2.92v3.09H811v-3.09h-2.9V134H811V130.9Z" transform="translate(101.6 89.7)"/><path class="cls-8" d="M820.78,128.73a4,4,0,0,1,1.35.21,3.1,3.1,0,0,1,1,.59,2.59,2.59,0,0,1,.66.89,2.66,2.66,0,0,1,.23,1.1,3.21,3.21,0,0,1-.12.91,2.11,2.11,0,0,1-.34.69,2,2,0,0,1-.54.5,3.29,3.29,0,0,1-.72.34,2.84,2.84,0,0,1,1.46.94,2.54,2.54,0,0,1,.48,1.58,3.27,3.27,0,0,1-.3,1.43,3.1,3.1,0,0,1-.81,1,3.53,3.53,0,0,1-1.18.64,4.56,4.56,0,0,1-1.42.22,4.84,4.84,0,0,1-1.43-.19,3.1,3.1,0,0,1-1.06-.55,3.32,3.32,0,0,1-.77-.9,6,6,0,0,1-.54-1.23l.82-.34a1.07,1.07,0,0,1,.43-.09.73.73,0,0,1,.35.08.56.56,0,0,1,.24.24c.09.17.19.35.3.52a2.07,2.07,0,0,0,.39.45,1.86,1.86,0,0,0,.53.32,1.93,1.93,0,0,0,.72.12,2,2,0,0,0,.82-.15,1.79,1.79,0,0,0,.59-.4,1.61,1.61,0,0,0,.35-.55,1.69,1.69,0,0,0,.12-.61,2.85,2.85,0,0,0-.08-.71,1.06,1.06,0,0,0-.35-.54,1.88,1.88,0,0,0-.75-.35,5.44,5.44,0,0,0-1.32-.13v-1.33a4.49,4.49,0,0,0,1.13-.12,1.91,1.91,0,0,0,.72-.33,1.14,1.14,0,0,0,.37-.51,2,2,0,0,0,.11-.66,1.53,1.53,0,0,0-.42-1.17,1.62,1.62,0,0,0-1.15-.39,1.7,1.7,0,0,0-1.1.35,1.83,1.83,0,0,0-.61.9.82.82,0,0,1-.25.41.66.66,0,0,1-.41.12l-.25,0-1-.17a4,4,0,0,1,.43-1.37,3.29,3.29,0,0,1,.81-1,3.37,3.37,0,0,1,1.11-.59A4.46,4.46,0,0,1,820.78,128.73Z" transform="translate(101.6 89.7)"/><path class="cls-8" d="M1196.88,121.19a27.83,27.83,0,0,1,0-55.67v3a24.83,24.83,0,1,0,24.83,24.83h3A27.86,27.86,0,0,1,1196.88,121.19Z" transform="translate(101.6 89.7)"/><path class="cls-8" d="M871.55,176.8H774.89a1.5,1.5,0,0,1,0-3h96.67a1.5,1.5,0,0,1,0,3Z" transform="translate(101.6 89.7)"/><circle class="cls-8" cx="898.53" cy="265" r="4.67"/><path class="cls-8" d="M871.55,149.47H774.89a1.5,1.5,0,0,1,0-3h96.67a1.5,1.5,0,0,1,0,3Z" transform="translate(101.6 89.7)"/><circle class="cls-8" cx="918.7" cy="237.67" r="4.67"/><path class="cls-8" d="M871.55,123.17H774.89a1.5,1.5,0,0,1,0-3h96.67a1.5,1.5,0,0,1,0,3Z" transform="translate(101.6 89.7)"/><circle class="cls-8" cx="952.53" cy="211.38" r="4.67"/><g class="cls-10"><path class="cls-8" d="M741.86,352.64v-3c.22,0,21.89-.21,49-12.52,25-11.35,59.87-35.62,84.06-86.8,22.16-46.86,53.26-78.24,92.44-93.26,33.33-12.78,71.34-13,109.92-.53,13.54,4.36,24,10.81,35,17.64,34.26,21.19,73.1,45.22,225.06,23.79l.42,3c-68.12,9.61-119.81,10.88-158,3.9-33.51-6.12-52.38-17.8-69-28.1-10.88-6.73-21.16-13.09-34.35-17.34-84.3-27.16-158.59,7.31-198.73,92.21-24.62,52.07-60.18,76.76-85.68,88.31C764.28,352.45,742.76,352.64,741.86,352.64Z" transform="translate(101.6 89.7)"/></g><g class="cls-24"><polygon class="cls-11" points="921.65 721.45 921.65 757.84 929.89 831.68 1002.73 852.92 1006.9 796.64 995.18 738.49 974.9 708.89 921.65 721.45"/><path class="cls-12" d="M849.85,633c10,1.53,11.15,20.2,11.09,28.19-.24,31.14,12.6,20.31,15.21,38.15,2.65,18.11,1.37,57,1.37,57l23.61,6.88,4.18-56.28-11.73-58.15-20.28-29.6-53.24,12.56s-.4.77,0,8.22C820.06,640,836.38,630.92,849.85,633Z" transform="translate(101.6 89.7)"/><path class="cls-11" d="M957,636.79s1.27,20.41,1.58,41.25,3.74,70.91,6.31,84.54l2.57,13.63L892,756.87l-7.34-51.25s-1.1-13.25-11.32-19.94S865,665,864.74,664.25s0-41.83,0-41.83l82.24,5Z" transform="translate(101.6 89.7)"/><path class="cls-12" d="M864.65,643.69s-1.33-12.83,9.84-12.7c10.7.13,61.33,1.59,83,14.57L955.78,631l-87.94-13-12.36,4.41,4.28,9.33Z" transform="translate(101.6 89.7)"/><path class="cls-14" d="M908.79,361.81l47.42,8.35a21.06,21.06,0,0,1,14,9.31L978,391.41l-52.79,14.73-69.55-8.38,32.68-26.24Z" transform="translate(101.6 89.7)"/><path class="cls-17" d="M908.79,361.81l-20.49,9.72-32.68,26.24,69.55,8.38L978,391.41l-.87-1.35s-9.26-4.35-16.59-8.45c-10.42-5.83-15.24-7.43-22.75-9C915.42,367.94,908.79,361.81,908.79,361.81Z" transform="translate(101.6 89.7)"/><path class="cls-13" d="M818.47,618.6v12.34a1.49,1.49,0,0,0,1.91,1.45c11.1-3.21,69.18-17.83,136.17,5.77a1.5,1.5,0,0,0,2-1.4V620.34a1.5,1.5,0,0,0-1.11-1.45l-95.58-25.7a1.5,1.5,0,0,0-1.14.15l-41.49,24A1.5,1.5,0,0,0,818.47,618.6Z" transform="translate(101.6 89.7)"/><path class="cls-13" d="M927.53,372.7s5,.46,6.33,1.44l-1.61,2L927.53,375Z" transform="translate(101.6 89.7)"/><path class="cls-15" d="M922.68,317.8s-5.34,18.39-4.38,33.49,5.85,21.53,15,23.7c0,0-16.31,32-53.78,28.87-13.49-1.15-12.24-11.13-8.24-24.14,0,0,10-2.41,4.38-26.66Z" transform="translate(101.6 89.7)"/><path class="cls-16" d="M846.59,359c.19-.13,8.49-9.15,10.82-11.69a3,3,0,0,1,1.46-.89l9.88-2.61a1.46,1.46,0,0,1,1.82,1c.18.8-.19,2-2.39,3.39l-9.68,7.18Z" transform="translate(101.6 89.7)"/><path class="cls-16" d="M919.6,331.87A67.55,67.55,0,0,1,889.8,360c-8.19,3.9-13-1-13-1-.27-1.84-.65-3.84-1.15-6l47.06-35.26A133.81,133.81,0,0,0,919.6,331.87Z" transform="translate(101.6 89.7)"/><path class="cls-20" d="M960.57,623.26l2-2.94a21.84,21.84,0,0,0,3.79-12.58C964.21,454,989.85,405.74,994.69,398a2.5,2.5,0,0,0,0-2.65c-2.14-3.4-6.28-4-16.37-5.65-9.94-1.66-38.29-13.06-45.42-16a1.81,1.81,0,0,0-2.33,1c-9.49,21.58-30.41,29.73-51.28,28.34-13.6-.91-11.7-11.28-8.5-18.71a3,3,0,0,0-3.85-3.87c-11.06,4.5-25,8.18-34.56,10.42a18,18,0,0,0-13.47,14c-14,69.64-12.52,165.44-11.6,196.32a26.72,26.72,0,0,0,7.05,17.3l3.09,3.36a2.56,2.56,0,0,0,2.7.71c9.74-3.24,64.33-19.27,134.51,2.68A5.21,5.21,0,0,0,960.57,623.26Z" transform="translate(101.6 89.7)"/><path class="cls-15" d="M857.39,275.52A68.8,68.8,0,0,0,855.25,292c.12,8.11,1.77,16,1.51,21.51a44.29,44.29,0,0,0,3.48,20.38c3.49,8.43,6.72,11.1,12.41,17,3.79,3.92,6.14,6.26,14.58,4.7s22.65-14.09,26.38-17.59,8.4-8.55,7.76-19.15l.92-30-3.13-28.19-12.41-8.43-37.83,9.28Z" transform="translate(101.6 89.7)"/><path class="cls-15" d="M853.31,296.43a69.82,69.82,0,0,0,0,10.54c.48,4.28,1.57,6.33,4.46,7.77l2.29-7.77-3.13-10.54Z" transform="translate(101.6 89.7)"/><path class="cls-25" d="M856.68,310.16a109.36,109.36,0,0,0-4.46-14.7c-2.77-7-6.26-17.35-6.26-23s2.17-8.91,5.36-10.6,4.16-6.87,6.2-11.2,4.1-7.71,8.55-10,8.31-3.25,11.93-1.81,4.1,3.61,7.83,1.08,7.23-3.73,11.44-3.37,6.75,1.81,8.91,5.54,5.17,6,12.61,7.55c5.94,1.2,10.92-.48,12.37,4.82s-.41,8.31,2,8.35c4.43.08,6.28,2.65,3.42,14s-4.14,13.49-4.54,18.39L921,311.48a.67.67,0,0,1-1.2-.17,18.63,18.63,0,0,1-.42-5.77c.24-5.86-.08-11.16-2.09-13.17a8.9,8.9,0,0,1-3-7.71c.4-3.29,1.77-8.75-.24-13.57-.75-1.8-1.35-3.1-1.81-4a1.87,1.87,0,0,0-2.87-.6c-2.51,2-7.4,5.58-12.18,6.48-6.83,1.28-13.65-.64-18.63-1.45-4.43-.72-13.39-.61-19.33,2.94a5.28,5.28,0,0,0-2.41,3.72c-.36,2.24-.9,5.71-1.15,8.36a35.07,35.07,0,0,0,.24,11.16A94.76,94.76,0,0,1,856.68,310.16Z" transform="translate(101.6 89.7)"/><path class="cls-21" d="M933.26,288.9a30.87,30.87,0,0,0-1.21,6.28L921,311.48a.67.67,0,0,1-1.2-.17,18.63,18.63,0,0,1-.42-5.77c.24-5.86-.08-11.16-2.09-13.17a8.9,8.9,0,0,1-3-7.71s.89,4.35,5.17,5.19c4.84,1,3.67,6.18,4.28,7.82s1.14,2,3.85-1.74S933.26,288.9,933.26,288.9Z" transform="translate(101.6 89.7)"/><circle class="cls-15" cx="1022.77" cy="405.96" r="4.38"/><path class="cls-15" d="M919.91,312.07s1.14-.5,2.11-3.83,2.21-7,4.26-9.36,3-3.53,3.69-4.34a2.32,2.32,0,0,1,2.29-1c1,.12,2.61.32,3.17,1.12s1.16,2.65,1.12,6.18.21,7.44-.16,9.28c-.28,1.39-1.22,4.31-4.46,8.31-1.9,2.35-3.25,5-4.46,5.34s-3.05.2-3.73-.52-1.42-2.66-3.42-2.74Z" transform="translate(101.6 89.7)"/><path class="cls-16" d="M874.36,313.95a3.48,3.48,0,0,0,1.79.94,20.87,20.87,0,0,0,6.35-.29c1.55-.43,1.86-.86,2.07-.6s0,3.66-3.9,4.43c-3.73.74-5.31-.85-5.67-1.24a2.93,2.93,0,0,1-.81-3.25S874.21,313.8,874.36,313.95Z" transform="translate(101.6 89.7)"/><path class="cls-16" d="M876.2,338.12a10.27,10.27,0,0,1,5.09-.21,1,1,0,0,1,.67,1.47,6,6,0,0,1-1.2,1.42,3,3,0,0,1-4.15-.15,5.43,5.43,0,0,1-.89-1.31A.86.86,0,0,1,876.2,338.12Z" transform="translate(101.6 89.7)"/><path class="cls-21" d="M865.44,295.87a1.92,1.92,0,0,1,1.23-1.08c1-.38.78.55.71.89s-.27,1.32.75,1.52,1.08.46,1.07,1-.87,1.43-2.36.95A2.51,2.51,0,0,1,865.44,295.87Z" transform="translate(101.6 89.7)"/><path class="cls-21" d="M894.9,294.77a2.53,2.53,0,0,0-1.36,3.08,2,2,0,0,0,3.22,1.45c.49-.43.85-1.69-.64-1.81s-1.05-1.46-.71-1.85S895.9,294.36,894.9,294.77Z" transform="translate(101.6 89.7)"/><path class="cls-25" d="M891.74,285.9c4.25-3.14,10.55-2.63,13.17-2.31a.57.57,0,0,0,.5-.91c-4.16-5.39-11.6-3-13.63-.86a4.87,4.87,0,0,0-1.22,3S890.33,286.94,891.74,285.9Z" transform="translate(101.6 89.7)"/><path class="cls-25" d="M859.12,285.87a7.83,7.83,0,0,1,7,.25c3.55,2.22,3.55-.3,3.55-.3s0-3.92-4.42-3.92c-3.47,0-5.37,1.29-6.43,3.39C858.84,285.3,858.37,286.25,859.12,285.87Z" transform="translate(101.6 89.7)"/><ellipse class="cls-21" cx="927.28" cy="254.29" rx="1.63" ry="2.61" transform="translate(345.02 1019.9) rotate(-60)"/><ellipse class="cls-21" cx="898.04" cy="240.55" rx="2.18" ry="3.97" transform="translate(531.94 1133.74) rotate(-74.79)"/><ellipse class="cls-21" cx="935.66" cy="266.08" rx="1.15" ry="1.85" transform="translate(120.34 680.63) rotate(-35.38)"/><path class="cls-21" d="M897.2,272.94c-6.83,1.28-13.65-.64-18.63-1.45-4.43-.72-13.39-.61-19.33,2.94a5.28,5.28,0,0,0-2.41,3.72c-.36,2.24-.65,5.56-.9,8.21-.4,4.26-.81,6.42,0,11.31a94.76,94.76,0,0,1,.76,12.49,109.36,109.36,0,0,0-4.46-14.7c-2.77-7-6.26-17.35-6.26-23s2.17-8.91,5.36-10.6,4.16-6.87,6.2-11.2,4.1-7.71,8.55-10,8.27-3.15,11.93-1.81c3.24,1.19,3.93,3.49,7.36,1.39.5-.31,1-.68,1.8-1.16a6.56,6.56,0,0,1-6.55,4.1c-5.18-.06-8.85-2.83-14.94,4.7s-7,14-4,16.44,8,.66,16.08,3.19S889.71,272.57,897.2,272.94Z" transform="translate(101.6 89.7)"/><path class="cls-21" d="M865.51,330a38.81,38.81,0,0,1,8-2,30.25,30.25,0,0,1,4.13-.35,39.66,39.66,0,0,1,4.13.23c2.74.28,5.41.8,8.1,1a17.37,17.37,0,0,0,4-.14,6.81,6.81,0,0,0,3.49-1.6h0a.31.31,0,0,1,.42.45,7.47,7.47,0,0,1-3.78,1.85,16.81,16.81,0,0,1-4.15.21c-2.75-.15-5.44-.64-8.13-.89a36.47,36.47,0,0,0-8.07.08,51.88,51.88,0,0,0-7.89,1.68l-.06,0a.25.25,0,0,1-.16-.46Z" transform="translate(101.6 89.7)"/><path class="cls-21" d="M895.7,325.13a3.6,3.6,0,0,1,1.78.7,3.44,3.44,0,0,1,1.16,1.58,4.93,4.93,0,0,1,.2,1.9,8,8,0,0,1-.15.92l-.3.87a.26.26,0,0,1-.49-.14h0l.2-.83c0-.28.08-.56.1-.84a4.27,4.27,0,0,0-.23-1.62,3.36,3.36,0,0,0-.93-1.29,3.65,3.65,0,0,0-1.44-.74.26.26,0,0,1,.09-.51Z" transform="translate(101.6 89.7)"/><path class="cls-16" d="M870.64,288a7.64,7.64,0,0,1,4.67,6.89,30.54,30.54,0,0,1-.87,10.66s.44-6.86-.48-11.21A12.88,12.88,0,0,0,870.64,288Z" transform="translate(101.6 89.7)"/><path class="cls-16" d="M888.79,285.54s-3.37,1.19-2.1,7.45C886.69,293,887.69,287.47,888.79,285.54Z" transform="translate(101.6 89.7)"/><path class="cls-16" d="M924,316.16a14.55,14.55,0,0,0,2.12-3.22,7.47,7.47,0,0,0,.63-1.8,2.21,2.21,0,0,0-.44-1.73c-.18-.26-.4-.49-.59-.78a3.24,3.24,0,0,1-.42-.94,3.43,3.43,0,0,1,.09-2,31.57,31.57,0,0,1,1.82-3.5,15.51,15.51,0,0,1,2.47-3.08,14.19,14.19,0,0,1,1.52-1.27,1.24,1.24,0,0,1,1-.3,1.31,1.31,0,0,1,.87.66,8.53,8.53,0,0,1,1.24,3.77,18,18,0,0,1,0,3.95.19.19,0,0,1-.39,0h0a17.45,17.45,0,0,0-.17-3.84,7.87,7.87,0,0,0-1.23-3.44l-.13-.17-.08-.08a.48.48,0,0,0-.2-.08.44.44,0,0,0-.21,0,.84.84,0,0,0-.26.16,13.44,13.44,0,0,0-1.43,1.21,15.38,15.38,0,0,0-2.33,2.94,32,32,0,0,0-1.79,3.34,2.72,2.72,0,0,0-.09,1.6,2.85,2.85,0,0,0,.31.74c.12.21.36.49.55.79a3.34,3.34,0,0,1,.47,1,2.83,2.83,0,0,1,0,1.15,7.55,7.55,0,0,1-.74,1.93,14.91,14.91,0,0,1-2.37,3.2.15.15,0,0,1-.22-.2Z" transform="translate(101.6 89.7)"/><path class="cls-16" d="M928.93,300.91a5.18,5.18,0,0,1,1,1.7,9.25,9.25,0,0,1,.45,1.84,13.75,13.75,0,0,1,.14,1.88c0,.63,0,1.25-.09,1.87a.18.18,0,0,1-.36,0h0c0-.61,0-1.22,0-1.83a13.27,13.27,0,0,0-.21-1.81,8.71,8.71,0,0,0-.49-1.72,4.7,4.7,0,0,0-.87-1.43l0,0a.33.33,0,1,1,.46-.46Z" transform="translate(101.6 89.7)"/><path class="cls-20" d="M767.48,490.56s8.84-16.7,13.83-28.34,12.71-33.84,28.93-50l2.61,30.94-24,45.4Z" transform="translate(101.6 89.7)"/><path class="cls-13" d="M785.32,462.22,761.48,500.1A16.41,16.41,0,0,0,759.42,513l4,15.59a17.89,17.89,0,0,0,11.7,12.28A52.62,52.62,0,0,0,790.71,544a6.73,6.73,0,0,0,3.23-.81l11.59-6.09a15.32,15.32,0,0,0,4.75-3.86l14-17.1a11.86,11.86,0,0,0,2.71-7.51v-27Z" transform="translate(101.6 89.7)"/><path class="cls-13" d="M995.47,396.85s10.4,34.19,19.81,51.18a526.22,526.22,0,0,1,25.67,53.72c7,17.11,17.75,26,25.35,47.85,5.22,15,5.14,26.9,4.58,32.87a9.06,9.06,0,0,1-3.68,6.46l-11.45,8.4a7.4,7.4,0,0,1-6.1,1.23L1019,591.22a10.32,10.32,0,0,1-7.41-6.83c-2.27-6.93-6.28-18.5-9.09-22.93l11.78-21.28-47.24-56.81S953,421.57,995.47,396.85Z" transform="translate(101.6 89.7)"/><path class="cls-15" d="M779.65,534.71s5.47,8.79,15,1.19,25.2-37.55,31.61-51.1,6.66-43.5,10.22-55.38,12.36-28.52,12.36-28.52,8.32-16.88-5.23-21.63-22.33,18.44-30.42,29S784.4,451,777.51,487.75,776.8,529.25,779.65,534.71Z" transform="translate(101.6 89.7)"/><path class="cls-15" d="M783,540.18" transform="translate(101.6 89.7)"/><path class="cls-15" d="M955.19,501s15.19,11.31,31.21,36.51,16.51,33.28,42.7,45.27c8.37,3,20.57,4.75,27.67,6.06a8.12,8.12,0,0,0,7.81-2.92l.38-.47a8.1,8.1,0,0,0,1.61-6.75,102.74,102.74,0,0,0-13.24-32.61c-11.5-18.11-31.08-20.8-50.17-39.65s-29.61-29.61-29.61-29.61-13.22-8.13-22.52,6.61C943.92,494.68,955.19,501,955.19,501Z" transform="translate(101.6 89.7)"/><path class="cls-16" d="M868.61,346.71s16.43-4.23,19.68-5.1,5.08-.58,5.94,1.69c1,2.68.08,4.33-4.62,6-4.45,1.54-14.48,4.15-14.48,4.15Z" transform="translate(101.6 89.7)"/><path class="cls-15" d="M849.26,399.69c3.29-6.41,6.79-6,13.79-10.91,4.7-3.27,8.75-6.62,8.75-6.62,3.21-10.13-3.38-18.32-6.19-25.37h0l25.06-7.94a4.31,4.31,0,0,0,3.33-4.29h0c0-1.88-1.35-3.49-3.56-2.92l-32.66,8.69a5.89,5.89,0,0,0-2.22.95l-15.43,12.24a12.54,12.54,0,0,0-4.31,5.24s-6,13.85-10.14,20.13" transform="translate(101.6 89.7)"/><path class="cls-16" d="M941.42,455.2l5.4-.31a5.48,5.48,0,0,1,5.06,2.73,30.58,30.58,0,0,0,1.71,2.64c1.87,2.56,7.34,6.91,9,8.25l-8,1.06L940.91,464Z" transform="translate(101.6 89.7)"/><path class="cls-14" d="M937.75,375.42c-4.57,7.57-18.81,36.84-10.22,91.56l8,8.79,12.7-11.88s-6.82-42.39,7.87-81.44a1.46,1.46,0,0,0-1-1.94L948,378.56a7.48,7.48,0,0,1-1.75-.72l-5.57-3.18A2.18,2.18,0,0,0,937.75,375.42Z" transform="translate(101.6 89.7)"/><path class="cls-26" d="M930.34,375.11" transform="translate(101.6 89.7)"/><path class="cls-15" d="M871.29,382.46s5-5.24,4.06-9.7-2.23-4.33-2.62-7.34.13-3.8-1.44-5.24-2.51-3-2.36-4.33-1.23-.91-1.23-.91h-7.16l-1.7,8,6,9.7Z" transform="translate(101.6 89.7)"/><path class="cls-16" d="M858.84,361s1.13-3.37,5.13-2.25C864,358.76,860.28,359,858.84,361Z" transform="translate(101.6 89.7)"/><path class="cls-16" d="M857.46,356.11s1.13-3.37,5.13-2.25C862.59,353.86,858.9,354.11,857.46,356.11Z" transform="translate(101.6 89.7)"/><path class="cls-16" d="M860.6,366.33s1.13-3.37,5.13-2.25C865.72,364.08,862,364.33,860.6,366.33Z" transform="translate(101.6 89.7)"/><path class="cls-16" d="M863.64,372.83a3.19,3.19,0,0,1,4.18-1.83S864.81,371.2,863.64,372.83Z" transform="translate(101.6 89.7)"/><path class="cls-17" d="M939.54,492.44s11.33,36.25,27.33,55l.49-11s-17.82-30.23-21.57-46.73Z" transform="translate(101.6 89.7)"/><path class="cls-16" d="M964,508.5a182.78,182.78,0,0,1,22.36,29c16,25.2,16.51,33.28,42.7,45.27,8.37,3,20.57,4.75,27.67,6.06a8.12,8.12,0,0,0,7.81-2.92l.38-.47a8.1,8.1,0,0,0,1.61-6.75s-4.33,9.15-14.14,6.09c-10.77-3.36-29.67-6.17-48.33-29.17C986.59,534.05,967.83,511.08,964,508.5Z" transform="translate(101.6 89.7)"/><path class="cls-15" d="M924.64,499.12a3.39,3.39,0,0,0,.16,4l1,1.26a3.83,3.83,0,0,0,4.65,1.06c3.75-1.8,10.46-5,14.33-6.62,5.58-2.36,10.39,2.16,10.39,2.16l18.86-23.66c-4.59-4.64-17.42-12.84-22.55-16.69-2.85-2.14-9.54-1.75-11.27-1.83a10,10,0,0,0-1.29,0,103.19,103.19,0,0,0-10.78,1.35c-2.43.59-10.1,3.4-13.34,4.6a2.54,2.54,0,0,0-1.64,2.1l-.31,2.79a2.55,2.55,0,0,0,2.14,2.8l3.18.5a1.29,1.29,0,0,1,.5,2.35l-4.33,2.82a2.74,2.74,0,0,0-1.11,3.15l2,6.12a2.63,2.63,0,0,0,1.93,1.75l2.2.49s1.32.2.65.43l-.82.28a1.78,1.78,0,0,0-1.06,2.36l2,4.9A2.24,2.24,0,0,0,922.6,499l1.73-.27s.62-.17.57,0A1.76,1.76,0,0,1,924.64,499.12Z" transform="translate(101.6 89.7)"/></g><circle class="cls-7" cx="886.57" cy="430.49" r="14.5"/><circle class="cls-7" cx="1056.48" cy="253.07" r="14.5"/><circle class="cls-7" cx="1295.82" cy="295.5" r="14.5"/></g></svg>