<?xml version="1.0" encoding="utf-8"?>
<!-- Generator: Adobe Illustrator 18.1.1, SVG Export Plug-In . SVG Version: 6.00 Build 0)  -->
<svg version="1.1" id="Calque_1" xmlns="http://www.w3.org/2000/svg" xmlns:xlink="http://www.w3.org/1999/xlink" x="0px" y="0px"
	 viewBox="0 0 261.8 275" enable-background="new 0 0 261.8 275" xml:space="preserve">
<g>
	<g>
		<g>
			<g>
				<path fill="#51508A" d="M215.5,113.6c-0.6,23.5-12.5,43.7-25.8,62.1c-5.5,8.3-11.8,16.2-17.6,24.4c-5.7,8-11.4,16.1-17.4,23.9
					c-6.3,8.8-12.6,17.5-18.9,26.3c-0.4,0.6-0.8,1.2-1.2,1.7c-1.9,2.7-5.9,2.7-7.8,0c-5-7-10-14-15-21
					c-15.1-21.2-30.6-42.2-45.4-63.6c-11-16-20.2-33.7-20.2-53.6c0-46.4,37.3-83.7,83.5-84.6c0.4,0,0.7,0,1.1,0
					c14.8-0.1,28.8,3.5,41,10C198.4,53.1,216.3,80.9,215.5,113.6z"/>
			</g>
		</g>
	</g>
	<g>
		<path fill="#FFFFFF" d="M106.8,162.5c-24.3-7.9-37.7-34.2-29.7-58.5c7.9-24.3,34.2-37.7,58.5-29.7s37.7,34.2,29.7,58.5
			C157.3,157.1,131.1,170.4,106.8,162.5z M131.8,85.7c-18-5.9-37.5,4-43.4,22s4,37.5,22,43.4c18,5.9,37.5-4,43.4-22
			S149.9,91.5,131.8,85.7z"/>
		
			<rect x="126.5" y="166.2" transform="matrix(0.454 0.891 -0.891 0.454 234.6245 -37.041)" fill="#FFFFFF" width="42" height="13.4"/>
		<path fill="#FFFFFF" d="M129.5,89.1c-1.1-1.4-30.3-5.2-37.8,19.9C91.7,109,100.7,91.8,129.5,89.1z"/>
		<path fill="#51508A" d="M155.2,150.3c0,0-6.1,6.4-11.7,9.1c0,0,9-3.1,14.1-7.3C162.6,147.9,155.2,150.3,155.2,150.3z"/>
		<path fill="#51508A" d="M92.7,84.9c0,0-0.1,0.1-0.3,0.3c-0.2,0.2-0.5,0.5-0.9,1c-0.7,0.8-1.7,2-2.9,3.6c-0.6,0.7-1.1,1.6-1.8,2.5
			c-0.6,0.9-1.2,1.9-1.8,2.8c-0.6,1-1.2,2-1.7,3.2c-0.3,0.5-0.6,1.1-0.8,1.6c-0.2,0.6-0.5,1.1-0.7,1.7c-0.5,1.1-0.9,2.3-1.3,3.4
			c-0.4,1.1-0.7,2.3-1.1,3.4c-0.1,0.3-0.2,0.6-0.2,0.8c-0.1,0.3-0.1,0.6-0.2,0.8c-0.1,0.5-0.2,1.1-0.3,1.6c-0.3,1-0.4,2.1-0.5,3
			c-0.1,0.9-0.3,1.8-0.3,2.6c-0.1,0.8-0.1,1.4-0.1,2c-0.1,1.1-0.2,1.7-0.2,1.7s-0.1-0.6-0.2-1.7c-0.1-0.6-0.1-1.2-0.2-2
			c-0.1-0.8,0-1.7,0-2.6c0-0.5,0-1,0-1.5c0-0.5,0.1-1.1,0.2-1.6c0.2-1.1,0.2-2.3,0.5-3.4c0.1-0.6,0.3-1.2,0.4-1.8
			c0.1-0.3,0.1-0.6,0.2-0.9l0.3-0.9c0.4-1.2,0.8-2.4,1.3-3.6c0.3-0.6,0.5-1.2,0.8-1.8c0.3-0.6,0.6-1.1,0.9-1.7
			c0.6-1.1,1.3-2.2,1.9-3.2c0.7-1,1.4-1.9,2.1-2.8c0.7-0.9,1.4-1.6,2.1-2.3c0.6-0.7,1.3-1.3,1.9-1.8c0.6-0.5,1.1-1,1.5-1.3
			C92.2,85.2,92.7,84.9,92.7,84.9z"/>
		<path fill="#51508A" d="M164.7,113.8c0,0,0.6,3,0.4,7.6c0,1.1-0.1,2.4-0.3,3.7c-0.2,1.3-0.4,2.7-0.7,4.1c-0.3,1.4-0.7,2.8-1.1,4.3
			c-0.5,1.4-1,2.9-1.6,4.3c-0.6,1.4-1.3,2.8-2.1,4.1c-0.4,0.7-0.8,1.3-1.2,1.9c-0.4,0.6-0.8,1.2-1.3,1.8c-0.5,0.6-0.9,1.1-1.3,1.7
			c-0.5,0.5-0.9,1-1.4,1.5c-0.5,0.5-0.9,0.9-1.4,1.3c-0.5,0.4-0.9,0.8-1.4,1.2c-0.9,0.7-1.7,1.3-2.5,1.9c-0.8,0.5-1.5,0.9-2,1.3
			c-1.2,0.6-1.8,1-1.8,1s0.6-0.5,1.6-1.3c0.5-0.4,1.1-0.9,1.8-1.5c0.4-0.3,0.7-0.6,1.1-1c0.4-0.4,0.8-0.7,1.2-1.1
			c0.4-0.4,0.8-0.8,1.2-1.3c0.4-0.5,0.8-0.9,1.2-1.4c0.8-1,1.6-2.1,2.4-3.2c0.4-0.6,0.8-1.2,1.2-1.8c0.4-0.6,0.7-1.2,1.1-1.9
			c0.7-1.3,1.4-2.6,1.9-3.9c0.6-1.3,1.1-2.7,1.6-4.1c0.5-1.4,0.9-2.8,1.2-4.1c0.7-2.7,1.2-5.3,1.5-7.5
			C164.6,116.8,164.7,113.8,164.7,113.8z"/>
	</g>
</g>
</svg>
