<?xml version="1.0" encoding="utf-8"?>
<!-- Generator: Adobe Illustrator 18.1.1, SVG Export Plug-In . SVG Version: 6.00 Build 0)  -->
<svg version="1.1" id="Calque_1" xmlns="http://www.w3.org/2000/svg" xmlns:xlink="http://www.w3.org/1999/xlink" x="0px" y="0px"
	 viewBox="0 0 261.8 275" enable-background="new 0 0 261.8 275" xml:space="preserve">
<g>
	<g>
		<path fill="#51508A" d="M222.7,117.7c0,23.5-12.5,43.7-25.8,62.1c-5.5,8.3-11.8,16.2-17.6,24.4c-5.7,8-11.4,16.1-17.4,23.9
			c-6.3,8.8-12.6,17.5-18.9,26.3c-0.4,0.6-0.8,1.1-1.2,1.7c-1.9,2.7-5.9,2.7-7.8,0c-5-7-10-14-15-21c-15.1-21.2-30.6-42.2-45.4-63.6
			c-11-16-20.2-33.7-20.2-53.6c0-46.7,37.9-84.6,84.6-84.6S222.7,71,222.7,117.7z"/>
	</g>
	<g>
		<path fill="#FFFFFF" stroke="#51508A" stroke-width="1.4592" stroke-miterlimit="10" d="M167.1,186.4c-0.2,14.7-14,24.6-30.8,24.3
			c-16.8-0.3-30.2-10.6-29.9-25.4c0.1-3,0.7-5.9,1.7-8.5l-0.1,0c0.1,0,2.7-5.4,2.9-5.8c1.7-3,3.9-5.6,6.2-8.2c2.3-2.6,4.3-6,2.7-9.5
			c-1.2-2.8-3.2-6.8-3.2-6.8l0.2-0.1c-0.5-1.4-0.8-2.9-0.7-4.5c0.1-7.4,6.9-12.5,14.4-12.4c6.7,0.1,13.2,9.7,14.3,10.8
			c1.1,1,2.6,1.7,4.2,1.7c1.4,0,2.6-0.4,3.7-1.1c0.9-0.6,1.6-1.4,2-2.3c0.3-0.3,0.5-0.6,0.7-0.6c0.4-0.2,1.8-0.8,2.5,0.8
			c0.7,1.6,1.1,5-0.1,7.9c-0.7,1.7-1.6,3.2-2.4,4.9c-0.8,1.7-1.8,3.3-1.4,5.4c0.4,2.1,1.9,3.7,3.2,5.3c1.5,1.9,2.8,4,4.2,6.1
			c1,1.5,1.9,3.1,2.7,4.7c0.7,1.5,1,3,1.6,4.5C166.7,180.4,167.2,183.4,167.1,186.4z"/>
		<path fill="#FFFFFF" stroke="#51508A" stroke-miterlimit="10" d="M142.2,71.4l0.1,108.8l-12.7-0.2l5-108.7l-2.8-23.2
			c-0.2-1.8,1.2-3.5,3.1-3.4l8.2,0.1c1.9,0,3.3,1.7,3,3.5L142.2,71.4z"/>
		
			<rect x="125.6" y="173.2" transform="matrix(0.9999 1.689225e-002 -1.689225e-002 0.9999 3.0146 -2.2732)" fill="#FFFFFF" stroke="#51508A" stroke-miterlimit="10" width="21" height="8.3"/>
		
			<rect x="125.6" y="166.9" transform="matrix(0.9999 1.689225e-002 -1.689225e-002 0.9999 2.86 -2.2744)" fill="#FFFFFF" stroke="#51508A" stroke-width="0.8158" stroke-miterlimit="10" width="21" height="2.6"/>
	</g>
	<circle fill="#FFFFFF" stroke="#51508A" stroke-width="0.4909" stroke-miterlimit="10" cx="130.2" cy="49.8" r="1.8"/>
	<circle fill="#FFFFFF" stroke="#51508A" stroke-width="0.4909" stroke-miterlimit="10" cx="147.7" cy="49.8" r="1.8"/>
	<circle fill="#FFFFFF" stroke="#51508A" stroke-width="0.4909" stroke-miterlimit="10" cx="130.8" cy="54.7" r="1.8"/>
	<circle fill="#FFFFFF" stroke="#51508A" stroke-width="0.4909" stroke-miterlimit="10" cx="147.1" cy="54.7" r="1.8"/>
	<circle fill="#FFFFFF" stroke="#51508A" stroke-width="0.4909" stroke-miterlimit="10" cx="131.6" cy="59.6" r="1.8"/>
	<circle fill="#FFFFFF" stroke="#51508A" stroke-width="0.4909" stroke-miterlimit="10" cx="146.4" cy="59.6" r="1.8"/>
	<g>
		<path fill="#FFFFFF" d="M155.9,165c0,0,9.7,9.9,7.9,28.6"/>
		<path fill="#51508A" d="M155.9,165c0,0,0.4,0.3,1,0.9c0.3,0.3,0.7,0.7,1,1.1c0.4,0.4,0.8,1,1.2,1.6c0.4,0.6,0.9,1.2,1.3,2
			c0.4,0.7,0.9,1.5,1.2,2.3c0.4,0.8,0.8,1.7,1.1,2.6c0.3,0.9,0.6,1.8,0.9,2.8c0.2,1,0.4,1.9,0.6,2.9c0.1,0.9,0.2,1.9,0.3,2.8
			c0.1,0.9,0.1,1.8,0.1,2.6c0,0.8-0.1,1.6-0.1,2.3c-0.1,0.7-0.1,1.4-0.2,2c-0.1,0.6-0.2,1.1-0.3,1.5c-0.2,0.8-0.3,1.3-0.3,1.3
			s-0.1-0.5-0.1-1.3c0-0.4-0.1-0.9-0.1-1.5c0-0.6-0.1-1.2-0.2-1.9c-0.1-0.7-0.1-1.5-0.2-2.3c-0.1-0.8-0.2-1.6-0.3-2.5
			c-0.2-0.9-0.3-1.7-0.5-2.6c-0.2-0.9-0.4-1.8-0.6-2.7c-0.3-0.9-0.5-1.8-0.8-2.7c-0.3-0.9-0.5-1.7-0.9-2.5c-0.3-0.8-0.6-1.6-0.9-2.3
			c-0.3-0.7-0.6-1.4-0.9-2.1c-0.3-0.6-0.6-1.2-0.9-1.7c-0.3-0.5-0.5-0.9-0.7-1.3C156.2,165.4,155.9,165,155.9,165z"/>
	</g>
	<g>
		<path fill="#FFFFFF" d="M153,142.4c0,0,2.1-1.2,2.9-2.5c0.7-1.3,1-0.1,1,2.3c0,2.3-1,5.1-2.8,8.8"/>
		<path fill="#51508A" d="M153,142.4c0,0,0.2-0.2,0.6-0.4c0.4-0.3,0.9-0.7,1.4-1.2c0.3-0.3,0.5-0.6,0.7-1c0.1-0.1,0.1-0.2,0.2-0.3
			c0.1-0.1,0.2-0.2,0.4-0.3c0.3,0,0.4,0.2,0.5,0.3c0.1,0.1,0.1,0.3,0.1,0.4c0.1,0.5,0.1,1,0.2,1.6c0,0.5,0,1,0,1.6
			c-0.2,2.2-1.1,4.1-1.8,5.6c-0.7,1.4-1.2,2.3-1.2,2.3s0.4-1,1-2.4c0.3-0.7,0.6-1.6,0.9-2.5c0.3-0.9,0.5-1.9,0.6-3
			c0.1-0.5,0.1-1,0-1.5c0-0.5,0-1-0.1-1.5c0-0.2-0.2-0.5-0.2-0.4c0,0-0.1,0-0.1,0.1c-0.1,0.1-0.1,0.2-0.2,0.3
			c-0.2,0.4-0.6,0.7-0.9,1c-0.6,0.5-1.2,0.9-1.6,1.1C153.3,142.2,153,142.4,153,142.4z"/>
	</g>
	<circle fill="#51508A" cx="152" cy="185.7" r="1.9"/>
	<circle fill="#51508A" cx="156.8" cy="183.1" r="1.9"/>
	<circle fill="#51508A" cx="152.7" cy="191.3" r="1.9"/>
	<circle fill="#51508A" cx="157.6" cy="188.6" r="1.9"/>
</g>
</svg>
