<?xml version="1.0" encoding="utf-8"?>
<!-- Generator: Adobe Illustrator 18.1.1, SVG Export Plug-In . SVG Version: 6.00 Build 0)  -->
<svg version="1.1" id="Calque_1" xmlns="http://www.w3.org/2000/svg" xmlns:xlink="http://www.w3.org/1999/xlink" x="0px" y="0px"
	 viewBox="0 0 261.8 275" enable-background="new 0 0 261.8 275" xml:space="preserve">
<g>
	<path fill="#F04D4E" d="M227.1,112.4c0,23.5-12.5,43.7-25.8,62.1c-5.5,8.3-11.8,16.2-17.6,24.4c-5.7,8-11.4,16.1-17.4,23.9
		c-6.3,8.8-12.6,17.5-18.9,26.3c-0.4,0.6-0.8,1.1-1.2,1.7c-1.9,2.7-5.9,2.7-7.8,0c-5-7-10-14-15-21c-15.1-21.2-30.6-42.2-45.4-63.6
		c-11-16-20.2-33.7-20.2-53.6c0-46.7,37.9-84.6,84.6-84.6S227.1,65.7,227.1,112.4z"/>
	<g>
		<path fill="#F9F9F9" stroke="#F04D4E" stroke-width="2.6312" stroke-miterlimit="10" d="M162,115c0,4.5-2.9,8.3-7,9.6
			c-1,0.3-2,0.5-3.1,0.5c-2.5,0-4.7-0.9-6.5-2.3c2.7-2.3,4.4-5.7,4.4-9.5c0-3.4-1.4-6.5-3.6-8.7c-0.4-0.4-0.8-0.7-1.2-1.1
			c-0.5-0.4-1.1-0.8-1.7-1.1c-0.5-0.3-1-0.5-1.6-0.7c-1.4-0.5-2.9-0.8-4.4-0.8c0,0-0.1,0-0.1,0l-11.1,0c-1,0-2.1,0.1-3.1,0.2
			c-5.9,0.7-11.3,3.4-15.4,7.4l-0.2-51c0-5.3,4.1-9.7,9.3-10.1c0.3,0,0.5,0,0.8,0c1.8,0,3.4,0.4,4.9,1.2c3.1,1.7,5.2,5,5.3,15.4
			l0.1,30.1c1.3-7.6,2.8-8.3,4.5-8.6c0.8-0.2,1.6-0.3,2.5-0.3c2,0,3.9,0.5,5.6,1.4c2.3,1.2,4.1,3.2,5.1,5.6c0.2-0.1,0.3-0.3,0.5-0.4
			c0,0,0,0,0.1,0c0.5-0.4,1.1-0.7,1.7-0.9c0.3-0.1,0.6-0.2,0.9-0.4c0.3-0.1,0.6-0.2,0.9-0.3h0.1c0.3-0.1,0.6-0.1,0.9-0.2
			c0.3,0,0.7-0.1,1-0.1c0.1,0,0.2,0,0.3,0c1.8,0,3.4,0.4,4.9,1.2c0.3,0.2,0.6,0.3,0.8,0.5c0.1,0.1,0.3,0.2,0.4,0.3
			c0.2,0.1,0.4,0.3,0.6,0.5c0.2,0.2,0.4,0.3,0.5,0.5c0.7,0.7,1.3,1.5,1.8,2.4c0.7,1.4,1.2,3,1.2,4.7L162,115z"/>
		<path fill="#F9F9F9" stroke="#F04D4E" stroke-width="2.6312" stroke-miterlimit="10" d="M162,113.7c0,4.5-2.9,8.3-7,9.6
			c-1,0.3-2,0.5-3.1,0.5c-2.5,0-4.7-0.9-6.5-2.3c-2.2,1.9-5,3-8.1,3h-3.1c-1.1-0.5-2.2-0.8-3.6-0.9l-5-2.7c0,0,0.5,0.1,1.4,0.1
			c2.8,0.2,9.1,0.3,13.5-2.6c0.6-0.4,1.2-0.9,1.7-1.5c3.2-3.4,3.7-8.8-0.4-12.5c0,0,1.1-1,3-2.3c0.4-0.3,0.8-0.6,1.2-0.9
			c3.6-2.6,9.2-5.9,14.6-7.3c0.7,1.4,1.2,3,1.2,4.7L162,113.7z"/>
		<path fill="#F9F9F9" stroke="#F04D4E" stroke-width="2.6312" stroke-miterlimit="10" d="M162,113.7c0,4.5-2.9,8.3-7,9.6
			c-1,0.3-2,0.5-3.1,0.5c-2.5,0-4.7-0.9-6.5-2.3c-0.7-0.6-1.2-1.2-1.8-1.9c-0.6-0.8-1-1.7-1.4-2.7c-0.3-1-0.5-2.1-0.5-3.2l-0.1-13.5
			l0-1.6c0-3,1.3-5.8,3.5-7.6c0.3-0.2,0.5-0.5,0.8-0.7c0,0,0,0,0.1,0c0.5-0.4,1.1-0.7,1.7-0.9c0.3-0.1,0.6-0.2,0.9-0.4
			c0.3-0.1,0.6-0.2,0.9-0.3h0.1c0.3-0.1,0.6-0.1,0.9-0.2c0.3,0,0.7-0.1,1-0.1c0.1,0,0.2,0,0.3,0c1.8,0,3.4,0.4,4.9,1.2
			c0.3,0.2,0.6,0.3,0.8,0.5c0.1,0.1,0.3,0.2,0.4,0.3c0.2,0.1,0.4,0.3,0.6,0.5c0.2,0.1,0.4,0.3,0.5,0.5c0,0,0,0,0,0
			c0.7,0.7,1.3,1.5,1.8,2.4c0.7,1.4,1.2,3,1.2,4.7L162,113.7z"/>
		<path fill="#F9F9F9" stroke="#F04D4E" stroke-width="2.6312" stroke-miterlimit="10" d="M138,123.9l-6.7,0c-4.5,0-8.2-3.6-8.2-8.2
			L123,92.4c0-4.5,3.6-8.2,8.2-8.2l6.7,0c4.5,0,8.2,3.6,8.2,8.2l0.1,23.3C146.2,120.2,142.6,123.9,138,123.9z"/>
		<path fill="#F9F9F9" stroke="#F04D4E" stroke-width="2.6312" stroke-miterlimit="10" d="M168,173h-50.9l-7.8-25.9
			c-0.9-2.8-2.1-5.5-3.7-8c-0.9-1.5-1.9-3.4-2.9-5.6c-3.7-8.4-2.5-18.3,3.7-25.1c0.4-0.4,0.8-0.9,1.2-1.3c4.1-4,9.4-6.7,15.4-7.4
			c1-0.1,2-0.2,3.1-0.2l11.1,0c0,0,0.1,0,0.1,0c1.6,0,3.1,0.3,4.4,0.8c0.5,0.2,1.1,0.4,1.6,0.7c0.6,0.3,1.2,0.7,1.7,1.1
			c0.4,0.3,0.8,0.7,1.2,1.1c2.2,2.2,3.6,5.3,3.6,8.7c0,1.7-0.3,3.3-0.9,4.8c-0.1,0.2-0.2,0.4-0.3,0.6c-0.3,0.6-0.6,1.1-0.9,1.6
			c-0.1,0.1-0.1,0.2-0.2,0.3c-0.1,0.1-0.2,0.3-0.3,0.4c-0.1,0.1-0.2,0.2-0.3,0.4c-0.1,0.2-0.2,0.3-0.4,0.5c-0.1,0.1-0.2,0.2-0.3,0.4
			c0,0-0.1,0.1-0.1,0.1h0v0c0,0,0,0-0.1,0c-0.1,0.1-0.1,0.1-0.2,0.2c-0.2,0.2-0.3,0.3-0.5,0.4c1.8,1.5,4,2.3,6.5,2.3
			c1.1,0,2.1-0.2,3.1-0.5c4.1-1.3,7-5.1,7-9.6l-0.1-15c0-1.7-0.4-3.3-1.2-4.7c-0.5-0.9-1.1-1.7-1.8-2.4c0,0,0,0,0,0l-0.1-27.1
			c0-5.2,4.1-9.4,9.2-9.7c0.1,0,0.2,0,0.3,0c1.7,0,3.3,0.4,4.7,1.2c3,1.6,5,4.8,5,8.4l0.3,70.8C178.4,148.5,174.8,161.6,168,173
			L168,173z"/>
		<path fill="#F9F9F9" stroke="#F04D4E" stroke-width="2.6312" stroke-miterlimit="10" d="M146.1,120.8c0,0-8.3,6.9-21.7,3.7"/>
		<path fill="#F9F9F9" stroke="#F04D4E" stroke-width="2.6312" stroke-miterlimit="10" d="M128.5,125.1c0,0,10.3,1.1,11.8,15.2"/>
		
			<rect x="116.3" y="170.5" fill="#F9F9F9" stroke="#F04D4E" stroke-width="2.6312" stroke-miterlimit="10" width="53" height="21.7"/>
	</g>
	<g>
		<path fill="#F04D4E" d="M167.3,162.7h-22.5v-3.4l9-9.1c2.8-2.8,4.6-4.8,5.4-6s1.5-2.3,2-3.5s0.7-2.3,0.7-3.6
			c0-1.8-0.6-3.3-1.7-4.3s-2.6-1.6-4.6-1.6c-1.4,0-2.8,0.2-4,0.7s-2.7,1.3-4.3,2.6l-2.1-2.6c3.2-2.6,6.6-3.9,10.3-3.9
			c3.2,0,5.7,0.8,7.6,2.5s2.7,3.9,2.7,6.6c0,2.2-0.6,4.3-1.8,6.4s-3.5,4.8-6.8,8.1l-7.5,7.3v0.2h17.6V162.7z"/>
	</g>
</g>
</svg>
