<?xml version="1.0" encoding="utf-8"?>
<!-- Generator: Adobe Illustrator 22.0.1, SVG Export Plug-In . SVG Version: 6.00 Build 0)  -->
<svg version="1.1" id="Calque_1" xmlns="http://www.w3.org/2000/svg" xmlns:xlink="http://www.w3.org/1999/xlink" x="0px" y="0px"
	 viewBox="0 0 60 60" style="enable-background:new 0 0 60 60;" xml:space="preserve">
<g>
	<path d="M50.9,9.2c-5.5-5.5-13-8.6-20.9-8.6S14.7,3.7,9.1,9.2c-5.5,5.5-8.6,13-8.6,20.9s3.1,15.3,8.6,20.9c5.5,5.5,13,8.6,20.9,8.6
		s15.3-3.1,20.9-8.6c5.5-5.5,8.6-13,8.6-20.9S56.4,14.9,50.9,9.2z M27.4,3.2c0,7.4,2.7,14.6,7.7,20L30,28.4L11.8,10.2
		C16.1,6.2,21.5,3.8,27.4,3.2z M10.1,11.9l18.2,18.2l-5,5c-5.5-5-12.7-7.9-20.2-7.9C3.7,21.5,6.1,16.2,10.1,11.9z M30,57.2
		c-7.3,0-14-2.8-19.2-7.9c-5-5.2-7.9-11.9-7.9-19.2c0-0.1,0-0.2,0-0.4c7.1,0,14.1,2.8,19.3,7.9c5.2,5.2,8,12.2,7.9,19.4
		C30.1,57.2,30,57.2,30,57.2z M32.6,57.1c0-7.4-2.7-14.6-7.7-20l5-5l18.2,18.2C43.9,54.1,38.5,56.5,32.6,57.1z M49.9,48.4L31.7,30.1
		l5-5c5.4,5,12.7,7.9,20,7.9C56.3,38.8,53.9,44,49.9,48.4z M37.7,22.5c-5.2-5.2-8-12.2-7.9-19.4H30c7.3,0,14,2.8,19.2,7.9
		c5,5.2,7.9,11.9,7.9,19.2c0,0.1,0,0.2,0,0.4C49.8,30.5,42.9,27.7,37.7,22.5z"/>
</g>
</svg>
