<?xml version="1.0" encoding="utf-8"?>
<!-- Generator: Adobe Illustrator 22.0.1, SVG Export Plug-In . SVG Version: 6.00 Build 0)  -->
<svg version="1.1" id="Calque_1" xmlns="http://www.w3.org/2000/svg" xmlns:xlink="http://www.w3.org/1999/xlink" x="0px" y="0px"
	 viewBox="0 0 96.3 96.3" style="enable-background:new 0 0 96.3 96.3;" xml:space="preserve">
<g>
	<path d="M80.6,70.2c1.1,0,1.9-0.8,1.9-1.9s-0.8-1.9-1.9-1.9h-8.2c-1.1,0-1.9,0.8-1.9,1.9s0.8,1.9,1.9,1.9H80.6z"/>
	<path d="M81.8,74.6v8.4h-2.1V72.1h-6.4c0,0.1,0,0.2,0,0.3v2.1c-3.8,0.4-6.1,2.2-6.1,4.9v4.7c0,1.1,0.8,1.9,1.9,1.9h3.7h0.7h5.9h4.3
		h0.1c1.1,0,1.9-0.8,1.9-1.9v-5.7C85.9,77.1,85.2,75.3,81.8,74.6z"/>
	<polygon points="23.4,66.5 34.9,66.5 33.5,62.7 22.1,62.7 	"/>
	<polygon points="36.9,55.2 19.5,55.2 20.8,59 38.3,59 	"/>
	<path d="M96,7.4c0-0.3-0.2-0.6-0.5-0.8c-0.3-0.2-0.6-0.2-1,0c-0.6,0.3-12.8,6.6-34.8,31.8c-0.8,0.8-1.6,1.8-2.4,2.8
		C46.7,53.1,38.7,63.5,38.7,63.6c-0.6,0.8-0.5,2,0.3,2.6c0.1,0.1,0.2,0.2,0.4,0.2c0.7,0.3,1.8,0.1,2.3-0.5c0-0.1,3.3-4.3,8.5-10.5
		L62,55.8c1.1,0,1.9-0.7,2-1.8c0-1.1-0.7-1.9-1.8-2l-8.8-0.3c0.5-0.6,1.2-1.4,1.8-2.1L68.6,50c0.5-0.4,1-1,1.5-1.5
		c7.2-8.4,13.3-16.2,17.5-21.4C96,15.9,96,7.7,96,7.4z"/>
	<path d="M61.7,75.3h-9.3C52,74.1,50,68.5,48,63c-1.2,1.5-2.1,2.8-2.8,3.5c1.3,3.6,2.5,6.9,3.2,8.8h-17c-1.1,0-1.9,0.8-1.9,1.9
		c0,0.1,0,0.1,0,0.2c0,0.1,0,0.1,0,0.2c0,0.4-0.1,4.4-3.6,4.4c-1.1,0-1.6-1-2.8-4.2c-0.2-0.6-8.8-25.7-9.4-27.7V50
		c-0.2-0.5-0.4-1.3-0.8-2c7.8,0,21.9,0,23.1,0c1.4,0,2.9,0,4.2,3.8c0.1,0.3,0.5,1.5,1.2,3.3c0.8-1.1,1.8-2.2,2.9-3.5
		c-0.2-0.5-0.3-0.8-0.3-1c-1.9-5.7-5.2-6.5-7.8-6.5l0,0c-1.6,0-28.3,0.1-28.3,0.1l0,0c-0.2,0-0.4,0-0.6,0c-1.6,0-3,0.6-4,1.7
		c-3.1,3-2.8,8.7-2.8,9.3c0.1,1.1,1,1.8,1.9,1.8l0,0h9.5c2.8,7.9,7.2,21.3,7.5,22l0,0l0,0c1.2,3.2,2.4,6.8,6.5,6.8
		c0.1,0,0.3,0,0.4,0c0.1,0,0.1,0,0.2,0h29.7c3.1,0,5.4-1.6,6.7-4.3c0.8-1.9,0.8-3.7,0.8-3.9c0-0.1,0-0.1,0-0.2c0-0.1,0-0.1,0-0.2
		C63.7,76.2,62.8,75.3,61.7,75.3z M4.2,53.3c0.1-1.7,0.5-3.7,1.4-4.8c0.4-0.3,0.7-0.4,1.3-0.4c1.7,0,2.3,1.1,3.1,3.3v0.1
		c0.1,0.3,0.3,1,0.6,1.9L4.2,53.3z M59.3,80.1c-0.6,1.4-1.6,2-3.1,2h-24c0.5-1,0.8-2,1-3h26.5C59.5,79.4,59.4,79.8,59.3,80.1z"/>
</g>
</svg>
