<?xml version="1.0" encoding="utf-8"?>
<!-- Generator: Adobe Illustrator 22.0.1, SVG Export Plug-In . SVG Version: 6.00 Build 0)  -->
<svg version="1.1" id="Calque_1" xmlns="http://www.w3.org/2000/svg" xmlns:xlink="http://www.w3.org/1999/xlink" x="0px" y="0px"
	 viewBox="0 0 60 60" style="enable-background:new 0 0 60 60;" xml:space="preserve">
<g>
	<path d="M59.1,52.4l-20-28.1V12.8h0.1c3.5,0,6.4-2.9,6.4-6.4S42.8,0,39.3,0H20.8c-3.5,0-6.4,2.9-6.4,6.4s2.9,6.4,6.4,6.4h0.1v11.5
		l-20,28.1c-1,1.5-1.1,3.4-0.4,5C1.4,59,3,60,4.8,60h50.4c1.9,0,3.5-1,4.3-2.6C60.3,55.7,60.1,53.9,59.1,52.4z M20.8,10.2
		c-2.1,0-3.9-1.8-3.9-3.9s1.7-3.9,3.9-3.9h18.6c2.1,0,3.9,1.8,3.9,3.9s-1.8,3.9-3.9,3.9H20.8z M23.1,25.4c0.1-0.2,0.2-0.5,0.2-0.8
		V12.7h13.4v11.9c0,0.3,0.1,0.5,0.3,0.8l9.1,13c-8.4-2.5-14.2,0-19,2c-5.1,2.1-8.9,3.8-14.2-0.4L23.1,25.4z M57.3,56.2
		c-0.4,0.7-1.1,1.2-2.1,1.2H4.9c-2.5-0.4-3-2.1-1.9-3.6L11.4,42c3,2.2,5.6,3,8,3c3,0,5.8-1.1,8.6-2.4c5.2-2.2,11.3-4.6,20.6-0.6
		L57,53.9C57.6,54.5,57.6,55.5,57.3,56.2z"/>
</g>
</svg>
