<?xml version="1.0" encoding="utf-8"?>
<!-- Generator: Adobe Illustrator 22.0.1, SVG Export Plug-In . SVG Version: 6.00 Build 0)  -->
<svg version="1.1" id="Calque_1" xmlns="http://www.w3.org/2000/svg" xmlns:xlink="http://www.w3.org/1999/xlink" x="0px" y="0px"
	 viewBox="0 0 100 100" style="enable-background:new 0 0 100 100;" xml:space="preserve">
<path d="M12.3,34.5L12.3,34.5l6.6-15.2l0,0L12.3,34.5z M6.7,35.9L6.7,35.9L6.7,35.9L6.7,35.9z M18.9,19.2L18.9,19.2L18.9,19.2
	L18.9,19.2z M12.3,34.5l11.3-2.8L12.3,34.5L12.3,34.5z M18.9,19.2L18.9,19.2l-6.6,15.2L18.9,19.2z M18.9,19.2L18.9,19.2L18.9,19.2
	L18.9,19.2z M95.2,56.3L95.2,56.3L95.2,56.3L95.2,56.3L95.2,56.3L95.2,56.3z M95.2,56.2L95.2,56.2L95.2,56.2L95.2,56.2z M99.7,45.2
	v36.6c0,8.8-7.1,16-16,16H18c-8.8,0-16-7.3-16-16V67c0-1.3,1-2.3,2.4-2.3c1.3,0,2.1,1.1,2.1,2.4V82c0,6.3,5,11.3,11.3,11.3h65.9
	c6.4,0,11.5-5.1,11.5-11.5V60.9H6.5c-2.5,0-4.5-2-4.5-4.5V40.8l-1.4-5.3c-1-4.1-0.5-8.3,1.8-11.9c2.3-3.8,5.8-6.3,10-7.4L75.8,0.8
	c2.4-0.6,4.6-0.6,6.9-0.1c1.5,0.3,3,0.8,4.3,1.4c4,2,7.3,5.6,8.4,10.3l0.3,0.9c0.4,1.4,0.1,2.9-0.6,4.1c-0.8,1.3-2,2.1-3.5,2.5
	L10.9,39.6v0.4L25,39.8h3.6h14h3.6h14H64h14h3.6h12.7C97.4,39.8,99.7,42.2,99.7,45.2z M79.9,18.1l10.5-2.5c0.4-0.1,0.6-0.4,0.6-0.5
	c0.1-0.1,0.1-0.4,0.1-0.8L91,13.5c-0.9-3.3-3-5.9-5.9-7.3L79.9,18.1z M69.8,7l-6.6,15.3l11.4-2.8L80.9,5c-0.4,0-0.8,0-1.1,0
	c-0.9,0-1.9,0.1-2.9,0.4L69.8,7z M52.7,11.1l-6.6,15.3l11.5-2.8l6.6-15.3L52.7,11.1z M35.8,15.2l-6.8,15.2l11.5-2.8l6.6-15.3
	L35.8,15.2z M18.9,19.2l-6.6,15.2l0,0l0,0l11.3-2.8l6.6-15.3L18.9,19.2L18.9,19.2L18.9,19.2L18.9,19.2l-6.6,15.2L18.9,19.2
	L18.9,19.2z M15.6,15.7L15.6,15.7L15.6,15.7z M13.5,20.6L13.5,20.6L13.5,20.6z M6.7,35.9L6.7,35.9L6.7,35.9l6.6-15.3
	c-3,0.8-5.6,2.6-7.3,5.3c-1.1,1.8-1.6,3.8-1.6,5.8c0,0.9,0.1,1.9,0.4,2.8l0.5,1.8L6.7,35.9z M18.8,56.3l-9.9-12H6.5v10.8
	c0,0.8,0.6,1.3,1.3,1.3C7.7,56.3,18.8,56.3,18.8,56.3z M24.7,56.3h11.8l-9.9-12H14.8L24.7,56.3L24.7,56.3L24.7,56.3L24.7,56.3z
	 M42.2,56.3H54l-9.9-12H32.3L42.2,56.3L42.2,56.3L42.2,56.3L42.2,56.3z M59.9,56.3h11.8l-9.9-12H50L59.9,56.3L59.9,56.3L59.9,56.3
	L59.9,56.3z M77.6,56.3h11.8l-9.9-12H67.7L77.6,56.3L77.6,56.3L77.6,56.3L77.6,56.3z M95.2,56.1L95.2,56.1L95.2,56.1L95.2,56.1V45.4
	c0-0.6-0.5-1.1-1.1-1.1h-8.8L95.2,56.1z M95.4,56.3L95.4,56.3L95.4,56.3L95.4,56.3L95.4,56.3L95.4,56.3z M36.7,73.1h26.6
	c0.5,0,1.1-0.3,1.5-0.6c0.4-0.4,0.6-0.9,0.6-1.5c0-0.5-0.3-1.1-0.6-1.5c-0.4-0.4-0.9-0.6-1.5-0.6H36.7c-0.5,0-1.1,0.3-1.5,0.6
	c-0.5,0.5-0.8,1.4-0.5,2.1c0.1,0.4,0.3,0.6,0.5,0.9C35.6,72.9,36.1,73.1,36.7,73.1z M24.7,56.3L24.7,56.3L24.7,56.3L24.7,56.3z
	 M42.3,56.3L42.3,56.3L42.3,56.3L42.3,56.3z M77.7,56.3L77.7,56.3L77.7,56.3L77.7,56.3z M60,56.3L60,56.3L60,56.3L60,56.3z"/>
</svg>
