<?xml version="1.0" encoding="utf-8"?>
<!-- Generator: Adobe Illustrator 22.0.1, SVG Export Plug-In . SVG Version: 6.00 Build 0)  -->
<svg version="1.1" id="Calque_1" xmlns="http://www.w3.org/2000/svg" xmlns:xlink="http://www.w3.org/1999/xlink" x="0px" y="0px"
	 viewBox="0 0 100 100" style="enable-background:new 0 0 100 100;" xml:space="preserve">
<path d="M93,86.6h-1.7V61.2c0-3.6-2.7-6.5-6.3-6.5c-3.6,0-6.3,2.9-6.3,6.5v25.4H68.2V61.2c0-3.6-2.7-6.5-6.3-6.5
	c-3.6,0-6.3,2.9-6.3,6.5v25.4H45.1V61.2c0-3.6-2.7-6.5-6.3-6.5c-3.6,0-6.3,2.9-6.3,6.5v25.4H22.1V61.2c0-3.6-3-6.5-6.5-6.5
	s-6.5,2.9-6.5,6.5v25.4H7.3c-3.6,0-6.5,3-6.5,6.5c0,3.6,2.9,6.5,6.5,6.5h85.6c3.6,0,6.5-3,6.5-6.5C99.5,89.6,96.6,86.6,93,86.6z
	 M82.9,61.2c0-1.2,0.9-2.2,2.1-2.2c1.2,0,2.1,1,2.1,2.2v25.2h-4.2C82.9,86.3,82.9,61.2,82.9,61.2z M59.9,61.2c0-1.2,0.9-2.2,2.1-2.2
	s2.1,1,2.1,2.2v25.2h-4.2V61.2z M36.8,61.2c0-1.2,0.9-2.2,2.1-2.2s2.1,1,2.1,2.2v25.2h-4.2V61.2z M13.5,61.2c0-1.2,1-2.2,2.2-2.2
	s2.2,1,2.2,2.2v25.2h-4.5C13.5,86.3,13.5,61.2,13.5,61.2z M93,95.3H7.4c-1.2,0-2.2-1-2.2-2.2c0-1.2,1-2.2,2.2-2.2H93
	c1.2,0,2.2,1,2.2,2.2C95.3,94.3,94.3,95.3,93,95.3z M8.3,51.7h84c4,0,6.9-3.1,6.9-7.1l0,0c0-3-1.7-5.6-4.6-6.7L53.1,23.1
	c-0.1-0.1-0.2-0.1-0.5-0.1v-5.7H57c0.4,0,0.7,0,1.1-0.1c0.2,2.6,2.5,4.6,5.1,4.6h8.7V5.3h-9.1c-0.2,0-0.4,0-0.6,0
	c-0.2-2.6-2.5-4.6-5.1-4.6h-8.9v2.1V17v5.8h-0.1L5.7,37.7c-2.9,1-4.7,3.7-4.7,6.7C1.1,48.6,4.3,51.7,8.3,51.7z M62.9,9.5h4.8v7.8
	h-4.5c-0.5,0-0.9-0.5-0.9-1v-4.7V9.9C62.4,9.8,62.6,9.5,62.9,9.5z M58.2,5.9V10v1.7c0,0.6-0.5,1.2-1.2,1.2h-4.5V5.2h4.7
	C57.7,5.1,58.2,5.4,58.2,5.9z M7.2,41.9L49.6,27c0.4-0.1,0.6-0.1,1-0.1s0.7,0.1,1,0.2l41.6,14.9c1.1,0.4,1.9,1.5,1.9,2.7l0,0
	c0,1.6-1.1,2.9-2.7,2.9h-84c-1.6,0-2.9-1.2-2.9-2.9C5.3,43.4,6.1,42.3,7.2,41.9z"/>
</svg>
