<?xml version="1.0" encoding="utf-8"?>
<!-- Generator: Adobe Illustrator 22.0.1, SVG Export Plug-In . SVG Version: 6.00 Build 0)  -->
<svg version="1.1" id="Calque_1" xmlns="http://www.w3.org/2000/svg" xmlns:xlink="http://www.w3.org/1999/xlink" x="0px" y="0px"
	 viewBox="0 0 100 100" style="enable-background:new 0 0 100 100;" xml:space="preserve">
<path d="M29.4,32.7c0.2,0,0.4,0,0.6-0.1c1.2-0.3,2-1.6,1.6-2.9c-0.2-0.6-0.6-1.1-1.1-1.4s-1.2-0.4-1.8-0.2c-0.6,0.2-1.1,0.6-1.4,1.1
	C27,29.8,27,30.4,27.1,31C27.4,32,28.4,32.7,29.4,32.7z M29.4,30.2C29.4,30.2,29.4,30.2,29.4,30.2c0.1,0,0.1,0,0.2,0.1l-0.1,0.2
	c-0.1,0-0.1,0-0.2-0.1C29.2,30.3,29.3,30.3,29.4,30.2z"/>
<path d="M38.3,43.4c0.1,0,0.2,0,0.3,0c0.3,0,0.5-0.1,0.8-0.3c0.3-0.2,0.5-0.6,0.5-1c0-1.4-0.2-14.1-3.2-17.9c-1.6-2-3.8-3.3-6.3-3.6
	c-2.5-0.3-5,0.4-7,1.9c-2,1.6-3.3,3.8-3.6,6.3c-0.3,2.5,0.4,5,1.9,7C24.7,39.7,36.9,43,38.3,43.4z M22.3,29.3
	c0.2-1.9,1.2-3.5,2.6-4.7c1.2-1,2.7-1.5,4.3-1.5c0.3,0,0.6,0,0.9,0.1c1.9,0.2,3.5,1.2,4.7,2.6c1.8,2.3,2.5,10.3,2.6,14.7
	c-4.2-1.2-11.8-3.8-13.6-6.1C22.5,33,22,31.1,22.3,29.3z"/>
<path d="M53.6,60.8c-1.5-0.6-3-1.4-4.4-2.1c-0.6-0.3-1.4,0-1.7,0.6c-0.3,0.6,0,1.4,0.6,1.7c1.5,0.7,3,1.5,4.5,2.1
	c0.2,0.1,0.3,0.1,0.5,0.1c0.5,0,0.9-0.3,1.1-0.7C54.5,61.8,54.2,61.1,53.6,60.8z"/>
<path d="M35.3,52.8c-1.9-0.5-3.5-0.7-5.2-0.7c-0.7,0-1.2,0.6-1.2,1.2c0,0.7,0.6,1.2,1.3,1.2c1.4,0,2.8,0.2,4.5,0.6
	c0.1,0,0.2,0,0.3,0c0.5,0,1-0.4,1.2-0.9C36.4,53.7,36,53,35.3,52.8z"/>
<path d="M71.7,61.7c-1.5,0.6-3,1.1-4.5,1.4c-0.7,0.1-1.1,0.8-1,1.5c0.1,0.6,0.6,1,1.2,1c0.1,0,0.2,0,0.2,0c1.6-0.3,3.3-0.8,4.9-1.5
	c0.6-0.3,0.9-1,0.7-1.6C73,61.7,72.3,61.4,71.7,61.7z"/>
<path d="M62.6,63.4c-0.2,0-0.4,0-0.6,0c-1.2-0.1-2.5-0.4-4-0.8c-0.7-0.2-1.3,0.2-1.5,0.8c-0.2,0.7,0.2,1.3,0.8,1.5
	c1.7,0.5,3.1,0.8,4.5,0.9c0.2,0,0.4,0,0.7,0c0,0,0,0,0.1,0c0.7,0,1.2-0.5,1.2-1.2C63.8,64,63.3,63.4,62.6,63.4z"/>
<path d="M73.5,0.8c-10.3,0-19.2,6-23.4,14.8L39,1.2c-0.2-0.3-0.5-0.4-0.8-0.5c-0.3,0-0.7,0.1-0.9,0.3l-36,28.1
	c-0.3,0.2-0.4,0.5-0.5,0.8c0,0.3,0.1,0.7,0.3,0.9L54.2,99c0.2,0.3,0.6,0.5,1,0.5c0.3,0,0.5-0.1,0.8-0.3l36-28.1
	c0.3-0.2,0.4-0.5,0.5-0.8c0-0.3-0.1-0.7-0.3-0.9L78.7,52.1c11.8-2.4,20.8-12.9,20.8-25.4C99.5,12.4,87.9,0.8,73.5,0.8z M37.8,3.7
	l11.2,14.4c-0.9,2.7-1.5,5.6-1.5,8.6c0,4.5,1.1,8.7,3.1,12.4c-2,1.6-8.6,7.5-7.7,16.7c-1.1-0.5-2-0.9-2.9-1.3
	c-0.6-0.3-1.4,0-1.6,0.7c-0.3,0.6,0,1.4,0.7,1.6c1.3,0.5,2.7,1.2,4.4,2c0.2,0.6,0.3,1.2,0.6,1.9c3.4,9.3,0.7,17.3-0.7,20.6
	L24.1,56.5c0.5-0.4,1.1-0.8,1.7-1c0.6-0.3,0.9-1,0.6-1.6c-0.3-0.6-1-0.9-1.6-0.6c-0.8,0.3-1.5,0.8-2.2,1.3L3.7,30.3L37.8,3.7z
	 M79.4,57c-1.1,0.9-2.3,1.8-3.5,2.5c-0.6,0.4-0.8,1.1-0.4,1.7c0.2,0.4,0.6,0.6,1,0.6c0.2,0,0.4-0.1,0.7-0.2c1.2-0.8,2.5-1.7,3.7-2.6
	l8.6,11L55.4,96.5L45.1,83.4c1.4-2.7,5.5-12.1,1.3-23.7C42.8,49.5,49.7,43,52,41.2c4.7,6.9,12.6,11.5,21.5,11.5c0.8,0,1.6,0,2.4-0.1
	L79.4,57z M73.5,50.2c-13,0-23.5-10.5-23.5-23.5S60.6,3.2,73.5,3.2S97,13.8,97,26.7S86.5,50.2,73.5,50.2z"/>
<path d="M73.5,4.6c-12.2,0-22.1,9.9-22.1,22.1c0,6.1,2.5,11.7,6.6,15.7c0,0.1,0.1,0.1,0.1,0.2c0.1,0.1,0.2,0.1,0.3,0.2
	c3.9,3.7,9.2,6,15.1,6c12.2,0,22.1-9.9,22.1-22.1S85.7,4.6,73.5,4.6z M59.1,13.5l2,2c0.2,0.2,0.6,0.4,0.9,0.4c0.3,0,0.6-0.1,0.9-0.4
	c0.5-0.5,0.5-1.3,0-1.7l-2-2C64,9.1,68,7.4,72.4,7.2V10c0,0.7,0.6,1.2,1.2,1.2c0.7,0,1.2-0.6,1.2-1.2V7.2c4.6,0.3,8.7,2.2,11.9,5.1
	l-2.1,2.1c-0.5,0.5-0.5,1.3,0,1.7c0.2,0.2,0.6,0.4,0.9,0.4c0.3,0,0.6-0.1,0.9-0.4l2.1-2.1c2.6,3,4.2,6.8,4.6,11h-2.8
	c-0.7,0-1.2,0.6-1.2,1.2c0,0.7,0.6,1.2,1.2,1.2h2.8c-0.2,4.5-1.9,8.6-4.7,11.9l-1.8-1.8c-0.5-0.5-1.3-0.5-1.7,0
	c-0.5,0.5-0.5,1.3,0,1.7l1.8,1.8c-3.2,2.9-7.3,4.7-11.8,5.1v-2.5c0-0.7-0.6-1.2-1.2-1.2c-0.7,0-1.2,0.6-1.2,1.2v2.5
	C68,46,64,44.3,60.9,41.6l1.7-1.7c0.5-0.5,0.5-1.3,0-1.7c-0.5-0.5-1.3-0.5-1.7,0l-1.7,1.7c-3-3.3-4.9-7.6-5.1-12.4h2.7
	c0.7,0,1.2-0.6,1.2-1.2s-0.6-1.2-1.2-1.2H54C54.4,20.7,56.2,16.7,59.1,13.5z"/>
<path d="M65.8,36c0.2,0,0.4,0,0.6-0.1l10.4-5.4c0.2-0.1,0.4-0.3,0.5-0.5l5.4-10.4c0.2-0.5,0.2-1.1-0.2-1.4c-0.4-0.4-1-0.5-1.4-0.2
	l-10.4,5.4c-0.2,0.1-0.4,0.3-0.5,0.5l-5.4,10.4c-0.2,0.5-0.2,1.1,0.2,1.4C65.1,35.9,65.4,36,65.8,36z M72,25.3l6.7-3.4l-3.4,6.7
	l-6.7,3.4L72,25.3z"/>
</svg>
