<?xml version="1.0" encoding="utf-8"?>
<!-- Generator: Adobe Illustrator 22.0.1, SVG Export Plug-In . SVG Version: 6.00 Build 0)  -->
<svg version="1.1" id="Calque_1" xmlns="http://www.w3.org/2000/svg" xmlns:xlink="http://www.w3.org/1999/xlink" x="0px" y="0px"
	 viewBox="0 0 100 100" style="enable-background:new 0 0 100 100;" xml:space="preserve">
<title>Artboard 18</title>
<path d="M21.2,54.3c0.2-1.4,1.5-2.3,2.9-2.1s2.3,1.5,2.1,2.9c-0.2,1.4,0.7,2.7,2,2.9c0.1,0,0.3,0,0.4,0c1.2,0,2.3-0.9,2.5-2.1
	c0.7-4.1-2.1-8-6.2-8.7s-8,2.1-8.7,6.2c-0.3,1.4,0.6,2.7,2,2.9C19.6,56.7,20.9,55.8,21.2,54.3C21.2,54.4,21.2,54.4,21.2,54.3
	L21.2,54.3z"/>
<path d="M45,50.7c-4.1-0.7-8,2.1-8.6,6.2c-0.3,1.4,0.6,2.7,2,2.9s2.7-0.6,2.9-2c0,0,0-0.1,0-0.1c0.2-1.4,1.5-2.3,2.9-2.1
	s2.3,1.5,2.1,2.9c-0.2,1.4,0.7,2.7,2,2.9c0.1,0,0.3,0,0.4,0c1.2,0,2.3-0.9,2.5-2.1C51.9,55.2,49.1,51.4,45,50.7z"/>
<path d="M44.8,68.4c-1.1-0.8-2.7-0.5-3.5,0.6c-3.3,4.8-9.9,6-14.7,2.6c-2-1.4-3.5-3.4-4.1-5.8c-0.4-1.3-1.8-2.1-3.1-1.7
	c-1.3,0.4-2.1,1.8-1.7,3.1c1.7,5.8,6.5,10.1,12.4,11.1c0.8,0.1,1.7,0.2,2.5,0.2c5.1,0,9.9-2.5,12.8-6.7
	C46.2,70.8,45.9,69.2,44.8,68.4z"/>
<path d="M80.1,20.7c-3.5-2.2-8.1-1.2-10.4,2.3c-1.1,1.7-1.4,3.7-1,5.7c0.3,1.3,1.6,2.2,3,1.9s2.2-1.6,1.9-3c-0.3-1.4,0.5-2.7,1.9-3
	c0,0,0,0,0,0c1.4-0.3,2.7,0.5,3,1.9c0,0,0,0,0,0c0.3,1.3,1.6,2.2,3,1.9s2.2-1.6,1.9-3C83,23.5,81.8,21.8,80.1,20.7z"/>
<path d="M94.2,4.5c-0.2-0.9-1-1.7-1.9-1.9C70.8-1.6,48.6,3.4,31,16.4c-0.8,0.6-1.2,1.5-1,2.5l0.6,2.6c0.5,2.5,1,5.1,1.6,7.8
	c-8.7-0.8-17.6-0.1-26.1,2c-1,0.2-1.7,1-1.8,2l-0.5,2.5C1,50.2-2.4,68.1,8,84.8c4.2,6.7,11.1,11.3,18.9,12.7c1.5,0.3,3,0.4,4.5,0.4
	c6.3,0,12.5-2.2,17.4-6.2c6.9-5.7,12.1-13.2,15-21.7c11.8,2.4,23.8-3.2,29.5-13.8c9.5-17.2,5.1-34.9,1.6-49.1L94.2,4.5z M45.7,87.7
	C36,95.6,21.9,94.2,14,84.5c-0.6-0.8-1.2-1.6-1.7-2.4c-9.4-15-6.2-31.8-3.5-45.4l0.2-1c18.8-4.3,38.6-1,55,9.2l-0.2,1
	C61.8,59.7,59.4,76.6,45.7,87.7z M88.9,53.7c-4.6,8.5-14.1,13.1-23.7,11.4c1.6-6.1,2.7-12.2,3.5-18.4l0.1-0.4l0.5-0.1
	c4-0.9,8.1,0.6,10.6,3.8c0.9,1.1,2.4,1.3,3.5,0.4s1.3-2.4,0.4-3.5l0,0c-3.7-4.7-9.8-6.9-15.7-5.6l-0.6,0.2
	c-4.5-2.9-9.4-5.4-14.4-7.3c0.2-0.5,0.3-1.1,0.2-1.6c-0.3-1.4,0.5-2.7,1.9-3c0,0,0,0,0,0c0.6-0.1,1.3,0,1.9,0.3
	c0.6,0.4,1,0.9,1.1,1.6c0.3,1.3,1.6,2.2,3,1.9c1.3-0.3,2.2-1.6,1.9-3l0,0c-0.9-4.1-4.9-6.6-8.9-5.8c-3.7,0.8-6.2,4.2-5.9,8
	c-3.6-1.1-7.2-2-10.9-2.6c-0.8-3.2-1.4-6.4-2-9.4l-0.2-1C51.1,8.4,70.7,4,89.8,7.3l0.2,1C93.3,21.6,97.5,38.3,88.9,53.7L88.9,53.7z"
	/>
</svg>
