<?xml version="1.0" encoding="utf-8"?>
<!-- Generator: Adobe Illustrator 22.0.1, SVG Export Plug-In . SVG Version: 6.00 Build 0)  -->
<svg version="1.1" id="Calque_1" xmlns="http://www.w3.org/2000/svg" xmlns:xlink="http://www.w3.org/1999/xlink" x="0px" y="0px"
	 viewBox="0 0 100 100" style="enable-background:new 0 0 100 100;" xml:space="preserve">
<g>
	<path d="M48.8,26.1c5.7,0,10.3-4.6,10.3-10.3S54.5,5.6,48.8,5.6s-10.3,4.6-10.3,10.3C38.6,21.5,43.2,26.1,48.8,26.1z M48.8,9.1
		c3.7,0,6.7,3,6.7,6.7c0,3.7-3,6.7-6.7,6.7c-3.7,0-6.7-3-6.7-6.7C42.1,12.2,45.1,9.1,48.8,9.1z"/>
	<path d="M95.7,91.2H71.3v-6.7h11.5c1,0,1.8-0.8,1.8-1.8s-0.8-1.8-1.8-1.8H71.3V44.6c0-1-0.8-1.8-1.8-1.8h-5.2l-3.5-13.3
		c-0.2-0.8-0.9-1.3-1.7-1.3H38.5c-0.8,0-1.5,0.5-1.7,1.3l-3.4,13.3h-4c-1,0-1.8,0.8-1.8,1.8v36.2H17.1c-1,0-1.8,0.8-1.8,1.8
		s0.8,1.8,1.8,1.8h10.5v6.7H7c-1,0-1.8,0.8-1.8,1.8S6,94.7,7,94.7h88.7c1,0,1.8-0.8,1.8-1.8S96.7,91.2,95.7,91.2z M39.9,31.8h17.9
		l2.9,11h-10v-5.7c0-1-0.8-1.8-1.8-1.8c-1,0-1.8,0.8-1.8,1.8v5.7H37L39.9,31.8z M38.8,91.2V54.6h21.5v36.6H38.8z M63.9,91.2V52.8
		c0-1-0.8-1.8-1.8-1.8h-25c-1,0-1.8,0.8-1.8,1.8v38.4h-4.2V46.4h36.6v44.8H63.9z"/>
	<path d="M13.8,67.8c0,1,0.8,1.8,1.8,1.8s1.8-0.8,1.8-1.8v-36h12c1,0,1.8-0.8,1.8-1.8V12.9c0-1-0.8-1.8-1.8-1.8H1.8
		c-1,0-1.8,0.8-1.8,1.8v17.1c0,1,0.8,1.8,1.8,1.8h12V67.8z M3.6,14.7h24v13.5h-24V14.7z"/>
	<path d="M98.1,11.2H70.5c-1,0-1.8,0.8-1.8,1.8v17.1c0,1,0.8,1.8,1.8,1.8h12v36c0,1,0.8,1.8,1.8,1.8s1.8-0.8,1.8-1.8v-36h12
		c1,0,1.8-0.8,1.8-1.8V12.9C99.9,12,99.1,11.2,98.1,11.2z M96.3,28.3h-24V14.7h24V28.3z"/>
</g>
</svg>
