<?xml version="1.0" encoding="utf-8"?>
<!-- Generator: Adobe Illustrator 22.0.1, SVG Export Plug-In . SVG Version: 6.00 Build 0)  -->
<svg version="1.1" id="Calque_1" xmlns="http://www.w3.org/2000/svg" xmlns:xlink="http://www.w3.org/1999/xlink" x="0px" y="0px"
	 viewBox="0 0 100 100" style="enable-background:new 0 0 100 100;" xml:space="preserve">
<path d="M17,36.5L17,36.5l5.9-13.4l0,0L17,36.5z M12.1,37.8L12.1,37.8L12.1,37.8L12.1,37.8z M22.8,23L22.8,23L22.8,23L22.8,23z
	 M17,36.5l10-2.4L17,36.5L17,36.5z M22.8,23L22.8,23L17,36.4L22.8,23z M22.8,23L22.8,23L22.8,23L22.8,23z M90.3,55.8L90.3,55.8
	L90.3,55.8L90.3,55.8L90.3,55.8L90.3,55.8z M90.3,55.7L90.3,55.7L90.3,55.7L90.3,55.7z M94.3,46v32.4c0,7.8-6.3,14.2-14.2,14.2H22.1
	c-7.8,0-14.2-6.4-14.2-14.2V65.2c0-1.1,0.9-2,2.1-2c1.1,0,1.9,1,1.9,2.1v13.2c0,5.5,4.4,10,10,10h58.3c5.7,0,10.2-4.5,10.2-10.2
	V59.8H11.9c-2.2,0-4-1.8-4-4V42.1l-1.2-4.7c-0.9-3.7-0.4-7.3,1.6-10.5c2-3.3,5.1-5.5,8.9-6.5L73.1,6.7c2.1-0.6,4.1-0.6,6.1-0.1
	c1.3,0.2,2.7,0.7,3.8,1.2c3.5,1.8,6.4,5,7.4,9.1l0.2,0.8c0.3,1.2,0.1,2.5-0.6,3.7c-0.7,1.1-1.8,1.9-3.1,2.2L15.7,41v0.3l12.5-0.1
	h3.2h12.4h3.2h12.4h3.2h12.4h3.2h11.2C92.2,41.2,94.3,43.3,94.3,46z M76.8,22l9.3-2.2c0.3-0.1,0.6-0.3,0.6-0.4
	c0.1-0.1,0.1-0.3,0.1-0.7l-0.2-0.8c-0.8-2.9-2.7-5.2-5.2-6.4L76.8,22z M67.8,12.2l-5.9,13.5L72,23.3l5.7-12.9c-0.3,0-0.7,0-1,0
	c-0.8,0-1.7,0.1-2.5,0.3L67.8,12.2z M52.7,15.8l-5.9,13.5l10.2-2.4l5.9-13.5L52.7,15.8z M37.8,19.5l-6,13.4L42,30.5l5.9-13.5
	L37.8,19.5z M22.8,23L17,36.4l0,0l0,0l10-2.4l5.9-13.5L22.8,23L22.8,23L22.8,23L22.8,23L17,36.4L22.8,23L22.8,23z M19.9,19.9
	L19.9,19.9L19.9,19.9z M18.1,24.2L18.1,24.2L18.1,24.2z M12.1,37.8L12.1,37.8L12.1,37.8L18,24.2c-2.7,0.7-5,2.3-6.4,4.7
	c-1,1.6-1.4,3.3-1.4,5.1c0,0.8,0.1,1.7,0.3,2.4l0.4,1.6L12.1,37.8z M22.7,55.8L14,45.2h-2.1v9.5c0,0.7,0.6,1.1,1.1,1.1
	C13,55.8,22.7,55.8,22.7,55.8z M27.9,55.8h10.4l-8.8-10.6H19.2L27.9,55.8L27.9,55.8L27.9,55.8L27.9,55.8z M43.4,55.8h10.4l-8.8-10.6
	H34.7L43.4,55.8L43.4,55.8L43.4,55.8L43.4,55.8z M59.1,55.8h10.4l-8.8-10.6H50.3L59.1,55.8L59.1,55.8L59.1,55.8L59.1,55.8z
	 M74.7,55.8h10.4l-8.8-10.6H65.9L74.7,55.8L74.7,55.8L74.7,55.8L74.7,55.8z M90.3,55.6L90.3,55.6L90.3,55.6L90.3,55.6v-9.4
	c0-0.6-0.4-1-1-1h-7.8L90.3,55.6z M90.4,55.8L90.4,55.8L90.4,55.8L90.4,55.8L90.4,55.8L90.4,55.8z M38.6,70.7H62
	c0.4,0,1-0.2,1.3-0.6c0.3-0.3,0.6-0.8,0.6-1.3c0-0.4-0.2-1-0.6-1.3c-0.3-0.3-0.8-0.6-1.3-0.6H38.6c-0.4,0-1,0.2-1.3,0.6
	c-0.4,0.4-0.7,1.2-0.4,1.9c0.1,0.3,0.2,0.6,0.4,0.8C37.6,70.5,38,70.7,38.6,70.7z M27.9,55.8L27.9,55.8L27.9,55.8L27.9,55.8z
	 M43.5,55.8L43.5,55.8L43.5,55.8L43.5,55.8z M74.8,55.8L74.8,55.8L74.8,55.8L74.8,55.8z M59.2,55.8L59.2,55.8L59.2,55.8L59.2,55.8z"
	/>
</svg>
