<?xml version="1.0" encoding="utf-8"?>
<!-- Generator: Adobe Illustrator 22.0.1, SVG Export Plug-In . SVG Version: 6.00 Build 0)  -->
<svg version="1.1" id="Calque_1" xmlns="http://www.w3.org/2000/svg" xmlns:xlink="http://www.w3.org/1999/xlink" x="0px" y="0px"
	 viewBox="0 0 60 60" style="enable-background:new 0 0 60 60;" xml:space="preserve">
<g>
	<path d="M50.5,28.5c4.6-9.1,7.9-18.9,9.1-26.8c0.1-0.5-0.2-1.1-0.7-1.4c-0.5-0.1-1.1,0-1.5,0.4C51.8,7.1,46.3,16.7,42,26.7
		c-1.9-0.2-3.7-0.5-4.3-1c-1.9-1.4-1.5-4.1-0.7-8.3c1.1-5.6,2.3-12.5-5.6-16C22.2-2.8,10.2,6.9,5.8,13c-9.4,13.2-6.3,31.6,6.9,41
		c5.3,3.8,11.5,5.7,17.6,5.7c6.7,0,13.3-2.2,18.4-6.7c3.2-2.8,5.7-6.5,7-10.9c1.2-3.7,1.1-6.9-0.1-9.3C54.7,31,52.9,29.5,50.5,28.5z
		 M56.2,6.5c-2.3,9.5-7.2,21-13.1,30.6l-2-1C44.7,25.5,50.3,14.3,56.2,6.5z M42.5,39.4c-0.1,1.6-0.9,4.1-1.2,4.9
		c-0.4,0.9-3,3.5-5.3,5.8c0.2-3.3,0.6-6.9,1-7.8c0.4-0.7,1.9-3,3-4.1l1.4,0.6L42.5,39.4z M53.4,41.4c-1.2,3.8-3.3,7.3-6.3,9.8
		c-8.9,7.8-22.8,8.1-33,1C2.1,43.4-0.7,26.6,7.8,14.5C11.8,8.8,23,0.3,30.5,3.6c6.2,2.7,5.2,7.9,4.1,13.2c-0.7,4.2-1.6,8.4,1.7,10.9
		c1,0.7,2.7,1.1,4.8,1.4c-0.9,2.2-1.7,4.6-2.5,6.8c-1.6,1.2-3.6,4.3-4.1,5.4c-0.9,2-1.2,10.1-1.4,11.8c0,0.5,0.2,1,0.7,1.1
		c0.5,0.2,0.9,0.1,1.4-0.2c1.2-1.1,7.3-6.7,8.1-8.6c0.5-1,1.6-4.6,1.5-6.5c1.6-2.6,3.1-5.3,4.6-8c2,0.7,3.3,1.9,4.1,3.2
		C54.4,35.7,54.3,38.2,53.4,41.4z"/>
	<path d="M24.7,6.5c-3.1,0-5.7,2.5-5.7,5.7s2.5,5.7,5.7,5.7c3.1,0,5.7-2.5,5.7-5.7S27.9,6.5,24.7,6.5z M24.7,15.3
		c-1.7,0-3.2-1.4-3.2-3.2s1.4-3.2,3.2-3.2c1.7,0,3.2,1.4,3.2,3.2S26.5,15.3,24.7,15.3z"/>
	<path d="M19.4,26.9c0-3.1-2.5-5.7-5.7-5.7c-3.1,0-5.7,2.5-5.7,5.7s2.5,5.7,5.7,5.7S19.4,30,19.4,26.9z M10.6,26.9
		c0-1.7,1.4-3.2,3.2-3.2c1.7,0,3.2,1.4,3.2,3.2c0,1.7-1.4,3.2-3.2,3.2S10.6,28.7,10.6,26.9z"/>
	<path d="M17.8,35.7c-3.1,0-5.7,2.5-5.7,5.7c0,3.1,2.5,5.7,5.7,5.7s5.7-2.5,5.7-5.7C23.3,38.3,20.9,35.7,17.8,35.7z M17.8,44.6
		c-1.7,0-3.2-1.4-3.2-3.2c0-1.7,1.4-3.2,3.2-3.2s3.2,1.4,3.2,3.2C20.9,43.1,19.5,44.6,17.8,44.6z"/>
</g>
</svg>
