<svg xmlns="http://www.w3.org/2000/svg" xmlns:xlink="http://www.w3.org/1999/xlink" version="1.1" x="0px" y="0px" viewBox="0 0 48 60" enable-background="new 0 0 48 48" xml:space="preserve"><g><path d="M41,7c-4.5-4.5-10.6-7-17-7C17.6,0,11.6,2.5,7,7c-4.5,4.5-7,10.6-7,17c0,6.4,2.5,12.4,7,17c4.5,4.5,10.6,7,17,7   c6.4,0,12.4-2.5,17-7c4.5-4.5,7-10.6,7-17C48,17.6,45.5,11.6,41,7z M21.9,2.1c0,6,2.2,11.9,6.3,16.3L24,22.6L9.2,7.8   C12.7,4.5,17.1,2.6,21.9,2.1z M7.8,9.2L22.6,24l-4.1,4.1C14,24,8.2,21.7,2.1,21.7C2.6,17,4.6,12.7,7.8,9.2z M24,46   c-5.9,0-11.4-2.3-15.6-6.4C4.3,35.4,2,29.9,2,24c0-0.1,0-0.2,0-0.3c5.8,0,11.5,2.3,15.7,6.4c4.2,4.2,6.5,9.9,6.4,15.8   C24.1,46,24,46,24,46z M26.1,45.9c0-6-2.2-11.9-6.3-16.3l4.1-4.1l14.8,14.8C35.3,43.5,30.9,45.4,26.1,45.9z M40.2,38.8L25.4,24   l4.1-4.1c4.4,4.1,10.3,6.4,16.3,6.4C45.4,31,43.4,35.3,40.2,38.8z M30.3,17.8c-4.2-4.2-6.5-9.9-6.4-15.8c0,0,0.1,0,0.1,0   c5.9,0,11.4,2.3,15.6,6.4C43.7,12.6,46,18.1,46,24c0,0.1,0,0.2,0,0.3C40.1,24.3,34.5,22,30.3,17.8z"/></g><text x="0" y="63" fill="#000000" font-size="5px" font-weight="bold" font-family="'Helvetica Neue', Helvetica, Arial-Unicode, Arial, Sans-serif">Created by Vectors Market</text><text x="0" y="68" fill="#000000" font-size="5px" font-weight="bold" font-family="'Helvetica Neue', Helvetica, Arial-Unicode, Arial, Sans-serif">from the Noun Project</text></svg>