<svg xmlns="http://www.w3.org/2000/svg" xmlns:xlink="http://www.w3.org/1999/xlink" version="1.1" x="0px" y="0px" viewBox="0 0 100 125" style="enable-background:new 0 0 100 100;" xml:space="preserve"><style type="text/css">
	.st0{fill:none;stroke:#000000;stroke-width:3;stroke-miterlimit:10;}
	.st1{fill:none;stroke:#000000;stroke-width:3;stroke-linecap:round;stroke-miterlimit:10;}
	.st2{stroke:#000000;stroke-width:3;stroke-miterlimit:10;}
	.st3{fill:none;stroke:#000000;stroke-width:3;stroke-linecap:round;stroke-miterlimit:10;stroke-dasharray:0.9168,4.5841;}
	.st4{fill:none;stroke:#000000;stroke-width:3;stroke-linecap:round;stroke-miterlimit:10;stroke-dasharray:0.927,4.6349;}
	.st5{fill:none;stroke:#000000;stroke-width:3;stroke-linecap:round;stroke-linejoin:round;stroke-miterlimit:10;}
	.st6{stroke:#000000;stroke-width:2;stroke-linecap:round;stroke-miterlimit:10;}
	.st7{fill:none;stroke:#000000;stroke-width:2;stroke-miterlimit:10;}
	.st8{fill:none;stroke:#000000;stroke-width:3;stroke-linecap:round;stroke-miterlimit:10;stroke-dasharray:8.6214,4.7897;}
	.st9{fill:none;stroke:#000000;stroke-width:3;stroke-linecap:round;stroke-miterlimit:10;stroke-dasharray:7.9816,4.4342;}
	.st10{fill:none;stroke:#000000;stroke-width:3;stroke-linecap:round;stroke-miterlimit:10;stroke-dasharray:8.3321,4.629;}
	
		.st11{fill:none;stroke:#000000;stroke-width:3;stroke-linecap:round;stroke-linejoin:round;stroke-miterlimit:10;stroke-dasharray:6,5;}
</style><path d="M50.3,22.9c5,0,9-4,9-9s-4-9-9-9s-9,4-9,9S45.3,22.9,50.3,22.9z M50.3,7.9c3.3,0,6,2.7,6,6s-2.7,6-6,6s-6-2.7-6-6  S47,7.9,50.3,7.9z M68.3,65.5c0,0.8,0.7,1.5,1.5,1.5s1.5-0.7,1.5-1.5V43.7h-4.5v-1.9c0-8.5-6.9-15.4-15.4-15.4h-2.2  c-8.5,0-15.4,6.9-15.4,15.4v1.9h-4.5v21.9c0,0.8,0.7,1.5,1.5,1.5s1.5-0.7,1.5-1.5V46.7h35.9V65.5z M36.8,41.8  c0-6.8,5.6-12.4,12.4-12.4h2.2c6.8,0,12.4,5.6,12.4,12.4v1.9h-6.2v-1.2h1c0.8,0,1.5-0.7,1.5-1.5s-0.7-1.5-1.5-1.5h-4v4.2H46v-4.2h-4  c-0.8,0-1.5,0.7-1.5,1.5s0.7,1.5,1.5,1.5h1v1.2h-6.2V41.8z M57.8,56.8c0-4.3-3.5-7.8-7.8-7.8s-7.8,3.5-7.8,7.8s3.5,7.8,7.8,7.8  S57.8,61.1,57.8,56.8z M45.2,56.8c0-2.6,2.1-4.8,4.8-4.8s4.8,2.1,4.8,4.8s-2.1,4.8-4.8,4.8S45.2,59.4,45.2,56.8z M64,80.1v15h-5.7  c-0.8,0-1.5-0.7-1.5-1.5s0.7-1.5,1.5-1.5H61v-12C61,74.5,56.5,70,50.9,70h-1.9C43.5,70,39,74.5,39,80.1v12h2.7  c0.8,0,1.5,0.7,1.5,1.5s-0.7,1.5-1.5,1.5H36v-15C36,72.9,41.8,67,49.1,67h1.9C58.2,67,64,72.9,64,80.1z M43.1,77.9h3.6v15.7  c0,0.8-0.7,1.5-1.5,1.5s-1.5-0.7-1.5-1.5V80.9h-0.6c-0.8,0-1.5-0.7-1.5-1.5S42.3,77.9,43.1,77.9z M56.9,80.9h-0.6v12.7  c0,0.8-0.7,1.5-1.5,1.5s-1.5-0.7-1.5-1.5V77.9h3.6c0.8,0,1.5,0.7,1.5,1.5S57.7,80.9,56.9,80.9z M18.5,64.6c4.3,0,7.8-3.5,7.8-7.8  S22.8,49,18.5,49s-7.8,3.5-7.8,7.8S14.2,64.6,18.5,64.6z M18.5,52c2.6,0,4.8,2.1,4.8,4.8s-2.1,4.8-4.8,4.8s-4.8-2.1-4.8-4.8  S15.9,52,18.5,52z M32.5,80.1v15h-5.7c-0.8,0-1.5-0.7-1.5-1.5s0.7-1.5,1.5-1.5h2.7v-12C29.5,74.5,25,70,19.4,70h-1.9  C12,70,7.5,74.5,7.5,80.1v12h2.7c0.8,0,1.5,0.7,1.5,1.5s-0.7,1.5-1.5,1.5H4.5v-15c0-7.2,5.9-13.1,13.1-13.1h1.9  C26.7,67,32.5,72.9,32.5,80.1z M11.6,77.9h3.6v15.7c0,0.8-0.7,1.5-1.5,1.5s-1.5-0.7-1.5-1.5V80.9h-0.6c-0.8,0-1.5-0.7-1.5-1.5  S10.8,77.9,11.6,77.9z M25.4,80.9h-0.6v12.7c0,0.8-0.7,1.5-1.5,1.5s-1.5-0.7-1.5-1.5V77.9h3.6c0.8,0,1.5,0.7,1.5,1.5  S26.2,80.9,25.4,80.9z M81.5,64.6c4.3,0,7.8-3.5,7.8-7.8S85.8,49,81.5,49s-7.8,3.5-7.8,7.8S77.2,64.6,81.5,64.6z M81.5,52  c2.6,0,4.8,2.1,4.8,4.8s-2.1,4.8-4.8,4.8s-4.8-2.1-4.8-4.8S78.9,52,81.5,52z M95.5,80.1v15h-5.7c-0.8,0-1.5-0.7-1.5-1.5  s0.7-1.5,1.5-1.5h2.7v-12C92.5,74.5,88,70,82.4,70h-1.9c-5.6,0-10.1,4.5-10.1,10.1v12h2.7c0.8,0,1.5,0.7,1.5,1.5s-0.7,1.5-1.5,1.5  h-5.7v-15c0-7.2,5.9-13.1,13.1-13.1h1.9C89.7,67,95.5,72.9,95.5,80.1z M74.6,77.9h3.6v15.7c0,0.8-0.7,1.5-1.5,1.5s-1.5-0.7-1.5-1.5  V80.9h-0.6c-0.8,0-1.5-0.7-1.5-1.5S73.8,77.9,74.6,77.9z M88.4,80.9h-0.6v12.7c0,0.8-0.7,1.5-1.5,1.5s-1.5-0.7-1.5-1.5V77.9h3.6  c0.8,0,1.5,0.7,1.5,1.5S89.2,80.9,88.4,80.9z"/><text x="0" y="115" fill="#000000" font-size="5px" font-weight="bold" font-family="'Helvetica Neue', Helvetica, Arial-Unicode, Arial, Sans-serif">Created by Pravin Unagar</text><text x="0" y="120" fill="#000000" font-size="5px" font-weight="bold" font-family="'Helvetica Neue', Helvetica, Arial-Unicode, Arial, Sans-serif">from the Noun Project</text></svg>