<svg xmlns="http://www.w3.org/2000/svg" data-name="Layer 1" viewBox="0 0 100 125" x="0px" y="0px"><title>Artboard 18</title><path d="M21.2,54.82a2.51,2.51,0,0,1,5,.83,2.5,2.5,0,0,0,2.05,2.88,2.53,2.53,0,0,0,.42,0,2.5,2.5,0,0,0,2.46-2.08A7.51,7.51,0,1,0,16.27,54a2.5,2.5,0,1,0,4.93.83Z"/><path d="M45.05,51.22a7.52,7.52,0,0,0-8.65,6.16,2.5,2.5,0,1,0,4.93.83,2.51,2.51,0,0,1,5,.83,2.5,2.5,0,0,0,2.05,2.88,2.53,2.53,0,0,0,.42,0,2.5,2.5,0,0,0,2.46-2.08A7.52,7.52,0,0,0,45.05,51.22Z"/><path d="M44.77,68.93a2.5,2.5,0,0,0-3.48.62,10.54,10.54,0,0,1-18.8-3.16,2.5,2.5,0,1,0-4.81,1.37A15.64,15.64,0,0,0,30.06,78.86a15.39,15.39,0,0,0,2.54.21,15.67,15.67,0,0,0,12.79-6.66A2.5,2.5,0,0,0,44.77,68.93Z"/><path d="M80.07,21.19a7.51,7.51,0,0,0-11.35,8,2.5,2.5,0,1,0,4.88-1.09,2.51,2.51,0,0,1,1.9-3,2.51,2.51,0,0,1,3,1.9,2.5,2.5,0,1,0,4.88-1.09A7.46,7.46,0,0,0,80.07,21.19Z"/><path d="M94.23,5a2.5,2.5,0,0,0-1.95-1.86A78,78,0,0,0,31,16.9a2.5,2.5,0,0,0-1,2.51L30.59,22c.5,2.53,1,5.12,1.63,7.78a77.73,77.73,0,0,0-26.07,2,2.5,2.5,0,0,0-1.84,2L3.82,36.3C1.05,50.68-2.39,68.58,8,85.26A27.65,27.65,0,0,0,26.86,97.92a27.24,27.24,0,0,0,4.51.38,27.75,27.75,0,0,0,17.42-6.18,47.63,47.63,0,0,0,15-21.67A27.41,27.41,0,0,0,93.31,56.66c9.5-17.21,5.09-34.89,1.55-49.1ZM45.65,88.22a22.49,22.49,0,0,1-33.37-5.61c-9.38-15-6.15-31.84-3.54-45.36l.19-1a73,73,0,0,1,55,9.25l-.15,1C61.85,60.15,59.41,77.1,45.65,88.22Zm43.28-34A22.51,22.51,0,0,1,65.26,65.64a144,144,0,0,0,3.51-18.4l.06-.42.5-.13a10.6,10.6,0,0,1,10.63,3.81,2.5,2.5,0,0,0,3.94-3.08,15.63,15.63,0,0,0-15.66-5.61l-.56.15a77.5,77.5,0,0,0-14.39-7.34,2.48,2.48,0,0,0,.18-1.6,2.51,2.51,0,0,1,1.9-3,2.47,2.47,0,0,1,1.89.33,2.5,2.5,0,0,1,1.11,1.57,2.5,2.5,0,0,0,4.88-1.1A7.51,7.51,0,0,0,48.42,33a78.17,78.17,0,0,0-10.91-2.56c-.78-3.22-1.41-6.36-2-9.41l-.2-1A73,73,0,0,1,89.76,7.78l.25,1C93.33,22.13,97.48,38.75,88.93,54.25Z"/><text x="0" y="115" fill="#000000" font-size="5px" font-weight="bold" font-family="'Helvetica Neue', Helvetica, Arial-Unicode, Arial, Sans-serif">Created by Gregor Cresnar</text><text x="0" y="120" fill="#000000" font-size="5px" font-weight="bold" font-family="'Helvetica Neue', Helvetica, Arial-Unicode, Arial, Sans-serif">from the Noun Project</text></svg>