<svg xmlns="http://www.w3.org/2000/svg" xmlns:xlink="http://www.w3.org/1999/xlink" version="1.1" x="0px" y="0px" viewBox="0 0 100 125" enable-background="new 0 0 100 100" xml:space="preserve"><g><path d="M47.238,31.9c4.76,0,8.632-3.873,8.632-8.633c0-4.76-3.872-8.632-8.632-8.632s-8.633,3.873-8.633,8.632   C38.605,28.028,42.478,31.9,47.238,31.9z M47.238,17.635c3.105,0,5.632,2.527,5.632,5.632c0,3.106-2.527,5.633-5.632,5.633   c-3.106,0-5.633-2.527-5.633-5.633C41.605,20.162,44.132,17.635,47.238,17.635z"/><path d="M86.667,86.667h-20.5V81h9.667c0.828,0,1.5-0.672,1.5-1.5s-0.672-1.5-1.5-1.5h-9.667V47.5c0-0.829-0.672-1.5-1.5-1.5   h-4.378l-2.93-11.156c-0.174-0.66-0.77-1.119-1.451-1.119H38.566c-0.683,0-1.28,0.461-1.452,1.123L34.215,46h-3.382   c-0.829,0-1.5,0.671-1.5,1.5V78H20.5c-0.829,0-1.5,0.672-1.5,1.5s0.671,1.5,1.5,1.5h8.833v5.667H12c-0.829,0-1.5,0.672-1.5,1.5   s0.671,1.5,1.5,1.5h74.667c0.828,0,1.5-0.672,1.5-1.5S87.495,86.667,86.667,86.667z M39.726,36.725h15.025L57.188,46h-8.45v-4.833   c0-0.829-0.671-1.5-1.5-1.5s-1.5,0.671-1.5,1.5V46h-8.423L39.726,36.725z M38.833,86.667v-30.8h18.073v30.8H38.833z M59.906,86.667   v-32.3c0-0.828-0.672-1.5-1.5-1.5H37.333c-0.829,0-1.5,0.672-1.5,1.5v32.3h-3.5V49h30.833v37.667H59.906z"/><path d="M17.75,67c0,0.828,0.671,1.5,1.5,1.5s1.5-0.672,1.5-1.5V36.725h10.083c0.829,0,1.5-0.671,1.5-1.5V20.833   c0-0.829-0.671-1.5-1.5-1.5H7.667c-0.829,0-1.5,0.671-1.5,1.5v14.392c0,0.829,0.671,1.5,1.5,1.5H17.75V67z M9.167,22.333h20.167   v11.392H9.167V22.333z"/><path d="M88.666,19.333H65.5c-0.828,0-1.5,0.671-1.5,1.5v14.392c0,0.829,0.672,1.5,1.5,1.5h10.083V67c0,0.828,0.672,1.5,1.5,1.5   s1.5-0.672,1.5-1.5V36.725h10.083c0.828,0,1.5-0.671,1.5-1.5V20.833C90.166,20.005,89.494,19.333,88.666,19.333z M87.166,33.725H67   V22.333h20.166V33.725z"/></g><text x="0" y="115" fill="#000000" font-size="5px" font-weight="bold" font-family="'Helvetica Neue', Helvetica, Arial-Unicode, Arial, Sans-serif">Created by Creative Mania</text><text x="0" y="120" fill="#000000" font-size="5px" font-weight="bold" font-family="'Helvetica Neue', Helvetica, Arial-Unicode, Arial, Sans-serif">from the Noun Project</text></svg>