<svg xmlns="http://www.w3.org/2000/svg" xmlns:xlink="http://www.w3.org/1999/xlink" version="1.1" x="0px" y="0px" viewBox="0 0 48 60" enable-background="new 0 0 48 48" xml:space="preserve"><g><path fill="#000000" d="M47.3,41.9l-16-22.5v-9.2h0.1c2.8,0,5.1-2.3,5.1-5.1c0-2.8-2.3-5.1-5.1-5.1H16.6c-2.8,0-5.1,2.3-5.1,5.1   c0,2.8,2.3,5.1,5.1,5.1h0.1v9.2L0.7,41.9c-0.8,1.2-0.9,2.7-0.3,4c0.7,1.3,2,2.1,3.4,2.1h40.3c1.5,0,2.8-0.8,3.4-2.1   C48.2,44.6,48.1,43.1,47.3,41.9z M16.6,8.2c-1.7,0-3.1-1.4-3.1-3.1c0-1.7,1.4-3.1,3.1-3.1h14.9c1.7,0,3.1,1.4,3.1,3.1   c0,1.7-1.4,3.1-3.1,3.1H16.6z M18.5,20.3c0.1-0.2,0.2-0.4,0.2-0.6v-9.5h10.7v9.5c0,0.2,0.1,0.4,0.2,0.6l7.3,10.4   c-6.7-2-11.4,0-15.2,1.6c-4.1,1.7-7.1,3-11.4-0.3L18.5,20.3z M45.8,45c-0.3,0.6-0.9,1-1.7,1H3.9c-2-0.3-2.4-1.7-1.5-2.9l6.7-9.5   c2.4,1.8,4.5,2.4,6.4,2.4c2.4,0,4.6-0.9,6.9-1.9c4.2-1.8,9-3.7,16.5-0.5l6.7,9.5C46.1,43.6,46.1,44.4,45.8,45z"/></g><text x="0" y="63" fill="#000000" font-size="5px" font-weight="bold" font-family="'Helvetica Neue', Helvetica, Arial-Unicode, Arial, Sans-serif">Created by Vectors Market</text><text x="0" y="68" fill="#000000" font-size="5px" font-weight="bold" font-family="'Helvetica Neue', Helvetica, Arial-Unicode, Arial, Sans-serif">from the Noun Project</text></svg>