<svg xmlns="http://www.w3.org/2000/svg" xmlns:xlink="http://www.w3.org/1999/xlink" version="1.1" x="0px" y="0px" viewBox="0 0 48 60" enable-background="new 0 0 48 48" xml:space="preserve"><g><path fill="#000000" d="M9.2,14.1c3.4-0.9,7.1-0.9,10.5,0c0.1,0,0.2,0,0.2,0c0.4,0,0.9-0.3,1-0.8c0.1-0.5-0.2-1.1-0.7-1.2   c-3.8-0.9-7.7-0.9-11.5,0c-0.5,0.1-0.9,0.7-0.7,1.2C8.2,13.9,8.7,14.2,9.2,14.1z"/><path fill="#000000" d="M9.2,20.1c3.4-0.9,7.1-0.9,10.5,0c0.1,0,0.2,0,0.2,0c0.4,0,0.9-0.3,1-0.8c0.1-0.5-0.2-1.1-0.7-1.2   c-3.8-0.9-7.7-0.9-11.5,0c-0.5,0.1-0.9,0.7-0.7,1.2C8.2,20,8.7,20.3,9.2,20.1z"/><path fill="#000000" d="M9.2,26.2c3.4-0.9,7.1-0.9,10.5,0c0.1,0,0.2,0,0.2,0c0.4,0,0.9-0.3,1-0.8c0.1-0.5-0.2-1.1-0.7-1.2   c-3.8-0.9-7.7-0.9-11.5,0c-0.5,0.1-0.9,0.7-0.7,1.2C8.2,26,8.7,26.3,9.2,26.2z"/><path fill="#000000" d="M20,32.3c0.4,0,0.9-0.3,1-0.8c0.1-0.5-0.2-1.1-0.7-1.2c-3.8-0.9-7.7-0.9-11.5,0C8.2,30.5,7.9,31,8,31.5   c0.1,0.5,0.7,0.9,1.2,0.7c3.4-0.9,7.1-0.9,10.5,0C19.8,32.3,19.9,32.3,20,32.3z"/><path fill="#000000" d="M28.2,14.1c3.4-0.9,7.1-0.9,10.5,0c0.1,0,0.2,0,0.2,0c0.4,0,0.9-0.3,1-0.8c0.1-0.5-0.2-1.1-0.7-1.2   c-3.8-0.9-7.7-0.9-11.5,0c-0.5,0.1-0.9,0.7-0.7,1.2C27.2,13.9,27.7,14.2,28.2,14.1z"/><path fill="#000000" d="M28.2,20.1c3.4-0.9,7.1-0.9,10.5,0c0.1,0,0.2,0,0.2,0c0.4,0,0.9-0.3,1-0.8c0.1-0.5-0.2-1.1-0.7-1.2   c-3.8-0.9-7.7-0.9-11.5,0c-0.5,0.1-0.9,0.7-0.7,1.2C27.2,20,27.7,20.3,28.2,20.1z"/><path fill="#000000" d="M28.2,26.2c3.4-0.9,7.1-0.9,10.5,0c0.1,0,0.2,0,0.2,0c0.4,0,0.9-0.3,1-0.8c0.1-0.5-0.2-1.1-0.7-1.2   c-3.8-0.9-7.7-0.9-11.5,0c-0.5,0.1-0.9,0.7-0.7,1.2C27.2,26,27.7,26.3,28.2,26.2z"/><path fill="#000000" d="M28.2,32.3c3.4-0.9,7.1-0.9,10.5,0c0.1,0,0.2,0,0.2,0c0.4,0,0.9-0.3,1-0.8c0.1-0.5-0.2-1.1-0.7-1.2   c-3.8-0.9-7.7-0.9-11.5,0c-0.5,0.1-0.9,0.7-0.7,1.2C27.2,32.1,27.7,32.4,28.2,32.3z"/><path fill="#000000" d="M47,11.7h-3v-4c0-0.4-0.3-0.8-0.6-0.9C37.1,4.4,30.2,4.4,24,6.7C17.8,4.4,10.9,4.4,4.6,6.8   C4.3,6.9,4,7.3,4,7.7v4H1c-0.6,0-1,0.4-1,1V42c0,0.6,0.4,1,1,1h46c0.6,0,1-0.4,1-1V12.7C48,12.2,47.6,11.7,47,11.7z M25,8.4   c5.5-1.9,11.5-1.9,17,0v27.9c-5.5-1.8-11.5-1.8-17,0V8.4z M6,8.4c5.5-1.9,11.5-1.9,17,0v27.9c-2.8-0.9-5.6-1.3-8.5-1.3   c-2.9,0-5.7,0.4-8.5,1.3V8.4z M46,41H2V13.7h2v24c0.1,0.8,0.5,1.1,1.4,0.9c5.9-2.2,12.4-2.2,18.3,0c0,0,0,0,0,0   c0.2,0.1,0.4,0.1,0.7,0c0,0,0,0,0,0c5.9-2.2,12.4-2.2,18.3,0c0.3,0.1,0.7,0.1,0.9-0.1c0.3-0.2,0.4-0.5,0.4-0.8v-24h2V41z"/></g><text x="0" y="63" fill="#000000" font-size="5px" font-weight="bold" font-family="'Helvetica Neue', Helvetica, Arial-Unicode, Arial, Sans-serif">Created by Vectors Market</text><text x="0" y="68" fill="#000000" font-size="5px" font-weight="bold" font-family="'Helvetica Neue', Helvetica, Arial-Unicode, Arial, Sans-serif">from the Noun Project</text></svg>