<svg xmlns="http://www.w3.org/2000/svg" xmlns:xlink="http://www.w3.org/1999/xlink" version="1.1" x="0px" y="0px" viewBox="0 0 100 125" style="enable-background:new 0 0 100 100;" xml:space="preserve"><path d="M84.7,79.1h-1.4V58.6c0-2.9-2.2-5.2-5.1-5.2s-5.1,2.3-5.1,5.2v20.5h-8.4V58.6c0-2.9-2.2-5.2-5.1-5.2c-2.9,0-5.1,2.3-5.1,5.2  v20.5h-8.4V58.6c0-2.9-2.2-5.2-5.1-5.2c-2.9,0-5.1,2.3-5.1,5.2v20.5h-8.4V58.6c0-2.9-2.4-5.2-5.2-5.2s-5.2,2.3-5.2,5.2v20.5h-1.5  c-2.9,0-5.2,2.4-5.2,5.2c0,2.9,2.3,5.2,5.2,5.2h69c2.9,0,5.2-2.4,5.2-5.2C89.9,81.5,87.6,79.1,84.7,79.1z M76.5,58.6  c0-1,0.7-1.8,1.7-1.8s1.7,0.8,1.7,1.8v20.3h-3.4V58.6z M58,58.6c0-1,0.7-1.8,1.7-1.8c1,0,1.7,0.8,1.7,1.8v20.3H58V58.6z M39.4,58.6  c0-1,0.7-1.8,1.7-1.8c1,0,1.7,0.8,1.7,1.8v20.3h-3.4V58.6z M20.6,58.6c0-1,0.8-1.8,1.8-1.8s1.8,0.8,1.8,1.8v20.3h-3.6V58.6z   M84.7,86.1h-69c-1,0-1.8-0.8-1.8-1.8s0.8-1.8,1.8-1.8h69c1,0,1.8,0.8,1.8,1.8S85.7,86.1,84.7,86.1z M16.4,51h67.7  c3.2,0,5.6-2.5,5.6-5.7v0c0-2.4-1.4-4.5-3.7-5.4l-33.5-12c-0.1-0.1-0.2-0.1-0.4-0.1v-4.6h3.6c0.3,0,0.6,0,0.9-0.1  c0.2,2.1,2,3.7,4.1,3.7h7V13.6h-7.3c-0.2,0-0.3,0-0.5,0c-0.2-2.1-2-3.7-4.1-3.7h-7.2v1.7v11.4v4.7c0,0-0.1,0-0.1,0l-34.2,12  c-2.3,0.8-3.8,3-3.8,5.4C10.6,48.5,13.2,51,16.4,51z M60.4,17h3.9v6.3h-3.6c-0.4,0-0.7-0.4-0.7-0.8v-3.8v-1.4  C60,17.2,60.2,17,60.4,17z M56.6,14.1v3.3v1.4c0,0.5-0.4,1-1,1h-3.6v-6.3h3.8C56.2,13.4,56.6,13.7,56.6,14.1z M15.5,43.1l34.2-12  c0.3-0.1,0.5-0.1,0.8-0.1c0.3,0,0.6,0.1,0.8,0.2l33.5,12c0.9,0.3,1.5,1.2,1.5,2.2v0c0,1.3-0.9,2.3-2.2,2.3H16.4  c-1.3,0-2.3-1-2.3-2.3C14,44.3,14.6,43.4,15.5,43.1z"/><text x="0" y="115" fill="#000000" font-size="5px" font-weight="bold" font-family="'Helvetica Neue', Helvetica, Arial-Unicode, Arial, Sans-serif">Created by Michelle Fosse</text><text x="0" y="120" fill="#000000" font-size="5px" font-weight="bold" font-family="'Helvetica Neue', Helvetica, Arial-Unicode, Arial, Sans-serif">from the Noun Project</text></svg>